<svg width="15" height="27" viewBox="0 0 15 27" fill="none" xmlns="http://www.w3.org/2000/svg">
<path fill-rule="evenodd" clip-rule="evenodd" d="M14.9833 24.2425C15.0405 26.0668 13.7365 26.9556 11.4011 26.9929C9.06573 27.0305 5.45114 26.9051 3.22431 26.9408C0.997479 26.9765 0.0919058 25.7129 0.0482172 23.914C-0.090237 18.2156 0.112786 4.29835 0.119853 3.11604C0.131739 1.07804 0.930662 0.0947152 2.69202 0.0664274C4.11254 0.0439257 10.334 -0.00847195 12.1548 0.00117162C14.2309 0.0124224 14.9691 1.36895 14.999 3.25684C15.0157 4.30156 14.8105 18.746 14.9833 24.2425ZM7.64938 25.5705C9.44415 25.5418 9.35131 22.671 7.47302 22.7008C5.63072 22.7304 5.52021 25.6045 7.64938 25.5705ZM2.0383 5.51954L2.11443 21.2501L12.7516 21.2231L13.1808 5.43179L2.0383 5.51954Z" fill="black"/>
</svg>
