<svg width="57" height="27" viewBox="0 0 57 27" fill="none" xmlns="http://www.w3.org/2000/svg">
<path fill-rule="evenodd" clip-rule="evenodd" d="M28.8936 9.52542L31.5422 5L40.5027 4.44068L40.8122 3.89831L32.5225 3.32203L34.466 0H49.8415C54.5711 0 58.0624 1.66102 56.7037 6.55932C56.291 8.05085 54.3647 11.7797 48.7408 13.339C49.9275 13.4746 52.92 14.7797 52.4041 18.1525C51.4926 24.1356 43.6328 26.9831 39.2644 26.9831H21.1199L20.2255 23.5254L29.7364 22.8644L30.0631 22.322L19.7612 21.6949L18.6433 17.5932L33.3137 16.7458L33.6404 16.2034L7.2578 14.5763L8.5133 12.4237L36.8738 10.6102L37.2005 10.0678L28.8936 9.52542ZM40.7606 10.4237L43.3748 10.4068C45.1291 10.3898 46.9349 9.61017 47.6057 8.01695C48.2248 6.54237 47.3993 5.27119 46.2986 5.27119H43.7532L40.7606 10.4237ZM37.7509 15.5932L34.6036 20.9831H37.6133C39.0064 20.9831 41.5002 20.3051 42.2741 18.339C42.9793 16.5254 41.6722 15.5763 40.7606 15.5763L37.7509 15.5932ZM14.8596 23.9153L13.0365 27H0L1.2555 24.8475L14.8596 23.9153ZM15.7883 0H26.2622L27.0534 2.9322L14.5156 2.15254L15.7883 0ZM27.6553 5.25424L28.7904 9.54237L10.8867 8.37288L12.1422 6.22034L27.6553 5.25424ZM18.5229 17.6102L16.2355 21.4915L3.6117 20.7966L4.8672 18.6441L18.5229 17.6102Z" fill="white"/>
</svg>
