<svg width="383" height="304" viewBox="0 0 383 304" fill="none" xmlns="http://www.w3.org/2000/svg">
<g style="mix-blend-mode:multiply">
<path d="M0 280V304H5.5L22.5 295L41 304H102L24 270L0 280Z" fill="#FC1D3E"/>
<path d="M0.5 208.5V234L23.5 224.5L147.5 278L273.5 224.5L382.5 271.5V245L273.5 198L147.5 252L23.5 198L0.5 208.5Z" fill="#FC1D3E"/>
<path d="M0.5 136.5V162L23.5 152.5L147.5 206L273.5 152.5L382.5 199.5V173L273.5 126L147.5 180L23.5 126L0.5 136.5Z" fill="#FC1D3E"/>
<path d="M0.5 73.5V99L23.5 89.5L147.5 143L273.5 89.5L382.5 136.5V110L273.5 63L147.5 117L23.5 63L0.5 73.5Z" fill="#FC1D3E"/>
<path d="M0.5 10.5V36L23.5 26.5L147.5 80L273.5 26.5L382.5 73.5V47L273.5 0L147.5 54L23.5 0L0.5 10.5Z" fill="#FC1D3E"/>
<path d="M273 269.5L193 304H256L273 295L292 304H353L273 269.5Z" fill="#FC1D3E"/>
</g>
</svg>
