<svg width="461" height="319" viewBox="0 0 461 319" fill="none" xmlns="http://www.w3.org/2000/svg">
<g style="mix-blend-mode:multiply">
<path d="M0.5 181V209.5L113 168.5L0.5 127.5V155.5L34.5 168.5L0.5 181Z" fill="#0CBEEA"/>
<path d="M204.5 273.5L77 318.5H156.5L282.5 273.5L141.5 220.5L282.5 169L139.5 118.5L282.5 66L105.5 0L96.5 26L204.5 66L59 118.5L204.5 169L59 220.5L204.5 273.5Z" fill="#0CBEEA"/>
<path d="M382.5 273.5L255 318.5H334.5L460.5 273.5L319.5 220.5L460.5 169L317.5 118.5L460.5 66L283.5 0L274.5 26L382.5 66L237 118.5L382.5 169L237 220.5L382.5 273.5Z" fill="#0CBEEA"/>
</g>
<path d="M0.5 288.5V317L113 276L0.5 235V263L34.5 276L0.5 288.5Z" fill="#0CBEEA"/>
</svg>
