<svg width="87" height="42" viewBox="0 0 87 42" fill="none" xmlns="http://www.w3.org/2000/svg">
<path fill-rule="evenodd" clip-rule="evenodd" d="M44.1008 14.8173L48.1434 7.77778L61.8199 6.90772L62.2924 6.06403L49.6396 5.16761L52.6059 0H76.0739C83.2927 0 88.6216 2.5838 86.5478 10.2034C85.9178 12.5235 82.9777 18.3239 74.3938 20.7495C76.2051 20.9605 80.7727 22.9906 79.9852 28.2373C78.5939 37.5443 66.5975 41.9736 59.9298 41.9736H32.2356L30.8706 36.5951L45.3871 35.5669L45.8858 34.7232L30.1618 33.7477L28.4555 27.3672L50.8472 26.049L51.3459 25.2053L11.0777 22.6742L12.994 19.3258L56.281 16.5047L56.7798 15.661L44.1008 14.8173ZM62.2136 16.2147L66.2037 16.1883C68.8812 16.162 71.6375 14.9492 72.6613 12.4708C73.6063 10.177 72.3463 8.19962 70.6663 8.19962H66.7812L62.2136 16.2147ZM57.6198 24.2561L52.8159 32.6403H57.4098C59.5361 32.6403 63.3424 31.5857 64.5237 28.5273C65.5999 25.7062 63.6049 24.2298 62.2136 24.2298L57.6198 24.2561ZM22.6804 37.2015L19.8979 42H0L1.91628 38.6516L22.6804 37.2015ZM24.0979 0H40.0845L41.292 4.56121L22.1554 3.3484L24.0979 0ZM42.2108 8.17326L43.9433 14.8437L16.6165 13.0245L18.5328 9.67608L42.2108 8.17326ZM28.2718 27.3936L24.7804 33.4313L5.5126 32.3503L7.42888 29.0019L28.2718 27.3936Z" fill="#E21836"/>
</svg>
