<svg width="47" height="48" viewBox="0 0 47 48" fill="none" xmlns="http://www.w3.org/2000/svg">
<path fill-rule="evenodd" clip-rule="evenodd" d="M12.1953 37.1051C12.1953 37.1051 13.522 21.2986 13.5633 19.5734C16.2211 20.2856 25.2045 16.8714 30.0282 5.98836C34.1195 7.64034 34.9969 10.3219 33.6971 13.9016C33.2893 15.0232 31.7449 18.9635 31.7449 18.9635L29.3766 18.9924L29.209 20.4188C29.209 20.4188 40.3222 23.6793 42.5801 24.3488C41.1722 35.4378 35.9812 41.1418 27.8033 44.1989C24.109 42.2756 12.1953 37.1051 12.1953 37.1051ZM1.1925 37.641L6.57825 16.3021L10.0529 17.2332L9.97824 39.7857L1.1925 37.641Z" fill="black"/>
</svg>
