<svg width="240" height="254" viewBox="0 0 240 254" fill="none" xmlns="http://www.w3.org/2000/svg">
<g clip-path="url(#clip0)">
<path d="M69.1484 168.171C69.1484 168.171 89.4677 189.979 132.878 189.436C176.288 188.893 192.158 168.171 192.158 168.171H69.1484Z" fill="#1D337E"/>
<path d="M92.0289 230.441C88.657 229.898 85.0204 230.546 82.2488 232.543C79.4948 234.557 77.7295 237.99 78.1179 241.371C78.5239 245.067 81.3485 248.167 84.685 249.884C88.0039 251.6 91.7994 252.161 95.5243 252.599C124.07 255.962 153.463 253.369 180.526 243.771C184.869 242.229 189.441 240.285 191.877 236.379C193.501 233.769 193.925 230.441 193.007 227.516C192.566 226.115 191.807 224.766 190.571 223.96C189.476 223.259 188.152 223.049 186.846 222.909C171.205 221.192 155.705 226.587 139.994 227.341C136.322 227.516 132.632 227.446 128.942 227.516C114.202 227.796 99.5316 230.476 84.7909 230.161" fill="#E4E8F4"/>
<path d="M219.735 98.7554L215.445 97.0388L216.822 90.6104L218.446 90.9608L217.37 96.0229L220.371 97.214L219.735 98.7554Z" fill="#111B51"/>
<path d="M239.455 102.609L227.645 99.4385L228.086 97.8446L237.954 100.489L238.325 95.5324L240.002 95.6551L239.455 102.609Z" fill="#111B51"/>
<path d="M228.366 97.4067L228.137 95.7777L235.145 94.7617L235.71 87.4926L237.37 87.6152L236.699 96.2156L228.366 97.4067Z" fill="#111B51"/>
<path d="M227.149 94.9719L226.637 93.3955L231.474 91.8366L231.65 85.9862L233.327 86.0388L233.098 93.0627L227.149 94.9719Z" fill="#111B51"/>
<path d="M215.463 105.587L212.744 100.77L226.832 92.9576L229.674 100.244L215.463 105.587Z" fill="#334DA6"/>
<path d="M196.414 155.104L195.496 153.09L231.192 137.256L216.186 105.744L218.199 104.798L234.175 138.342L196.414 155.104Z" fill="#334DA6"/>
<path d="M214.633 106.375C213.962 105.184 214.385 103.66 215.586 102.994C216.786 102.329 218.322 102.749 218.993 103.94C219.664 105.131 219.24 106.655 218.04 107.321C216.839 108.004 215.303 107.566 214.633 106.375Z" fill="#111B51"/>
<path d="M230.15 139.515C229.479 138.324 229.903 136.8 231.104 136.135C232.304 135.469 233.84 135.889 234.511 137.08C235.181 138.272 234.758 139.795 233.557 140.461C232.357 141.144 230.821 140.724 230.15 139.515Z" fill="#111B51"/>
<path d="M193.042 136.695C194.754 136.695 194.913 136.432 196.572 136.783C197.384 136.958 198.232 137.203 198.797 137.799C199.609 138.657 199.626 139.971 199.573 141.144C199.273 148.063 198.497 154.947 197.278 161.761C196.078 161.936 194.878 162.128 193.677 162.304C193.501 162.321 193.306 162.356 193.165 162.269C192.918 162.128 192.9 161.796 192.9 161.515C192.989 153.335 193.095 145.173 193.183 136.993" fill="#1D337E"/>
<path d="M19.4175 192.186L18.1465 191.1L21.5889 187.211L19.5764 184.707L20.8651 183.673L23.7603 187.246L19.4175 192.186Z" fill="#111B51"/>
<path d="M13.1329 180.433L5.84202 173.339L3.05276 177.472L1.67578 176.544L5.55956 170.746L14.3157 179.242L13.1329 180.433Z" fill="#111B51"/>
<path d="M1.39463 185.758L0 184.829L4.81942 177.665L12.6752 180.66L12.075 182.202L5.4726 179.679L1.39463 185.758Z" fill="#111B51"/>
<path d="M4.2015 189.033L2.75391 188.175L6.40819 182.167L12.5516 183.375L12.2162 185.004L7.23791 184.006L4.2015 189.033Z" fill="#111B51"/>
<path d="M27.9635 179.767V185.302H11.8281L12.9403 177.56L27.9635 179.767Z" fill="#334DA6"/>
<path d="M27.4177 179.294L25.1934 179.136L27.7708 142.125L68.9742 145.821L68.78 148.01L29.8362 144.525L27.4177 179.294Z" fill="#334DA6"/>
<path d="M29.0761 179.504C29.0761 180.871 27.9463 181.992 26.5693 181.992C25.1923 181.992 24.0625 180.871 24.0625 179.504C24.0625 178.138 25.1923 177.017 26.5693 177.017C27.9639 177.017 29.0761 178.121 29.0761 179.504Z" fill="#111B51"/>
<path d="M31.8652 143.053C31.8652 144.42 30.753 145.541 29.3584 145.541C27.9814 145.541 26.8516 144.42 26.8516 143.053C26.8516 141.687 27.9814 140.566 29.3584 140.566C30.7353 140.566 31.8652 141.67 31.8652 143.053Z" fill="#111B51"/>
<path d="M69.733 134.488C68.0206 134.488 67.8617 134.225 66.2023 134.576C65.3902 134.751 64.5428 134.996 63.9779 135.592C63.1659 136.45 63.1482 137.764 63.2012 138.937C63.5013 145.856 64.278 152.74 65.4961 159.554C66.6966 159.729 67.897 159.921 69.0975 160.097C69.274 160.132 69.4682 160.149 69.6094 160.062C69.8566 159.921 69.8742 159.589 69.8742 159.308C69.786 151.128 69.68 142.966 69.5918 134.786" fill="#1D337E"/>
<path d="M193.253 122.349H69.1484V174.81H193.253V122.349Z" fill="#334DA6"/>
<path d="M100.59 161.007C107.201 161.007 112.559 155.69 112.559 149.132C112.559 142.573 107.201 137.256 100.59 137.256C93.9798 137.256 88.6211 142.573 88.6211 149.132C88.6211 155.69 93.9798 161.007 100.59 161.007Z" fill="#E4E8F4"/>
<path d="M186.58 117.918H74.1621V62.1469C74.1621 31.3362 99.3361 6.37584 130.371 6.37584C161.424 6.37584 186.58 31.3537 186.58 62.1469V117.918Z" fill="#334DA6"/>
<path d="M133.99 87.0021C145.826 87.0021 155.421 77.4817 155.421 65.7377C155.421 53.9936 145.826 44.4732 133.99 44.4732C122.154 44.4732 112.559 53.9936 112.559 65.7377C112.559 77.4817 122.154 87.0021 133.99 87.0021Z" fill="#E4E8F4"/>
<path d="M133.99 88.9289C121.103 88.9289 110.617 78.5244 110.617 65.7377C110.617 52.951 121.103 42.5465 133.99 42.5465C146.878 42.5465 157.364 52.951 157.364 65.7377C157.364 78.5244 146.878 88.9289 133.99 88.9289ZM133.99 46.4175C123.257 46.4175 114.519 55.0879 114.519 65.7377C114.519 76.3874 123.257 85.0579 133.99 85.0579C144.724 85.0579 153.462 76.3874 153.462 65.7377C153.462 55.0879 144.724 46.4175 133.99 46.4175Z" fill="#1D337E"/>
<path d="M107.634 29.532C107.846 31.8617 108.41 34.1738 109.328 36.3283C109.487 36.7311 109.699 37.134 110.07 37.3442C110.529 37.6069 111.111 37.4668 111.606 37.3267C121.704 34.5942 132.049 32.755 142.464 31.8617C142.305 27.7804 141.917 23.7167 141.299 19.6705C139.569 19.2852 137.751 19.6004 136.003 19.9683C126.188 22.0001 116.602 25.0479 107.422 29.0241" fill="#1D337E"/>
<path d="M162.66 117.918H108.676V122.332H162.66V117.918Z" fill="#1D337E"/>
<path d="M130.177 69.7377C130.089 71.2265 130.054 72.8914 130.178 74.3627C130.26 75.3395 130.341 75.0032 130.5 77C130.571 77.9284 130.742 78.8222 131.113 79.6629C131.484 80.5212 132.208 81.2744 133.125 81.432C134.185 81.6247 135.244 80.9591 135.844 80.0833C136.427 79.19 136.639 78.1215 136.78 77.053C137 74 136.5 72 136.074 69.8953C135.774 68.7217 135.332 67.4781 134.291 66.83C133.267 66.1819 131.36 66.4622 130.848 67.7759C130.848 67.8109 130.23 68.9319 130.177 69.7377Z" fill="#111B51"/>
<path d="M117.714 62.0593C117.325 62.0243 117.025 61.1134 117.166 59.6071C117.237 58.8539 117.449 57.9956 117.802 57.0672C118.173 56.1564 118.685 55.193 119.355 54.2647C120.697 52.4255 122.321 51.1468 123.61 50.4637C124.899 49.7631 125.852 49.6229 126.064 49.9557C126.505 50.6564 123.963 52.8284 121.721 55.9462C121.156 56.7344 120.662 57.4876 120.238 58.2058C119.832 58.9239 119.461 59.5895 119.161 60.1676C118.543 61.3236 118.12 62.1119 117.714 62.0593Z" fill="white"/>
<path d="M119.197 70.9925C118.862 71.2027 118.35 71.0801 117.838 70.6597C117.326 70.2393 116.814 69.5036 116.532 68.6103C116.249 67.6995 116.231 66.8062 116.426 66.1756C116.602 65.545 116.955 65.1596 117.344 65.1421C117.75 65.1246 118.12 65.4399 118.456 65.9128C118.791 66.3858 119.074 67.0339 119.303 67.752C119.533 68.4702 119.656 69.1708 119.674 69.7488C119.656 70.3094 119.533 70.7823 119.197 70.9925Z" fill="white"/>
<path d="M150.126 61.131C150.479 61.0259 151.291 62.287 151.574 64.6342C151.715 65.7902 151.697 67.209 151.397 68.7504C151.115 70.2743 150.532 71.9383 149.649 73.4973C147.884 76.6677 145.342 78.8046 143.347 79.9782C142.341 80.5737 141.352 80.9241 140.629 80.9591C139.922 80.9941 139.534 80.819 139.516 80.6263C139.499 80.4161 139.816 80.2234 140.275 79.8906C140.752 79.5578 141.352 79.0849 142.094 78.3492C143.594 76.8954 145.589 74.7935 147.09 72.096C148.608 69.416 149.261 66.666 149.508 64.6342C149.791 62.5848 149.72 61.2361 150.126 61.131Z" fill="white"/>
<path opacity="0.2" d="M80.8175 94.0086C80.0407 94.0961 78.8226 90.4528 77.7811 84.3747C77.2691 81.3445 76.7925 77.6836 76.5806 73.5849C76.3511 69.4861 76.3864 64.9319 76.8984 60.1501C77.428 55.3682 78.3989 50.8491 79.7229 46.8729C81.047 42.8968 82.6711 39.4461 84.3305 36.7486C85.99 34.0337 87.6141 32.0368 88.9028 30.7932C90.1915 29.5496 91.0918 29.0416 91.3919 29.2868C92.0628 29.8123 90.1562 33.0703 88.0025 38.5528C86.9079 41.2853 85.7958 44.5958 84.8601 48.3618C83.9068 52.1102 83.1654 56.3141 82.6711 60.7806C81.7178 69.7138 81.912 77.9989 81.8767 84.0595C81.859 90.1025 81.6295 93.921 80.8175 94.0086Z" fill="#AABEFF"/>
<path opacity="0.2" d="M80.765 112.768C79.1585 112.838 77.7639 110.246 77.7463 106.97C77.7286 103.712 79.0879 101.103 80.6944 101.138C82.3009 101.19 83.519 103.783 83.5366 106.935C83.5543 110.106 82.3538 112.716 80.765 112.768Z" fill="#AABEFF"/>
<path d="M145.583 97.2005C145.859 97.1856 146.303 97.53 146.617 98.2277C146.93 98.9254 147.111 99.9936 146.721 101.231C146.306 102.446 145.317 103.866 143.383 104.995C141.45 106.124 138.569 106.786 135.433 106.724C132.299 106.644 129.213 105.828 126.979 104.581C124.742 103.352 123.386 101.891 122.659 100.624C121.959 99.3598 121.861 98.2853 122.011 97.5987C122.161 96.9121 122.509 96.5712 122.804 96.6121C123.48 96.6702 123.717 98.1177 125.464 99.9156C126.327 100.795 127.558 101.779 129.206 102.52C130.799 103.253 132.893 103.738 135.07 103.809C137.251 103.863 139.218 103.481 140.65 102.813C142.109 102.148 143.109 101.244 143.773 100.398C145.025 98.6617 144.925 97.2155 145.583 97.2005Z" fill="#1D337E"/>
<path d="M165.431 97.214C165.431 97.6694 165.06 98.0372 164.601 98.0372C164.142 98.0372 163.771 97.6694 163.771 97.214C163.771 96.7586 164.142 96.3907 164.601 96.3907C165.06 96.3907 165.431 96.7586 165.431 97.214Z" fill="#111B51"/>
<path d="M167.109 115.431C167.109 115.886 166.738 116.254 166.279 116.254C165.82 116.254 165.449 115.886 165.449 115.431C165.449 114.975 165.82 114.607 166.279 114.607C166.738 114.607 167.109 114.975 167.109 115.431Z" fill="#111B51"/>
<path d="M140.398 127.587C140.398 128.042 140.027 128.41 139.568 128.41C139.109 128.41 138.738 128.042 138.738 127.587C138.738 127.131 139.109 126.764 139.568 126.764C140.009 126.764 140.398 127.131 140.398 127.587Z" fill="#111B51"/>
<path d="M139.286 136.415C139.286 136.87 138.916 137.238 138.457 137.238C137.998 137.238 137.627 136.87 137.627 136.415C137.627 135.959 137.998 135.592 138.457 135.592C138.898 135.592 139.286 135.959 139.286 136.415Z" fill="#111B51"/>
<path d="M139.286 167.348C139.286 167.804 138.916 168.171 138.457 168.171C137.998 168.171 137.627 167.804 137.627 167.348C137.627 166.893 137.998 166.525 138.457 166.525C138.898 166.525 139.286 166.893 139.286 167.348Z" fill="#111B51"/>
<path d="M138.722 147.467C138.722 147.923 138.351 148.291 137.892 148.291C137.433 148.291 137.062 147.923 137.062 147.467C137.062 147.012 137.433 146.644 137.892 146.644C138.351 146.644 138.722 147.012 138.722 147.467Z" fill="#111B51"/>
<path d="M139.286 157.399C139.286 157.855 138.916 158.222 138.457 158.222C137.998 158.222 137.627 157.855 137.627 157.399C137.627 156.944 137.998 156.576 138.457 156.576C138.898 156.576 139.286 156.944 139.286 157.399Z" fill="#111B51"/>
<path d="M186.615 90.6455C186.633 90.8381 183.826 91.206 179.272 91.6439C176.994 91.8716 174.293 92.0993 171.274 92.3445C169.774 92.4671 168.185 92.5722 166.561 92.7124C165.749 92.7649 164.902 92.835 164.054 92.8875C163.63 92.9225 163.207 92.9401 162.783 92.9751C162.377 93.0101 161.812 93.0276 161.724 93.0802C161.671 93.1152 161.706 93.0802 161.671 93.1503C161.636 93.2203 161.6 93.3605 161.6 93.5356C161.583 93.956 161.565 94.3764 161.53 94.7793C161.494 95.62 161.459 96.4433 161.424 97.249C161.371 98.878 161.336 100.437 161.336 101.926C161.318 104.904 161.371 107.601 161.424 109.843C161.565 114.362 161.742 117.147 161.53 117.182C161.336 117.2 160.806 114.432 160.4 109.913C160.206 107.654 160.047 104.939 159.994 101.943C159.959 100.437 159.976 98.8605 160.012 97.2315C160.029 96.4082 160.047 95.585 160.082 94.7267C160.1 94.3063 160.117 93.8684 160.135 93.4305C160.153 93.1853 160.188 92.905 160.329 92.5722C160.453 92.2394 160.806 91.8716 161.177 91.749C161.53 91.6089 161.812 91.6089 162.042 91.5913L162.695 91.5563C163.119 91.5213 163.542 91.5038 163.966 91.4687C164.813 91.4162 165.643 91.3636 166.473 91.3111C168.114 91.2235 169.686 91.1184 171.204 91.0308C174.223 90.8557 176.924 90.733 179.219 90.6455C183.756 90.4528 186.598 90.4353 186.615 90.6455Z" fill="#1D337E"/>
<path d="M124.245 48.9048C124.068 49.0624 123.362 48.6245 122.568 47.9064C121.791 47.2057 121.332 46.3825 121.544 46.2423C121.738 46.1022 122.391 46.5751 123.168 47.2758C123.945 47.9764 124.439 48.7296 124.245 48.9048Z" fill="#111B51"/>
<path d="M128.624 42.9844C128.748 42.9844 128.871 43.1945 128.995 43.5273C129.136 43.8602 129.313 44.2981 129.471 44.8411C129.648 45.3665 129.754 45.892 129.772 46.2774C129.789 46.6627 129.701 46.9079 129.595 46.9255C129.471 46.943 129.33 46.7328 129.171 46.4175C129.012 46.0847 128.818 45.6468 128.642 45.1038C128.465 44.5608 128.377 44.0353 128.377 43.65C128.412 43.2296 128.518 42.9844 128.624 42.9844Z" fill="#111B51"/>
<path d="M139.974 42.5114C140.08 42.564 140.045 42.8267 139.992 43.2121C139.921 43.5974 139.851 44.1229 139.745 44.7359C139.515 45.9621 139.127 46.9079 138.898 46.8729C138.668 46.8379 138.65 45.8044 138.898 44.5783C139.003 43.9652 139.198 43.3872 139.427 43.0019C139.639 42.634 139.868 42.4589 139.974 42.5114Z" fill="#111B51"/>
<path d="M144.282 45.0337C144.458 45.1914 144.017 46.0146 143.293 46.8729C142.569 47.7312 141.828 48.3092 141.634 48.1691C141.439 48.029 141.881 47.2057 142.622 46.3299C143.364 45.4541 144.105 44.8761 144.282 45.0337Z" fill="#111B51"/>
<path d="M155.421 56.0688C155.527 56.279 154.75 56.8746 153.673 57.3825C152.614 57.8905 151.661 58.1357 151.555 57.9255C151.449 57.7153 152.225 57.1198 153.302 56.6118C154.379 56.1039 155.315 55.8586 155.421 56.0688Z" fill="#111B51"/>
<path d="M157.646 63.881C157.628 64.1262 156.745 64.2663 155.651 64.2138C154.574 64.1612 153.709 63.916 153.709 63.6708C153.727 63.4256 154.609 63.2854 155.704 63.338C156.781 63.3905 157.663 63.6358 157.646 63.881Z" fill="#111B51"/>
<path d="M148.184 84.7951C147.972 84.9177 147.266 84.147 146.595 83.0785C145.924 82.0101 145.536 81.0292 145.747 80.9066C145.959 80.7839 146.665 81.5546 147.336 82.6231C148.007 83.6916 148.378 84.6725 148.184 84.7951Z" fill="#111B51"/>
<path d="M142.375 88.1932C142.163 88.2983 141.545 87.4751 141.086 86.319C140.627 85.1805 140.486 84.1645 140.716 84.0945C140.945 84.0244 141.439 84.8827 141.898 86.0037C142.34 87.1248 142.587 88.1057 142.375 88.1932Z" fill="#111B51"/>
<path d="M130.336 88.6486C130.106 88.6136 130.071 87.6327 130.495 86.5117C130.918 85.4082 131.589 84.6725 131.783 84.7951C131.995 84.9177 131.695 85.7935 131.307 86.8095C130.918 87.8429 130.583 88.7012 130.336 88.6486Z" fill="#111B51"/>
<path d="M124.739 87.37C124.528 87.2474 124.881 86.3015 125.499 85.2505C126.116 84.1996 126.805 83.4464 126.999 83.569C127.211 83.6916 126.858 84.6375 126.24 85.6884C125.622 86.7394 124.951 87.4926 124.739 87.37Z" fill="#111B51"/>
<path d="M115.188 71.6406C115.294 71.6581 115.33 72.0084 115.047 72.4288C114.765 72.8317 114.359 73.2345 113.847 73.6549C112.823 74.4957 111.834 74.9511 111.693 74.7584C111.552 74.5658 112.293 73.8126 113.282 72.9893C113.759 72.5864 114.27 72.2186 114.588 72.0084C114.906 71.7982 115.065 71.6056 115.188 71.6406Z" fill="#111B51"/>
<path d="M114.413 69.2759C114.502 69.346 114.484 69.6087 114.237 69.924C113.99 70.2568 113.531 70.5721 113.036 70.7998C112.066 71.2727 111.183 71.4829 111.077 71.2727C110.971 71.0625 111.677 70.502 112.648 70.0291C113.142 69.8014 113.531 69.6262 113.831 69.4686C114.113 69.3109 114.308 69.2058 114.413 69.2759Z" fill="#111B51"/>
<path d="M114.748 67.5068C114.659 67.7345 113.671 67.5418 112.506 67.3492C111.323 67.139 110.352 66.9813 110.334 66.7361C110.317 66.5084 111.376 66.2632 112.647 66.5084C113.936 66.7186 114.836 67.2791 114.748 67.5068Z" fill="#111B51"/>
<path d="M115.26 63.2854C115.172 63.5131 114.059 63.2504 112.7 62.9701C111.358 62.6899 110.229 62.4622 110.246 62.217C110.246 61.9892 111.447 61.8141 112.894 62.1119C114.324 62.4271 115.348 63.0752 115.26 63.2854Z" fill="#111B51"/>
<path d="M99.4774 162.934C91.7981 162.934 85.5664 156.733 85.5664 149.132C85.5664 141.512 91.8158 135.329 99.4774 135.329C107.157 135.329 113.388 141.53 113.388 149.132C113.406 156.733 107.157 162.934 99.4774 162.934ZM99.4774 139.182C93.9518 139.182 89.4678 143.649 89.4678 149.114C89.4678 154.597 93.9695 159.046 99.4774 159.046C105.003 159.046 109.487 154.579 109.487 149.114C109.505 143.649 105.003 139.182 99.4774 139.182Z" fill="#1D337E"/>
<path d="M133.02 174.81C132.614 174.81 132.508 163.039 132.755 148.553C133.02 134.05 133.55 122.314 133.938 122.314C134.344 122.314 134.45 134.068 134.203 148.571C133.956 163.057 133.426 174.81 133.02 174.81Z" fill="#1D337E"/>
<path d="M193.747 151.409C193.747 151.619 190.322 151.671 184.797 151.671C179.271 151.654 171.645 151.654 163.242 151.636C154.838 151.636 147.212 151.654 141.687 151.654C136.161 151.636 132.754 151.584 132.754 151.374C132.754 151.181 136.161 150.883 141.669 150.638C147.195 150.393 154.821 150.2 163.242 150.2C171.662 150.2 179.306 150.393 184.814 150.655C190.34 150.918 193.747 151.216 193.747 151.409Z" fill="#1D337E"/>
<path d="M110.671 152.232C110.494 152.6 108.093 151.759 105.11 150.883C102.144 150.007 99.6549 149.429 99.7079 149.009C99.7432 148.624 102.409 148.571 105.516 149.499C108.641 150.41 110.865 151.899 110.671 152.232Z" fill="#1B4054"/>
<path opacity="0.2" d="M74.1808 129.146C74.1278 129.233 74.1101 129.443 74.0572 129.549C73.7041 130.337 73.3864 131.458 73.1039 132.859C72.5566 135.662 72.1683 139.515 72.0447 143.789C71.8152 152.319 72.7332 159.291 74.322 159.378C75.9108 159.466 77.6056 152.565 77.835 143.929C77.9586 139.62 77.6938 135.714 77.1995 132.894C76.9524 131.475 76.6523 130.337 76.2992 129.549C76.2639 129.443 76.2109 129.356 76.1756 129.268C76.1227 129.163 76.0873 129.006 75.9991 128.83C75.9108 128.655 75.7696 128.445 75.5401 128.287C75.4165 128.217 75.3282 128.182 75.1164 128.147C74.9222 128.13 74.7633 128.2 74.6574 128.27C74.4809 128.41 74.3396 128.673 74.3043 128.813L74.1808 129.146Z" fill="#AABEFF"/>
<path opacity="0.2" d="M98.4899 131.686C98.4545 132.491 97.6248 133.157 96.5126 133.805C95.9477 134.12 95.3122 134.453 94.6237 134.786C93.9352 135.136 93.1938 135.469 92.417 135.837C91.6403 136.205 90.9165 136.573 90.2103 136.888C89.5218 137.221 88.851 137.501 88.2508 137.729C87.0504 138.184 86.0088 138.412 85.338 137.939C84.7024 137.483 84.6142 136.31 85.3556 134.838C85.7087 134.103 86.2913 133.332 87.0504 132.596C87.8271 131.861 88.7804 131.178 89.8926 130.652C91.0047 130.127 92.1522 129.811 93.2114 129.671C94.2707 129.549 95.2416 129.584 96.036 129.759C97.6601 130.109 98.5428 130.915 98.4899 131.686Z" fill="#AABEFF"/>
<path d="M97.7652 141.302C97.9065 141.687 97.3062 142.23 96.5825 143.089C95.8587 143.929 95.0113 145.138 94.6229 146.609C94.3405 147.66 94.3228 148.711 94.3934 149.604C94.4817 150.515 94.6759 151.268 94.7641 151.811L93.5814 152.197C93.7579 151.706 93.9521 151.426 94.1816 151.426C94.4111 151.409 94.6406 151.671 94.8524 152.144L95.6468 153.878L93.6696 152.53C93.14 152.162 92.4515 151.374 91.9925 150.2C91.5512 149.026 91.357 147.468 91.7807 145.874C92.0808 144.753 92.6457 143.772 93.2989 143.036C93.9521 142.283 94.6759 141.775 95.3291 141.46C96.706 140.794 97.6593 140.934 97.7652 141.302Z" fill="white"/>
<path d="M129.336 2.26624L128.766 7.13788L132.974 7.62258L133.544 2.75095L129.336 2.26624Z" fill="#1D337E"/>
<path d="M128.184 0.0145148L127.939 2.10236L134.954 2.9109L135.198 0.823055L128.184 0.0145148Z" fill="#AABEFF"/>
</g>
<defs>
<clipPath id="clip0">
<rect width="240" height="254" fill="white"/>
</clipPath>
</defs>
</svg>
