<svg width="292" height="183" viewBox="0 0 292 183" fill="none" xmlns="http://www.w3.org/2000/svg">
<g clip-path="url(#clip0)">
<path d="M94.0122 157.34C90.3586 156.736 86.4332 157.446 83.4439 159.636C80.4546 161.826 78.5675 165.571 78.9751 169.256C79.428 173.289 82.4777 176.657 86.0709 178.53C89.6641 180.402 93.7706 181.022 97.7865 181.49C128.631 185.145 160.396 182.32 189.639 171.869C194.335 170.193 199.287 168.063 201.899 163.819C203.65 160.965 204.118 157.356 203.122 154.154C202.653 152.628 201.823 151.163 200.495 150.287C199.317 149.517 197.883 149.291 196.479 149.14C179.585 147.267 162.826 153.157 145.842 153.972C141.871 154.169 137.885 154.078 133.9 154.154C117.957 154.456 102.12 157.371 86.1917 157.038" fill="#E4E8F4"/>
<path d="M271.029 127.95L266.318 122.559L269.444 118.662L270.848 119.795L268.674 122.513L272.388 126.757L271.029 127.95Z" fill="#111B51"/>
<path d="M277.792 115.128L276.539 113.845L285.975 104.587L290.202 110.915L288.693 111.911L285.688 107.396L277.792 115.128Z" fill="#111B51"/>
<path d="M290.505 120.928L286.081 114.313L278.94 117.061L278.291 115.385L286.791 112.108L292 119.931L290.505 120.928Z" fill="#111B51"/>
<path d="M287.47 124.507L284.194 119.04L278.789 120.112L278.441 118.345L285.084 117.016L289.01 123.586L287.47 124.507Z" fill="#111B51"/>
<path d="M261.773 114.418V120.429H279.226L278.018 112.017L261.773 114.418Z" fill="#334DA6"/>
<path d="M262.378 113.905L259.766 76.0122L217.674 79.8181L217.463 77.4167L261.985 73.3994L264.778 113.739L262.378 113.905Z" fill="#334DA6"/>
<path d="M260.582 114.116C260.582 115.612 261.79 116.82 263.284 116.82C264.779 116.82 265.987 115.612 265.987 114.116C265.987 112.621 264.779 111.413 263.284 111.413C261.79 111.413 260.582 112.621 260.582 114.116Z" fill="#111B51"/>
<path d="M257.562 74.4113C257.562 75.9064 258.77 77.1146 260.265 77.1146C261.76 77.1146 262.967 75.9064 262.967 74.4113C262.967 72.9161 261.76 71.7079 260.265 71.7079C258.785 71.6928 257.562 72.9161 257.562 74.4113Z" fill="#111B51"/>
<path d="M103.07 19.2862C102.919 19.3466 102.602 18.667 101.802 17.6853C101.002 16.7037 99.6128 15.4803 97.5897 14.3627C96.5933 13.7888 95.4459 13.2451 94.1777 12.6561C92.9095 12.0822 91.5809 11.4479 90.1769 10.9797C88.7728 10.5115 87.248 10.1944 85.7533 10.3605C84.2587 10.5115 82.764 11.1458 81.4958 12.1879C80.2125 13.2149 79.2161 14.544 78.5216 15.9485C77.8271 17.3531 77.4799 18.8482 77.344 20.3283C77.1025 23.2733 77.7064 26.0069 78.3857 28.1968C79.0651 30.4018 79.9257 32.1236 80.288 33.4677C80.6655 34.7967 80.5749 35.5821 80.439 35.5972C80.288 35.6123 80.122 34.9025 79.5483 33.7396C79.0047 32.5766 77.9479 30.9455 77.0421 28.6801C76.1513 26.4298 75.3361 23.5452 75.5021 20.2075C75.5323 19.3768 75.6682 18.5311 75.8494 17.6702C76.0456 16.8094 76.3627 15.9485 76.7401 15.1028C77.5252 13.4415 78.6877 11.8708 80.2427 10.6323C81.7676 9.37882 83.6699 8.59347 85.5721 8.42734C87.4744 8.24611 89.2559 8.69919 90.7959 9.258C92.3358 9.8319 93.6795 10.5417 94.9175 11.1911C96.1555 11.8406 97.318 12.49 98.3295 13.1847C100.368 14.5289 101.772 16.0542 102.436 17.2776C103.1 18.4707 103.176 19.256 103.07 19.2862Z" fill="#1D337E"/>
<path d="M202.662 137.73C234.129 106.253 234.129 55.2185 202.662 23.7412C171.196 -7.73607 120.179 -7.73609 88.713 23.7412C57.2467 55.2185 57.2467 106.253 88.713 137.73C120.179 169.208 171.196 169.208 202.662 137.73Z" fill="#D8DBED"/>
<path d="M70.4746 49.2652C70.4746 49.2652 134.141 121.487 221.283 52.7992C221.283 52.7992 207.68 2.92994 151.322 0.120831C89.6635 -2.94503 70.4746 49.2652 70.4746 49.2652Z" fill="#334DA6"/>
<path d="M194.032 70.3788C194.032 86.282 181.154 99.1647 165.256 99.1647C149.359 99.1647 136.48 86.282 136.48 70.3788C136.48 54.4756 149.359 41.593 165.256 41.593C181.154 41.593 194.032 54.4756 194.032 70.3788Z" fill="#111B51"/>
<path d="M183.706 70.1372C183.706 80.1352 175.598 88.2454 165.604 88.2454C155.609 88.2454 147.502 80.1352 147.502 70.1372C147.502 60.1391 155.609 52.029 165.604 52.029C175.613 52.0441 183.706 60.1391 183.706 70.1372Z" fill="#E4E8F4"/>
<path d="M165.619 89.8916C154.733 89.8916 145.871 81.0262 145.871 70.1372C145.871 59.2481 154.733 50.3828 165.619 50.3828C176.504 50.3828 185.366 59.2481 185.366 70.1372C185.351 81.0262 176.504 89.8916 165.619 89.8916ZM165.619 53.6903C156.545 53.6903 149.162 61.0755 149.162 70.1523C149.162 79.229 156.545 86.6143 165.619 86.6143C174.692 86.6143 182.075 79.229 182.075 70.1523C182.06 61.0604 174.692 53.6903 165.619 53.6903Z" fill="#1D337E"/>
<path d="M165.333 55.8349C165.212 55.714 164.955 55.7745 164.789 55.85C163.702 56.3484 163.053 57.2847 162.796 58.2362C162.54 59.1877 162.645 60.1694 162.751 61.151C162.887 62.465 163.023 63.7638 163.158 65.0778C163.219 65.6819 163.294 66.3011 163.596 66.8448C163.913 67.4036 164.517 67.8869 165.302 67.9926C166.193 68.1134 167.099 67.6905 167.597 67.1015C168.095 66.5276 168.277 65.8178 168.382 65.1231C168.79 62.6915 168.578 60.2147 167.793 57.8435C167.537 57.0884 167.159 56.2728 166.299 55.85C165.438 55.4271 163.974 55.714 163.868 56.4994" fill="#111B51"/>
<path d="M151.866 67.0109C151.549 66.9807 151.278 66.1954 151.398 64.9267C151.459 64.2924 151.64 63.5524 151.927 62.767C152.244 61.9817 152.667 61.1661 153.225 60.3808C154.358 58.8101 155.731 57.7227 156.818 57.1337C157.921 56.5447 158.706 56.4239 158.887 56.6957C159.264 57.2998 157.12 59.1424 155.218 61.8005C154.75 62.465 154.327 63.1144 153.965 63.7185C153.618 64.3377 153.301 64.8965 153.059 65.3798C152.561 66.3766 152.214 67.0411 151.866 67.0109Z" fill="white"/>
<path d="M153.118 74.6076C152.831 74.7888 152.408 74.6831 151.97 74.3358C151.533 73.9733 151.11 73.3541 150.868 72.5838C150.627 71.8136 150.627 71.0584 150.778 70.5147C150.929 69.971 151.231 69.6539 151.563 69.6237C151.91 69.6086 152.227 69.8804 152.499 70.2731C152.771 70.6809 153.027 71.2246 153.208 71.8438C153.405 72.463 153.51 73.052 153.525 73.5353C153.51 74.0337 153.405 74.4264 153.118 74.6076Z" fill="white"/>
<path d="M179.252 66.2104C179.554 66.1198 180.234 67.1921 180.475 69.1857C180.596 70.1825 180.581 71.3907 180.324 72.6895C180.083 73.9884 179.599 75.3929 178.845 76.7371C177.35 79.4254 175.206 81.2679 173.53 82.2496C172.67 82.7631 171.839 83.05 171.235 83.0802C170.632 83.1104 170.315 82.9594 170.299 82.7933C170.284 82.612 170.556 82.4459 170.949 82.1741C171.341 81.9022 171.87 81.4793 172.489 80.8752C173.757 79.6368 175.433 77.8547 176.701 75.559C177.984 73.2785 178.528 70.9376 178.739 69.2008C178.95 67.464 178.905 66.3011 179.252 66.2104Z" fill="white"/>
<path d="M157.392 55.8047C157.241 55.9406 156.637 55.563 155.988 54.9589C155.324 54.3548 154.946 53.6601 155.127 53.5393C155.293 53.4184 155.852 53.8262 156.501 54.4152C157.135 55.0193 157.543 55.6536 157.392 55.8047Z" fill="#111B51"/>
<path d="M161.089 50.7603C161.195 50.7603 161.286 50.9416 161.406 51.2134C161.527 51.5004 161.663 51.878 161.814 52.331C161.965 52.7841 162.056 53.2221 162.056 53.5544C162.071 53.8866 161.995 54.0981 161.905 54.1132C161.799 54.1283 161.693 53.9621 161.557 53.6752C161.421 53.4033 161.255 53.0107 161.12 52.5576C160.969 52.1045 160.893 51.6514 160.908 51.3191C160.908 50.9718 160.984 50.7754 161.089 50.7603Z" fill="#111B51"/>
<path d="M170.678 50.3677C170.769 50.413 170.738 50.6395 170.693 50.9718C170.648 51.304 170.587 51.742 170.482 52.2706C170.285 53.3127 169.968 54.1283 169.772 54.083C169.576 54.0376 169.576 53.1768 169.772 52.1347C169.863 51.6061 170.029 51.1228 170.21 50.8057C170.391 50.4583 170.587 50.3224 170.678 50.3677Z" fill="#111B51"/>
<path d="M174.315 52.5123C174.466 52.6482 174.088 53.358 173.484 54.083C172.88 54.823 172.246 55.3063 172.08 55.1855C171.914 55.0646 172.292 54.3548 172.911 53.6148C173.53 52.8596 174.164 52.3763 174.315 52.5123Z" fill="#111B51"/>
<path d="M183.707 61.9062C183.797 62.0874 183.133 62.5858 182.242 63.0238C181.337 63.4618 180.536 63.6581 180.446 63.4769C180.355 63.2956 181.019 62.7972 181.91 62.3592C182.816 61.9364 183.631 61.7249 183.707 61.9062Z" fill="#111B51"/>
<path d="M185.594 68.5514C185.579 68.7477 184.839 68.8837 183.918 68.8232C182.997 68.7779 182.272 68.5665 182.287 68.3702C182.302 68.1738 183.042 68.0379 183.963 68.0983C184.869 68.1436 185.609 68.3551 185.594 68.5514Z" fill="#111B51"/>
<path d="M177.606 86.3575C177.44 86.4632 176.836 85.8138 176.263 84.9076C175.689 84.0015 175.372 83.1708 175.553 83.0651C175.719 82.9594 176.323 83.6088 176.897 84.5301C177.455 85.4362 177.772 86.2518 177.606 86.3575Z" fill="#111B51"/>
<path d="M172.684 89.2723C172.503 89.363 171.99 88.6531 171.597 87.6866C171.205 86.7049 171.084 85.844 171.28 85.7836C171.476 85.7232 171.899 86.4632 172.276 87.4147C172.669 88.3511 172.865 89.1817 172.684 89.2723Z" fill="#111B51"/>
<path d="M162.524 89.6499C162.328 89.6197 162.298 88.774 162.66 87.8376C163.022 86.8861 163.581 86.282 163.747 86.3877C163.928 86.4934 163.672 87.2335 163.34 88.1094C163.022 88.9703 162.736 89.6952 162.524 89.6499Z" fill="#111B51"/>
<path d="M157.799 88.5625C157.617 88.4568 157.904 87.6564 158.433 86.7502C158.961 85.844 159.535 85.2097 159.701 85.3154C159.882 85.4212 159.595 86.2216 159.067 87.1278C158.553 88.0188 157.98 88.6682 157.799 88.5625Z" fill="#111B51"/>
<path d="M149.736 75.1664C149.827 75.1815 149.857 75.4835 149.615 75.8309C149.374 76.1783 149.042 76.5105 148.604 76.873C147.743 77.5979 146.898 77.9755 146.792 77.8245C146.671 77.6583 147.305 77.0089 148.136 76.3142C148.543 75.9668 148.966 75.6648 149.238 75.4835C149.495 75.3023 149.63 75.1362 149.736 75.1664Z" fill="#111B51"/>
<path d="M149.073 73.1426C149.149 73.203 149.134 73.4145 148.922 73.7014C148.726 73.9733 148.318 74.2451 147.911 74.4414C147.095 74.8492 146.341 75.0305 146.265 74.8492C146.174 74.668 146.763 74.1847 147.594 73.7769C148.016 73.5806 148.348 73.4296 148.59 73.3087C148.816 73.1879 148.983 73.0973 149.073 73.1426Z" fill="#111B51"/>
<path d="M149.36 71.6474C149.285 71.8438 148.454 71.6776 147.458 71.5115C146.461 71.3303 145.631 71.1944 145.631 70.9829C145.616 70.7866 146.507 70.5903 147.594 70.7866C148.666 70.9678 149.436 71.4662 149.36 71.6474Z" fill="#111B51"/>
<path d="M149.797 68.053C149.722 68.2493 148.786 68.0228 147.638 67.7962C146.506 67.5546 145.555 67.3734 145.555 67.1619C145.555 66.9656 146.566 66.8146 147.789 67.0713C149.012 67.328 149.873 67.8717 149.797 68.053Z" fill="#111B51"/>
<path d="M228.561 95.3286C228.606 95.389 228.123 95.7816 227.172 96.4764C226.221 97.1711 224.816 98.183 222.975 99.4667C219.276 101.989 213.659 105.281 206.382 108.694C199.03 111.896 189.941 115.098 179.479 117.016C169.031 118.964 157.24 119.599 145.026 118.436C132.797 117.303 121.369 114.539 111.329 111.111C108.823 110.25 106.362 109.45 104.052 108.453C101.727 107.486 99.4471 106.625 97.2882 105.659C92.9703 103.741 89.0601 101.687 85.6179 99.6026C78.7032 95.4645 73.7814 91.0998 70.7016 87.8376C69.9316 87.0069 69.2522 86.282 68.7238 85.6024C68.1652 84.9379 67.6972 84.3791 67.365 83.8958C66.6705 82.9443 66.3233 82.4308 66.3837 82.3855C66.5196 82.2798 68.0595 84.2129 71.2602 87.2939C74.4608 90.3598 79.443 94.4677 86.3425 98.3944C89.7848 100.373 93.6648 102.321 97.9525 104.149C100.096 105.07 102.376 105.885 104.686 106.807C106.981 107.758 109.427 108.528 111.918 109.359C121.882 112.636 133.175 115.309 145.223 116.442C157.255 117.575 168.85 117.016 179.162 115.189C189.488 113.391 198.486 110.386 205.839 107.381C213.101 104.179 218.762 101.098 222.582 98.8022C224.469 97.6242 225.949 96.718 226.96 96.129C227.972 95.5551 228.53 95.2681 228.561 95.3286Z" fill="#1D337E"/>
<path d="M163.338 122.574C163.338 123.208 162.824 123.722 162.19 123.722C161.556 123.722 161.043 123.208 161.043 122.574C161.043 121.94 161.556 121.426 162.19 121.426C162.824 121.426 163.338 121.94 163.338 122.574Z" fill="#111B51"/>
<path d="M161.029 132.557C161.029 133.191 160.516 133.705 159.882 133.705C159.248 133.705 158.734 133.191 158.734 132.557C158.734 131.923 159.248 131.409 159.882 131.409C160.516 131.409 161.029 131.923 161.029 132.557Z" fill="#111B51"/>
<path d="M158.734 143.31C158.734 143.944 158.221 144.458 157.587 144.458C156.953 144.458 156.439 143.944 156.439 143.31C156.439 142.676 156.953 142.162 157.587 142.162C158.221 142.162 158.734 142.676 158.734 143.31Z" fill="#111B51"/>
<path d="M152.59 154.048C152.59 154.682 152.076 155.196 151.442 155.196C150.808 155.196 150.295 154.682 150.295 154.048C150.295 153.414 150.808 152.9 151.442 152.9C152.076 152.9 152.59 153.414 152.59 154.048Z" fill="#111B51"/>
<path d="M79.685 75.7554C79.685 81.0564 77.7979 85.3456 75.4578 85.3456C73.1327 85.3456 71.2305 81.0564 71.2305 75.7554C71.2305 70.4543 73.1176 66.1651 75.4578 66.1651C77.7979 66.15 79.685 70.4543 79.685 75.7554Z" fill="#111B51"/>
<path d="M169.469 116.82C169.726 116.805 170.133 119.402 170.148 123.646C170.164 127.875 169.605 133.795 167.899 140.063C167.491 141.634 167.008 143.144 166.54 144.594C166.027 146.028 165.514 147.403 165.046 148.717C164.094 151.33 163.143 153.686 162.086 155.589C161.045 157.491 159.897 158.866 158.976 159.651C158.055 160.452 157.436 160.739 157.361 160.633C157.165 160.391 159.188 158.73 160.818 154.954C161.649 153.097 162.449 150.741 163.294 148.113C163.732 146.799 164.185 145.424 164.668 144.005C165.106 142.57 165.559 141.09 165.966 139.565C167.627 133.448 168.397 127.754 168.729 123.601C169.092 119.433 169.182 116.835 169.469 116.82Z" fill="#1D337E"/>
<path d="M144.363 97.8054C144.801 97.1258 144.604 96.2952 144.212 95.5551C144.046 95.2682 143.849 94.9812 143.668 94.7094C142.581 93.2746 141.238 92.0362 139.728 91.0696C138.928 90.6014 138.082 90.2087 137.191 89.9369L144.363 97.8054Z" fill="#1D337E"/>
<path d="M118.908 100.645L118.938 99.6177C118.908 99.9651 118.893 100.312 118.908 100.645Z" fill="#23648F"/>
<path d="M143.759 94.8151C143.729 94.7849 143.699 94.7547 143.684 94.7245C143.88 94.9963 144.061 95.2832 144.227 95.5702C144.091 95.2984 143.925 95.0416 143.759 94.8151Z" fill="#23648F"/>
<path d="M143.667 94.7244C142.625 93.2444 141.282 91.9909 139.727 91.0847C141.251 92.0513 142.595 93.2897 143.667 94.7244Z" fill="#23648F"/>
<path d="M144.224 95.5702C144.617 96.3103 144.798 97.1409 144.375 97.8205L137.219 89.9671C138.11 90.2389 138.955 90.6165 139.755 91.0998C137.868 89.8765 135.74 89.0609 133.505 88.7891C129.459 88.3058 125.186 89.6801 122.258 92.5346C120.416 94.3318 119.178 96.9446 118.951 99.5573C118.951 99.5271 119.027 99.4969 119.193 99.4818C121.261 99.2251 135.589 99.95 137.868 112.108C140.284 111.564 142.533 110.341 144.013 108.377C145.266 106.731 145.915 104.662 146.036 102.593C146.172 100.116 145.477 97.6695 144.224 95.5702Z" fill="#1D337E"/>
<path d="M119.196 99.4667C119.03 99.4818 118.954 99.512 118.954 99.5422C118.954 99.5724 118.954 99.6026 118.954 99.6329L118.924 100.66C118.954 101.747 119.165 102.804 119.603 103.786C120.554 105.885 122.351 107.169 124.238 108.483C127.243 110.567 130.67 112.168 134.308 112.395C135.501 112.47 136.694 112.364 137.871 112.093C135.591 99.9349 121.264 99.21 119.196 99.4667Z" fill="#334DA6"/>
<path d="M20.9701 126.742L19.6113 125.549L23.3253 121.305L21.1513 118.587L22.5553 117.469L25.6805 121.366L20.9701 126.742Z" fill="#111B51"/>
<path d="M14.2075 113.92L6.31154 106.203L3.30715 110.703L1.8125 109.706L6.02469 103.378L15.4606 112.636L14.2075 113.92Z" fill="#111B51"/>
<path d="M1.49465 119.735L0 118.723L5.20862 110.915L13.7085 114.177L13.0593 115.868L5.9182 113.104L1.49465 119.735Z" fill="#111B51"/>
<path d="M4.53018 123.299L2.99023 122.378L6.91557 115.808L13.5585 117.137L13.2112 118.919L7.80632 117.832L4.53018 123.299Z" fill="#111B51"/>
<path d="M30.2261 113.21V119.236H12.7734L13.9812 110.809L30.2261 113.21Z" fill="#334DA6"/>
<path d="M29.6232 112.697L27.2227 112.531L30.0157 72.1911L74.5381 76.2236L74.3267 78.6098L32.235 74.819L29.6232 112.697Z" fill="#334DA6"/>
<path d="M31.4186 112.908C31.4186 114.403 30.2108 115.612 28.7161 115.612C27.2215 115.612 26.0137 114.403 26.0137 112.908C26.0137 111.413 27.2215 110.205 28.7161 110.205C30.2108 110.205 31.4186 111.413 31.4186 112.908Z" fill="#111B51"/>
<path d="M34.4381 73.203C34.4381 74.6982 33.2303 75.9064 31.7356 75.9064C30.241 75.9064 29.0332 74.6982 29.0332 73.203C29.0332 71.7079 30.241 70.4996 31.7356 70.4996C33.2152 70.4996 34.4381 71.7079 34.4381 73.203Z" fill="#111B51"/>
<path d="M104.641 135.154C104.248 135.895 101.893 135.608 98.5114 134.037C97.6659 133.644 96.7601 133.176 95.8391 132.602C94.888 132.058 93.9368 131.394 92.9253 130.684C90.9475 129.219 88.9094 127.437 86.9769 125.338C85.0595 123.238 83.4441 121.049 82.1457 118.964C81.5267 117.907 80.9379 116.895 80.4699 115.898C79.9717 114.932 79.5943 113.98 79.2621 113.104C77.9788 109.601 77.8882 107.214 78.6582 106.897C79.4735 106.55 80.9983 108.256 83.1271 110.945C83.6706 111.624 84.2292 112.364 84.8633 113.135C85.4672 113.935 86.1617 114.736 86.841 115.612C88.2602 117.333 89.8303 119.191 91.5665 121.079C93.3027 122.951 95.0239 124.673 96.6091 126.244C97.4244 126.999 98.1792 127.754 98.919 128.434C99.6437 129.128 100.338 129.763 100.957 130.352C103.478 132.723 105.049 134.369 104.641 135.154Z" fill="#E4E8F4"/>
<path d="M156.862 0.573911C156.953 0.5135 157.376 0.951479 158.04 1.82744C158.704 2.7034 159.595 4.01734 160.531 5.76926C161.467 7.50607 162.418 9.69597 163.128 12.2181C163.853 14.7403 164.381 17.5645 164.758 20.5246C165.528 26.46 165.589 31.9121 165.362 35.8086C165.151 39.7202 164.713 42.1065 164.517 42.0914C164.049 42.0612 164.743 32.4256 163.203 20.721C162.826 17.791 162.373 15.0423 161.739 12.5806C161.12 10.1188 160.335 7.98936 159.535 6.23744C157.949 2.74871 156.651 0.694733 156.862 0.573911Z" fill="#1D337E"/>
<path d="M160.924 29.9186C160.924 30.5529 160.41 31.0664 159.776 31.0664C159.142 31.0664 158.629 30.5529 158.629 29.9186C158.629 29.2842 159.142 28.7708 159.776 28.7708C160.41 28.7708 160.924 29.2842 160.924 29.9186Z" fill="#111B51"/>
<path d="M159.73 16.6885C159.73 17.3229 159.217 17.8364 158.583 17.8364C157.949 17.8364 157.436 17.3229 157.436 16.6885C157.436 16.0542 157.949 15.5407 158.583 15.5407C159.217 15.5407 159.73 16.0542 159.73 16.6885Z" fill="#111B51"/>
<path d="M154.914 5.85988C154.914 6.49419 154.401 7.00769 153.767 7.00769C153.132 7.00769 152.619 6.49419 152.619 5.85988C152.619 5.22556 153.132 4.71207 153.767 4.71207C154.401 4.71207 154.914 5.22556 154.914 5.85988Z" fill="#111B51"/>
<path opacity="0.2" d="M131.515 67.5546C131.077 67.5546 130.7 67.0864 130.367 66.1803C130.292 65.9537 130.201 65.7121 130.126 65.4251C130.065 65.1533 130.02 64.8512 129.975 64.5341C129.899 63.8846 129.794 63.1446 129.839 62.3291C129.854 61.9213 129.869 61.4984 129.884 61.0453C129.915 60.5922 129.99 60.1391 130.065 59.671C130.186 58.7044 130.443 57.7227 130.73 56.6655C131.364 54.5964 132.33 52.3763 133.674 50.2619C135.048 48.1476 136.648 46.3503 138.263 44.9156C139.094 44.2208 139.894 43.5563 140.709 43.0579C141.117 42.8012 141.494 42.5293 141.887 42.3179C142.279 42.1065 142.672 41.9101 143.034 41.7289C143.759 41.3513 144.468 41.1248 145.087 40.9284C145.405 40.8378 145.691 40.7472 145.963 40.7019C146.25 40.6566 146.507 40.6264 146.748 40.5962C147.699 40.5207 148.288 40.6868 148.469 41.0644C148.847 41.8799 147.518 43.2845 145.586 45.3385C145.344 45.5952 145.103 45.867 144.831 46.1389C144.574 46.4107 144.317 46.7279 144.046 47.0149C143.487 47.5888 142.959 48.2835 142.37 48.948C141.238 50.3526 140.06 51.9081 138.943 53.6299C137.841 55.3667 136.92 57.0884 136.12 58.7044C135.757 59.5199 135.365 60.2902 135.063 61.0453C134.912 61.4229 134.731 61.7702 134.595 62.1327C134.459 62.4801 134.323 62.8274 134.187 63.1446C133.13 65.7574 132.421 67.5546 131.515 67.5546Z" fill="#AABEFF"/>
<path opacity="0.2" d="M94.1485 25.7955C94.7826 26.3996 94.2844 28.0156 93.137 30.2055C91.9896 32.3954 90.2081 35.1592 88.1548 38.1496C86.1016 41.1399 84.1691 43.798 82.5385 45.6707C80.9231 47.5284 79.5794 48.5705 78.7944 48.208C78.0244 47.8455 77.9489 46.1087 78.6283 43.6017C79.3077 41.0946 80.7721 37.8475 82.9915 34.6155C85.1957 31.3986 87.7019 28.8463 89.8004 27.3058C91.8839 25.7653 93.5295 25.2065 94.1485 25.7955Z" fill="#AABEFF"/>
<path opacity="0.2" d="M109.623 14.0607C110.468 15.5709 109.547 17.7004 107.554 18.818C105.561 19.9356 103.267 19.6336 102.421 18.1233C101.576 16.613 102.497 14.4836 104.49 13.3659C106.482 12.2332 108.777 12.5504 109.623 14.0607Z" fill="#AABEFF"/>
</g>
<defs>
<clipPath id="clip0">
<rect width="292" height="183" fill="white"/>
</clipPath>
</defs>
</svg>
