<svg width="54" height="80" viewBox="0 0 54 80" fill="none" xmlns="http://www.w3.org/2000/svg">
<path d="M22.2017 16.1203V33.3631C22.2017 36.0674 24.4025 38.2688 27.1062 38.2688C29.8099 38.2688 32.0107 36.0674 32.0107 33.3631V6.03553C33.2496 5.63098 34.146 4.46469 34.146 3.09431C34.146 1.38861 32.7577 0 31.0524 0C29.3471 0 27.9588 1.38861 27.9588 3.09431C27.9588 4.46469 28.8589 5.63098 30.0941 6.03553V33.3631C30.0941 35.0105 28.7532 36.3517 27.1062 36.3517C25.4592 36.3517 24.1183 35.0105 24.1183 33.3631V16.1203C25.3572 15.7157 26.2536 14.5494 26.2536 13.179C26.2536 11.4733 24.8653 10.0847 23.16 10.0847C21.4547 10.0847 20.0664 11.4733 20.0664 13.179C20.0664 14.5531 20.9628 15.7157 22.2017 16.1203ZM29.8718 3.09431C29.8718 2.44556 30.4002 1.91344 31.0524 1.91344C31.701 1.91344 32.233 2.44191 32.233 3.09431C32.233 3.74305 31.7047 4.27517 31.0524 4.27517C30.4002 4.27517 29.8718 3.7467 29.8718 3.09431ZM23.16 12.0018C23.8086 12.0018 24.3406 12.5303 24.3406 13.1827C24.3406 13.8314 23.8122 14.3636 23.16 14.3636C22.5114 14.3636 21.9794 13.8351 21.9794 13.1827C21.9794 12.5303 22.5114 12.0018 23.16 12.0018Z" fill="#334DA6"/>
<path d="M50.7834 14.4328C49.0781 14.4328 47.6898 15.8214 47.6898 17.5271C47.6898 18.8975 48.5899 20.0638 49.8251 20.4683V28.8656L39.4367 32.7435V27.8014L45.6748 25.6364V15.2237C46.9137 14.8191 47.8101 13.6528 47.8101 12.2825C47.8101 10.5768 46.4218 9.18815 44.7165 9.18815C43.0112 9.18815 41.6229 10.5768 41.6229 12.2825C41.6229 13.6528 42.523 14.8191 43.7582 15.2237V24.2697L39.4367 25.7713V22.2287C40.6756 21.8241 41.5719 20.6579 41.5719 19.2875C41.5719 17.5818 40.1836 16.1932 38.4784 16.1932C36.7731 16.1932 35.3848 17.5818 35.3848 19.2875C35.3848 20.6579 36.2848 21.8241 37.52 22.2287L37.5164 40.5066C37.5164 40.8528 37.2358 41.1335 36.8897 41.1335H34.8018H34.441H19.7675H19.0825H17.3189C16.9727 41.1335 16.6922 40.8528 16.6922 40.5066V22.2251C17.9311 21.8205 18.8274 20.6542 18.8274 19.2838C18.8274 17.5781 17.4391 16.1895 15.7339 16.1895C14.0286 16.1895 12.6403 17.5781 12.6403 19.2838C12.6403 20.6579 13.5403 21.8205 14.7755 22.2251V25.7677L10.454 24.2661V15.22C11.6929 14.8155 12.5893 13.6492 12.5893 12.2788C12.5893 10.5731 11.201 9.18451 9.4957 9.18451C7.79041 9.18451 6.40213 10.5731 6.40213 12.2788C6.40213 13.6492 7.2985 14.8155 8.53738 15.22V25.6292L14.7755 27.7941V32.4046L4.05189 28.862V20.4647C5.29077 20.0601 6.18714 18.8938 6.18714 17.5235C6.18714 15.8178 4.79886 14.4292 3.09357 14.4292C1.38828 14.4292 0 15.8178 0 17.5235C0 18.8938 0.900015 20.0601 2.13526 20.4647V30.1813L14.8047 34.4674V40.5066C14.8047 41.8916 15.9306 43.0178 17.3153 43.0178H17.88V47.8105H14.8047V59.1526L18.0659 62.5677H21.6769V77.2592L27.1025 79.9964L32.5281 77.2592V62.5677H36.139L39.4002 59.1526V47.8105H36.3285V43.0178H36.8933C38.2779 43.0178 39.4039 41.8916 39.4039 40.5066V34.81L51.7417 30.1886V20.472C52.9806 20.0674 53.877 18.9011 53.877 17.5308C53.8806 15.8214 52.4923 14.4328 50.7834 14.4328ZM43.5396 12.2825C43.5396 11.6337 44.0679 11.1016 44.7202 11.1016C45.3688 11.1016 45.9007 11.6301 45.9007 12.2825C45.9007 12.9312 45.3724 13.4633 44.7202 13.4633C44.0679 13.4597 43.5396 12.9312 43.5396 12.2825ZM9.4957 13.456C8.84711 13.456 8.31511 12.9276 8.31511 12.2752C8.31511 11.6264 8.84346 11.0943 9.4957 11.0943C10.1443 11.0943 10.6763 11.6228 10.6763 12.2752C10.6763 12.9276 10.1479 13.456 9.4957 13.456ZM3.09357 18.7043C2.44498 18.7043 1.91299 18.1759 1.91299 17.5235C1.91299 16.8747 2.44133 16.3426 3.09357 16.3426C3.74581 16.3426 4.27416 16.8711 4.27416 17.5235C4.27416 18.1759 3.74581 18.7043 3.09357 18.7043ZM14.5569 19.2838C14.5569 18.6351 15.0853 18.103 15.7375 18.103C16.3861 18.103 16.9181 18.6314 16.9181 19.2838C16.9181 19.9326 16.3897 20.4647 15.7375 20.4647C15.0853 20.461 14.5569 19.9326 14.5569 19.2838ZM19.7675 41.8879H34.4447V48.944H19.7675V41.8879ZM16.6922 52.4829C17.3991 52.6469 17.9274 53.2811 17.9274 54.0355V58.0228H16.6922V52.4829ZM30.6442 76.1002L27.1061 77.8861L23.6044 76.1185L28.7167 73.538C28.9025 73.4433 28.9754 73.2173 28.8843 73.0314C28.7895 72.8456 28.5636 72.769 28.3778 72.8638L23.568 75.2911V72.1749L28.7167 69.5763C28.9025 69.4815 28.9754 69.2556 28.8843 69.0697C28.7895 68.8838 28.5636 68.8073 28.3778 68.9021L23.568 71.3294V68.4027L28.7167 65.8041C28.9025 65.7093 28.9754 65.4834 28.8843 65.2975C28.7895 65.1116 28.5636 65.0351 28.3778 65.1298L23.568 67.5572V61.4342H30.6442V76.1002ZM35.3374 60.6834H31.4859H30.6442H23.5643H23.1599H18.8748L17.0529 58.7772H37.1557L35.3374 60.6834ZM21.9319 58.0228V54.0355C21.9319 53.1572 22.6461 52.4428 23.5243 52.4428C24.4024 52.4428 25.1166 53.1572 25.1166 54.0355V58.0228H21.9319ZM29.1248 58.0228V54.0355C29.1248 53.1572 29.8389 52.4428 30.7171 52.4428C31.5952 52.4428 32.3094 53.1572 32.3094 54.0355V58.0228H29.1248ZM37.52 58.0228H36.3212V54.0355C36.3212 53.292 36.8314 52.6688 37.52 52.4939V58.0228ZM37.52 49.6984V51.7212C36.4123 51.9107 35.567 52.8729 35.567 54.0355V58.0228H33.071V54.0355C33.071 52.7417 32.0179 51.6884 30.7244 51.6884C29.4308 51.6884 28.3778 52.7417 28.3778 54.0355V58.0228H25.8818V54.0355C25.8818 52.7417 24.8287 51.6884 23.5352 51.6884C22.2417 51.6884 21.1886 52.7417 21.1886 54.0355V58.0228H18.6926V54.0355C18.6926 52.862 17.829 51.8925 16.7031 51.7175V49.6984H19.272H19.7785H34.4556H34.9949H37.52ZM37.3014 19.2875C37.3014 18.6387 37.8298 18.1066 38.482 18.1066C39.1342 18.1066 39.6626 18.6351 39.6626 19.2875C39.6626 19.9362 39.1342 20.4683 38.482 20.4683C37.8298 20.4683 37.3014 19.9399 37.3014 19.2875ZM50.7834 18.708C50.1348 18.708 49.6028 18.1795 49.6028 17.5271C49.6028 16.8784 50.1312 16.3462 50.7834 16.3462C51.432 16.3462 51.964 16.8747 51.964 17.5271C51.964 18.1795 51.4356 18.708 50.7834 18.708Z" fill="#334DA6"/>
</svg>
