<svg width="250" height="80" viewBox="0 0 250 80" fill="none" xmlns="http://www.w3.org/2000/svg">
<g clip-path="url(#clip0)">
<path d="M52.8313 41.323H59.9512C64.1088 41.323 66.623 43.7868 66.623 47.3986C66.623 51.4332 63.4857 53.5253 59.5759 53.5253H56.6646V58.7553H52.8313V41.323ZM59.7035 50.1102C61.6201 50.1102 62.7424 48.9658 62.7424 47.4205C62.7424 45.7039 61.5472 44.7818 59.6306 44.7818H56.6682V50.1102H59.7035Z" fill="#1A1A1A"/>
<path d="M70.4563 41.323H83.5994V44.7344H74.264V48.2697H82.4808V51.6811H74.264V55.3403H83.7233V58.7517H70.4526V41.323H70.4563Z" fill="#1A1A1A"/>
<path d="M88.1287 41.323H92.2607L96.841 48.6925L101.421 41.323H105.553V58.7553H101.745V47.3768L96.841 54.8228H96.7426L91.889 47.4533V58.759H88.1287V41.323Z" fill="#1A1A1A"/>
<path d="M109.35 50.0374C109.35 45.0807 113.085 41.0242 118.438 41.0242C121.724 41.0242 123.568 42.2706 125.186 43.8633L122.894 46.5021C121.549 45.2811 120.405 44.5595 118.412 44.5595C115.475 44.5595 113.358 47.0014 113.358 50.0374C113.358 53.026 115.424 55.5153 118.412 55.5153C120.405 55.5153 121.622 54.7171 122.992 53.4743L125.434 56.0875C123.641 58.0046 121.652 59.0506 118.288 59.0506C113.158 59.0506 109.35 55.0925 109.35 50.0374Z" fill="#1A1A1A"/>
<path d="M133.242 44.8583H127.941V41.323H142.381V44.8583H137.079V58.7517H133.246V44.8583H133.242Z" fill="#1A1A1A"/>
<path d="M149.738 41.1991H153.272L160.742 58.7554H156.734L155.142 54.8446H147.774L146.182 58.7554H142.272L149.738 41.1991ZM153.772 51.4551L151.458 45.8023L149.144 51.4551H153.772Z" fill="#1A1A1A"/>
<path d="M164.12 41.323H167.953V48.2223H175.022V41.323H178.855V58.7553H175.022V51.754H167.953V58.7517H164.12V41.323Z" fill="#1A1A1A"/>
<path d="M183.425 41.323H187.557L192.137 48.6925L196.717 41.323H200.849V58.7553H197.041V47.3768L192.137 54.8228H192.038L187.185 47.4533V58.759H183.425V41.323Z" fill="#1A1A1A"/>
<path d="M211.391 41.1991H214.925L222.395 58.7554H218.387L216.794 54.8446H209.427L207.834 58.7554H203.925L211.391 41.1991ZM215.424 51.4551L213.111 45.8023L210.797 51.4551H215.424Z" fill="#1A1A1A"/>
<path d="M250 58.7517H226.075V41.3194H229.908V55.2893H236.106V41.3194H239.94V55.2893H246.163V41.3194H249.996V58.7517H250Z" fill="#1A1A1A"/>
<path d="M54.3579 66.9777H52.7983V66.1758H56.7919V66.9777H55.2324V71.0961H54.3615V66.9777H54.3579Z" fill="#5E5E78"/>
<path d="M59.8091 66.1758H63.4565V66.9485H60.6726V68.2278H63.1395V69.0004H60.6726V70.3234H63.4893V71.0961H59.8054V66.1758H59.8091Z" fill="#5E5E78"/>
<path d="M68.0476 68.5958L66.3241 66.1794H67.3444L68.5687 67.9435L69.8003 66.1794H70.7914L69.0752 68.5849L70.8606 71.0997H69.8404L68.5468 69.2373L67.246 71.0997H66.2549L68.0476 68.5958Z" fill="#5E5E78"/>
<path d="M73.8594 66.1758H74.723V68.2205H77.0695V66.1758H77.9331V71.0961H77.0695V69.0223H74.723V71.0961H73.8594V66.1758Z" fill="#5E5E78"/>
<path d="M81.0923 68.6396C81.0923 67.2546 82.1599 66.0956 83.6721 66.0956C85.1843 66.0956 86.2373 67.2401 86.2373 68.6396C86.2373 70.0246 85.1697 71.1836 83.6575 71.1836C82.1453 71.1836 81.0923 70.0355 81.0923 68.6396ZM85.33 68.6396C85.33 67.6847 84.634 66.8902 83.6575 66.8902C82.681 66.8902 81.9996 67.6701 81.9996 68.6396C81.9996 69.5945 82.6956 70.389 83.6721 70.389C84.6486 70.389 85.33 69.6091 85.33 68.6396Z" fill="#5E5E78"/>
<path d="M88.5146 71.0779L88.5985 70.3671C88.6604 70.389 88.7734 70.4109 88.879 70.4109C89.3782 70.4109 89.841 70.0938 89.841 67.1489V66.1794H93.2151V71.0997H92.3516V66.9594H90.6499V67.404C90.6499 70.5312 90.0815 71.158 89.1122 71.158C88.9228 71.1544 88.6495 71.1107 88.5146 71.0779Z" fill="#5E5E78"/>
<path d="M96.3779 68.6396C96.3779 67.2546 97.4456 66.0956 98.9577 66.0956C100.47 66.0956 101.523 67.2401 101.523 68.6396C101.523 70.0246 100.455 71.1836 98.9432 71.1836C97.431 71.1836 96.3779 70.0355 96.3779 68.6396ZM100.616 68.6396C100.616 67.6847 99.9197 66.8902 98.9432 66.8902C97.9666 66.8902 97.2852 67.6701 97.2852 68.6396C97.2852 69.5945 97.9812 70.389 98.9577 70.389C99.9343 70.389 100.616 69.6091 100.616 68.6396Z" fill="#5E5E78"/>
<path d="M104.678 66.1758H107.987V66.9558H105.535V71.0961H104.678V66.1758Z" fill="#5E5E78"/>
<path d="M110.964 66.1758H111.813V69.7695L114.302 66.1758H115.111V71.0961H114.262V67.5098L111.78 71.0961H110.964V66.1758Z" fill="#5E5E78"/>
<path d="M118.492 66.1758H119.341V69.7695L121.83 66.1758H122.639V71.0961H121.79V67.5098L119.308 71.0961H118.492V66.1758Z" fill="#5E5E78"/>
<path d="M133.891 70.3234H134.368C134.776 69.5143 134.995 68.5157 134.995 66.872V66.1758H138.423V70.3234H139.036L138.915 72.1494H138.198V71.0961H134.732L134.649 72.1494H133.891V70.3234ZM137.56 70.3234V66.9558H135.825V67.5171C135.825 68.6578 135.629 69.6419 135.29 70.3234H137.56Z" fill="#5E5E78"/>
<path d="M141.32 71.0779L141.404 70.3671C141.466 70.389 141.579 70.4109 141.685 70.4109C142.184 70.4109 142.647 70.0938 142.647 67.1489V66.1794H146.021V71.0997H145.157V66.9594H143.456V67.404C143.456 70.5312 142.887 71.158 141.918 71.158C141.728 71.1544 141.451 71.1107 141.32 71.0779Z" fill="#5E5E78"/>
<path d="M150.364 69.2483C149.676 69.0588 149.191 68.5594 149.191 67.743C149.191 66.7881 149.887 66.1758 151.024 66.1758H153.21V71.0961H152.354V69.3941H151.264L150.04 71.0961H149.02L150.364 69.2483ZM152.354 68.6433V66.9558H151.097C150.452 66.9558 150.066 67.2656 150.066 67.7977C150.066 68.3116 150.466 68.6396 151.086 68.6396H152.354V68.6433Z" fill="#5E5E78"/>
<path d="M165.02 66.1758H169.031V71.0961H168.168V66.9558H165.883V71.0961H165.02V66.1758Z" fill="#5E5E78"/>
<path d="M172.406 66.1758H174.344C175.488 66.1758 176.213 66.8282 176.213 67.8342C176.213 68.9385 175.328 69.5143 174.246 69.5143H173.269V71.0961H172.406V66.1758ZM174.275 68.738C174.927 68.738 175.335 68.3736 175.335 67.8451C175.335 67.2692 174.92 66.9667 174.275 66.9667H173.269V68.738H174.275Z" fill="#5E5E78"/>
<path d="M178.994 68.6396C178.994 67.2546 180.061 66.0956 181.573 66.0956C183.086 66.0956 184.139 67.2401 184.139 68.6396C184.139 70.0246 183.071 71.1836 181.559 71.1836C180.047 71.1836 178.994 70.0355 178.994 68.6396ZM183.231 68.6396C183.231 67.6847 182.535 66.8902 181.559 66.8902C180.582 66.8902 179.901 67.6701 179.901 68.6396C179.901 69.5945 180.597 70.389 181.573 70.389C182.55 70.389 183.231 69.6091 183.231 68.6396Z" fill="#5E5E78"/>
<path d="M187.294 66.1758H188.143V69.7695L190.632 66.1758H191.441V71.0961H190.592V67.5098L188.11 71.0961H187.294V66.1758Z" fill="#5E5E78"/>
<path d="M198.222 67.415C198.222 68.0492 197.821 68.3772 197.384 68.5594C197.93 68.7271 198.346 69.1025 198.346 69.7403C198.346 70.5567 197.635 71.1799 196.538 71.1799C195.584 71.1799 194.957 70.8993 194.41 70.3708L194.88 69.7731C195.321 70.1959 195.85 70.4255 196.517 70.4255C197.038 70.4255 197.478 70.1521 197.478 69.6856C197.478 69.179 196.994 68.9676 196.353 68.9676H195.799V68.2496H196.345C196.972 68.2496 197.358 67.9982 197.358 67.5316C197.358 67.1161 196.979 66.8428 196.429 66.8428C195.846 66.8428 195.423 67.0323 195.052 67.3895L194.589 66.8282C195.059 66.3799 195.616 66.0847 196.487 66.0847C197.511 66.092 198.222 66.6496 198.222 67.415Z" fill="#5E5E78"/>
<path d="M201.468 66.1758H203.676C204.238 66.1758 204.682 66.3289 204.963 66.6132C205.181 66.8319 205.294 67.0979 205.294 67.4442C205.294 68.0346 204.955 68.3517 204.591 68.5412C205.167 68.738 205.568 69.0697 205.568 69.7512C205.568 70.6296 204.842 71.0998 203.746 71.0998H201.468V66.1758ZM203.501 68.2496C204.055 68.2496 204.431 68.031 204.431 67.5681C204.431 67.1818 204.121 66.9412 203.567 66.9412H202.325V68.2496H203.501ZM203.753 70.3307C204.343 70.3307 204.7 70.0975 204.7 69.6419C204.7 69.2264 204.369 68.9822 203.687 68.9822H202.317V70.3307H203.753Z" fill="#5E5E78"/>
<path d="M208.435 68.6396C208.435 67.2546 209.503 66.0956 211.015 66.0956C212.527 66.0956 213.58 67.2401 213.58 68.6396C213.58 70.0246 212.513 71.1836 211.001 71.1836C209.488 71.1836 208.435 70.0355 208.435 68.6396ZM212.673 68.6396C212.673 67.6847 211.977 66.8902 211.001 66.8902C210.024 66.8902 209.343 67.6701 209.343 68.6396C209.343 69.5945 210.039 70.389 211.015 70.389C211.992 70.389 212.673 69.6091 212.673 68.6396Z" fill="#5E5E78"/>
<path d="M216.033 70.3234H216.51C216.918 69.5143 217.137 68.5157 217.137 66.872V66.1758H220.566V70.3234H221.178L221.057 72.1494H220.34V71.0961H216.874L216.791 72.1494H216.033V70.3234ZM219.702 70.3234V66.9558H217.968V67.5171C217.968 68.6578 217.771 69.6419 217.432 70.3234H219.702Z" fill="#5E5E78"/>
<path d="M223.841 68.6396C223.841 67.2401 224.887 66.0956 226.377 66.0956C227.285 66.0956 227.831 66.4127 228.305 66.861L227.751 67.4988C227.358 67.1344 226.935 66.8865 226.374 66.8865C225.434 66.8865 224.749 67.6592 224.749 68.636C224.749 69.5982 225.43 70.3854 226.374 70.3854C226.979 70.3854 227.365 70.1412 227.788 69.7476L228.341 70.3089C227.828 70.8446 227.266 71.1799 226.345 71.1799C224.909 71.1836 223.841 70.0647 223.841 68.6396Z" fill="#5E5E78"/>
<path d="M232.564 66.9777H231.005V66.1758H234.998V66.9777H233.439V71.0961H232.568V66.9777H232.564Z" fill="#5E5E78"/>
<path d="M238.019 66.1758H240.227C240.789 66.1758 241.233 66.3289 241.514 66.6132C241.732 66.8319 241.845 67.0979 241.845 67.4442C241.845 68.0346 241.506 68.3517 241.142 68.5412C241.718 68.738 242.119 69.0697 242.119 69.7512C242.119 70.6296 241.393 71.0998 240.297 71.0998H238.019V66.1758ZM240.049 68.2496C240.603 68.2496 240.978 68.031 240.978 67.5681C240.978 67.1818 240.668 66.9412 240.114 66.9412H238.872V68.2496H240.049ZM240.304 70.3307C240.894 70.3307 241.251 70.0975 241.251 69.6419C241.251 69.2264 240.92 68.9822 240.238 68.9822H238.868V70.3307H240.304Z" fill="#5E5E78"/>
<path d="M246.804 66.1431H247.606L249.77 71.0998H248.856L248.357 69.9116H246.032L245.525 71.0998H244.64L246.804 66.1431ZM248.04 69.1426L247.191 67.1745L246.349 69.1426H248.04Z" fill="#5E5E78"/>
<path d="M22.2017 16.1203V33.3631C22.2017 36.0674 24.4025 38.2688 27.1062 38.2688C29.8099 38.2688 32.0107 36.0674 32.0107 33.3631V6.03553C33.2496 5.63098 34.146 4.46469 34.146 3.09431C34.146 1.38861 32.7577 0 31.0524 0C29.3471 0 27.9588 1.38861 27.9588 3.09431C27.9588 4.46469 28.8589 5.63098 30.0941 6.03553V33.3631C30.0941 35.0105 28.7532 36.3517 27.1062 36.3517C25.4592 36.3517 24.1183 35.0105 24.1183 33.3631V16.1203C25.3572 15.7157 26.2536 14.5494 26.2536 13.179C26.2536 11.4733 24.8653 10.0847 23.16 10.0847C21.4547 10.0847 20.0664 11.4733 20.0664 13.179C20.0664 14.5531 20.9628 15.7157 22.2017 16.1203ZM29.8718 3.09431C29.8718 2.44556 30.4002 1.91344 31.0524 1.91344C31.701 1.91344 32.233 2.44191 32.233 3.09431C32.233 3.74305 31.7047 4.27517 31.0524 4.27517C30.4002 4.27517 29.8718 3.7467 29.8718 3.09431ZM23.16 12.0018C23.8086 12.0018 24.3406 12.5303 24.3406 13.1827C24.3406 13.8314 23.8122 14.3636 23.16 14.3636C22.5114 14.3636 21.9794 13.8351 21.9794 13.1827C21.9794 12.5303 22.5114 12.0018 23.16 12.0018Z" fill="#334DA6"/>
<path d="M50.7834 14.4328C49.0781 14.4328 47.6898 15.8214 47.6898 17.5271C47.6898 18.8975 48.5899 20.0638 49.8251 20.4683V28.8656L39.4367 32.7435V27.8014L45.6748 25.6364V15.2237C46.9137 14.8191 47.8101 13.6528 47.8101 12.2825C47.8101 10.5768 46.4218 9.18815 44.7165 9.18815C43.0112 9.18815 41.6229 10.5768 41.6229 12.2825C41.6229 13.6528 42.523 14.8191 43.7582 15.2237V24.2697L39.4367 25.7713V22.2287C40.6756 21.8241 41.5719 20.6579 41.5719 19.2875C41.5719 17.5818 40.1836 16.1932 38.4784 16.1932C36.7731 16.1932 35.3848 17.5818 35.3848 19.2875C35.3848 20.6579 36.2848 21.8241 37.52 22.2287L37.5164 40.5066C37.5164 40.8528 37.2358 41.1335 36.8897 41.1335H34.8018H34.441H19.7675H19.0825H17.3189C16.9727 41.1335 16.6922 40.8528 16.6922 40.5066V22.2251C17.9311 21.8205 18.8274 20.6542 18.8274 19.2838C18.8274 17.5781 17.4391 16.1895 15.7339 16.1895C14.0286 16.1895 12.6403 17.5781 12.6403 19.2838C12.6403 20.6579 13.5403 21.8205 14.7755 22.2251V25.7677L10.454 24.2661V15.22C11.6929 14.8155 12.5893 13.6492 12.5893 12.2788C12.5893 10.5731 11.201 9.18451 9.4957 9.18451C7.79041 9.18451 6.40213 10.5731 6.40213 12.2788C6.40213 13.6492 7.2985 14.8155 8.53738 15.22V25.6292L14.7755 27.7941V32.4046L4.05189 28.862V20.4647C5.29077 20.0601 6.18714 18.8938 6.18714 17.5235C6.18714 15.8178 4.79886 14.4292 3.09357 14.4292C1.38828 14.4292 0 15.8178 0 17.5235C0 18.8938 0.900015 20.0601 2.13526 20.4647V30.1813L14.8047 34.4674V40.5066C14.8047 41.8916 15.9306 43.0178 17.3153 43.0178H17.88V47.8105H14.8047V59.1526L18.0659 62.5677H21.6769V77.2592L27.1025 79.9964L32.5281 77.2592V62.5677H36.139L39.4002 59.1526V47.8105H36.3285V43.0178H36.8933C38.2779 43.0178 39.4039 41.8916 39.4039 40.5066V34.81L51.7417 30.1886V20.472C52.9806 20.0674 53.877 18.9011 53.877 17.5308C53.8806 15.8214 52.4923 14.4328 50.7834 14.4328ZM43.5396 12.2825C43.5396 11.6337 44.0679 11.1016 44.7202 11.1016C45.3688 11.1016 45.9007 11.6301 45.9007 12.2825C45.9007 12.9312 45.3724 13.4633 44.7202 13.4633C44.0679 13.4597 43.5396 12.9312 43.5396 12.2825ZM9.4957 13.456C8.84711 13.456 8.31511 12.9276 8.31511 12.2752C8.31511 11.6264 8.84346 11.0943 9.4957 11.0943C10.1443 11.0943 10.6763 11.6228 10.6763 12.2752C10.6763 12.9276 10.1479 13.456 9.4957 13.456ZM3.09357 18.7043C2.44498 18.7043 1.91299 18.1759 1.91299 17.5235C1.91299 16.8747 2.44133 16.3426 3.09357 16.3426C3.74581 16.3426 4.27416 16.8711 4.27416 17.5235C4.27416 18.1759 3.74581 18.7043 3.09357 18.7043ZM14.5569 19.2838C14.5569 18.6351 15.0853 18.103 15.7375 18.103C16.3861 18.103 16.9181 18.6314 16.9181 19.2838C16.9181 19.9326 16.3897 20.4647 15.7375 20.4647C15.0853 20.461 14.5569 19.9326 14.5569 19.2838ZM19.7675 41.8879H34.4447V48.944H19.7675V41.8879ZM16.6922 52.4829C17.3991 52.6469 17.9274 53.2811 17.9274 54.0355V58.0228H16.6922V52.4829ZM30.6442 76.1002L27.1061 77.8861L23.6044 76.1185L28.7167 73.538C28.9025 73.4433 28.9754 73.2173 28.8843 73.0314C28.7895 72.8456 28.5636 72.769 28.3778 72.8638L23.568 75.2911V72.1749L28.7167 69.5763C28.9025 69.4815 28.9754 69.2556 28.8843 69.0697C28.7895 68.8838 28.5636 68.8073 28.3778 68.9021L23.568 71.3294V68.4027L28.7167 65.8041C28.9025 65.7093 28.9754 65.4834 28.8843 65.2975C28.7895 65.1116 28.5636 65.0351 28.3778 65.1298L23.568 67.5572V61.4342H30.6442V76.1002ZM35.3374 60.6834H31.4859H30.6442H23.5643H23.1599H18.8748L17.0529 58.7772H37.1557L35.3374 60.6834ZM21.9319 58.0228V54.0355C21.9319 53.1572 22.6461 52.4428 23.5243 52.4428C24.4024 52.4428 25.1166 53.1572 25.1166 54.0355V58.0228H21.9319ZM29.1248 58.0228V54.0355C29.1248 53.1572 29.8389 52.4428 30.7171 52.4428C31.5952 52.4428 32.3094 53.1572 32.3094 54.0355V58.0228H29.1248ZM37.52 58.0228H36.3212V54.0355C36.3212 53.292 36.8314 52.6688 37.52 52.4939V58.0228ZM37.52 49.6984V51.7212C36.4123 51.9107 35.567 52.8729 35.567 54.0355V58.0228H33.071V54.0355C33.071 52.7417 32.0179 51.6884 30.7244 51.6884C29.4308 51.6884 28.3778 52.7417 28.3778 54.0355V58.0228H25.8818V54.0355C25.8818 52.7417 24.8287 51.6884 23.5352 51.6884C22.2417 51.6884 21.1886 52.7417 21.1886 54.0355V58.0228H18.6926V54.0355C18.6926 52.862 17.829 51.8925 16.7031 51.7175V49.6984H19.272H19.7785H34.4556H34.9949H37.52ZM37.3014 19.2875C37.3014 18.6387 37.8298 18.1066 38.482 18.1066C39.1342 18.1066 39.6626 18.6351 39.6626 19.2875C39.6626 19.9362 39.1342 20.4683 38.482 20.4683C37.8298 20.4683 37.3014 19.9399 37.3014 19.2875ZM50.7834 18.708C50.1348 18.708 49.6028 18.1795 49.6028 17.5271C49.6028 16.8784 50.1312 16.3462 50.7834 16.3462C51.432 16.3462 51.964 16.8747 51.964 17.5271C51.964 18.1795 51.4356 18.708 50.7834 18.708Z" fill="#334DA6"/>
</g>
<defs>
<clipPath id="clip0">
<rect width="250" height="80" fill="white"/>
</clipPath>
</defs>
</svg>
