<svg width="60" height="19" viewBox="0 0 60 19" fill="none" xmlns="http://www.w3.org/2000/svg">
<path d="M50.8103 2.22291C45.2576 0.796267 37.8866 0 30.0243 0C22.162 0 14.791 0.796267 9.23825 2.22291C3.24321 3.78227 0 5.93882 0 8.29444C0 12.3421 9.82792 15.6267 23.931 16.423L22.5059 17.0866C21.9654 17.352 21.818 17.8496 22.2111 18.2478C22.4568 18.48 22.8499 18.6127 23.243 18.6127C23.4887 18.6127 23.7344 18.5796 23.931 18.48L28.4027 16.3898C28.7467 16.2239 28.9432 15.9585 28.9432 15.6931C28.9432 15.4277 28.7467 15.1622 28.4027 14.9964L23.931 13.072C23.3413 12.8398 22.6042 12.9393 22.2111 13.3375C21.8671 13.7356 22.0145 14.2333 22.6042 14.4987L23.1939 14.7641C10.1719 13.8683 2.45698 10.8491 2.45698 8.29444C2.45698 5.17573 13.7591 1.65889 30.0243 1.65889C46.2895 1.65889 57.5916 5.14256 57.5916 8.29444C57.5916 11.2141 48.5991 13.9678 36.6581 14.7309C35.9702 14.7641 35.4788 15.1622 35.5279 15.6267C35.5771 16.0912 36.2159 16.423 36.8547 16.3898C50.7121 15.5272 59.9994 12.2758 59.9994 8.32762C60.0486 5.93882 56.8054 3.78227 50.8103 2.22291Z" fill="white"/>
</svg>
