<svg width="78" height="129" viewBox="0 0 78 129" fill="none" xmlns="http://www.w3.org/2000/svg">
<rect width="78" height="102" rx="4" fill="#242424"/>
<path fill-rule="evenodd" clip-rule="evenodd" d="M24.3914 43.3583L23.5491 41.959C23.5041 41.8848 23.4406 41.8234 23.3649 41.7809C23.2892 41.7385 23.2038 41.7162 23.117 41.7164H22.4805H21.1121L23.874 48.0252H24.9382L27.7001 41.7135H26.3404H25.6981C25.6123 41.7149 25.5282 41.7381 25.4538 41.7811C25.3795 41.824 25.3174 41.8853 25.2733 41.959L24.3914 43.3583ZM23.2875 43.595L24.3914 45.4455L25.5114 43.595L24.3914 46.1364L23.2875 43.595Z" fill="white"/>
<path fill-rule="evenodd" clip-rule="evenodd" d="M32.7993 42.8775C32.3386 42.8764 31.8918 43.0351 31.5349 43.3265C31.178 43.6178 30.9332 44.0239 30.8422 44.4756C30.7511 44.9272 30.8194 45.3964 31.0355 45.8033C31.2516 46.2102 31.602 46.5296 32.0272 46.7072C32.4523 46.8847 32.9258 46.9093 33.3671 46.7769C33.8084 46.6444 34.1901 46.3631 34.4472 45.9808C34.7043 45.5985 34.821 45.1389 34.7773 44.6803C34.7336 44.2216 34.5322 43.7923 34.2075 43.4655C34.0234 43.2792 33.8041 43.1312 33.5624 43.0303C33.3207 42.9294 33.0613 42.8774 32.7993 42.8775ZM32.7993 48.1045C32.0513 48.1039 31.3266 47.8439 30.7486 47.369C30.1707 46.894 29.7753 46.2333 29.6299 45.4995C29.4844 44.7657 29.5978 44.0042 29.9509 43.3447C30.3039 42.6851 30.8746 42.1684 31.5659 41.8825C32.2572 41.5966 33.0262 41.5592 33.742 41.7766C34.4577 41.9941 35.0759 42.453 35.4913 43.0751C35.9067 43.6973 36.0935 44.4442 36.02 45.1887C35.9464 45.9331 35.617 46.629 35.088 47.1579C34.7878 47.4589 34.4311 47.6975 34.0383 47.86C33.6455 48.0224 33.2244 48.1055 32.7993 48.1045ZM52.3091 48.0251V46.7801H54.7815C54.9526 46.7801 55.1168 46.7121 55.2378 46.5911C55.3588 46.4701 55.4268 46.306 55.4268 46.1348C55.426 45.964 55.3577 45.8005 55.2368 45.6799C55.1159 45.5593 54.9523 45.4914 54.7815 45.491H54.0186C53.766 45.498 53.5146 45.4544 53.2792 45.3626C53.0438 45.2708 52.8292 45.1328 52.6481 44.9566C52.4669 44.7804 52.3229 44.5698 52.2246 44.337C52.1263 44.1042 52.0756 43.8541 52.0756 43.6015C52.0756 43.3488 52.1263 43.0987 52.2246 42.8659C52.3229 42.6332 52.4669 42.4225 52.6481 42.2463C52.8292 42.0702 53.0438 41.9321 53.2792 41.8403C53.5146 41.7485 53.766 41.7049 54.0186 41.7119H56.3087V42.9569H54.0186C53.9314 42.9528 53.8442 42.9663 53.7624 42.9968C53.6806 43.0274 53.6058 43.0742 53.5426 43.1344C53.4794 43.1947 53.429 43.2672 53.3947 43.3474C53.3603 43.4277 53.3425 43.5141 53.3425 43.6015C53.3425 43.6888 53.3603 43.7752 53.3947 43.8555C53.429 43.9358 53.4794 44.0082 53.5426 44.0685C53.6058 44.1288 53.6806 44.1756 53.7624 44.2061C53.8442 44.2366 53.9314 44.2502 54.0186 44.246H54.7815C55.2735 44.2597 55.7408 44.4648 56.0839 44.8177C56.4271 45.1705 56.6191 45.6433 56.6191 46.1355C56.6191 46.6278 56.4271 47.1005 56.0839 47.4534C55.7408 47.8063 55.2735 48.0114 54.7815 48.0251H52.3091ZM46.7236 48.0251V42.9569H44.9186V41.7119H49.7839V42.9569H47.9744V48.0251H46.7236ZM38.4599 48.0251V41.7119H39.7049V46.7801H43.0018V48.0251H38.4599ZM32.7935 42.8805C33.2542 42.8794 33.701 43.038 34.0579 43.3294C34.4148 43.6208 34.6596 44.0269 34.7506 44.4785C34.8417 44.9301 34.7734 45.3994 34.5573 45.8063C34.3412 46.2132 33.9908 46.5326 33.5656 46.7101C33.1405 46.8876 32.667 46.9122 32.2257 46.7798C31.7844 46.6474 31.4027 46.366 31.1456 45.9837C30.8885 45.6015 30.7718 45.1419 30.8155 44.6832C30.8592 44.2246 31.0606 43.7953 31.3853 43.4684C31.5694 43.2821 31.7887 43.1342 32.0304 43.0332C32.2722 42.9323 32.5315 42.8804 32.7935 42.8805ZM32.7935 48.1074C32.0454 48.1068 31.3207 47.8469 30.7427 47.3719C30.1648 46.8969 29.7695 46.2363 29.624 45.5025C29.4785 44.7687 29.592 44.0072 29.945 43.3476C30.298 42.6881 30.8688 42.1713 31.56 41.8854C32.2513 41.5995 33.0203 41.5621 33.7361 41.7796C34.4518 41.997 35.0701 42.4559 35.4854 43.0781C35.9008 43.7002 36.0876 44.4471 36.0141 45.1916C35.9405 45.936 35.6112 46.632 35.0821 47.1608C34.7824 47.4606 34.4265 47.6982 34.0348 47.8602C33.6431 48.0221 33.2232 48.1051 32.7993 48.1045L32.7935 48.1074Z" fill="white"/>
<path d="M29.0951 50.6473C29.1186 50.6341 29.1348 50.6385 29.1436 50.6546L29.2171 50.7899C29.2197 50.7976 29.2197 50.806 29.2171 50.8137C29.2144 50.8214 29.2092 50.828 29.2024 50.8325C29.0937 50.8976 28.969 50.9312 28.8423 50.9295C28.7722 50.9319 28.7024 50.92 28.637 50.8948C28.5716 50.8695 28.5119 50.8313 28.4616 50.7825C28.371 50.6845 28.3207 50.5559 28.3207 50.4224C28.3207 50.2889 28.371 50.1603 28.4616 50.0623C28.5079 50.0172 28.563 49.982 28.6234 49.959C28.6838 49.936 28.7483 49.9256 28.8129 49.9285C28.8836 49.9239 28.9544 49.9368 29.019 49.966C29.0836 49.9952 29.14 50.0399 29.1833 50.0961C29.2514 50.2108 29.2823 50.3438 29.2715 50.4768C29.272 50.481 29.2715 50.4852 29.2701 50.4891C29.2687 50.4931 29.2665 50.4967 29.2635 50.4997C29.2605 50.5026 29.2569 50.5049 29.253 50.5063C29.249 50.5076 29.2448 50.5081 29.2406 50.5077H28.6203C28.6274 50.5556 28.649 50.6002 28.6821 50.6355C28.707 50.6589 28.7364 50.677 28.7685 50.6889C28.8005 50.7007 28.8346 50.7061 28.8687 50.7046C28.948 50.7062 29.0262 50.6864 29.0951 50.6473ZM29.004 50.3342C29.0027 50.2885 28.9862 50.2445 28.9569 50.2093C28.9379 50.1899 28.9149 50.1749 28.8896 50.1653C28.8642 50.1556 28.837 50.1516 28.81 50.1534C28.783 50.1525 28.7561 50.1569 28.7308 50.1665C28.7056 50.1761 28.6825 50.1906 28.663 50.2093C28.6337 50.245 28.6154 50.2884 28.61 50.3342H29.004Z" fill="white"/>
<path d="M30.3005 50.0506C30.3388 50.0121 30.3848 49.982 30.4354 49.9623C30.486 49.9426 30.5402 49.9336 30.5945 49.936C30.6965 49.9314 30.7966 49.9649 30.8752 50.03C30.913 50.0687 30.9423 50.1148 30.9613 50.1654C30.9803 50.216 30.9885 50.27 30.9855 50.324V50.8723C30.9857 50.8764 30.985 50.8805 30.9836 50.8843C30.9821 50.8882 30.9798 50.8917 30.9769 50.8946C30.974 50.8975 30.9705 50.8997 30.9667 50.9012C30.9628 50.9027 30.9587 50.9034 30.9546 50.9031H30.7312C30.7231 50.9028 30.7155 50.8994 30.7098 50.8937C30.704 50.888 30.7007 50.8803 30.7003 50.8723V50.4004C30.7062 50.3363 30.689 50.2722 30.6518 50.2196C30.6356 50.2028 30.6158 50.1898 30.594 50.1814C30.5721 50.173 30.5487 50.1695 30.5254 50.1711C30.3622 50.1711 30.302 50.3181 30.302 50.4651V50.8826C30.3001 50.8893 30.296 50.8952 30.2905 50.8995C30.2849 50.9037 30.2781 50.906 30.2711 50.9061H30.0565C30.0483 50.9061 30.0405 50.9028 30.0347 50.897C30.0289 50.8913 30.0256 50.8834 30.0256 50.8752V49.9859C30.0256 49.9777 30.0289 49.9699 30.0347 49.9641C30.0405 49.9583 30.0483 49.9551 30.0565 49.9551H30.2623C30.2705 49.9551 30.2783 49.9583 30.2841 49.9641C30.2899 49.9699 30.2932 49.9777 30.2932 49.9859V50.0506H30.3005Z" fill="white"/>
<path d="M32.4891 50.6474C32.5126 50.6342 32.5288 50.6386 32.5376 50.6548L32.6111 50.79C32.6137 50.7977 32.6137 50.8061 32.611 50.8138C32.6084 50.8215 32.6032 50.8281 32.5964 50.8326C32.4877 50.8977 32.363 50.9313 32.2363 50.9296C32.166 50.932 32.0959 50.9202 32.0302 50.8949C31.9646 50.8697 31.9047 50.8315 31.8541 50.7826C31.7641 50.6843 31.7142 50.5558 31.7142 50.4225C31.7142 50.2892 31.7641 50.1607 31.8541 50.0624C31.9008 50.0174 31.9561 49.9823 32.0168 49.9593C32.0774 49.9363 32.1421 49.9259 32.2069 49.9286C32.2775 49.9248 32.3481 49.938 32.4125 49.9672C32.477 49.9963 32.5335 50.0406 32.5773 50.0962C32.6454 50.2109 32.6762 50.3439 32.6655 50.4769C32.6657 50.4811 32.665 50.4854 32.6635 50.4893C32.6619 50.4933 32.6595 50.4968 32.6564 50.4998C32.6533 50.5027 32.6497 50.5049 32.6456 50.5063C32.6416 50.5077 32.6374 50.5082 32.6331 50.5078H32.007C32.0139 50.556 32.036 50.6008 32.0702 50.6356C32.095 50.6592 32.1243 50.6775 32.1564 50.6893C32.1885 50.7012 32.2227 50.7064 32.2568 50.7047C32.3381 50.7074 32.4184 50.6875 32.4891 50.6474ZM32.3965 50.3343C32.3976 50.3096 32.3935 50.285 32.3843 50.2621C32.3752 50.2391 32.3612 50.2184 32.3434 50.2013C32.3256 50.1841 32.3043 50.171 32.281 50.1628C32.2577 50.1546 32.2329 50.1514 32.2083 50.1535C32.1539 50.1519 32.101 50.172 32.0613 50.2094C32.032 50.2449 32.014 50.2884 32.0099 50.3343H32.3965Z" fill="white"/>
<path d="M33.69 50.44V50.881C33.6882 50.8894 33.6832 50.8967 33.676 50.9014C33.6688 50.9061 33.6601 50.9077 33.6517 50.906H33.4445C33.4404 50.9062 33.4363 50.9055 33.4324 50.9041C33.4286 50.9026 33.4251 50.9003 33.4222 50.8974C33.4193 50.8945 33.417 50.891 33.4155 50.8872C33.4141 50.8833 33.4134 50.8792 33.4136 50.8751V49.9858C33.4134 49.9817 33.4141 49.9776 33.4155 49.9738C33.417 49.9699 33.4193 49.9665 33.4222 49.9635C33.4251 49.9606 33.4286 49.9584 33.4324 49.9569C33.4363 49.9554 33.4404 49.9548 33.4445 49.955H33.6517C33.6599 49.955 33.6678 49.9582 33.6736 49.964C33.6794 49.9698 33.6826 49.9777 33.6826 49.9858V50.0432C33.711 50.0085 33.747 49.9809 33.7878 49.9623C33.8285 49.9437 33.873 49.9346 33.9178 49.9359C34.0027 49.933 34.0858 49.9613 34.1515 50.0152C34.1584 50.02 34.1632 50.0272 34.1651 50.0353C34.167 50.0435 34.1658 50.052 34.1618 50.0593L34.0927 50.224C34.0902 50.2278 34.0869 50.2312 34.0831 50.2337C34.0792 50.2363 34.0749 50.238 34.0704 50.2389C34.0658 50.2397 34.0611 50.2396 34.0566 50.2385C34.0521 50.2375 34.0479 50.2355 34.0442 50.2328C33.9944 50.1985 33.9356 50.1796 33.8752 50.1784C33.7296 50.1784 33.69 50.3092 33.69 50.44Z" fill="white"/>
<path d="M35.4246 51.1265C35.4628 51.0815 35.4822 51.0237 35.479 50.9648V50.8722C35.4076 50.9099 35.3275 50.9282 35.2468 50.9251C35.1885 50.927 35.1305 50.9173 35.076 50.8967C35.0215 50.876 34.9716 50.8447 34.9293 50.8046C34.8811 50.755 34.8433 50.6963 34.8181 50.632C34.7928 50.5676 34.7807 50.4989 34.7823 50.4298C34.7787 50.2971 34.8255 50.1679 34.9131 50.0682C34.9553 50.0251 35.0059 49.9911 35.0618 49.9684C35.1177 49.9456 35.1776 49.9346 35.238 49.9359C35.3229 49.9375 35.4054 49.9646 35.4746 50.0138V49.9859C35.4746 49.9817 35.4755 49.9776 35.4771 49.9737C35.4787 49.9699 35.4811 49.9664 35.4842 49.9635C35.4872 49.9606 35.4908 49.9584 35.4947 49.9569C35.4986 49.9555 35.5028 49.9548 35.507 49.955H35.7113C35.7154 49.9548 35.7196 49.9555 35.7235 49.9569C35.7274 49.9584 35.731 49.9606 35.734 49.9635C35.7371 49.9664 35.7395 49.9699 35.7411 49.9737C35.7428 49.9776 35.7436 49.9817 35.7436 49.9859V50.9295C35.7483 50.9988 35.7375 51.0682 35.7121 51.1327C35.6866 51.1973 35.6472 51.2554 35.5966 51.3029C35.4954 51.3765 35.3717 51.4123 35.2468 51.4043C35.1146 51.4065 34.9845 51.3708 34.872 51.3014C34.8653 51.2968 34.8603 51.2902 34.8577 51.2825C34.855 51.2748 34.8549 51.2665 34.8573 51.2588L34.9396 51.1015C34.9415 51.0973 34.9445 51.0936 34.9482 51.0907C34.9519 51.0878 34.9562 51.0859 34.9608 51.085C34.9654 51.0841 34.9702 51.0844 34.9746 51.0857C34.9791 51.0871 34.9832 51.0895 34.9866 51.0927C35.0644 51.1465 35.1566 51.1757 35.2512 51.1765C35.282 51.1803 35.3132 51.1779 35.343 51.1693C35.3729 51.1607 35.4006 51.1461 35.4246 51.1265ZM35.479 50.6385V50.2446C35.424 50.2007 35.3567 50.175 35.2865 50.1711C35.259 50.1703 35.2316 50.1754 35.2063 50.186C35.1809 50.1967 35.1581 50.2126 35.1395 50.2328C35.0945 50.29 35.0716 50.3615 35.0748 50.4342C35.0695 50.5078 35.092 50.5808 35.138 50.6385C35.1568 50.6585 35.1796 50.6742 35.2049 50.6846C35.2303 50.695 35.2576 50.6999 35.285 50.6988C35.3542 50.6983 35.4217 50.6773 35.479 50.6385Z" fill="white"/>
<path d="M37.1797 50.9619C37.1421 51.0791 37.0753 51.1848 36.9856 51.2691C36.9283 51.3191 36.8612 51.3567 36.7886 51.3794C36.7159 51.4022 36.6394 51.4097 36.5638 51.4014C36.5571 51.4014 36.5508 51.3988 36.5461 51.3941C36.5414 51.3894 36.5388 51.3831 36.5388 51.3764V51.1648C36.5386 51.1614 36.5391 51.1581 36.5403 51.155C36.5414 51.1518 36.5433 51.149 36.5456 51.1466C36.548 51.1443 36.5508 51.1424 36.554 51.1413C36.5571 51.1401 36.5604 51.1396 36.5638 51.1398C36.5799 51.1398 36.5961 51.1398 36.6285 51.1398C36.685 51.1413 36.7404 51.1237 36.7857 51.0898C36.8245 51.0568 36.8569 51.0169 36.8813 50.9722L36.4403 49.9948C36.4403 49.9756 36.4403 49.9507 36.4668 49.9507H36.724C36.7352 49.9488 36.7468 49.9513 36.7563 49.9576C36.7658 49.9638 36.7726 49.9734 36.7754 49.9845L37.0209 50.6283L37.2267 49.9845C37.2267 49.9595 37.2487 49.9507 37.2781 49.9507H37.5148C37.5471 49.9507 37.5471 49.9756 37.5398 49.9948L37.1797 50.9619Z" fill="white"/>
<path d="M39.7077 50.64C39.7077 50.5945 39.671 50.5783 39.6181 50.5548C39.5652 50.5313 39.4843 50.5048 39.4167 50.4725C39.368 50.4518 39.327 50.4165 39.2994 50.3714C39.2717 50.3264 39.2588 50.2738 39.2624 50.2211C39.2624 50.0462 39.3976 49.9359 39.6445 49.9359C39.7574 49.9314 39.8695 49.9567 39.9694 50.0094C39.9732 50.011 39.9767 50.0133 39.9795 50.0163C39.9823 50.0193 39.9845 50.0229 39.9857 50.0269C39.987 50.0308 39.9874 50.035 39.9868 50.0391C39.9863 50.0432 39.9848 50.0471 39.9826 50.0506L39.9062 50.1976C39.8988 50.2138 39.8856 50.2167 39.8694 50.2079C39.8038 50.1695 39.7294 50.1487 39.6533 50.1476C39.5975 50.1476 39.5549 50.1667 39.5549 50.2138C39.5549 50.2608 39.599 50.277 39.6475 50.2961C39.696 50.3152 39.7753 50.3416 39.8415 50.3754C39.8894 50.3945 39.9302 50.4279 39.9583 50.4711C39.9865 50.5142 40.0006 50.565 39.9988 50.6165C39.9988 50.7914 39.8518 50.9222 39.6034 50.9222C39.4831 50.9285 39.3634 50.901 39.2579 50.8429C39.2388 50.8326 39.2344 50.8179 39.2432 50.8046L39.3197 50.643C39.3213 50.6392 39.3238 50.6359 39.3269 50.6332C39.33 50.6306 39.3336 50.6286 39.3375 50.6275C39.3414 50.6264 39.3456 50.6261 39.3496 50.6268C39.3536 50.6274 39.3575 50.6289 39.3608 50.6312C39.4308 50.6789 39.5129 50.7054 39.5975 50.7076C39.6666 50.715 39.7077 50.69 39.7077 50.64Z" fill="white"/>
<path d="M41.0616 50.5341C41.0596 50.5715 41.0666 50.6089 41.0822 50.6429C41.0916 50.6599 41.1059 50.6737 41.1231 50.6826C41.1404 50.6915 41.1599 50.6951 41.1792 50.6929C41.229 50.6915 41.2769 50.6728 41.3144 50.64C41.3335 50.6253 41.3526 50.6282 41.3585 50.64L41.432 50.787C41.4356 50.7942 41.4363 50.8026 41.4338 50.8102C41.4313 50.8179 41.4259 50.8244 41.4188 50.8281C41.3258 50.8889 41.2167 50.9201 41.1057 50.9178C41.0606 50.9218 41.0151 50.9157 40.9727 50.9C40.9302 50.8842 40.8918 50.8592 40.8602 50.8267C40.806 50.749 40.7795 50.6552 40.7853 50.5606V50.1711H40.6809C40.6723 50.1711 40.6641 50.1677 40.658 50.1616C40.652 50.1555 40.6486 50.1473 40.6486 50.1387V49.9918C40.6486 49.9876 40.6494 49.9834 40.651 49.9796C40.6527 49.9758 40.6551 49.9723 40.6581 49.9694C40.6611 49.9665 40.6647 49.9643 40.6686 49.9628C40.6725 49.9613 40.6767 49.9607 40.6809 49.9609H40.7853V49.7683C40.7851 49.7642 40.7857 49.76 40.7872 49.7561C40.7886 49.7522 40.7909 49.7486 40.7938 49.7456C40.7966 49.7425 40.8001 49.7401 40.804 49.7385C40.8078 49.7368 40.8119 49.736 40.8161 49.736H41.0293C41.0336 49.7358 41.0379 49.7365 41.0419 49.738C41.0459 49.7396 41.0495 49.742 41.0526 49.745C41.0556 49.748 41.058 49.7517 41.0596 49.7557C41.0611 49.7597 41.0618 49.764 41.0616 49.7683V49.955H41.3247C41.3289 49.9548 41.3331 49.9555 41.337 49.9569C41.3409 49.9584 41.3445 49.9606 41.3475 49.9635C41.3505 49.9664 41.3529 49.9699 41.3546 49.9737C41.3562 49.9776 41.357 49.9817 41.357 49.9859V50.1329C41.3573 50.1372 41.3566 50.1415 41.355 50.1455C41.3535 50.1495 41.3511 50.1532 41.348 50.1562C41.345 50.1592 41.3413 50.1616 41.3373 50.1632C41.3333 50.1647 41.329 50.1654 41.3247 50.1652H41.0616V50.5341Z" fill="white"/>
<path d="M42.5741 49.9359C42.6713 49.94 42.7652 49.9724 42.8441 50.0294C42.923 50.0863 42.9835 50.1651 43.018 50.2561C43.0525 50.3471 43.0596 50.4462 43.0383 50.5411C43.017 50.6361 42.9682 50.7227 42.8981 50.7902C42.8281 50.8577 42.7397 50.9031 42.644 50.9208C42.5483 50.9386 42.4496 50.9278 42.3599 50.8899C42.2703 50.852 42.1938 50.7886 42.1399 50.7076C42.086 50.6266 42.0571 50.5315 42.0567 50.4342C42.0549 50.3667 42.0672 50.2995 42.0929 50.2369C42.1185 50.1744 42.1569 50.1179 42.2056 50.071C42.2542 50.0241 42.3121 49.9879 42.3756 49.9647C42.439 49.9414 42.5066 49.9316 42.5741 49.9359ZM42.5741 50.6988C42.6275 50.7029 42.6808 50.6909 42.7272 50.6642C42.7736 50.6375 42.8109 50.5975 42.8342 50.5493C42.8575 50.5011 42.8657 50.447 42.8578 50.3941C42.8498 50.3411 42.8261 50.2918 42.7897 50.2526C42.7533 50.2134 42.7059 50.186 42.6537 50.1741C42.6015 50.1623 42.547 50.1664 42.4972 50.186C42.4474 50.2056 42.4046 50.2398 42.3746 50.2841C42.3445 50.3284 42.3285 50.3807 42.3286 50.4342C42.3253 50.4682 42.3292 50.5024 42.3401 50.5348C42.351 50.5671 42.3686 50.5967 42.3918 50.6218C42.415 50.6468 42.4433 50.6666 42.4747 50.6798C42.5061 50.6931 42.54 50.6996 42.5741 50.6988Z" fill="white"/>
<path d="M44.1262 50.4401V50.8811C44.1245 50.8895 44.1195 50.8968 44.1123 50.9015C44.1051 50.9062 44.0964 50.9078 44.088 50.9061H43.8749C43.8708 50.9063 43.8667 50.9056 43.8628 50.9042C43.859 50.9027 43.8555 50.9004 43.8526 50.8975C43.8497 50.8946 43.8474 50.8911 43.846 50.8873C43.8445 50.8834 43.8438 50.8793 43.844 50.8752V49.9859C43.8438 49.9818 43.8445 49.9777 43.846 49.9739C43.8474 49.97 43.8497 49.9666 43.8526 49.9636C43.8555 49.9607 43.859 49.9585 43.8628 49.957C43.8667 49.9555 43.8708 49.9549 43.8749 49.9551H44.088C44.0962 49.9551 44.1041 49.9583 44.1099 49.9641C44.1156 49.9699 44.1189 49.9777 44.1189 49.9859V50.0433C44.1473 50.0086 44.1833 49.981 44.2241 49.9624C44.2648 49.9438 44.3093 49.9347 44.3541 49.936C44.4395 49.9333 44.5229 49.9615 44.5893 50.0153C44.5957 50.0205 44.6001 50.0276 44.602 50.0356C44.6039 50.0436 44.603 50.052 44.5996 50.0594L44.529 50.2241C44.5265 50.2279 44.5232 50.2313 44.5194 50.2338C44.5155 50.2364 44.5112 50.2381 44.5067 50.239C44.5021 50.2398 44.4974 50.2397 44.4929 50.2386C44.4884 50.2376 44.4842 50.2356 44.4805 50.2329C44.4307 50.1986 44.3719 50.1797 44.3115 50.1785C44.1659 50.1785 44.1262 50.3093 44.1262 50.4401Z" fill="white"/>
<path d="M45.3637 50.224C45.3431 50.2358 45.3284 50.2358 45.3181 50.2138L45.2637 50.0829C45.2612 50.0795 45.2594 50.0756 45.2586 50.0714C45.2578 50.0672 45.258 50.0629 45.2591 50.0587C45.2603 50.0546 45.2623 50.0508 45.2652 50.0476C45.268 50.0444 45.2715 50.0419 45.2755 50.0403C45.3937 49.9713 45.5282 49.9352 45.665 49.9359C45.7205 49.9323 45.7761 49.94 45.8285 49.9587C45.8808 49.9774 45.9287 50.0067 45.9693 50.0447C46.029 50.1155 46.059 50.2066 46.0531 50.299V50.8781C46.0527 50.8865 46.0491 50.8943 46.0431 50.9001C46.0371 50.9058 46.0291 50.909 46.0207 50.909H45.837C45.8327 50.9092 45.8285 50.9086 45.8245 50.9071C45.8205 50.9057 45.8168 50.9035 45.8137 50.9006C45.8106 50.8977 45.808 50.8943 45.8062 50.8904C45.8044 50.8866 45.8034 50.8824 45.8032 50.8781V50.862H45.7944C45.7185 50.9099 45.6298 50.9335 45.5401 50.9296C45.4592 50.9321 45.3803 50.9049 45.3181 50.8532C45.2869 50.8264 45.262 50.793 45.2455 50.7553C45.2289 50.7176 45.2211 50.6767 45.2226 50.6356C45.2231 50.5823 45.2403 50.5304 45.2716 50.4872C45.3029 50.444 45.3469 50.4116 45.3975 50.3946C45.5193 50.35 45.6472 50.3248 45.7767 50.3196V50.299C45.7799 50.2604 45.7695 50.222 45.7473 50.1902C45.7321 50.1754 45.7138 50.164 45.6938 50.1569C45.6737 50.1498 45.6524 50.1471 45.6312 50.1491C45.5371 50.1508 45.445 50.1766 45.3637 50.224ZM45.7709 50.6871V50.5048C45.6444 50.5048 45.4769 50.5254 45.4769 50.6283C45.4769 50.6944 45.5416 50.7253 45.6239 50.7253C45.6754 50.7256 45.726 50.7125 45.7709 50.6871Z" fill="white"/>
<path d="M47.4189 51.1266C47.457 51.0817 47.4765 51.0238 47.4733 50.9649V50.8723C47.4019 50.9103 47.3218 50.9285 47.241 50.9253C47.183 50.9269 47.1252 50.9172 47.071 50.8965C47.0168 50.8758 46.9672 50.8446 46.925 50.8047C46.8766 50.7553 46.8387 50.6966 46.8134 50.6322C46.7882 50.5679 46.7761 50.499 46.778 50.4299C46.775 50.297 46.8222 50.1679 46.9103 50.0683C46.9521 50.0247 47.0027 49.9904 47.0587 49.9676C47.1146 49.9448 47.1748 49.934 47.2352 49.936C47.3201 49.9376 47.4026 49.9647 47.4718 50.0139V49.986C47.4718 49.9778 47.4751 49.97 47.4809 49.9642C47.4866 49.9584 47.4945 49.9551 47.5027 49.9551H47.7085C47.7166 49.9551 47.7245 49.9584 47.7303 49.9642C47.7361 49.97 47.7393 49.9778 47.7393 49.986V50.9297C47.7444 50.9989 47.7338 51.0685 47.7084 51.1331C47.6829 51.1977 47.6433 51.2558 47.5923 51.303C47.4912 51.3768 47.3674 51.4127 47.2425 51.4044C47.1103 51.4065 46.9803 51.3708 46.8677 51.3015C46.861 51.2969 46.856 51.2903 46.8534 51.2826C46.8507 51.275 46.8506 51.2667 46.853 51.2589L46.9353 51.1016C46.9376 51.0976 46.9408 51.0941 46.9447 51.0914C46.9485 51.0887 46.9529 51.0868 46.9575 51.086C46.9621 51.0852 46.9669 51.0853 46.9714 51.0865C46.9759 51.0877 46.9802 51.0898 46.9838 51.0928C47.0611 51.1466 47.1528 51.1758 47.2469 51.1766C47.2775 51.1804 47.3085 51.1779 47.3381 51.1693C47.3676 51.1608 47.3951 51.1462 47.4189 51.1266ZM47.4733 50.6386V50.2447C47.4184 50.2006 47.351 50.1749 47.2807 50.1712C47.2532 50.1704 47.2259 50.1755 47.2005 50.1861C47.1752 50.1968 47.1524 50.2127 47.1337 50.2329C47.0888 50.2902 47.0658 50.3616 47.0691 50.4343C47.0637 50.5079 47.0863 50.5809 47.1323 50.6386C47.1511 50.6585 47.174 50.6741 47.1993 50.6845C47.2246 50.6949 47.2519 50.6998 47.2793 50.6989C47.347 50.6978 47.4129 50.6769 47.4689 50.6386H47.4733Z" fill="white"/>
<path d="M49.2797 50.6474C49.3018 50.6341 49.3194 50.6385 49.3282 50.6547L49.4003 50.7899C49.4035 50.7976 49.4038 50.8062 49.4011 50.8141C49.3983 50.8219 49.3928 50.8285 49.3856 50.8326C49.277 50.898 49.1522 50.9316 49.0254 50.9296C48.9554 50.9318 48.8856 50.92 48.8202 50.8947C48.7548 50.8695 48.6951 50.8313 48.6447 50.7826C48.5548 50.6842 48.5049 50.5558 48.5049 50.4225C48.5049 50.2892 48.5548 50.1607 48.6447 50.0623C48.6912 50.0175 48.7463 49.9824 48.8067 49.9595C48.8671 49.9365 48.9315 49.926 48.996 49.9286C49.0669 49.9245 49.1378 49.9376 49.2025 49.9668C49.2673 49.996 49.324 50.0403 49.3679 50.0962C49.4355 50.211 49.4658 50.344 49.4546 50.4769C49.4551 50.481 49.4546 50.4852 49.4533 50.4892C49.4519 50.4932 49.4496 50.4967 49.4466 50.4997C49.4437 50.5027 49.4401 50.5049 49.4361 50.5063C49.4322 50.5077 49.428 50.5082 49.4238 50.5077H48.7917C48.7987 50.556 48.8208 50.6008 48.8549 50.6356C48.8795 50.659 48.9086 50.6772 48.9405 50.6891C48.9723 50.701 49.0062 50.7063 49.0401 50.7047C49.1238 50.7087 49.2069 50.6888 49.2797 50.6474ZM49.1871 50.3343C49.1883 50.3096 49.1841 50.285 49.175 50.262C49.1658 50.2391 49.1519 50.2183 49.134 50.2012C49.1162 50.1841 49.095 50.171 49.0717 50.1628C49.0484 50.1545 49.0236 50.1514 48.999 50.1535C48.9445 50.1519 48.8917 50.172 48.852 50.2093C48.8226 50.2448 48.8047 50.2884 48.8005 50.3343H49.1871Z" fill="white"/>
<path d="M32.8052 41.6326C32.1656 41.6326 31.5404 41.8222 31.0086 42.1776C30.4768 42.5329 30.0623 43.0379 29.8176 43.6288C29.5728 44.2197 29.5088 44.8699 29.6335 45.4972C29.7583 46.1245 30.0663 46.7007 30.5186 47.1529C30.9708 47.6052 31.547 47.9132 32.1743 48.0379C32.8016 48.1627 33.4518 48.0987 34.0427 47.8539C34.6336 47.6092 35.1386 47.1947 35.4939 46.6629C35.8493 46.1311 36.0389 45.5059 36.0389 44.8663C36.0389 44.0087 35.6982 43.1862 35.0918 42.5797C34.4853 41.9733 33.6628 41.6326 32.8052 41.6326ZM32.8052 46.8859C32.4061 46.8851 32.0163 46.7659 31.685 46.5436C31.3537 46.3212 31.0957 46.0056 30.9436 45.6367C30.7916 45.2678 30.7524 44.8621 30.8308 44.4708C30.9093 44.0796 31.102 43.7204 31.3846 43.4387C31.6672 43.1569 32.0269 42.9653 32.4184 42.8879C32.8098 42.8106 33.2154 42.851 33.5839 43.0041C33.9524 43.1572 34.2672 43.4161 34.4886 43.7481C34.71 44.0801 34.828 44.4702 34.8277 44.8693C34.8275 45.1345 34.775 45.3972 34.6733 45.6421C34.5715 45.8871 34.4224 46.1096 34.2345 46.2969C34.0467 46.4842 33.8238 46.6327 33.5785 46.7337C33.3332 46.8348 33.0704 46.8865 32.8052 46.8859Z" fill="white"/>
<path d="M56 117.455C56 116.903 55.5523 116.455 55 116.455H53.8505C53.2982 116.455 52.8505 116.007 52.8505 115.455V113C52.8505 112.448 52.4028 112 51.8505 112H23C22.4477 112 22 112.448 22 113V128C22 128.552 22.4477 129 23 129H51.8505C52.4028 129 52.8505 128.552 52.8505 128V125.509C52.8505 124.957 53.2982 124.509 53.8505 124.509H55C55.5523 124.509 56 124.062 56 123.509V117.455ZM51.2042 127.361H24.6463C24.094 127.361 23.6463 126.913 23.6463 126.361V114.604C23.6463 114.051 24.094 113.604 24.6463 113.604H50.24C50.7923 113.604 51.24 114.051 51.24 114.604V127.325C51.24 127.345 51.224 127.361 51.2042 127.361Z" fill="black"/>
<path d="M30.1241 115.243H25.2925V125.721H30.1241V115.243Z" fill="#06E775"/>
<path d="M36.6021 115.243H31.7705V125.721H36.6021V115.243Z" fill="#06E775"/>
<path d="M43.0801 115.243H38.2485V125.721H43.0801V115.243Z" fill="#06E775"/>
<path d="M49.5577 115.243H44.7261V125.721H49.5577V115.243Z" fill="#06E775"/>
</svg>
