<svg width="20" height="21" viewBox="0 0 20 21" fill="none" xmlns="http://www.w3.org/2000/svg">
<path d="M5.8 0.620605H14.2C17.4 0.620605 20 3.21481 20 6.40767V14.7889C20 17.9818 17.4 20.576 14.2 20.576H5.8C2.6 20.576 0 17.9818 0 14.7889V6.40767C0 3.21481 2.6 0.620605 5.8 0.620605ZM5.6 2.61614C3.61 2.61614 2 4.22255 2 6.20811V14.9885C2 16.974 3.61 18.5805 5.6 18.5805H14.4C16.39 18.5805 18 16.974 18 14.9885V6.20811C18 4.22255 16.39 2.61614 14.4 2.61614H5.6ZM15.25 4.1128C15.94 4.1128 16.5 4.67155 16.5 5.36001C16.5 6.04847 15.94 6.60722 15.25 6.60722C14.56 6.60722 14 6.04847 14 5.36001C14 4.67155 14.56 4.1128 15.25 4.1128ZM10 5.60945C12.76 5.60945 15 7.84445 15 10.5983C15 13.3521 12.76 15.5871 10 15.5871C7.24 15.5871 5 13.3521 5 10.5983C5 7.84445 7.24 5.60945 10 5.60945ZM10 7.60499C8.34 7.60499 7 8.942 7 10.5983C7 12.2546 8.34 13.5916 10 13.5916C11.66 13.5916 13 12.2546 13 10.5983C13 8.942 11.66 7.60499 10 7.60499Z" fill="white"/>
</svg>
