<svg width="120" height="43" viewBox="0 0 120 43" fill="none" xmlns="http://www.w3.org/2000/svg">
<path fill-rule="evenodd" clip-rule="evenodd" d="M16.1746 13.0416L13.6479 8.85418C13.5127 8.63211 13.3224 8.44861 13.0952 8.32146C12.8681 8.19431 12.6119 8.12782 12.3514 8.12843H10.4421H6.33667L14.6224 27.0069H17.815L26.1008 8.11963H22.0218H20.0948C19.8373 8.1237 19.585 8.1933 19.362 8.32185C19.139 8.4504 18.9525 8.63364 18.8204 8.85418L16.1746 13.0416ZM12.863 13.7497L16.1746 19.2875L19.5348 13.7497L16.1746 21.3548L12.863 13.7497Z" fill="white"/>
<path fill-rule="evenodd" clip-rule="evenodd" d="M41.3978 11.6035C40.0157 11.6002 38.6751 12.0749 37.6045 12.9468C36.5339 13.8188 35.7994 15.034 35.5262 16.3854C35.2531 17.7369 35.458 19.141 36.1062 20.3587C36.7545 21.5763 37.8058 22.5321 39.0813 23.0633C40.3567 23.5945 41.7773 23.6682 43.1011 23.2719C44.4249 22.8756 45.57 22.0337 46.3414 20.8898C47.1128 19.7458 47.4627 18.3704 47.3316 16.998C47.2005 15.6256 46.5964 14.3409 45.6222 13.3629C45.0699 12.8053 44.4121 12.3626 43.6869 12.0606C42.9617 11.7585 42.1836 11.6032 41.3978 11.6035ZM41.3978 27.2446C39.1536 27.2429 36.9794 26.4651 35.2456 25.0437C33.5119 23.6223 32.3258 21.6454 31.8894 19.4496C31.453 17.2538 31.7933 14.9749 32.8523 13.0013C33.9114 11.0277 35.6237 9.48142 37.6975 8.62583C39.7713 7.77023 42.0784 7.65827 44.2256 8.30903C46.3729 8.95979 48.2276 10.333 49.4737 12.1948C50.7198 14.0565 51.2803 16.2916 51.0597 18.5193C50.839 20.747 49.8509 22.8295 48.2636 24.412C47.3632 25.3127 46.293 26.0268 45.1146 26.513C43.9362 26.9991 42.673 27.2478 41.3978 27.2446ZM99.9272 27.0071V23.2816H107.344C107.858 23.2816 108.35 23.0781 108.713 22.716C109.076 22.3539 109.28 21.8627 109.28 21.3506C109.278 20.8396 109.073 20.3503 108.71 19.9893C108.348 19.6284 107.857 19.4252 107.344 19.4241H105.056C104.298 19.4451 103.544 19.3145 102.837 19.0398C102.131 18.7651 101.487 18.352 100.944 17.8249C100.4 17.2977 99.9685 16.6673 99.6736 15.9708C99.3786 15.2743 99.2267 14.5258 99.2267 13.7697C99.2267 13.0136 99.3786 12.2652 99.6736 11.5687C99.9685 10.8722 100.4 10.2417 100.944 9.71461C101.487 9.18748 102.131 8.77436 102.837 8.49969C103.544 8.22501 104.298 8.09436 105.056 8.11544H111.926V11.841H105.056C104.794 11.8285 104.532 11.8692 104.287 11.9605C104.041 12.0518 103.817 12.1918 103.627 12.3722C103.438 12.5525 103.287 12.7693 103.184 13.0096C103.081 13.2498 103.027 13.5084 103.027 13.7697C103.027 14.0311 103.081 14.2897 103.184 14.5299C103.287 14.7702 103.438 14.987 103.627 15.1673C103.817 15.3477 104.041 15.4877 104.287 15.579C104.532 15.6703 104.794 15.711 105.056 15.6985H107.344C108.82 15.7396 110.222 16.3533 111.251 17.4092C112.281 18.4651 112.857 19.8799 112.857 21.3528C112.857 22.8257 112.281 24.2405 111.251 25.2964C110.222 26.3523 108.82 26.966 107.344 27.0071H99.9272ZM83.1705 27.0071V11.841H77.7554V8.11544H92.3514V11.841H86.9231V27.0071H83.1705ZM58.3794 27.0071V8.11544H62.1144V23.2816H72.0052V27.0071H58.3794ZM41.3802 11.6123C42.7623 11.609 44.1028 12.0837 45.1735 12.9556C46.2441 13.8276 46.9785 15.0428 47.2517 16.3942C47.5249 17.7457 47.3199 19.1498 46.6717 20.3674C46.0235 21.5851 44.9721 22.5409 43.6967 23.0721C42.4213 23.6033 41.0007 23.677 39.6768 23.2807C38.353 22.8844 37.2079 22.0425 36.4365 20.8985C35.6652 19.7546 35.3152 18.3792 35.4464 17.0068C35.5775 15.6344 36.1816 14.3497 37.1557 13.3717C37.708 12.8141 38.3659 12.3714 39.091 12.0694C39.8162 11.7673 40.5943 11.612 41.3802 11.6123ZM41.3802 27.2534C39.136 27.2517 36.9618 26.4739 35.228 25.0525C33.4942 23.6311 32.3081 21.6542 31.8717 19.4584C31.4353 17.2626 31.7756 14.9837 32.8347 13.0101C33.8938 11.0365 35.606 9.49022 37.6799 8.63462C39.7537 7.77903 42.0607 7.66707 44.208 8.31783C46.3553 8.96859 48.21 10.3418 49.4561 12.2035C50.7022 14.0653 51.2627 16.3004 51.042 18.5281C50.8214 20.7558 49.8333 22.8383 48.246 24.4208C47.347 25.3178 46.2793 26.0291 45.1041 26.5136C43.9289 26.9982 42.6694 27.2466 41.3978 27.2446L41.3802 27.2534Z" fill="white"/>
<path d="M30.2855 34.8538C30.356 34.8142 30.4045 34.8274 30.431 34.8758L30.6515 35.2805C30.6594 35.3036 30.6593 35.3287 30.6513 35.3518C30.6433 35.3749 30.6279 35.3947 30.6074 35.408C30.2812 35.6028 29.9071 35.7033 29.527 35.6983C29.3168 35.7053 29.1073 35.67 28.911 35.5944C28.7148 35.5188 28.5359 35.4046 28.3849 35.2585C28.1131 34.9651 27.9622 34.5803 27.9622 34.1808C27.9622 33.7814 28.1131 33.3966 28.3849 33.1032C28.5238 32.9682 28.689 32.8631 28.8703 32.7942C29.0516 32.7254 29.245 32.6943 29.4388 32.7029C29.6511 32.6892 29.8634 32.7277 30.0572 32.8151C30.251 32.9026 30.4203 33.0363 30.55 33.2044C30.7544 33.5476 30.8469 33.9457 30.8146 34.3436C30.816 34.356 30.8146 34.3687 30.8104 34.3805C30.8063 34.3924 30.7995 34.4031 30.7906 34.412C30.7817 34.4209 30.7709 34.4276 30.759 34.4318C30.7472 34.4359 30.7345 34.4373 30.722 34.4359H28.8611C28.8824 34.5793 28.947 34.7128 29.0463 34.8186C29.1212 34.8885 29.2093 34.9427 29.3055 34.9782C29.4017 35.0137 29.5039 35.0297 29.6064 35.0253C29.8441 35.0301 30.0787 34.9708 30.2855 34.8538ZM30.0121 33.9169C30.0083 33.78 29.9586 33.6484 29.8709 33.543C29.8139 33.4851 29.7449 33.4402 29.6688 33.4113C29.5927 33.3825 29.5112 33.3704 29.43 33.3759C29.349 33.3731 29.2683 33.3864 29.1926 33.4151C29.1169 33.4438 29.0477 33.4873 28.989 33.543C28.9013 33.6499 28.8462 33.7797 28.8303 33.9169H30.0121Z" fill="white"/>
<path d="M33.9015 33.0679C34.0165 32.9528 34.1544 32.8628 34.3062 32.8037C34.4581 32.7446 34.6206 32.7178 34.7834 32.7249C35.0895 32.7112 35.3897 32.8116 35.6257 33.0064C35.739 33.1221 35.8269 33.2601 35.8838 33.4115C35.9408 33.563 35.9655 33.7246 35.9564 33.8861V35.5267C35.957 35.539 35.9551 35.5513 35.9507 35.5628C35.9462 35.5743 35.9394 35.5847 35.9307 35.5934C35.922 35.6021 35.9115 35.6089 35.9 35.6133C35.8885 35.6178 35.8761 35.6197 35.8638 35.6191H35.1935C35.1693 35.618 35.1464 35.6079 35.1293 35.5908C35.1121 35.5737 35.102 35.5509 35.1009 35.5267V34.1148C35.1185 33.9229 35.0669 33.7311 34.9554 33.5738C34.9067 33.5234 34.8474 33.4844 34.7819 33.4593C34.7164 33.4342 34.6462 33.4237 34.5762 33.4286C34.0867 33.4286 33.9059 33.8685 33.9059 34.3083V35.5575C33.9002 35.5777 33.8881 35.5954 33.8714 35.6081C33.8547 35.6208 33.8343 35.6277 33.8133 35.6279H33.1695C33.1449 35.6279 33.1214 35.6182 33.104 35.6008C33.0867 35.5835 33.0769 35.56 33.0769 35.5355V32.8744C33.0769 32.8499 33.0867 32.8264 33.104 32.8091C33.1214 32.7918 33.1449 32.782 33.1695 32.782H33.7869C33.8114 32.782 33.835 32.7918 33.8523 32.8091C33.8697 32.8264 33.8795 32.8499 33.8795 32.8744V33.0679H33.9015Z" fill="white"/>
<path d="M40.4674 34.854C40.5379 34.8144 40.5864 34.8276 40.6129 34.876L40.8334 35.2806C40.8413 35.3038 40.8412 35.3289 40.8332 35.352C40.8253 35.3751 40.8098 35.3949 40.7893 35.4082C40.4631 35.603 40.089 35.7035 39.7089 35.6985C39.498 35.7056 39.2878 35.6703 39.0909 35.5947C38.8939 35.5192 38.7142 35.4049 38.5624 35.2587C38.2925 34.9643 38.1428 34.5799 38.1428 34.181C38.1428 33.7821 38.2925 33.3977 38.5624 33.1034C38.7025 32.9687 38.8685 32.8638 39.0504 32.795C39.2323 32.7262 39.4263 32.6949 39.6207 32.7031C39.8327 32.6916 40.0443 32.7312 40.2377 32.8185C40.4311 32.9057 40.6006 33.0382 40.732 33.2045C40.9363 33.5478 41.0288 33.9459 40.9965 34.3438C40.9972 34.3565 40.9952 34.3692 40.9905 34.381C40.9858 34.3928 40.9786 34.4035 40.9694 34.4123C40.9601 34.421 40.9491 34.4277 40.9371 34.4318C40.925 34.436 40.9122 34.4374 40.8995 34.4361H39.021C39.0418 34.5806 39.1082 34.7146 39.2106 34.8188C39.2851 34.8893 39.3731 34.9439 39.4694 34.9795C39.5656 35.015 39.6681 35.0307 39.7706 35.0255C40.0143 35.0335 40.2554 34.9741 40.4674 34.854ZM40.1896 33.9171C40.193 33.8433 40.1805 33.7695 40.1531 33.7009C40.1256 33.6322 40.0838 33.5702 40.0303 33.519C39.9769 33.4677 39.9131 33.4285 39.8432 33.4039C39.7733 33.3792 39.699 33.3697 39.6251 33.3761C39.4618 33.3714 39.3032 33.4315 39.1842 33.5432C39.096 33.6494 39.0422 33.7798 39.0298 33.9171H40.1896Z" fill="white"/>
<path d="M44.0701 34.2339V35.5534C44.0648 35.5785 44.0498 35.6004 44.0283 35.6145C44.0068 35.6285 43.9806 35.6334 43.9554 35.6282H43.3337C43.3214 35.6288 43.309 35.6269 43.2975 35.6225C43.286 35.6181 43.2755 35.6113 43.2668 35.6026C43.2581 35.5939 43.2513 35.5834 43.2468 35.5719C43.2424 35.5604 43.2404 35.5481 43.2411 35.5358V32.8747C43.2404 32.8624 43.2424 32.8501 43.2468 32.8387C43.2513 32.8272 43.2581 32.8167 43.2668 32.808C43.2755 32.7993 43.286 32.7925 43.2975 32.7881C43.309 32.7837 43.3214 32.7817 43.3337 32.7824H43.9554C43.98 32.7824 44.0036 32.7921 44.0209 32.8094C44.0383 32.8267 44.0481 32.8502 44.0481 32.8747V33.0463C44.1334 32.9427 44.2413 32.8599 44.3635 32.8042C44.4858 32.7486 44.6192 32.7215 44.7536 32.7252C45.0085 32.7168 45.2577 32.8012 45.4547 32.9627C45.4753 32.977 45.4899 32.9984 45.4956 33.0228C45.5013 33.0471 45.4977 33.0728 45.4856 33.0947L45.2783 33.5873C45.2708 33.5989 45.261 33.6089 45.2495 33.6165C45.2379 33.6242 45.225 33.6294 45.2113 33.6319C45.1977 33.6344 45.1837 33.634 45.1702 33.6309C45.1567 33.6278 45.144 33.6219 45.1328 33.6137C44.9834 33.5111 44.8071 33.4545 44.6257 33.4509C44.1892 33.4509 44.0701 33.8424 44.0701 34.2339Z" fill="white"/>
<path d="M49.2735 36.2877C49.3879 36.1532 49.4463 35.9801 49.4367 35.8039V35.5268C49.2224 35.6397 48.9821 35.6943 48.74 35.6851C48.5652 35.6908 48.391 35.6618 48.2275 35.5999C48.064 35.538 47.9145 35.4444 47.7875 35.3245C47.643 35.1761 47.5296 35.0005 47.4538 34.8079C47.3781 34.6153 47.3416 34.4096 47.3465 34.2028C47.3358 33.8057 47.476 33.4192 47.739 33.1208C47.8656 32.9918 48.0175 32.8902 48.1851 32.8221C48.3527 32.754 48.5326 32.7209 48.7135 32.7249C48.9683 32.7296 49.2157 32.8108 49.4235 32.9581V32.8745C49.4235 32.862 49.426 32.8496 49.4309 32.8381C49.4358 32.8266 49.4431 32.8162 49.4521 32.8076C49.4612 32.7989 49.4719 32.7922 49.4837 32.7878C49.4954 32.7835 49.508 32.7815 49.5205 32.7821H50.1334C50.146 32.7815 50.1585 32.7835 50.1702 32.7878C50.182 32.7922 50.1927 32.7989 50.2018 32.8076C50.2108 32.8162 50.2181 32.8266 50.223 32.8381C50.2279 32.8496 50.2305 32.862 50.2304 32.8745V35.6983C50.2444 35.9055 50.2121 36.1132 50.1358 36.3064C50.0596 36.4996 49.9413 36.6735 49.7895 36.8156C49.4858 37.0357 49.1146 37.1431 48.74 37.1191C48.3434 37.1256 47.9532 37.0188 47.6155 36.8112C47.5955 36.7973 47.5805 36.7775 47.5726 36.7546C47.5647 36.7316 47.5642 36.7068 47.5714 36.6836L47.8184 36.213C47.8243 36.2003 47.8331 36.1891 47.8442 36.1806C47.8553 36.172 47.8683 36.1661 47.8821 36.1635C47.8959 36.161 47.9101 36.1617 47.9236 36.1657C47.937 36.1697 47.9493 36.1769 47.9595 36.1866C48.1929 36.3476 48.4694 36.435 48.7532 36.4373C48.8456 36.4488 48.9393 36.4414 49.0287 36.4157C49.1182 36.39 49.2015 36.3465 49.2735 36.2877ZM49.4367 34.8274V33.6486C49.2716 33.5174 49.0698 33.4405 48.859 33.4287C48.7766 33.4263 48.6945 33.4415 48.6185 33.4734C48.5424 33.5053 48.4741 33.553 48.4181 33.6134C48.2832 33.7847 48.2144 33.9985 48.224 34.216C48.208 34.4364 48.2757 34.6546 48.4137 34.8274C48.4699 34.8873 48.5384 34.9344 48.6145 34.9655C48.6905 34.9966 48.7725 35.011 48.8546 35.0078C49.0623 35.0064 49.2648 34.9437 49.4367 34.8274Z" fill="white"/>
<path d="M54.5386 35.795C54.4258 36.1457 54.2255 36.462 53.9565 36.7143C53.7844 36.8639 53.5831 36.9762 53.3653 37.0444C53.1475 37.1125 52.9179 37.1349 52.691 37.1102C52.6711 37.1102 52.652 37.1023 52.638 37.0883C52.6239 37.0743 52.616 37.0552 52.616 37.0354V36.402C52.6154 36.392 52.6168 36.382 52.6204 36.3727C52.6239 36.3633 52.6294 36.3548 52.6365 36.3477C52.6436 36.3406 52.6521 36.3351 52.6615 36.3316C52.6709 36.3281 52.681 36.3266 52.691 36.3272C52.7395 36.3272 52.788 36.3272 52.885 36.3272C53.0547 36.3318 53.2209 36.2791 53.3568 36.1777C53.4732 36.0789 53.5703 35.9596 53.6435 35.8258L52.3206 32.9008C52.3206 32.8436 52.3206 32.7688 52.3999 32.7688H53.1716C53.2054 32.7634 53.2399 32.7708 53.2685 32.7895C53.2971 32.8082 53.3176 32.8369 53.326 32.87L54.0624 34.7966L54.6797 32.87C54.6797 32.7952 54.7459 32.7688 54.8341 32.7688H55.544C55.641 32.7688 55.641 32.8436 55.619 32.9008L54.5386 35.795Z" fill="white"/>
<path d="M62.1233 34.8321C62.1233 34.6957 62.0131 34.6474 61.8543 34.577C61.6956 34.5066 61.4531 34.4274 61.2502 34.3307C61.1042 34.2688 60.9812 34.1632 60.8982 34.0284C60.8152 33.8936 60.7764 33.7363 60.7872 33.5785C60.7872 33.0551 61.1929 32.7252 61.9337 32.7252C62.2723 32.7116 62.6085 32.7874 62.9082 32.9451C62.9198 32.9497 62.9302 32.9567 62.9387 32.9657C62.9472 32.9747 62.9535 32.9855 62.9573 32.9973C62.9611 33.0091 62.9623 33.0216 62.9606 33.0339C62.959 33.0461 62.9547 33.0579 62.9479 33.0683L62.7186 33.5081C62.6966 33.5565 62.6569 33.5653 62.6084 33.5389C62.4115 33.4241 62.1882 33.362 61.9602 33.3586C61.7926 33.3586 61.6647 33.4158 61.6647 33.5565C61.6647 33.6973 61.797 33.7457 61.9425 33.8028C62.088 33.86 62.3262 33.9392 62.5246 34.0404C62.6682 34.0974 62.7906 34.1973 62.8751 34.3265C62.9596 34.4556 63.0019 34.6076 62.9964 34.7617C62.9964 35.2851 62.5555 35.6766 61.8102 35.6766C61.4494 35.6955 61.0904 35.6132 60.774 35.4391C60.7166 35.4083 60.7034 35.3643 60.7299 35.3247L60.9592 34.8409C60.9642 34.8297 60.9715 34.8198 60.9808 34.8118C60.99 34.8038 61.0009 34.7979 61.0127 34.7946C61.0244 34.7912 61.0368 34.7905 61.0489 34.7924C61.061 34.7943 61.0725 34.7989 61.0826 34.8057C61.2924 34.9483 61.5388 35.0277 61.7926 35.0344C61.9998 35.0564 62.1233 34.9816 62.1233 34.8321Z" fill="white"/>
<path d="M66.1847 34.5155C66.1786 34.6273 66.1998 34.739 66.2464 34.841C66.2747 34.8917 66.3175 34.933 66.3693 34.9596C66.421 34.9862 66.4796 34.997 66.5374 34.9905C66.687 34.9864 66.8305 34.9304 66.9431 34.8322C67.0005 34.7882 67.0578 34.797 67.0754 34.8322L67.2959 35.272C67.3068 35.2936 67.3087 35.3187 67.3013 35.3417C67.2939 35.3647 67.2777 35.3839 67.2562 35.3952C66.9774 35.5769 66.65 35.6705 66.317 35.6635C66.1816 35.6756 66.0452 35.6574 65.9178 35.6102C65.7904 35.563 65.6752 35.488 65.5805 35.3908C65.4178 35.1583 65.3385 34.8777 65.3557 34.5946V33.429H65.0426C65.0168 33.429 64.9922 33.4188 64.974 33.4007C64.9558 33.3825 64.9456 33.3579 64.9456 33.3323V32.8924C64.9455 32.8799 64.9481 32.8675 64.953 32.856C64.9579 32.8445 64.9651 32.8341 64.9742 32.8255C64.9833 32.8168 64.994 32.8101 65.0058 32.8058C65.0175 32.8014 65.03 32.7994 65.0426 32.8H65.3557V32.2238C65.3551 32.2113 65.357 32.1988 65.3614 32.1871C65.3658 32.1754 65.3725 32.1647 65.3812 32.1557C65.3898 32.1466 65.4002 32.1394 65.4118 32.1345C65.4233 32.1296 65.4357 32.127 65.4483 32.1271H66.0877C66.1006 32.1264 66.1135 32.1285 66.1255 32.1331C66.1376 32.1378 66.1485 32.1449 66.1577 32.154C66.1668 32.1631 66.1739 32.174 66.1786 32.1861C66.1832 32.1981 66.1853 32.211 66.1847 32.2238V32.7824H66.974C66.9865 32.7818 66.999 32.7838 67.0108 32.7882C67.0225 32.7925 67.0333 32.7993 67.0423 32.8079C67.0514 32.8165 67.0586 32.8269 67.0636 32.8384C67.0685 32.8499 67.071 32.8623 67.071 32.8748V33.3147C67.0716 33.3275 67.0696 33.3404 67.0649 33.3524C67.0603 33.3645 67.0531 33.3754 67.044 33.3845C67.0349 33.3936 67.0239 33.4007 67.0119 33.4054C66.9998 33.41 66.9869 33.4121 66.974 33.4114H66.1847V34.5155Z" fill="white"/>
<path d="M70.7221 32.7251C71.0138 32.7372 71.2955 32.8344 71.5323 33.0047C71.769 33.1751 71.9504 33.411 72.054 33.6833C72.1575 33.9555 72.1786 34.2521 72.1147 34.5362C72.0507 34.8203 71.9046 35.0794 71.6943 35.2814C71.484 35.4834 71.2189 35.6193 70.9319 35.6724C70.6449 35.7254 70.3486 35.6932 70.0797 35.5798C69.8109 35.4663 69.5813 35.2767 69.4196 35.0342C69.2579 34.7918 69.171 34.5074 69.1699 34.2162C69.1646 34.0141 69.2016 33.813 69.2785 33.6259C69.3554 33.4388 69.4705 33.2697 69.6165 33.1294C69.7626 32.9891 69.9363 32.8807 70.1267 32.8111C70.317 32.7415 70.5198 32.7122 70.7221 32.7251ZM70.7221 35.008C70.8822 35.0204 71.0424 34.9843 71.1816 34.9045C71.3208 34.8247 71.4326 34.7048 71.5025 34.5606C71.5724 34.4164 71.597 34.2545 71.5732 34.0961C71.5494 33.9377 71.4782 33.7902 71.369 33.6727C71.2598 33.5553 71.1176 33.4735 70.961 33.4379C70.8044 33.4024 70.6408 33.4148 70.4914 33.4735C70.3419 33.5322 70.2138 33.6345 70.1236 33.767C70.0334 33.8995 69.9853 34.0561 69.9857 34.2162C69.9757 34.3178 69.9874 34.4204 70.0201 34.5171C70.0528 34.6139 70.1057 34.7026 70.1753 34.7774C70.2449 34.8523 70.3296 34.9115 70.4239 34.9513C70.5182 34.991 70.6198 35.0103 70.7221 35.008Z" fill="white"/>
<path d="M75.3787 34.2338V35.5534C75.3735 35.5784 75.3584 35.6004 75.3369 35.6144C75.3154 35.6284 75.2892 35.6334 75.2641 35.6281H74.6247C74.6124 35.6288 74.6001 35.6268 74.5885 35.6224C74.577 35.618 74.5665 35.6112 74.5578 35.6025C74.5491 35.5938 74.5423 35.5833 74.5379 35.5719C74.5334 35.5604 74.5315 35.5481 74.5321 35.5358V32.8747C74.5315 32.8624 74.5334 32.8501 74.5379 32.8386C74.5423 32.8271 74.5491 32.8167 74.5578 32.8079C74.5665 32.7992 74.577 32.7925 74.5885 32.788C74.6001 32.7836 74.6124 32.7817 74.6247 32.7823H75.2641C75.2887 32.7823 75.3122 32.792 75.3296 32.8094C75.347 32.8267 75.3567 32.8502 75.3567 32.8747V33.0462C75.442 32.9426 75.5499 32.8598 75.6722 32.8042C75.7945 32.7485 75.9279 32.7215 76.0622 32.7251C76.3184 32.7172 76.5688 32.8015 76.7678 32.9626C76.787 32.978 76.8004 32.9994 76.806 33.0233C76.8116 33.0472 76.809 33.0723 76.7987 33.0946L76.587 33.5872C76.5795 33.5988 76.5696 33.6088 76.5581 33.6165C76.5466 33.6241 76.5336 33.6294 76.52 33.6318C76.5063 33.6343 76.4923 33.634 76.4788 33.6308C76.4653 33.6277 76.4526 33.6218 76.4415 33.6136C76.2921 33.511 76.1157 33.4544 75.9344 33.4509C75.4978 33.4509 75.3787 33.8423 75.3787 34.2338Z" fill="white"/>
<path d="M79.0916 33.5869C79.0298 33.6221 78.9857 33.6221 78.9549 33.5562L78.7917 33.1647C78.784 33.1545 78.7788 33.1426 78.7764 33.1301C78.774 33.1175 78.7745 33.1046 78.7779 33.0923C78.7813 33.0799 78.7875 33.0686 78.796 33.059C78.8045 33.0495 78.8151 33.042 78.827 33.0371C79.1815 32.8306 79.585 32.7227 79.9955 32.7248C80.1619 32.7138 80.3288 32.737 80.4858 32.793C80.6429 32.849 80.7867 32.9366 80.9084 33.0503C81.0875 33.2621 81.1775 33.5348 81.1597 33.8113V35.5443C81.1586 35.5692 81.1478 35.5927 81.1298 35.6099C81.1117 35.6271 81.0877 35.6367 81.0627 35.6367H80.5115C80.4987 35.6372 80.486 35.6353 80.474 35.631C80.462 35.6267 80.451 35.62 80.4416 35.6115C80.4321 35.6029 80.4245 35.5925 80.4191 35.581C80.4137 35.5695 80.4106 35.557 80.4101 35.5443V35.4959H80.3836C80.1559 35.6392 79.8897 35.7098 79.6207 35.6982C79.3782 35.7058 79.1413 35.6244 78.9549 35.4695C78.8611 35.3895 78.7866 35.2894 78.737 35.1767C78.6873 35.064 78.6638 34.9416 78.6682 34.8185C78.6699 34.6589 78.7213 34.5036 78.8153 34.3744C78.9093 34.2451 79.0413 34.1483 79.193 34.0972C79.5583 33.964 79.9421 33.8883 80.3307 33.8728V33.8113C80.3402 33.6958 80.309 33.5807 80.2425 33.4858C80.1968 33.4413 80.142 33.4073 80.0819 33.386C80.0217 33.3648 79.9577 33.3568 79.8941 33.3626C79.6118 33.3678 79.3355 33.445 79.0916 33.5869ZM80.313 34.9725V34.4271C79.9338 34.4271 79.4311 34.4886 79.4311 34.7965C79.4311 34.9945 79.6251 35.0868 79.8721 35.0868C80.0266 35.0879 80.1786 35.0485 80.313 34.9725Z" fill="white"/>
<path d="M85.2564 36.2876C85.3708 36.153 85.4292 35.9799 85.4196 35.8038V35.5267C85.2055 35.6401 84.9651 35.6948 84.7229 35.685C84.5488 35.6901 84.3755 35.6608 84.2128 35.599C84.0501 35.5371 83.9012 35.4437 83.7748 35.3243C83.6297 35.1764 83.5158 35.0009 83.4401 34.8082C83.3643 34.6155 83.3282 34.4096 83.3338 34.2027C83.3248 33.805 83.4665 33.4186 83.7307 33.1207C83.8562 32.9902 84.0078 32.8875 84.1757 32.8193C84.3436 32.7511 84.524 32.7189 84.7052 32.7248C84.96 32.7294 85.2075 32.8107 85.4152 32.9579V32.8744C85.4152 32.8499 85.4249 32.8264 85.4423 32.809C85.4597 32.7917 85.4832 32.782 85.5078 32.782H86.1251C86.1497 32.782 86.1733 32.7917 86.1906 32.809C86.208 32.8264 86.2177 32.8499 86.2177 32.8744V35.6982C86.233 35.9055 86.2012 36.1136 86.1249 36.307C86.0486 36.5003 85.9296 36.6741 85.7768 36.8154C85.4735 37.0363 85.102 37.1437 84.7273 37.1189C84.3307 37.125 83.9407 37.0182 83.6028 36.811C83.5828 36.7972 83.5678 36.7774 83.5599 36.7544C83.552 36.7315 83.5516 36.7067 83.5587 36.6835L83.8057 36.2128C83.8127 36.2007 83.8223 36.1902 83.8338 36.1821C83.8453 36.1741 83.8584 36.1686 83.8723 36.1661C83.8861 36.1635 83.9004 36.1641 83.914 36.1676C83.9276 36.1711 83.9403 36.1775 83.9512 36.1865C84.183 36.3474 84.4581 36.4348 84.7405 36.4372C84.8322 36.4486 84.9252 36.4412 85.0139 36.4155C85.1026 36.3897 85.1852 36.3462 85.2564 36.2876ZM85.4196 34.8273V33.6485C85.255 33.5165 85.0529 33.4395 84.8419 33.4286C84.7595 33.4262 84.6774 33.4414 84.6014 33.4733C84.5253 33.5051 84.457 33.5529 84.401 33.6133C84.2661 33.7846 84.1973 33.9984 84.2069 34.2159C84.1909 34.4362 84.2586 34.6545 84.3966 34.8273C84.4531 34.8867 84.5217 34.9335 84.5977 34.9646C84.6737 34.9956 84.7554 35.0103 84.8375 35.0076C85.0408 35.0045 85.2386 34.9418 85.4064 34.8273H85.4196Z" fill="white"/>
<path d="M90.839 34.8537C90.9051 34.8142 90.958 34.8274 90.9845 34.8757L91.2006 35.2804C91.2102 35.3033 91.2111 35.329 91.2029 35.3526C91.1948 35.3761 91.1782 35.3958 91.1565 35.408C90.8307 35.6038 90.4564 35.7044 90.0761 35.6983C89.8659 35.705 89.6565 35.6695 89.4603 35.594C89.2641 35.5184 89.0851 35.4043 88.934 35.2584C88.6641 34.9641 88.5144 34.5796 88.5144 34.1808C88.5144 33.7819 88.6641 33.3975 88.934 33.1031C89.0734 32.9688 89.2387 32.864 89.4198 32.7952C89.601 32.7264 89.7942 32.695 89.9879 32.7029C90.2006 32.6907 90.4131 32.7299 90.6073 32.8172C90.8016 32.9045 90.9718 33.0373 91.1035 33.2043C91.3064 33.548 91.3973 33.9461 91.3637 34.3435C91.3651 34.356 91.3637 34.3686 91.3595 34.3805C91.3554 34.3923 91.3486 34.4031 91.3397 34.4119C91.3308 34.4208 91.32 34.4276 91.3081 34.4317C91.2963 34.4359 91.2836 34.4373 91.2711 34.4359H89.3749C89.3958 34.5803 89.4622 34.7144 89.5646 34.8186C89.6384 34.8887 89.7256 34.9432 89.8211 34.9787C89.9166 35.0142 90.0184 35.0301 90.1202 35.0253C90.3712 35.0374 90.6206 34.9779 90.839 34.8537ZM90.5612 33.9169C90.5646 33.843 90.5521 33.7693 90.5247 33.7006C90.4972 33.6319 90.4553 33.5699 90.4019 33.5187C90.3485 33.4675 90.2847 33.4282 90.2148 33.4036C90.1449 33.379 90.0706 33.3695 89.9967 33.3758C89.8333 33.3711 89.6748 33.4312 89.5557 33.543C89.4676 33.6492 89.4138 33.7795 89.4014 33.9169H90.5612Z" fill="white"/>
<path d="M41.4156 7.87793C39.4969 7.87793 37.6212 8.44546 36.0259 9.50876C34.4305 10.5721 33.1871 12.0834 32.4528 13.8516C31.7186 15.6198 31.5264 17.5654 31.9008 19.4425C32.2751 21.3196 33.199 23.0439 34.5558 24.3972C35.9125 25.7505 37.6411 26.6721 39.523 27.0455C41.4048 27.4189 43.3554 27.2273 45.1281 26.4949C46.9008 25.7624 48.4159 24.5221 49.4819 22.9308C50.5479 21.3395 51.1168 19.4686 51.1168 17.5547C51.1168 14.9883 50.0948 12.5269 48.2754 10.7122C46.4561 8.89744 43.9885 7.87793 41.4156 7.87793ZM41.4156 23.5983C40.2185 23.5957 39.0491 23.2391 38.0551 22.5738C37.0611 21.9084 36.2871 20.964 35.831 19.86C35.3749 18.756 35.2572 17.542 35.4927 16.3712C35.7281 15.2005 36.3062 14.1256 37.1539 13.2825C38.0016 12.4394 39.0809 11.8659 40.2552 11.6345C41.4296 11.403 42.6464 11.524 43.7519 11.9822C44.8573 12.4403 45.8018 13.215 46.466 14.2085C47.1301 15.2019 47.4842 16.3694 47.4833 17.5635C47.4827 18.3573 47.3252 19.1432 47.0199 19.8763C46.7145 20.6093 46.2673 21.2752 45.7037 21.8357C45.1402 22.3962 44.4714 22.8403 43.7356 23.1428C42.9998 23.4452 42.2114 23.6 41.4156 23.5983Z" fill="white"/>
</svg>
