<svg width="20" height="21" viewBox="0 0 20 21" fill="none" xmlns="http://www.w3.org/2000/svg">
<path d="M13.07 0.620605H6.93C1.33 0.620605 0 1.94764 0 7.53515V13.6614C0 19.249 1.33 20.576 6.93 20.576H13.07C18.67 20.576 20 19.249 20 13.6614V7.53515C20 1.94764 18.67 0.620605 13.07 0.620605ZM16.15 14.8588H14.69C14.14 14.8588 13.97 14.4098 13 13.422C12.12 12.5938 11.74 12.4741 11.53 12.4741C11.24 12.4741 11.15 12.5539 11.15 12.973V14.2801C11.15 14.6293 11.04 14.8488 10.11 14.8488C8.57 14.8488 6.86 13.9109 5.66 12.1848C3.85 9.65042 3.36 7.7347 3.36 7.35555C3.36 7.14602 3.43 6.94646 3.85 6.94646H5.32C5.69 6.94646 5.83 7.1061 5.97 7.50521C6.69 9.60053 7.89 11.3965 8.38 11.3965C8.57 11.3965 8.65 11.3067 8.65 10.8477V8.70254C8.6 7.72472 8.07 7.63492 8.07 7.2857C8.07 7.10611 8.21 6.94646 8.44 6.94646H10.73C11.04 6.94646 11.15 7.10611 11.15 7.48526V10.3688C11.15 10.6781 11.28 10.7879 11.38 10.7879C11.56 10.7879 11.72 10.6781 12.05 10.3389C13.1 9.17149 13.85 7.36553 13.85 7.36553C13.95 7.15599 14.11 6.95644 14.5 6.95644H15.93C16.37 6.95644 16.47 7.18593 16.37 7.49524C16.19 8.34334 14.41 10.8477 14.43 10.8477C14.27 11.0972 14.21 11.2069 14.43 11.4963C14.58 11.7058 15.09 12.1448 15.43 12.534C16.05 13.2424 16.53 13.8311 16.66 14.2402C16.77 14.6492 16.57 14.8588 16.15 14.8588Z" fill="white"/>
</svg>
