<svg width="20" height="15" viewBox="0 0 20 15" fill="none" xmlns="http://www.w3.org/2000/svg">
<path d="M8 10.5914L13.19 7.59814L8 4.60484V10.5914ZM19.56 2.77893C19.69 3.24788 19.78 3.87647 19.84 4.67468C19.91 5.4729 19.94 6.16136 19.94 6.76002L20 7.59814C20 9.78326 19.84 11.3897 19.56 12.4174C19.31 13.3154 18.73 13.8941 17.83 14.1435C17.36 14.2732 16.5 14.363 15.18 14.4229C13.88 14.4927 12.69 14.5227 11.59 14.5227L10 14.5825C5.81 14.5825 3.2 14.4229 2.17 14.1435C1.27 13.8941 0.69 13.3154 0.44 12.4174C0.31 11.9484 0.22 11.3198 0.16 10.5216C0.0900001 9.72339 0.0599999 9.03493 0.0599999 8.43627L0 7.59814C0 5.41303 0.16 3.80663 0.44 2.77893C0.69 1.88093 1.27 1.30223 2.17 1.05279C2.64 0.923078 3.5 0.833278 4.82 0.773412C6.12 0.703568 7.31 0.673636 8.41 0.673636L10 0.61377C14.19 0.61377 16.8 0.773412 17.83 1.05279C18.73 1.30223 19.31 1.88093 19.56 2.77893Z" fill="white"/>
</svg>
