<svg width="140" height="20" viewBox="0 0 140 20" fill="none" xmlns="http://www.w3.org/2000/svg">
<path d="M7.01129 19.0135L6.98325 15.4237L5.27249 18.2843H4.09459L2.38384 15.5359V18.9854H0V11.1328H2.18752L4.73963 15.3115L7.23565 11.1328H9.42317L9.45122 18.9854H7.01129V19.0135Z" fill="black"/>
<path d="M13.8822 18.2004C13.2091 17.5554 12.8726 16.6299 12.8726 15.452V11.1611H15.5088V15.3959C15.5088 15.9849 15.621 16.3775 15.8173 16.658C16.0136 16.9104 16.3221 17.0506 16.7147 17.0506C17.1074 17.0506 17.3878 16.9104 17.6122 16.658C17.8085 16.4056 17.9207 15.9849 17.9207 15.3959V11.1611H20.5289V15.4801C20.5289 16.658 20.1923 17.5554 19.5193 18.2285C18.8462 18.8735 17.9207 19.2101 16.7147 19.2101C15.5088 19.182 14.5553 18.8455 13.8822 18.2004Z" fill="black"/>
<path d="M27.1742 16.4056L26.5853 17.0786V19.0138H23.9771V11.1611H26.5853V14.0217L29.1654 11.1611H32.0541L28.913 14.6107L32.2223 19.0138H29.1654L27.1742 16.4056Z" fill="black"/>
<path d="M36.3731 18.6495C35.7001 18.2849 35.1672 17.8081 34.8026 17.1911C34.41 16.5741 34.2417 15.873 34.2417 15.0877C34.2417 14.3025 34.438 13.6014 34.8026 12.9844C35.1952 12.3674 35.7001 11.8626 36.3731 11.526C37.0462 11.1614 37.8035 10.9932 38.6448 10.9932C39.4862 10.9932 40.2434 11.1614 40.9165 11.526C41.5896 11.8906 42.1224 12.3674 42.487 12.9844C42.8797 13.6014 43.0479 14.3025 43.0479 15.0877C43.0479 15.873 42.8516 16.5741 42.487 17.1911C42.0944 17.8081 41.5896 18.3129 40.9165 18.6495C40.2434 19.0141 39.4862 19.1823 38.6448 19.1823C37.8035 19.1823 37.0462 19.0141 36.3731 18.6495ZM39.5423 16.7985C39.7947 16.6302 40.019 16.4059 40.1873 16.1254C40.3556 15.8169 40.4117 15.4804 40.4117 15.0877C40.4117 14.6951 40.3275 14.3586 40.1873 14.0501C40.019 13.7416 39.8227 13.5172 39.5423 13.377C39.2899 13.2087 38.9814 13.1246 38.6448 13.1246C38.3083 13.1246 38.0278 13.2087 37.7474 13.377C37.495 13.5453 37.2706 13.7696 37.1023 14.0501C36.9341 14.3586 36.878 14.6951 36.878 15.0877C36.878 15.4804 36.9621 15.8169 37.1023 16.1254C37.2706 16.4339 37.4669 16.6583 37.7474 16.7985C37.9998 16.9668 38.3083 17.0509 38.6448 17.0509C38.9814 17.0509 39.2618 16.9668 39.5423 16.7985Z" fill="black"/>
<path d="M54.4061 11.1611L51.0967 19.0138H48.4885L45.1792 11.1611H48.0398L49.9188 15.7605L51.8259 11.1611H54.4061Z" fill="black"/>
<path d="M58.6139 18.6495C57.9408 18.2849 57.4079 17.8081 57.0433 17.1911C56.6507 16.5741 56.4824 15.873 56.4824 15.0877C56.4824 14.3025 56.6787 13.6014 57.0433 12.9844C57.436 12.3674 57.9408 11.8626 58.6139 11.526C59.2869 11.1614 60.0442 10.9932 60.8855 10.9932C61.7269 10.9932 62.4841 11.1614 63.1572 11.526C63.8303 11.8906 64.3631 12.3674 64.7277 12.9844C65.1203 13.6014 65.2886 14.3025 65.2886 15.0877C65.2886 15.873 65.0923 16.5741 64.7277 17.1911C64.3351 17.8081 63.8303 18.3129 63.1572 18.6495C62.4841 19.0141 61.7269 19.1823 60.8855 19.1823C60.0442 19.1823 59.2869 19.0141 58.6139 18.6495ZM61.783 16.7985C62.0354 16.6302 62.2597 16.4059 62.428 16.1254C62.5963 15.8169 62.6524 15.4804 62.6524 15.0877C62.6524 14.6951 62.5682 14.3586 62.428 14.0501C62.2597 13.7416 62.0634 13.5172 61.783 13.377C61.5306 13.2087 61.2221 13.1246 60.8855 13.1246C60.549 13.1246 60.2685 13.2087 59.9881 13.377C59.7357 13.5453 59.5113 13.7696 59.343 14.0501C59.1748 14.3586 59.1187 14.6951 59.1187 15.0877C59.1187 15.4804 59.2028 15.8169 59.343 16.1254C59.5113 16.4339 59.7076 16.6583 59.9881 16.7985C60.2405 16.9668 60.549 17.0509 60.8855 17.0509C61.2221 17.0509 61.5306 16.9668 61.783 16.7985Z" fill="black"/>
<path d="M75.4106 16.9385V18.9858H68.2031V17.3872L71.7929 13.2084H68.3153V11.1611H75.2424V12.7878L71.6526 16.9665H75.4106V16.9385Z" fill="black"/>
<path d="M78.6658 18.7063C78.3853 18.4258 78.2451 18.0893 78.2451 17.6686C78.2451 17.2479 78.3853 16.8833 78.6658 16.6309C78.9462 16.3785 79.3108 16.2383 79.7315 16.2383C80.1522 16.2383 80.5168 16.3785 80.7972 16.6309C81.0777 16.8833 81.2179 17.2479 81.2179 17.6686C81.2179 18.0893 81.0777 18.4538 80.7972 18.7063C80.5168 18.9867 80.1522 19.1269 79.7315 19.1269C79.3108 19.1269 78.9462 18.9867 78.6658 18.7063Z" fill="black"/>
<path d="M84.3018 11.1611H88.172C89.0414 11.1611 89.8267 11.3294 90.4997 11.6379C91.1728 11.9464 91.6776 12.4232 92.0703 13.0121C92.4349 13.6011 92.6312 14.3022 92.6312 15.0874C92.6312 15.9007 92.4349 16.5738 92.0703 17.1628C91.7057 17.7517 91.1728 18.2004 90.4997 18.537C89.8267 18.8455 89.0694 19.0138 88.172 19.0138H84.3018V11.1611ZM88.0598 16.9384C88.6207 16.9384 89.0694 16.7701 89.434 16.4617C89.7706 16.1251 89.9388 15.6764 89.9388 15.0874C89.9388 14.4985 89.7706 14.0498 89.434 13.7132C89.0975 13.3767 88.6488 13.2365 88.0598 13.2365H86.938V16.9665H88.0598V16.9384Z" fill="#E62D39"/>
<path d="M102.365 16.9943V18.9855H95.8301V11.1328H102.224V13.124H98.4383V14.0495H101.748V15.9846H98.4383V17.0223H102.365V16.9943Z" fill="#E62D39"/>
<path d="M106.656 18.9587C106.039 18.8185 105.534 18.6222 105.142 18.3697L105.983 16.4346C106.348 16.659 106.768 16.8273 107.245 16.9675C107.722 17.1077 108.142 17.1638 108.591 17.1638C108.956 17.1638 109.208 17.1358 109.376 17.0516C109.545 16.9675 109.601 16.8834 109.601 16.7431C109.601 16.5749 109.489 16.4627 109.292 16.3785C109.096 16.2944 108.759 16.2103 108.283 16.0981C107.666 15.9579 107.161 15.8457 106.768 15.6774C106.376 15.5372 106.011 15.2848 105.703 14.9482C105.394 14.6117 105.254 14.163 105.254 13.6021C105.254 13.0973 105.394 12.6485 105.674 12.2559C105.955 11.8633 106.376 11.5267 106.908 11.3024C107.469 11.078 108.114 10.9658 108.9 10.9658C109.433 10.9658 109.965 11.0219 110.498 11.1341C111.031 11.2463 111.48 11.4145 111.872 11.6389L111.087 13.546C110.33 13.1533 109.601 12.957 108.9 12.957C108.227 12.957 107.89 13.1253 107.89 13.4618C107.89 13.6301 108.002 13.7423 108.199 13.8264C108.395 13.9106 108.731 13.9947 109.208 14.0788C109.797 14.191 110.302 14.3312 110.723 14.4715C111.143 14.6117 111.48 14.8641 111.788 15.1726C112.097 15.5091 112.237 15.9579 112.237 16.5188C112.237 17.0236 112.097 17.4723 111.816 17.8649C111.536 18.2576 111.115 18.5941 110.582 18.8185C110.021 19.0428 109.376 19.1831 108.591 19.1831C107.89 19.1831 107.273 19.0989 106.656 18.9587Z" fill="#E62D39"/>
<path d="M115.238 11.1611H117.874V19.0138H115.238V11.1611Z" fill="#E62D39"/>
<path d="M126.597 14.8635H128.897V18.1729C128.42 18.4814 127.887 18.7338 127.27 18.9021C126.653 19.0703 126.064 19.1545 125.475 19.1545C124.634 19.1545 123.877 18.9862 123.232 18.6216C122.558 18.2851 122.054 17.7802 121.661 17.1633C121.296 16.5463 121.1 15.8171 121.1 15.0318C121.1 14.2466 121.296 13.5174 121.661 12.9004C122.026 12.2834 122.558 11.7786 123.232 11.442C123.905 11.1055 124.662 10.9092 125.531 10.9092C126.288 10.9092 126.99 11.0494 127.607 11.3018C128.224 11.5542 128.728 11.9469 129.121 12.4236L127.438 13.91C126.933 13.3211 126.345 13.0406 125.671 13.0406C125.083 13.0406 124.634 13.2089 124.269 13.5735C123.933 13.9381 123.764 14.4148 123.764 15.0038C123.764 15.5927 123.933 16.0695 124.269 16.4341C124.606 16.7987 125.054 16.9669 125.643 16.9669C125.98 16.9669 126.288 16.9108 126.597 16.7706V14.8635Z" fill="#E62D39"/>
<path d="M140.001 11.1609V19.0135H137.813L134.84 15.4237V18.9854H132.26V11.1328H134.448L137.42 14.7226V11.1609H140.001Z" fill="#E62D39"/>
<path d="M6.16853 6.1421V8.1894H5.215V7.0115H1.00822V8.1894H0.0546875V6.1421H0.279049C0.615591 6.11406 0.867997 5.86165 1.00822 5.38488C1.14845 4.88007 1.23258 4.17894 1.26063 3.25345L1.31672 1.51465H5.35522V6.1421H6.16853ZM2.01785 5.13248C1.93371 5.60924 1.79349 5.94579 1.59717 6.1421H4.37364V2.38405H2.21417L2.18612 3.36563C2.15808 4.06676 2.10198 4.65571 2.01785 5.13248Z" fill="#888888"/>
<path d="M7.14767 1.51465H8.12926V5.41293L11.1021 1.51465H12.0556V7.0115H11.046V3.11322L8.07317 7.0115H7.11963V1.51465H7.14767Z" fill="#888888"/>
<path d="M17.2463 4.65558C17.4426 4.87995 17.5268 5.1604 17.5268 5.46889C17.5268 5.80544 17.4146 6.08589 17.2183 6.33829C16.9939 6.5907 16.7135 6.75897 16.3489 6.8992C15.9843 7.03942 15.5917 7.09551 15.171 7.09551C14.8064 7.09551 14.4418 7.03942 14.0772 6.95529C13.7126 6.84311 13.3761 6.70288 13.0396 6.50657L13.3761 5.74935C13.6285 5.91762 13.8809 6.0298 14.1894 6.11393C14.4699 6.19807 14.7784 6.25416 15.0588 6.25416C15.4795 6.25416 15.816 6.17002 16.0965 6.00175C16.3769 5.83348 16.5172 5.60912 16.5172 5.32867C16.5172 5.07626 16.405 4.90799 16.2087 4.76776C16.0123 4.65558 15.7319 4.57145 15.3953 4.57145H14.1053V3.75814H15.3112C15.6197 3.75814 15.8441 3.70205 16.0123 3.56182C16.1806 3.44964 16.2647 3.25332 16.2647 3.05701C16.2647 2.8046 16.1526 2.60829 15.9282 2.46806C15.7038 2.32783 15.3953 2.2437 15.0308 2.2437C14.7784 2.2437 14.5259 2.27174 14.2735 2.35588C14.0211 2.44001 13.7687 2.52415 13.5444 2.66438L13.2359 1.85107C13.5163 1.71084 13.8248 1.59866 14.1333 1.51452C14.4138 1.43039 14.7223 1.40234 15.0588 1.40234C15.4795 1.40234 15.8441 1.45843 16.1806 1.59866C16.5172 1.71084 16.7976 1.90716 16.9939 2.13152C17.1902 2.35588 17.3024 2.63633 17.3024 2.94483C17.3024 3.22528 17.2183 3.44964 17.0781 3.64596C16.9378 3.84227 16.7415 4.01054 16.4611 4.12273C16.7976 4.23491 17.05 4.40318 17.2463 4.65558Z" fill="#888888"/>
<path d="M22.3221 5.72142H19.5737L19.0408 7.0115H17.9751L20.4431 1.51465H21.4527L23.9487 7.0115H22.883L22.3221 5.72142ZM21.9856 4.93616L20.9479 2.52427L19.9102 4.93616H21.9856Z" fill="#888888"/>
<path d="M24.791 1.51444H25.8006V5.41271L28.7454 1.51444H29.6989V7.01128H28.6893V3.11301L25.7446 7.01128H24.791V1.51444ZM26.1652 0.841353C25.9409 0.645038 25.8006 0.364586 25.8006 0H26.5018C26.5018 0.196316 26.5579 0.336541 26.6981 0.448722C26.8103 0.560902 27.0066 0.616993 27.2309 0.616993C27.4553 0.616993 27.6236 0.560902 27.7638 0.448722C27.904 0.336541 27.9601 0.196316 27.9601 0H28.6612C28.6612 0.364586 28.521 0.645038 28.2967 0.841353C28.0443 1.03767 27.7077 1.1218 27.2309 1.1218C26.7542 1.14985 26.4176 1.03767 26.1652 0.841353Z" fill="#888888"/>
<path d="M36.121 1.51465V7.0115H35.1114V4.65571H32.2508V7.0115H31.2412V1.51465H32.2508V3.78631H35.0834V1.51465H36.121Z" fill="#888888"/>
<path d="M40.8607 6.73119C40.412 6.47878 40.0754 6.14224 39.795 5.72156C39.5426 5.30089 39.4023 4.79608 39.4023 4.26322C39.4023 3.73036 39.5426 3.2536 39.795 2.80487C40.0474 2.3842 40.412 2.04766 40.8607 1.79525C41.3094 1.54284 41.8142 1.43066 42.3751 1.43066C42.8239 1.43066 43.2445 1.5148 43.6091 1.65502C43.9737 1.8233 44.2822 2.04766 44.5627 2.32811L43.8896 2.9451C43.4969 2.52442 42.9921 2.30006 42.4312 2.30006C42.0666 2.30006 41.7301 2.3842 41.4216 2.55247C41.1131 2.72074 40.8887 2.9451 40.7205 3.2536C40.5522 3.53405 40.4681 3.87059 40.4681 4.26322C40.4681 4.65585 40.5522 4.96435 40.7205 5.27284C40.8887 5.55329 41.1131 5.8057 41.4216 5.97397C41.7301 6.14224 42.0666 6.22638 42.4312 6.22638C43.0202 6.22638 43.4969 6.00202 43.8896 5.58134L44.5627 6.19833C44.3102 6.50683 44.0018 6.73119 43.6091 6.87141C43.2445 7.03968 42.8239 7.09577 42.3751 7.09577C41.8142 7.09577 41.3094 6.95555 40.8607 6.73119Z" fill="#888888"/>
<path d="M49.021 5.72142H46.2726L45.7117 7.0115H44.646L47.114 1.51465H48.1236L50.5916 7.0115H49.5259L49.021 5.72142ZM48.6845 4.93616L47.6468 2.52427L46.6092 4.93616H48.6845Z" fill="#888888"/>
<path d="M51.4883 1.51444H52.4979V5.41271L55.4426 1.51444H56.3962V7.01128H55.3866V3.11301L52.4418 7.01128H51.4883V1.51444ZM52.8625 0.841353C52.6381 0.645038 52.4979 0.364586 52.4979 0H53.199C53.199 0.196316 53.2551 0.336541 53.3953 0.448722C53.5075 0.560902 53.7038 0.616993 53.9282 0.616993C54.1526 0.616993 54.3208 0.560902 54.4611 0.448722C54.6013 0.336541 54.6574 0.196316 54.6574 0H55.3585C55.3585 0.364586 55.2183 0.645038 54.9939 0.841353C54.7415 1.03767 54.405 1.1218 53.9282 1.1218C53.4514 1.14985 53.0869 1.03767 52.8625 0.841353Z" fill="#888888"/>
<path d="M61.9206 2.38405H60.0977V7.0115H59.0881V2.38405H57.2651V1.51465H61.9206V2.38405Z" fill="#888888"/>
<path d="M67.2789 1.5134L64.8951 5.94453C64.6988 6.33716 64.4464 6.61762 64.1379 6.81393C63.8574 7.01025 63.5209 7.09438 63.1843 7.09438C62.9039 7.09438 62.6515 7.03829 62.371 6.92611L62.6234 6.1128C62.8478 6.16889 63.0161 6.22498 63.1563 6.22498C63.4928 6.22498 63.7452 6.05671 63.9696 5.72017L64.0537 5.57995L61.8662 1.48535H62.96L64.5866 4.71055L66.2693 1.48535H67.2789V1.5134Z" fill="#888888"/>
</svg>
