<svg width="265" height="65" viewBox="0 0 265 65" fill="none" xmlns="http://www.w3.org/2000/svg">
<path d="M52.7465 32.3086L43.7185 41.2982C44.3716 39.8768 44.41 38.3401 43.8337 36.9187C42.7965 34.2679 39.8768 32.2318 35.8814 31.3098L29.389 29.8115C26.6229 29.1585 25.2399 27.8907 24.8174 26.9303C24.5869 26.3156 24.6637 25.7393 25.0479 25.1247C26.3924 23.127 30.8872 21.6672 35.4204 22.7044C37.3413 23.1654 39.6079 24.2795 39.6079 26.0851C39.6079 26.9303 40.2994 27.6218 41.1446 27.6218C41.9897 27.6218 42.6812 26.9303 42.6812 26.0851C42.6812 22.5123 39.3005 20.4762 36.1119 19.7463C30.7336 18.517 24.7405 20.1305 22.5123 23.4727C21.5519 24.9326 21.3598 26.5461 21.9745 28.0828C22.8581 30.311 25.3168 32.0397 28.6975 32.8465L35.1899 34.3447C38.1096 35.0362 40.3378 36.4577 40.9909 38.1096C41.3366 38.9548 41.2214 39.7999 40.6451 40.6067C38.7243 43.488 32.7312 44.9094 27.5834 43.7185H27.5065C24.5869 43.027 22.3587 41.6055 21.7056 39.9536C21.3598 39.1084 21.4751 38.2633 22.0513 37.4181C22.5123 36.7266 22.3203 35.7662 21.6287 35.3052C20.9372 34.8442 19.9768 35.0362 19.5158 35.7278C18.8243 36.765 18.4786 37.9175 18.4786 39.0316L11.794 32.3086H8.33649L32.3087 56.1271L56.204 32.3086H52.7465ZM32.3087 52.708L25.9314 46.3692C26.2388 46.4461 26.5461 46.5229 26.8535 46.5997H26.9303C28.4285 46.9455 29.9268 47.0992 31.4251 47.0992C34.5368 47.0992 37.5334 46.3692 39.8768 45.1015L32.3087 52.708Z" fill="#006BB4"/>
<path d="M56.204 32.3086L32.2702 8.41331L8.33649 32.3086H11.794L22.7813 21.3214C24.9326 19.2085 28.4285 17.9407 32.2702 17.9407C36.0735 17.9407 39.6079 19.2085 41.7592 21.3214L52.7465 32.3086H56.204ZM32.2702 15.5204C30.8488 15.5204 29.4658 15.6741 28.1596 15.9814L32.2702 11.8324L36.3809 15.943C35.0747 15.6741 33.6917 15.5204 32.2702 15.5204Z" fill="#369040"/>
<path d="M34.1142 1.84401C34.1142 2.84285 33.3075 3.68803 32.2702 3.68803C31.2714 3.68803 30.4262 2.88127 30.4262 1.84401C30.4262 0.806756 31.2714 0 32.2702 0C33.2691 0 34.1142 0.806756 34.1142 1.84401Z" fill="#369040"/>
<path d="M32.2702 64.5404C31.2714 64.5404 30.4262 63.7337 30.4262 62.6964C30.4262 61.6976 31.233 60.8524 32.2702 60.8524C33.2691 60.8524 34.1142 61.6592 34.1142 62.6964C34.1142 63.7337 33.2691 64.5404 32.2702 64.5404Z" fill="#369040"/>
<path d="M1.84401 30.4646C2.84285 30.4646 3.68803 31.2714 3.68803 32.3086C3.68803 33.3075 2.88127 34.1526 1.84401 34.1526C0.806756 34.1142 0 33.2691 0 32.2702C0 31.2714 0.806756 30.4646 1.84401 30.4646Z" fill="#369040"/>
<path d="M64.5404 32.2702C64.5404 33.2691 63.7337 34.1142 62.6964 34.1142C61.6976 34.1142 60.8524 33.3075 60.8524 32.2702C60.8524 31.2714 61.6592 30.4262 62.6964 30.4262C63.7337 30.4646 64.5404 31.2714 64.5404 32.2702Z" fill="#369040"/>
<path d="M20.9809 10.3537L20.3836 10.9516L22.5577 13.1238L23.155 12.5259L20.9809 10.3537Z" fill="#006BB4"/>
<path d="M11.0016 20.3288L10.4043 20.9267L12.5784 23.0989L13.1757 22.5011L11.0016 20.3288Z" fill="#006BB4"/>
<path d="M24.5849 4.03873L23.9875 4.63652L27.5199 8.16692L28.1173 7.56913L24.5849 4.03873Z" fill="#006BB4"/>
<path d="M14.6321 13.9875L14.0349 14.5855L17.5682 18.1149L18.1655 17.5169L14.6321 13.9875Z" fill="#006BB4"/>
<path d="M4.68058 23.9365L4.08313 24.5343L7.61553 28.0647L8.21298 27.4669L4.68058 23.9365Z" fill="#006BB4"/>
<path d="M41.9691 51.4011L41.3717 51.9989L43.5458 54.1712L44.1432 53.5733L41.9691 51.4011Z" fill="#006BB4"/>
<path d="M51.9212 41.4501L51.3239 42.048L53.498 44.2202L54.0953 43.6223L51.9212 41.4501Z" fill="#006BB4"/>
<path d="M37.0069 56.3559L36.4094 56.9537L39.9418 60.4841L40.5393 59.8863L37.0069 56.3559Z" fill="#006BB4"/>
<path d="M46.9634 46.4084L46.366 47.0063L49.8994 50.5362L50.4968 49.9383L46.9634 46.4084Z" fill="#006BB4"/>
<path d="M56.9112 36.4581L56.3138 37.0559L59.8462 40.5863L60.4436 39.9885L56.9112 36.4581Z" fill="#006BB4"/>
<path d="M82.6348 23.7417C81.5591 22.9733 80.1377 22.7044 78.9468 22.3587C77.948 22.0129 77.2564 21.6287 77.2564 20.9372C77.2564 20.1689 77.8711 19.7079 79.1773 19.7079C80.6756 19.7079 81.3671 20.5531 82.3659 20.5531C83.1342 20.5531 83.6721 19.9768 83.6721 19.2469C83.6721 18.5554 83.1342 18.0944 82.4427 17.8255C81.4823 17.4029 80.2146 17.2876 79.331 17.2876C76.0655 17.2876 74.3368 18.8243 74.3368 20.9757C74.3368 22.5123 75.0283 23.4343 75.9887 24.049C77.1028 24.7789 78.409 25.0094 79.4846 25.3936C80.4451 25.7394 81.1366 26.1619 81.1366 26.9303C81.1366 27.6218 80.714 28.4285 79.062 28.4285C77.3333 28.4285 76.4881 27.3529 75.6429 27.3529C74.913 27.3529 74.2983 27.9291 74.2983 28.6975C74.2983 29.4274 74.8746 29.8884 75.6045 30.1957C76.7186 30.6567 78.0632 30.8488 79.1005 30.8488C81.9817 30.8488 84.1715 29.3121 84.1715 26.6998C84.1715 25.2784 83.48 24.3563 82.6348 23.7417Z" fill="#006BB4"/>
<path d="M94.8898 19.2085C94.1599 19.2085 93.5837 19.7847 93.5837 20.5147V25.9699C93.5837 26.7382 93.3916 27.3529 93.0458 27.7755C92.6617 28.2749 92.047 28.5054 91.2018 28.5054C90.3566 28.5054 89.7804 28.2749 89.3962 27.7755C89.0505 27.3529 88.8584 26.7382 88.8584 25.9699V20.5147C88.8584 19.7847 88.2821 19.2085 87.5522 19.2085C86.8223 19.2085 86.246 19.7847 86.246 20.5147V26.2772C86.246 27.545 86.5918 28.659 87.2833 29.4658C88.1669 30.4646 89.5499 31.0025 91.2402 31.0025C92.9306 31.0025 94.2752 30.4646 95.1972 29.4658C95.8887 28.659 96.2344 27.545 96.2344 26.2772V20.5147C96.2344 19.7847 95.6198 19.2085 94.8898 19.2085Z" fill="#006BB4"/>
<path d="M106.338 20.2457C105.608 19.6695 104.725 19.3622 103.572 19.3622H99.8841C99.1541 19.3622 98.5779 19.9384 98.5779 20.6683V29.6963C98.5779 30.4262 99.1541 31.0025 99.8841 31.0025C100.614 31.0025 101.19 30.4262 101.19 29.6963V27.4681H103.572C104.264 27.4681 105.301 27.3913 106.223 26.6998C107.183 25.9699 107.76 24.7789 107.76 23.4343C107.721 22.1282 107.222 20.9757 106.338 20.2457ZM104.379 24.8174C104.11 25.0094 103.726 25.0863 103.188 25.0863H101.152V21.7056H103.226C103.726 21.7056 104.11 21.7824 104.379 22.0129C104.801 22.2818 105.032 22.7813 105.032 23.3959C105.07 24.049 104.84 24.5484 104.379 24.8174Z" fill="#006BB4"/>
<path d="M117.325 21.744C117.978 21.744 118.478 21.2062 118.478 20.5531C118.478 19.9 117.94 19.3622 117.325 19.3622H110.871C110.141 19.3622 109.565 19.9384 109.565 20.6683V29.5426C109.565 30.2726 110.141 30.8488 110.871 30.8488H117.325C117.978 30.8488 118.478 30.311 118.478 29.6579C118.478 29.0048 117.94 28.467 117.325 28.467H112.177V26.2772H116.48C117.095 26.2772 117.633 25.7394 117.633 25.0863C117.633 24.4332 117.133 23.8953 116.48 23.8953H112.177V21.7824H117.325V21.744Z" fill="#006BB4"/>
<path d="M127.698 26.4309C127.928 26.3156 128.159 26.1619 128.351 25.9699C129.196 25.2399 129.657 24.2411 129.657 23.127C129.657 21.8593 129.158 20.7836 128.313 20.1305C127.583 19.5927 126.661 19.3622 125.393 19.3622H121.551C120.821 19.3622 120.245 19.9384 120.245 20.6683V29.6963C120.245 30.4262 120.821 31.0025 121.551 31.0025C122.281 31.0025 122.857 30.4262 122.857 29.6963V26.9303H124.932L127.198 30.3494C127.467 30.772 127.852 30.9641 128.313 30.9641C129.042 30.9641 129.619 30.3878 129.619 29.6195C129.619 29.3506 129.542 29.1201 129.388 28.928L127.698 26.4309ZM126.353 24.3948C126.084 24.5484 125.7 24.6637 125.162 24.6637H122.857V21.6672H125.201C125.7 21.6672 126.084 21.744 126.392 21.9361C126.776 22.205 126.968 22.5892 126.968 23.1654C126.968 23.7417 126.776 24.1259 126.353 24.3948Z" fill="#006BB4"/>
<path d="M224.854 28.0828C224.048 28.0828 223.433 28.6975 223.433 29.5042C223.433 30.311 224.086 30.9641 224.854 30.9641C225.661 30.9641 226.314 30.311 226.314 29.5042C226.314 28.7359 225.661 28.0828 224.854 28.0828Z" fill="#369040"/>
<path d="M140.913 18.4786C140.068 17.7486 138.877 17.2876 137.379 17.2876C135.919 17.2876 134.728 17.787 133.883 18.4786C132.577 19.5926 131.962 21.2062 131.962 22.7812V29.4658C131.962 30.2341 132.577 30.8104 133.345 30.8104C134.114 30.8104 134.728 30.1957 134.728 29.4658V26.5845H140.03V29.4658C140.03 30.2341 140.644 30.8104 141.413 30.8104C142.181 30.8104 142.796 30.1957 142.796 29.4658V22.8197C142.834 21.2062 142.258 19.5926 140.913 18.4786ZM140.068 24.1643H134.767V22.9349C134.767 21.8977 135.074 21.0909 135.573 20.6299C136.073 20.1305 136.726 19.9384 137.417 19.9384C138.147 19.9384 138.8 20.1689 139.3 20.6299C139.799 21.1293 140.068 21.8977 140.068 22.9349V24.1643Z" fill="#369040"/>
<path d="M154.743 24.4716H151.862C151.209 24.4716 150.71 25.0094 150.71 25.6625C150.71 26.3156 151.247 26.8534 151.862 26.8534H153.322V28.1212C152.899 28.3133 152.17 28.5822 151.171 28.5822C149.211 28.5822 147.828 27.1224 147.828 25.0863C147.828 23.1654 149.288 21.6287 151.171 21.6287C151.939 21.6287 152.362 21.7824 152.746 21.9361C153.015 22.0513 153.284 22.1282 153.629 22.1282C154.321 22.1282 154.859 21.5903 154.859 20.8988C154.859 20.3226 154.475 19.8231 153.821 19.6311C153.015 19.3621 152.246 19.2469 151.209 19.2469C147.79 19.2469 145.101 21.8208 145.101 25.0863C145.101 28.659 147.444 30.9641 151.017 30.9641C151.901 30.9641 152.823 30.772 153.553 30.4646C153.783 30.8104 154.167 30.9641 154.628 30.9641C155.397 30.9641 155.934 30.4262 155.934 29.6579V25.7778C155.973 25.0094 155.473 24.4716 154.743 24.4716Z" fill="#369040"/>
<path d="M167.69 23.127C167.69 21.8593 167.19 20.7836 166.345 20.1305C165.615 19.5927 164.693 19.3622 163.426 19.3622H159.584C158.854 19.3622 158.278 19.9384 158.278 20.6683V29.6963C158.278 30.4262 158.854 31.0025 159.584 31.0025C160.314 31.0025 160.89 30.4262 160.89 29.6963V26.9303H162.965L165.231 30.3494C165.5 30.772 165.884 30.9641 166.345 30.9641C167.075 30.9641 167.651 30.3878 167.651 29.6195C167.651 29.3506 167.575 29.1201 167.421 28.928L165.692 26.4309C165.923 26.3156 166.153 26.1619 166.345 25.9699C167.267 25.2399 167.69 24.2411 167.69 23.127ZM164.424 24.3948C164.156 24.5484 163.771 24.6637 163.234 24.6637H160.929V21.6672H163.272C163.771 21.6672 164.156 21.744 164.463 21.9361C164.847 22.205 165.039 22.5892 165.039 23.1654C165.039 23.7417 164.809 24.1259 164.424 24.3948Z" fill="#369040"/>
<path d="M175.412 19.2085C171.877 19.2085 169.303 21.6672 169.303 25.0863C169.303 28.467 171.877 30.9256 175.412 30.9256C178.946 30.9256 181.52 28.467 181.52 25.0863C181.52 21.7056 178.946 19.2085 175.412 19.2085ZM175.412 28.467C173.529 28.467 172.069 27.0071 172.069 25.0863C172.069 23.1654 173.491 21.7056 175.412 21.7056C177.294 21.7056 178.716 23.1654 178.716 25.0863C178.716 27.0455 177.294 28.467 175.412 28.467Z" fill="#369040"/>
<path d="M192.354 19.2085C191.662 19.2085 191.086 19.7463 191.086 20.4378V26.3156L186.168 19.8616C185.861 19.439 185.4 19.2085 184.901 19.2085C184.094 19.2085 183.402 19.8616 183.402 20.6299V29.7347C183.402 30.3878 183.979 30.9256 184.67 30.9256C185.362 30.9256 185.938 30.3878 185.938 29.7347V23.8569L190.855 30.311C191.163 30.7336 191.624 30.9641 192.123 30.9641C192.968 30.9641 193.621 30.3494 193.621 29.5426V20.4378C193.621 19.7847 193.045 19.2085 192.354 19.2085Z" fill="#369040"/>
<path d="M201.612 19.2085C198.078 19.2085 195.504 21.6672 195.504 25.0863C195.504 28.467 198.078 30.9256 201.612 30.9256C205.146 30.9256 207.72 28.467 207.72 25.0863C207.72 21.7056 205.146 19.2085 201.612 19.2085ZM201.612 28.467C199.73 28.467 198.27 27.0071 198.27 25.0863C198.27 23.1654 199.691 21.7056 201.612 21.7056C203.494 21.7056 204.916 23.1654 204.916 25.0863C204.916 27.0455 203.494 28.467 201.612 28.467Z" fill="#369040"/>
<path d="M219.783 19.2085C219.169 19.2085 218.669 19.5158 218.4 20.0152L215.519 25.0094L212.676 20.0152C212.369 19.4774 211.869 19.2085 211.255 19.2085C210.333 19.2085 209.641 19.8616 209.641 20.7836V29.6963C209.641 30.4262 210.179 30.9256 210.909 30.9256C211.639 30.9256 212.215 30.3878 212.215 29.6963V24.1258L214.29 27.6218C214.597 28.1212 215.02 28.4285 215.557 28.4285C216.095 28.4285 216.518 28.1596 216.825 27.6218L218.9 24.1258V29.7347C218.9 30.4646 219.438 30.9641 220.167 30.9641C220.897 30.9641 221.474 30.4262 221.474 29.7347V20.822C221.435 19.9 220.744 19.2085 219.783 19.2085Z" fill="#369040"/>
<path d="M236.571 27.9675C236.264 27.9675 236.034 28.0444 235.765 28.1596C235.381 28.3133 234.92 28.5054 233.998 28.5054C232.077 28.5054 230.655 27.0455 230.655 25.0479C230.655 23.127 232.115 21.5903 233.998 21.5903C234.843 21.5903 235.227 21.744 235.611 21.8977C235.88 22.0129 236.11 22.0897 236.456 22.0897C237.148 22.0897 237.686 21.5519 237.686 20.8604C237.686 20.2841 237.301 19.8616 236.648 19.5926C235.842 19.2853 235.073 19.1701 234.074 19.1701C230.694 19.1701 227.928 21.7824 227.928 25.0094C227.928 28.467 230.425 30.8872 234.036 30.8872C235.035 30.8872 235.957 30.7336 236.802 30.4262C237.494 30.1573 237.878 29.6963 237.878 29.1585C237.801 28.5054 237.301 27.9675 236.571 27.9675Z" fill="#369040"/>
<path d="M245.138 19.2085C241.604 19.2085 239.03 21.6672 239.03 25.0863C239.03 28.467 241.604 30.9256 245.138 30.9256C248.673 30.9256 251.247 28.467 251.247 25.0863C251.208 21.7056 248.673 19.2085 245.138 19.2085ZM245.138 28.467C243.256 28.467 241.796 27.0071 241.796 25.0863C241.796 23.1654 243.218 21.7056 245.138 21.7056C247.021 21.7056 248.442 23.1654 248.442 25.0863C248.442 27.0455 247.021 28.467 245.138 28.467Z" fill="#369040"/>
<path d="M263.31 19.2085C262.695 19.2085 262.196 19.5158 261.927 20.0152L259.045 24.971L256.203 19.9768C255.895 19.439 255.396 19.1701 254.781 19.1701C253.859 19.1701 253.168 19.8231 253.168 20.7452V29.6579C253.168 30.3878 253.705 30.8872 254.435 30.8872C255.165 30.8872 255.742 30.3494 255.742 29.6579V24.1258L257.816 27.6218C258.123 28.1212 258.546 28.4285 259.084 28.4285C259.622 28.4285 260.044 28.1596 260.352 27.6218L262.426 24.1258V29.7347C262.426 30.4646 262.964 30.9641 263.694 30.9641C264.424 30.9641 265 30.4262 265 29.7347V20.822C264.923 19.9 264.232 19.2085 263.31 19.2085Z" fill="#369040"/>
<path d="M79.7151 38.148H75.8734C75.374 38.148 75.0283 38.5322 75.0283 38.9932V45.5625C75.0283 46.0235 75.4124 46.4077 75.8734 46.4077C76.3344 46.4077 76.7186 46.0235 76.7186 45.5625V39.6847H79.7151C80.1377 39.6847 80.445 39.3389 80.445 38.9164C80.445 38.4938 80.1377 38.148 79.7151 38.148Z" fill="#006BB4"/>
<path d="M85.5545 41.4519C85.0167 40.9909 84.2867 40.6835 83.5184 40.6835C82.7117 40.6835 81.9817 40.9525 81.4439 41.4519C80.8676 41.9513 80.5603 42.6812 80.5603 43.5648C80.5603 44.4484 80.9061 45.1783 81.4439 45.6393C81.9817 46.1388 82.7117 46.4077 83.5184 46.4077C84.2867 46.4077 85.0551 46.1388 85.5545 45.6393C86.1308 45.1399 86.4381 44.41 86.4381 43.5648C86.4381 42.6812 86.0923 41.9513 85.5545 41.4519ZM84.4788 44.6789C84.2483 44.9478 83.9026 45.1015 83.5184 45.1015C83.0958 45.1015 82.7501 44.9478 82.5196 44.6789C82.2507 44.41 82.097 43.9874 82.097 43.5648C82.097 43.1038 82.2507 42.7196 82.5196 42.4123C82.7501 42.1434 83.0958 41.9897 83.5184 41.9897C83.9026 41.9897 84.2483 42.1434 84.4788 42.4123C84.7477 42.6812 84.9014 43.1038 84.9014 43.5648C84.9014 43.9874 84.7477 44.3716 84.4788 44.6789Z" fill="#006BB4"/>
<path d="M93.2763 40.7988H89.9725C89.5499 40.7988 89.2041 41.1446 89.2041 41.5671C89.2041 42.6812 89.1273 43.4496 88.9352 44.0642C88.6663 44.871 88.1669 45.1399 88.1669 45.6393C88.1669 46.0619 88.5126 46.4077 88.9352 46.4077C89.3962 46.4077 89.7804 46.1003 90.0877 45.4473C90.5103 44.5637 90.664 43.3343 90.7408 42.2202H92.508V45.6778C92.508 46.1003 92.8537 46.4461 93.2763 46.4461C93.6989 46.4461 94.0447 46.1003 94.0447 45.6778V41.6056C94.0447 41.1446 93.6989 40.7988 93.2763 40.7988Z" fill="#006BB4"/>
<path d="M101.382 41.4519C100.844 40.9909 100.115 40.6835 99.3462 40.6835C98.5394 40.6835 97.8095 40.9525 97.2717 41.4519C96.6954 41.9513 96.3881 42.6812 96.3881 43.5648C96.3881 44.4484 96.7338 45.1783 97.2717 45.6393C97.8095 46.1388 98.5394 46.4077 99.3462 46.4077C100.115 46.4077 100.883 46.1388 101.382 45.6393C101.959 45.1399 102.266 44.41 102.266 43.5648C102.266 42.6812 101.92 41.9513 101.382 41.4519ZM100.307 44.6789C100.076 44.9478 99.7303 45.1015 99.3462 45.1015C98.9236 45.1015 98.5778 44.9478 98.3473 44.6789C98.0784 44.41 97.9247 43.9874 97.9247 43.5648C97.9247 43.1038 98.0784 42.7196 98.3473 42.4123C98.5778 42.1434 98.9236 41.9897 99.3462 41.9897C99.7303 41.9897 100.076 42.1434 100.307 42.4123C100.576 42.6812 100.729 43.1038 100.729 43.5648C100.729 43.9874 100.576 44.3716 100.307 44.6789Z" fill="#006BB4"/>
<path d="M108.374 43.3727C108.72 43.1038 108.912 42.7196 108.912 42.2586C108.912 41.2982 108.105 40.7988 107.068 40.7988H105.378C104.955 40.7988 104.609 41.1446 104.609 41.5671V45.5241C104.609 45.9467 104.955 46.2924 105.378 46.2924H107.414C108.528 46.2924 109.411 45.8698 109.411 44.7942C109.411 44.0642 109.104 43.5648 108.374 43.3727ZM106.108 41.9513H106.838C107.145 41.9513 107.452 42.105 107.452 42.4123C107.452 42.7965 107.106 42.9117 106.838 42.9117H106.108V41.9513ZM107.068 45.1015H106.108V44.0258H107.068C107.644 44.0258 107.875 44.2563 107.875 44.5637C107.875 45.0247 107.452 45.1015 107.068 45.1015Z" fill="#006BB4"/>
<path d="M116.365 40.6835C115.942 40.6835 115.597 41.0293 115.597 41.4519V42.7965H113.292V41.4519C113.292 41.0293 112.946 40.6835 112.523 40.6835C112.101 40.6835 111.755 41.0293 111.755 41.4519V45.6393C111.755 46.0619 112.101 46.4077 112.523 46.4077C112.946 46.4077 113.292 46.0619 113.292 45.6393V44.1795H115.597V45.6393C115.597 46.0619 115.942 46.4077 116.365 46.4077C116.788 46.4077 117.133 46.0619 117.133 45.6393V41.4519C117.133 41.0293 116.826 40.6835 116.365 40.6835Z" fill="#006BB4"/>
<path d="M124.586 40.6835C124.164 40.6835 123.818 41.0293 123.818 41.4519V41.644L121.398 43.7953V41.4519C121.398 41.0293 121.052 40.6835 120.629 40.6835C120.207 40.6835 119.861 41.0293 119.861 41.4519V45.6009C119.861 46.0235 120.207 46.3693 120.629 46.3693C121.052 46.3693 121.398 46.0235 121.398 45.6009V45.4088L123.818 43.2575V45.6009C123.818 46.0235 124.164 46.3693 124.586 46.3693C125.009 46.3693 125.354 46.0235 125.354 45.6009V41.4519C125.354 41.0293 125.009 40.6835 124.586 40.6835Z" fill="#006BB4"/>
<path d="M130.771 39.4542C131.693 39.4542 132.692 38.8011 132.692 37.9559C132.692 37.6486 132.423 37.4181 132.116 37.4181C131.501 37.4181 131.54 38.3401 130.771 38.3401C130.003 38.3401 130.003 37.4181 129.427 37.4181C129.119 37.4181 128.85 37.6486 128.85 37.9559C128.85 38.8011 129.849 39.4542 130.771 39.4542Z" fill="#006BB4"/>
<path d="M132.769 40.6835C132.346 40.6835 132.001 41.0293 132.001 41.4519V41.644L129.58 43.7953V41.4519C129.58 41.0293 129.235 40.6835 128.812 40.6835C128.389 40.6835 128.044 41.0293 128.044 41.4519V45.6009C128.044 46.0235 128.389 46.3693 128.812 46.3693C129.235 46.3693 129.58 46.0235 129.58 45.6009V45.4088L132.001 43.2575V45.6009C132.001 46.0235 132.346 46.3693 132.769 46.3693C133.191 46.3693 133.537 46.0235 133.537 45.6009V41.4519C133.576 41.0293 133.23 40.6835 132.769 40.6835Z" fill="#006BB4"/>
<path d="M144.371 44.7557C144.025 44.7557 143.795 45.0247 143.103 45.0247C142.642 45.0247 142.258 44.871 141.989 44.6021C141.72 44.3331 141.605 43.949 141.605 43.5264C141.605 43.1038 141.758 42.7581 141.989 42.4891C142.258 42.2202 142.642 42.0281 143.103 42.0281C143.718 42.0281 143.948 42.3355 144.371 42.3355C144.717 42.3355 144.985 42.0666 144.985 41.6824C144.985 41.3366 144.755 41.1061 144.371 40.914C143.871 40.6835 143.372 40.6451 143.103 40.6451C142.066 40.6451 141.182 41.0293 140.606 41.7208C140.222 42.1818 140.03 42.7581 140.03 43.488C140.03 44.2947 140.299 44.9862 140.76 45.4472C141.297 46.0235 142.066 46.3308 143.065 46.3308C143.449 46.3308 143.833 46.2924 144.179 46.1772C144.678 46.0235 144.985 45.7546 144.985 45.4088C145.024 45.0631 144.755 44.7557 144.371 44.7557Z" fill="#006BB4"/>
<path d="M149.288 40.6835C148.75 40.6835 148.174 40.7604 147.713 40.9525C147.329 41.1061 147.022 41.3366 147.022 41.7208C147.022 42.0281 147.291 42.2971 147.598 42.2971C148.059 42.2971 148.481 41.9129 149.096 41.9129C149.365 41.9129 149.596 41.9897 149.749 42.1434C149.864 42.2971 149.903 42.4891 149.903 42.7965V42.8733C148.328 42.9886 146.753 43.2959 146.753 44.6789C146.753 45.7162 147.559 46.3693 148.558 46.3693C149.096 46.3693 149.557 46.2924 150.018 46.0235C150.133 46.2156 150.402 46.3693 150.671 46.3693C151.094 46.3693 151.44 46.0235 151.44 45.6009V42.7581C151.44 42.0666 151.247 41.644 150.979 41.2982C150.556 40.7988 149.826 40.6835 149.288 40.6835ZM149.903 44.9862C149.634 45.1399 149.327 45.2167 149.058 45.2167C148.635 45.2167 148.251 45.0247 148.251 44.6405C148.251 44.0642 149.173 43.949 149.903 43.949V44.9862Z" fill="#006BB4"/>
<path d="M158.816 40.6835C158.393 40.6835 158.047 41.0293 158.047 41.4519V41.644L155.589 43.7953V41.4519C155.589 41.0293 155.243 40.6835 154.82 40.6835C154.398 40.6835 154.052 41.0293 154.052 41.4519V45.6009C154.052 46.0235 154.398 46.3693 154.82 46.3693C155.243 46.3693 155.589 46.0235 155.589 45.6009V45.4088L158.009 43.2575V45.6009C158.009 46.0235 158.355 46.3693 158.777 46.3693C159.2 46.3693 159.545 46.0235 159.545 45.6009V41.4519C159.584 41.0293 159.238 40.6835 158.816 40.6835Z" fill="#006BB4"/>
<path d="M156.779 39.4542C157.701 39.4542 158.7 38.8011 158.7 37.9559C158.7 37.6486 158.431 37.4181 158.124 37.4181C157.509 37.4181 157.548 38.3401 156.779 38.3401C156.011 38.3401 156.011 37.4181 155.435 37.4181C155.128 37.4181 154.859 37.6486 154.859 37.9559C154.859 38.8011 155.857 39.4542 156.779 39.4542Z" fill="#006BB4"/>
<path d="M166.384 40.7988H162.196C161.812 40.7988 161.505 41.1061 161.505 41.5287C161.505 41.9129 161.812 42.2202 162.196 42.2202H163.502V45.6778C163.502 46.1003 163.887 46.4461 164.271 46.4461C164.693 46.4461 165.039 46.1003 165.039 45.6778V42.2202H166.345C166.729 42.2202 167.037 41.9129 167.037 41.5287C167.114 41.1061 166.768 40.7988 166.384 40.7988Z" fill="#006BB4"/>
<path d="M180.175 44.871H179.33V41.5287C179.33 41.1061 178.984 40.7604 178.562 40.7604H175.373C174.951 40.7604 174.605 41.1061 174.605 41.5287C174.605 42.7965 174.49 43.9106 173.952 44.871H173.491C173.068 44.871 172.722 45.2167 172.722 45.6393V47.5986C172.722 48.0212 173.068 48.3669 173.491 48.3669C173.913 48.3669 174.259 48.0212 174.259 47.5986V46.2924H179.407V47.5986C179.407 48.0212 179.753 48.3669 180.175 48.3669C180.598 48.3669 180.944 48.0212 180.944 47.5986V45.6393C180.944 45.2167 180.598 44.871 180.175 44.871ZM177.755 44.871H175.488C175.911 44.0642 176.065 43.1806 176.103 42.1818H177.755V44.871Z" fill="#006BB4"/>
<path d="M187.513 40.7988H184.209C183.787 40.7988 183.441 41.1446 183.441 41.5671C183.441 42.6812 183.364 43.4496 183.172 44.0642C182.903 44.871 182.404 45.1399 182.404 45.6393C182.404 46.0619 182.749 46.4077 183.172 46.4077C183.633 46.4077 184.017 46.1003 184.324 45.4473C184.747 44.5637 184.901 43.3343 184.978 42.2202H186.745V45.6778C186.745 46.1003 187.09 46.4461 187.513 46.4461C187.936 46.4461 188.281 46.1003 188.281 45.6778V41.6056C188.32 41.1446 187.936 40.7988 187.513 40.7988Z" fill="#006BB4"/>
<path d="M194.62 40.7988H192.853C191.585 40.7988 190.74 41.4135 190.74 42.6428C190.74 43.3727 191.086 43.8722 191.624 44.1795L190.894 45.2936C190.817 45.4088 190.74 45.5625 190.74 45.7162C190.74 46.1388 191.086 46.4077 191.508 46.4077C191.854 46.4077 192.008 46.2924 192.161 46.0619L193.122 44.5637H193.852V45.7162C193.852 46.1388 194.198 46.4461 194.62 46.4461C195.043 46.4461 195.389 46.1388 195.389 45.7162V41.6056C195.389 41.1061 195.043 40.7988 194.62 40.7988ZM193.852 43.2191H193.122C192.661 43.2191 192.277 43.1806 192.277 42.6812C192.277 42.2202 192.584 42.105 192.891 42.105H193.852V43.2191Z" fill="#006BB4"/>
<path d="M204.34 40.6835C203.802 40.6835 203.226 40.7604 202.765 40.9525C202.38 41.1061 202.073 41.3366 202.073 41.7208C202.073 42.0281 202.342 42.2971 202.649 42.2971C203.11 42.2971 203.533 41.9129 204.148 41.9129C204.417 41.9129 204.647 41.9897 204.801 42.1434C204.916 42.2971 204.954 42.4891 204.954 42.7965V42.8733C203.379 42.9886 201.804 43.2959 201.804 44.6789C201.804 45.7162 202.611 46.3693 203.61 46.3693C204.148 46.3693 204.609 46.2924 205.07 46.0235C205.185 46.2156 205.454 46.3693 205.723 46.3693C206.145 46.3693 206.491 46.0235 206.491 45.6009V42.7581C206.491 42.0666 206.299 41.644 206.03 41.2982C205.569 40.7988 204.878 40.6835 204.34 40.6835ZM204.954 44.9862C204.685 45.1399 204.378 45.2167 204.109 45.2167C203.687 45.2167 203.302 45.0247 203.302 44.6405C203.302 44.0642 204.224 43.949 204.954 43.949V44.9862Z" fill="#006BB4"/>
<path d="M212.676 40.7988H209.872C209.449 40.7988 209.103 41.1445 209.103 41.5671V45.6393C209.103 46.0619 209.449 46.4077 209.872 46.4077C210.294 46.4077 210.64 46.0619 210.64 45.6393V42.1818H212.676C213.06 42.1818 213.368 41.8745 213.368 41.4903C213.368 41.1061 213.06 40.7988 212.676 40.7988Z" fill="#006BB4"/>
<path d="M217.401 40.6835C216.979 40.6835 216.595 40.722 216.249 40.7604C215.634 40.8756 215.289 41.1061 215.289 41.8361V48.3669C215.289 48.7895 215.634 49.1353 216.057 49.1353C216.479 49.1353 216.825 48.7895 216.825 48.3669V46.2924C217.094 46.3693 217.363 46.3693 217.67 46.3693C218.516 46.3693 219.361 46.1003 219.937 45.4473C220.321 45.0247 220.59 44.3716 220.59 43.5264C220.59 42.6812 220.321 41.9897 219.822 41.5287C219.284 40.9909 218.4 40.6835 217.401 40.6835ZM218.631 44.7557C218.323 45.0247 217.939 45.1015 217.555 45.1015C217.286 45.1015 217.094 45.0631 216.902 44.9862V42.0281C217.094 41.9897 217.363 41.9897 217.594 41.9897C218.055 41.9897 218.439 42.1434 218.708 42.4507C218.938 42.7196 219.092 43.1038 219.092 43.5648C219.053 44.1027 218.9 44.5252 218.631 44.7557Z" fill="#006BB4"/>
<path d="M227.62 41.4519C227.082 40.9909 226.353 40.6835 225.584 40.6835C224.777 40.6835 224.048 40.9525 223.51 41.4519C222.933 41.9513 222.626 42.6812 222.626 43.5648C222.626 44.4484 222.972 45.1783 223.51 45.6393C224.048 46.1388 224.777 46.4077 225.584 46.4077C226.353 46.4077 227.121 46.1388 227.62 45.6393C228.197 45.1399 228.504 44.41 228.504 43.5648C228.504 42.6812 228.197 41.9513 227.62 41.4519ZM226.545 44.6789C226.314 44.9478 225.968 45.1015 225.584 45.1015C225.162 45.1015 224.816 44.9478 224.585 44.6789C224.316 44.41 224.163 43.9874 224.163 43.5648C224.163 43.1038 224.316 42.7196 224.585 42.4123C224.816 42.1434 225.162 41.9897 225.584 41.9897C225.968 41.9897 226.314 42.1434 226.545 42.4123C226.814 42.6812 226.967 43.1038 226.967 43.5648C226.967 43.9874 226.814 44.3716 226.545 44.6789Z" fill="#006BB4"/>
<path d="M235.496 40.6835C235.073 40.6835 234.727 41.0293 234.727 41.4519V42.7965H232.422V41.4519C232.422 41.0293 232.077 40.6835 231.654 40.6835C231.231 40.6835 230.886 41.0293 230.886 41.4519V45.6393C230.886 46.0619 231.231 46.4077 231.654 46.4077C232.077 46.4077 232.422 46.0619 232.422 45.6393V44.1795H234.727V45.6393C234.727 46.0619 235.073 46.4077 235.496 46.4077C235.918 46.4077 236.264 46.0619 236.264 45.6393V41.4519C236.264 41.0293 235.918 40.6835 235.496 40.6835Z" fill="#006BB4"/>
<path d="M243.563 41.4519C243.026 40.9909 242.296 40.6835 241.527 40.6835C240.721 40.6835 239.991 40.9525 239.453 41.4519C238.876 41.9513 238.569 42.6812 238.569 43.5648C238.569 44.4484 238.915 45.1783 239.453 45.6393C239.991 46.1388 240.721 46.4077 241.527 46.4077C242.296 46.4077 243.064 46.1388 243.563 45.6393C244.14 45.1399 244.447 44.41 244.447 43.5648C244.485 42.6812 244.14 41.9513 243.563 41.4519ZM242.488 44.6789C242.257 44.9478 241.911 45.1015 241.527 45.1015C241.105 45.1015 240.759 44.9478 240.528 44.6789C240.259 44.41 240.106 43.9874 240.106 43.5648C240.106 43.1038 240.259 42.7196 240.528 42.4123C240.759 42.1434 241.105 41.9897 241.527 41.9897C241.911 41.9897 242.257 42.1434 242.488 42.4123C242.757 42.6812 242.91 43.1038 242.91 43.5648C242.91 43.9874 242.757 44.3716 242.488 44.6789Z" fill="#006BB4"/>
<path d="M252.207 40.6835C251.823 40.6835 251.516 40.8756 251.362 41.1446L249.979 43.5648L248.558 41.1446C248.404 40.8756 248.135 40.6835 247.712 40.6835C247.136 40.6835 246.79 41.1061 246.79 41.6056V45.6009C246.79 45.9851 247.098 46.3308 247.559 46.3308C248.02 46.3308 248.327 45.9851 248.327 45.6009V43.488L249.211 44.9862C249.364 45.2167 249.595 45.4472 249.979 45.4472C250.363 45.4472 250.594 45.2167 250.747 44.9862L251.631 43.488V45.6009C251.631 45.9851 251.938 46.3308 252.399 46.3308C252.86 46.3308 253.168 45.9851 253.168 45.6009V41.6056C253.168 41.1061 252.783 40.6835 252.207 40.6835Z" fill="#006BB4"/>
<path d="M256.587 37.4949C256.087 37.4949 255.665 37.9175 255.665 38.417C255.665 38.9164 256.087 39.339 256.587 39.339C257.086 39.339 257.509 38.9164 257.509 38.417C257.509 37.9175 257.086 37.4949 256.587 37.4949Z" fill="#006BB4"/>
<path d="M256.587 40.6835C256.164 40.6835 255.818 41.0293 255.818 41.4519V45.6009C255.818 46.0235 256.164 46.3693 256.587 46.3693C257.009 46.3693 257.355 46.0235 257.355 45.6009V41.4519C257.393 41.0293 257.048 40.6835 256.587 40.6835Z" fill="#006BB4"/>
<path d="M263.809 43.3727C264.155 43.1038 264.347 42.7196 264.347 42.2586C264.347 41.2982 263.54 40.7988 262.503 40.7988H260.813C260.39 40.7988 260.044 41.1446 260.044 41.5671V45.5241C260.044 45.9467 260.39 46.2924 260.813 46.2924H262.849C263.963 46.2924 264.846 45.8698 264.846 44.7942C264.846 44.0642 264.539 43.5648 263.809 43.3727ZM261.542 41.9513H262.272C262.58 41.9513 262.887 42.105 262.887 42.4123C262.887 42.7965 262.541 42.9117 262.272 42.9117H261.542V41.9513ZM262.503 45.1015H261.542V44.0258H262.503C263.118 44.0258 263.31 44.2563 263.31 44.5637C263.271 45.0247 262.887 45.1015 262.503 45.1015Z" fill="#006BB4"/>
</svg>
