<svg width="55" height="55" viewBox="0 0 55 55" fill="none" xmlns="http://www.w3.org/2000/svg">
<path d="M18.374 16.1026H22.9439V33.5613H26.515V37.9123H18.3877V16.1026H18.374Z" fill="#E4032E"/>
<path d="M38.2549 27.6231C38.2549 35.2305 36.5035 38.4869 32.7135 38.4869C29.0056 38.4869 26.7891 34.4506 26.7891 27.0895C26.7891 19.7011 28.9919 15.6648 32.7956 15.6648C35.5458 15.6648 37.4476 17.1288 37.9128 21.4934L33.9176 22.3281C33.5892 20.8504 33.466 20.1526 32.7272 20.1389C31.0443 20.0978 31.2358 22.6564 31.2358 26.8159C31.2358 31.331 31.2221 34.1222 32.6998 34.1222C33.5208 34.1222 34.328 32.3572 34.0544 30.0175C34.0407 29.9218 34.0544 29.6618 34.0544 29.566H32.3304V25.7897H38.1864C38.2412 26.4601 38.2549 26.9801 38.2549 27.6231Z" fill="#E4032E"/>
<path d="M41.2512 3.76117C41.1417 3.72012 45.5338 5.33464 45.9716 9.43934C46.1495 10.2192 45.7937 10.5887 44.9317 10.7255C42.291 11.1907 34.9026 11.6832 29.2928 11.478C28.6498 11.5191 28.1572 11.3275 28.896 10.6981C31.9609 8.05742 39.4314 4.13059 39.4314 4.13059C40.184 3.72012 40.7586 3.65171 41.2512 3.76117Z" fill="#E4032E"/>
<path d="M27.5414 0.0669088C27.432 0.0942734 32.0429 -0.712984 34.4647 2.62551C35.012 3.21385 34.8751 3.70641 34.2047 4.2537C32.1524 5.97768 25.9953 10.1097 21.0286 12.7231C20.495 13.0788 19.9751 13.1609 20.2898 12.2442C21.6306 8.42682 26.1321 1.28464 26.1321 1.28464C26.5973 0.573155 27.0488 0.231097 27.5414 0.0669088Z" fill="#E4032E"/>
<path d="M13.8179 3.72012C13.7358 3.78853 17.3205 0.792096 21.0969 2.47502C21.8631 2.70762 21.9999 3.20019 21.6989 4.02113C20.7822 6.53868 17.5121 13.1883 14.5293 17.9361C14.242 18.5107 13.8315 18.8528 13.6537 17.8813C12.9011 13.8998 13.2295 5.47145 13.2295 5.47145C13.2569 4.63683 13.4758 4.10322 13.8179 3.72012Z" fill="#E4032E"/>
<path d="M3.76089 13.7492C3.71985 13.8587 5.33436 9.46667 9.43906 9.04252C10.219 8.86465 10.5884 9.22039 10.7252 10.0824C11.1904 12.7231 11.683 20.1115 11.4777 25.7213C11.5188 26.3644 11.3272 26.8569 10.6978 26.1181C8.05715 23.0532 4.13032 15.5827 4.13032 15.5827C3.71985 14.8301 3.65143 14.2555 3.76089 13.7492Z" fill="#E4032E"/>
<path d="M0.0669393 27.459C0.0943039 27.5684 -0.712954 22.9575 2.62554 20.5357C3.21388 19.9884 3.70644 20.1252 4.25373 20.7957C5.97771 22.848 10.1098 29.0051 12.7231 33.9718C13.0788 34.5054 13.1609 35.0253 12.2442 34.7106C8.42685 33.356 1.28467 28.8682 1.28467 28.8682C0.573186 28.4167 0.231127 27.9515 0.0669393 27.459Z" fill="#E4032E"/>
<path d="M3.71978 41.1823C3.78819 41.2644 0.79176 37.6796 2.47469 33.9033C2.70729 33.1371 3.19985 33.0003 4.02079 33.3013C6.53834 34.218 13.188 37.4881 17.9357 40.4708C18.5104 40.7582 18.8524 41.1686 17.881 41.3465C13.8994 42.099 5.47112 41.7707 5.47112 41.7707C4.6365 41.757 4.10289 41.5244 3.71978 41.1823Z" fill="#E4032E"/>
<path d="M13.7494 51.2388C13.8588 51.2799 9.4668 49.6654 9.02897 45.5607C8.8511 44.7808 9.20684 44.425 10.0688 44.2745C12.7095 43.8093 20.098 43.3167 25.7077 43.522C26.3508 43.4809 26.8434 43.6725 26.1045 44.3019C23.0397 46.9426 15.5691 50.8694 15.5691 50.8694C14.8303 51.2799 14.2556 51.3483 13.7494 51.2388Z" fill="#E4032E"/>
<path d="M27.4724 54.9331C27.5819 54.9057 22.9709 55.713 20.5492 52.3745C20.0019 51.7861 20.1387 51.2936 20.8091 50.7463C22.8615 49.0223 29.0185 44.8902 33.9852 42.2769C34.5188 41.9212 35.0388 41.8391 34.7241 42.7558C33.3832 46.5732 28.8817 53.7154 28.8817 53.7154C28.4165 54.4268 27.9513 54.7826 27.4724 54.9331Z" fill="#E4032E"/>
<path d="M41.1816 51.2799C41.2637 51.2115 37.6789 54.2079 33.9026 52.525C33.1364 52.2924 32.9995 51.7998 33.3005 50.9789C34.2173 48.4613 37.4873 41.8117 40.4701 37.0639C40.7574 36.4893 41.1679 36.1472 41.3458 37.1187C42.0983 41.1002 41.7699 49.5286 41.7699 49.5286C41.7562 50.3632 41.5236 50.8968 41.1816 51.2799Z" fill="#E4032E"/>
<path d="M51.2389 41.2507C51.2799 41.1413 49.6654 45.5333 45.5607 45.9575C44.7808 46.1353 44.425 45.7796 44.2745 44.9176C43.8093 42.2769 43.3168 34.8884 43.522 29.2787C43.481 28.6356 43.6725 28.1431 44.3019 28.8819C46.9426 31.9467 50.8694 39.4173 50.8694 39.4173C51.2799 40.1835 51.3483 40.7445 51.2389 41.2507Z" fill="#E4032E"/>
<path d="M54.9332 27.541C54.9058 27.4316 55.7131 32.0425 52.3746 34.4643C51.7863 35.0116 51.2937 34.8747 50.7464 34.2043C49.0224 32.152 44.8904 25.9949 42.277 21.0282C41.9213 20.4946 41.8392 19.9747 42.7559 20.2894C46.5733 21.6302 53.7155 26.1317 53.7155 26.1317C54.427 26.5969 54.7827 27.0485 54.9332 27.541Z" fill="#E4032E"/>
<path d="M51.2791 13.8177C51.2107 13.7356 54.2072 17.3204 52.5242 21.0967C52.2916 21.8629 51.7991 21.9997 50.9781 21.6987C48.4606 20.782 41.811 17.5119 37.0632 14.5292C36.4885 14.2419 36.1465 13.8314 37.1179 13.6535C41.0995 12.901 49.5278 13.2294 49.5278 13.2294C50.3761 13.2567 50.896 13.4756 51.2791 13.8177Z" fill="#E4032E"/>
</svg>
