<svg width="25" height="25" viewBox="0 0 25 25" fill="none" xmlns="http://www.w3.org/2000/svg">
<rect x="12.9989" width="16.9717" height="16.9717" transform="rotate(45 12.9989 0)" fill="#006BB4"/>
<path d="M17.7941 13.5089C18.0156 14.0882 18.0009 14.7144 17.7499 15.2937C17.5145 15.8369 16.7588 16.6043 16.2734 16.8436C15.3728 17.3603 14.2212 17.6578 13.0253 17.6578C12.4495 17.6578 11.8736 17.5951 11.2978 17.4542H11.2683L10.914 17.3603C8.18742 16.5315 8.05575 15.1676 8.04968 14.37C8.04968 13.916 8.18256 13.4463 8.44832 13.0236C8.62549 12.7418 8.9946 12.6635 9.26036 12.8514C9.52612 13.0392 9.59994 13.4306 9.42277 13.7124C9.2013 14.0569 9.15701 14.4013 9.28989 14.7457C9.54088 15.4189 10.3972 15.9982 11.5193 16.28H11.5488C13.5273 16.7654 15.8305 16.1861 16.5687 15.0119C16.7902 14.6831 16.8345 14.3387 16.7016 13.9942C16.4506 13.321 15.5943 12.7418 14.4722 12.46L11.977 11.8494C10.6777 11.5206 9.73282 10.8161 9.39324 9.90802C9.15701 9.28177 9.23083 8.62422 9.59994 8.02929C10.4563 6.66721 12.7595 6.00966 14.8265 6.51065C16.052 6.80812 17.3512 7.63789 17.3512 9.0939C17.3512 9.43833 17.0855 9.72014 16.7606 9.72014C16.4358 9.72014 16.1701 9.43833 16.1701 9.0939C16.1701 8.35807 15.299 7.90404 14.5608 7.71617C12.8186 7.29346 11.0911 7.88839 10.5744 8.7025C10.4267 8.953 10.3972 9.18784 10.4858 9.43833C10.6482 9.82974 11.1797 10.3464 12.2428 10.6125L14.7379 11.2231C16.2734 11.5989 17.3955 12.4286 17.7941 13.5089Z" fill="white"/>
</svg>
