<svg width="36" height="42" viewBox="0 0 36 42" fill="none" xmlns="http://www.w3.org/2000/svg">
<path d="M35.4338 26.5992C36.2391 28.7495 36.1854 31.0742 35.2727 33.2245C34.4168 35.2409 31.669 38.0896 29.904 38.978C26.629 40.8958 22.4414 42 18.0927 42C15.9989 42 13.9051 41.7675 11.8113 41.2445H11.7039L10.4154 40.8958C0.50086 37.8193 0.0220687 32.7563 0 29.7956C0 28.1103 0.483188 26.3668 1.44956 24.7976C2.09381 23.7516 3.436 23.461 4.40238 24.1584C5.36875 24.8558 5.63719 26.3087 4.99294 27.3548C4.18763 28.6333 4.02657 29.9119 4.50975 31.1904C5.42244 33.6894 8.53632 35.8397 12.6166 36.8858H12.7239C19.9181 38.6874 28.2933 36.5371 30.9777 32.1784C31.783 30.9579 31.9441 29.6794 31.4609 28.4008C30.5482 25.9018 27.4343 23.7516 23.3541 22.7055L14.2809 20.4389C9.55638 19.2185 6.12038 16.6033 4.88557 13.2326C4.02657 10.9079 4.295 8.46704 5.63719 6.25863C8.75107 1.20253 17.1263 -1.23834 24.6426 0.621371C29.0986 1.72558 33.8231 4.80573 33.8231 10.2105C33.8231 11.4891 32.8568 12.5352 31.6756 12.5352C30.4945 12.5352 29.5281 11.4891 29.5281 10.2105C29.5281 7.47906 26.3606 5.7937 23.6762 5.09631C17.3411 3.52717 11.0596 5.73558 9.18057 8.75762C8.64369 9.68748 8.53632 10.5592 8.85844 11.4891C9.449 12.942 11.3818 14.8598 15.2473 15.8478L24.3204 18.1143C29.9039 19.5091 33.9842 22.5892 35.4338 26.5992Z" fill="#006BB4" fill-opacity="0.2"/>
</svg>
