<svg width="120" height="27" viewBox="0 0 120 27" fill="none" xmlns="http://www.w3.org/2000/svg">
<path d="M35.6574 14.7599L35.1373 12.841H32.7701L32.232 14.7599H29.542L32.7521 4.75293H35.4242L38.455 14.7599H35.6574ZM34.1868 9.03909C34.0792 8.62661 34.0075 8.07067 34.0075 7.69406C33.9716 8.07067 33.882 8.59074 33.7385 9.23636L33.3439 10.8683H34.6352L34.1868 9.03909Z" fill="#B10E18"/>
<path d="M45.6826 8.98452C45.5929 8.98452 45.5032 8.98452 45.4315 8.94865C45.5391 9.03832 45.7902 9.41493 45.7902 9.84534C45.7902 11.2621 44.3734 12.1229 42.7414 12.1229H41.9344C41.8448 12.2305 41.773 12.2843 41.773 12.374C41.773 12.5175 42.042 12.6071 42.4366 12.6071H43.5126C45.2701 12.6071 46.2206 13.4321 46.2206 14.7412C46.2206 16.427 44.9652 17.6465 42.2034 17.6465C39.7645 17.6465 38.814 16.696 38.814 15.6917C38.814 15.3689 38.8498 14.9923 38.9216 14.7233H41.1633C41.1453 14.8668 41.1453 15.0461 41.1453 15.1716C41.1453 15.6021 41.5578 15.7993 42.4007 15.7993C43.2795 15.7993 43.7278 15.4227 43.7278 14.9923C43.7278 14.4543 43.4409 14.3646 42.3828 14.3646H41.0736C39.8721 14.3646 39.1368 13.8625 39.1368 12.9299C39.1368 12.4099 39.4416 11.818 40.0514 11.549C39.334 11.1724 38.9933 10.5447 38.9933 9.666C38.9933 8.10577 40.3204 7.11941 42.3828 7.11941C43.6381 7.11941 43.943 7.44222 44.6066 7.44222C45.1446 7.44222 45.557 7.22701 45.8798 6.95801L46.5613 8.69758C46.3461 8.85898 46.0054 8.98452 45.6826 8.98452ZM42.3648 8.87691C41.8268 8.87691 41.504 9.14592 41.504 9.7198C41.504 10.2578 41.8089 10.5447 42.3469 10.5447C42.9029 10.5447 43.2436 10.2937 43.2436 9.7198C43.2436 9.14592 42.9208 8.87691 42.3648 8.87691Z" fill="#B10E18"/>
<path d="M51.5655 9.37938C51.3145 9.23591 51.1172 9.18211 50.8303 9.18211C50.3998 9.18211 50.1308 9.41524 49.9515 9.72011V14.7773H47.4587V10.2581C47.4587 9.30764 47.4229 8.3751 47.2256 7.5681L49.5211 7.17356C49.5928 7.42463 49.6825 7.74743 49.6825 8.0523C49.9874 7.65777 50.4178 7.1377 51.2069 7.1377C51.5655 7.1377 51.7987 7.20943 52.1394 7.3529L51.5655 9.37938Z" fill="#B10E18"/>
<path d="M55.9244 14.9567C53.8082 14.9567 52.499 13.5579 52.499 11.101C52.499 8.78751 53.8979 7.19141 56.0678 7.19141C57.8971 7.19141 59.4573 8.23156 59.4573 10.8857C59.4573 13.8089 57.6998 14.9567 55.9244 14.9567ZM55.9782 8.91304C55.4581 8.91304 55.207 9.30758 55.207 11.1368C55.207 12.5715 55.2967 13.1992 55.9961 13.1992C56.5879 13.1992 56.7672 12.5715 56.7672 10.7961C56.7672 9.32552 56.552 8.91304 55.9782 8.91304Z" fill="#B10E18"/>
<path d="M64.1909 11.2087H63.3839V14.7596H60.8193V4.77051H64.0833C66.6299 4.77051 68.1184 5.59546 68.1184 7.89097C68.1004 9.36154 67.4548 11.2087 64.1909 11.2087ZM64.2805 6.86875H63.3839V9.16427H64.1371C64.9441 9.16427 65.3207 8.94906 65.3207 7.8551C65.3028 7.03015 64.8903 6.86875 64.2805 6.86875Z" fill="#B10E18"/>
<path d="M72.19 14.9567C70.0738 14.9567 68.7646 13.5579 68.7646 11.101C68.7646 8.78751 70.1635 7.19141 72.3334 7.19141C74.1627 7.19141 75.7229 8.23156 75.7229 10.8857C75.705 13.8089 73.9475 14.9567 72.19 14.9567ZM72.2258 8.91304C71.7058 8.91304 71.4547 9.30758 71.4547 11.1368C71.4547 12.5715 71.5444 13.1992 72.2438 13.1992C72.8356 13.1992 73.0149 12.5715 73.0149 10.7961C73.0149 9.32552 72.8177 8.91304 72.2258 8.91304Z" fill="#B10E18"/>
<path d="M79.2193 14.9568C77.1031 14.9568 77.0672 13.8628 77.0672 12.3923V7.33495C77.0672 6.36653 77.0851 5.21878 76.9775 4.6449L79.4524 4.23242C79.5241 4.68076 79.56 5.32638 79.56 6.07959V11.5673C79.56 12.8765 79.5959 13.2172 80.1697 13.2172C80.2594 13.2172 80.3491 13.1993 80.4208 13.1813L80.8154 14.7236C80.5105 14.8492 79.9187 14.9568 79.2193 14.9568Z" fill="#B10E18"/>
<path d="M82.805 6.81524C82.0338 6.81524 81.3882 6.18756 81.3882 5.41641C81.3882 4.64526 82.0517 4.01758 82.8588 4.01758C83.6478 4.01758 84.2576 4.64526 84.2576 5.41641C84.2576 6.18756 83.612 6.81524 82.805 6.81524ZM81.5855 14.7599V7.47878L84.0782 7.24564V14.7599H81.5855Z" fill="#B10E18"/>
<path d="M88.4016 14.9748C87.0027 14.9748 86.0702 14.6161 86.0702 13.1814V9.00285H85.4604V7.37089H86.0702C86.0702 6.6356 86.0881 6.02586 86.1599 5.54165L88.6347 5.16504C88.545 5.95412 88.563 6.6894 88.563 7.37089H89.9259L89.6031 9.00285H88.563V11.9798C88.563 13.02 88.7064 13.2352 89.3341 13.2352C89.5673 13.2352 89.8004 13.1814 89.9618 13.0917L90.2667 14.5264C89.6569 14.8313 89.0292 14.9748 88.4016 14.9748Z" fill="#B10E18"/>
<path d="M92.6161 15.0287C91.8091 15.0287 91.1455 14.3651 91.1455 13.5581C91.1455 12.769 91.8091 12.1055 92.6161 12.1055C93.4231 12.1055 94.0866 12.769 94.0866 13.5581C94.0866 14.3651 93.4231 15.0287 92.6161 15.0287Z" fill="#040405"/>
<path d="M98.5875 14.9571C96.5251 14.9571 95.2339 13.6479 95.2339 11.1372C95.2339 8.66233 96.561 7.17383 98.7848 7.17383C99.6994 7.17383 100.327 7.44283 101.062 8.05258L99.9146 9.55901C99.6276 9.25414 99.2152 9.021 98.8744 9.021C98.2826 9.021 97.9777 9.34381 97.9777 10.9937C97.9777 12.5001 98.1391 13.1099 98.8565 13.1099C99.4124 13.1099 99.8787 12.8409 100.219 12.4463L101.26 13.9169C100.453 14.688 99.5021 14.9571 98.5875 14.9571Z" fill="#040405"/>
<path d="M105.33 14.9571C103.214 14.9571 101.904 13.5582 101.904 11.1013C101.887 8.78786 103.303 7.17383 105.473 7.17383C107.303 7.17383 108.863 8.21398 108.863 10.8682C108.845 13.8093 107.087 14.9571 105.33 14.9571ZM105.366 8.9134C104.846 8.9134 104.595 9.30794 104.595 11.1372C104.595 12.5719 104.684 13.1996 105.384 13.1996C105.975 13.1996 106.155 12.5719 106.155 10.7964C106.155 9.32587 105.957 8.9134 105.366 8.9134Z" fill="#040405"/>
<path d="M117.615 14.7598V10.1867C117.615 9.20034 117.507 9.14654 117.077 9.14654C116.915 9.14654 116.539 9.27207 116.27 9.43347V14.7777H113.938V10.1688C113.938 9.20034 113.903 9.09273 113.436 9.09273C113.203 9.09273 112.827 9.21827 112.629 9.37967V14.7598H110.208V10.0612C110.208 9.16447 110.172 8.37539 109.975 7.5863L112.271 7.19176C112.342 7.44283 112.396 7.6401 112.414 7.90911C112.934 7.44283 113.58 7.17383 114.207 7.17383C114.997 7.17383 115.481 7.49663 115.875 7.98084C116.467 7.44283 117.131 7.17383 117.991 7.17383C119.032 7.17383 120 7.51457 120 9.36174V14.7598H117.615Z" fill="#040405"/>
<path d="M31.5872 21.6099H30.6008V24.2103H29.9731V21.0898H31.6768L31.5872 21.6099Z" fill="#040405"/>
<path d="M36.0882 24.2289L35.873 23.4936H34.9583L34.7431 24.2289H34.0796L35.1018 21.1084H35.7833L36.7696 24.2289H36.0882ZM35.7116 22.9735C35.6219 22.6507 35.5681 22.5072 35.5322 22.3458C35.4963 22.1844 35.4605 22.0948 35.4067 21.8078C35.3529 21.9872 35.2991 22.2562 35.2632 22.3996C35.1735 22.7045 35.1556 22.8121 35.1018 22.9735H35.7116Z" fill="#040405"/>
<path d="M40.4279 21.1078C40.8045 21.1078 41.0018 21.1795 41.1452 21.2512C41.4322 21.4127 41.5936 21.6996 41.5936 22.0583C41.5936 22.3093 41.5218 22.7397 41.0556 22.9549C40.8942 23.0446 40.7507 23.0626 40.4279 23.0626H40.0872V24.2103H39.4595V21.0898H40.4279V21.1078ZM40.41 22.5604C40.6969 22.5604 40.7686 22.5066 40.8224 22.399C40.8583 22.3452 40.8942 22.2555 40.8942 22.0762C40.8942 21.9148 40.8404 21.8072 40.7866 21.7355C40.7507 21.6817 40.6431 21.592 40.4638 21.592H40.0692V22.5425H40.41V22.5604Z" fill="#040405"/>
<path d="M46.5433 24.2289H45.9156V22.9556H45.6466C45.521 22.9556 45.4134 23.0094 45.3417 23.0632C45.2879 23.117 45.2162 23.2425 45.1982 23.3322L45.1265 23.655C45.0906 23.7985 45.0548 23.9419 44.983 24.0316C44.8754 24.1751 44.6961 24.193 44.6064 24.2109L44.2477 24.2468L44.1401 23.8164L44.2298 23.7985C44.2836 23.7805 44.3733 23.7447 44.4091 23.7267C44.4988 23.6729 44.5347 23.5833 44.5526 23.4936L44.6602 23.1349C44.6961 23.0094 44.7499 22.9018 44.8396 22.8121C44.9113 22.7583 45.0189 22.7045 45.0906 22.6686C44.9113 22.6328 44.7499 22.5431 44.6423 22.4355C44.5167 22.31 44.4629 22.1127 44.4629 21.9154C44.4629 21.6823 44.5705 21.4491 44.7499 21.3057C44.983 21.1263 45.252 21.1084 45.4852 21.1084H46.5612V24.2289H46.5433ZM45.5569 21.6105C45.4672 21.6105 45.3596 21.6105 45.27 21.6643C45.1982 21.7002 45.0906 21.8078 45.0906 22.0051C45.0906 22.1127 45.1086 22.2382 45.1803 22.3279C45.27 22.4534 45.4314 22.4534 45.5031 22.4534H45.8976V21.6105H45.5569Z" fill="#040405"/>
<path d="M50.9375 24.2285V22.9373C50.7044 23.0449 50.4533 23.0807 50.2919 23.0807C50.1484 23.0807 49.8794 23.0628 49.6821 22.8655C49.5028 22.6862 49.4849 22.471 49.4849 22.3455V21.126H50.1125V22.0944C50.1125 22.1841 50.1125 22.3634 50.2022 22.4531C50.2919 22.5786 50.4354 22.5965 50.5071 22.5965C50.6326 22.5965 50.7402 22.5786 50.9375 22.5069V21.126H51.5652V24.2464H50.9375V24.2285Z" fill="#040405"/>
<path d="M56.2817 24.2289L56.0665 23.4936H55.1518L54.9366 24.2289H54.291L55.3132 21.1084H55.9947L56.9811 24.2289H56.2817ZM55.923 22.9735C55.8333 22.6507 55.7795 22.5072 55.7436 22.3458C55.7078 22.1844 55.6719 22.0948 55.6181 21.8078C55.5643 21.9872 55.5105 22.2562 55.4746 22.3996C55.385 22.7045 55.367 22.8121 55.3132 22.9735H55.923Z" fill="#040405"/>
<path d="M64.7108 24.2289L64.4956 23.4936H63.581L63.3658 24.2289H62.7202L63.7424 21.1084H64.4239L65.4103 24.2289H64.7108ZM64.3342 22.9735C64.2446 22.6507 64.1908 22.5072 64.1549 22.3458C64.119 22.1844 64.0832 22.0948 64.0294 21.8078C63.9756 21.9872 63.9218 22.2562 63.8859 22.3996C63.7962 22.7045 63.7783 22.8121 63.7245 22.9735H64.3342Z" fill="#040405"/>
<path d="M69.6946 21.6099H68.7083V24.2103H68.0806V21.0898H69.7843L69.6946 21.6099Z" fill="#040405"/>
<path d="M73.5163 21.1078C73.8929 21.1078 74.0901 21.1795 74.2336 21.2512C74.5206 21.4127 74.682 21.6996 74.682 22.0583C74.682 22.3093 74.6102 22.7397 74.144 22.9549C73.9825 23.0446 73.8391 23.0626 73.5163 23.0626H73.1755V24.2103H72.5479V21.0898H73.5163V21.1078ZM73.4983 22.5604C73.7853 22.5604 73.857 22.5066 73.9108 22.399C73.9467 22.3452 73.9825 22.2555 73.9825 22.0762C73.9825 21.9148 73.9467 21.8072 73.8929 21.7355C73.857 21.6817 73.7494 21.592 73.5701 21.592H73.1755V22.5425H73.4983V22.5604Z" fill="#040405"/>
<path d="M79.6855 21.4662C79.9366 21.7352 80.0621 22.1656 80.0621 22.6677C80.0621 23.152 79.9187 23.5824 79.6855 23.8693C79.5062 24.0666 79.2013 24.2818 78.7171 24.2818C78.2329 24.2818 77.928 24.0666 77.7487 23.8693C77.4976 23.5824 77.3721 23.1699 77.3721 22.6677C77.3721 22.1656 77.5155 21.7531 77.7487 21.4662C77.928 21.2689 78.2329 21.0537 78.7171 21.0537C79.2013 21.0537 79.5062 21.2689 79.6855 21.4662ZM78.197 21.8607C78.1432 21.9683 78.0715 22.1656 78.0715 22.6677C78.0715 23.152 78.1432 23.3492 78.197 23.4568C78.2688 23.6182 78.4122 23.7796 78.6992 23.7796C79.004 23.7796 79.1296 23.6003 79.2013 23.4568C79.2551 23.3313 79.3268 23.152 79.3268 22.6677C79.3268 22.1656 79.2551 21.9863 79.2013 21.8607C79.1475 21.7531 79.022 21.5379 78.6992 21.5379C78.3943 21.5379 78.2508 21.7531 78.197 21.8607Z" fill="#040405"/>
<path d="M84.4553 24.2289V21.6285H83.5945V24.2289H82.9668V21.1084H85.083V24.2289H84.4553Z" fill="#040405"/>
<path d="M90.3193 21.4662C90.5704 21.7352 90.6959 22.1656 90.6959 22.6677C90.6959 23.152 90.5524 23.5824 90.3193 23.8693C90.14 24.0666 89.8351 24.2818 89.3509 24.2818C88.8667 24.2818 88.5618 24.0666 88.3825 23.8693C88.1314 23.5824 88.0059 23.1699 88.0059 22.6677C88.0059 22.1656 88.1493 21.7531 88.3825 21.4662C88.5618 21.2689 88.8667 21.0537 89.3509 21.0537C89.8351 21.0537 90.14 21.2689 90.3193 21.4662ZM88.8487 21.8607C88.7949 21.9683 88.7232 22.1656 88.7232 22.6677C88.7232 23.152 88.7949 23.3492 88.8487 23.4568C88.9205 23.6182 89.0639 23.7796 89.3509 23.7796C89.6558 23.7796 89.7813 23.6003 89.853 23.4568C89.9068 23.3313 89.9786 23.152 89.9786 22.6677C89.9786 22.1656 89.9068 21.9863 89.853 21.8607C89.7992 21.7531 89.6737 21.5379 89.3509 21.5379C89.0281 21.5379 88.9025 21.7531 88.8487 21.8607Z" fill="#040405"/>
<path d="M95.0906 24.2285V21.6281H94.5167L94.4988 22.0944C94.4988 22.3275 94.4629 22.9373 94.3912 23.3856C94.3553 23.6008 94.3015 23.834 94.1581 23.9954C93.9966 24.1747 93.7635 24.2106 93.5842 24.2464L93.3869 24.2823L93.2793 23.834L93.351 23.816C93.4407 23.7981 93.4945 23.7802 93.5842 23.7084C93.638 23.6726 93.7276 23.6008 93.7635 23.4753C93.7814 23.4215 93.8352 23.296 93.8532 22.9552C93.907 22.5069 93.9249 21.9689 93.9249 21.6819L93.9428 21.126H95.7183V24.2464H95.0906V24.2285Z" fill="#040405"/>
<path d="M98.7661 24.2289V21.1084H99.3938V24.2289H98.7661Z" fill="#040405"/>
<path d="M104.327 21.6285H103.592V24.2289H102.946V21.6285H102.193V21.1084H104.435L104.327 21.6285Z" fill="#040405"/>
<path d="M108.683 24.2282V22.6859C108.683 22.5245 108.701 22.2197 108.719 22.0224C108.647 22.2735 108.575 22.399 108.504 22.5604L107.75 24.2103H107.069V21.0898H107.697V22.6321C107.697 22.7935 107.679 23.0984 107.661 23.2957C107.732 23.0446 107.804 22.9191 107.876 22.7577L108.629 21.1078H109.293V24.2282H108.683Z" fill="#040405"/>
<path d="M114.727 21.4842L114.584 21.5201C114.53 21.538 114.494 21.538 114.44 21.5739C114.386 21.6097 114.351 21.6456 114.315 21.7712L114.225 22.0581C114.189 22.1657 114.153 22.2912 114.064 22.3988C114.01 22.4706 113.92 22.5244 113.812 22.5423C113.938 22.5782 114.01 22.632 114.046 22.6858C114.153 22.7934 114.189 22.9189 114.225 23.0086L114.368 23.4749C114.386 23.5645 114.422 23.6542 114.512 23.708C114.548 23.7259 114.637 23.7618 114.691 23.7797L114.781 23.7977L114.655 24.2281L114.297 24.1922C114.099 24.1743 113.992 24.0846 113.92 24.0129C113.83 23.9053 113.812 23.7797 113.777 23.6363L113.669 23.1879C113.651 23.0982 113.579 22.9548 113.526 22.901C113.436 22.8292 113.31 22.8113 113.221 22.8113H112.988V24.1922H112.36V21.0717H112.988V22.2733H113.257C113.364 22.2733 113.49 22.2374 113.561 22.1836C113.633 22.1119 113.669 22.0043 113.687 21.8967L113.777 21.5021C113.795 21.4125 113.83 21.2869 113.92 21.1793C114.01 21.0897 114.117 21.0538 114.243 21.0359L114.548 21L114.727 21.4842Z" fill="#040405"/>
<path d="M119.266 24.2289L119.05 23.4936H118.136L117.921 24.2289H117.275L118.297 21.1084H118.979L119.965 24.2289H119.266ZM118.889 22.9735C118.799 22.6507 118.745 22.5072 118.71 22.3458C118.674 22.1844 118.638 22.0948 118.584 21.8078C118.53 21.9872 118.476 22.2562 118.441 22.3996C118.351 22.7045 118.333 22.8121 118.279 22.9735H118.889Z" fill="#040405"/>
<path d="M22.3497 3.78418H1.51074V24.623H22.3497V3.78418Z" fill="#B10E18"/>
<path d="M17.8311 9.52247L18.2077 9.75561C18.3333 9.82734 18.4588 9.86321 18.6023 9.86321C18.7995 9.86321 18.9968 9.79148 19.1403 9.64801L23.534 5.27218C23.6954 5.11078 23.7851 4.87764 23.803 4.6445C23.803 4.41136 23.7134 4.17823 23.552 4.01682C23.5161 3.98096 23.4802 3.96302 23.4444 3.92715C23.5878 3.76575 23.6596 3.56848 23.6596 3.35328C23.6596 3.12014 23.5699 2.887 23.4085 2.7256C23.2471 2.56419 23.014 2.47452 22.7808 2.47452C22.5656 2.47452 22.3504 2.54626 22.189 2.68973C22.1711 2.65386 22.1352 2.61799 22.0993 2.58213C21.9379 2.42072 21.7048 2.33105 21.4717 2.33105C21.2385 2.33105 21.0054 2.42072 20.844 2.58213L16.4502 6.95795C16.1992 7.20902 16.1633 7.58563 16.3426 7.8905L16.5758 8.28504C16.5578 8.30298 16.5578 8.30298 16.5399 8.32091L11.7516 13.0913C11.5902 13.2527 11.4826 13.4679 11.4647 13.6831C11.4467 13.9521 11.5364 14.2032 11.7157 14.3825C11.8771 14.5439 12.0923 14.6336 12.3255 14.6336C12.5765 14.6336 12.8276 14.526 13.007 14.3466L17.7953 9.55834C17.7953 9.55834 17.8132 9.5404 17.8311 9.52247ZM12.6303 13.8266C12.5048 13.9521 12.3255 13.97 12.2358 13.8624C12.1282 13.7548 12.1461 13.5755 12.2717 13.4679L17.06 8.67959C17.1855 8.55405 17.3648 8.53612 17.4545 8.64372C17.5621 8.75132 17.5442 8.93066 17.4186 9.03826L12.6303 13.8266ZM16.9882 7.31662L17.5442 6.74275C17.598 6.68894 17.6877 6.68894 17.7235 6.74275L17.7415 6.76068L18.1539 7.44216C18.1898 7.49596 18.1719 7.5677 18.136 7.60356L17.58 8.19538C17.5262 8.24918 17.4366 8.24918 17.4007 8.19538L17.3828 8.17744L16.9703 7.49596C16.9344 7.44216 16.9344 7.37043 16.9882 7.31662ZM18.0463 6.25854L18.6023 5.68466C18.6561 5.63086 18.7457 5.63086 18.7816 5.68466L18.7995 5.70259L19.212 6.38407C19.2479 6.43787 19.23 6.50961 19.1941 6.54548L18.6381 7.11935C18.5843 7.17315 18.4947 7.17315 18.4588 7.11935L18.4409 7.10142L18.0284 6.41994C17.9925 6.36614 18.0105 6.2944 18.0463 6.25854ZM21.4896 6.41994L20.9157 6.97588C20.8799 7.01175 20.8081 7.02969 20.7543 6.99382L20.0728 6.58134C20.0549 6.58134 20.0549 6.56341 20.0549 6.56341C20.0011 6.50961 20.0011 6.43787 20.0549 6.38407L20.6288 5.82813C20.6646 5.79226 20.7364 5.77433 20.7902 5.81019L21.4717 6.22267C21.4896 6.22267 21.4896 6.2406 21.4896 6.2406C21.5255 6.2944 21.5434 6.36614 21.4896 6.41994ZM18.9789 7.63943C18.9251 7.58563 18.9251 7.5139 18.9789 7.46009L19.5528 6.90415C19.5886 6.86828 19.6604 6.85035 19.7142 6.88622L20.3956 7.29869C20.4136 7.29869 20.4136 7.31662 20.4136 7.31662C20.4674 7.37043 20.4674 7.44216 20.4136 7.49596L19.8397 8.05191C19.8038 8.08777 19.7321 8.10571 19.6783 8.06984L18.9968 7.65736C18.9968 7.65736 18.9789 7.65736 18.9789 7.63943ZM21.7227 3.29947L20.3777 4.6445L20.2522 4.4293C20.2342 4.39343 20.1984 4.35756 20.1625 4.3217C20.1446 4.30376 20.1087 4.28583 20.0908 4.26789C20.0728 4.26789 20.0728 4.24996 20.0549 4.24996L21.3641 2.9408C21.4717 2.8332 21.6331 2.8332 21.7227 2.9408C21.8303 3.0484 21.8303 3.20981 21.7227 3.29947ZM17.9029 8.51818L18.4767 7.96224C18.5126 7.92637 18.5843 7.90844 18.6381 7.9443L19.3196 8.35678C19.3376 8.35678 19.3376 8.37471 19.3376 8.37471C19.3914 8.42851 19.3914 8.50025 19.3376 8.55405L18.7637 9.10999C18.7278 9.14586 18.6561 9.1638 18.6023 9.12793L17.9208 8.71545C17.9029 8.71545 17.9029 8.69752 17.9029 8.69752C17.8491 8.66165 17.8491 8.57198 17.9029 8.51818ZM23.1754 4.73417L21.8662 6.04333C21.8662 6.0254 21.8483 6.0254 21.8483 6.00746C21.8303 5.9716 21.8124 5.95366 21.7945 5.93573C21.7586 5.89986 21.7227 5.88193 21.6869 5.84606L21.4717 5.72052L22.8167 4.3755C22.9243 4.26789 23.0857 4.26789 23.1754 4.3755C23.265 4.4831 23.265 4.6445 23.1754 4.73417ZM22.6553 3.08427C22.7629 2.97667 22.9243 2.97667 23.014 3.08427C23.1216 3.19187 23.1216 3.35328 23.014 3.44294L21.0413 5.41565C21.0233 5.43359 21.0054 5.43359 20.9875 5.45152C20.9157 5.39772 20.8261 5.37978 20.7364 5.37978C20.7364 5.29012 20.7005 5.20045 20.6646 5.12871V5.11078C20.6826 5.09285 20.6826 5.07491 20.7005 5.05698L22.6553 3.08427ZM19.1223 5.18251L19.6783 4.60864C19.7321 4.55483 19.8218 4.55483 19.8576 4.60864L19.8756 4.62657L20.288 5.30805C20.3239 5.36185 20.306 5.43359 20.2701 5.46945L19.7142 6.04333C19.6604 6.09713 19.5707 6.09713 19.5348 6.04333L19.5169 6.0254L19.1044 5.34392C19.0685 5.29012 19.0685 5.23631 19.1223 5.18251Z" fill="#040405"/>
<path d="M21.7235 2.94105C21.6159 2.83345 21.4545 2.83345 21.3648 2.94105L20.0557 4.25021C20.0736 4.25021 20.0736 4.26815 20.0915 4.26815C20.1274 4.28608 20.1453 4.30401 20.1633 4.32195C20.1991 4.35782 20.2171 4.39368 20.2529 4.42955L20.3785 4.64475L21.7235 3.29973C21.8311 3.21006 21.8311 3.04866 21.7235 2.94105Z" fill="white"/>
<path d="M23.1749 4.37562C23.0673 4.26802 22.9059 4.26802 22.8162 4.37562L21.4712 5.72065L21.6864 5.84619C21.7223 5.86412 21.7581 5.89999 21.794 5.93586C21.8119 5.95379 21.8299 5.98966 21.8478 6.00759C21.8478 6.02553 21.8657 6.02553 21.8657 6.04346L23.1749 4.7343C23.2646 4.64463 23.2646 4.48323 23.1749 4.37562Z" fill="white"/>
<path d="M20.6833 5.05732C20.6654 5.07525 20.6654 5.09318 20.6475 5.11112V5.12905C20.7013 5.20079 20.7192 5.29045 20.7192 5.38012C20.8089 5.38012 20.8985 5.41599 20.9703 5.45186C20.9882 5.43392 21.0061 5.43392 21.0241 5.41599L22.9968 3.44328C23.1044 3.33568 23.1044 3.17428 22.9968 3.08461C22.8892 2.97701 22.7278 2.97701 22.6381 3.08461L20.6833 5.05732Z" fill="white"/>
<path d="M17.9401 8.73406L18.6216 9.14653C18.6754 9.1824 18.7471 9.16447 18.783 9.1286L19.3569 8.57266C19.4107 8.51885 19.4107 8.42919 19.3569 8.39332L19.339 8.37539L18.6575 7.96291C18.6037 7.92704 18.5319 7.94498 18.4961 7.98084L17.9222 8.53679C17.8684 8.59059 17.8684 8.68026 17.9222 8.71613C17.9222 8.71613 17.9222 8.71613 17.9401 8.73406Z" fill="white"/>
<path d="M17.3828 8.17782C17.3828 8.19575 17.4008 8.19575 17.4008 8.19575C17.4546 8.24955 17.5263 8.24955 17.5801 8.19575L18.1361 7.62187C18.1719 7.586 18.1899 7.51427 18.154 7.46047L17.7595 6.77899C17.7595 6.76105 17.7415 6.76105 17.7415 6.76105C17.6877 6.70725 17.616 6.70725 17.5622 6.76105L17.0062 7.33493C16.9704 7.3708 16.9524 7.44253 16.9883 7.49634L17.3828 8.17782Z" fill="white"/>
<path d="M19.8401 8.05243L20.414 7.49648C20.4678 7.44268 20.4678 7.35301 20.414 7.31715L20.3961 7.29921L19.7146 6.88674C19.6608 6.85087 19.5891 6.8688 19.5532 6.90467L18.9793 7.46062C18.9255 7.51442 18.9255 7.60409 18.9793 7.63995L18.9972 7.65789L19.6787 8.07036C19.7325 8.10623 19.8043 8.10623 19.8401 8.05243Z" fill="white"/>
<path d="M18.4413 7.10164C18.4413 7.11958 18.4592 7.11958 18.4592 7.11958C18.513 7.17338 18.5848 7.17338 18.6386 7.11958L19.1945 6.5457C19.2304 6.50983 19.2483 6.4381 19.2125 6.3843L18.8 5.70282C18.8 5.68488 18.782 5.68488 18.782 5.68488C18.7282 5.63108 18.6565 5.63108 18.6027 5.68488L18.0468 6.25876C18.0109 6.29463 17.993 6.36636 18.0288 6.42016L18.4413 7.10164Z" fill="white"/>
<path d="M21.4552 6.22304L20.7737 5.81057C20.7199 5.7747 20.6481 5.79263 20.6123 5.8285L20.0384 6.38445C19.9846 6.43825 19.9846 6.52791 20.0384 6.56378L20.0563 6.58172L20.7378 6.99419C20.7916 7.03006 20.8633 7.01213 20.8992 6.97626L21.4731 6.42031C21.5269 6.36651 21.5269 6.27684 21.4731 6.24098C21.4731 6.24098 21.4731 6.22304 21.4552 6.22304Z" fill="white"/>
<path d="M19.5175 6.04403C19.5175 6.06196 19.5354 6.06196 19.5354 6.06196C19.5892 6.11576 19.6609 6.11576 19.7147 6.06196L20.2707 5.48808C20.3066 5.45222 20.3245 5.38048 20.2886 5.32668L19.8761 4.6452C19.8761 4.62726 19.8582 4.62726 19.8582 4.62726C19.8044 4.57346 19.7327 4.57346 19.6789 4.62726L19.1229 5.20114C19.0871 5.23701 19.0691 5.30875 19.105 5.36255L19.5175 6.04403Z" fill="white"/>
<path d="M17.4549 8.6439C17.3473 8.53629 17.1679 8.55423 17.0603 8.67976L12.272 13.4681C12.1465 13.5936 12.1286 13.7729 12.2362 13.8626C12.3438 13.9702 12.5231 13.9523 12.6307 13.8267L17.419 9.03844C17.5446 8.9129 17.5625 8.73356 17.4549 8.6439Z" fill="white"/>
<path d="M26.0997 11.6566C26.1535 11.4235 26.1356 11.1904 26.0101 10.9931C25.8487 10.7241 25.5617 10.5448 25.2389 10.5448C25.0954 10.5448 24.9699 10.5806 24.8444 10.6344C24.8264 10.5986 24.8085 10.5448 24.7906 10.5089C24.6292 10.2399 24.3422 10.0605 24.0194 10.0605C23.858 10.0605 23.7145 10.0964 23.5711 10.1861L18.2089 13.2886C17.904 13.468 17.7605 13.8266 17.8502 14.1674L17.9758 14.5978L14.5504 16.5884C14.3531 16.696 14.1917 16.8754 14.12 17.0906C14.0303 17.3416 14.0483 17.6106 14.1738 17.8258C14.3352 18.0948 14.6222 18.2562 14.945 18.2562C15.1064 18.2562 15.2857 18.2024 15.4292 18.1307L18.8545 16.1221L19.1594 16.4449C19.3028 16.5884 19.5001 16.6781 19.7153 16.6781C19.8409 16.6781 19.9843 16.6422 20.0919 16.5705L25.472 13.468C25.6693 13.3424 25.8307 13.1631 25.8845 12.9299C25.9383 12.6968 25.9204 12.4637 25.7949 12.2664C25.7769 12.2305 25.741 12.1947 25.7231 12.1588C25.9204 12.0512 26.0459 11.8719 26.0997 11.6566ZM20.5941 15.5841L19.8947 15.9787C19.8409 16.0145 19.7691 15.9966 19.7333 15.9607L19.1773 15.3869L19.1594 15.3689C19.1235 15.3151 19.1414 15.2255 19.2132 15.1896L19.9126 14.795C19.9664 14.7592 20.0381 14.7771 20.074 14.813L20.6299 15.3869L20.6479 15.4048C20.6658 15.4586 20.6479 15.5483 20.5941 15.5841ZM15.214 17.521C15.0705 17.6106 14.8912 17.5748 14.8194 17.4492C14.7477 17.3237 14.8194 17.1623 14.9629 17.0726L18.3524 15.0999C18.4958 15.0102 18.6752 15.0461 18.7469 15.1717C18.8186 15.2972 18.7469 15.4586 18.6034 15.5483L15.214 17.521ZM18.6214 13.7728L19.3208 13.3783C19.3925 13.3424 19.4643 13.3603 19.5001 13.4321C19.5001 13.45 19.5181 13.45 19.5181 13.468L19.7333 14.2391C19.7512 14.2929 19.7333 14.3646 19.6795 14.3826L18.98 14.7771C18.9083 14.813 18.8366 14.795 18.8007 14.7233C18.8007 14.7054 18.7828 14.7054 18.7828 14.6874L18.5676 13.9163C18.5496 13.8625 18.5676 13.8087 18.6214 13.7728ZM19.9305 13.0196L20.6299 12.6251C20.7017 12.5892 20.7734 12.6071 20.8093 12.6789C20.8093 12.6968 20.8272 12.6968 20.8272 12.7147L21.0424 13.4859C21.0604 13.5397 21.0424 13.6114 20.9886 13.6294L20.2892 14.0239C20.2175 14.0598 20.1457 14.0418 20.1099 13.9701C20.1099 13.9522 20.0919 13.9522 20.0919 13.9342L19.8767 13.1631C19.8588 13.1093 19.8767 13.0555 19.9305 13.0196ZM23.9835 10.6882C24.1091 10.6165 24.2705 10.6524 24.3422 10.7779C24.414 10.9034 24.3781 11.0648 24.2526 11.1366L22.6027 12.0871L22.5309 11.836C22.513 11.8001 22.495 11.7463 22.4771 11.7104C22.4592 11.6746 22.4412 11.6566 22.4233 11.6387L22.4054 11.6208L23.9835 10.6882ZM20.5223 14.4184L21.2218 14.0239C21.2756 13.988 21.3473 14.006 21.3832 14.0418L21.9391 14.6157L21.957 14.6336C21.9929 14.6874 21.975 14.7771 21.9032 14.813L21.2038 15.2075C21.15 15.2434 21.0783 15.2255 21.0424 15.1896L20.4865 14.6157L20.4685 14.5978C20.4327 14.544 20.4506 14.4543 20.5223 14.4184ZM21.8315 13.6652L22.5309 13.2707C22.5847 13.2348 22.6565 13.2527 22.6923 13.2886L23.2483 13.8625L23.2662 13.8804C23.3021 13.9342 23.2841 14.0239 23.2124 14.0598L22.513 14.4543C22.4592 14.4902 22.3874 14.4722 22.3516 14.4364L21.7956 13.8625L21.7777 13.8446C21.7418 13.7908 21.7598 13.7011 21.8315 13.6652ZM25.472 11.6028L23.051 13.0017C23.0331 13.0196 23.0151 13.0196 22.9972 13.0196L22.9793 13.0017C22.9075 12.9299 22.8358 12.8941 22.7641 12.8582C22.782 12.7685 22.782 12.6789 22.7461 12.5892V12.5713C22.7641 12.5533 22.782 12.5533 22.7999 12.5354L25.221 11.1366C25.3465 11.0648 25.5079 11.1007 25.5796 11.2262C25.6334 11.3697 25.5796 11.5311 25.472 11.6028ZM21.2397 12.2664L21.9391 11.8719C22.0108 11.836 22.0826 11.8539 22.1184 11.9257C22.1184 11.9436 22.1364 11.9436 22.1364 11.9615L22.3516 12.7327C22.3695 12.7865 22.3516 12.8582 22.2978 12.8761L21.5984 13.2707C21.5266 13.3065 21.4549 13.2886 21.419 13.2169C21.419 13.1989 21.4011 13.1989 21.4011 13.181L21.1859 12.4099C21.168 12.3561 21.1859 12.3023 21.2397 12.2664ZM23.6607 13.8087C23.6607 13.7908 23.6607 13.7908 23.6428 13.7728C23.6249 13.737 23.6249 13.719 23.6069 13.6832C23.589 13.6473 23.5531 13.6114 23.5352 13.5756L23.3559 13.3962L25.0058 12.4457C25.1313 12.374 25.2927 12.4099 25.3644 12.5354C25.4362 12.6609 25.4003 12.8223 25.2748 12.8941L23.6607 13.8087Z" fill="#040405"/>
<path d="M22.4245 11.6208C22.4425 11.6388 22.4604 11.6746 22.4783 11.6926C22.4963 11.7284 22.5142 11.7643 22.5321 11.8181L22.6039 12.0692L24.2538 11.1187C24.3793 11.047 24.4152 10.8856 24.3434 10.76C24.2717 10.6345 24.1103 10.5986 23.9848 10.6704L22.3887 11.585C22.4066 11.6029 22.4066 11.6208 22.4245 11.6208Z" fill="white"/>
<path d="M25.3631 12.5354C25.2913 12.4099 25.1299 12.374 25.0044 12.4457L23.3545 13.3962L23.5338 13.5756C23.5697 13.6114 23.5876 13.6473 23.6056 13.6832C23.6235 13.719 23.6414 13.737 23.6414 13.7728C23.6414 13.7908 23.6414 13.7908 23.6594 13.8087L25.2555 12.8941C25.3989 12.8044 25.4348 12.6609 25.3631 12.5354Z" fill="white"/>
<path d="M25.5607 11.2444C25.489 11.1189 25.3276 11.083 25.202 11.1547L22.7989 12.5536C22.781 12.5715 22.7631 12.5715 22.7451 12.5894V12.6074C22.7631 12.697 22.781 12.7867 22.7631 12.8764C22.8527 12.9122 22.9245 12.9481 22.9783 13.0198L22.9962 13.0378C23.0141 13.0378 23.0321 13.0198 23.05 13.0198L25.471 11.621C25.5786 11.5313 25.6324 11.3699 25.5607 11.2444Z" fill="white"/>
<path d="M20.6125 15.3692L20.0566 14.7953C20.0207 14.7594 19.949 14.7415 19.8952 14.7774L19.1958 15.1719C19.124 15.2078 19.1061 15.2974 19.142 15.3512C19.142 15.3692 19.1599 15.3692 19.1599 15.3692L19.7338 15.961C19.7696 15.9969 19.8414 16.0148 19.8952 15.9789L20.5946 15.5844C20.6663 15.5485 20.6843 15.4588 20.6484 15.405C20.6305 15.3871 20.6305 15.3871 20.6125 15.3692Z" fill="white"/>
<path d="M18.7835 14.6879C18.7835 14.7058 18.7835 14.7058 18.8014 14.7237C18.8373 14.7775 18.909 14.8134 18.9807 14.7775L19.6801 14.383C19.7339 14.3471 19.7519 14.2933 19.7339 14.2395L19.5187 13.4684C19.5187 13.4504 19.5187 13.4504 19.5008 13.4325C19.4649 13.3787 19.3932 13.3428 19.3215 13.3787L18.6221 13.7732C18.5682 13.8091 18.5503 13.8629 18.5682 13.9167L18.7835 14.6879Z" fill="white"/>
<path d="M20.4875 14.6338L21.0435 15.2077C21.0793 15.2436 21.1511 15.2615 21.2049 15.2256L21.9043 14.8311C21.976 14.7952 21.994 14.7056 21.9581 14.6518C21.9581 14.6338 21.9402 14.6338 21.9402 14.6338L21.3842 14.0599C21.3483 14.0241 21.2766 14.0061 21.2228 14.042L20.5234 14.4366C20.4517 14.4724 20.4337 14.5621 20.4696 14.6159C20.4696 14.6159 20.4875 14.6159 20.4875 14.6338Z" fill="white"/>
<path d="M20.0901 13.9349C20.0901 13.9529 20.0901 13.9529 20.108 13.9708C20.1439 14.0246 20.2156 14.0605 20.2874 14.0246L20.9868 13.6301C21.0406 13.5942 21.0585 13.5404 21.0406 13.4866L20.8254 12.7154C20.8254 12.6975 20.8254 12.6975 20.8074 12.6796C20.7716 12.6258 20.6998 12.5899 20.6281 12.6258L19.9287 13.0203C19.8749 13.0562 19.857 13.11 19.8749 13.1638L20.0901 13.9349Z" fill="white"/>
<path d="M21.7951 13.8623L22.3511 14.4362C22.387 14.4721 22.4587 14.49 22.5125 14.4541L23.2119 14.0596C23.2836 14.0237 23.3016 13.9341 23.2657 13.8803C23.2657 13.8623 23.2478 13.8623 23.2478 13.8623L22.6918 13.2885C22.656 13.2526 22.5842 13.2347 22.5304 13.2705L21.831 13.6651C21.7593 13.7009 21.7413 13.7906 21.7772 13.8444C21.7772 13.8623 21.7951 13.8623 21.7951 13.8623Z" fill="white"/>
<path d="M21.4002 13.181C21.4002 13.199 21.4002 13.199 21.4181 13.2169C21.454 13.2707 21.5257 13.3066 21.5974 13.2707L22.2968 12.8761C22.3506 12.8403 22.3686 12.7865 22.3506 12.7327L22.1354 11.9615C22.1354 11.9436 22.1354 11.9436 22.1175 11.9257C22.0816 11.8719 22.0099 11.836 21.9382 11.8719L21.2387 12.2664C21.1849 12.3023 21.167 12.3561 21.1849 12.4099L21.4002 13.181Z" fill="white"/>
<path d="M18.7462 15.1723C18.6744 15.0468 18.4951 15.0109 18.3516 15.1006L14.9621 17.0733C14.8187 17.163 14.7469 17.3244 14.8187 17.4499C14.8904 17.5754 15.0697 17.6113 15.2132 17.5216L18.6027 15.5489C18.7641 15.4593 18.8179 15.2979 18.7462 15.1723Z" fill="white"/>
<path d="M11.5001 8.1419L11.9305 8.26744C12.0022 8.28537 12.0739 8.3033 12.1457 8.3033C12.4147 8.3033 12.6657 8.15984 12.8092 7.9267L15.9117 2.56452C16.0373 2.36725 16.0552 2.11618 16.0014 1.88304C15.9476 1.6499 15.7862 1.47056 15.5889 1.34503C15.5531 1.32709 15.5172 1.30916 15.4634 1.29123C15.5531 1.09396 15.571 0.878752 15.5172 0.681481C15.4634 0.448343 15.302 0.269006 15.1047 0.14347C14.9792 0.0358674 14.8357 0 14.6743 0C14.3695 0 14.1004 0.14347 13.939 0.394542C13.9032 0.358674 13.8673 0.34074 13.8314 0.322807C13.688 0.251072 13.5445 0.197271 13.3831 0.197271C13.0603 0.197271 12.7734 0.358674 12.6119 0.645613L9.50942 6.00779C9.33008 6.31266 9.38388 6.68927 9.63495 6.94034L9.95776 7.24522C9.95776 7.26315 9.93983 7.26315 9.93983 7.28108L8.09266 10.3298C7.98505 10.5271 7.93125 10.7602 7.96712 10.9754C8.00299 11.2265 8.16439 11.4596 8.3796 11.5852C8.50513 11.6569 8.6486 11.6928 8.81 11.6928C9.13281 11.6928 9.45562 11.5134 9.61702 11.2086L11.4821 8.17777C11.4821 8.15983 11.5001 8.1419 11.5001 8.1419ZM12.0201 2.90526C12.056 2.83353 12.1457 2.81559 12.1995 2.85146C12.2174 2.85146 12.2174 2.86939 12.2174 2.86939L12.7913 3.42534C12.8272 3.46121 12.8451 3.53294 12.8092 3.58674L12.4147 4.28616C12.3788 4.35789 12.2891 4.37582 12.2353 4.33996C12.2174 4.33996 12.2174 4.32202 12.2174 4.32202L11.6435 3.76608C11.6077 3.73021 11.5897 3.65848 11.6256 3.60467L12.0201 2.90526ZM13.2217 0.860818C13.2934 0.735282 13.4548 0.699414 13.5804 0.771149C13.7059 0.842884 13.7418 1.00429 13.67 1.12982L12.7196 2.77972L12.5402 2.60039C12.5043 2.56452 12.4685 2.54659 12.4326 2.52865C12.3967 2.51072 12.3788 2.49278 12.3429 2.49278C12.325 2.49278 12.325 2.49278 12.3071 2.47485L13.2217 0.860818ZM14.226 4.19649L13.8314 4.8959C13.7956 4.9497 13.7418 4.96764 13.688 4.9497L12.9168 4.71656C12.8989 4.71656 12.8989 4.71656 12.881 4.69863C12.8272 4.66276 12.7913 4.59103 12.8272 4.51929L13.2217 3.81988C13.2576 3.76608 13.3114 3.74814 13.3652 3.76608L14.1363 3.98128C14.1542 3.98128 14.1542 3.98128 14.1722 3.99922C14.2439 4.05302 14.2618 4.12475 14.226 4.19649ZM12.1277 6.00779C12.0739 5.97192 12.0381 5.90019 12.0739 5.82845L12.4685 5.12904C12.5043 5.07524 12.5581 5.0573 12.6119 5.07524L13.3831 5.29044C13.401 5.29044 13.401 5.29044 13.419 5.30838C13.4728 5.34424 13.5086 5.41598 13.4728 5.48771L13.0782 6.18713C13.0424 6.24093 12.9886 6.25886 12.9348 6.24093L12.1636 6.02572C12.1457 6.02572 12.1277 6.02572 12.1277 6.00779ZM10.9262 7.37075C11.0517 7.44249 11.0696 7.62182 10.9979 7.76529L9.13281 10.7961C9.04314 10.9396 8.88174 11.0113 8.7562 10.9396C8.63067 10.8678 8.61273 10.6885 8.68447 10.545L10.5496 7.51422C10.6392 7.35282 10.8006 7.29902 10.9262 7.37075ZM11.3207 7.13761L11.7153 6.4382C11.7511 6.3844 11.8049 6.36646 11.8587 6.3844L12.6299 6.5996C12.6478 6.5996 12.6478 6.5996 12.6657 6.61754C12.7196 6.6534 12.7554 6.72514 12.7196 6.79687L12.325 7.49629C12.2891 7.55009 12.2353 7.56802 12.1815 7.55009L11.4104 7.33489C11.3925 7.33489 11.3925 7.33488 11.3745 7.31695C11.3028 7.28108 11.2849 7.20935 11.3207 7.13761ZM15.4275 2.13411L14.495 3.73021L14.4771 3.71228C14.4591 3.69434 14.4233 3.67641 14.4053 3.65848C14.3695 3.64054 14.3336 3.62261 14.2798 3.60467L14.0287 3.53294L14.9792 1.88304C15.0509 1.7575 15.2123 1.72164 15.3379 1.79337C15.4634 1.84717 15.4993 2.00857 15.4275 2.13411ZM14.5129 0.663547C14.5847 0.538011 14.7461 0.502144 14.8716 0.573879C14.9971 0.645613 15.033 0.807017 14.9613 0.932553L13.5624 3.3536C13.5445 3.37154 13.5445 3.38947 13.5266 3.4074H13.5086C13.419 3.38947 13.3293 3.37154 13.2396 3.38947C13.2038 3.2998 13.1679 3.22807 13.0962 3.17427V3.12046C13.0962 3.10253 13.1141 3.0846 13.1141 3.06666L14.5129 0.663547ZM11.2669 4.21442C11.3028 4.14269 11.3925 4.12475 11.4463 4.16062C11.4642 4.16062 11.4642 4.17855 11.4642 4.17855L12.0381 4.7345C12.0739 4.77037 12.0919 4.8421 12.056 4.8959L11.6615 5.59532C11.6256 5.66705 11.5359 5.68498 11.4821 5.64912C11.4642 5.64912 11.4642 5.63118 11.4642 5.63118L10.8903 5.07524C10.8544 5.03937 10.8365 4.96764 10.8724 4.91384L11.2669 4.21442ZM10.5137 5.52358C10.5496 5.45185 10.6392 5.43391 10.693 5.46978C10.711 5.46978 10.711 5.48771 10.711 5.48771L11.2849 6.04366C11.3207 6.07953 11.3387 6.15126 11.3028 6.20506L10.9082 6.90448C10.8724 6.97621 10.7827 6.99414 10.7289 6.95828C10.711 6.95828 10.711 6.94034 10.711 6.94034L10.1371 6.3844C10.1012 6.34853 10.0833 6.2768 10.1192 6.223L10.5137 5.52358Z" fill="#040405"/>
<path d="M12.3264 2.45644C12.3623 2.47437 12.3802 2.47437 12.4161 2.49231C12.4519 2.51024 12.4878 2.54611 12.5237 2.56404L12.703 2.74338L13.6535 1.09348C13.7252 0.967941 13.6894 0.806538 13.5638 0.734803C13.4383 0.663068 13.2769 0.698936 13.2051 0.824472L12.2905 2.42057C12.3085 2.45644 12.3264 2.45644 12.3264 2.45644Z" fill="white"/>
<path d="M15.3389 1.77484C15.2134 1.70311 15.052 1.73897 14.9803 1.86451L14.0298 3.51441L14.2809 3.58614C14.3167 3.60408 14.3705 3.62201 14.4064 3.63995C14.4423 3.65788 14.4602 3.67581 14.4781 3.69375L14.4961 3.71168L15.4286 2.11558C15.5004 2.00798 15.4645 1.84658 15.3389 1.77484Z" fill="white"/>
<path d="M13.0957 3.12097C13.1674 3.1927 13.2212 3.26444 13.2392 3.35411C13.3288 3.33617 13.4185 3.33617 13.5082 3.37204H13.5261C13.544 3.35411 13.544 3.33617 13.562 3.31824L14.9608 0.897188C15.0325 0.771652 14.9967 0.610249 14.8711 0.538514C14.7456 0.466779 14.5842 0.502647 14.5125 0.628183L13.1136 3.04923C13.0957 3.0851 13.0957 3.10303 13.0957 3.12097Z" fill="white"/>
<path d="M11.3759 7.31721C11.3939 7.31721 11.3939 7.33514 11.4118 7.33514L12.183 7.55035C12.2368 7.56828 12.3085 7.55035 12.3264 7.49654L12.721 6.79713C12.7568 6.7254 12.7389 6.65366 12.6672 6.61779C12.6492 6.61779 12.6492 6.59986 12.6313 6.59986L11.8601 6.38465C11.8063 6.36672 11.7346 6.38466 11.7167 6.43846L11.3221 7.13787C11.2863 7.20961 11.3042 7.28134 11.3759 7.31721Z" fill="white"/>
<path d="M10.1381 6.3847L10.712 6.94065L10.7299 6.95858C10.7837 6.99445 10.8734 6.97651 10.9092 6.90478L11.3038 6.20536C11.3396 6.15156 11.3217 6.07983 11.2858 6.04396L10.712 5.48802L10.694 5.47008C10.6402 5.43421 10.5505 5.45215 10.5147 5.52388L10.1201 6.2233C10.0843 6.2771 10.1022 6.34883 10.1381 6.3847Z" fill="white"/>
<path d="M13.0784 6.18697L13.4729 5.48756C13.5088 5.41583 13.4908 5.34409 13.4191 5.30822C13.4012 5.30822 13.4012 5.29029 13.3832 5.29029L12.6121 5.07508C12.5583 5.05715 12.4866 5.07508 12.4686 5.12889L12.0741 5.8283C12.0382 5.90003 12.0562 5.97177 12.1279 6.00764C12.1458 6.00764 12.1458 6.02557 12.1638 6.02557L12.9349 6.24078C12.9887 6.25871 13.0425 6.24078 13.0784 6.18697Z" fill="white"/>
<path d="M10.8914 5.07575L11.4653 5.6317L11.4832 5.64963C11.537 5.6855 11.6267 5.66756 11.6625 5.59583L12.0571 4.89641C12.0929 4.84261 12.075 4.77088 12.0391 4.73501L11.4832 4.197L11.4653 4.17907C11.4115 4.1432 11.3218 4.16113 11.2859 4.23287L10.8914 4.93228C10.8376 4.96815 10.8555 5.03988 10.8914 5.07575Z" fill="white"/>
<path d="M14.1547 3.99963L13.3836 3.76649C13.3298 3.74856 13.258 3.76649 13.2401 3.82029L12.8456 4.51971C12.8097 4.59144 12.8276 4.66318 12.8994 4.69904C12.9173 4.69904 12.9173 4.71698 12.9352 4.71698L13.7064 4.93218C13.7602 4.95011 13.8319 4.93218 13.8499 4.87838L14.2444 4.17897C14.2803 4.10723 14.2623 4.0355 14.1906 3.99963C14.1727 3.99963 14.1727 3.99963 14.1547 3.99963Z" fill="white"/>
<path d="M11.627 3.60513C11.5911 3.65893 11.609 3.73067 11.6449 3.76654L12.2188 4.32248L12.2367 4.34042C12.2905 4.37628 12.3802 4.35835 12.4161 4.28661L12.8106 3.5872C12.8465 3.5334 12.8285 3.46166 12.7927 3.4258L12.2188 2.86985L12.2009 2.85192C12.1471 2.81605 12.0574 2.83398 12.0215 2.90572L11.627 3.60513Z" fill="white"/>
<path d="M8.75582 10.9397C8.88136 11.0115 9.04276 10.9397 9.13243 10.7963L10.9975 7.76546C11.0872 7.62199 11.0513 7.44265 10.9258 7.37092C10.8003 7.29918 10.6389 7.37092 10.5492 7.51439L8.68409 10.5452C8.59442 10.6887 8.63029 10.868 8.75582 10.9397Z" fill="white"/>
<path d="M10.0292 20.8031C9.16838 20.2651 8.25376 19.476 7.41087 18.5435C6.62179 17.6647 5.92238 16.6784 5.4561 15.71C5.38437 16.4632 5.25883 17.3061 5.11536 18.0772C5.09743 18.1489 5.07949 18.2207 5.07949 18.2924C5.06156 18.3283 5.06156 18.3821 5.02569 18.418L5.00776 18.4359C4.98982 18.4718 4.97189 18.4897 4.93602 18.5256L3.68066 19.6554C3.9138 20.1396 4.23661 20.6238 4.64908 21.0721C5.04363 21.5025 5.4561 21.8612 5.90444 22.1482L7.17774 20.9825C7.24947 20.9107 7.32121 20.8749 7.42881 20.8749C8.25376 20.8031 9.20425 20.8031 10.0292 20.8031Z" fill="white"/>
<path d="M4.75781 24.3718L6.89192 25.8782C7.23266 25.7168 7.66307 25.4658 7.89621 25.2506C7.68101 25.125 7.32233 24.9816 7.03539 24.856C6.42565 24.587 5.74417 24.3001 5.22409 23.9414L4.75781 24.3718Z" fill="white"/>
<path d="M4.32801 21.3587C3.8976 20.8745 3.53893 20.3544 3.28785 19.8164L1.44068 21.4484C1.08201 21.7712 0.866805 22.2375 0.830937 22.7217C0.813003 23.2059 0.974407 23.6901 1.29721 24.0488C1.63795 24.4433 2.1401 24.6585 2.67811 24.6585C3.12645 24.6585 3.57479 24.4971 3.91553 24.1922L5.74477 22.5423C5.24263 22.2554 4.75842 21.8429 4.32801 21.3587Z" fill="#B10E18"/>
<path d="M6.33483 12.7148C6.11962 12.7148 5.94029 12.7686 5.83268 12.8762C5.34847 13.3067 5.67128 14.7234 6.71143 16.3375L8.63034 15.6201C8.72001 15.5484 8.84554 15.4946 8.97108 15.4946C9.29389 15.4946 9.68843 15.7277 10.0292 16.1043C10.2444 16.3375 10.4058 16.6065 10.4775 16.8575C10.5851 17.1983 10.4954 17.4135 10.4058 17.5031L9.43736 19.422C10.5313 20.3187 11.6253 20.8747 12.3606 20.8747C12.5758 20.8747 12.7551 20.8209 12.8627 20.7133C13.5083 20.1394 12.7192 17.808 10.7106 15.5663C9.20422 13.8985 7.41085 12.7148 6.33483 12.7148Z" fill="white"/>
<path d="M6.94678 16.7139C7.25165 17.1443 7.59239 17.5926 7.98693 18.023C8.34561 18.4176 8.72222 18.7942 9.11676 19.1349L9.86997 17.6464C9.58303 17.5747 9.26023 17.3774 8.97329 17.0546C8.68635 16.7318 8.52494 16.409 8.48908 16.1221L6.94678 16.7139Z" fill="white"/>
<path d="M11.304 15.0462C9.60031 13.1453 7.66347 11.9258 6.33637 11.9258C5.9239 11.9258 5.56522 12.0513 5.31415 12.2845C4.95548 12.6073 4.81201 13.0735 4.82994 13.6115C4.79407 14.3827 4.66854 16.3375 4.34573 17.9156C4.34573 17.9515 4.3278 17.9694 4.3278 18.0053L0.81279 21.1616C-0.191497 22.0583 -0.281166 23.6186 0.633453 24.6228C1.06386 25.1071 1.67361 25.394 2.31922 25.4299C2.37302 25.4299 2.40889 25.4299 2.46269 25.4299C3.0545 25.4299 3.61045 25.2147 4.05879 24.838L6.62331 26.6494C6.69505 26.7032 6.76678 26.7211 6.85645 26.7211C6.91025 26.7211 6.96405 26.7032 7.01785 26.6852C7.23306 26.5956 8.36288 26.0755 8.72155 25.4837C8.79329 25.3581 8.81122 25.1967 8.77536 25.0533C8.66775 24.6946 8.23734 24.4973 7.34066 24.1207C6.82058 23.9055 6.1929 23.6186 5.74456 23.3316L7.6276 21.6458C9.61824 21.5024 12.2186 21.6638 12.2366 21.6638C12.2724 21.6638 12.3083 21.6638 12.3442 21.6458C12.3621 21.6458 12.3621 21.6458 12.38 21.6458C12.7925 21.6458 13.1512 21.5203 13.4023 21.2872C14.6576 20.1753 13.2588 17.2342 11.304 15.0462ZM7.8966 25.2505C7.66347 25.4657 7.25099 25.6989 6.89232 25.8782L4.75821 24.3718L5.22448 23.9234C5.74456 24.2821 6.42604 24.587 7.03579 24.838C7.32273 24.9636 7.6814 25.125 7.8966 25.2505ZM3.89739 24.1924C3.55665 24.4973 3.12624 24.6587 2.65996 24.6587C2.13988 24.6587 1.63774 24.4435 1.27907 24.049C0.95626 23.6903 0.776923 23.2061 0.81279 22.7219C0.830724 22.2377 1.06386 21.7714 1.42254 21.4486L3.25177 19.7987C3.50285 20.3188 3.86152 20.8568 4.29193 21.341C4.72234 21.8252 5.20655 22.2377 5.70869 22.5425L3.89739 24.1924ZM7.41239 20.8747C7.32272 20.8747 7.23306 20.9285 7.16132 20.9823L5.8701 22.1301C5.43969 21.8431 5.00928 21.4844 4.61474 21.054C4.22019 20.6057 3.87945 20.1215 3.64632 19.6373L4.90167 18.5075C4.93754 18.4895 4.95548 18.4536 4.97341 18.4178L4.99134 18.3998C5.00928 18.364 5.02721 18.3281 5.04514 18.2743C5.06308 18.2026 5.08101 18.1308 5.08101 18.0591C5.24241 17.288 5.35002 16.4451 5.42175 15.6919C5.88803 16.6423 6.58744 17.6466 7.37653 18.5254C8.21941 19.4759 9.13403 20.247 9.99485 20.785C9.20576 20.803 8.25528 20.803 7.41239 20.8747ZM8.48842 16.1402C8.52428 16.4271 8.70362 16.7499 8.97263 17.0728C9.25957 17.3776 9.58237 17.5928 9.86931 17.6646L9.1161 19.1531C8.73949 18.8123 8.36288 18.4536 7.98627 18.0412C7.59173 17.6108 7.25099 17.1624 6.94612 16.732L8.48842 16.1402ZM8.97263 15.925C9.13403 15.925 9.4389 16.0864 9.70791 16.3913C9.88724 16.5885 10.0128 16.8037 10.0666 16.9831C10.1204 17.1445 10.1024 17.2162 10.0845 17.2342C10.0845 17.2342 10.0666 17.2521 10.0307 17.2521C9.86931 17.2521 9.56444 17.0907 9.29543 16.7858C8.91883 16.3554 8.86502 15.9967 8.91883 15.9429C8.93676 15.925 8.95469 15.925 8.97263 15.925ZM12.8822 20.7133C12.7746 20.8209 12.5952 20.8747 12.38 20.8747C11.6447 20.8747 10.5508 20.3188 9.45684 19.4221L10.4253 17.5032C10.5149 17.3956 10.6046 17.1983 10.497 16.8575C10.4253 16.6065 10.2639 16.3375 10.0486 16.1043C9.70791 15.7277 9.29543 15.4946 8.99056 15.4946C8.86502 15.4946 8.73949 15.5305 8.64982 15.6201L6.73091 16.3375C5.69076 14.7055 5.36795 13.3067 5.85216 12.8763C5.95976 12.7687 6.1391 12.7149 6.35431 12.7149C7.43033 12.7149 9.2237 13.8806 10.7301 15.5663C12.7208 17.826 13.5099 20.1394 12.8822 20.7133Z" fill="#040405"/>
<path d="M9.29467 16.768C9.56367 17.0729 9.86855 17.2343 10.0299 17.2343C10.0658 17.2343 10.0838 17.2343 10.0838 17.2164C10.1017 17.1985 10.1196 17.1267 10.0658 16.9653C10.012 16.786 9.88648 16.5708 9.70714 16.3735C9.43814 16.0686 9.13326 15.9072 8.97186 15.9072C8.93599 15.9072 8.91806 15.9072 8.91806 15.9252C8.86426 15.979 8.91806 16.3376 9.29467 16.768Z" fill="#B10E18"/>
<path d="M11.304 15.0462C9.60031 13.1453 7.66347 11.9258 6.33637 11.9258C5.9239 11.9258 5.56522 12.0513 5.31415 12.2845C4.95548 12.6073 4.81201 13.0735 4.82994 13.6115C4.79407 14.3827 4.66854 16.3375 4.34573 17.9156C4.34573 17.9515 4.3278 17.9694 4.3278 18.0053L0.81279 21.1616C-0.191497 22.0583 -0.281166 23.6186 0.633453 24.6228C1.06386 25.1071 1.67361 25.394 2.31922 25.4299C2.37302 25.4299 2.40889 25.4299 2.46269 25.4299C3.0545 25.4299 3.61045 25.2147 4.05879 24.838L6.62331 26.6494C6.69505 26.7032 6.76678 26.7211 6.85645 26.7211C6.91025 26.7211 6.96405 26.7032 7.01785 26.6852C7.23306 26.5956 8.36288 26.0755 8.72155 25.4837C8.79329 25.3581 8.81122 25.1967 8.77536 25.0533C8.66775 24.6946 8.23734 24.4973 7.34066 24.1207C6.82058 23.9055 6.1929 23.6186 5.74456 23.3316L7.6276 21.6458C9.61824 21.5024 12.2186 21.6638 12.2366 21.6638C12.2724 21.6638 12.3083 21.6638 12.3442 21.6458C12.3621 21.6458 12.3621 21.6458 12.38 21.6458C12.7925 21.6458 13.1512 21.5203 13.4023 21.2872C14.6576 20.1753 13.2588 17.2342 11.304 15.0462ZM7.8966 25.2505C7.66347 25.4657 7.25099 25.6989 6.89232 25.8782L4.75821 24.3718L5.22448 23.9234C5.74456 24.2821 6.42604 24.587 7.03579 24.838C7.32273 24.9636 7.6814 25.125 7.8966 25.2505ZM3.89739 24.1924C3.55665 24.4973 3.12624 24.6587 2.65996 24.6587C2.13988 24.6587 1.63774 24.4435 1.27907 24.049C0.95626 23.6903 0.776923 23.2061 0.81279 22.7219C0.830724 22.2377 1.06386 21.7714 1.42254 21.4486L3.25177 19.7987C3.50285 20.3188 3.86152 20.8568 4.29193 21.341C4.72234 21.8252 5.20655 22.2377 5.70869 22.5425L3.89739 24.1924ZM7.41239 20.8747C7.32272 20.8747 7.23306 20.9285 7.16132 20.9823L5.8701 22.1301C5.43969 21.8431 5.00928 21.4844 4.61474 21.054C4.22019 20.6057 3.87945 20.1215 3.64632 19.6373L4.90167 18.5075C4.93754 18.4895 4.95548 18.4536 4.97341 18.4178L4.99134 18.3998C5.00928 18.364 5.02721 18.3281 5.04514 18.2743C5.06308 18.2026 5.08101 18.1308 5.08101 18.0591C5.24241 17.288 5.35002 16.4451 5.42175 15.6919C5.88803 16.6423 6.58744 17.6466 7.37653 18.5254C8.21941 19.4759 9.13403 20.247 9.99485 20.785C9.20576 20.803 8.25528 20.803 7.41239 20.8747ZM8.48842 16.1402C8.52428 16.4271 8.70362 16.7499 8.97263 17.0728C9.25957 17.3776 9.58237 17.5928 9.86931 17.6646L9.1161 19.1531C8.73949 18.8123 8.36288 18.4536 7.98627 18.0412C7.59173 17.6108 7.25099 17.1624 6.94612 16.732L8.48842 16.1402ZM8.97263 15.925C9.13403 15.925 9.4389 16.0864 9.70791 16.3913C9.88724 16.5885 10.0128 16.8037 10.0666 16.9831C10.1204 17.1445 10.1024 17.2162 10.0845 17.2342C10.0845 17.2342 10.0666 17.2521 10.0307 17.2521C9.86931 17.2521 9.56444 17.0907 9.29543 16.7858C8.91883 16.3554 8.86502 15.9967 8.91883 15.9429C8.93676 15.925 8.95469 15.925 8.97263 15.925ZM12.8822 20.7133C12.7746 20.8209 12.5952 20.8747 12.38 20.8747C11.6447 20.8747 10.5508 20.3188 9.45684 19.4221L10.4253 17.5032C10.5149 17.3956 10.6046 17.1983 10.497 16.8575C10.4253 16.6065 10.2639 16.3375 10.0486 16.1043C9.70791 15.7277 9.29543 15.4946 8.99056 15.4946C8.86502 15.4946 8.73949 15.5305 8.64982 15.6201L6.73091 16.3375C5.69076 14.7055 5.36795 13.3067 5.85216 12.8763C5.95976 12.7687 6.1391 12.7149 6.35431 12.7149C7.43033 12.7149 9.2237 13.8806 10.7301 15.5663C12.7208 17.826 13.5099 20.1394 12.8822 20.7133Z" fill="#040405"/>
<path d="M26.0997 11.6566C26.1535 11.4235 26.1356 11.1904 26.0101 10.9931C25.8487 10.7241 25.5617 10.5448 25.2389 10.5448C25.0954 10.5448 24.9699 10.5806 24.8444 10.6344C24.8264 10.5986 24.8085 10.5448 24.7906 10.5089C24.6292 10.2399 24.3422 10.0605 24.0194 10.0605C23.858 10.0605 23.7145 10.0964 23.5711 10.1861L18.2089 13.2886C17.904 13.468 17.7605 13.8266 17.8502 14.1674L17.9758 14.5978L14.5504 16.5884C14.3531 16.696 14.1917 16.8754 14.12 17.0906C14.0303 17.3416 14.0483 17.6106 14.1738 17.8258C14.3352 18.0948 14.6222 18.2562 14.945 18.2562C15.1064 18.2562 15.2857 18.2024 15.4292 18.1307L18.8545 16.1221L19.1594 16.4449C19.3028 16.5884 19.5001 16.6781 19.7153 16.6781C19.8409 16.6781 19.9843 16.6422 20.0919 16.5705L25.472 13.468C25.6693 13.3424 25.8307 13.1631 25.8845 12.9299C25.9383 12.6968 25.9204 12.4637 25.7949 12.2664C25.7769 12.2305 25.741 12.1947 25.7231 12.1588C25.9204 12.0512 26.0459 11.8719 26.0997 11.6566ZM20.5941 15.5841L19.8947 15.9787C19.8409 16.0145 19.7691 15.9966 19.7333 15.9607L19.1773 15.3869L19.1594 15.3689C19.1235 15.3151 19.1414 15.2255 19.2132 15.1896L19.9126 14.795C19.9664 14.7592 20.0381 14.7771 20.074 14.813L20.6299 15.3869L20.6479 15.4048C20.6658 15.4586 20.6479 15.5483 20.5941 15.5841ZM15.214 17.521C15.0705 17.6106 14.8912 17.5748 14.8194 17.4492C14.7477 17.3237 14.8194 17.1623 14.9629 17.0726L18.3524 15.0999C18.4958 15.0102 18.6752 15.0461 18.7469 15.1717C18.8186 15.2972 18.7469 15.4586 18.6034 15.5483L15.214 17.521ZM18.6214 13.7728L19.3208 13.3783C19.3925 13.3424 19.4643 13.3603 19.5001 13.4321C19.5001 13.45 19.5181 13.45 19.5181 13.468L19.7333 14.2391C19.7512 14.2929 19.7333 14.3646 19.6795 14.3826L18.98 14.7771C18.9083 14.813 18.8366 14.795 18.8007 14.7233C18.8007 14.7054 18.7828 14.7054 18.7828 14.6874L18.5676 13.9163C18.5496 13.8625 18.5676 13.8087 18.6214 13.7728ZM19.9305 13.0196L20.6299 12.6251C20.7017 12.5892 20.7734 12.6071 20.8093 12.6789C20.8093 12.6968 20.8272 12.6968 20.8272 12.7147L21.0424 13.4859C21.0604 13.5397 21.0424 13.6114 20.9886 13.6294L20.2892 14.0239C20.2175 14.0598 20.1457 14.0418 20.1099 13.9701C20.1099 13.9522 20.0919 13.9522 20.0919 13.9342L19.8767 13.1631C19.8588 13.1093 19.8767 13.0555 19.9305 13.0196ZM23.9835 10.6882C24.1091 10.6165 24.2705 10.6524 24.3422 10.7779C24.414 10.9034 24.3781 11.0648 24.2526 11.1366L22.6027 12.0871L22.5309 11.836C22.513 11.8001 22.495 11.7463 22.4771 11.7104C22.4592 11.6746 22.4412 11.6566 22.4233 11.6387L22.4054 11.6208L23.9835 10.6882ZM20.5223 14.4184L21.2218 14.0239C21.2756 13.988 21.3473 14.006 21.3832 14.0418L21.9391 14.6157L21.957 14.6336C21.9929 14.6874 21.975 14.7771 21.9032 14.813L21.2038 15.2075C21.15 15.2434 21.0783 15.2255 21.0424 15.1896L20.4865 14.6157L20.4685 14.5978C20.4327 14.544 20.4506 14.4543 20.5223 14.4184ZM21.8315 13.6652L22.5309 13.2707C22.5847 13.2348 22.6565 13.2527 22.6923 13.2886L23.2483 13.8625L23.2662 13.8804C23.3021 13.9342 23.2841 14.0239 23.2124 14.0598L22.513 14.4543C22.4592 14.4902 22.3874 14.4722 22.3516 14.4364L21.7956 13.8625L21.7777 13.8446C21.7418 13.7908 21.7598 13.7011 21.8315 13.6652ZM25.472 11.6028L23.051 13.0017C23.0331 13.0196 23.0151 13.0196 22.9972 13.0196L22.9793 13.0017C22.9075 12.9299 22.8358 12.8941 22.7641 12.8582C22.782 12.7685 22.782 12.6789 22.7461 12.5892V12.5713C22.7641 12.5533 22.782 12.5533 22.7999 12.5354L25.221 11.1366C25.3465 11.0648 25.5079 11.1007 25.5796 11.2262C25.6334 11.3697 25.5796 11.5311 25.472 11.6028ZM21.2397 12.2664L21.9391 11.8719C22.0108 11.836 22.0826 11.8539 22.1184 11.9257C22.1184 11.9436 22.1364 11.9436 22.1364 11.9615L22.3516 12.7327C22.3695 12.7865 22.3516 12.8582 22.2978 12.8761L21.5984 13.2707C21.5266 13.3065 21.4549 13.2886 21.419 13.2169C21.419 13.1989 21.4011 13.1989 21.4011 13.181L21.1859 12.4099C21.168 12.3561 21.1859 12.3023 21.2397 12.2664ZM23.6607 13.8087C23.6607 13.7908 23.6607 13.7908 23.6428 13.7728C23.6249 13.737 23.6249 13.719 23.6069 13.6832C23.589 13.6473 23.5531 13.6114 23.5352 13.5756L23.3559 13.3962L25.0058 12.4457C25.1313 12.374 25.2927 12.4099 25.3644 12.5354C25.4362 12.6609 25.4003 12.8223 25.2748 12.8941L23.6607 13.8087Z" fill="#040405"/>
<path d="M17.8311 9.52247L18.2077 9.75561C18.3333 9.82734 18.4588 9.86321 18.6023 9.86321C18.7995 9.86321 18.9968 9.79148 19.1403 9.64801L23.534 5.27218C23.6954 5.11078 23.7851 4.87764 23.803 4.6445C23.803 4.41136 23.7134 4.17823 23.552 4.01682C23.5161 3.98096 23.4802 3.96302 23.4444 3.92715C23.5878 3.76575 23.6596 3.56848 23.6596 3.35328C23.6596 3.12014 23.5699 2.887 23.4085 2.7256C23.2471 2.56419 23.014 2.47452 22.7808 2.47452C22.5656 2.47452 22.3504 2.54626 22.189 2.68973C22.1711 2.65386 22.1352 2.61799 22.0993 2.58213C21.9379 2.42072 21.7048 2.33105 21.4717 2.33105C21.2385 2.33105 21.0054 2.42072 20.844 2.58213L16.4502 6.95795C16.1992 7.20902 16.1633 7.58563 16.3426 7.8905L16.5758 8.28504C16.5578 8.30298 16.5578 8.30298 16.5399 8.32091L11.7516 13.0913C11.5902 13.2527 11.4826 13.4679 11.4647 13.6831C11.4467 13.9521 11.5364 14.2032 11.7157 14.3825C11.8771 14.5439 12.0923 14.6336 12.3255 14.6336C12.5765 14.6336 12.8276 14.526 13.007 14.3466L17.7953 9.55834C17.7953 9.55834 17.8132 9.5404 17.8311 9.52247ZM12.6303 13.8266C12.5048 13.9521 12.3255 13.97 12.2358 13.8624C12.1282 13.7548 12.1461 13.5755 12.2717 13.4679L17.06 8.67959C17.1855 8.55405 17.3648 8.53612 17.4545 8.64372C17.5621 8.75132 17.5442 8.93066 17.4186 9.03826L12.6303 13.8266ZM16.9882 7.31662L17.5442 6.74275C17.598 6.68894 17.6877 6.68894 17.7235 6.74275L17.7415 6.76068L18.1539 7.44216C18.1898 7.49596 18.1719 7.5677 18.136 7.60356L17.58 8.19538C17.5262 8.24918 17.4366 8.24918 17.4007 8.19538L17.3828 8.17744L16.9703 7.49596C16.9344 7.44216 16.9344 7.37043 16.9882 7.31662ZM18.0463 6.25854L18.6023 5.68466C18.6561 5.63086 18.7457 5.63086 18.7816 5.68466L18.7995 5.70259L19.212 6.38407C19.2479 6.43787 19.23 6.50961 19.1941 6.54548L18.6381 7.11935C18.5843 7.17315 18.4947 7.17315 18.4588 7.11935L18.4409 7.10142L18.0284 6.41994C17.9925 6.36614 18.0105 6.2944 18.0463 6.25854ZM21.4896 6.41994L20.9157 6.97588C20.8799 7.01175 20.8081 7.02969 20.7543 6.99382L20.0728 6.58134C20.0549 6.58134 20.0549 6.56341 20.0549 6.56341C20.0011 6.50961 20.0011 6.43787 20.0549 6.38407L20.6288 5.82813C20.6646 5.79226 20.7364 5.77433 20.7902 5.81019L21.4717 6.22267C21.4896 6.22267 21.4896 6.2406 21.4896 6.2406C21.5255 6.2944 21.5434 6.36614 21.4896 6.41994ZM18.9789 7.63943C18.9251 7.58563 18.9251 7.5139 18.9789 7.46009L19.5528 6.90415C19.5886 6.86828 19.6604 6.85035 19.7142 6.88622L20.3956 7.29869C20.4136 7.29869 20.4136 7.31662 20.4136 7.31662C20.4674 7.37043 20.4674 7.44216 20.4136 7.49596L19.8397 8.05191C19.8038 8.08777 19.7321 8.10571 19.6783 8.06984L18.9968 7.65736C18.9968 7.65736 18.9789 7.65736 18.9789 7.63943ZM21.7227 3.29947L20.3777 4.6445L20.2522 4.4293C20.2342 4.39343 20.1984 4.35756 20.1625 4.3217C20.1446 4.30376 20.1087 4.28583 20.0908 4.26789C20.0728 4.26789 20.0728 4.24996 20.0549 4.24996L21.3641 2.9408C21.4717 2.8332 21.6331 2.8332 21.7227 2.9408C21.8303 3.0484 21.8303 3.20981 21.7227 3.29947ZM17.9029 8.51818L18.4767 7.96224C18.5126 7.92637 18.5843 7.90844 18.6381 7.9443L19.3196 8.35678C19.3376 8.35678 19.3376 8.37471 19.3376 8.37471C19.3914 8.42851 19.3914 8.50025 19.3376 8.55405L18.7637 9.10999C18.7278 9.14586 18.6561 9.1638 18.6023 9.12793L17.9208 8.71545C17.9029 8.71545 17.9029 8.69752 17.9029 8.69752C17.8491 8.66165 17.8491 8.57198 17.9029 8.51818ZM23.1754 4.73417L21.8662 6.04333C21.8662 6.0254 21.8483 6.0254 21.8483 6.00746C21.8303 5.9716 21.8124 5.95366 21.7945 5.93573C21.7586 5.89986 21.7227 5.88193 21.6869 5.84606L21.4717 5.72052L22.8167 4.3755C22.9243 4.26789 23.0857 4.26789 23.1754 4.3755C23.265 4.4831 23.265 4.6445 23.1754 4.73417ZM22.6553 3.08427C22.7629 2.97667 22.9243 2.97667 23.014 3.08427C23.1216 3.19187 23.1216 3.35328 23.014 3.44294L21.0413 5.41565C21.0233 5.43359 21.0054 5.43359 20.9875 5.45152C20.9157 5.39772 20.8261 5.37978 20.7364 5.37978C20.7364 5.29012 20.7005 5.20045 20.6646 5.12871V5.11078C20.6826 5.09285 20.6826 5.07491 20.7005 5.05698L22.6553 3.08427ZM19.1223 5.18251L19.6783 4.60864C19.7321 4.55483 19.8218 4.55483 19.8576 4.60864L19.8756 4.62657L20.288 5.30805C20.3239 5.36185 20.306 5.43359 20.2701 5.46945L19.7142 6.04333C19.6604 6.09713 19.5707 6.09713 19.5348 6.04333L19.5169 6.0254L19.1044 5.34392C19.0685 5.29012 19.0685 5.23631 19.1223 5.18251Z" fill="#040405"/>
<path d="M11.5001 8.1419L11.9305 8.26744C12.0022 8.28537 12.0739 8.3033 12.1457 8.3033C12.4147 8.3033 12.6657 8.15984 12.8092 7.9267L15.9117 2.56452C16.0373 2.36725 16.0552 2.11618 16.0014 1.88304C15.9476 1.6499 15.7862 1.47056 15.5889 1.34503C15.5531 1.32709 15.5172 1.30916 15.4634 1.29123C15.5531 1.09396 15.571 0.878752 15.5172 0.681481C15.4634 0.448343 15.302 0.269006 15.1047 0.14347C14.9792 0.0358674 14.8357 0 14.6743 0C14.3695 0 14.1004 0.14347 13.939 0.394542C13.9032 0.358674 13.8673 0.34074 13.8314 0.322807C13.688 0.251072 13.5445 0.197271 13.3831 0.197271C13.0603 0.197271 12.7734 0.358674 12.6119 0.645613L9.50942 6.00779C9.33008 6.31266 9.38388 6.68927 9.63495 6.94034L9.95776 7.24522C9.95776 7.26315 9.93983 7.26315 9.93983 7.28108L8.09266 10.3298C7.98505 10.5271 7.93125 10.7602 7.96712 10.9754C8.00299 11.2265 8.16439 11.4596 8.3796 11.5852C8.50513 11.6569 8.6486 11.6928 8.81 11.6928C9.13281 11.6928 9.45562 11.5134 9.61702 11.2086L11.4821 8.17777C11.4821 8.15983 11.5001 8.1419 11.5001 8.1419ZM12.0201 2.90526C12.056 2.83353 12.1457 2.81559 12.1995 2.85146C12.2174 2.85146 12.2174 2.86939 12.2174 2.86939L12.7913 3.42534C12.8272 3.46121 12.8451 3.53294 12.8092 3.58674L12.4147 4.28616C12.3788 4.35789 12.2891 4.37582 12.2353 4.33996C12.2174 4.33996 12.2174 4.32202 12.2174 4.32202L11.6435 3.76608C11.6077 3.73021 11.5897 3.65848 11.6256 3.60467L12.0201 2.90526ZM13.2217 0.860818C13.2934 0.735282 13.4548 0.699414 13.5804 0.771149C13.7059 0.842884 13.7418 1.00429 13.67 1.12982L12.7196 2.77972L12.5402 2.60039C12.5043 2.56452 12.4685 2.54659 12.4326 2.52865C12.3967 2.51072 12.3788 2.49278 12.3429 2.49278C12.325 2.49278 12.325 2.49278 12.3071 2.47485L13.2217 0.860818ZM14.226 4.19649L13.8314 4.8959C13.7956 4.9497 13.7418 4.96764 13.688 4.9497L12.9168 4.71656C12.8989 4.71656 12.8989 4.71656 12.881 4.69863C12.8272 4.66276 12.7913 4.59103 12.8272 4.51929L13.2217 3.81988C13.2576 3.76608 13.3114 3.74814 13.3652 3.76608L14.1363 3.98128C14.1542 3.98128 14.1542 3.98128 14.1722 3.99922C14.2439 4.05302 14.2618 4.12475 14.226 4.19649ZM12.1277 6.00779C12.0739 5.97192 12.0381 5.90019 12.0739 5.82845L12.4685 5.12904C12.5043 5.07524 12.5581 5.0573 12.6119 5.07524L13.3831 5.29044C13.401 5.29044 13.401 5.29044 13.419 5.30838C13.4728 5.34424 13.5086 5.41598 13.4728 5.48771L13.0782 6.18713C13.0424 6.24093 12.9886 6.25886 12.9348 6.24093L12.1636 6.02572C12.1457 6.02572 12.1277 6.02572 12.1277 6.00779ZM10.9262 7.37075C11.0517 7.44249 11.0696 7.62182 10.9979 7.76529L9.13281 10.7961C9.04314 10.9396 8.88174 11.0113 8.7562 10.9396C8.63067 10.8678 8.61273 10.6885 8.68447 10.545L10.5496 7.51422C10.6392 7.35282 10.8006 7.29902 10.9262 7.37075ZM11.3207 7.13761L11.7153 6.4382C11.7511 6.3844 11.8049 6.36646 11.8587 6.3844L12.6299 6.5996C12.6478 6.5996 12.6478 6.5996 12.6657 6.61754C12.7196 6.6534 12.7554 6.72514 12.7196 6.79687L12.325 7.49629C12.2891 7.55009 12.2353 7.56802 12.1815 7.55009L11.4104 7.33489C11.3925 7.33489 11.3925 7.33488 11.3745 7.31695C11.3028 7.28108 11.2849 7.20935 11.3207 7.13761ZM15.4275 2.13411L14.495 3.73021L14.4771 3.71228C14.4591 3.69434 14.4233 3.67641 14.4053 3.65848C14.3695 3.64054 14.3336 3.62261 14.2798 3.60467L14.0287 3.53294L14.9792 1.88304C15.0509 1.7575 15.2123 1.72164 15.3379 1.79337C15.4634 1.84717 15.4993 2.00857 15.4275 2.13411ZM14.5129 0.663547C14.5847 0.538011 14.7461 0.502144 14.8716 0.573879C14.9971 0.645613 15.033 0.807017 14.9613 0.932553L13.5624 3.3536C13.5445 3.37154 13.5445 3.38947 13.5266 3.4074H13.5086C13.419 3.38947 13.3293 3.37154 13.2396 3.38947C13.2038 3.2998 13.1679 3.22807 13.0962 3.17427V3.12046C13.0962 3.10253 13.1141 3.0846 13.1141 3.06666L14.5129 0.663547ZM11.2669 4.21442C11.3028 4.14269 11.3925 4.12475 11.4463 4.16062C11.4642 4.16062 11.4642 4.17855 11.4642 4.17855L12.0381 4.7345C12.0739 4.77037 12.0919 4.8421 12.056 4.8959L11.6615 5.59532C11.6256 5.66705 11.5359 5.68498 11.4821 5.64912C11.4642 5.64912 11.4642 5.63118 11.4642 5.63118L10.8903 5.07524C10.8544 5.03937 10.8365 4.96764 10.8724 4.91384L11.2669 4.21442ZM10.5137 5.52358C10.5496 5.45185 10.6392 5.43391 10.693 5.46978C10.711 5.46978 10.711 5.48771 10.711 5.48771L11.2849 6.04366C11.3207 6.07953 11.3387 6.15126 11.3028 6.20506L10.9082 6.90448C10.8724 6.97621 10.7827 6.99414 10.7289 6.95828C10.711 6.95828 10.711 6.94034 10.711 6.94034L10.1371 6.3844C10.1012 6.34853 10.0833 6.2768 10.1192 6.223L10.5137 5.52358Z" fill="#040405"/>
</svg>
