<svg width="120" height="22" viewBox="0 0 120 22" fill="none" xmlns="http://www.w3.org/2000/svg">
<path fill-rule="evenodd" clip-rule="evenodd" d="M0.0416236 5.95215C1.5817 6.14639 3.1079 6.39613 4.6341 6.72912C6.67365 7.17311 8.68546 7.75584 10.6973 8.31082L10.8083 8.33857C9.94804 8.62993 9.08782 8.94905 8.2276 9.28204C8.1721 9.21267 8.13048 9.15717 8.07498 9.08779C7.93624 8.9213 7.78362 8.75481 7.631 8.60219C7.08989 8.46344 6.52103 8.31082 5.96605 8.17208C6.0493 8.2692 6.13255 8.38019 6.21579 8.47731C6.54878 8.87968 6.88177 9.29591 7.18701 9.72602C6.9234 9.83702 6.67365 9.94802 6.41004 10.059C6.14642 9.69827 5.85506 9.33754 5.57757 9.00455C5.25845 8.62993 4.91159 8.2137 4.55085 7.83909L4.4121 7.81134C4.03749 7.72809 3.66288 7.65872 3.28827 7.57547C3.55188 7.86683 3.80162 8.1582 4.03749 8.44957C4.43985 8.93517 4.84221 9.43466 5.21683 9.96189C5.32782 10.1145 5.45269 10.281 5.56369 10.4475C5.31395 10.5585 5.06421 10.6834 4.81447 10.8082C4.73122 10.6834 4.64797 10.5724 4.56472 10.4475C4.20399 9.94802 3.8155 9.46241 3.41314 8.9768C2.95528 8.43569 2.45579 7.85296 1.92856 7.3396C1.4152 7.25636 0.901845 7.17311 0.388487 7.10374C0.91572 7.63097 1.42908 8.18595 1.88694 8.72706C2.35867 9.26816 2.81653 9.83702 3.23277 10.4198C3.44089 10.6972 3.63513 10.9886 3.82937 11.28C3.57963 11.4048 3.34376 11.5297 3.09402 11.6546C2.92753 11.391 2.74716 11.1412 2.56679 10.8915C2.15055 10.3226 1.72044 9.78152 1.26258 9.25429C0.874096 8.79643 0.443985 8.32469 0 7.88071V6.07702C0.0138745 6.0354 0.0277491 5.99377 0.0416236 5.95215ZM0 13.3473V11.9598C0.263616 12.2928 0.513358 12.6397 0.749225 12.9865C0.513358 13.1253 0.277491 13.264 0.0416236 13.4167L0 13.3473ZM0 10.5862C0.110996 10.7111 0.221993 10.836 0.332989 10.9747C0.735351 11.4603 1.16546 11.9876 1.55395 12.5287C1.78982 12.3899 2.03956 12.2512 2.27542 12.1263C1.87306 11.5436 1.40133 10.9747 0.971218 10.4475C0.665978 10.0729 0.346864 9.71215 0.0138745 9.36529V10.5862H0Z" fill="#3A535D"/>
<path fill-rule="evenodd" clip-rule="evenodd" d="M0 13.083C5.50819 9.94734 13.1669 7.22789 19.4382 5.86816V7.54701C13.1947 8.87898 5.43882 11.4319 0 14.4427V13.083Z" fill="#96BF00"/>
<path fill-rule="evenodd" clip-rule="evenodd" d="M0 15.5116C5.36945 12.6257 13.0143 10.2254 19.4382 9.03223V10.6972C13.0282 11.8349 5.31395 14.0687 0 16.8297V15.5116Z" fill="#96BF00"/>
<path fill-rule="evenodd" clip-rule="evenodd" d="M0 17.8421C5.27233 15.303 12.9727 13.1525 19.4382 12.1396V13.763C12.9172 14.6787 5.20295 16.5934 0 19.1324V17.8421Z" fill="#96BF00"/>
<path fill-rule="evenodd" clip-rule="evenodd" d="M0 20.1454C5.18908 17.9393 12.9449 16.0385 19.4382 15.2061V16.7878C14.0272 17.3289 7.88074 18.4943 3.02465 20.1731H0V20.1454Z" fill="#96BF00"/>
<path fill-rule="evenodd" clip-rule="evenodd" d="M6.63184 20.1739C10.6971 19.1611 15.2479 18.4673 19.438 18.1621V19.7577C17.9118 19.8548 16.3163 19.9797 14.7207 20.1739H6.63184Z" fill="#96BF00"/>
<path d="M27.8032 14.4714H21.0879V5.73047H23.5021V12.5151H27.8032V14.4714Z" fill="#96BF00"/>
<path d="M37.3774 14.4709H34.8939L34.2973 12.8753H31.12L30.5095 14.4709H28.0537L31.5085 5.70215H33.9365L37.3774 14.4709ZM32.7294 8.17182L31.675 11.2381H33.77L32.7294 8.17182Z" fill="#96BF00"/>
<path d="M44.231 7.6729H41.4978V14.4853H39.0697V7.6729H36.3364V5.73047H44.231V7.6729Z" fill="#96BF00"/>
<path d="M47.7272 14.4714H45.313V5.73047H47.7272V14.4714Z" fill="#96BF00"/>
<path d="M56.1652 7.63128H51.7809V9.3101H55.5825V11.0999H51.7809V14.4714H49.3667V5.73047H56.1791V7.63128H56.1652Z" fill="#96BF00"/>
<path d="M65.2653 5.73047V10.975C65.2653 13.528 63.8501 14.6379 61.2278 14.6379C58.4945 14.6379 57.2319 13.4863 57.2319 10.975V5.73047H59.6461V11.0305C59.6461 12.0989 60.0346 12.7649 61.2833 12.7649C62.3378 12.7649 62.8511 12.2099 62.8511 11.0305V5.73047H65.2653Z" fill="#96BF00"/>
<path d="M66.8613 5.73047H69.2616L72.5915 11.2664L72.4944 5.73047H74.8253V14.4853H72.4805L69.1229 8.86612L69.1923 14.4853H66.8752V5.73047H66.8613Z" fill="#96BF00"/>
<path d="M76.4904 5.73047H80.4308C83.2612 5.73047 84.9539 7.29829 84.9539 10.0593C84.9539 13.0007 83.3583 14.4853 80.2921 14.4853H76.4766V5.73047H76.4904ZM80.1949 12.5706C81.8183 12.5706 82.5397 11.6549 82.5397 10.1148C82.5397 8.53313 81.6795 7.61741 80.0284 7.61741H78.8769V12.5706H80.1949Z" fill="#96BF00"/>
<path d="M88.7008 14.4714H86.2866V5.73047H88.7008V14.4714Z" fill="#96BF00"/>
<path d="M90.3657 5.73047H93.8621L95.5409 11.7936L97.2614 5.73047H100.661V14.4853H98.3852L98.4962 7.81165L96.4428 14.4853H94.5975L92.5579 7.82552L92.6412 14.4853H90.3796V5.73047H90.3657Z" fill="#3A535D"/>
<path d="M110.72 14.4709H108.237L107.64 12.8753H104.463L103.852 14.4709H101.396L104.851 5.70215H107.279L110.72 14.4709ZM106.058 8.17182L105.004 11.2381H107.099L106.058 8.17182Z" fill="#3A535D"/>
<path d="M119.986 14.4715H118.446L118.307 13.5281C117.461 14.4022 116.739 14.6658 115.463 14.6658C112.868 14.6658 111.134 12.8898 111.134 10.1982C111.134 7.39552 112.993 5.52246 115.81 5.52246C118.029 5.52246 119.625 6.63242 119.875 8.69973H117.544C117.294 7.88113 116.684 7.4649 115.768 7.4649C114.131 7.4649 113.576 8.79685 113.576 10.1427C113.576 11.6273 114.172 12.8621 115.893 12.8621C117.044 12.8621 117.544 12.3626 117.794 11.3636H116.129V9.71257H120V14.4715H119.986Z" fill="#3A535D"/>
<path d="M22.3523 20.6028C21.4782 20.6028 20.8955 19.9924 20.8955 19.0489C20.8955 18.0777 21.4782 17.4395 22.3662 17.4395C23.0877 17.4395 23.5733 17.8279 23.6565 18.4662H23.2681C23.1709 17.9944 22.8518 17.7447 22.3801 17.7447C21.7141 17.7447 21.2979 18.2442 21.2979 19.0212C21.2979 19.7981 21.7002 20.2976 22.3385 20.2976C22.8657 20.2976 23.2126 19.9785 23.2958 19.4374H23.6843C23.5733 20.1311 23.1154 20.6028 22.3523 20.6028Z" fill="#3A535D"/>
<path d="M26.1389 17.8423V20.5201H25.7504V17.8423H24.585V17.5371H27.3044V17.8423H26.1389Z" fill="#3A535D"/>
<path d="M30.5636 20.5201V17.9672L28.857 20.5201H28.3853V17.5371H28.7737V20.09L30.4803 17.5371H30.952V20.5201H30.5636Z" fill="#3A535D"/>
<path d="M34.6044 20.5201V17.8423H33.314L33.2585 19.3408C33.2308 20.2288 32.9533 20.5895 32.4399 20.5895C32.3289 20.5895 32.1902 20.5618 32.1069 20.5201V20.2288C32.1902 20.2704 32.3567 20.2843 32.4538 20.2843C32.7174 20.2843 32.87 20.0207 32.8839 19.3269L32.9394 17.5371H34.979V20.5201H34.6044Z" fill="#3A535D"/>
<path d="M36.8094 17.5371V18.7164H38.0026C38.6131 18.7164 39.0016 19.0633 39.0016 19.6183C39.0016 20.1871 38.6131 20.5201 38.0026 20.5201H36.4209V17.5371H36.8094ZM37.9193 19.0078H36.8233V20.201H37.9193C38.3633 20.201 38.6269 19.9929 38.6269 19.6044C38.6131 19.2298 38.3633 19.0078 37.9193 19.0078Z" fill="#3A535D"/>
<path d="M42.3995 20.5201V19.1188H40.6097V20.5201H40.2212V17.5371H40.6097V18.8136H42.3995V17.5371H42.788V20.5201H42.3995Z" fill="#3A535D"/>
<path d="M44.607 17.5371V18.7164H45.6338C46.2442 18.7164 46.6327 19.0633 46.6327 19.6183C46.6327 20.1871 46.2442 20.5201 45.6338 20.5201H44.2324V17.5371H44.607ZM45.5366 19.0078H44.607V20.201H45.5366C45.9806 20.201 46.2442 19.9929 46.2442 19.6044C46.2442 19.2298 45.9806 19.0078 45.5366 19.0078ZM47.6039 17.5371V20.5201H47.2154V17.5371H47.6039Z" fill="#3A535D"/>
<path d="M50.336 20.6175C49.4619 20.6175 48.8931 20.007 48.8931 19.0635C48.8931 18.1201 49.4897 17.4541 50.336 17.4541C51.2656 17.4541 51.7235 18.1895 51.7235 19.008V19.119H49.2954C49.2954 19.7434 49.6007 20.3261 50.3638 20.3261C50.8633 20.3261 51.1962 20.0625 51.3211 19.5353H51.6957C51.5431 20.2013 51.0714 20.6175 50.336 20.6175ZM50.3083 17.7593C49.6284 17.7593 49.3509 18.2588 49.2677 18.8277H51.3072C51.2795 18.1617 50.9049 17.7593 50.3083 17.7593Z" fill="#3A535D"/>
<path d="M58.1616 20.5063C58.0645 20.5479 57.9674 20.5479 57.8564 20.5479C57.4818 20.5479 57.4401 20.2704 57.4401 20.0068C57.1765 20.3953 56.788 20.6034 56.2469 20.6034C55.6087 20.6034 55.2202 20.2843 55.2202 19.7709C55.2202 19.2298 55.6087 18.9246 56.3857 18.8414C56.8852 18.7997 57.1488 18.7859 57.3014 18.6887C57.3846 18.6332 57.4124 18.55 57.4124 18.3974C57.4124 17.8979 57.0933 17.7591 56.5938 17.7591C56.0666 17.7591 55.7891 17.9811 55.7336 18.4667H55.3728C55.4006 17.8285 55.8584 17.4678 56.6354 17.4678C57.343 17.4678 57.787 17.7591 57.787 18.328V19.9513C57.787 20.1317 57.787 20.2566 57.9951 20.2566C58.0506 20.2566 58.0784 20.2566 58.1477 20.2427V20.5063H58.1616ZM56.566 19.105C56.1637 19.1605 55.6365 19.2437 55.6365 19.7293C55.6365 20.0762 55.9139 20.2982 56.3579 20.2982C56.9268 20.2982 57.4263 19.9513 57.4263 19.3825V18.8969C57.3014 19.0217 56.9962 19.0495 56.566 19.105Z" fill="#3A535D"/>
<path d="M59.7298 17.8423V20.5201H59.3413V17.5371H61.4225V17.8423H59.7298Z" fill="#3A535D"/>
<path d="M62.8522 18.1064C63.0742 17.6624 63.4488 17.4404 63.9761 17.4404C64.8363 17.4404 65.3913 18.0787 65.3913 19.036C65.3913 19.9795 64.8224 20.6038 63.9899 20.6038C63.4766 20.6038 63.0881 20.3957 62.88 19.9656V21.6305H62.5054V17.5237H62.8522V18.1064ZM62.8661 19.036C62.8661 19.8269 63.2823 20.3125 63.9483 20.3125C64.5866 20.3125 65.0167 19.813 65.0167 19.0499C65.0167 18.259 64.6004 17.7595 63.9344 17.7595C63.2685 17.7457 62.8661 18.2313 62.8661 19.036Z" fill="#3A535D"/>
<path d="M69.4971 20.5063C69.3861 20.5479 69.3028 20.5479 69.1918 20.5479C68.8172 20.5479 68.7756 20.2704 68.7756 20.0068C68.512 20.3953 68.1235 20.6034 67.5824 20.6034C66.9442 20.6034 66.5557 20.2843 66.5557 19.7709C66.5557 19.2298 66.9442 18.9246 67.7211 18.8414C68.2206 18.7997 68.4842 18.7859 68.6368 18.6887C68.7201 18.6332 68.7478 18.55 68.7478 18.3974C68.7478 17.8979 68.4287 17.7591 67.9292 17.7591C67.402 17.7591 67.1245 17.9811 67.069 18.4667H66.7083C66.736 17.8285 67.1939 17.4678 67.9709 17.4678C68.6785 17.4678 69.1225 17.7591 69.1225 18.328V19.9513C69.1225 20.1317 69.1225 20.2566 69.3306 20.2566C69.3861 20.2566 69.4138 20.2566 69.4832 20.2427V20.5063H69.4971ZM67.9015 19.105C67.4991 19.1605 66.9719 19.2437 66.9719 19.7293C66.9719 20.0762 67.2494 20.2982 67.6934 20.2982C68.2622 20.2982 68.7617 19.9513 68.7617 19.3825V18.8969C68.6368 19.0217 68.3177 19.0495 67.9015 19.105Z" fill="#3A535D"/>
<path d="M71.0099 18.1064C71.2319 17.6624 71.6066 17.4404 72.1338 17.4404C72.994 17.4404 73.549 18.0787 73.549 19.036C73.549 19.9795 72.9801 20.6038 72.1477 20.6038C71.6343 20.6038 71.2458 20.3957 71.0377 19.9656V21.6305H70.6631V17.5237H71.0099V18.1064ZM71.0238 19.036C71.0238 19.8269 71.4401 20.3125 72.106 20.3125C72.7443 20.3125 73.1744 19.813 73.1744 19.0499C73.1744 18.259 72.7581 17.7595 72.0922 17.7595C71.4262 17.7457 71.0238 18.2313 71.0238 19.036Z" fill="#3A535D"/>
<path d="M77.0587 20.5201V19.1188H75.2689V20.5201H74.8804V17.5371H75.2689V18.8136H77.0587V17.5371H77.4472V20.5201H77.0587Z" fill="#3A535D"/>
<path d="M79.2652 17.5371V18.7164H80.292C80.9024 18.7164 81.2909 19.0633 81.2909 19.6183C81.2909 20.1871 80.9024 20.5201 80.292 20.5201H78.8906V17.5371H79.2652ZM80.1948 19.0078H79.2652V20.201H80.1948C80.6388 20.201 80.9024 19.9929 80.9024 19.6044C80.9024 19.2298 80.6388 19.0078 80.1948 19.0078ZM82.2621 17.5371V20.5201H81.8737V17.5371H82.2621Z" fill="#3A535D"/>
<path d="M84.9815 20.6175C84.1074 20.6175 83.5386 20.007 83.5386 19.0635C83.5386 18.1201 84.1352 17.4541 84.9815 17.4541C85.9111 17.4541 86.369 18.1895 86.369 19.008V19.119H83.9409C83.9409 19.7434 84.2462 20.3261 85.0093 20.3261C85.5088 20.3261 85.8417 20.0625 85.9666 19.5353H86.3412C86.2025 20.2013 85.7308 20.6175 84.9815 20.6175ZM84.9677 17.7593C84.2878 17.7593 84.0103 18.2588 83.9409 18.8277H85.9805C85.9389 18.1617 85.5504 17.7593 84.9677 17.7593Z" fill="#3A535D"/>
<path d="M90.0459 17.5371H90.4344V20.2149H91.9051V17.5371H92.2936V20.2149H93.7643V17.5371H94.1528V20.5201H90.0459V17.5371Z" fill="#3A535D"/>
<path d="M96.803 17.8423V20.5201H96.4145V17.8423H95.249V17.5371H97.9684V17.8423H96.803Z" fill="#3A535D"/>
<path d="M100.27 20.6312C99.9927 21.325 99.8539 21.658 99.3406 21.658C99.2296 21.658 99.1186 21.6441 99.0076 21.6302V21.3111C99.1602 21.3527 99.2018 21.3527 99.2851 21.3527C99.6597 21.3527 99.7568 20.992 99.9511 20.5063L98.6885 17.5371H99.1047L99.9511 19.5906C100.062 19.8681 100.02 19.771 100.145 20.1178C100.242 19.8126 100.284 19.6877 100.34 19.549L101.117 17.5371H101.505L100.27 20.6312Z" fill="#3A535D"/>
<path d="M103.516 19.2716C102.878 19.2716 102.517 19.008 102.517 18.3004V17.5234H102.906V18.342C102.906 18.9248 103.294 18.9386 103.599 18.9386C103.932 18.9386 104.376 18.8415 104.598 18.7583V17.5234H104.987V20.5065H104.598V19.0774C104.362 19.1745 103.905 19.2716 103.516 19.2716Z" fill="#3A535D"/>
<path d="M109.151 20.5199H108.666L107.445 18.9521L106.806 19.521V20.5338H106.418V17.5508H106.806V19.077L108.555 17.5508H109.068L107.722 18.7162L109.151 20.5199Z" fill="#3A535D"/>
<path d="M112.383 20.5201V17.9672L110.676 20.5201H110.205V17.5371H110.593V20.09L112.3 17.5371H112.771V20.5201H112.383Z" fill="#3A535D"/>
<path d="M117.406 18.203H116.906V17.6064H117.406V18.203ZM117.406 20.5201H116.906V19.9235H117.406V20.5201Z" fill="#3A535D"/>
<path d="M119.044 21.6307H118.738C119.238 20.8537 119.515 19.9242 119.515 19.0084C119.515 18.065 119.238 17.1215 118.738 16.3584H119.044C119.599 17.0521 119.904 18.1482 119.904 19.0084C119.904 20.0213 119.585 20.7428 119.044 21.6307Z" fill="#3A535D"/>
<path d="M9.65684 0.679853C12.5011 0.679853 14.8737 3.12177 15.3454 6.32679C15.9836 6.14642 16.608 5.97993 17.2323 5.82731C16.9687 2.26155 13.6805 0 9.65684 0C5.68872 0 2.4282 2.20605 2.09521 5.70244C2.76119 5.81343 3.39942 5.92443 4.02378 6.0493C4.59263 2.98303 6.89581 0.679853 9.65684 0.679853Z" fill="#3A535D"/>
</svg>
