<svg width="120" height="32" viewBox="0 0 120 32" fill="none" xmlns="http://www.w3.org/2000/svg">
<path d="M26.702 23.8094L25.2911 20.917V20.3174L27.2311 15.5554L24.762 13.5801L26.314 11.3226L26.8078 7.2309L25.3263 7.65418L24.374 5.71414L20.3175 5.25559L19.224 6.45488L18.6597 5.46723L15.9436 5.71414L15.4851 6.38434L14.4621 5.25559L13.545 6.80762L12.4515 6.13742L11.4286 6.73707L7.79544 5.60832L7.01942 6.49016L6.66668 5.71414L1.65785 5.04395L1.97531 7.30145L0.776016 9.34731L1.69313 13.051L3.70371 14.3209L0 16.8606L1.83422 23.9858L0.529102 26.2786L3.35098 27.8659L4.97356 26.984L8.1129 28.0422L13.157 27.2662L14.0036 26.3491L16.2258 28.0422L17.5309 26.9135L18.3775 27.6542L20.4586 26.984L22.187 27.8306L23.0688 26.8077L23.986 28.0422L24.7972 27.9364L26.5609 26.8782L26.8078 24.9382L25.7849 24.8676L26.702 23.8094Z" fill="#0093C9"/>
<path d="M12.7705 15.8022C13.1585 15.132 13.4759 14.5323 13.5818 14.2148C13.7581 13.4741 13.7581 13.4036 13.6876 12.8392C13.617 12.2748 13.2643 10.617 13.2643 10.617C13.1585 10.0526 12.841 9.87621 12.841 9.87621C12.7705 9.84094 12.6647 9.80566 12.5941 9.80566C11.8534 9.80566 11.1479 11.2871 10.3366 12.6275C9.52532 13.9327 8.64349 18.2007 8.67876 19.0473C8.92567 22.0808 11.0421 23.0332 11.0421 23.0332C11.3243 22.6805 11.3243 21.7986 11.289 20.8815C11.2537 20.2113 11.2537 19.5059 11.3243 18.9062C11.4654 18.0597 12.1708 16.8251 12.7705 15.8022Z" fill="#415364"/>
<path d="M14.0384 12.8043V12.7691C13.9679 12.1694 13.6151 10.5821 13.6151 10.5116C13.474 9.80609 13.086 9.59445 13.0155 9.55917C12.8744 9.48863 12.7333 9.45335 12.5922 9.45335C11.8162 9.45335 11.1813 10.4763 10.4758 11.6756V11.4287C10.5111 10.7585 10.6521 10.1235 10.9343 9.5239L11.3223 8.64206C11.4987 8.25406 11.534 7.83077 11.3929 7.44277L10.4052 4.55034L11.6751 4.16233C11.8162 4.12706 11.9925 4.09179 12.1336 4.05651C13.1566 3.84487 13.9326 2.85721 12.698 2.36339C12.4511 2.25757 12.2395 2.22229 12.0278 2.18702C11.534 2.11647 11.1107 2.50448 11.0754 2.99831L11.0402 3.45686C11.0402 3.6685 10.8991 3.84487 10.7227 3.95069C10.5816 4.02124 10.4052 4.05651 10.2641 3.98597L8.67683 3.49214C7.58336 3.88015 8.92375 6.98421 8.50047 7.65441C6.38406 12.3458 6.24296 13.8273 6.87789 17.2488C7.61863 21.2347 9.34703 26.4199 9.34703 26.4199C9.34703 27.6545 9.66449 28.6774 10.2289 29.7003L10.2641 30.1942H10.9343L11.534 30.8291L11.922 30.5116L12.4158 31.3229L12.2747 30.1942C12.2395 30.0178 12.2395 29.8061 12.2747 29.6298L12.5569 25.7144C12.5569 25.6439 12.5922 25.5733 12.5922 25.5028C12.698 25.15 12.6627 24.762 12.4864 24.4446C12.4511 24.374 12.4158 24.3388 12.3805 24.3035L11.2518 23.3864L11.3223 23.3158C11.6398 22.8925 11.7104 22.046 11.6751 20.9172C11.6398 20.247 11.6398 19.5768 11.7104 19.0125C11.8162 18.2364 12.5216 17.0019 13.086 16.0142C13.5093 15.2735 13.8268 14.7091 13.9326 14.3211C14.1089 13.5098 14.1089 13.404 14.0384 12.8043ZM13.5446 14.2153C13.474 14.5327 13.1213 15.1324 12.7333 15.8026C12.1689 16.8255 11.4282 18.0954 11.3223 18.9066C11.2518 19.5063 11.2518 20.2118 11.2871 20.882C11.3223 21.8343 11.2871 22.6809 11.0402 23.0336C11.0402 23.0336 8.92375 22.0813 8.67683 19.0477C8.60629 18.2012 9.48812 13.9331 10.2641 12.628C11.0754 11.2523 11.8162 9.80609 12.5216 9.80609C12.5922 9.80609 12.698 9.84136 12.7686 9.87663C12.7686 9.87663 13.086 10.0177 13.1918 10.6174C13.1918 10.6174 13.5798 12.2752 13.6151 12.8396C13.7209 13.404 13.7562 13.4393 13.5446 14.2153Z" fill="#DCE3EB"/>
<path d="M7.97119 1.44621L7.58319 0.705469C7.51264 0.564375 7.51264 0.352735 7.58319 0.211641C6.70135 0.211641 6.17225 0 5.36096 0C5.07877 0 4.79658 0.141094 4.58494 0.352735L4.44385 0.529102C4.44385 0.529102 6.73662 0.599649 8.04174 2.2575C8.14756 1.97531 8.11229 1.69313 7.97119 1.44621Z" fill="#FF5100"/>
<path d="M11.5698 30.7937L10.9349 30.1587H10.2647L10.2295 29.7002C9.87672 29.9824 8.95961 29.9471 8.81852 29.9471C8.07777 29.9471 7.30176 30.3351 7.30176 30.8289C7.30176 31.217 8.74797 31.3933 9.31234 31.4286C9.98254 31.4639 10.8291 31.6402 10.8291 31.6402C11.2524 31.7108 11.6757 31.6755 12.0989 31.5697L12.487 31.4639L11.9226 30.5115L11.5698 30.7937Z" fill="#FF5100"/>
<path d="M18.2723 28.8886C17.8843 28.6064 18.872 27.7246 18.8367 26.878L18.8014 25.714C18.7662 25.2202 18.8014 24.7616 18.8367 24.2678C19.0131 22.2925 19.5069 16.6134 19.1542 13.2625C19.1189 12.8392 19.0484 12.4159 19.0131 12.0279C18.6956 9.66458 17.9196 7.3718 16.685 5.32594C16.685 5.32594 15.9796 4.09137 15.1683 3.13899C14.357 2.1866 11.1471 0.105469 10.4769 0.105469C9.77144 0.105469 8.46632 0.211289 7.54921 0.211289C7.47866 0.352383 7.44339 0.564024 7.54921 0.705118L7.93722 1.44586C8.07831 1.69277 8.11358 1.97496 8.00776 2.25715C8.25468 2.60988 8.50159 3.03317 8.64269 3.52699L10.23 4.02082C10.3711 4.0561 10.5475 4.0561 10.6885 3.98555C10.8649 3.87973 10.9707 3.70336 11.006 3.49172L11.0413 3.03317C11.0766 2.53934 11.4998 2.15133 11.9937 2.22188C12.17 2.25715 12.3817 2.29242 12.6639 2.39824C13.9337 2.89207 13.1224 3.87973 12.0995 4.09137C11.9231 4.12664 11.782 4.16192 11.6409 4.19719L10.3711 4.5852L11.3587 7.47762C11.4998 7.86563 11.4646 8.28891 11.2882 8.67692L10.9002 9.52348C10.618 10.1231 10.4769 10.7581 10.4416 11.4283V11.6752C11.1471 10.4759 11.782 9.45294 12.558 9.45294C12.6991 9.45294 12.8402 9.48821 12.9813 9.55876C13.0519 9.59403 13.4399 9.84094 13.581 10.5111C13.581 10.5817 13.969 12.169 14.0043 12.7686V12.8039C14.0748 13.4036 14.0748 13.5094 13.8632 14.2854C13.7573 14.6734 13.4399 15.2378 13.0166 15.9785C12.4522 16.9662 11.7468 18.2008 11.6409 18.9768C11.5704 19.5411 11.5704 20.2113 11.6057 20.8815C11.6409 22.0103 11.6057 22.8569 11.2529 23.2801L11.1824 23.3507L12.3111 24.2678C12.3464 24.3031 12.4169 24.3736 12.4169 24.4089C12.5933 24.7263 12.6286 25.1144 12.5228 25.4671C12.4875 25.5376 12.4875 25.6082 12.4875 25.6787L12.2053 29.5941C12.2053 29.7705 12.2053 29.9821 12.2053 30.1585L12.3464 31.2872L12.4169 31.4283C12.6639 31.4988 13.8279 31.7458 14.5686 31.7105C15.4505 31.7105 16.5439 31.393 16.8261 31.393C17.1083 31.393 18.872 31.781 19.8596 31.7105C20.8473 31.6399 21.9055 31.2519 21.9055 30.7581C20.2829 30.5112 18.6603 29.1355 18.2723 28.8886Z" fill="#415364"/>
<path d="M9.06469 0.776259L9.52324 0.705712C9.69961 0.670438 9.8407 0.846806 9.80543 1.02317C9.80543 1.05845 9.77016 1.09372 9.69961 1.09372L9.24106 1.12899C9.13523 1.12899 9.06469 1.05845 9.02941 0.9879L8.99414 0.846806C8.99414 0.811532 9.02941 0.776259 9.06469 0.776259Z" fill="white"/>
<path d="M37.2831 24.9729C37.4242 24.9729 37.53 24.9729 37.6711 24.9376C37.7769 24.9023 37.8828 24.8671 37.9886 24.8318C38.0239 24.7965 38.0591 24.7965 38.0591 24.8318C38.0591 24.8318 38.0944 24.8671 38.0944 24.9023L38.2002 25.1493C38.2355 25.1845 38.2355 25.2198 38.2355 25.2198L38.2002 25.2551C38.0591 25.3609 37.8828 25.3962 37.7064 25.4314C37.53 25.4667 37.3537 25.4667 37.2126 25.4667C36.754 25.4667 36.4013 25.3256 36.1896 25.0787C35.9427 24.8318 35.8369 24.4085 35.8369 23.8794C35.8369 23.6325 35.8722 23.4209 35.9427 23.2092C36.0133 22.9976 36.1191 22.8212 36.2249 22.6801C36.3307 22.539 36.5071 22.4332 36.6835 22.3627C36.8598 22.2921 37.0362 22.2568 37.2478 22.2568C37.3889 22.2568 37.53 22.2568 37.6711 22.2921C37.8122 22.3274 37.9533 22.3627 38.0944 22.4332C38.1297 22.4332 38.1297 22.4685 38.1297 22.4685C38.1297 22.4685 38.1297 22.5038 38.1297 22.539L37.9886 22.7859C37.9886 22.8212 37.9533 22.8212 37.9533 22.8565C37.9533 22.8565 37.918 22.8565 37.8828 22.8565C37.7769 22.8212 37.6711 22.7859 37.5653 22.7507C37.4595 22.7154 37.3537 22.7154 37.2478 22.7154C37.1068 22.7154 36.9657 22.7507 36.8598 22.8212C36.754 22.8918 36.6482 22.9623 36.5777 23.0681C36.5071 23.1739 36.4718 23.2798 36.4366 23.4209C36.4013 23.562 36.4013 23.703 36.4013 23.8441C36.4013 23.9852 36.4013 24.1263 36.4366 24.2674C36.4718 24.4085 36.5071 24.5143 36.5777 24.6202C36.6482 24.726 36.7187 24.7965 36.8598 24.8671C36.9657 24.9729 37.1068 24.9729 37.2831 24.9729Z" fill="#415364"/>
<path d="M40.6693 23.527V25.3613C40.6693 25.3965 40.6693 25.4318 40.634 25.4318C40.634 25.4318 40.5987 25.4318 40.5634 25.4318H40.246C40.2107 25.4318 40.1754 25.4318 40.1754 25.3965C40.1754 25.3965 40.1402 25.3613 40.1402 25.326V23.4918H39.5052C39.47 23.4918 39.4347 23.4918 39.4347 23.4565C39.4347 23.4565 39.3994 23.4212 39.3994 23.3859V23.139C39.3994 23.1037 39.3994 23.0685 39.3994 23.0685C39.3994 23.0685 39.4347 23.0332 39.47 23.0332H41.3395C41.3747 23.0332 41.41 23.0332 41.41 23.0685C41.41 23.1037 41.41 23.1037 41.41 23.139V23.3859C41.41 23.4212 41.41 23.4212 41.3747 23.4565C41.3747 23.4565 41.3395 23.4918 41.3042 23.4918H40.6693V23.527Z" fill="#415364"/>
<path d="M44.4807 24.1621C44.6218 24.1973 44.6924 24.3032 44.7629 24.409C44.8335 24.5148 44.8335 24.6206 44.8335 24.7264C44.8335 24.8323 44.7982 24.9381 44.7629 25.0086C44.7276 25.0792 44.6571 25.185 44.5865 25.2203C44.516 25.2908 44.4454 25.3261 44.3396 25.3614C44.2338 25.3966 44.128 25.3966 44.0222 25.3966H42.9992C42.9287 25.3966 42.8581 25.3614 42.8229 25.3261C42.7876 25.2908 42.7876 25.2556 42.7876 25.185V23.245C42.7876 23.1744 42.7876 23.1391 42.8229 23.0686C42.8581 23.0333 42.9287 22.998 42.9992 22.998H44.0222C44.128 22.998 44.1985 22.998 44.3044 23.0333C44.4102 23.0686 44.4807 23.1039 44.5513 23.1391C44.6218 23.1744 44.6571 23.245 44.7276 23.3155C44.7629 23.3861 44.7982 23.4919 44.7982 23.5977C44.7982 23.7035 44.7629 23.7741 44.7276 23.8799C44.6218 24.021 44.5865 24.0915 44.4807 24.1621ZM43.3167 23.9857H43.9869C44.0222 23.9857 44.0574 23.9857 44.0574 23.9857C44.0927 23.9857 44.128 23.9504 44.128 23.9504C44.1633 23.9152 44.1633 23.9152 44.1985 23.8799C44.1985 23.8446 44.2338 23.8093 44.2338 23.7741C44.2338 23.7035 44.1985 23.6682 44.1633 23.5977C44.128 23.5624 44.0574 23.5271 43.9869 23.5271H43.3167V23.9857ZM44.3044 24.6912C44.3044 24.5854 44.2691 24.5148 44.1985 24.4443C44.128 24.3737 44.0574 24.3384 43.9163 24.3384H43.2814V24.9734H43.9163C43.9869 24.9734 44.0574 24.9734 44.0927 24.9381C44.128 24.9028 44.1633 24.9028 44.1985 24.8675C44.2338 24.8323 44.2338 24.797 44.2691 24.7617C44.3044 24.7617 44.3044 24.7264 44.3044 24.6912Z" fill="#415364"/>
<path d="M48.4301 24.2678C48.4301 24.6558 48.3243 24.9732 48.1479 25.1849C47.9716 25.3965 47.6894 25.5023 47.3366 25.5023C46.9839 25.5023 46.7017 25.3965 46.5253 25.1849C46.349 24.9732 46.2432 24.6911 46.2432 24.2678C46.2432 24.0561 46.2784 23.8798 46.3137 23.7387C46.3843 23.5976 46.4548 23.4565 46.5253 23.3507C46.6312 23.2448 46.737 23.1743 46.8781 23.1037C47.0192 23.0332 47.1603 23.0332 47.3366 23.0332C47.6894 23.0332 47.9716 23.139 48.1479 23.3507C48.3596 23.5623 48.4301 23.8798 48.4301 24.2678ZM47.901 24.2678C47.901 24.162 47.901 24.0561 47.8657 23.9503C47.8657 23.8445 47.8305 23.7739 47.7952 23.7034C47.7599 23.6329 47.6894 23.5623 47.6188 23.527C47.5483 23.4918 47.4425 23.4565 47.3366 23.4565C47.2308 23.4565 47.1603 23.4918 47.0897 23.527C47.0192 23.5623 46.9486 23.6329 46.9134 23.7034C46.8781 23.7739 46.8428 23.8445 46.8075 23.9503C46.7723 24.0561 46.7723 24.162 46.7723 24.2678C46.7723 24.5147 46.8075 24.7263 46.8781 24.8674C46.9486 25.0085 47.0897 25.0791 47.3014 25.0791C47.4072 25.0791 47.4777 25.0438 47.5483 25.0085C47.6188 24.9732 47.6894 24.9027 47.7246 24.8322C47.7599 24.7616 47.7952 24.6911 47.8305 24.5852C47.901 24.4794 47.901 24.3736 47.901 24.2678Z" fill="#415364"/>
<path d="M50.477 26.2784C50.477 26.3136 50.477 26.3489 50.4417 26.3489C50.4417 26.3489 50.4064 26.3489 50.3712 26.3489H50.0184C49.9831 26.3489 49.9831 26.3489 49.9479 26.3489C49.9126 26.3489 49.9126 26.3136 49.9126 26.2784V23.3154C49.9126 23.2801 49.9126 23.2801 49.9126 23.2448C49.9126 23.2448 49.9479 23.2096 49.9831 23.2096C50.1242 23.139 50.3006 23.1037 50.4417 23.0685C50.6181 23.0332 50.7592 23.0332 50.9003 23.0332C51.1119 23.0332 51.253 23.0685 51.3941 23.139C51.5352 23.2096 51.641 23.2801 51.7468 23.3859C51.8174 23.4918 51.8879 23.6329 51.9232 23.7739C51.9585 23.915 51.9937 24.0914 51.9937 24.2678C51.9937 24.4441 51.9585 24.5852 51.9232 24.7263C51.8879 24.8674 51.8174 25.0085 51.7115 25.1143C51.641 25.2202 51.4999 25.326 51.3941 25.3613C51.253 25.4318 51.1119 25.4671 50.9355 25.4671C50.865 25.4671 50.7592 25.4671 50.6886 25.4671C50.6181 25.4671 50.5122 25.4318 50.4064 25.4318V26.2784H50.477ZM51.4999 24.2678C51.4999 24.1267 51.4999 24.0209 51.4646 23.915C51.4294 23.8092 51.3941 23.7387 51.3588 23.6681C51.2883 23.5976 51.253 23.5623 51.1472 23.527C51.0766 23.4918 50.9708 23.4918 50.9003 23.4918C50.8297 23.4918 50.7592 23.4918 50.6886 23.527C50.6181 23.527 50.5475 23.5623 50.477 23.5623V24.9732C50.5828 25.0085 50.6533 25.0085 50.7239 25.0085C50.7944 25.0085 50.865 25.0085 50.9355 25.0085C51.0061 25.0085 51.1119 25.0085 51.1824 24.9732C51.253 24.938 51.3235 24.9027 51.3588 24.8321C51.4294 24.7616 51.4646 24.6911 51.4999 24.5852C51.4999 24.5147 51.4999 24.4089 51.4999 24.2678Z" fill="#415364"/>
<path d="M54.0745 25.3613C54.0745 25.3965 54.0745 25.4318 54.0392 25.4318C54.0392 25.4318 54.004 25.4318 53.9687 25.4318H53.6512C53.616 25.4318 53.616 25.4318 53.5807 25.3965C53.5807 25.3965 53.5454 25.3613 53.5454 25.326V23.139C53.5454 23.1037 53.5454 23.0685 53.5807 23.0685C53.5807 23.0685 53.616 23.0332 53.6512 23.0332H53.9687C54.004 23.0332 54.0392 23.0332 54.0392 23.0332C54.0392 23.0332 54.0745 23.0685 54.0745 23.1037V23.9856H54.4625C54.4978 23.7034 54.6036 23.4565 54.8153 23.2801C54.9916 23.1037 55.2385 23.0332 55.5207 23.0332C55.8735 23.0332 56.1204 23.139 56.2967 23.3507C56.4731 23.5623 56.5437 23.8798 56.5437 24.2325C56.5437 24.6205 56.4378 24.9027 56.2615 25.1496C56.0851 25.3613 55.8029 25.4671 55.4855 25.4671C55.168 25.4671 54.8858 25.3613 54.7094 25.1849C54.5331 25.0085 54.4272 24.7263 54.4272 24.3736H54.0745V25.3613ZM56.0146 24.2678C56.0146 24.162 56.0146 24.0561 55.9793 23.9503C55.944 23.8445 55.944 23.7739 55.9087 23.7034C55.8735 23.6328 55.8029 23.5623 55.7676 23.527C55.6971 23.4918 55.6265 23.4565 55.5207 23.4565C55.3444 23.4565 55.2033 23.527 55.1327 23.6681C55.0269 23.8092 54.9916 23.9856 54.9916 24.2325C54.9916 24.3383 54.9916 24.4794 55.0269 24.55C55.0622 24.6558 55.0622 24.7263 55.0974 24.7969C55.1327 24.8674 55.2033 24.9027 55.2738 24.9732C55.3444 25.0085 55.4149 25.0438 55.5207 25.0438C55.6265 25.0438 55.6971 25.0085 55.7676 24.9732C55.8382 24.938 55.8735 24.8674 55.944 24.7969C55.9793 24.7263 56.0146 24.6558 56.0498 24.55C55.9793 24.4794 56.0146 24.3736 56.0146 24.2678Z" fill="#415364"/>
<path d="M59.0487 25.0438C59.1545 25.0438 59.225 25.0438 59.3309 25.0085C59.4367 24.9732 59.5072 24.9732 59.5778 24.938C59.613 24.938 59.6483 24.9027 59.6483 24.938L59.6836 24.9732L59.7894 25.2202C59.8247 25.2554 59.8247 25.2907 59.7541 25.326C59.6483 25.3965 59.5072 25.4318 59.3661 25.4671C59.225 25.5023 59.0839 25.5023 58.9781 25.5023C58.6607 25.5023 58.3785 25.3965 58.2021 25.1849C58.0257 24.9732 57.9199 24.6911 57.9199 24.2678C57.9199 24.0914 57.9552 23.915 57.9905 23.7739C58.0257 23.6329 58.0963 23.4918 58.2021 23.3859C58.3079 23.2801 58.4138 23.2096 58.5548 23.139C58.6959 23.0685 58.837 23.0332 59.0134 23.0332C59.2603 23.0332 59.472 23.0685 59.6836 23.1743C59.7189 23.1743 59.7189 23.2096 59.7189 23.2096C59.7189 23.2096 59.7189 23.2448 59.7189 23.2801L59.613 23.527C59.613 23.5623 59.5778 23.5623 59.5778 23.5623C59.5778 23.5623 59.5425 23.5623 59.5072 23.5623C59.4367 23.527 59.3661 23.527 59.2956 23.4918C59.225 23.4565 59.1192 23.4565 59.0487 23.4565C58.8723 23.4565 58.7665 23.527 58.6607 23.5976C58.5548 23.7034 58.5196 23.8092 58.4843 23.9856H59.225C59.2603 23.9856 59.2603 23.9856 59.2603 23.9856V24.0209V24.303C59.2603 24.3383 59.2603 24.3383 59.225 24.3383H59.1898H58.4138C58.4138 24.4089 58.449 24.5147 58.449 24.5852C58.4843 24.6558 58.5196 24.7263 58.5548 24.7616C58.5901 24.8321 58.6607 24.8674 58.7312 24.9027C58.8723 25.0085 58.9781 25.0438 59.0487 25.0438Z" fill="#415364"/>
<path d="M63.3879 23.9149L63.1763 24.4087L62.8941 25.0084C62.8588 25.0789 62.8235 25.1142 62.8235 25.1142C62.7882 25.1495 62.753 25.1495 62.6824 25.1495H62.5413C62.4708 25.1495 62.4355 25.1495 62.4002 25.1142C62.365 25.0789 62.3297 25.0437 62.3297 25.0084L62.0475 24.4087L61.8359 23.9149H61.8006V25.3259C61.8006 25.3611 61.8006 25.3964 61.7653 25.3964C61.7653 25.3964 61.73 25.3964 61.6948 25.3964H61.3773C61.342 25.3964 61.342 25.3964 61.3068 25.3964C61.3068 25.3964 61.2715 25.3611 61.2715 25.3259V23.28C61.2715 23.2095 61.3068 23.1742 61.342 23.1389C61.3773 23.1036 61.4479 23.0684 61.5184 23.0684H61.73C61.8006 23.0684 61.8359 23.0684 61.8711 23.1036C61.9064 23.1389 61.9417 23.1742 61.977 23.2447L62.365 24.056L62.6119 24.6204H62.6472L62.9293 24.0207L63.2821 23.28C63.3173 23.2095 63.3526 23.1742 63.3879 23.1389C63.4232 23.1036 63.4584 23.1036 63.529 23.1036H63.7054C63.7759 23.1036 63.8465 23.1389 63.8817 23.1742C63.917 23.2095 63.9523 23.28 63.9523 23.3153V25.3964C63.9523 25.4317 63.9523 25.467 63.917 25.467C63.917 25.467 63.8817 25.467 63.8464 25.467H63.4937C63.4584 25.467 63.4232 25.467 63.4232 25.467C63.4232 25.467 63.3879 25.4317 63.3879 25.3964V23.9149Z" fill="#415364"/>
<path d="M67.5844 24.2678C67.5844 24.6558 67.4786 24.9732 67.3022 25.1849C67.1259 25.3965 66.8437 25.5023 66.4909 25.5023C66.1382 25.5023 65.856 25.3965 65.6796 25.1849C65.5033 24.9732 65.3975 24.6911 65.3975 24.2678C65.3975 24.0561 65.4327 23.8798 65.468 23.7387C65.5386 23.5976 65.6091 23.4565 65.6796 23.3507C65.7855 23.2448 65.8913 23.1743 66.0324 23.1037C66.1735 23.0332 66.3146 23.0332 66.4909 23.0332C66.8437 23.0332 67.1259 23.139 67.3022 23.3507C67.5139 23.5623 67.5844 23.8798 67.5844 24.2678ZM67.0553 24.2678C67.0553 24.162 67.0553 24.0561 67.02 23.9503C67.02 23.8445 66.9848 23.7739 66.9495 23.7034C66.9142 23.6329 66.8437 23.5623 66.7731 23.527C66.7026 23.4918 66.5968 23.4565 66.4909 23.4565C66.3851 23.4565 66.3146 23.4918 66.244 23.527C66.1735 23.5623 66.1029 23.6329 66.0677 23.7034C66.0324 23.7739 65.9971 23.8445 65.9618 23.9503C65.9266 24.0561 65.9266 24.162 65.9266 24.2678C65.9266 24.5147 65.9618 24.7263 66.0324 24.8674C66.1029 25.0085 66.244 25.0791 66.4557 25.0791C66.5615 25.0791 66.632 25.0438 66.7026 25.0085C66.7731 24.9732 66.8437 24.9027 66.8789 24.8322C66.9142 24.7616 66.9495 24.6911 66.9848 24.5852C67.0553 24.4794 67.0553 24.3736 67.0553 24.2678Z" fill="#415364"/>
<path d="M73.2616 25.185C73.2616 25.2555 73.2263 25.2908 73.191 25.3261C73.1205 25.3614 73.0499 25.3966 72.9794 25.3966C72.9088 25.4319 72.8383 25.4319 72.7325 25.4319C72.6619 25.4319 72.5561 25.4672 72.4856 25.4672C72.415 25.4672 72.3445 25.4672 72.2739 25.4672C72.0623 25.4672 71.9212 25.4319 71.7801 25.3966C71.639 25.3614 71.5332 25.2908 71.4626 25.2203C71.3921 25.1497 71.3215 25.0792 71.2863 24.9734C71.251 24.8675 71.251 24.797 71.251 24.6912C71.251 24.5854 71.251 24.4795 71.2863 24.3737C71.3215 24.2679 71.3921 24.1973 71.4626 24.1268C71.5332 24.0563 71.639 23.9857 71.7801 23.9504C71.9212 23.9152 72.0623 23.8799 72.2386 23.8799H72.7325V23.8093C72.7325 23.7388 72.7325 23.7035 72.6972 23.6682C72.6972 23.633 72.6619 23.5624 72.6266 23.5271C72.5914 23.4919 72.5561 23.4566 72.4856 23.4566C72.415 23.4213 72.3445 23.4213 72.2386 23.4213C72.1328 23.4213 72.027 23.4213 71.9212 23.4566C71.8154 23.4919 71.7095 23.4919 71.639 23.5271C71.6037 23.5271 71.5684 23.5271 71.5684 23.5271L71.5332 23.4919L71.4626 23.245C71.4626 23.2097 71.4626 23.1744 71.4979 23.1391C71.639 23.1039 71.7448 23.0686 71.9212 23.0333C72.0623 22.998 72.2034 22.998 72.3445 22.998C72.6619 22.998 72.8736 23.0686 73.0147 23.2097C73.1558 23.3508 73.2263 23.5624 73.2263 23.8093V25.185H73.2616ZM72.7325 24.3384H72.3092C72.2739 24.3384 72.2034 24.3384 72.1328 24.3384C72.0623 24.3384 72.027 24.3737 71.9564 24.3737C71.9212 24.409 71.8506 24.4443 71.8154 24.4795C71.7801 24.5148 71.7801 24.5854 71.7801 24.6912C71.7801 24.8323 71.8154 24.9028 71.9212 24.9734C71.9917 25.0086 72.1328 25.0439 72.2739 25.0439C72.3092 25.0439 72.3092 25.0439 72.3445 25.0439C72.3797 25.0439 72.415 25.0439 72.4503 25.0439C72.4856 25.0439 72.5208 25.0439 72.5914 25.0086C72.6266 25.0086 72.6972 24.9734 72.7325 24.9734V24.3384Z" fill="#415364"/>
<path d="M75.3792 25.3614C75.3792 25.3966 75.3792 25.4319 75.3439 25.4319C75.3439 25.4319 75.3087 25.4319 75.2734 25.4319H74.9559C74.9206 25.4319 74.8854 25.4319 74.8854 25.3966C74.8854 25.3966 74.8501 25.3614 74.8501 25.3261V23.7741C74.8501 23.6682 74.8501 23.5977 74.8854 23.4919C74.9206 23.4213 74.9559 23.3155 74.9912 23.245C75.0617 23.1744 75.1323 23.1391 75.2028 23.0686C75.3087 23.0333 75.4145 22.998 75.5556 22.998H76.5432C76.5785 22.998 76.6138 22.998 76.6138 23.0333C76.6138 23.0333 76.6138 23.0686 76.6138 23.1039V23.3508C76.6138 23.3861 76.6138 23.4213 76.6138 23.4213C76.6138 23.4213 76.5785 23.4566 76.5432 23.4566H75.6614C75.5556 23.4566 75.485 23.4919 75.4497 23.5271C75.4145 23.5624 75.3792 23.633 75.3792 23.7388V25.3614Z" fill="#415364"/>
<path d="M78.4848 26.2784C78.4848 26.3136 78.4848 26.3489 78.4495 26.3489C78.4495 26.3489 78.4142 26.3489 78.379 26.3489H78.0262C77.991 26.3489 77.991 26.3489 77.9557 26.3489C77.9557 26.3489 77.9204 26.3136 77.9204 26.2784V23.3154C77.9204 23.2801 77.9204 23.2801 77.9204 23.2448C77.9204 23.2448 77.9557 23.2096 77.991 23.2096C78.1321 23.139 78.3084 23.1037 78.4495 23.0685C78.6259 23.0332 78.767 23.0332 78.9081 23.0332C79.1197 23.0332 79.2608 23.0685 79.4019 23.139C79.543 23.2096 79.6488 23.2801 79.7546 23.3859C79.8252 23.4918 79.8957 23.6329 79.931 23.7739C79.9663 23.915 80.0016 24.0914 80.0016 24.2678C80.0016 24.4441 79.9663 24.5852 79.931 24.7263C79.8957 24.8674 79.8252 25.0085 79.7194 25.1143C79.6488 25.2202 79.5077 25.326 79.4019 25.3613C79.2608 25.4318 79.1197 25.4671 78.9434 25.4671C78.8728 25.4671 78.767 25.4671 78.6964 25.4671C78.6259 25.4671 78.5201 25.4318 78.4142 25.4318V26.2784H78.4848ZM79.543 24.2678C79.543 24.1267 79.543 24.0209 79.5077 23.915C79.4725 23.8092 79.4372 23.7387 79.3666 23.6681C79.2961 23.5976 79.2608 23.5623 79.155 23.527C79.0844 23.4918 78.9786 23.4918 78.9081 23.4918C78.8375 23.4918 78.767 23.4918 78.6964 23.527C78.6259 23.527 78.5553 23.5623 78.4848 23.5623V24.9732C78.5906 25.0085 78.6612 25.0085 78.7317 25.0085C78.8023 25.0085 78.8728 25.0085 78.9434 25.0085C79.0139 25.0085 79.1197 25.0085 79.1903 24.9732C79.2608 24.938 79.3314 24.9027 79.3666 24.8321C79.4372 24.7616 79.4725 24.6911 79.5077 24.5852C79.543 24.5147 79.543 24.4089 79.543 24.2678Z" fill="#415364"/>
<path d="M83.4935 25.185C83.4935 25.2555 83.4582 25.2908 83.4229 25.3261C83.3524 25.3614 83.2818 25.3966 83.2113 25.3966C83.1407 25.4319 83.0702 25.4319 82.9644 25.4319C82.8938 25.4319 82.788 25.4672 82.7175 25.4672C82.6469 25.4672 82.5764 25.4672 82.5058 25.4672C82.2942 25.4672 82.1531 25.4319 82.012 25.3966C81.8709 25.3614 81.7651 25.2908 81.6946 25.2203C81.624 25.1497 81.5535 25.0792 81.5182 24.9734C81.4829 24.8675 81.4829 24.797 81.4829 24.6912C81.4829 24.5854 81.4829 24.4795 81.5182 24.3737C81.5535 24.2679 81.624 24.1973 81.6946 24.1268C81.7651 24.0563 81.8709 23.9857 82.012 23.9504C82.1531 23.9152 82.2942 23.8799 82.4706 23.8799H82.9644V23.8093C82.9644 23.7388 82.9644 23.7035 82.9291 23.6682C82.9291 23.633 82.8938 23.5624 82.8586 23.5271C82.8233 23.4919 82.788 23.4566 82.7175 23.4566C82.6469 23.4213 82.5764 23.4213 82.4706 23.4213C82.3647 23.4213 82.2589 23.4213 82.1531 23.4566C82.0473 23.4919 81.9415 23.4919 81.8709 23.5271C81.8356 23.5271 81.8004 23.5271 81.8004 23.5271L81.7651 23.4919L81.6946 23.245C81.6946 23.2097 81.6945 23.1744 81.7298 23.1391C81.8709 23.1039 81.9767 23.0686 82.1531 23.0333C82.2942 22.998 82.4353 22.998 82.5764 22.998C82.8938 22.998 83.1055 23.0686 83.2466 23.2097C83.3877 23.3508 83.4582 23.5624 83.4582 23.8093V25.185H83.4935ZM82.9644 24.3384H82.5411C82.5058 24.3384 82.4353 24.3384 82.3647 24.3384C82.2942 24.3384 82.2589 24.3737 82.1884 24.3737C82.1531 24.409 82.0826 24.4443 82.0473 24.4795C82.012 24.5148 82.012 24.5854 82.012 24.6912C82.012 24.8323 82.0473 24.9028 82.1531 24.9734C82.2236 25.0086 82.3647 25.0439 82.5058 25.0439C82.5411 25.0439 82.5411 25.0439 82.5764 25.0439C82.6117 25.0439 82.6469 25.0439 82.6822 25.0439C82.7175 25.0439 82.7527 25.0439 82.8233 25.0086C82.8586 25.0086 82.9291 24.9734 82.9644 24.9734V24.3384Z" fill="#415364"/>
<path d="M85.6093 26.2784C85.6093 26.3136 85.6093 26.3489 85.574 26.3489C85.574 26.3489 85.5387 26.3489 85.5035 26.3489H85.1507C85.1155 26.3489 85.1155 26.3489 85.0802 26.3489C85.0802 26.3489 85.0449 26.3136 85.0449 26.2784V23.3154C85.0449 23.2801 85.0449 23.2801 85.0449 23.2448C85.0449 23.2448 85.0802 23.2096 85.1155 23.2096C85.2566 23.139 85.4329 23.1037 85.574 23.0685C85.7504 23.0332 85.8915 23.0332 86.0326 23.0332C86.2442 23.0332 86.3853 23.0685 86.5264 23.139C86.6675 23.2096 86.7733 23.2801 86.8791 23.3859C86.9497 23.4918 87.0202 23.6329 87.0555 23.7739C87.0908 23.915 87.1261 24.0914 87.1261 24.2678C87.1261 24.4441 87.0908 24.5852 87.0555 24.7263C87.0202 24.8674 86.9497 25.0085 86.8439 25.1143C86.7733 25.2202 86.6322 25.326 86.5264 25.3613C86.3853 25.4318 86.2442 25.4671 86.0679 25.4671C85.9973 25.4671 85.8915 25.4671 85.8209 25.4671C85.7504 25.4671 85.6446 25.4318 85.5387 25.4318V26.2784H85.6093ZM86.6675 24.2678C86.6675 24.1267 86.6675 24.0209 86.6322 23.915C86.597 23.8092 86.5617 23.7387 86.4911 23.6681C86.4206 23.5976 86.3853 23.5623 86.2795 23.527C86.2089 23.4918 86.1031 23.4918 86.0326 23.4918C85.962 23.4918 85.8915 23.4918 85.8209 23.527C85.7504 23.527 85.6798 23.5623 85.6093 23.5623V24.9732C85.7151 25.0085 85.7857 25.0085 85.8562 25.0085C85.9268 25.0085 85.9973 25.0085 86.0679 25.0085C86.1384 25.0085 86.2442 25.0085 86.3148 24.9732C86.3853 24.938 86.4559 24.9027 86.4911 24.8321C86.5617 24.7616 86.597 24.6911 86.6322 24.5852C86.6322 24.5147 86.6675 24.4089 86.6675 24.2678Z" fill="#415364"/>
<path d="M89.2057 25.4318C89.2057 25.4318 89.1705 25.4318 89.1352 25.4318H88.8177C88.7825 25.4318 88.7472 25.4318 88.7472 25.3965C88.7472 25.3965 88.7119 25.3613 88.7119 25.326V23.139C88.7119 23.1037 88.7119 23.0685 88.7472 23.0685C88.7472 23.0685 88.7825 23.0332 88.8177 23.0332H89.1352C89.1705 23.0332 89.2057 23.0332 89.2057 23.0332C89.2057 23.0332 89.241 23.0685 89.241 23.1037V23.9856H90.2287V23.1743C90.2287 23.139 90.2287 23.1037 90.2639 23.1037C90.2639 23.1037 90.2992 23.0685 90.3345 23.0685H90.652C90.6872 23.0685 90.7225 23.0685 90.7225 23.0685C90.7225 23.0685 90.7578 23.1037 90.7578 23.139V25.326C90.7578 25.3613 90.7578 25.3965 90.7225 25.3965C90.7225 25.3965 90.6872 25.3965 90.652 25.3965H90.2992C90.2639 25.3965 90.2287 25.3965 90.2287 25.3613C90.2287 25.3613 90.1934 25.326 90.1934 25.2907V24.3383H89.2057V25.2907C89.2057 25.3965 89.2057 25.4318 89.2057 25.4318Z" fill="#415364"/>
<path d="M92.9806 22.4688C92.9806 22.5747 92.9454 22.6452 92.8748 22.6805C92.8043 22.751 92.7337 22.7863 92.6632 22.7863C92.5574 22.7863 92.4868 22.751 92.4515 22.6805C92.381 22.6099 92.3457 22.5394 92.3457 22.4688C92.3457 22.363 92.381 22.2925 92.4515 22.2572C92.5221 22.1866 92.5926 22.1514 92.6632 22.1514C92.769 22.1514 92.8395 22.1866 92.8748 22.2572C92.9454 22.3277 92.9806 22.3983 92.9806 22.4688ZM92.9101 25.3613C92.9101 25.3965 92.9101 25.4318 92.8748 25.4318C92.8748 25.4318 92.8395 25.4318 92.8043 25.4318H92.4515C92.4163 25.4318 92.4163 25.4318 92.381 25.4318C92.381 25.4318 92.3457 25.3965 92.3457 25.3613V23.1743C92.3457 23.139 92.3457 23.1038 92.381 23.1038C92.381 23.1038 92.4163 23.1038 92.4515 23.1038H92.8043C92.8395 23.1038 92.8748 23.1038 92.8748 23.1038C92.8748 23.1038 92.9101 23.139 92.9101 23.1743V25.3613Z" fill="#415364"/>
<path d="M98.0244 23.2448C98.2007 23.2448 98.3418 23.2801 98.4476 23.3154C98.5535 23.3859 98.6593 23.4565 98.7298 23.5623C98.8004 23.6681 98.8356 23.774 98.8709 23.915C98.9062 24.0561 98.9062 24.1972 98.9062 24.3383C98.9062 24.4794 98.8709 24.6205 98.8356 24.7263C98.8004 24.8674 98.7298 24.9732 98.6593 25.0791C98.5887 25.1849 98.4476 25.2907 98.3065 25.3613C98.1655 25.4318 97.9891 25.4671 97.7774 25.4671C97.5305 25.4671 97.3542 25.4318 97.2131 25.3613C97.072 25.2907 96.9662 25.1849 96.8956 25.0791C96.8251 24.9732 96.7545 24.8322 96.7545 24.6911C96.7192 24.55 96.7192 24.4089 96.7192 24.2678C96.7192 23.9856 96.7192 23.7387 96.7545 23.527C96.7898 23.3154 96.8251 23.1038 96.8956 22.9627C96.9662 22.7863 97.072 22.6805 97.1778 22.5394C97.3189 22.4336 97.46 22.363 97.6716 22.2925C97.7422 22.2572 97.7774 22.2572 97.848 22.2572C97.9185 22.2572 97.9891 22.2219 98.0596 22.2219C98.1302 22.2219 98.2007 22.1866 98.2713 22.1866C98.3418 22.1866 98.4124 22.1514 98.4829 22.1514C98.5182 22.1514 98.5182 22.1514 98.5535 22.1514C98.5535 22.1514 98.5887 22.1866 98.5887 22.2219L98.6593 22.5041C98.6593 22.5394 98.6593 22.5746 98.6593 22.5746L98.624 22.6099L98.0949 22.7157C97.9538 22.751 97.8127 22.7863 97.7422 22.8216C97.6363 22.8568 97.5658 22.8921 97.5305 22.9627C97.46 23.0332 97.4247 23.1038 97.4247 23.1743C97.3894 23.2448 97.3894 23.3507 97.3542 23.4565C97.46 23.3859 97.5658 23.3507 97.7069 23.3154C97.848 23.2448 97.9538 23.2448 98.0244 23.2448ZM97.848 25.0438C97.9538 25.0438 98.0596 25.0085 98.1302 24.9733C98.2007 24.938 98.2713 24.8674 98.3065 24.7969C98.3418 24.7263 98.3771 24.6558 98.4124 24.5852C98.4476 24.5147 98.4476 24.4089 98.4476 24.3383C98.4476 24.2325 98.4476 24.162 98.4124 24.0914C98.4124 24.0209 98.3771 23.9503 98.3418 23.8798C98.3065 23.8092 98.236 23.774 98.2007 23.7387C98.1302 23.7034 98.0596 23.6681 97.9538 23.6681C97.848 23.6681 97.7774 23.6681 97.6363 23.7034C97.5305 23.7387 97.4247 23.7739 97.3542 23.8445C97.3542 23.9503 97.3189 24.0561 97.3189 24.1267C97.3189 24.1972 97.3189 24.2678 97.3189 24.3383C97.3189 24.4441 97.3189 24.5147 97.3542 24.6205C97.3894 24.6911 97.3894 24.7616 97.46 24.8322C97.4952 24.9027 97.5658 24.938 97.6363 24.9733C97.6363 25.0438 97.7422 25.0438 97.848 25.0438Z" fill="#415364"/>
<path d="M100.953 26.2784C100.953 26.3136 100.953 26.3489 100.918 26.3489C100.918 26.3489 100.882 26.3489 100.847 26.3489H100.494C100.459 26.3489 100.459 26.3489 100.424 26.3489C100.424 26.3489 100.389 26.3136 100.389 26.2784V23.3154C100.389 23.2801 100.389 23.2801 100.389 23.2448C100.389 23.2448 100.424 23.2096 100.459 23.2096C100.6 23.139 100.777 23.1037 100.918 23.0685C101.094 23.0332 101.235 23.0332 101.376 23.0332C101.588 23.0332 101.729 23.0685 101.87 23.139C102.011 23.2096 102.117 23.2801 102.223 23.3859C102.293 23.4918 102.364 23.6329 102.399 23.7739C102.435 23.915 102.47 24.0914 102.47 24.2678C102.47 24.4441 102.435 24.5852 102.399 24.7263C102.364 24.8674 102.293 25.0085 102.188 25.1143C102.117 25.2202 101.976 25.326 101.87 25.3613C101.729 25.4318 101.588 25.4671 101.412 25.4671C101.341 25.4671 101.235 25.4671 101.165 25.4671C101.094 25.4671 100.988 25.4318 100.882 25.4318V26.2784H100.953ZM102.011 24.2678C102.011 24.1267 102.011 24.0209 101.976 23.915C101.941 23.8092 101.905 23.7387 101.835 23.6681C101.764 23.5976 101.729 23.5623 101.623 23.527C101.553 23.4918 101.447 23.4918 101.376 23.4918C101.306 23.4918 101.235 23.4918 101.165 23.527C101.094 23.527 101.024 23.5623 100.953 23.5623V24.9732C101.059 25.0085 101.129 25.0085 101.2 25.0085C101.271 25.0085 101.341 25.0085 101.412 25.0085C101.482 25.0085 101.588 25.0085 101.659 24.9732C101.729 24.938 101.8 24.9027 101.835 24.8321C101.905 24.7616 101.941 24.6911 101.976 24.5852C101.976 24.5147 102.011 24.4089 102.011 24.2678Z" fill="#415364"/>
<path d="M105.045 23.0332C105.398 23.0332 105.645 23.1037 105.821 23.2801C105.998 23.4565 106.068 23.7034 106.068 24.0209C106.068 24.0914 106.068 24.162 106.033 24.1972C105.998 24.2325 105.998 24.303 105.962 24.303C105.927 24.3383 105.892 24.3383 105.857 24.3736C105.821 24.3736 105.751 24.4089 105.716 24.4089H104.516C104.516 24.5147 104.552 24.6205 104.587 24.6911C104.622 24.7616 104.657 24.8321 104.728 24.8674C104.798 24.9027 104.834 24.938 104.94 24.9732C105.01 25.0085 105.081 25.0085 105.186 25.0085C105.292 25.0085 105.363 25.0085 105.469 24.9732C105.574 24.938 105.645 24.938 105.716 24.9027C105.751 24.8674 105.786 24.9027 105.821 24.938L105.927 25.1849C105.962 25.2202 105.927 25.2554 105.892 25.2907C105.786 25.3612 105.645 25.3965 105.504 25.4318C105.363 25.4671 105.257 25.4671 105.116 25.4671C104.763 25.4671 104.481 25.3613 104.305 25.1849C104.128 25.0085 104.022 24.6911 104.022 24.2678C104.022 24.0561 104.058 23.8798 104.093 23.7387C104.164 23.5976 104.234 23.4565 104.305 23.3507C104.41 23.2448 104.516 23.1743 104.657 23.1037C104.728 23.0685 104.869 23.0332 105.045 23.0332ZM105.045 23.4565C104.975 23.4565 104.904 23.4565 104.834 23.4918C104.763 23.527 104.728 23.5623 104.657 23.6329C104.622 23.7034 104.587 23.7387 104.552 23.8092C104.516 23.8798 104.516 23.9503 104.516 24.0209H105.539C105.539 23.9503 105.539 23.8798 105.504 23.8092C105.504 23.7387 105.469 23.6681 105.433 23.6329C105.398 23.5976 105.363 23.527 105.292 23.527C105.222 23.4918 105.151 23.4565 105.045 23.4565Z" fill="#415364"/>
<path d="M108.044 25.4318C108.044 25.4318 108.008 25.4318 107.973 25.4318H107.656C107.62 25.4318 107.585 25.4318 107.585 25.3965C107.585 25.3965 107.55 25.3613 107.55 25.326V23.139C107.55 23.1037 107.55 23.0685 107.585 23.0685C107.585 23.0685 107.62 23.0332 107.656 23.0332H107.973C108.008 23.0332 108.044 23.0332 108.044 23.0332C108.044 23.0332 108.079 23.0685 108.079 23.1037V23.9856H109.067V23.1743C109.067 23.139 109.067 23.1037 109.102 23.1037C109.102 23.1037 109.137 23.0685 109.172 23.0685H109.49C109.525 23.0685 109.56 23.0685 109.56 23.0685C109.56 23.0685 109.596 23.1037 109.596 23.139V25.326C109.596 25.3613 109.596 25.3965 109.56 25.3965C109.56 25.3965 109.525 25.3965 109.49 25.3965H109.172C109.137 25.3965 109.102 25.3965 109.102 25.3613C109.102 25.3613 109.067 25.326 109.067 25.2907V24.3383H108.079V25.2907C108.044 25.3965 108.044 25.4318 108.044 25.4318Z" fill="#415364"/>
<path d="M111.148 25.0083C111.183 24.973 111.218 24.9377 111.254 24.9025C111.289 24.8672 111.289 24.7966 111.324 24.7614C111.36 24.6908 111.36 24.6555 111.36 24.585C111.36 24.5145 111.395 24.4439 111.395 24.3734L111.536 23.3504C111.536 23.2799 111.571 23.2093 111.606 23.1741C111.642 23.1388 111.712 23.1035 111.818 23.1035H112.947C113.053 23.1035 113.123 23.1388 113.158 23.1741C113.194 23.2093 113.194 23.2799 113.194 23.3504V25.0436H113.335C113.405 25.0436 113.441 25.0788 113.441 25.1141C113.441 25.1494 113.476 25.1847 113.476 25.2199L113.405 26.1018C113.405 26.137 113.37 26.1723 113.335 26.1723H113.017C112.982 26.1723 112.947 26.137 112.947 26.1018L112.912 25.4668H111.324C111.324 25.5727 111.324 25.6785 111.289 25.7843C111.289 25.8901 111.289 25.9959 111.254 26.1018C111.254 26.137 111.218 26.1723 111.183 26.1723H110.866C110.83 26.1723 110.795 26.137 110.795 26.1018L110.725 25.2199C110.725 25.1847 110.725 25.1494 110.76 25.1141C110.76 25.0788 110.83 25.0788 110.866 25.0436L111.148 25.0083ZM112.735 23.5268H112.03L111.959 24.197C111.924 24.3381 111.924 24.4439 111.924 24.5497C111.924 24.6555 111.889 24.7261 111.889 24.7614C111.889 24.8319 111.853 24.8672 111.818 24.9025C111.783 24.9377 111.783 24.973 111.748 25.0083H112.77V23.5268H112.735Z" fill="#415364"/>
<path d="M114.956 23.1743C114.956 23.139 114.956 23.1037 114.991 23.1037C114.991 23.1037 115.027 23.1037 115.062 23.1037H115.415C115.45 23.1037 115.485 23.1037 115.485 23.1037C115.485 23.1037 115.52 23.139 115.52 23.1743V24.6911H115.556L115.838 24.2325C115.873 24.1972 115.873 24.162 115.908 24.1267C115.944 24.0914 115.979 24.0209 116.014 23.9503C116.05 23.8798 116.12 23.7739 116.191 23.6681C116.261 23.5623 116.367 23.3859 116.508 23.1743C116.543 23.1037 116.579 23.0685 116.614 23.0685C116.649 23.0332 116.684 23.0332 116.755 23.0332H116.931C117.002 23.0332 117.037 23.0332 117.108 23.0685C117.143 23.1037 117.178 23.139 117.178 23.2448V25.326C117.178 25.3613 117.178 25.3965 117.143 25.3965C117.143 25.3965 117.108 25.3965 117.072 25.3965H116.72C116.684 25.3965 116.684 25.3965 116.649 25.3965C116.649 25.3965 116.614 25.3613 116.614 25.326V23.8092H116.579L116.296 24.2325L115.662 25.2554C115.626 25.326 115.591 25.3613 115.556 25.3613C115.52 25.3965 115.485 25.3965 115.415 25.3965H115.274C115.132 25.3965 115.062 25.326 115.062 25.1849V23.1743H114.956Z" fill="#415364"/>
<path d="M35.5898 8.43051C35.5898 8.32469 35.6251 8.25414 35.6604 8.21887C35.6957 8.18359 35.8015 8.18359 35.872 8.18359H36.8597C36.9655 8.18359 37.0713 8.18359 37.1066 8.21887C37.1419 8.25414 37.1771 8.32469 37.1771 8.43051V14.9561C37.1771 15.3088 37.2477 15.5205 37.4241 15.6616C37.6004 15.8027 37.8121 15.8732 38.1295 15.8732H41.6216C41.7274 15.8732 41.7627 15.8732 41.798 15.9085C41.8332 15.9438 41.8332 16.0143 41.8332 16.1201V17.0372C41.8332 17.1078 41.8332 17.1783 41.798 17.2136C41.7627 17.2489 41.7274 17.2841 41.6216 17.2841H37.8826C37.4241 17.2841 37.0713 17.2136 36.7539 17.0725C36.4717 16.9314 36.2248 16.755 36.0484 16.5434C35.872 16.3318 35.7662 16.0848 35.6957 15.8027C35.6251 15.5205 35.5898 15.2383 35.5898 14.9208V8.43051Z" fill="#415364"/>
<path d="M48.7833 15.309H45.4675L44.9032 17.0726C44.8679 17.1432 44.8326 17.2137 44.7974 17.249C44.7621 17.2843 44.6563 17.2843 44.5857 17.2843H43.3864C43.2806 17.2843 43.2453 17.249 43.21 17.2137C43.1748 17.1432 43.1748 17.1079 43.21 17.0374L46.0319 8.78336C46.0672 8.64227 46.1025 8.53645 46.173 8.4659C46.2083 8.39535 46.2788 8.3248 46.3494 8.28953C46.4199 8.25426 46.4905 8.21898 46.561 8.18371C46.6316 8.14844 46.7374 8.14844 46.8785 8.14844H47.4429C47.7251 8.14844 47.9014 8.18371 48.0072 8.28953C48.1131 8.36008 48.2189 8.53645 48.2894 8.78336L51.1113 17.0374C51.1466 17.1079 51.1466 17.1784 51.1113 17.2137C51.076 17.2843 51.0408 17.2843 50.9349 17.2843H49.7356C49.6298 17.2843 49.5593 17.2843 49.524 17.249C49.4535 17.2137 49.4182 17.1784 49.3829 17.0726L48.7833 15.309ZM45.8556 13.9333H48.36L47.6898 11.7463L47.1254 9.91211H47.0549L46.5258 11.7111L45.8556 13.9333Z" fill="#415364"/>
<path d="M59.1182 9.48773C59.0829 9.52301 59.0124 9.52301 58.9418 9.52301H56.4727V17.001C56.4727 17.1068 56.4374 17.2126 56.4021 17.2126C56.3669 17.2479 56.2963 17.2479 56.1552 17.2479H55.1323C55.0265 17.2479 54.9559 17.2479 54.9206 17.2126C54.8854 17.1773 54.8501 17.1068 54.8501 17.001V9.55828H52.4162C52.3104 9.55828 52.2751 9.55828 52.2399 9.52301C52.2046 9.48773 52.2046 9.41719 52.2046 9.34664V8.42953C52.2046 8.32371 52.2046 8.25316 52.2399 8.21789C52.2751 8.18262 52.3104 8.18262 52.4162 8.18262H58.9418C59.0476 8.18262 59.0829 8.18262 59.1182 8.21789C59.1535 8.25316 59.1535 8.32371 59.1535 8.42953V9.34664C59.1887 9.41719 59.1535 9.45246 59.1182 9.48773Z" fill="#415364"/>
<path d="M62.9992 17.2489C62.9639 17.2841 62.8581 17.2841 62.7523 17.2841H61.7646C61.6588 17.2841 61.5882 17.2841 61.553 17.2489C61.5177 17.2136 61.4824 17.1431 61.4824 17.0372V8.43051C61.4824 8.32469 61.5177 8.25414 61.553 8.21887C61.5882 8.18359 61.6941 8.18359 61.7646 8.18359H62.7523C62.8581 8.18359 62.9639 8.18359 62.9992 8.21887C63.0345 8.25414 63.0697 8.32469 63.0697 8.43051V17.002C63.0697 17.1431 63.0345 17.2136 62.9992 17.2489Z" fill="#415364"/>
<path d="M70.9678 15.309H67.6521L67.0877 17.0726C67.0525 17.1432 67.0172 17.2137 66.9819 17.249C66.9466 17.2843 66.8408 17.2843 66.7703 17.2843H65.571C65.4652 17.2843 65.4299 17.249 65.3946 17.2137C65.3593 17.1432 65.3593 17.1079 65.3946 17.0374L68.2165 8.78336C68.2518 8.64227 68.287 8.53645 68.3576 8.4659C68.3929 8.39535 68.4634 8.3248 68.534 8.28953C68.6045 8.25426 68.675 8.21898 68.7456 8.18371C68.8161 8.14844 68.922 8.14844 69.0631 8.14844H69.6274C69.9096 8.14844 70.086 8.18371 70.1918 8.28953C70.2976 8.36008 70.4034 8.53645 70.474 8.78336L73.2959 17.0374C73.3311 17.1079 73.3311 17.1784 73.2959 17.2137C73.2606 17.2843 73.2253 17.2843 73.1195 17.2843H71.9202C71.8144 17.2843 71.7438 17.2843 71.7086 17.249C71.638 17.2137 71.6027 17.1784 71.5675 17.0726L70.9678 15.309ZM68.0401 13.9333H70.5445L69.8743 11.7463L69.31 9.91211H69.2394L68.7103 11.7111L68.0401 13.9333Z" fill="#0093C9"/>
<path d="M79.3289 16.0137C79.3994 16.0137 79.47 16.0137 79.5758 16.0137C79.6816 16.0137 79.8227 16.0137 79.9285 15.9784C80.0696 15.9784 80.2107 15.9431 80.3518 15.9079C80.4929 15.8726 80.634 15.8373 80.7751 15.7668V13.2976C80.7398 13.2976 80.6693 13.2976 80.5987 13.2976C80.5282 13.2976 80.4929 13.2976 80.4224 13.2976C79.858 13.2976 79.3289 13.4034 78.7292 13.6504C78.6234 13.6856 78.5529 13.7209 78.5176 13.7209C78.4823 13.7209 78.4118 13.6856 78.3765 13.5798L78.059 12.7685C78.0238 12.698 78.0238 12.6274 78.0238 12.5922C78.0238 12.5569 78.0943 12.4863 78.1649 12.4511C78.447 12.2747 78.7998 12.1336 79.2231 12.0278C79.6463 11.922 80.0344 11.8867 80.4224 11.8867C80.634 11.8867 80.8456 11.8867 80.9867 11.922C81.1278 11.922 81.2689 11.9572 81.41 11.9925C81.798 12.0631 82.0449 12.2041 82.186 12.3805C82.3271 12.5569 82.3977 12.8743 82.3977 13.2623V16.2959C82.3977 16.4017 82.3977 16.4722 82.3624 16.5781C82.3271 16.6486 82.2566 16.7191 82.1508 16.7897C81.9038 16.9308 81.6569 17.0719 81.3395 17.1424C81.0573 17.2482 80.7751 17.3188 80.4929 17.3541C80.2107 17.3893 79.9638 17.4246 79.7169 17.4599C79.47 17.4599 79.2936 17.4952 79.1525 17.4952C77.8474 17.4952 76.8245 17.1072 76.1543 16.3311C75.4841 15.5551 75.1313 14.3911 75.1313 12.8743C75.1313 12.1689 75.2372 11.4987 75.4135 10.899C75.5899 10.2994 75.8721 9.80555 76.2248 9.38227C76.5776 8.95899 77.0008 8.64152 77.5299 8.42988C78.0238 8.21824 78.6234 8.07715 79.2583 8.07715C79.6463 8.07715 80.0696 8.11242 80.5282 8.18297C80.9515 8.25352 81.41 8.39461 81.8333 8.64152C81.9038 8.6768 81.9391 8.71207 81.9744 8.78262C82.0097 8.81789 81.9744 8.92371 81.9038 9.02953L81.5511 9.84082C81.5158 9.91137 81.4806 9.98192 81.4453 10.0172C81.41 10.0525 81.3395 10.0172 81.2336 9.98192C80.9515 9.8761 80.634 9.77027 80.3165 9.69973C79.9991 9.62918 79.6463 9.59391 79.3289 9.59391C78.8703 9.59391 78.4823 9.69973 78.1649 9.8761C77.8474 10.0525 77.6005 10.2994 77.3888 10.5816C77.1772 10.899 77.0361 11.2165 76.9656 11.6398C76.8597 12.0278 76.8245 12.4511 76.8245 12.9096C76.8245 13.3682 76.8597 13.7562 76.9303 14.1442C77.0008 14.5322 77.1419 14.8497 77.3183 15.1671C77.4947 15.4493 77.7769 15.6609 78.0943 15.8373C78.447 15.9079 78.8351 16.0137 79.3289 16.0137Z" fill="#0093C9"/>
<path d="M91.4281 17.2137C91.3928 17.249 91.3223 17.2843 91.2164 17.2843H87.4775C87.0189 17.2843 86.6309 17.2137 86.3487 17.0726C86.0665 16.9315 85.8196 16.7552 85.6432 16.5435C85.4669 16.3319 85.3258 16.085 85.2552 15.8028C85.1847 15.5206 85.1494 15.2384 85.1494 14.9209V10.5118C85.1494 10.1943 85.1847 9.91211 85.2905 9.62992C85.3611 9.34774 85.5021 9.10082 85.6785 8.88918C85.8549 8.67754 86.1018 8.50117 86.4193 8.36008C86.7014 8.21898 87.0542 8.14844 87.4775 8.14844H91.1106C91.2164 8.14844 91.287 8.18371 91.3223 8.21898C91.3575 8.25426 91.3575 8.36008 91.3575 8.43062V9.24192C91.3575 9.34774 91.3575 9.41828 91.3223 9.45356C91.287 9.48883 91.2164 9.5241 91.1106 9.5241H87.6538C87.3364 9.5241 87.0895 9.59465 86.9484 9.73574C86.8073 9.87684 86.7367 10.0885 86.7367 10.3707V11.7463H90.6873C90.7932 11.7463 90.8637 11.7816 90.899 11.8169C90.9343 11.8522 90.9342 11.958 90.9342 12.0638V12.7693C90.9342 12.8751 90.9343 12.9456 90.899 12.9809C90.8637 13.0162 90.7932 13.0514 90.6873 13.0514H86.7367V14.9562C86.7367 15.2384 86.8073 15.45 86.9484 15.5911C87.0895 15.7322 87.3364 15.8028 87.6186 15.8028H91.1812C91.287 15.8028 91.3928 15.8381 91.3928 15.8733C91.4281 15.9086 91.4281 16.0144 91.4281 16.1202V16.9315C91.4634 17.0726 91.4634 17.1784 91.4281 17.2137Z" fill="#0093C9"/>
<path d="M95.4847 10.5469V17.0372C95.4847 17.1431 95.4494 17.2489 95.4141 17.2489C95.3788 17.2841 95.3083 17.2841 95.1672 17.2841H94.2148C94.109 17.2841 94.0384 17.2841 94.0032 17.2489C93.9679 17.2136 93.9326 17.1431 93.9326 17.0372V8.95961C93.9326 8.67742 94.0032 8.46578 94.109 8.35996C94.2148 8.21887 94.4265 8.18359 94.7086 8.18359H95.1672C95.3788 8.18359 95.5552 8.21887 95.661 8.32469C95.7668 8.39523 95.8727 8.5716 96.0138 8.78324L98.624 13.0866L99.7175 14.9561H99.7527V8.43051C99.7527 8.32469 99.788 8.25414 99.8233 8.21887C99.8586 8.18359 99.9291 8.18359 100.07 8.18359H101.023C101.128 8.18359 101.199 8.21887 101.27 8.21887C101.305 8.25414 101.34 8.32469 101.34 8.43051V16.5081C101.34 16.755 101.305 16.9667 101.199 17.0725C101.093 17.2136 100.882 17.2841 100.599 17.2841H100.141C100.035 17.2841 99.9291 17.2841 99.8586 17.2489C99.788 17.2489 99.7175 17.2136 99.6469 17.1431C99.5764 17.1078 99.5411 17.0372 99.4706 16.9667C99.4 16.8961 99.3647 16.7903 99.2942 16.6845L96.6487 12.4164L95.5552 10.5469H95.4847Z" fill="#0093C9"/>
<path d="M108.218 15.9788C108.606 15.9788 108.958 15.9435 109.311 15.8377C109.629 15.7318 109.946 15.6613 110.228 15.5202C110.334 15.4849 110.44 15.4497 110.475 15.4849C110.51 15.5202 110.546 15.5555 110.581 15.626L110.934 16.3668C111.004 16.4726 111.004 16.5784 111.004 16.6137C110.969 16.6489 110.934 16.7195 110.863 16.7548C110.405 17.0017 109.946 17.1781 109.452 17.2839C108.958 17.3544 108.465 17.425 108.006 17.425C106.701 17.425 105.678 17.037 105.008 16.2609C104.338 15.4849 103.985 14.3562 103.985 12.8041C103.985 12.0987 104.091 11.4285 104.302 10.8288C104.514 10.2292 104.796 9.73535 105.149 9.31207C105.502 8.88879 105.925 8.57133 106.454 8.32441C106.948 8.0775 107.512 7.97168 108.147 7.97168C108.535 7.97168 108.923 8.00695 109.346 8.0775C109.77 8.14805 110.193 8.28914 110.616 8.53606C110.687 8.57133 110.722 8.6066 110.757 8.67715C110.793 8.71242 110.757 8.81824 110.722 8.92406L110.369 9.66481C110.334 9.73535 110.299 9.8059 110.264 9.84117C110.228 9.87645 110.158 9.84117 110.052 9.8059C109.77 9.70008 109.488 9.59426 109.17 9.52371C108.888 9.45316 108.57 9.41789 108.218 9.41789C107.794 9.41789 107.406 9.52371 107.089 9.70008C106.771 9.87645 106.525 10.1234 106.313 10.4408C106.101 10.7583 105.96 11.111 105.854 11.499C105.749 11.887 105.713 12.3103 105.713 12.7689C105.713 13.1922 105.749 13.6154 105.854 14.0034C105.925 14.3914 106.066 14.7089 106.278 14.9911C106.489 15.2733 106.736 15.4849 107.089 15.6613C107.336 15.8729 107.724 15.9788 108.218 15.9788Z" fill="#0093C9"/>
<path d="M116.296 12.346L117.284 10.3001L118.271 8.36008C118.307 8.28953 118.342 8.21898 118.412 8.18371C118.448 8.14844 118.518 8.14844 118.589 8.14844H119.859C119.929 8.14844 119.964 8.18371 120 8.21898C120 8.25426 120 8.28953 120 8.36008L117.072 13.7922V17.0726C117.072 17.1784 117.037 17.2137 117.037 17.249C117.001 17.2843 116.931 17.2843 116.825 17.2843H115.732C115.661 17.2843 115.59 17.2843 115.555 17.249C115.52 17.2137 115.485 17.1432 115.485 17.0726V13.7922L112.486 8.36008C112.451 8.3248 112.451 8.28953 112.486 8.21898C112.486 8.18371 112.557 8.14844 112.628 8.14844H113.933C114.038 8.14844 114.109 8.14844 114.144 8.18371C114.18 8.21898 114.215 8.28953 114.285 8.36008L115.308 10.3707L116.261 12.346H116.296Z" fill="#0093C9"/>
</svg>
