<svg width="120" height="33" viewBox="0 0 120 33" fill="none" xmlns="http://www.w3.org/2000/svg">
<path d="M67.8937 30.7453C67.9106 30.6778 67.9106 30.6609 67.9274 30.5259H68.1805L68.1299 30.7453C68.2987 30.5259 68.5349 30.4922 68.653 30.4922C68.9399 30.4922 69.193 30.6947 69.0749 31.2009C68.9736 31.7071 68.6193 31.9265 68.2987 31.9265C68.0962 31.9265 67.9781 31.8421 67.9274 31.724L67.7756 32.399H67.5225L67.8937 30.7453ZM68.3155 31.7578C68.383 31.7578 68.518 31.7409 68.6362 31.6228C68.7543 31.4878 68.8218 31.3021 68.8386 31.2009C68.8893 30.9478 68.8724 30.6947 68.5687 30.6947C68.1637 30.6947 68.0624 31.1334 68.0456 31.2515C67.9949 31.4203 67.9443 31.7578 68.3155 31.7578Z" fill="#000001"/>
<path d="M70.2033 30.4922C70.7433 30.4922 70.7771 30.914 70.7265 31.2009C70.6421 31.6059 70.3383 31.9265 69.8827 31.9265C69.4271 31.9265 69.2753 31.6059 69.3596 31.2178C69.4271 30.8803 69.6634 30.4922 70.2033 30.4922ZM69.9165 31.7409C70.1021 31.7409 70.3552 31.6059 70.4396 31.2009C70.5071 30.8634 70.389 30.6778 70.1527 30.6778C69.984 30.6778 69.6971 30.779 69.6127 31.2009C69.5621 31.4878 69.6296 31.7409 69.9165 31.7409Z" fill="#000001"/>
<path d="M71.334 30.5254L71.4352 31.6053L72.0089 30.5254H72.3464L72.4308 31.6053L73.0045 30.5254H73.2576L72.4983 31.8922H72.1945L72.1102 30.7616L71.5196 31.8922H71.2158L71.064 30.5254H71.334Z" fill="#000001"/>
<path d="M73.527 31.2515C73.4595 31.5384 73.527 31.7409 73.8138 31.7409C73.9826 31.7409 74.1345 31.6565 74.1851 31.454H74.4382C74.4213 31.5215 74.3876 31.6396 74.2695 31.7409C74.202 31.8084 74.0332 31.9265 73.7632 31.9265C73.3414 31.9265 73.1895 31.6565 73.2739 31.2347C73.3245 30.9647 73.4426 30.7453 73.6789 30.5934C73.8307 30.5091 73.9995 30.4922 74.067 30.4922C74.6744 30.4922 74.5563 31.0322 74.5057 31.2515H73.527ZM74.2863 31.0828C74.3201 30.9478 74.3538 30.6778 74.0332 30.6778C73.8645 30.6778 73.6451 30.779 73.5776 31.0828H74.2863Z" fill="#000001"/>
<path d="M74.996 30.7953C75.0129 30.711 75.0298 30.6097 75.0466 30.5254H75.2997L75.2491 30.7953C75.3335 30.6097 75.5191 30.5422 75.6372 30.5254C75.7216 30.5085 75.7722 30.5085 75.8228 30.5254L75.7722 30.7785C75.7553 30.7785 75.7385 30.7785 75.7216 30.7616C75.7047 30.7616 75.671 30.7616 75.6541 30.7616C75.3504 30.7616 75.2491 30.9472 75.1985 31.1666L75.0466 31.8922H74.7598L74.996 30.7953Z" fill="#000001"/>
<path d="M76.0931 31.2515C76.0256 31.5384 76.0931 31.7409 76.38 31.7409C76.5487 31.7409 76.7006 31.6565 76.7681 31.454H77.0212C77.0043 31.5215 76.9706 31.6396 76.8525 31.7409C76.785 31.8084 76.6162 31.9265 76.3462 31.9265C75.9244 31.9265 75.7725 31.6565 75.8569 31.2347C75.9075 30.9647 76.0088 30.7453 76.2619 30.5934C76.4137 30.5091 76.5656 30.4922 76.65 30.4922C77.2574 30.4922 77.1393 31.0322 77.0887 31.2515H76.0931ZM76.8525 31.0828C76.8862 30.9478 76.92 30.6778 76.5993 30.6778C76.4306 30.6778 76.2112 30.779 76.1437 31.0828H76.8525Z" fill="#000001"/>
<path d="M78.6737 29.9355H78.9268L78.5556 31.6736C78.5556 31.7073 78.5387 31.8255 78.5218 31.893H78.2687L78.3025 31.6736C78.2687 31.7073 78.235 31.7748 78.1506 31.8255C78.0156 31.9098 77.8806 31.9267 77.7963 31.9267C77.6106 31.9267 77.2225 31.8255 77.3575 31.2349C77.4757 30.7118 77.8131 30.4924 78.1337 30.4924C78.4206 30.4924 78.4881 30.6611 78.505 30.7286L78.6737 29.9355ZM78.4037 30.813C78.37 30.7455 78.2687 30.678 78.1337 30.678C77.7625 30.678 77.6613 31.1336 77.6444 31.218C77.5938 31.4542 77.5938 31.7411 77.9144 31.7411C78.3194 31.7411 78.4037 31.3024 78.4375 31.1842C78.4544 30.9986 78.4375 30.8805 78.4037 30.813Z" fill="#000001"/>
<path d="M80.2272 30.7282C80.2778 30.6607 80.4128 30.492 80.7166 30.492C80.8516 30.492 81.0203 30.5257 81.1047 30.6607C81.1553 30.7451 81.2228 30.8801 81.1553 31.1669C81.1047 31.4369 81.0034 31.5719 80.9191 31.6563C80.7841 31.8082 80.5816 31.8925 80.3959 31.8925C80.3285 31.8925 80.2103 31.8925 80.1091 31.8082C80.0416 31.7575 80.0247 31.7069 80.0078 31.6732L79.9572 31.8757H79.7041L79.7547 31.6225L80.126 29.9014H80.3791L80.2272 30.7282ZM80.6322 30.6607C80.2441 30.6607 80.1428 31.1163 80.126 31.2007C80.1091 31.2851 80.0247 31.7238 80.3959 31.7238C80.7166 31.7238 80.8516 31.42 80.9022 31.2007C80.9359 31.0657 80.9865 30.6607 80.6322 30.6607Z" fill="#000001"/>
<path d="M81.9997 31.8922L81.696 32.3984H81.4429L81.7466 31.8922L81.4766 30.5254H81.7635L81.966 31.6053L82.6241 30.5254H82.8941L81.9997 31.8922Z" fill="#000001"/>
<path d="M81.6106 27.9443V28.5012H28.3218V28.6699H81.6106V29.2437H82.9099V27.9443H81.6106Z" fill="#A4A5A5"/>
<path d="M85.4251 27.9951L84.5476 30.425C84.2776 31.1675 84.3451 31.7749 85.1045 31.7749C85.8638 31.7749 86.37 31.1675 86.64 30.425L87.5175 27.9951H87.8718L86.9606 30.4925C86.505 31.7581 85.5938 32.0618 85.0032 32.0618C84.4126 32.0618 83.7208 31.7581 84.1933 30.4925L85.1045 27.9951H85.4251Z" fill="#848584"/>
<path d="M89.7604 29.4291C89.7773 28.9904 89.5073 28.906 89.2542 28.906C88.7817 28.906 88.478 29.1929 88.3767 29.446C88.2586 29.7835 88.3767 29.9016 88.6636 30.0197L89.0011 30.1547C89.4736 30.3572 89.7604 30.5428 89.5579 31.0996C89.3892 31.5721 88.9336 32.0277 88.1236 32.0277C87.4487 32.0277 87.2293 31.6396 87.2799 31.2009L87.6174 31.0996C87.6005 31.5215 87.7861 31.724 88.208 31.724C88.748 31.724 89.0686 31.454 89.2036 31.0996C89.3386 30.7453 89.1361 30.6103 88.8492 30.4922L88.478 30.3403C88.0561 30.1716 87.8368 29.9691 88.0224 29.4797C88.1911 29.0241 88.7142 28.6191 89.3723 28.6191C89.8785 28.6191 90.0979 28.8554 90.0979 29.3279L89.7604 29.4291Z" fill="#848584"/>
<path d="M90.5537 30.3907C90.3681 30.8969 90.1994 31.7406 91.0093 31.7406C91.583 31.7406 91.9374 31.3525 92.123 31.1163L92.3761 31.2344C91.853 31.9093 91.3468 32.0443 90.9249 32.0443C89.8112 32.0443 89.9969 30.9981 90.2669 30.2725C90.6212 29.2938 91.4143 28.6357 92.1905 28.6357C93.068 28.6357 93.1017 29.4457 92.798 30.2388L92.7305 30.4075H90.5537V30.3907ZM92.4774 30.1207C92.7474 29.3276 92.5449 28.9057 92.0386 28.9057C91.5662 28.9057 90.9587 29.3276 90.655 30.1207H92.4774Z" fill="#848584"/>
<path d="M95.111 31.9766H94.7904L94.9592 31.5041H94.9423C94.6217 31.8079 94.2336 32.0441 93.8286 32.0441C93.0186 32.0441 92.9005 31.2679 93.238 30.3398C93.4911 29.648 94.0479 28.6186 95.0267 28.6186C95.516 28.6186 95.6848 28.8717 95.8029 29.1586H95.8198L96.3766 27.623H96.6972L95.111 31.9766ZM95.6679 29.513C95.5666 29.1755 95.381 28.9392 94.976 28.9392C94.2842 28.9392 93.8117 29.6817 93.5923 30.2892C93.4067 30.7785 93.1705 31.7235 93.9636 31.7235C94.5542 31.7235 95.0604 31.1835 95.0773 31.1666L95.6679 29.513Z" fill="#848584"/>
<path d="M97.8616 28.6532H96.7817L97.0179 27.9951H100.038L99.8022 28.6532H98.7054L97.4904 31.9775H96.6636L97.8616 28.6532Z" fill="#A4A5A5"/>
<path d="M101.623 31.2008C101.286 31.6396 100.779 32.0446 100.02 32.0446C99.0752 32.0446 98.7208 31.3864 99.1258 30.2896C99.497 29.2602 100.307 28.5684 101.286 28.5684C102.231 28.5684 102.433 29.3277 102.113 30.2052L101.994 30.509H99.8514C99.6995 30.9139 99.632 31.4708 100.206 31.4708C100.577 31.4708 100.881 31.1839 101.016 30.9814L101.623 31.2008ZM101.387 29.969C101.589 29.429 101.454 29.1252 101.049 29.1421C100.56 29.1252 100.223 29.5471 100.037 29.969H101.387Z" fill="#A4A5A5"/>
<path d="M104.947 31.0658C104.66 31.4708 104.204 32.0446 103.276 32.0446C102.196 32.0446 102.162 31.1671 102.483 30.3233C102.837 29.3615 103.529 28.5684 104.576 28.5684C105.419 28.5684 105.537 29.2265 105.47 29.564L104.643 29.7665C104.761 29.4458 104.711 29.1421 104.356 29.1421C103.934 29.1421 103.614 29.5302 103.344 30.2558C103.091 30.9646 103.006 31.4708 103.512 31.4708C103.884 31.4708 104.171 31.1164 104.289 30.8802L104.947 31.0658Z" fill="#A4A5A5"/>
<path d="M106.499 27.9951L106.077 31.5219H106.094L108.22 27.9951H108.693L108.288 31.5219H108.304L110.464 27.9951H110.819L108.338 31.9775H107.899L108.304 28.4339H108.288L106.145 31.9775H105.689L106.128 27.9951H106.499Z" fill="#565655"/>
<path d="M112.172 28.6191C113.268 28.6191 113.117 29.6822 112.88 30.3403C112.577 31.1671 111.885 32.0277 110.94 32.0277C109.995 32.0277 109.927 31.1671 110.231 30.3403C110.467 29.6822 111.092 28.6191 112.172 28.6191ZM111.041 31.7577C111.648 31.7577 112.205 31.2684 112.56 30.2728C112.796 29.5978 112.779 28.906 112.07 28.906C111.362 28.906 110.839 29.5978 110.585 30.2728C110.231 31.2515 110.434 31.7577 111.041 31.7577Z" fill="#565655"/>
<path d="M114.161 28.6861H114.481L114.262 29.2767C114.802 28.8548 115.038 28.6692 115.578 28.6523L115.46 28.9898C114.903 29.0067 114.701 29.1417 114.144 29.631L113.3 31.9428H112.979L114.161 28.6861Z" fill="#565655"/>
<path d="M116.524 27.623H116.844L115.258 31.9766H114.938L116.524 27.623Z" fill="#565655"/>
<path d="M118.411 31.9766H118.091L118.259 31.5041H118.243C117.922 31.8079 117.534 32.0441 117.129 32.0441C116.319 32.0441 116.201 31.2679 116.538 30.3398C116.791 29.648 117.348 28.6186 118.327 28.6186C118.816 28.6186 118.985 28.8717 119.103 29.1586H119.12L119.677 27.623H119.997L118.411 31.9766ZM118.985 29.513C118.884 29.1755 118.698 28.9392 118.293 28.9392C117.601 28.9392 117.129 29.6817 116.91 30.2892C116.724 30.7785 116.488 31.7235 117.281 31.7235C117.871 31.7235 118.378 31.1835 118.394 31.1666L118.985 29.513Z" fill="#565655"/>
<path d="M12.3435 27.3365C12.3435 27.8933 9.67735 28.3152 6.42062 28.2814C3.14703 28.2477 0.514648 27.7752 0.514648 27.2183C0.514648 26.6615 3.18077 26.2396 6.4375 26.2734C9.69422 26.3071 12.3435 26.7796 12.3435 27.3365Z" fill="#D8D9D9"/>
<path d="M15.4132 1.72106C13.5402 1.68731 11.2284 2.0248 9.06851 2.63227H9.05163C8.89976 2.68289 8.73102 2.71664 8.57915 2.76726C8.56228 2.76726 8.5454 2.76726 8.5454 2.78414C8.24167 2.86851 7.93793 2.96975 7.6342 3.071C7.60045 3.08787 7.58357 3.08787 7.54983 3.10475C7.41483 3.15537 7.27984 3.20599 7.14484 3.25661C7.1111 3.27349 7.09422 3.27349 7.06047 3.29036C6.94235 3.34099 6.82423 3.39161 6.68924 3.42536C6.67237 3.42536 6.65549 3.44223 6.62174 3.44223C6.48675 3.49285 6.36863 3.54348 6.25051 3.5941C6.21676 3.61097 6.18301 3.62785 6.13239 3.64472C6.01427 3.69534 5.89615 3.74597 5.77803 3.81346C5.74428 3.83034 5.71054 3.84721 5.67679 3.86409C5.57554 3.91471 5.49117 3.96533 5.38993 3.99908C5.35618 4.01595 5.32243 4.03283 5.30555 4.0497C5.20431 4.10033 5.08619 4.16782 4.98494 4.21845C4.9512 4.23532 4.91745 4.25219 4.86682 4.28594C4.76558 4.33656 4.66433 4.40406 4.56309 4.47156C4.52934 4.48843 4.51247 4.50531 4.47872 4.52218C4.39435 4.5728 4.30998 4.62343 4.2256 4.67405C4.19186 4.69092 4.17498 4.7078 4.14123 4.72467C4.03999 4.79217 3.95562 4.85967 3.87125 4.91029C3.8375 4.92716 3.82062 4.96091 3.78687 4.97779C3.7025 5.04528 3.61813 5.11278 3.53376 5.18028C3.51689 5.19715 3.50001 5.21402 3.48314 5.2309C3.41564 5.2984 3.33127 5.34902 3.26377 5.41651C3.2469 5.43339 3.23003 5.45026 3.19628 5.46714C3.11191 5.53463 3.04441 5.61901 2.97691 5.6865C2.96004 5.70338 2.94316 5.72025 2.92629 5.73712C2.85879 5.8215 2.7913 5.88899 2.7238 5.97336L2.70692 5.99024C2.6563 6.07461 2.5888 6.15898 2.53818 6.24335C2.52131 6.26023 2.52131 6.2771 2.50443 6.29397C2.45381 6.37835 2.38631 6.46272 2.35257 6.54709C2.35257 6.56396 2.33569 6.58084 2.33569 6.58084C2.28507 6.66521 2.23445 6.74958 2.2007 6.85082C1.6776 8.03202 1.6101 10.445 1.96446 12.993C1.96446 13.0099 1.96446 13.0437 1.98133 13.0605C1.98133 13.0774 1.98133 13.0774 1.98133 13.0943C2.52131 16.891 4.00624 21.0083 6.26738 21.9364C6.3855 21.987 6.5205 22.0207 6.63862 22.0545C6.67237 22.0545 6.68924 22.0714 6.72299 22.0714C6.73986 22.0714 6.77361 22.0882 6.79049 22.0882C6.82423 22.0882 6.85798 22.0882 6.89173 22.0882C6.90861 22.0882 6.92548 22.0882 6.94235 22.0882C6.99298 22.0882 7.02672 22.0882 7.07735 22.0882C7.09422 22.0882 7.09422 22.0882 7.1111 22.0882C7.16172 22.0882 7.21234 22.0714 7.26296 22.0714H7.27984C7.33046 22.0545 7.38108 22.0545 7.44858 22.0376C7.44858 22.0376 7.44858 22.0376 7.46545 22.0376C9.25412 21.5314 11.7853 18.5447 14.0127 15.0348C14.0127 15.0348 14.0127 15.0348 14.0127 15.0179C14.0801 14.9167 14.1476 14.7986 14.2151 14.6973C14.232 14.6805 14.232 14.6636 14.2489 14.6467C14.3164 14.5455 14.367 14.4442 14.4345 14.343C14.4514 14.3092 14.4683 14.2924 14.4851 14.2586C14.5358 14.1742 14.5864 14.073 14.6539 13.9886C14.6876 13.938 14.7045 13.9042 14.7382 13.8536C14.7889 13.7693 14.8226 13.7018 14.8732 13.6174C14.907 13.5499 14.9407 13.4993 14.9914 13.4318C15.0251 13.3811 15.0589 13.3136 15.0926 13.263C15.1432 13.1618 15.2107 13.0605 15.2613 12.9593C15.2782 12.9424 15.2782 12.9255 15.2951 12.8918C17.0163 9.83756 18.3493 6.68208 18.6868 4.55593L15.0251 4.48843L18.5349 2.5479C18.5181 2.53102 18.5181 2.49727 18.5012 2.4804C18.4843 2.46353 18.4843 2.44665 18.4674 2.42978C18.4506 2.39603 18.4337 2.37916 18.3999 2.34541C18.3831 2.32853 18.3493 2.29478 18.3325 2.27791C18.3156 2.26104 18.2987 2.24416 18.2818 2.22729C18.2481 2.19354 18.2143 2.17666 18.1806 2.15979C18.1637 2.15979 18.1637 2.14292 18.1468 2.14292C18.0962 2.10917 18.0287 2.09229 17.9781 2.07542C17.2694 1.82231 16.4088 1.72106 15.4132 1.72106Z" fill="#F59921"/>
<path d="M20.3072 2.43027C20.0372 1.43469 19.3622 0.692227 18.451 0.405365C17.6411 0.152252 16.6286 0.0172583 15.4305 0.000384035C12.8657 -0.0164902 9.71018 0.523485 7.0103 1.46844C5.60974 1.95779 4.41167 2.53152 3.41609 3.15586C2.04928 4.0502 1.10432 5.04578 0.614972 6.1426C0.00749967 7.49254 -0.161243 9.75368 0.159368 12.5042C0.463104 15.1872 1.17182 17.8364 2.11678 19.7601C3.19673 21.9706 4.58041 23.3037 6.21721 23.6918C6.43658 23.7424 6.67282 23.7762 6.90906 23.7762C7.6009 23.7762 8.34336 23.5568 9.1027 23.1181C9.79455 22.7131 10.5201 22.1056 11.3132 21.2956C12.545 20.047 13.8781 18.292 15.1943 16.2503C16.443 14.3097 17.5904 12.2342 18.5016 10.243C19.4803 8.10001 20.1216 6.2101 20.3409 4.77579C20.4928 3.84771 20.4759 3.07149 20.3072 2.43027ZM6.90906 22.8818C6.74031 22.8818 6.57157 22.8649 6.4197 22.8143C5.05289 22.4768 3.8717 21.3125 2.90987 19.3551C1.99866 17.5158 1.32369 14.9847 1.03683 12.4029C0.766839 9.85493 0.901833 7.7119 1.44181 6.51383C2.36989 4.4383 5.15414 3.08837 7.31404 2.32903C9.91267 1.41782 12.95 0.877843 15.4137 0.911592C16.5105 0.928466 17.4554 1.04659 18.181 1.26595C18.8054 1.46844 19.2441 1.95779 19.4297 2.66651C19.5647 3.18961 19.5816 3.84771 19.4466 4.64079C19.2272 6.00761 18.6198 7.81315 17.6748 9.88868C16.7973 11.8123 15.6836 13.8541 14.4518 15.7609C13.1694 17.7521 11.8701 19.4564 10.672 20.6544C9.20395 22.1731 7.98901 22.8987 6.90906 22.8818Z" fill="#261308"/>
<path d="M13.5078 6.53039L6.33628 6.46289C5.57694 6.46289 4.8176 7.07036 4.64886 7.8297C4.48012 8.58904 4.9526 9.21339 5.72881 9.21339L7.93933 9.23026L6.47128 15.845C6.30254 16.6043 6.77501 17.2286 7.55123 17.2286C8.31057 17.2286 9.06991 16.6212 9.23865 15.8618L10.7067 9.24714L12.8835 9.28088C13.6428 9.28088 14.4022 8.67341 14.5709 7.91407C14.7396 7.15473 14.2672 6.54726 13.5078 6.53039Z" fill="#261308"/>
<path d="M19.4471 2.64985C19.2615 1.94113 18.8227 1.45178 18.1984 1.24929C17.4728 1.01305 16.5279 0.894927 15.431 0.894927C12.9505 0.878053 9.93003 1.40115 7.3314 2.31236C5.13776 3.08858 2.37039 4.42164 1.4423 6.51404C0.902328 7.71211 0.767334 9.85514 1.0542 12.4031C1.34106 14.9849 2.0329 17.516 2.92723 19.3553C3.88906 21.3127 5.07026 22.477 6.43707 22.8145C6.58894 22.8483 6.75768 22.8652 6.92642 22.882C7.9895 22.8989 9.22132 22.1733 10.6894 20.6715C11.8706 19.4566 13.1868 17.7691 14.4692 15.778C15.701 13.8712 16.8147 11.8294 17.709 9.88888C18.654 7.83023 19.2615 6.00781 19.4808 4.641C19.5821 3.83104 19.5821 3.17295 19.4471 2.64985ZM15.2623 12.8587C15.2454 12.8756 15.2454 12.8925 15.2285 12.9262C15.1779 13.0275 15.1104 13.1287 15.0598 13.23C15.026 13.2806 14.9923 13.3481 14.9586 13.3987C14.9248 13.4662 14.8911 13.5168 14.8404 13.5843C14.7898 13.6687 14.7561 13.7362 14.7054 13.8206C14.6717 13.8712 14.6548 13.9049 14.6211 13.9556C14.5704 14.0399 14.5198 14.1412 14.4523 14.2256C14.4355 14.2593 14.4186 14.2762 14.4017 14.3099C14.3342 14.4112 14.2836 14.5124 14.2161 14.6137C14.1992 14.6305 14.1992 14.6474 14.1823 14.6643C14.1148 14.7824 14.0473 14.8837 13.9798 14.9849C13.9798 14.9849 13.9798 14.9849 13.9798 15.0018C11.7525 18.5116 9.22132 21.4983 7.43265 22.0046C7.43265 22.0046 7.43265 22.0046 7.41578 22.0046C7.36515 22.0214 7.31453 22.0383 7.24703 22.0383H7.23016C7.17954 22.0552 7.12891 22.0552 7.07829 22.0552C7.06142 22.0552 7.06142 22.0552 7.04454 22.0552C6.99392 22.0552 6.96017 22.0552 6.90955 22.0552C6.89268 22.0552 6.8758 22.0552 6.85893 22.0552C6.82518 22.0552 6.79143 22.0552 6.75768 22.0552C6.74081 22.0552 6.70706 22.0552 6.69018 22.0383C6.65644 22.0383 6.63956 22.0383 6.60581 22.0214C6.47082 21.9877 6.3527 21.954 6.23458 21.9033C3.95656 20.9752 2.4885 16.8579 1.94853 13.0612C1.94853 13.0444 1.94853 13.0444 1.94853 13.0275C1.94853 13.0106 1.94853 12.9769 1.93166 12.96C1.5773 10.412 1.64479 8.01585 2.16789 6.81778C2.20164 6.73341 2.25227 6.63216 2.30289 6.54779C2.30289 6.53092 2.31976 6.51404 2.31976 6.51404C2.37038 6.42967 2.42101 6.3453 2.47163 6.26093C2.4885 6.24405 2.4885 6.22718 2.50538 6.21031C2.556 6.12593 2.6235 6.05844 2.69099 5.97407L2.70787 5.95719C2.77537 5.87282 2.84286 5.80532 2.91036 5.72095C2.92723 5.70408 2.94411 5.6872 2.96098 5.67033C3.02848 5.60283 3.11285 5.51846 3.18035 5.45097C3.19722 5.43409 3.2141 5.41722 3.24784 5.40034C3.31534 5.33285 3.38284 5.28222 3.46721 5.21473C3.48408 5.19785 3.50096 5.18098 3.51783 5.1641C3.6022 5.09661 3.68657 5.02911 3.77094 4.96161C3.80469 4.94474 3.82157 4.91099 3.85532 4.89412C3.93969 4.82662 4.04093 4.75912 4.1253 4.7085C4.15905 4.69163 4.17593 4.67475 4.20967 4.65788C4.29405 4.60725 4.37842 4.55663 4.46279 4.50601C4.49654 4.48914 4.51341 4.47226 4.54716 4.45539C4.6484 4.38789 4.74965 4.33727 4.85089 4.26977C4.88464 4.2529 4.91839 4.23602 4.96901 4.20227C5.07026 4.15165 5.18838 4.08415 5.28962 4.03353C5.32337 4.01666 5.35712 3.99978 5.374 3.98291C5.47524 3.93229 5.55961 3.88166 5.66086 3.84791C5.69461 3.83104 5.72835 3.81417 5.7621 3.79729C5.88022 3.74667 5.99834 3.69605 6.11646 3.62855C6.15021 3.61168 6.18396 3.5948 6.23458 3.57793C6.3527 3.52731 6.48769 3.47668 6.60581 3.42606C6.62269 3.42606 6.63956 3.40919 6.67331 3.40919C6.79143 3.35856 6.90955 3.30794 7.04454 3.27419C7.07829 3.25732 7.09517 3.25732 7.12891 3.24044C7.26391 3.18982 7.3989 3.1392 7.5339 3.08858C7.56764 3.0717 7.58452 3.0717 7.61827 3.05483C7.922 2.95358 8.22574 2.85234 8.52947 2.76797C8.54635 2.76797 8.56322 2.76797 8.56322 2.75109C8.71509 2.70047 8.88383 2.64985 9.0357 2.6161H9.05257C11.2293 2.0255 13.5411 1.68802 15.4142 1.72176C16.4097 1.73864 17.2872 1.83988 17.9453 2.04237C18.0128 2.05925 18.0634 2.093 18.114 2.10987C18.1309 2.10987 18.1478 2.12675 18.1478 2.12675C18.1815 2.14362 18.2153 2.17737 18.249 2.19424C18.2659 2.21112 18.2828 2.22799 18.2996 2.24486C18.3165 2.26174 18.3503 2.29549 18.3671 2.31236C18.384 2.34611 18.4178 2.36298 18.4346 2.39673C18.4515 2.41361 18.4515 2.43048 18.4684 2.44736C18.4853 2.46423 18.4853 2.49798 18.5021 2.51485L15.026 4.48914L18.654 4.52288C18.3165 6.63216 16.9666 9.78764 15.2623 12.8587Z" fill="white"/>
<path d="M29.7401 21.262C30.2463 21.262 31.0057 21.3633 31.0057 22.2408C31.0057 23.0001 30.3813 23.2363 29.8076 23.2363H28.8627C28.6602 23.2363 28.5083 23.0845 28.5083 22.8988V20.2496C28.5083 20.064 28.6602 19.9121 28.8627 19.9121H30.4995C30.6682 19.9121 30.8032 20.0471 30.8032 20.2327C30.8032 20.4015 30.6682 20.5533 30.4995 20.5533H29.217V21.2789H29.7401V21.262ZM29.6895 21.8189H29.217V22.6626H29.7401C30.0607 22.6626 30.297 22.5445 30.297 22.2408C30.297 21.9708 30.0945 21.8189 29.6895 21.8189Z" fill="#261308"/>
<path d="M33.0645 20.1988C33.0645 20.0132 33.2163 19.8613 33.4188 19.8613C33.6213 19.8613 33.7732 20.0132 33.7732 20.1988V22.9493C33.7732 23.1349 33.6044 23.2868 33.4188 23.2868C33.2163 23.2868 33.0645 23.1349 33.0645 22.9493V20.1988Z" fill="#261308"/>
<path d="M37.4187 19.8955C37.7056 19.8955 37.9756 19.9461 38.2118 20.1486C38.4649 20.3511 38.6168 20.6717 38.6168 21.0598C38.6168 21.4648 38.4481 21.8023 38.1781 22.0048C37.9418 22.1904 37.6719 22.2242 37.4187 22.2242H36.6594V22.9329C36.6594 23.1185 36.4907 23.2704 36.305 23.2704C36.1026 23.2704 35.9507 23.1185 35.9507 22.9329V20.233C35.9507 20.0474 36.1026 19.8955 36.305 19.8955H37.4187ZM37.7056 20.6211C37.6044 20.5536 37.4694 20.5199 37.3344 20.5199H36.6763V21.6167H37.3175C37.4525 21.6167 37.5875 21.5998 37.6887 21.5154C37.8237 21.4311 37.9081 21.2792 37.9081 21.0598C37.9081 20.8405 37.8237 20.7055 37.7056 20.6211Z" fill="#261308"/>
<path d="M43.829 21.5153L44.7908 22.6796C44.8415 22.7471 44.8921 22.8315 44.8921 22.9327C44.8921 23.1352 44.7571 23.2871 44.5546 23.2871C44.4196 23.2871 44.3352 23.2364 44.2509 23.1352L43.2553 21.8696H43.019V22.9496C43.019 23.1352 42.8503 23.2871 42.6647 23.2871C42.4622 23.2871 42.3103 23.1352 42.3103 22.9496V21.8696H42.0572L41.0616 23.1352C40.9773 23.2364 40.876 23.2871 40.7579 23.2871C40.5554 23.2871 40.4204 23.1352 40.4204 22.9327C40.4204 22.8315 40.471 22.7471 40.5217 22.6796L41.4835 21.5153L40.5723 20.4353C40.5048 20.3678 40.471 20.2835 40.471 20.1991C40.471 20.0135 40.606 19.8447 40.8085 19.8447C40.9435 19.8447 41.0279 19.9122 41.0954 19.9966L42.0741 21.2453H42.3103V20.1991C42.3103 20.0135 42.4622 19.8616 42.6647 19.8616C42.8672 19.8616 43.019 20.0135 43.019 20.1991V21.2453H43.2553L44.234 19.9966C44.2846 19.9122 44.369 19.8447 44.5208 19.8447C44.7065 19.8447 44.8583 19.9966 44.8583 20.1991C44.8583 20.2835 44.8246 20.351 44.7571 20.4353L43.829 21.5153Z" fill="#261308"/>
<path d="M48.639 22.5612H47.4241L47.2553 23.0506C47.2047 23.2024 47.1035 23.2868 46.901 23.2868C46.6985 23.2868 46.5635 23.1349 46.5635 22.9662C46.5635 22.9156 46.5804 22.8481 46.5972 22.8143L47.5422 20.2326C47.6097 20.0301 47.7447 19.8613 48.0315 19.8613C48.3184 19.8613 48.4703 20.0301 48.5378 20.2326L49.4658 22.8143C49.4827 22.8481 49.4996 22.9324 49.4996 22.9662C49.4996 23.1687 49.3477 23.2868 49.1452 23.2868C48.9765 23.2868 48.8584 23.2024 48.8077 23.0506L48.639 22.5612ZM47.6097 21.9875H48.4703L48.0484 20.7388L47.6097 21.9875Z" fill="#261308"/>
<path d="M56.5704 20.6544C56.3511 20.6544 56.2836 20.5025 55.8448 20.5025C55.2711 20.5025 54.7986 20.975 54.7986 21.5825C54.7986 22.2068 55.2542 22.6625 55.8448 22.6625C56.3173 22.6625 56.4185 22.4937 56.621 22.4937C56.8067 22.4937 56.9416 22.6287 56.9416 22.8143C56.9416 22.9831 56.8067 23.1012 56.6548 23.1518C56.4354 23.2362 56.1654 23.2868 55.8448 23.2868C54.8324 23.2868 54.0562 22.6118 54.0562 21.5656C54.0562 20.5869 54.883 19.8613 55.8448 19.8613C56.1654 19.8613 56.3848 19.912 56.6042 19.9794C56.7729 20.0469 56.891 20.1482 56.891 20.3169C56.891 20.5194 56.7392 20.6544 56.5704 20.6544Z" fill="#261308"/>
<path d="M58.915 20.1988C58.915 20.0132 59.0669 19.8613 59.2694 19.8613C59.4719 19.8613 59.6238 20.0132 59.6238 20.1988V22.9493C59.6238 23.1349 59.455 23.2868 59.2694 23.2868C59.0669 23.2868 58.915 23.1349 58.915 22.9493V20.1988Z" fill="#261308"/>
<path d="M61.9041 22.2408C62.0054 21.9201 62.0391 21.4983 62.0391 20.9077V20.2496C62.0391 20.064 62.2078 19.9121 62.3935 19.9121H64.2496C64.4521 19.9121 64.604 20.064 64.604 20.2496V22.9495C64.604 23.1351 64.4521 23.287 64.2496 23.287C64.0471 23.287 63.8953 23.1351 63.8953 22.9495V20.5365H62.7478V20.9077C62.7478 21.4645 62.6803 22.3082 62.4272 22.8482C62.2922 23.1351 62.1403 23.287 61.9379 23.287C61.7354 23.287 61.5835 23.1351 61.5835 22.9326C61.5835 22.7132 61.8029 22.5951 61.9041 22.2408Z" fill="#261308"/>
<path d="M67.5039 21.2619H68.0269C68.5332 21.2619 69.2925 21.3631 69.2925 22.2406C69.2925 22.9999 68.6682 23.2362 68.0944 23.2362H67.1664C66.9639 23.2362 66.812 23.0843 66.812 22.8987V20.1988C66.812 20.0132 66.9639 19.8613 67.1664 19.8613C67.3689 19.8613 67.5207 20.0132 67.5207 20.1988V21.2619H67.5039ZM67.9595 21.8187H67.5039V22.6625H68.0269C68.3476 22.6625 68.5838 22.5443 68.5838 22.2406C68.5669 21.9706 68.3813 21.8187 67.9595 21.8187Z" fill="#261308"/>
<path d="M71.3521 20.2496C71.3521 20.064 71.5039 19.9121 71.7064 19.9121H73.2926C73.4613 19.9121 73.5963 20.0471 73.5963 20.2327C73.5963 20.4015 73.4613 20.5533 73.2926 20.5533H72.0608V22.9495C72.0608 23.1351 71.9089 23.287 71.7064 23.287C71.5039 23.287 71.3521 23.1351 71.3521 22.9495V20.2496Z" fill="#261308"/>
<path d="M77.1729 23.2868C76.1774 23.2868 75.3843 22.6118 75.3843 21.5825C75.3843 20.5532 76.1774 19.8613 77.1729 19.8613C78.1685 19.8613 78.9616 20.5532 78.9616 21.5825C78.9616 22.6118 78.1685 23.2868 77.1729 23.2868ZM77.1729 20.5194C76.5823 20.5194 76.1267 20.975 76.1267 21.5825C76.1267 22.19 76.5655 22.6287 77.1729 22.6287C77.7635 22.6287 78.2023 22.1731 78.2023 21.5825C78.2191 20.975 77.7804 20.5194 77.1729 20.5194Z" fill="#261308"/>
<path d="M83.3829 20.6544C83.1635 20.6544 83.096 20.5025 82.6573 20.5025C82.0836 20.5025 81.6111 20.975 81.6111 21.5825C81.6111 22.2068 82.0667 22.6625 82.6573 22.6625C83.1298 22.6625 83.231 22.4937 83.4335 22.4937C83.6191 22.4937 83.7541 22.6287 83.7541 22.8143C83.7541 22.9831 83.6192 23.1012 83.4673 23.1518C83.2479 23.2362 82.9779 23.2868 82.6573 23.2868C81.6449 23.2868 80.8687 22.6118 80.8687 21.5656C80.8687 20.5869 81.6955 19.8613 82.6573 19.8613C82.9779 19.8613 83.1973 19.912 83.4167 19.9794C83.5854 20.0469 83.7035 20.1482 83.7035 20.3169C83.7035 20.5194 83.5685 20.6544 83.3829 20.6544Z" fill="#261308"/>
<path d="M88.5803 22.9495C88.5803 23.1351 88.4284 23.287 88.2259 23.287C88.0234 23.287 87.8715 23.1351 87.8715 22.9495V20.5365H86.4372V22.9495C86.4372 23.1351 86.2854 23.287 86.0829 23.287C85.8804 23.287 85.7285 23.1351 85.7285 22.9495V20.2496C85.7285 20.064 85.8804 19.9121 86.0829 19.9121H88.2259C88.4284 19.9121 88.5803 20.064 88.5803 20.2496V22.9495Z" fill="#261308"/>
<path d="M92.2584 20.5367V22.9497C92.2584 23.1354 92.0897 23.2872 91.9041 23.2872C91.7185 23.2872 91.5497 23.1354 91.5497 22.9497V20.5367H90.7398C90.571 20.5367 90.436 20.4017 90.436 20.2161C90.436 20.0474 90.571 19.8955 90.7398 19.8955H93.0684C93.2372 19.8955 93.3721 20.0305 93.3721 20.2161C93.3721 20.3849 93.2372 20.5367 93.0684 20.5367H92.2584Z" fill="#261308"/>
<path d="M95.9367 22.612H97.5229C97.6917 22.612 97.8267 22.7638 97.8267 22.9326C97.8267 23.1013 97.6917 23.2532 97.5229 23.2532H95.5824C95.3799 23.2532 95.228 23.1013 95.228 22.9157V20.2496C95.228 20.064 95.3799 19.9121 95.5824 19.9121H97.5229C97.6917 19.9121 97.8267 20.0471 97.8267 20.2327C97.8267 20.4015 97.6917 20.5533 97.5229 20.5533H95.9367V21.2789H97.2698C97.4386 21.2789 97.5736 21.4139 97.5736 21.5995C97.5736 21.7683 97.4386 21.9033 97.2698 21.9033H95.9367V22.612Z" fill="#261308"/>
<path d="M101.085 21.0088L101.827 20.0132C101.895 19.912 102.013 19.8613 102.131 19.8613C102.334 19.8613 102.536 20.0132 102.536 20.2326C102.536 20.3001 102.502 20.3844 102.452 20.4351L101.541 21.5656L102.486 22.7131C102.536 22.7637 102.57 22.8481 102.57 22.9156C102.57 23.1181 102.384 23.2868 102.165 23.2868C102.03 23.2868 101.929 23.2362 101.861 23.1349L101.102 22.1225L100.326 23.1349C100.258 23.2362 100.14 23.2868 100.005 23.2868C99.8026 23.2868 99.6001 23.1349 99.6001 22.9156C99.6001 22.8481 99.617 22.7637 99.6845 22.7131L100.646 21.5825L99.7182 20.4519C99.6676 20.3844 99.6338 20.3169 99.6338 20.2494C99.6338 20.0469 99.8363 19.8782 100.039 19.8782C100.174 19.8782 100.275 19.9288 100.343 20.0301L101.085 21.0088Z" fill="#261308"/>
<path d="M104.509 20.1988C104.509 20.0132 104.661 19.8613 104.864 19.8613C105.066 19.8613 105.218 20.0132 105.218 20.1988V21.245H106.737V20.1988C106.737 20.0132 106.905 19.8613 107.091 19.8613C107.294 19.8613 107.445 20.0132 107.445 20.1988V22.9493C107.445 23.1349 107.277 23.2868 107.091 23.2868C106.905 23.2868 106.737 23.1349 106.737 22.9493V21.8694H105.218V22.9493C105.218 23.1349 105.049 23.2868 104.864 23.2868C104.661 23.2868 104.509 23.1349 104.509 22.9493V20.1988Z" fill="#261308"/>
<path d="M109.623 20.1988C109.623 20.0132 109.775 19.8613 109.977 19.8613C110.18 19.8613 110.332 20.0132 110.332 20.1988V22.9493C110.332 23.1349 110.163 23.2868 109.977 23.2868C109.775 23.2868 109.623 23.1349 109.623 22.9493V20.1988Z" fill="#261308"/>
<path d="M114.026 21.5153L114.988 22.6796C115.038 22.7471 115.089 22.8315 115.089 22.9327C115.089 23.1352 114.954 23.2871 114.752 23.2871C114.617 23.2871 114.532 23.2364 114.448 23.1352L113.452 21.8696H113.216V22.9496C113.216 23.1352 113.047 23.2871 112.862 23.2871C112.659 23.2871 112.507 23.1352 112.507 22.9496V20.1991C112.507 20.0135 112.659 19.8616 112.862 19.8616C113.064 19.8616 113.216 20.0135 113.216 20.1991V21.2453H113.452L114.431 19.9966C114.482 19.9122 114.566 19.8447 114.718 19.8447C114.903 19.8447 115.055 19.9966 115.055 20.1991C115.055 20.2835 115.022 20.351 114.954 20.4353L114.026 21.5153Z" fill="#261308"/>
<path d="M119.291 21.2284L117.756 22.7977V22.9327C117.756 23.1183 117.587 23.2702 117.401 23.2702C117.199 23.2702 117.047 23.1183 117.047 22.9327V20.1822C117.047 19.9966 117.199 19.8447 117.401 19.8447C117.604 19.8447 117.756 19.9966 117.756 20.1822V21.9371L119.291 20.3678V20.1991C119.291 20.0135 119.46 19.8616 119.646 19.8616C119.848 19.8616 120 20.0135 120 20.1991V22.9496C120 23.1352 119.831 23.2871 119.646 23.2871C119.46 23.2871 119.291 23.1352 119.291 22.9496V21.2284Z" fill="#261308"/>
<path d="M107.885 14.9002H106.873C105.27 14.9002 103.97 13.6009 103.97 11.9978V7.69491C103.97 7.10431 104.443 6.63184 105.033 6.63184C105.624 6.63184 106.096 7.10431 106.096 7.69491V11.9978C106.096 12.4366 106.451 12.7909 106.889 12.7909H107.902C108.341 12.7909 108.695 12.4366 108.695 11.9978V7.69491C108.695 7.10431 109.167 6.63184 109.758 6.63184C110.349 6.63184 110.821 7.10431 110.821 7.69491V11.9978C110.787 13.6009 109.488 14.9002 107.885 14.9002Z" fill="#F59921"/>
<path d="M101.641 14.9003C101.354 14.9003 101.084 14.7822 100.898 14.5966C100.713 14.4109 100.578 14.1241 100.578 13.8372C100.578 13.5504 100.696 13.2804 100.881 13.0948C101.084 12.8923 101.354 12.791 101.624 12.791C101.911 12.791 102.181 12.9091 102.366 13.0948C102.569 13.2972 102.67 13.5672 102.67 13.8372C102.67 14.1241 102.552 14.3941 102.366 14.5797C102.181 14.7653 101.911 14.9003 101.641 14.9003Z" fill="#F59921"/>
<path d="M119.866 13.4659L117.588 7.32368C117.437 6.90182 117.032 6.63184 116.593 6.63184H115.175C114.737 6.63184 114.332 6.90182 114.18 7.32368L111.885 13.4659C111.682 14.0059 111.952 14.6302 112.509 14.8327C113.049 15.0352 113.674 14.7652 113.876 14.2084L114.163 13.449H115.783C116.373 13.449 116.846 12.9765 116.846 12.3859C116.846 11.7953 116.373 11.3229 115.783 11.3229H114.956L115.884 8.82548L117.875 14.1915C118.027 14.6133 118.432 14.8833 118.871 14.8833C118.989 14.8833 119.124 14.8665 119.242 14.8158C119.782 14.6302 120.069 14.0227 119.866 13.4659Z" fill="#F59921"/>
<path d="M32.1686 6.63184H26.6676C26.077 6.63184 25.6045 7.10431 25.6045 7.69491C25.6045 8.28551 26.077 8.75799 26.6676 8.75799H28.355V13.8371C28.355 14.4277 28.8275 14.9002 29.4181 14.9002C30.0087 14.9002 30.4811 14.4277 30.4811 13.8371V8.75799H32.1854C32.776 8.75799 33.2485 8.28551 33.2485 7.69491C33.2148 7.10431 32.7423 6.63184 32.1686 6.63184Z" fill="#261308"/>
<path d="M84.3966 14.9002C83.806 14.9002 83.3335 14.4277 83.3335 13.8371V7.69491C83.3335 7.10431 83.806 6.63184 84.3966 6.63184C84.9872 6.63184 85.4596 7.10431 85.4596 7.69491V13.8371C85.4428 14.4277 84.9703 14.9002 84.3966 14.9002Z" fill="#261308"/>
<path d="M65.1593 6.63184H59.6583C59.0677 6.63184 58.5952 7.10431 58.5952 7.69491C58.5952 8.28551 59.0677 8.75799 59.6583 8.75799H61.3626V13.8371C61.3626 14.4277 61.8351 14.9002 62.4257 14.9002C63.0163 14.9002 63.4887 14.4277 63.4887 13.8371V8.75799H65.193C65.7836 8.75799 66.2561 8.28551 66.2561 7.69491C66.2224 7.10431 65.7499 6.63184 65.1593 6.63184Z" fill="#261308"/>
<path d="M99.9877 6.63184H94.4698C93.8792 6.63184 93.4067 7.10431 93.4067 7.69491C93.4067 8.28551 93.8792 8.75799 94.4698 8.75799H96.1741V13.8371C96.1741 14.4277 96.6466 14.9002 97.2372 14.9002C97.8278 14.9002 98.3003 14.4277 98.3003 13.8371V8.75799H100.005C100.595 8.75799 101.068 8.28551 101.068 7.69491C101.051 7.10431 100.578 6.63184 99.9877 6.63184Z" fill="#261308"/>
<path d="M40.6084 13.314L39.5622 11.5085C40.2372 11.0191 40.6928 10.226 40.6928 9.31484C40.6928 7.82991 39.4947 6.63184 38.0098 6.63184H35.4449C34.8543 6.63184 34.3818 7.10431 34.3818 7.69491V13.8371C34.3818 14.4277 34.8543 14.9002 35.4449 14.9002C36.0355 14.9002 36.508 14.4277 36.508 13.8371V8.75799H38.0267C38.3304 8.75799 38.6004 9.0111 38.6004 9.33171C38.6004 9.63545 38.3473 9.90543 38.0267 9.90543C37.8411 9.90543 37.6554 9.95606 37.4867 10.0404C36.9805 10.3273 36.8117 10.9854 37.0986 11.4916L38.786 14.394C38.9885 14.7315 39.3429 14.9171 39.6972 14.9171C39.8828 14.9171 40.0684 14.8665 40.2372 14.7652C40.7265 14.4615 40.8953 13.8203 40.6084 13.314Z" fill="#261308"/>
<path d="M81.728 13.314L80.6818 11.5085C81.3568 11.0191 81.8124 10.226 81.8124 9.31484C81.8124 7.82991 80.6143 6.63184 79.1294 6.63184H76.5645C75.9739 6.63184 75.5015 7.10431 75.5015 7.69491V13.8371C75.5015 14.4277 75.9739 14.9002 76.5645 14.9002C77.1551 14.9002 77.6276 14.4277 77.6276 13.8371V8.75799H79.1463C79.45 8.75799 79.72 9.0111 79.72 9.33171C79.72 9.63545 79.4669 9.90543 79.1463 9.90543C78.9607 9.90543 78.7751 9.95606 78.6063 10.0404C78.1001 10.3273 77.9314 10.9854 78.2182 11.4916L79.9056 14.394C80.1081 14.7315 80.4625 14.9171 80.8168 14.9171C81.0025 14.9171 81.1881 14.8665 81.3568 14.7652C81.863 14.4615 82.0318 13.8203 81.728 13.314Z" fill="#261308"/>
<path d="M90.4027 14.9002H88.1753C87.5847 14.9002 87.1123 14.4277 87.1123 13.8371C87.1123 13.2465 87.5847 12.774 88.1753 12.774H90.4027C90.6727 12.774 90.8752 12.5547 90.8752 12.3016C90.8752 12.0316 90.6558 11.8291 90.4027 11.8291H89.5928C88.1585 11.8291 86.9941 10.6648 86.9941 9.23047C86.9941 7.79616 88.1585 6.63184 89.5928 6.63184H91.1789C91.7695 6.63184 92.242 7.10431 92.242 7.69491C92.242 8.28551 91.7695 8.75799 91.1789 8.75799H89.5928C89.3228 8.75799 89.1203 8.97735 89.1203 9.23047C89.1203 9.50045 89.3397 9.70294 89.5928 9.70294H90.4027C91.837 9.70294 93.0014 10.8673 93.0014 12.3016C93.0014 13.7359 91.837 14.9002 90.4027 14.9002Z" fill="#261308"/>
<path d="M50.0893 13.4659L47.8113 7.32368C47.6594 6.90182 47.2544 6.63184 46.8157 6.63184H45.3983C44.9595 6.63184 44.5545 6.90182 44.4027 7.32368L42.1247 13.4659C41.9222 14.0059 42.1922 14.6302 42.749 14.8327C43.289 15.0352 43.9133 14.7652 44.1158 14.2084L44.4027 13.449H46.0226C46.6132 13.449 47.0857 12.9765 47.0857 12.3859C47.0857 11.7953 46.6132 11.3229 46.0226 11.3229H45.1958L46.1238 8.82548L48.0981 14.2084C48.25 14.6302 48.655 14.9002 49.0937 14.9002C49.2118 14.9002 49.3468 14.8833 49.4649 14.8327C50.0049 14.6302 50.2918 14.0227 50.0893 13.4659Z" fill="#261308"/>
<path d="M57.9038 13.1453L55.4233 10.3442L57.2626 8.43738C57.6676 8.01552 57.6507 7.34055 57.2288 6.93557C56.807 6.53059 56.132 6.54746 55.727 6.96932L53.3815 9.41608V7.69491C53.3815 7.10431 52.909 6.63184 52.3184 6.63184C51.7278 6.63184 51.2554 7.10431 51.2554 7.69491V13.8371C51.2554 14.4277 51.7278 14.9002 52.3184 14.9002C52.909 14.9002 53.3815 14.4277 53.3815 13.8371V12.4703L53.9552 11.8797L56.3176 14.5458C56.5201 14.7821 56.8239 14.9002 57.1107 14.9002C57.3638 14.9002 57.6169 14.8158 57.8026 14.6302C58.2413 14.2421 58.2919 13.584 57.9038 13.1453Z" fill="#261308"/>
<path d="M70.388 14.9002C68.2112 14.9002 66.4395 13.044 66.4395 10.766C66.4395 8.488 68.2112 6.63184 70.388 6.63184C72.5648 6.63184 74.3366 8.488 74.3366 10.766C74.3366 13.044 72.5648 14.9002 70.388 14.9002ZM70.388 8.75799C69.3756 8.75799 68.5656 9.66919 68.5656 10.766C68.5656 11.8797 69.3924 12.774 70.388 12.774C71.4005 12.774 72.2104 11.8628 72.2104 10.766C72.2104 9.65232 71.4005 8.75799 70.388 8.75799Z" fill="#261308"/>
</svg>
