<svg width="120" height="31" viewBox="0 0 120 31" fill="none" xmlns="http://www.w3.org/2000/svg">
<path fill-rule="evenodd" clip-rule="evenodd" d="M7.65226 18.71L3.83691 16.4897L0 14.2695V9.85059L3.83691 12.0708L7.65226 14.2695V18.71Z" fill="#EEC216"/>
<path fill-rule="evenodd" clip-rule="evenodd" d="M7.65226 12.9765L3.83691 10.7778L0 8.55758V4.13867L3.83691 6.33735L7.65226 8.55758V12.9765Z" fill="#EEC216"/>
<path fill-rule="evenodd" clip-rule="evenodd" d="M8.55566 18.71L12.3926 16.4897L16.2295 14.2695V9.85059L12.3926 12.0708L8.55566 14.2695V18.71Z" fill="#E2A11B"/>
<path fill-rule="evenodd" clip-rule="evenodd" d="M8.55566 12.9765L12.3926 10.7778L16.2295 8.55758V4.13867L12.3926 6.33735L8.55566 8.55758V12.9765Z" fill="#E2A11B"/>
<path d="M7.19959 30.5438H6.0787C5.23803 26.9871 3.81535 23.3442 0 19.9599V15.541L3.83691 17.7613L7.67382 19.9815V21.8353C7.09181 22.0508 6.70381 22.6113 6.70381 23.2579C6.70381 23.9046 7.11337 24.4651 7.67382 24.6806L7.19959 30.5438Z" fill="#B7C6D4"/>
<path d="M9.02989 30.5438H10.1508C10.9699 26.9655 12.3926 23.3442 16.2295 19.9599V15.541L12.3926 17.7397L8.55566 19.9599V21.8137C9.13767 22.0293 9.52567 22.5897 9.52567 23.2364C9.52567 23.8831 9.11611 24.4435 8.55566 24.6591L9.02989 30.5438Z" fill="#95A6B5"/>
<path fill-rule="evenodd" clip-rule="evenodd" d="M7.65187 7.39359L2.47852 4.41891V0L7.65187 2.97468V7.39359Z" fill="#EEC216"/>
<path fill-rule="evenodd" clip-rule="evenodd" d="M8.55566 7.39359L13.729 4.41891V0L8.55566 2.97468V7.39359Z" fill="#E2A11B"/>
<path d="M20.0698 19.8956V11.2949H25.0707L24.9198 13.1056H22.2901V14.5498H24.4456V16.2958H22.2901V18.0418H25.2216V19.8741H20.0698V19.8956Z" fill="#95A6B5"/>
<path d="M31.085 19.8956H26.3428V11.2949H28.5846V18.0634H31.5161L31.085 19.8956Z" fill="#95A6B5"/>
<path d="M32.3545 19.8956V11.2949H37.3554L37.2045 13.1056H34.5747V14.5498H36.7303V16.2958H34.5747V18.0418H37.5063V19.8741H32.3545V19.8956Z" fill="#95A6B5"/>
<path d="M42.5495 19.8956H40.5663L37.6348 11.2949H40.0706L41.1483 14.8301C41.2992 15.3689 41.4286 15.6707 41.5579 16.4467H41.5795C41.7088 15.7569 41.8812 15.2181 42.0321 14.7654L43.2608 11.2949H45.5888L42.5495 19.8956Z" fill="#95A6B5"/>
<path d="M50.204 19.8956L49.7513 18.2358H47.7251L47.2509 19.8956H44.9229L47.682 11.2949H49.9669L52.5967 19.8956H50.204ZM48.9538 14.9594C48.8675 14.5929 48.8029 14.1187 48.8029 13.7954C48.7813 14.1187 48.6951 14.5498 48.5658 15.1103L48.2209 16.5114H49.3418L48.9538 14.9594Z" fill="#95A6B5"/>
<path d="M58.1778 13.1272H56.1732V19.8956H53.9314V13.1272H51.9482V11.2949H58.4365L58.1778 13.1272Z" fill="#95A6B5"/>
<path d="M62.317 20.0469C59.8166 20.0469 58.437 18.3872 58.437 15.822C58.437 12.7611 60.1184 11.166 62.3817 11.166C65.3133 11.166 66.1539 13.4078 66.1539 15.2831C66.1539 17.7405 65.3779 20.0469 62.317 20.0469ZM62.317 12.8689C61.3255 12.8689 60.8944 13.9251 60.8944 15.5634C60.8944 17.762 61.4333 18.3009 62.3386 18.3009C63.2655 18.3009 63.675 17.7405 63.675 15.5418C63.6966 13.3862 63.287 12.8689 62.317 12.8689Z" fill="#95A6B5"/>
<path d="M71.5224 19.8956L70.6171 17.4814C70.2937 16.5976 70.0782 16.4898 69.6039 16.4898V19.8956H67.4053V11.2949H70.3584C72.8804 11.2949 73.6995 12.308 73.6995 13.7523C73.6995 15.2396 72.9235 15.9941 71.9104 16.1665C72.2122 16.2527 72.5571 16.6407 72.7726 17.0934C73.0529 17.6754 73.7858 19.2705 74.066 19.8956H71.5224ZM70.2291 13.1056H69.6039V14.8516H70.2291C70.9835 14.8516 71.2422 14.4852 71.2422 13.9247C71.2422 13.2996 70.9188 13.1056 70.2291 13.1056Z" fill="#95A6B5"/>
<path d="M74.9922 19.8956V11.2949H77.2555V19.8956H74.9922Z" fill="#95A6B5"/>
<path d="M81.5896 20.0461C80.2962 20.0461 79.2831 19.7228 78.4209 19.2701L79.1969 17.5457C79.822 17.9121 80.7489 18.2354 81.6111 18.2354C82.4734 18.2354 82.8182 17.9121 82.8182 17.4379C82.8182 17.0499 82.538 16.8774 81.956 16.7265L80.9429 16.4679C79.6927 16.1445 78.852 15.4548 78.852 13.9674C78.852 12.2645 80.2531 11.1221 82.1931 11.1221C83.4002 11.1221 84.4996 11.4238 85.2756 11.9627L84.2194 13.5363C83.6374 13.1483 82.8829 12.9327 82.2794 12.9327C81.7189 12.9327 81.3956 13.213 81.3956 13.5579C81.3956 13.8381 81.5896 14.1183 82.2362 14.2908L83.12 14.5063C84.0469 14.7434 85.3834 15.153 85.3834 16.8774C85.3618 18.9468 83.8313 20.0461 81.5896 20.0461Z" fill="#95A6B5"/>
<path d="M92.0866 13.1272H90.0819V19.8956H87.8401V13.1272H85.8354V11.2949H92.3237L92.0866 13.1272Z" fill="#95A6B5"/>
<path d="M93.1418 20.1119C92.4521 20.1119 91.8916 19.5514 91.8916 18.8401C91.8916 18.1718 92.4521 17.5898 93.1418 17.5898C93.8316 17.5898 94.4136 18.1503 94.4136 18.8401C94.4136 19.5514 93.8316 20.1119 93.1418 20.1119Z" fill="#E2A11B"/>
<path d="M99.2 20.047C98.1438 20.047 97.1738 19.7237 96.3978 18.8615C95.7296 18.107 95.4062 16.9861 95.4062 15.7574C95.4062 14.6797 95.5787 13.8605 95.9882 13.0845C96.7211 11.7481 97.9714 11.1445 99.4587 11.1445C100.342 11.1445 101.269 11.3816 101.657 11.7696L100.709 13.4079C100.321 13.1061 99.8898 12.9552 99.4156 12.9552C99.0276 12.9552 98.6827 13.063 98.4456 13.2785C98.036 13.7097 97.8852 14.1623 97.8852 15.1754C97.8852 16.5981 97.9498 17.2663 98.2947 17.6975C98.5749 18.0208 98.9414 18.2363 99.394 18.2363C99.9545 18.2363 100.386 18.107 100.881 17.6759L101.83 19.1848C101.334 19.659 100.45 20.047 99.2 20.047Z" fill="#E2A11B"/>
<path d="M105.732 20.0469C103.231 20.0469 101.852 18.3872 101.852 15.822C101.852 12.7611 103.533 11.166 105.796 11.166C108.728 11.166 109.568 13.4078 109.568 15.2831C109.59 17.7405 108.814 20.0469 105.732 20.0469ZM105.753 12.8689C104.762 12.8689 104.33 13.9251 104.33 15.5634C104.33 17.762 104.869 18.3009 105.775 18.3009C106.702 18.3009 107.111 17.7405 107.111 15.5418C107.111 13.3862 106.702 12.8689 105.753 12.8689Z" fill="#E2A11B"/>
<path d="M117.845 19.8956L117.629 16.4252C117.586 15.8863 117.564 15.4336 117.564 14.7007H117.543C117.435 15.4336 117.392 15.8647 117.241 16.3174L116.185 19.8956H114.309L113.404 16.4252C113.275 15.9509 113.189 15.4552 113.124 14.7007H113.102C113.102 15.4552 113.081 15.9294 113.059 16.4683L112.887 19.8956H110.667L111.507 11.2949H114.245L115.085 14.7007C115.215 15.1749 115.301 15.6276 115.366 16.3389H115.387C115.452 15.6923 115.538 15.2612 115.711 14.5929L116.594 11.3165H119.203L120 19.9172H117.845V19.8956Z" fill="#E2A11B"/>
<path d="M20.0698 24.0996H21.9452V24.5523H20.6303V27.333H20.0914V24.0996H20.0698Z" fill="#95A6B5"/>
<path d="M22.0303 25.7156C22.0303 25.112 22.2027 24.6809 22.5261 24.3791C22.8063 24.142 23.1512 24.0127 23.5392 24.0127C23.9918 24.0127 24.3583 24.1636 24.6385 24.4438C24.9187 24.7456 25.0696 25.1336 25.0696 25.6509C25.0696 26.0605 25.005 26.4054 24.8756 26.6425C24.7463 26.8796 24.5738 27.0736 24.3367 27.2029C24.0996 27.3323 23.841 27.3969 23.5607 27.3969C23.1081 27.3969 22.7416 27.246 22.4614 26.9658C22.1596 26.6856 22.0303 26.2545 22.0303 25.7156ZM22.5907 25.7156C22.5907 26.1251 22.6769 26.4485 22.8709 26.6425C23.0434 26.858 23.2805 26.9443 23.5607 26.9443C23.841 26.9443 24.0565 26.8365 24.2505 26.6425C24.423 26.4269 24.5307 26.1251 24.5307 25.694C24.5307 25.2845 24.4445 24.9827 24.2505 24.7887C24.0781 24.5731 23.841 24.4869 23.5607 24.4869C23.2805 24.4869 23.0649 24.5947 22.8709 24.7887C22.6769 24.9827 22.5907 25.306 22.5907 25.7156Z" fill="#95A6B5"/>
<path d="M25.8673 24.0996H28.4109V27.333H27.872V24.5523H26.4062V26.169C26.4062 26.5354 26.3846 26.7941 26.3631 26.9234C26.3415 27.0527 26.2769 27.139 26.1691 27.2467C26.0613 27.333 25.9104 27.3761 25.6949 27.3761C25.5655 27.3761 25.4146 27.3761 25.2422 27.3545V26.9018H25.4793C25.5871 26.9018 25.6733 26.8803 25.7164 26.8587C25.7595 26.8372 25.8026 26.7941 25.8242 26.751C25.8457 26.7078 25.8457 26.5354 25.8457 26.2552V24.0996H25.8673Z" fill="#95A6B5"/>
<path d="M29.1201 25.7156C29.1201 25.112 29.2926 24.6809 29.6159 24.3791C29.8961 24.142 30.241 24.0127 30.629 24.0127C31.0817 24.0127 31.4481 24.1636 31.7283 24.4438C32.0086 24.724 32.1595 25.1336 32.1595 25.6509C32.1595 26.0605 32.0948 26.4054 31.9655 26.6425C31.8361 26.8796 31.6637 27.0736 31.4266 27.2029C31.1895 27.3323 30.9308 27.3969 30.6506 27.3969C30.1979 27.3969 29.8315 27.246 29.5512 26.9658C29.2495 26.6856 29.1201 26.2545 29.1201 25.7156ZM29.6806 25.7156C29.6806 26.1251 29.7668 26.4485 29.9608 26.6425C30.1332 26.858 30.3703 26.9443 30.6506 26.9443C30.9308 26.9443 31.1463 26.8365 31.3403 26.6425C31.5128 26.4269 31.6206 26.1251 31.6206 25.694C31.6206 25.2845 31.5343 24.9827 31.3403 24.7887C31.1679 24.5731 30.9308 24.4869 30.6506 24.4869C30.3703 24.4869 30.1548 24.5947 29.9608 24.7887C29.7668 24.9827 29.6806 25.306 29.6806 25.7156Z" fill="#95A6B5"/>
<path d="M32.8291 24.0996H34.1009C34.4027 24.0996 34.6398 24.1212 34.7907 24.1858C34.9416 24.2289 35.0709 24.3367 35.1787 24.4661C35.2864 24.5954 35.3511 24.7678 35.3511 24.9618C35.3511 25.1127 35.3296 25.2421 35.2649 25.3714C35.2002 25.4792 35.114 25.5869 34.9847 25.6516C35.1356 25.6947 35.2649 25.8025 35.3727 25.9318C35.4804 26.0612 35.5236 26.2336 35.5236 26.4276C35.502 26.7294 35.3942 26.9665 35.2002 27.1174C35.0062 27.2683 34.7044 27.333 34.338 27.333H32.8722V24.0996H32.8291ZM33.368 25.4576H33.95C34.1871 25.4576 34.338 25.4361 34.4242 25.4145C34.5104 25.3929 34.5967 25.3498 34.6613 25.2636C34.726 25.1989 34.7691 25.0912 34.7691 25.0049C34.7691 24.8325 34.7044 24.7247 34.5967 24.6385C34.4673 24.5738 34.2733 24.5307 33.9716 24.5307H33.368V25.4576ZM33.368 26.8803H34.1009C34.4027 26.8803 34.6182 26.8372 34.7476 26.7725C34.8769 26.7078 34.92 26.5785 34.92 26.4061C34.92 26.2983 34.8769 26.2121 34.8122 26.1258C34.7476 26.0396 34.6613 25.975 34.5536 25.9534C34.4458 25.9318 34.2733 25.9103 34.0362 25.9103H33.368V26.8803Z" fill="#95A6B5"/>
<path d="M36.1714 24.0996H36.7103V25.4576H38.2407V24.0996H38.7796V27.333H38.2407V25.8887H36.7103V27.333H36.1714V24.0996Z" fill="#95A6B5"/>
<path d="M39.6411 24.0996H40.18V26.5785L41.7105 24.0996H42.2925V27.333H41.7536V24.8756L40.2231 27.333H39.6411V24.0996Z" fill="#95A6B5"/>
<path d="M43.1323 24.0988H43.6712V26.5776L45.2017 24.0988H45.7837V27.332H45.2663V24.8747L43.7359 27.332H43.1539V24.0988H43.1323ZM45.0508 22.8701H45.4172C45.3957 23.1288 45.2879 23.3228 45.137 23.4521C44.9861 23.5814 44.7706 23.6461 44.5119 23.6461C44.2532 23.6461 44.0377 23.5814 43.8868 23.4521C43.7359 23.3228 43.6281 23.1288 43.6065 22.8701H43.973C43.9946 22.9994 44.0592 23.1072 44.1454 23.1719C44.2317 23.2366 44.3394 23.2797 44.4903 23.2797C44.6628 23.2797 44.7706 23.2366 44.8568 23.1719C44.9646 23.1072 45.0292 22.9994 45.0508 22.8701Z" fill="#95A6B5"/>
<path d="M50.6344 26.2985L51.1948 26.3632C51.1086 26.6865 50.9362 26.9452 50.699 27.1392C50.4619 27.3116 50.1386 27.4194 49.7721 27.4194C49.2979 27.4194 48.9315 27.2685 48.6513 26.9883C48.371 26.6865 48.2417 26.2769 48.2417 25.7596C48.2417 25.2207 48.3926 24.7896 48.6728 24.4878C48.953 24.186 49.3195 24.0352 49.7721 24.0352C50.2033 24.0352 50.5697 24.186 50.8284 24.4878C51.1086 24.7896 51.2379 25.1992 51.2379 25.7381C51.2379 25.7812 51.2379 25.8243 51.2379 25.8889H48.8237C48.8453 26.2554 48.953 26.5141 49.1255 26.7081C49.2979 26.9021 49.535 26.9883 49.7937 26.9883C49.9877 26.9883 50.1602 26.9452 50.311 26.8374C50.4404 26.6865 50.5482 26.5141 50.6344 26.2985ZM48.8237 25.4147H50.6344C50.6128 25.1345 50.5482 24.9405 50.4188 24.8112C50.2464 24.5956 50.0093 24.4878 49.729 24.4878C49.4704 24.4878 49.2548 24.574 49.0824 24.7465C48.9315 24.8974 48.8453 25.1129 48.8237 25.4147Z" fill="#95A6B5"/>
<path d="M51.9708 24.0996H54.5144V27.333H53.9755V24.5523H52.5097V26.169C52.5097 26.5354 52.4882 26.7941 52.4666 26.9234C52.445 27.0527 52.3804 27.139 52.2726 27.2467C52.1648 27.333 52.0139 27.3761 51.7984 27.3761C51.669 27.3761 51.5181 27.3761 51.3457 27.3545V26.9018H51.5828C51.6906 26.9018 51.7768 26.8803 51.8199 26.8587C51.863 26.8372 51.9061 26.7941 51.9277 26.751C51.9493 26.7078 51.9493 26.5354 51.9493 26.2552V24.0996H51.9708Z" fill="#95A6B5"/>
<path d="M57.5743 26.2985L58.1348 26.3632C58.0485 26.6865 57.8761 26.9452 57.639 27.1392C57.4019 27.3116 57.0785 27.4194 56.7121 27.4194C56.2379 27.4194 55.8714 27.2685 55.5912 26.9883C55.311 26.6865 55.1816 26.2769 55.1816 25.7596C55.1816 25.2207 55.3325 24.7896 55.6128 24.4878C55.893 24.186 56.2594 24.0352 56.7121 24.0352C57.1432 24.0352 57.5097 24.186 57.7683 24.4878C58.0485 24.7896 58.1779 25.1992 58.1779 25.7381C58.1779 25.7812 58.1779 25.8243 58.1779 25.8889H55.7636C55.7852 26.2554 55.893 26.5141 56.0654 26.7081C56.2379 26.9021 56.475 26.9883 56.7337 26.9883C56.9277 26.9883 57.1001 26.9452 57.251 26.8374C57.3803 26.6865 57.4881 26.5141 57.5743 26.2985ZM55.7852 25.4147H57.5959C57.5743 25.1345 57.5097 24.9405 57.3803 24.8112C57.2079 24.5956 56.9708 24.4878 56.6905 24.4878C56.4319 24.4878 56.2163 24.574 56.0439 24.7465C55.893 24.8974 55.7852 25.1129 55.7852 25.4147Z" fill="#95A6B5"/>
<path d="M58.8682 24.0996H60.1399C60.4417 24.0996 60.6788 24.1212 60.8297 24.1858C60.9806 24.2289 61.1099 24.3367 61.2177 24.4661C61.3255 24.5954 61.3902 24.7678 61.3902 24.9618C61.3902 25.1127 61.3686 25.2421 61.3039 25.3714C61.2393 25.4792 61.1531 25.5869 61.0237 25.6516C61.1746 25.6947 61.3039 25.8025 61.4117 25.9318C61.5195 26.0612 61.5626 26.2336 61.5626 26.4276C61.5411 26.7294 61.4333 26.9665 61.2393 27.1174C61.0453 27.2683 60.7435 27.333 60.3771 27.333H58.9113V24.0996H58.8682ZM59.4071 25.4576H59.9891C60.2262 25.4576 60.3771 25.4361 60.4633 25.4145C60.5495 25.3929 60.6357 25.3498 60.7004 25.2636C60.7651 25.1989 60.8082 25.0912 60.8082 25.0049C60.8082 24.8325 60.7435 24.7247 60.6357 24.6385C60.5064 24.5738 60.3124 24.5307 60.0106 24.5307H59.4071V25.4576ZM59.4071 26.8803H60.1399C60.4417 26.8803 60.6573 26.8372 60.7866 26.7725C60.8944 26.7078 60.9591 26.5785 60.9591 26.4061C60.9591 26.2983 60.9159 26.2121 60.8513 26.1258C60.7866 26.0396 60.7004 25.975 60.5926 25.9534C60.4848 25.9318 60.3124 25.9103 60.0753 25.9103H59.4071V26.8803Z" fill="#95A6B5"/>
<path d="M64.2366 26.9443C64.0426 27.1167 63.827 27.246 63.6546 27.3107C63.4606 27.3754 63.2666 27.4185 63.051 27.4185C62.6846 27.4185 62.4259 27.3323 62.2319 27.1598C62.0379 26.9874 61.9517 26.7718 61.9517 26.4916C61.9517 26.3407 61.9948 26.1898 62.0594 26.0605C62.1241 25.9311 62.2319 25.8234 62.3397 25.7371C62.4474 25.6509 62.5983 25.6078 62.7277 25.5647C62.8354 25.5431 63.0079 25.5 63.2234 25.4785C63.6761 25.4354 63.9994 25.3707 64.1934 25.2845C64.1934 25.2198 64.1934 25.1551 64.1934 25.1336C64.1934 24.918 64.1503 24.7456 64.0426 24.6594C63.8917 24.53 63.6977 24.4654 63.4174 24.4654C63.1588 24.4654 62.9648 24.5085 62.8354 24.5947C62.7061 24.6809 62.6199 24.8534 62.5552 25.0689L62.0163 25.0043C62.0594 24.7671 62.1457 24.5947 62.2534 24.4438C62.3612 24.2929 62.5337 24.1851 62.7492 24.1205C62.9648 24.0343 63.2019 24.0127 63.4821 24.0127C63.7623 24.0127 63.9779 24.0558 64.1503 24.1205C64.3228 24.1851 64.4521 24.2714 64.5383 24.3576C64.6246 24.4438 64.6677 24.5731 64.7108 24.724C64.7323 24.8103 64.7323 24.9827 64.7323 25.2414V25.9743C64.7323 26.4916 64.7539 26.8149 64.7754 26.9443C64.797 27.0736 64.8401 27.2029 64.9048 27.3323H64.3228C64.3012 27.2245 64.2581 27.0952 64.2366 26.9443ZM64.1934 25.7156C63.9994 25.8018 63.6977 25.8665 63.2881 25.9311C63.0726 25.9743 62.9001 25.9958 62.8139 26.0389C62.7277 26.082 62.6414 26.1467 62.5983 26.2114C62.5552 26.2976 62.5121 26.3838 62.5121 26.47C62.5121 26.6209 62.5768 26.7287 62.6846 26.8365C62.7923 26.9443 62.9648 26.9874 63.1803 26.9874C63.3959 26.9874 63.5899 26.9443 63.7408 26.858C63.9132 26.7718 64.021 26.6425 64.1072 26.47C64.1719 26.3407 64.1934 26.1683 64.1934 25.9311V25.7156Z" fill="#95A6B5"/>
<path d="M65.1846 24.0996H67.8144V24.5523H66.7797V27.333H66.2408V24.5523H65.2061V24.0996H65.1846Z" fill="#95A6B5"/>
<path d="M68.0942 25.7156C68.0942 25.112 68.2667 24.6809 68.59 24.3791C68.8702 24.142 69.2151 24.0127 69.6031 24.0127C70.0558 24.0127 70.4223 24.1636 70.7025 24.4438C70.9827 24.724 71.1336 25.1336 71.1336 25.6509C71.1336 26.0605 71.0689 26.4054 70.9396 26.6425C70.8103 26.8796 70.6378 27.0736 70.4007 27.2029C70.1636 27.3323 69.9049 27.3969 69.6247 27.3969C69.172 27.3969 68.8056 27.246 68.5254 26.9658C68.2236 26.6856 68.0942 26.2545 68.0942 25.7156ZM68.6547 25.7156C68.6547 26.1251 68.7409 26.4485 68.9349 26.6425C69.1074 26.858 69.3445 26.9443 69.6247 26.9443C69.9049 26.9443 70.1205 26.8365 70.3145 26.6425C70.4869 26.4269 70.5947 26.1251 70.5947 25.694C70.5947 25.2845 70.5085 24.9827 70.3145 24.7887C70.142 24.5731 69.9049 24.4869 69.6247 24.4869C69.3445 24.4869 69.1289 24.5947 68.9349 24.7887C68.7409 24.9827 68.6547 25.306 68.6547 25.7156Z" fill="#95A6B5"/>
<path d="M71.8032 28.5834V24.0998H72.299V24.5309C72.4068 24.3585 72.5577 24.2507 72.7086 24.1645C72.8594 24.0783 73.0319 24.0352 73.2474 24.0352C73.5277 24.0352 73.7648 24.0998 73.9803 24.2507C74.1959 24.4016 74.3468 24.5956 74.4546 24.8543C74.5623 25.1129 74.627 25.3932 74.627 25.7165C74.627 26.0398 74.5623 26.3416 74.4546 26.6218C74.3252 26.8805 74.1528 27.0961 73.9372 27.2254C73.7001 27.3763 73.463 27.441 73.2259 27.441C73.0535 27.441 72.881 27.3978 72.7301 27.3332C72.5792 27.2685 72.4714 27.1607 72.3637 27.0314V28.605H71.8032V28.5834ZM72.299 25.7381C72.299 26.1476 72.3852 26.4709 72.5577 26.6649C72.7301 26.8589 72.9241 26.9667 73.1612 26.9667C73.3983 26.9667 73.6139 26.8589 73.7863 26.6649C73.9588 26.4494 74.045 26.1476 74.045 25.6949C74.045 25.2854 73.9588 24.9621 73.7863 24.768C73.6139 24.5525 73.4199 24.4663 73.1828 24.4663C72.9457 24.4663 72.7517 24.574 72.5577 24.7896C72.3852 25.0052 72.299 25.3069 72.299 25.7381Z" fill="#95A6B5"/>
<path d="M75.292 24.0996H75.8309V25.4576H77.3613V24.0996H77.9002V27.333H77.3613V25.8887H75.8309V27.333H75.292V24.0996Z" fill="#95A6B5"/>
<path d="M78.7656 24.0996H79.3045V26.5785L80.835 24.0996H81.417V27.333H80.8781V24.8756L79.3476 27.333H78.7656V24.0996Z" fill="#95A6B5"/>
<path d="M82.2764 24.0988H82.8153V26.5776L84.3457 24.0988H84.9277V27.332H84.3888V24.8747L82.8584 27.332H82.2764V24.0988ZM84.1733 22.8701H84.5397C84.5182 23.1288 84.4104 23.3228 84.2595 23.4521C84.1086 23.5814 83.893 23.6461 83.6344 23.6461C83.3757 23.6461 83.1601 23.5814 83.0093 23.4521C82.8584 23.3228 82.7506 23.1288 82.729 22.8701H83.0955C83.117 22.9994 83.1817 23.1072 83.2679 23.1719C83.3541 23.2366 83.4619 23.2797 83.6128 23.2797C83.7853 23.2797 83.893 23.2366 83.9793 23.1719C84.087 23.1072 84.1517 22.9994 84.1733 22.8701Z" fill="#95A6B5"/>
<path d="M89.6502 26.1476L90.1891 26.2123C90.1244 26.5787 89.9735 26.8805 89.7364 27.0961C89.4993 27.3116 89.1975 27.4194 88.8311 27.4194C88.3784 27.4194 88.0335 27.2685 87.7533 26.9883C87.4731 26.7081 87.3438 26.2769 87.3438 25.7381C87.3438 25.3932 87.4084 25.0914 87.5162 24.8112C87.624 24.5525 87.818 24.3585 88.0551 24.2292C88.2922 24.0998 88.5509 24.0352 88.8311 24.0352C89.176 24.0352 89.4778 24.1214 89.6933 24.2938C89.9089 24.4663 90.0598 24.7249 90.1244 25.0483L89.5855 25.1345C89.5424 24.9189 89.4347 24.7465 89.3053 24.6387C89.176 24.5309 89.0251 24.4663 88.8311 24.4663C88.5509 24.4663 88.3353 24.574 88.1629 24.768C87.9904 24.962 87.9042 25.2854 87.9042 25.7165C87.9042 26.1476 87.9904 26.4709 88.1629 26.6649C88.3353 26.8589 88.5509 26.9667 88.8095 26.9667C89.0251 26.9667 89.1975 26.9021 89.3484 26.7727C89.5209 26.6218 89.6071 26.4278 89.6502 26.1476Z" fill="#95A6B5"/>
<path d="M92.7976 26.9443C92.6036 27.1167 92.388 27.246 92.2156 27.3107C92.0216 27.3754 91.8276 27.4185 91.612 27.4185C91.2456 27.4185 90.9869 27.3323 90.7929 27.1598C90.5989 26.9874 90.5127 26.7718 90.5127 26.4916C90.5127 26.3407 90.5558 26.1898 90.6205 26.0605C90.6851 25.9311 90.7929 25.8234 90.9007 25.7371C91.0085 25.6509 91.1594 25.6078 91.2887 25.5647C91.3965 25.5431 91.5689 25.5 91.7845 25.4785C92.2371 25.4354 92.5605 25.3707 92.7545 25.2845C92.7545 25.2198 92.7545 25.1551 92.7545 25.1336C92.7545 24.918 92.7114 24.7456 92.6036 24.6594C92.4527 24.53 92.2587 24.4654 91.9785 24.4654C91.7198 24.4654 91.5258 24.5085 91.3965 24.5947C91.2671 24.6809 91.1809 24.8534 91.1163 25.0689L90.5774 25.0043C90.6205 24.7671 90.7067 24.5947 90.8145 24.4438C90.9223 24.2929 91.0947 24.1851 91.3103 24.1205C91.5258 24.0343 91.7629 24.0127 92.0431 24.0127C92.3234 24.0127 92.5389 24.0558 92.7114 24.1205C92.8838 24.1851 93.0131 24.2714 93.0994 24.3576C93.1856 24.4438 93.2287 24.5731 93.2718 24.724C93.2934 24.8103 93.2934 24.9827 93.2934 25.2414V25.9743C93.2934 26.4916 93.3149 26.8149 93.3365 26.9443C93.358 27.0736 93.4011 27.2029 93.4658 27.3323H92.9054C92.8407 27.2245 92.8191 27.0952 92.7976 26.9443ZM92.7545 25.7156C92.5605 25.8018 92.2587 25.8665 91.8491 25.9311C91.6336 25.9743 91.4611 25.9958 91.3749 26.0389C91.2887 26.082 91.2025 26.1467 91.1594 26.2114C91.1163 26.2976 91.0731 26.3838 91.0731 26.47C91.0731 26.6209 91.1378 26.7287 91.2456 26.8365C91.3534 26.9443 91.5258 26.9874 91.7414 26.9874C91.9569 26.9874 92.1509 26.9443 92.3018 26.858C92.4743 26.7718 92.582 26.6425 92.6683 26.47C92.7329 26.3407 92.7545 26.1683 92.7545 25.9311V25.7156Z" fill="#95A6B5"/>
<path d="M94.1768 24.0988H94.7157V26.5776L96.2461 24.0988H96.8281V27.332H96.2892V24.8747L94.7588 27.332H94.1768V24.0988ZM96.0737 22.8701H96.4401C96.4186 23.1288 96.3108 23.3228 96.1599 23.4521C96.009 23.5814 95.7934 23.6461 95.5348 23.6461C95.2761 23.6461 95.0605 23.5814 94.9097 23.4521C94.7588 23.3228 94.651 23.1288 94.6294 22.8701H94.9959C95.0174 22.9994 95.0821 23.1072 95.1683 23.1719C95.2545 23.2366 95.3623 23.2797 95.5132 23.2797C95.6857 23.2797 95.7934 23.2366 95.8797 23.1719C95.9874 23.1072 96.0521 22.9994 96.0737 22.8701Z" fill="#95A6B5"/>
<path d="M97.3877 24.0996H100.017V24.5523H98.9828V27.333H98.4439V24.5523H97.4093V24.0996H97.3877Z" fill="#95A6B5"/>
<path d="M102.324 24.0987H102.863V25.4998C103.036 25.4998 103.165 25.4567 103.23 25.392C103.294 25.3274 103.402 25.1334 103.531 24.81C103.639 24.5514 103.725 24.3789 103.79 24.2927C103.855 24.2065 103.941 24.1634 104.027 24.1203C104.113 24.0987 104.264 24.0771 104.458 24.0771H104.566V24.5298H104.415C104.264 24.5298 104.178 24.5514 104.135 24.5945C104.092 24.6376 104.027 24.7669 103.941 25.004C103.855 25.2196 103.79 25.3705 103.704 25.4352C103.639 25.5214 103.531 25.586 103.381 25.6507C103.618 25.7154 103.855 25.9309 104.07 26.3189L104.674 27.3321H104.07L103.488 26.3189C103.359 26.1249 103.273 25.9741 103.165 25.9309C103.079 25.8663 102.971 25.8447 102.842 25.8447V27.3536H102.303V24.0987H102.324Z" fill="#95A6B5"/>
<path d="M105.086 28.5834V24.0998H105.582V24.5309C105.689 24.3585 105.84 24.2507 105.991 24.1645C106.142 24.0783 106.315 24.0352 106.53 24.0352C106.81 24.0352 107.047 24.0998 107.263 24.2507C107.479 24.4016 107.629 24.5956 107.737 24.8543C107.845 25.1129 107.91 25.3932 107.91 25.7165C107.91 26.0398 107.845 26.3416 107.737 26.6218C107.608 26.8805 107.435 27.0961 107.22 27.2254C106.983 27.3763 106.746 27.441 106.509 27.441C106.336 27.441 106.164 27.3978 106.013 27.3332C105.862 27.247 105.754 27.1607 105.646 27.0314V28.605H105.086V28.5834ZM105.582 25.7381C105.582 26.1476 105.668 26.4709 105.84 26.6649C106.013 26.8589 106.207 26.9667 106.444 26.9667C106.681 26.9667 106.897 26.8589 107.069 26.6649C107.242 26.4494 107.328 26.1476 107.328 25.6949C107.328 25.2854 107.242 24.9621 107.069 24.768C106.897 24.5525 106.703 24.4663 106.465 24.4663C106.228 24.4663 106.034 24.574 105.84 24.7896C105.668 25.0052 105.582 25.3069 105.582 25.7381Z" fill="#95A6B5"/>
<path d="M110.689 26.9443C110.495 27.1167 110.279 27.246 110.107 27.3107C109.913 27.3754 109.719 27.4185 109.503 27.4185C109.137 27.4185 108.878 27.3323 108.684 27.1598C108.49 26.9874 108.404 26.7718 108.404 26.4916C108.404 26.3407 108.447 26.1898 108.512 26.0605C108.576 25.9311 108.684 25.8234 108.792 25.7371C108.9 25.6509 109.05 25.6078 109.18 25.5647C109.288 25.5431 109.46 25.5 109.676 25.4785C110.128 25.4354 110.452 25.3707 110.646 25.2845C110.646 25.2198 110.646 25.1551 110.646 25.1336C110.646 24.918 110.602 24.7456 110.495 24.6594C110.344 24.53 110.15 24.4654 109.87 24.4654C109.611 24.4654 109.417 24.5085 109.288 24.5947C109.158 24.6809 109.072 24.8534 109.007 25.0689L108.468 25.0043C108.512 24.7671 108.598 24.5947 108.706 24.4438C108.813 24.2929 108.986 24.1851 109.201 24.1205C109.417 24.0343 109.654 24.0127 109.934 24.0127C110.214 24.0127 110.43 24.0558 110.602 24.1205C110.775 24.1851 110.904 24.2714 110.991 24.3576C111.077 24.4438 111.12 24.5731 111.163 24.724C111.185 24.8103 111.185 24.9827 111.185 25.2414V25.9743C111.185 26.4916 111.206 26.8149 111.228 26.9443C111.249 27.0736 111.292 27.2029 111.357 27.3323H110.797C110.732 27.2245 110.71 27.0952 110.689 26.9443ZM110.646 25.7156C110.452 25.8018 110.15 25.8665 109.74 25.9311C109.525 25.9743 109.352 25.9958 109.266 26.0389C109.18 26.082 109.094 26.1467 109.05 26.2114C109.007 26.2976 108.964 26.3838 108.964 26.47C108.964 26.6209 109.029 26.7287 109.137 26.8365C109.244 26.9443 109.417 26.9874 109.632 26.9874C109.848 26.9874 110.042 26.9443 110.193 26.858C110.365 26.7718 110.473 26.6425 110.559 26.47C110.624 26.3407 110.646 26.1683 110.646 25.9311V25.7156Z" fill="#95A6B5"/>
<path d="M111.68 23.4523V22.8271H112.262V23.4523H111.68ZM112.262 27.3323V24.0989H112.801V27.3323H112.262ZM112.823 23.4523V22.8271H113.405V23.4523H112.823Z" fill="#95A6B5"/>
<path d="M113.836 24.0996H114.375V25.4576H115.906V24.0996H116.445V27.333H115.906V25.8887H114.375V27.333H113.836V24.0996Z" fill="#95A6B5"/>
<path d="M117.284 24.0996H117.823V26.5785L119.354 24.0996H119.936V27.333H119.418V24.8756L117.888 27.333H117.306V24.0996H117.284Z" fill="#95A6B5"/>
</svg>
