<svg width="120" height="26" viewBox="0 0 120 26" fill="none" xmlns="http://www.w3.org/2000/svg">
<path d="M90.3348 14.6786H88.166V12.5098H90.3348V14.6786Z" fill="#CDA800"/>
<path d="M99.8608 11.3282C99.8415 11.9866 99.764 12.2384 99.4735 12.8387C98.7958 14.2135 97.6339 14.8719 95.9299 14.8719C93.277 14.8719 91.6504 12.9548 91.6504 10.36C91.6504 7.72649 93.4125 5.90625 95.9686 5.90625C97.8857 5.90625 99.6672 7.08747 99.8221 9.12072H97.6146C97.4209 8.22996 96.84 7.76522 95.9105 7.76522C94.6906 7.76522 93.8966 8.79153 93.8966 10.3988C93.8966 11.9479 94.6906 12.9548 95.9105 12.9548C96.8981 12.9548 97.479 12.3933 97.6339 11.3089H99.8608V11.3282Z" fill="#CDA800"/>
<path d="M105.012 14.8717C102.359 14.8717 100.713 12.9934 100.713 10.3792C100.713 7.84251 102.417 5.88672 104.974 5.88672C107.53 5.88672 109.176 7.6295 109.176 10.3792C109.176 12.9159 107.607 14.8717 105.012 14.8717ZM104.954 7.72632C103.754 7.72632 102.998 8.75263 102.998 10.3792C102.998 12.0446 103.734 13.0515 104.974 13.0515C106.193 13.0515 106.891 12.0446 106.891 10.3405C106.891 8.7139 106.155 7.72632 104.954 7.72632Z" fill="#CDA800"/>
<path d="M110.395 6.09961H113.648L115.216 12.0444L116.823 6.09961H119.98V14.6586H117.869L117.985 8.13286L116.068 14.6586H114.345L112.447 8.13286L112.525 14.6586H110.414V6.09961H110.395Z" fill="#CDA800"/>
<path d="M27.5362 1.74316H3.87305V25.4063H27.5362V1.74316Z" fill="#CDA800"/>
<path d="M20.6231 1.8977C20.2745 0.755206 19.3063 0 18.2219 0H15.7046H13.2066C12.1222 0 11.154 0.755206 10.786 1.8977L9.64355 5.49945H15.7046H21.7656L20.6231 1.8977Z" fill="#C09E58"/>
<path d="M41.091 9.46899L44.654 14.678H41.8849L39.5805 11.0762L38.6704 12.0251V14.678H36.4629V6.09961H38.6511V9.37217L41.517 6.09961H44.2861L41.091 9.46899Z" fill="#766234"/>
<path d="M52.7676 6.09961V11.2311C52.7676 13.7291 51.4508 14.8135 49.0109 14.8135C46.4742 14.8135 45.293 13.6904 45.293 11.2311V6.09961H47.5392V11.2892C47.5392 12.3349 47.9071 12.9933 49.0496 12.9933C50.0372 12.9933 50.502 12.4511 50.502 11.2892V6.09961H52.7676Z" fill="#766234"/>
<path d="M54.2217 6.09961H58.6755C60.2827 6.09961 61.5801 6.89354 61.5801 8.57824C61.5801 9.56581 61.1347 10.2823 60.2633 10.6696C60.8055 10.8439 61.1928 11.2311 61.3477 11.7733C61.4833 12.2381 61.5026 12.3349 61.6188 13.5936C61.6576 13.9809 61.6576 14.3488 61.8899 14.6586H59.6243C59.4113 14.1358 59.4307 13.4387 59.3726 12.8577C59.2564 11.8508 58.8885 11.4635 57.8428 11.4635H56.4679V14.6586H54.2217V6.09961ZM58.0364 9.89501C58.7723 9.89501 59.3919 9.74009 59.3919 8.82997C59.3919 8.15222 58.9466 7.82303 58.0171 7.82303H56.4679V9.87564H58.0364V9.89501Z" fill="#766234"/>
<path d="M67.5988 9.46899L71.1618 14.678H68.3927L66.0883 11.0762L65.1782 12.0251V14.678H62.9707V6.09961H65.1589V9.37217L68.0248 6.09961H70.7939L67.5988 9.46899Z" fill="#766234"/>
<path d="M79.2593 6.09961V11.2311C79.2593 13.7291 77.9425 14.8135 75.5026 14.8135C72.9659 14.8135 71.7847 13.6904 71.7847 11.2311V6.09961H74.0309V11.2892C74.0309 12.3349 74.3988 12.9933 75.5413 12.9933C76.5289 12.9933 76.9937 12.4511 76.9937 11.2892V6.09961H79.2593Z" fill="#766234"/>
<path d="M87.0042 14.678H80.7495V6.09961H82.9958V12.7416H86.9848V14.678H87.0042Z" fill="#766234"/>
<path d="M31.4088 9.37188C31.4088 11.5213 24.3796 13.2447 15.7044 13.2447C7.02923 13.2447 0 11.5213 0 9.37188C0 7.22244 7.02923 5.49902 15.7044 5.49902C24.3796 5.49902 31.4088 7.22244 31.4088 9.37188Z" fill="#766234"/>
<path d="M15.7044 5.78991C23.973 5.78991 30.7698 7.37778 31.3701 9.3723C31.3895 9.27548 31.4088 9.17866 31.4088 9.08184C31.4088 6.9324 24.3796 5.20898 15.7044 5.20898C7.02923 5.20898 0 6.9324 0 9.08184C0 9.17866 0.0193643 9.27548 0.0387285 9.3723C0.639021 7.35842 7.43588 5.78991 15.7044 5.78991Z" fill="#A2832E"/>
<path d="M21.0673 7.57175C20.2734 6.91337 18.1433 6.73909 16.4586 6.71973C16.3231 6.71973 16.2069 6.71973 16.0714 6.71973C15.9358 6.71973 15.8196 6.71973 15.7034 6.71973C15.5873 6.71973 15.4517 6.71973 15.3355 6.71973C15.2193 6.71973 15.0838 6.71973 14.9482 6.71973C13.2635 6.73909 11.1335 6.91337 10.3395 7.57175C8.94531 8.73361 7.33808 19.4614 9.79734 21.0687C11.2109 21.9981 11.3465 22.2111 12.3147 22.2886C12.6826 22.308 13.2635 22.4048 13.7089 22.521C13.8832 22.6372 13.98 22.8308 14.3092 23.0051C14.6578 23.2181 15.3936 23.3149 15.7034 23.3149C16.0133 23.3149 16.7491 23.2181 17.0977 23.0051C17.4462 22.8114 17.5237 22.6178 17.7367 22.5016C18.1627 22.4048 18.7049 22.3273 19.0341 22.308C20.0023 22.2305 20.1959 22.0175 21.6095 21.088C24.0688 19.4614 22.4809 8.73361 21.0673 7.57175Z" fill="#EBD9B2"/>
<path d="M36.4443 17.7959H38.9423V18.2994H37.0253V22.0367H36.4637V17.7959H36.4443Z" fill="#191E25"/>
<path d="M39.4076 22.1329C38.5168 22.1329 37.9746 21.4939 37.9746 20.4869C37.9746 19.48 38.5168 18.8604 39.4076 18.8604C40.2983 18.8604 40.8405 19.4994 40.8405 20.4869C40.8405 21.5133 40.2983 22.1329 39.4076 22.1329ZM39.4076 19.3251C38.8073 19.3251 38.4974 19.8092 38.4974 20.5063C38.4974 21.2034 38.8073 21.6875 39.4076 21.6875C40.0079 21.6875 40.3177 21.2034 40.3177 20.5063C40.2983 19.8092 39.9885 19.3251 39.4076 19.3251Z" fill="#191E25"/>
<path d="M43.4912 19.4219H42.2712L42.2325 20.913C42.1938 21.7263 41.9808 22.1523 41.4386 22.1523C41.2256 22.1523 41.1481 22.0942 41.1094 22.0555V21.6295C41.1868 21.6682 41.2449 21.6876 41.3417 21.6876C41.5548 21.6876 41.6903 21.5133 41.7097 20.8162L41.7678 18.9766H44.0334V22.0748H43.5105V19.4219H43.4912Z" fill="#191E25"/>
<path d="M46.2806 22.1329C45.3899 22.1329 44.8477 21.4939 44.8477 20.4869C44.8477 19.48 45.3899 18.8604 46.2806 18.8604C47.1714 18.8604 47.7136 19.4994 47.7136 20.4869C47.7136 21.5133 47.1907 22.1329 46.2806 22.1329ZM46.2806 19.3251C45.6803 19.3251 45.3705 19.8092 45.3705 20.5063C45.3705 21.2034 45.6803 21.6875 46.2806 21.6875C46.8809 21.6875 47.1907 21.2034 47.1907 20.5063C47.1907 19.8092 46.8809 19.3251 46.2806 19.3251Z" fill="#191E25"/>
<path d="M48.5833 18.958H49.9001C50.6553 18.958 51.0232 19.2485 51.0232 19.7713C51.0232 20.0618 50.8683 20.2361 50.6359 20.391C50.9651 20.5072 51.1588 20.7395 51.1588 21.1074C51.1588 21.6884 50.7715 22.0369 49.9582 22.0369H48.564V18.958H48.5833ZM49.1255 20.2554H49.9195C50.268 20.2554 50.5004 20.1199 50.5004 19.81C50.5004 19.4808 50.2487 19.3647 49.9969 19.3647H49.1255V20.2554ZM49.1255 21.6109H49.9388C50.5004 21.6109 50.6747 21.4366 50.6747 21.1268C50.6747 20.817 50.5004 20.6427 49.9388 20.6427H49.1255V21.6109Z" fill="#191E25"/>
<path d="M52.0488 18.958H52.5717V20.1973H54.0046V18.958H54.5275V22.0563H54.024V20.6814H52.591V22.0563H52.0682V18.958H52.0488Z" fill="#191E25"/>
<path d="M55.5376 18.958H56.0604V21.2624H56.0798L57.474 18.958H58.0743V22.0563H57.5515V19.7519H57.5321L56.1379 22.0563H55.5376V18.958Z" fill="#191E25"/>
<path d="M59.0405 18.9569H59.5634V21.2613H59.5827L60.977 18.9569H61.5772V22.0552H61.0544V19.7509H61.035L59.6408 22.0552H59.0405V18.9569ZM59.6989 17.6982C59.7764 18.0468 60.0087 18.163 60.3186 18.163C60.6284 18.163 60.8608 18.0468 60.9382 17.6982H61.2287C61.19 18.1436 60.9189 18.5115 60.3186 18.5115C59.7183 18.5115 59.4472 18.1243 59.4084 17.6982H59.6989Z" fill="#191E25"/>
<path d="M66.8663 20.9517C66.8276 21.3971 66.5371 22.1329 65.5495 22.1329C65.0073 22.1329 64.2715 21.7456 64.2715 20.5063C64.2715 19.48 64.8911 18.8604 65.6076 18.8604C66.5758 18.8604 66.8469 19.5187 66.8857 20.0028H66.3822C66.3241 19.5768 66.0917 19.3251 65.6657 19.3251C65.0848 19.3251 64.7943 19.8286 64.7943 20.545C64.7943 21.3583 65.1041 21.7069 65.627 21.7069C65.9949 21.7069 66.3047 21.4358 66.3822 20.9517H66.8663Z" fill="#191E25"/>
<path d="M67.6194 19.8867C67.6388 19.1315 68.1616 18.8604 68.8975 18.8604C69.4978 18.8604 70.0787 19.0927 70.0787 19.7124V21.5133C70.0787 21.6101 70.1368 21.6875 70.253 21.6875C70.3111 21.6875 70.3692 21.6682 70.4272 21.6682V22.0361C70.3304 22.0555 70.253 22.0748 70.1368 22.0748C69.7689 22.0748 69.6139 21.9586 69.5752 21.6294C69.3235 21.9199 69.0137 22.1329 68.4327 22.1329C67.968 22.1329 67.4839 21.8231 67.4839 21.2422C67.4839 20.6031 67.9486 20.332 68.4134 20.2739L69.2848 20.1771C69.459 20.1578 69.5559 20.0609 69.5559 19.8092C69.5559 19.4413 69.3041 19.2864 68.8394 19.2864C68.3746 19.2864 68.1423 19.48 68.1229 19.8867H67.6194ZM69.5365 20.4676C69.3622 20.5838 69.0137 20.6225 68.6845 20.6612C68.2972 20.7193 68.0261 20.8549 68.0261 21.1647C68.0261 21.5133 68.2585 21.7069 68.5876 21.7069C68.8975 21.7069 69.5365 21.4939 69.5365 20.9711V20.4676Z" fill="#191E25"/>
<path d="M71.1035 18.9569H71.6263V21.2613H71.6457L73.0399 18.9569H73.6402V22.0552H73.1174V19.7509H73.098L71.7038 22.0552H71.1035V18.9569ZM71.7619 17.6982C71.8394 18.0468 72.0717 18.163 72.3816 18.163C72.6914 18.163 72.9238 18.0468 73.0012 17.6982H73.2917C73.2529 18.1436 72.9818 18.5115 72.3816 18.5115C71.8006 18.5115 71.5102 18.1243 71.4714 17.6982H71.7619Z" fill="#191E25"/>
<path d="M75.463 19.4228H74.3979V18.958H77.0508V19.4228H75.9858V22.0563H75.463V19.4228Z" fill="#191E25"/>
<path d="M82.2789 22.0368H80.0132V22.792H79.5098V21.572H79.9164C80.2456 20.7394 80.3812 19.8486 80.3812 18.9385H82.395V21.572H82.7823V22.792H82.2789V22.0368ZM81.8722 21.5914V19.4226H80.8653C80.8265 19.7905 80.8072 20.1972 80.691 20.6813C80.5748 21.2428 80.4973 21.4558 80.4393 21.5914H81.8722Z" fill="#191E25"/>
<path d="M85.5898 19.4219H84.3699L84.3311 20.913C84.2924 21.7263 84.0794 22.1523 83.5372 22.1523C83.3242 22.1523 83.2467 22.0942 83.208 22.0555V21.6295C83.2855 21.6682 83.3436 21.6876 83.4404 21.6876C83.6534 21.6876 83.7889 21.5133 83.8083 20.8162L83.8664 18.9766H86.132V22.0748H85.5898V19.4219Z" fill="#191E25"/>
<path d="M89.6368 22.0361H89.114V20.8162H88.4362C87.9521 20.8162 87.7004 20.8162 87.6616 21.3003L87.6423 21.6295C87.6423 21.6682 87.6229 21.8812 87.5648 22.0361H86.9839C87.042 21.978 87.0807 21.9006 87.1194 21.5907L87.1582 21.2035C87.1969 20.7968 87.2744 20.7 87.5648 20.6032C87.2356 20.487 87.0613 20.2352 87.0613 19.8673C87.0613 19.4994 87.2744 19.2477 87.4486 19.1315C87.7004 18.9766 88.0296 18.9766 88.2619 18.9766H89.6368V22.0361ZM89.114 19.4219H88.3007C88.0296 19.4219 87.9134 19.4219 87.7972 19.4994C87.6616 19.5769 87.5842 19.7511 87.5842 19.906C87.5842 20.4095 88.0877 20.4095 88.3007 20.4095H89.114V19.4219Z" fill="#191E25"/>
<path d="M94.3238 21.6687C94.0914 22.056 93.8203 22.1335 93.5299 22.1335C92.9296 22.1335 92.3486 21.5526 92.3486 20.4682C92.3486 19.6742 92.6778 18.8416 93.5299 18.8416C93.9559 18.8416 94.1882 19.1127 94.3238 19.3063H94.3432V17.7959H94.866V19.3063H94.8854C95.0209 19.1127 95.2533 18.8416 95.6793 18.8416C96.5313 18.8416 96.8605 19.6549 96.8605 20.4682C96.8605 21.5526 96.2796 22.1335 95.6793 22.1335C95.3695 22.1335 95.0984 22.056 94.8854 21.6687H94.866V23.2566H94.3432V21.6687H94.3238ZM94.3238 20.2358C94.3238 19.6549 94.014 19.3257 93.6654 19.3257C93.1038 19.3257 92.8715 19.8485 92.8715 20.5069C92.8715 21.0297 93.0264 21.7268 93.646 21.7268C94.0914 21.7268 94.3238 21.3976 94.3238 20.8167V20.2358ZM96.2989 20.5069C96.2989 19.8679 96.0666 19.3257 95.505 19.3257C95.1565 19.3257 94.8466 19.6549 94.8466 20.2358V20.8167C94.8466 21.3976 95.0984 21.7268 95.505 21.7268C96.144 21.7075 96.2989 21.0104 96.2989 20.5069Z" fill="#191E25"/>
<path d="M100.285 21.0679C100.208 21.6101 99.7041 22.1523 98.9295 22.1523C98.0969 22.1523 97.4966 21.6101 97.4966 20.487C97.4966 19.3638 98.2905 18.8604 98.8908 18.8604C99.7428 18.8604 100.324 19.3638 100.324 20.4289V20.7H98.0581C98.0581 21.3002 98.3873 21.6875 98.9295 21.6875C99.4717 21.6875 99.6654 21.3583 99.7622 21.0679H100.285ZM99.7816 20.2546C99.7622 19.6543 99.433 19.3251 98.9295 19.3251C98.4454 19.3251 98.0969 19.7124 98.0581 20.2546H99.7816Z" fill="#191E25"/>
<path d="M101.14 18.9572H101.663V19.3832H101.682C101.818 19.0927 102.089 18.8604 102.592 18.8604C103.251 18.8604 103.851 19.3638 103.851 20.3901C103.851 21.6682 103.309 22.1523 102.496 22.1523C102.089 22.1523 101.779 21.9005 101.682 21.7069H101.663V23.2754H101.14V18.9572ZM102.476 21.6875C103.057 21.6875 103.328 21.1841 103.328 20.5257C103.328 19.8286 103.077 19.3251 102.476 19.3251C101.915 19.3251 101.663 19.8286 101.663 20.5257C101.644 21.1841 101.915 21.6875 102.476 21.6875Z" fill="#191E25"/>
<path d="M104.664 18.958H105.439L106.252 21.4947H106.271L107.104 18.958H107.84V22.0563H107.336V19.5583H107.317L106.504 22.0369H106L105.187 19.5583H105.168V22.0369H104.664V18.958Z" fill="#191E25"/>
<path d="M111.46 21.0679C111.383 21.6101 110.879 22.1523 110.105 22.1523C109.272 22.1523 108.672 21.6101 108.672 20.487C108.672 19.3638 109.466 18.8604 110.066 18.8604C110.918 18.8604 111.499 19.3638 111.499 20.4289V20.7H109.233C109.233 21.3002 109.563 21.6875 110.105 21.6875C110.647 21.6875 110.841 21.3583 110.937 21.0679H111.46ZM110.957 20.2546C110.937 19.6543 110.608 19.3251 110.105 19.3251C109.621 19.3251 109.272 19.7124 109.233 20.2546H110.957Z" fill="#191E25"/>
<path d="M112.312 18.9572H112.835V19.3832H112.855C112.99 19.0927 113.261 18.8604 113.765 18.8604C114.423 18.8604 115.024 19.3638 115.024 20.3901C115.024 21.6682 114.481 22.1523 113.668 22.1523C113.261 22.1523 112.952 21.9005 112.855 21.7069H112.835V23.2754H112.312V18.9572ZM113.649 21.6875C114.23 21.6875 114.501 21.1841 114.501 20.5257C114.501 19.8286 114.249 19.3251 113.649 19.3251C113.087 19.3251 112.835 19.8286 112.835 20.5257C112.816 21.1841 113.087 21.6875 113.649 21.6875Z" fill="#191E25"/>
<path d="M115.836 17.834H116.359V18.4343H115.836V17.834ZM115.836 18.9571H116.359V22.0554H115.836V18.9571Z" fill="#191E25"/>
<path d="M117.425 18.958H118.742C119.497 18.958 119.865 19.2485 119.865 19.7713C119.865 20.0618 119.71 20.2361 119.478 20.391C119.807 20.5072 120.001 20.7395 120.001 21.1074C120.001 21.6884 119.613 22.0369 118.8 22.0369H117.406V18.958H117.425ZM117.967 20.2554H118.761C119.11 20.2554 119.342 20.1199 119.342 19.81C119.342 19.4808 119.09 19.3647 118.839 19.3647H117.967V20.2554ZM117.967 21.6109H118.781C119.342 21.6109 119.516 21.4366 119.516 21.1268C119.516 20.817 119.342 20.6427 118.781 20.6427H117.967V21.6109Z" fill="#191E25"/>
<path d="M15.686 16.3625C15.9958 15.9752 16.3831 15.8203 16.8091 15.8203C17.2352 15.8203 17.6612 15.8784 18.0872 15.9559C18.3776 15.9946 18.6487 16.072 18.9198 16.1882C19.1522 16.2851 19.3652 16.4593 19.5201 16.653C19.7138 16.8853 19.83 17.1758 19.9655 17.4469C20.2947 18.144 20.682 18.8024 21.321 19.2865C21.96 19.7706 23.0251 19.7319 23.5673 19.2284C23.9739 18.8411 23.9352 18.4732 23.4317 18.2021C23.3349 18.144 23.2574 18.1053 23.1606 18.0666C23.1606 18.0472 23.1606 18.0085 23.18 17.9891C23.3349 18.0085 23.5092 17.9697 23.6641 18.0278C24.3418 18.2408 24.6129 19.0348 24.2257 19.6738C23.5866 20.7388 22.1924 21.2617 20.9725 20.9325C20.1011 20.7001 19.5395 20.1773 19.1716 19.3833C19.1135 19.2672 19.036 19.151 18.9779 19.0348C18.8424 18.8024 18.6294 18.6862 18.3583 18.7056C17.9129 18.725 17.4869 18.7637 17.0415 18.7637C16.538 18.7637 16.0927 18.6475 15.7441 18.2215C15.1438 18.938 14.3305 18.8411 13.5366 18.783C12.5103 18.7056 12.6265 18.7056 12.1424 19.6157C11.5421 20.7388 9.93482 21.4166 8.73424 20.9325C8.17268 20.7001 7.66921 20.3709 7.30128 19.8674C6.85591 19.2672 6.93336 18.6088 7.49493 18.2021C7.7273 18.0472 7.97903 17.9697 8.28886 18.0859C8.11458 18.2021 7.95967 18.2796 7.82412 18.3764C7.53366 18.6088 7.49493 18.8605 7.7273 19.151C8.07586 19.577 8.52123 19.7513 9.06343 19.6738C9.25708 19.6544 9.45072 19.6544 9.625 19.5963C10.1091 19.4802 10.4189 19.0929 10.69 18.725C10.9805 18.3183 11.2129 17.8729 11.4452 17.4469C11.5808 17.2145 11.697 16.9434 11.8519 16.7304C11.9487 16.5755 12.1036 16.4012 12.2585 16.3431C13.0331 16.0914 13.7883 15.8009 14.6403 15.8978C15.047 15.8978 15.3955 16.0527 15.686 16.3625Z" fill="#191E25"/>
</svg>
