<svg width="140" height="18" viewBox="0 0 140 18" fill="none" xmlns="http://www.w3.org/2000/svg">
<path d="M0.047122 6.92668V8.48171C0.23561 8.34034 0.424098 8.2461 0.612586 8.10473C0.659708 8.05761 0.70683 8.05761 0.753952 8.01049C0.518342 7.68063 0.282732 7.30366 0.047122 6.92668ZM0.047122 3.67526V5.23029C0.565464 5.98424 1.08381 6.73819 1.55503 7.53927C1.69639 7.44502 1.83776 7.3979 1.932 7.30366C2.07337 7.20941 2.16761 7.16229 2.30898 7.06805C1.60215 5.93712 0.848197 4.80619 0.047122 3.67526ZM10.4611 3.15692C9.94275 3.39253 9.37728 3.58102 8.85894 3.81663C8.81182 3.86375 8.71757 3.86375 8.67045 3.91087C8.43484 4.00511 8.24635 4.09936 8.01074 4.1936C7.86938 3.95799 7.72801 3.72238 7.63377 3.53389C7.16255 3.39253 6.73845 3.20404 6.26723 3.06267C6.59708 3.58102 6.87982 4.05224 7.20967 4.57058C7.11543 4.6177 7.02118 4.66482 6.97406 4.71194C6.78557 4.80619 6.59708 4.90043 6.4086 4.99468C6.22011 4.71194 6.07874 4.38209 5.89025 4.09936C5.79601 3.91087 5.70177 3.7695 5.60752 3.62814C5.41903 3.29828 5.23055 3.01555 4.99494 2.6857C4.52371 2.54433 4.09962 2.45009 3.6284 2.30872C4.2881 3.29828 4.94781 4.33497 5.5604 5.37165C5.27767 5.51302 4.99494 5.65439 4.75932 5.79575C4.61796 5.51302 4.42947 5.23029 4.24098 4.99468C4.14674 4.85331 4.05249 4.71194 3.95825 4.57058C3.76976 4.24072 3.58127 3.95799 3.39279 3.62814C3.25142 3.39253 3.06293 3.15692 2.92157 2.92131C2.92157 2.92131 2.92157 2.87419 2.87444 2.87419C2.7802 2.73282 2.68596 2.59145 2.59171 2.45009C2.49747 2.30872 2.40322 2.16735 2.26186 1.97887C1.79064 1.88462 1.36654 1.8375 0.895318 1.74326C1.97913 3.20404 3.01581 4.66482 3.91113 6.21985C3.72264 6.31409 3.53415 6.40834 3.34566 6.50258C3.25142 6.5497 3.2043 6.59683 3.11005 6.64395C2.16761 5.0418 1.13093 3.53389 0 2.12023V0.235352C3.6284 0.800816 7.11543 1.74326 10.4611 3.15692Z" fill="#3F7C20"/>
<path fill-rule="evenodd" clip-rule="evenodd" d="M19.6045 7.11517V8.90581C12.7247 9.80112 6.12757 11.9216 0.0488281 15.173V13.8065C6.12757 10.4608 12.7247 8.15185 19.6045 7.11517ZM0.0488281 11.1205V12.44C6.12757 8.95293 12.7247 6.5497 19.6045 5.37165V3.62814C12.7247 4.99468 6.12757 7.53927 0.0488281 11.1205ZM7.54123 16.5396H19.6045V14.4191C15.4577 14.7018 11.4052 15.4086 7.54123 16.5396ZM10.4628 3.15692C9.94445 3.39253 9.37899 3.58102 8.86065 3.81663C8.81353 3.86375 8.71928 3.86375 8.67216 3.91087C8.43655 4.00511 8.24806 4.09936 8.01245 4.1936C7.72972 4.33497 7.44699 4.42921 7.16425 4.57058C7.11713 4.6177 7.02289 4.66482 6.97577 4.71194C6.50455 4.94755 6.03333 5.18317 5.56211 5.41878C5.27937 5.56014 4.99664 5.70151 4.76103 5.84287C4.4783 5.98424 4.19557 6.12561 3.95996 6.26697C3.67722 6.40834 3.44161 6.5497 3.15888 6.69107C2.87615 6.83244 2.64054 6.9738 2.35781 7.16229C2.21644 7.25653 2.07508 7.30366 1.98083 7.3979C1.83947 7.49214 1.6981 7.53927 1.60385 7.63351C1.32112 7.77488 1.08551 7.96337 0.802781 8.10473C0.755659 8.15185 0.708536 8.15185 0.661414 8.19897C0.425804 8.2461 0.237316 8.38746 0.0488281 8.48171V9.80112C6.12757 6.07848 12.6775 3.39253 19.6045 1.93174V0.235352C16.4944 0.989304 13.4315 1.93174 10.4628 3.15692ZM0.0488281 16.5396H3.15888C8.38943 14.372 13.9027 13.0054 19.6045 12.5813V10.7436C12.7247 11.4504 6.17469 13.4766 0.0488281 16.5396Z" fill="#61B739"/>
<path d="M24.7852 14.4195V16.4928H24.2197V13.9482H26.0104V14.3723H24.7852V14.4195Z" fill="#3F7C20"/>
<path d="M30.3463 15.2677C30.3463 16.0688 29.8751 16.5871 29.0741 16.5871C28.273 16.5871 27.8018 16.0688 27.8018 15.2677C27.8018 14.4666 28.3201 13.9483 29.0741 13.9483C29.8751 13.9012 30.3463 14.4195 30.3463 15.2677ZM28.3672 15.2677C28.3672 15.8332 28.65 16.163 29.0741 16.163C29.4981 16.163 29.7809 15.8332 29.7809 15.2677C29.7809 14.7022 29.4981 14.3724 29.0741 14.3724C28.65 14.3724 28.3672 14.7022 28.3672 15.2677Z" fill="#3F7C20"/>
<path d="M34.0699 16.4933V14.4199H33.316L33.2689 15.5509C33.2689 16.2106 32.9861 16.5876 32.5149 16.5876C32.3735 16.5876 32.2322 16.5404 32.1851 16.5404V16.1163C32.2322 16.1163 32.3264 16.1635 32.3735 16.1635C32.562 16.1635 32.7034 16.0692 32.7034 15.5509L32.7505 14.043H34.6354V16.4933H34.0699Z" fill="#3F7C20"/>
<path d="M39.3483 15.2677C39.3483 16.0688 38.8771 16.5871 38.076 16.5871C37.2749 16.5871 36.8037 16.0688 36.8037 15.2677C36.8037 14.4666 37.3221 13.9483 38.076 13.9483C38.83 13.9012 39.3483 14.4195 39.3483 15.2677ZM37.3692 15.2677C37.3692 15.8332 37.6519 16.163 38.076 16.163C38.5001 16.163 38.7828 15.8332 38.7828 15.2677C38.7828 14.7022 38.5001 14.3724 38.076 14.3724C37.6048 14.3724 37.3692 14.7022 37.3692 15.2677Z" fill="#3F7C20"/>
<path d="M42.8341 16.4928H41.5146V13.9482H42.9283C43.3995 13.9482 43.6823 14.1839 43.6823 14.5608C43.6823 14.8436 43.5409 14.9849 43.3053 15.0792C43.6351 15.1734 43.7765 15.409 43.7765 15.7389C43.7765 16.2572 43.3995 16.4928 42.8341 16.4928ZM42.033 14.4195V14.9849H42.7398C42.9283 14.9849 43.0697 14.8907 43.0697 14.7022C43.0697 14.5137 42.9754 14.4195 42.7398 14.4195H42.033ZM42.033 15.409V16.1159H42.7869C43.0226 16.1159 43.1639 16.0216 43.1639 15.786C43.1639 15.5504 43.0226 15.4561 42.7869 15.4561H42.033V15.409Z" fill="#3F7C20"/>
<path d="M45.8965 16.4928V13.9482H46.4619V14.9378H47.5929V13.9482H48.1583V16.4928H47.5929V15.409H46.4619V16.4928H45.8965Z" fill="#3F7C20"/>
<path d="M50.4209 16.4928V13.9482H50.9864V15.786L51.9288 13.9482H52.6356V16.4928H52.0702V14.6551L51.1277 16.4928H50.4209Z" fill="#3F7C20"/>
<path d="M54.8965 16.4924V13.9478H55.4619V15.7856L56.4044 13.9478H57.1112V16.4924H56.5458V14.6546L55.6033 16.4924H54.8965ZM56.0274 13.618C55.5091 13.618 55.2735 13.3824 55.2263 12.9111H55.5091C55.5562 13.1467 55.7447 13.2881 56.0274 13.2881C56.3101 13.2881 56.4986 13.1939 56.5458 12.9111H56.8285C56.7814 13.4295 56.4986 13.618 56.0274 13.618Z" fill="#3F7C20"/>
<path d="M63.568 16.5873C62.814 16.5873 62.3428 16.069 62.3428 15.2679C62.3428 14.4197 62.814 13.9014 63.6151 13.9014C64.2748 13.9014 64.6989 14.2312 64.746 14.8438H64.1805C64.1334 14.514 63.8978 14.3255 63.6151 14.3255C63.191 14.3255 62.9082 14.6553 62.9082 15.2208C62.9082 15.7862 63.1439 16.1161 63.568 16.1161C63.8978 16.1161 64.1334 15.9276 64.1805 15.5506H64.746C64.6518 16.1632 64.2277 16.5873 63.568 16.5873Z" fill="#3F7C20"/>
<path d="M67.9513 13.9014C68.5638 13.9014 68.9879 14.137 68.9879 14.6553V15.9276C68.9879 16.069 69.0351 16.1161 69.1293 16.1161C69.1764 16.1161 69.1764 16.1161 69.2707 16.1161V16.4931C69.0822 16.5402 69.0351 16.5402 68.8937 16.5402C68.6581 16.5402 68.5167 16.446 68.4696 16.2575C68.234 16.4931 67.9041 16.5402 67.5743 16.5402C67.0559 16.5402 66.7261 16.2575 66.7261 15.7862C66.7261 15.1265 67.3387 15.0323 67.857 14.9852C68.234 14.9381 68.3754 14.8909 68.4225 14.8438C68.4696 14.7967 68.4696 14.7496 68.4696 14.6553C68.4696 14.3726 68.2811 14.2783 67.9513 14.2783C67.5743 14.2783 67.4329 14.4197 67.3858 14.7496H66.8674C66.9146 14.137 67.3387 13.9014 67.9513 13.9014ZM67.857 15.3621C67.5743 15.4093 67.2915 15.4564 67.2915 15.7862C67.2915 16.0219 67.48 16.1632 67.7628 16.1632C67.9984 16.1632 68.1869 16.069 68.3282 15.9747C68.4225 15.8805 68.4225 15.692 68.4225 15.5506V15.2679C68.2811 15.3622 68.0455 15.3621 67.857 15.3621Z" fill="#3F7C20"/>
<path d="M71.248 16.4924V13.9478H71.8135V15.7856L72.756 13.9478H73.4628V16.4924H72.8973V14.6546L71.9549 16.4924H71.248ZM72.379 13.618C71.8606 13.618 71.625 13.3824 71.5779 12.9111H71.8606C71.9077 13.1467 72.0962 13.2881 72.379 13.2881C72.6617 13.2881 72.8502 13.1939 72.8973 12.9111H73.18C73.1329 13.4295 72.8973 13.618 72.379 13.618Z" fill="#3F7C20"/>
<path d="M76.9034 14.4192V16.4926H76.3379V14.4192H75.4897V13.9951H77.7045V14.4192H76.9034Z" fill="#3F7C20"/>
<path d="M82.7949 16.4928V13.9482H85.0097V16.4928H84.4442V14.4195H83.3133V16.4928H82.7949Z" fill="#3F7C20"/>
<path d="M87.7891 14.3255C87.9776 14.0427 88.3074 13.9014 88.5902 13.9014C89.297 13.9014 89.7211 14.4197 89.7211 15.2679C89.7211 16.069 89.297 16.5873 88.5902 16.5873C88.2603 16.5873 87.9776 16.4931 87.7891 16.2103V17.4355H87.2236V13.9485H87.742V14.3255H87.7891ZM87.8362 15.2679C87.8362 15.8334 88.119 16.1632 88.5431 16.1632C88.9671 16.1632 89.2499 15.8334 89.2499 15.2679C89.2499 14.7024 88.9671 14.3726 88.5431 14.3726C88.0718 14.3726 87.8362 14.7024 87.8362 15.2679Z" fill="#3F7C20"/>
<path d="M94.3859 15.2677C94.3859 16.0688 93.9147 16.5871 93.1136 16.5871C92.3125 16.5871 91.8413 16.0688 91.8413 15.2677C91.8413 14.4666 92.3597 13.9483 93.1136 13.9483C93.9147 13.9012 94.3859 14.4195 94.3859 15.2677ZM92.4068 15.2677C92.4068 15.8332 92.6895 16.163 93.1136 16.163C93.5377 16.163 93.8204 15.8332 93.8204 15.2677C93.8204 14.7022 93.5377 14.3724 93.1136 14.3724C92.6895 14.3724 92.4068 14.7022 92.4068 15.2677Z" fill="#3F7C20"/>
<path d="M100.7 13.9014C101.312 13.9014 101.736 14.137 101.736 14.6553V15.9276C101.736 16.069 101.784 16.1161 101.878 16.1161C101.925 16.1161 101.925 16.1161 102.019 16.1161V16.4931C101.831 16.5402 101.784 16.5402 101.642 16.5402C101.407 16.5402 101.265 16.446 101.218 16.2575C100.983 16.4931 100.653 16.5402 100.323 16.5402C99.8045 16.5402 99.4746 16.2575 99.4746 15.7862C99.4746 15.1265 100.087 15.0323 100.606 14.9852C100.983 14.9381 101.124 14.8909 101.171 14.8438C101.218 14.7967 101.218 14.7496 101.218 14.6553C101.218 14.3726 101.03 14.2783 100.7 14.2783C100.323 14.2783 100.181 14.4197 100.134 14.7496H99.616C99.616 14.137 100.04 13.9014 100.7 13.9014ZM100.606 15.3621C100.323 15.4093 100.04 15.4564 100.04 15.7862C100.04 16.0219 100.229 16.1632 100.511 16.1632C100.747 16.1632 100.935 16.069 101.077 15.9747C101.171 15.8805 101.171 15.692 101.171 15.5506V15.2679C100.983 15.3622 100.794 15.3621 100.606 15.3621Z" fill="#3F7C20"/>
<path d="M104.564 14.4195V16.4928H103.998V13.9482H105.789V14.3723H104.564V14.4195Z" fill="#3F7C20"/>
<path d="M108.335 14.3255C108.523 14.0427 108.853 13.9014 109.136 13.9014C109.842 13.9014 110.266 14.4197 110.266 15.2679C110.266 16.069 109.842 16.5873 109.136 16.5873C108.806 16.5873 108.523 16.4931 108.335 16.2103V17.4355H107.769V13.9485H108.287V14.3255H108.335ZM108.335 15.2679C108.335 15.8334 108.617 16.1632 109.041 16.1632C109.465 16.1632 109.748 15.8334 109.748 15.2679C109.748 14.7024 109.465 14.3726 109.041 14.3726C108.57 14.3726 108.335 14.7024 108.335 15.2679Z" fill="#3F7C20"/>
<path d="M114.884 15.2677C114.884 16.0688 114.413 16.5871 113.612 16.5871C112.811 16.5871 112.34 16.0688 112.34 15.2677C112.34 14.4666 112.858 13.9483 113.612 13.9483C114.413 13.9012 114.884 14.4195 114.884 15.2677ZM112.905 15.2677C112.905 15.8332 113.188 16.163 113.612 16.163C114.036 16.163 114.319 15.8332 114.319 15.2677C114.319 14.7022 114.036 14.3724 113.612 14.3724C113.188 14.3724 112.905 14.7022 112.905 15.2677Z" fill="#3F7C20"/>
<path d="M118.276 16.5867C117.757 16.5867 117.333 16.351 117.145 15.8798C117.051 15.6442 117.003 15.4086 117.003 15.0787C117.003 14.6075 117.098 13.9478 117.333 13.5708C117.569 13.241 117.852 13.0996 118.37 13.0525C118.7 13.0054 118.841 13.0525 118.888 12.9111H119.454C119.36 13.5237 118.888 13.4766 118.323 13.5237C117.852 13.5708 117.569 13.9478 117.428 14.4662C117.616 14.1363 117.899 13.9478 118.37 13.9478C119.03 13.9478 119.501 14.4662 119.501 15.2672C119.501 16.0683 118.983 16.5867 118.276 16.5867ZM118.229 14.419C117.804 14.419 117.522 14.7489 117.522 15.2672C117.522 15.7856 117.804 16.1154 118.229 16.1154C118.653 16.1154 118.935 15.7856 118.935 15.2672C118.935 14.7489 118.653 14.419 118.229 14.419Z" fill="#3F7C20"/>
<path d="M122.234 13.5713H121.669V13.0059H122.234V13.5713ZM122.234 16.4929H121.669V13.9483H122.234V16.4929Z" fill="#3F7C20"/>
<path d="M125.486 16.5873C124.732 16.5873 124.355 16.2575 124.355 15.7391H124.921C124.968 16.069 125.251 16.1632 125.486 16.1632C125.816 16.1632 126.005 16.0219 126.005 15.7862C126.005 15.5978 125.911 15.4093 125.486 15.4093H125.157V14.9852H125.392C125.675 14.9852 125.911 14.8909 125.911 14.6553C125.911 14.4668 125.769 14.3255 125.439 14.3255C125.157 14.3255 125.015 14.4668 124.968 14.7024H124.45C124.497 14.0427 125.062 13.9014 125.534 13.9014C126.052 13.9014 126.476 14.0899 126.476 14.5611C126.476 14.8438 126.287 15.0323 126.052 15.0794C126.287 15.1265 126.523 15.315 126.523 15.692C126.57 16.3046 126.052 16.5873 125.486 16.5873Z" fill="#3F7C20"/>
<path d="M128.737 16.4928V13.9482H129.303V14.9378H130.387V13.9482H130.952V16.4928H130.387V15.409H129.303V16.4928H128.737Z" fill="#3F7C20"/>
<path d="M134.345 16.5873C133.544 16.5873 133.12 16.0219 133.12 15.2679C133.12 14.4668 133.638 13.9014 134.345 13.9014C135.099 13.9014 135.523 14.4668 135.523 15.315V15.3621H133.638C133.638 15.8805 133.921 16.1632 134.345 16.1632C134.675 16.1632 134.817 16.0219 134.958 15.692H135.476C135.382 16.3046 134.911 16.5873 134.345 16.5873ZM134.345 14.3255C133.968 14.3255 133.733 14.5611 133.686 15.0323H135.005C134.958 14.6082 134.722 14.3255 134.345 14.3255Z" fill="#3F7C20"/>
<path d="M138.775 16.5873C138.021 16.5873 137.55 16.069 137.55 15.2679C137.55 14.4197 138.021 13.9014 138.822 13.9014C139.482 13.9014 139.906 14.2312 139.953 14.8438H139.388C139.34 14.514 139.105 14.3255 138.822 14.3255C138.398 14.3255 138.115 14.6553 138.115 15.2208C138.115 15.7862 138.351 16.1161 138.775 16.1161C139.105 16.1161 139.34 15.9276 139.388 15.5506H139.953C139.859 16.1632 139.435 16.5873 138.775 16.5873Z" fill="#3F7C20"/>
<path d="M29.6402 9.47153H24.3154V0.141366H27.0014V7.39816H29.6402V9.47153ZM39.206 9.47153H36.3315L35.9074 8.24635H32.7974L32.3733 9.47153H29.923L33.6456 0.141366H35.8132L39.206 9.47153ZM35.2949 6.45572L34.8236 4.99493C34.7294 4.66508 34.5409 4.19386 34.3524 3.48703C34.2582 3.76976 34.1168 4.24098 33.9283 4.99493L33.41 6.45572H35.2949ZM45.5675 2.16761V0.141366H38.5934V2.12049H40.761V9.4244H43.447V2.16761H45.5675ZM49.5728 9.47153H46.7926V0.141366H49.5728V9.47153ZM58.1962 2.16761H54.3793V4.00537H57.5365V5.93738H54.3793V9.4244H51.6933V0.141366H58.1962V2.16761ZM67.3378 0.141366V5.37191C67.3378 6.73845 67.1022 7.72801 66.5839 8.38772C65.9713 9.14167 64.8875 9.51865 63.3325 9.51865C61.8246 9.51865 60.7408 9.14167 60.1282 8.38772C59.6098 7.72801 59.3271 6.73845 59.3271 5.37191V0.141366H62.0602V5.41903C62.0602 6.12586 62.1073 6.64421 62.2015 6.83269C62.39 7.25679 62.767 7.44528 63.3325 7.44528C63.9451 7.44528 64.322 7.25679 64.5105 6.83269C64.6048 6.59708 64.6519 6.12586 64.6519 5.41903V0.141366H67.3378ZM77.5633 9.47153H76.0554L71.4846 4.7122V9.47153H69.317V0.141366H70.9191L75.3486 4.90069V0.141366H77.5633V9.47153ZM87.6946 4.75932C87.6946 6.22011 87.3176 7.35104 86.5165 8.19923C85.7154 9.04743 84.5845 9.47153 83.1237 9.47153C82.4169 9.47153 81.2388 9.47153 79.6367 9.47153V0.141366H83.2651C84.7259 0.141366 85.8097 0.565464 86.5636 1.36654C87.3176 2.16761 87.6946 3.29854 87.6946 4.75932ZM84.9144 4.75932C84.9144 3.76976 84.773 3.11005 84.4431 2.73308C84.1133 2.3561 83.5949 2.16761 82.7939 2.16761H82.3698V7.39816H82.7467C83.5478 7.39816 84.1133 7.20967 84.4431 6.78557C84.773 6.4086 84.9615 5.70177 84.9144 4.75932ZM91.8413 9.47153H89.0611V0.141366H91.8413V9.47153ZM100.842 6.45572C100.842 7.30391 100.559 8.01074 99.9934 8.52909C99.2866 9.14167 98.297 9.47153 96.9305 9.47153C95.9409 9.47153 94.7629 9.23592 93.3492 8.81182L93.8675 6.83269C94.9042 7.20967 95.8467 7.39816 96.6477 7.39816C97.6373 7.39816 98.1085 7.11543 98.0614 6.59708C98.0143 6.36147 97.7787 6.12586 97.3546 5.9845C97.3074 5.93737 96.9305 5.89025 96.2236 5.74889C94.3859 5.37191 93.4434 4.47659 93.4434 3.06293C93.4434 2.21474 93.7262 1.5079 94.2916 0.94244C94.9985 0.282732 95.988 0 97.3546 0C98.3441 0 99.4279 0.23561 100.606 0.753952L99.9934 2.73308C99.1452 2.30898 98.3441 2.12049 97.6373 2.12049C96.6949 2.12049 96.2236 2.3561 96.2708 2.87444C96.3179 3.11005 96.6477 3.29854 97.2603 3.43991L98.297 3.67552C99.9934 4.00537 100.842 4.94781 100.842 6.45572ZM108.287 2.16761H106.119V9.47153H103.433V2.16761H101.266V0.188488H108.24V2.16761H108.287ZM110.313 9.47153V7.16255H107.58V9.47153H110.313ZM118.465 8.81182C117.287 9.33016 116.251 9.56577 115.355 9.56577C113.942 9.56577 112.858 9.09455 112.057 8.10499C111.35 7.20967 111.02 6.12586 111.02 4.75932C111.02 3.39279 111.35 2.30898 112.057 1.46078C112.811 0.518342 113.894 0.047122 115.308 0.047122C116.109 0.047122 117.099 0.282732 118.324 0.801074L117.806 2.68596C116.91 2.3561 116.251 2.16761 115.826 2.16761C115.12 2.16761 114.601 2.40322 114.271 2.82732C113.942 3.25142 113.8 3.91113 113.8 4.85357C113.8 6.69133 114.507 7.58665 115.874 7.58665C116.298 7.58665 117.004 7.39816 117.994 7.0683L118.465 8.81182ZM128.172 4.80645C128.172 6.17299 127.843 7.30391 127.23 8.10499C126.476 9.09455 125.251 9.56577 123.602 9.56577C121.952 9.56577 120.774 9.09455 119.973 8.10499C119.313 7.30391 119.031 6.17299 119.031 4.80645C119.031 3.43991 119.361 2.30898 119.973 1.5079C120.727 0.518342 121.952 0.047122 123.602 0.047122C125.251 0.047122 126.476 0.518342 127.23 1.5079C127.843 2.30898 128.172 3.43991 128.172 4.80645ZM125.345 4.80645C125.345 3.01581 124.732 2.12049 123.554 2.12049C122.376 2.12049 121.764 3.01581 121.764 4.80645C121.764 6.59708 122.376 7.4924 123.554 7.4924C124.732 7.4924 125.345 6.59708 125.345 4.80645ZM140 9.47153H137.22V5.41903L135.146 9.47153H133.733L131.659 5.41903V9.47153H129.492V0.141366H131.801L134.628 5.74889L137.408 0.141366H139.953V9.47153H140Z" fill="#61B739"/>
</svg>
