<svg width="60" height="60" viewBox="0 0 60 60" fill="none" xmlns="http://www.w3.org/2000/svg">
<path d="M20.0444 17.5671H25.0297V36.6127H28.9254V41.3591H20.0594V17.5671H20.0444Z" fill="#E4032E"/>
<path d="M41.7321 30.1344C41.7321 38.4332 39.8216 41.9856 35.6871 41.9856C31.6421 41.9856 29.2241 37.5825 29.2241 29.5523C29.2241 21.4923 31.6272 17.0891 35.7766 17.0891C38.7768 17.0891 40.8515 18.6862 41.3589 23.4476L37.0006 24.3581C36.6423 22.7461 36.508 21.9848 35.702 21.9699C33.8661 21.9251 34.0751 24.7163 34.0751 29.2538C34.0751 34.1793 34.0601 37.2242 35.6721 37.2242C36.5677 37.2242 37.4483 35.2988 37.1498 32.7465C37.1349 32.642 37.1498 32.3584 37.1498 32.2539H35.2691V28.1343H41.6575C41.7172 28.8657 41.7321 29.4329 41.7321 30.1344Z" fill="#E4032E"/>
<path d="M45.0006 4.10277C44.8811 4.05799 49.6724 5.81925 50.15 10.297C50.3441 11.1478 49.956 11.5508 49.0156 11.7001C46.1349 12.2076 38.0749 12.7449 31.9553 12.521C31.2537 12.5658 30.7164 12.3568 31.5224 11.6702C34.8658 8.78952 43.0154 4.50577 43.0154 4.50577C43.8363 4.05799 44.4632 3.98336 45.0006 4.10277Z" fill="#E4032E"/>
<path d="M30.0447 0.0732678C29.9253 0.10312 34.9553 -0.777512 37.5972 2.86442C38.1942 3.50624 38.045 4.04358 37.3136 4.64061C35.0747 6.52129 28.358 11.0289 22.9399 13.8798C22.3578 14.2679 21.7906 14.3574 22.1339 13.3574C23.5966 9.19303 28.5073 1.40168 28.5073 1.40168C29.0148 0.625529 29.5073 0.252379 30.0447 0.0732678Z" fill="#E4032E"/>
<path d="M15.0743 4.05909C14.9848 4.13372 18.8954 0.864933 23.015 2.70083C23.8508 2.95457 24.0001 3.4919 23.6717 4.38746C22.6717 7.13384 19.1044 14.3879 15.8505 19.5672C15.5371 20.1941 15.0893 20.5672 14.8952 19.5075C14.0743 15.164 14.4325 5.96961 14.4325 5.96961C14.4624 5.05913 14.7012 4.47702 15.0743 4.05909Z" fill="#E4032E"/>
<path d="M4.10365 14.9991C4.05888 15.1185 5.82014 10.3273 10.2979 9.86457C11.1487 9.67053 11.5517 10.0586 11.701 10.9989C12.2085 13.8797 12.7458 21.9397 12.5219 28.0593C12.5667 28.7608 12.3577 29.2982 11.6711 28.4922C8.79041 25.1488 4.50665 16.9992 4.50665 16.9992C4.05888 16.1783 3.98425 15.5514 4.10365 14.9991Z" fill="#E4032E"/>
<path d="M0.0735119 29.955C0.103364 30.0744 -0.777268 25.0443 2.86467 22.4025C3.50648 21.8054 4.04382 21.9547 4.64086 22.686C6.52153 24.9249 11.0292 31.6416 13.88 37.0598C14.2681 37.6419 14.3577 38.2091 13.3576 37.8658C9.19328 36.3881 1.40192 31.4924 1.40192 31.4924C0.625773 30.9998 0.252624 30.4923 0.0735119 29.955Z" fill="#E4032E"/>
<path d="M4.05891 44.9258C4.13354 45.0153 0.86475 41.1047 2.70064 36.9852C2.95439 36.1493 3.49172 36 4.38728 36.3284C7.13366 37.3285 14.3877 40.8958 19.567 44.1496C20.1939 44.4631 20.567 44.9108 19.5073 45.1049C15.1638 45.9258 5.96943 45.5676 5.96943 45.5676C5.05895 45.5527 4.47683 45.2989 4.05891 44.9258Z" fill="#E4032E"/>
<path d="M14.9997 55.8965C15.1191 55.9413 10.3279 54.18 9.85025 49.7022C9.65622 48.8515 10.0443 48.4634 10.9846 48.2992C13.8653 47.7917 21.9254 47.2544 28.045 47.4783C28.7465 47.4335 29.2839 47.6425 28.4779 48.329C25.1344 51.2098 16.9849 55.4935 16.9849 55.4935C16.1789 55.9413 15.552 56.0159 14.9997 55.8965Z" fill="#E4032E"/>
<path d="M29.9704 59.9266C30.0898 59.8967 25.0597 60.7774 22.4178 57.1354C21.8208 56.4936 21.9701 55.9563 22.7014 55.3592C24.9403 53.4786 31.657 48.9709 37.0751 46.1201C37.6572 45.732 38.2244 45.6424 37.8811 46.6425C36.4184 50.8068 31.5077 58.5982 31.5077 58.5982C31.0003 59.3743 30.4928 59.7624 29.9704 59.9266Z" fill="#E4032E"/>
<path d="M44.9264 55.9415C45.016 55.8669 41.1054 59.1357 36.9858 57.2998C36.15 57.046 36.0007 56.5087 36.3291 55.6131C37.3291 52.8668 40.8964 45.6127 44.1503 40.4334C44.4637 39.8065 44.9115 39.4334 45.1056 40.4931C45.9265 44.8366 45.5683 54.031 45.5683 54.031C45.5533 54.9415 45.2996 55.5236 44.9264 55.9415Z" fill="#E4032E"/>
<path d="M55.8963 45.0006C55.941 44.8812 54.1798 49.6724 49.702 50.1351C48.8512 50.3292 48.4631 49.9411 48.299 49.0007C47.7915 46.12 47.2541 38.06 47.478 31.9404C47.4332 31.2388 47.6422 30.7015 48.3288 31.5075C51.2095 34.8509 55.4933 43.0005 55.4933 43.0005C55.941 43.8364 56.0157 44.4483 55.8963 45.0006Z" fill="#E4032E"/>
<path d="M59.9271 30.0451C59.8972 29.9257 60.7778 34.9558 57.1359 37.5977C56.4941 38.1947 55.9568 38.0455 55.3597 37.3141C53.479 35.0752 48.9714 28.3585 46.1205 22.9404C45.7325 22.3583 45.6429 21.7911 46.6429 22.1344C50.8073 23.5971 58.5987 28.5078 58.5987 28.5078C59.3748 29.0153 59.7629 29.5078 59.9271 30.0451Z" fill="#E4032E"/>
<path d="M55.9415 15.0743C55.8669 14.9848 59.1357 18.8954 57.2998 23.015C57.046 23.8508 56.5087 24.0001 55.6131 23.6717C52.8668 22.6717 45.6127 19.1044 40.4334 15.8505C39.8065 15.5371 39.4334 15.0893 40.4931 14.8952C44.8366 14.0743 54.031 14.4325 54.031 14.4325C54.9564 14.4624 55.5236 14.7012 55.9415 15.0743Z" fill="#E4032E"/>
</svg>
