<svg width="215" height="44" viewBox="0 0 215 44" fill="none" xmlns="http://www.w3.org/2000/svg">
<path d="M144.853 0.380087V42.4902H166.42V35.076L152.537 35.0601L152.546 27.5101C152.546 27.5101 152.455 25.3244 154.576 25.318L164.762 25.3268L164.74 17.7073L152.557 17.7025V9.57893C152.557 9.57893 152.557 7.88614 154.529 7.95644L166.325 7.97481V0.377686L144.853 0.380087Z" fill="#04904F"/>
<path d="M180.107 19.3304H185.933C188.269 19.0572 188.624 17.9883 188.624 17.9883C189.607 16.6981 189.515 13.6657 189.515 13.6657C189.646 10.4207 188.78 9.14175 188.78 9.14175C188.129 7.84281 186.069 7.72697 186.069 7.72697L180.108 7.71978V19.3304H180.107ZM180.095 42.4725H172.192L172.182 0.312787H188.4C193.43 0.384684 195.266 3.67757 195.266 3.67757C198.047 7.37867 197.612 13.2654 197.612 13.2654C197.894 19.6108 195.936 22.3269 195.936 22.3269C194.035 25.9561 190.798 26.3084 190.798 26.3084L199.064 42.4789H191.882C189.716 42.3862 189.065 41.0058 189.065 41.0058L182.634 28.0371C182.226 26.973 181.263 27.156 181.263 27.156H180.097L180.095 42.4725ZM12.0275 7.90672L12.0179 21.7948H16.0159C16.0159 21.7948 18.6488 22.0026 19.6742 21.0559C19.6742 21.0559 21.3997 19.8896 21.3287 14.8168C21.3287 14.8168 21.312 9.72333 19.5458 8.54581C19.5458 8.54581 18.8322 7.83162 17.058 7.89713L12.0275 7.90672ZM18.9582 0.298403C24.1506 0.280029 26.4072 3.31489 26.4072 3.31489C29.5966 6.6661 29.3032 14.6387 29.3032 14.6387C29.6684 23.5627 26.1672 26.5273 26.1672 26.5273C23.1651 29.7898 18.5364 29.551 18.5364 29.551H12.2029V42.4972H4.28823L4.25076 8.01137H0.0215293L0 0.299196L18.9582 0.298403ZM34.6583 0.304791L34.6647 42.4677H42.4757V0.298403L34.6583 0.304791ZM62.6076 7.55203C62.6076 7.55203 60.953 7.37787 59.194 8.32931C59.194 8.32931 57.6455 9.10421 57.1871 12.0648C57.1871 12.0648 56.4846 16.3674 56.5547 22.2877C56.5547 22.2877 56.6959 29.2706 56.9423 30.4321C56.9423 30.4321 57.1871 33.1482 58.2077 34.3097C58.2077 34.3097 59.0872 36.0001 62.1858 35.8963C62.1858 35.8963 64.9159 36.1064 66.3528 34.5518C66.3528 34.5518 67.4468 33.7274 67.8662 30.6174C67.8662 30.6174 68.1572 29.221 68.272 22.5002C68.272 22.5002 68.2657 14.3152 67.816 12.2301C67.816 12.2301 67.6086 10.0924 66.0905 8.57616C66.0905 8.57616 65.1743 7.48493 62.6076 7.55203ZM70.7702 1.91449C74.2531 4.13531 75.0991 8.71596 75.0991 8.71596C76.2226 12.6296 76.0822 21.9019 76.0822 21.9019C76.154 30.1134 75.3088 33.3248 75.3088 33.3248C74.3504 38.3432 72.101 40.2397 72.101 40.2397C70.1363 42.3974 67.4276 42.8407 67.4276 42.8407C64.4702 43.5094 62.4664 43.372 62.4664 43.372C58.1718 43.4415 56.2366 42.5588 56.2366 42.5588C54.0566 41.8901 52.6126 40.27 52.6126 40.27C49.5826 37.0315 49.0994 32.196 49.0994 32.196C48.6792 29.6356 48.672 20.1404 48.672 20.1404C48.5309 13.4068 49.514 9.06985 49.514 9.06985C50.5012 4.9821 52.4364 3.28933 52.4364 3.28933C55.9201 -0.30553 62.7814 0.0108141 62.7814 0.0108141C68.4443 -0.167331 70.7702 1.91449 70.7702 1.91449ZM82.3344 0.309581L82.328 42.4605H89.663V10.2322L97.395 39.4081C97.395 39.4081 98.0855 42.4837 101.663 42.4677L109.769 42.4613L109.79 0.299196H102.618L102.634 32.1616L94.8698 2.76287C94.8698 2.76287 94.4886 0.311178 92.134 0.311178H82.3344V0.309581ZM117.369 0.264845V42.4901H138.936V34.9608L125.053 34.9425L125.062 27.3948C125.062 27.3948 124.972 25.2076 127.092 25.2004L137.278 25.2092L137.253 17.5897L125.073 17.5849V9.46449C125.073 9.46449 125.073 7.77171 127.042 7.84201L138.838 7.85799V0.263248L117.369 0.264845Z" fill="#04904F"/>
<path d="M208.29 37.8578V35.9006H209.596C210.263 35.9006 210.974 36.0476 210.974 36.8289C210.974 37.7987 210.247 37.857 209.433 37.857H208.29V37.8578ZM208.29 38.6782H209.392L211.059 41.4327H212.128L210.335 38.6351C211.262 38.5153 211.97 38.0184 211.97 36.888C211.97 35.6386 211.233 35.0802 209.739 35.0802H207.338V41.4319H208.29V38.6782ZM209.451 43.7581C212.438 43.7581 215 41.4327 215 38.2397C215 35.081 212.438 32.7803 209.451 32.7803C206.433 32.7803 203.874 35.081 203.874 38.2397C203.874 41.4327 206.433 43.7581 209.451 43.7581ZM204.977 38.2397C204.977 35.6386 206.944 33.691 209.451 33.691C211.926 33.691 213.897 35.6386 213.897 38.2397C213.897 40.8927 211.926 42.8451 209.451 42.8451C206.943 42.8451 204.977 40.8927 204.977 38.2397Z" fill="#04904F"/>
</svg>
