<svg xmlns="http://www.w3.org/2000/svg" width="124" height="111" fill="none" viewBox="0 0 124 111"><circle cx="71" cy="58" r="53" fill="#fff"/><circle cx="71" cy="58" r="53" stroke="url(#a)"/><path fill="#00D6A8" d="M65.285 48.026l-1.996 3.456h5.989l3.992-6.913 6.352-11.009-4.485-2.593-7.855 13.602-1.997 3.457z" opacity=".4"/><path fill="#00D6A8" d="M85.93 59.26H96.3v-7.777a3.457 3.457 0 0 0-3.457-3.457h-3.95l-1.996 3.456H56.963l1.996-3.456h-7.596a3.457 3.457 0 0 0-3.457 3.456V75.68a3.457 3.457 0 0 0 3.457 3.457h41.48a3.457 3.457 0 0 0 3.456-3.457v-7.777H85.93a3.457 3.457 0 0 1-3.456-3.457v-1.728a3.457 3.457 0 0 1 3.456-3.457z" opacity=".4"/><path stroke="url(#b)" stroke-width="2" d="M98.893 58.396h-1.729v-6.913a4.326 4.326 0 0 0-4.32-4.321h-2.452l2.333-4.043a2.596 2.596 0 0 0-.95-3.544L72.31 28.341a2.603 2.603 0 0 0-3.537.951L58.46 47.162h-7.097a4.326 4.326 0 0 0-4.321 4.32V75.68a4.326 4.326 0 0 0 4.32 4.32h41.48a4.326 4.326 0 0 0 4.321-4.32v-6.913h1.729v-10.37zM91.23 42.254l-4.83 8.364H70.773l9.166-15.88 10.975 6.336a.876.876 0 0 1 .316 1.18zm-26.445 8.364l10.667-18.47 2.99 1.728-9.664 16.742h-3.993zm5.491-20.462a.864.864 0 0 1 1.178-.316l2.5 1.444L62.79 50.618h-4.33l11.816-20.462zm25.16 45.524a2.593 2.593 0 0 1-2.593 2.593h-41.48a2.593 2.593 0 0 1-2.592-2.593V51.483a2.593 2.593 0 0 1 2.593-2.593h6.1l-1.002 1.728h-4.234v1.729h39.751v-1.729h-3.584l.999-1.728h3.45a2.593 2.593 0 0 1 2.592 2.593v6.913H85.93a4.326 4.326 0 0 0-4.32 4.32v1.729a4.326 4.326 0 0 0 4.32 4.32h9.506v6.914zm1.728-8.642H85.93a2.593 2.593 0 0 1-2.592-2.592v-1.728a2.593 2.593 0 0 1 2.592-2.593h11.234v6.913z"/><circle cx="26" cy="26" r="23.5" fill="#00D6A8" stroke="#FAFAFA" stroke-width="5"/><path fill="#fff" d="M21.504 34l5.361-11.719h-7.04v-2.539h10.243v1.895L24.668 34h-3.164z"/><defs><linearGradient id="a" x1="71" x2="71" y1="5" y2="111" gradientUnits="userSpaceOnUse"><stop stop-color="#00D6A8"/><stop offset="1" stop-color="#00A984"/></linearGradient><linearGradient id="b" x1="72.968" x2="72.968" y1="28" y2="80" gradientUnits="userSpaceOnUse"><stop stop-color="#00D6A8"/><stop offset="1" stop-color="#00A984"/></linearGradient></defs></svg>