<svg xmlns="http://www.w3.org/2000/svg" width="23" height="28" fill="none" viewBox="0 0 23 28"><g fill="#0B1420" stroke="#0B1420" stroke-width="1.5" opacity=".4"><path d="M11.442 20.475a.398.398 0 0 1-.398-.398v-8.972a.398.398 0 0 1 .796 0v8.972c0 .22-.179.398-.398.398z"/><path d="M11.443 20.475a.4.4 0 0 1-.282-.116l-3.43-3.43a.398.398 0 0 1 .562-.563l3.149 3.149 3.15-3.15a.398.398 0 0 1 .562.563l-3.431 3.43a.393.393 0 0 1-.28.117z"/><path d="M20.138 27.242H2.747a1.991 1.991 0 0 1-1.989-1.989V2.747A1.99 1.99 0 0 1 2.747.758h12.63a.398.398 0 0 1 0 .796H2.747c-.658 0-1.193.535-1.193 1.193v22.506c0 .658.535 1.193 1.193 1.193h17.391c.658 0 1.193-.535 1.193-1.193V7.682a.398.398 0 0 1 .796 0v17.572a1.99 1.99 0 0 1-1.989 1.988z"/><path d="M21.73 8.08h-6.353a.398.398 0 0 1-.398-.398V1.33a.398.398 0 0 1 .796 0v5.955h5.955a.398.398 0 0 1 0 .796z"/><path d="M21.729 8.08a.398.398 0 0 1-.285-.12l-6.352-6.526a.398.398 0 0 1 .57-.554l6.353 6.525a.398.398 0 0 1-.286.675z"/></g></svg>