<svg xmlns="http://www.w3.org/2000/svg" width="19" height="19" fill="none" viewBox="0 0 19 19"><path fill="#000" d="M15.205 13.582l-3.026-1.513a.833.833 0 0 1-.462-.749v-1.07a7.248 7.248 0 0 0 1.163-2.137 1.26 1.26 0 0 0 .737-1.146V5.7c0-.305-.114-.6-.317-.831V3.184c.018-.174.087-1.21-.662-2.066C11.988.376 10.932 0 9.5 0S7.013.376 6.363 1.118c-.75.855-.68 1.892-.663 2.066V4.87a1.26 1.26 0 0 0-.317.831v1.267c0 .385.176.744.475.984a6.646 6.646 0 0 0 1.109 2.292v1.048a.837.837 0 0 1-.436.734l-2.825 1.541a2.856 2.856 0 0 0-1.49 2.509V17.1c0 1.503 4.765 1.9 7.284 1.9 2.52 0 7.284-.397 7.284-1.9v-.964a2.842 2.842 0 0 0-1.58-2.554zm.945 3.518c0 .43-2.347 1.267-6.65 1.267-4.303 0-6.65-.837-6.65-1.267v-1.025c0-.814.444-1.563 1.159-1.952l2.825-1.541A1.47 1.47 0 0 0 7.6 11.29v-1.273l-.074-.088a5.978 5.978 0 0 1-1.08-2.237l-.028-.126-.108-.07a.632.632 0 0 1-.293-.53V5.7c0-.178.075-.343.212-.467l.104-.094V3.167l-.002-.042c-.001-.008-.109-.886.508-1.59C7.364.937 8.259.633 9.5.633c1.237 0 2.13.301 2.656.896.616.697.514 1.589.514 1.596l-.003 2.014.104.094c.137.124.212.29.212.467v1.267a.63.63 0 0 1-.45.601l-.157.048-.051.157a6.63 6.63 0 0 1-.898 1.81 4.173 4.173 0 0 1-.265.341l-.079.09v1.306c0 .56.312 1.064.813 1.315l3.025 1.513a2.211 2.211 0 0 1 1.23 1.988v.964z"/></svg>