<svg xmlns="http://www.w3.org/2000/svg" width="41" height="41" fill="none" viewBox="0 0 41 41"><g fill="#fff" clip-path="url(#a)"><path d="M40.57 27.842L26.83 4.045a2.387 2.387 0 0 0-1.457-1.12L14.888.11a3.207 3.207 0 0 0-1.069-.102.814.814 0 0 0-.094-.006H2.931c-1.3 0-2.428.836-2.805 2.08a2.932 2.932 0 0 0 2.317 3.742l3.92.661L4.228 8.62a2.387 2.387 0 0 0-.704 1.7v27.478A3.207 3.207 0 0 0 6.726 41H21.62c.906 0 1.76-.388 2.36-1.041l.088.026a3.185 3.185 0 0 0 2.43-.32l12.9-7.447a3.183 3.183 0 0 0 1.492-1.946 3.182 3.182 0 0 0-.32-2.43zM2.71 4.244a1.313 1.313 0 0 1-.91-.61 1.312 1.312 0 0 1-.141-1.086 1.322 1.322 0 0 1 1.272-.944h8.32L7.755 5.096 2.71 4.244zm7.6.563l-.185.69-.432-.074.617-.616zm11.31 34.591H8.968v-7.045a.8.8 0 1 0-1.602 0v7.045h-.64a1.603 1.603 0 0 1-1.602-1.601V10.319c0-.214.083-.415.235-.566l2.943-2.94 1.406.237-1.564 5.822a2.386 2.386 0 0 0 .24 1.824l13.739 23.796c.125.218.274.417.442.596a1.6 1.6 0 0 1-.945.31zm17.722-9.54a1.59 1.59 0 0 1-.746.973l-12.899 7.447c-.37.214-.802.27-1.215.16a1.591 1.591 0 0 1-.973-.747L9.771 13.895a.796.796 0 0 1-.08-.608l1.603-5.97 2.398.406c.056.302.163.595.322.869a2.737 2.737 0 0 0 2.362 1.362 2.7 2.7 0 0 0 1.357-.366c.63-.363 1.08-.95 1.268-1.653a2.705 2.705 0 0 0-.272-2.066 2.705 2.705 0 0 0-1.653-1.268 2.705 2.705 0 0 0-2.066.272 2.702 2.702 0 0 0-1.13 1.257l-2.169-.366.8-2.976c.11-.413.375-.758.746-.972a1.592 1.592 0 0 1 1.215-.16l6.073 1.632c.006.01.01.021.017.032l3.884 6.728a.8.8 0 1 0 1.387-.801l-3.102-5.372 2.226.598a.795.795 0 0 1 .486.373l13.74 23.797c.213.37.27.802.16 1.215zM15.722 6.441l-.124-.02a1.114 1.114 0 0 1 1.063-.272c.29.076.532.262.681.521.15.26.19.561.112.85-.077.29-.263.532-.522.682a1.113 1.113 0 0 1-1.344-.17h.001a.801.801 0 0 0 .132-1.591z"/><path d="M34.578 25.169a2.814 2.814 0 0 0-3.84-1.03 2.814 2.814 0 0 0-1.028 3.84 2.812 2.812 0 0 0 5.148-.678 2.793 2.793 0 0 0-.28-2.132zm-1.267 1.718a1.21 1.21 0 0 1-2.214.292 1.21 1.21 0 0 1 1.36-1.773c.312.084.572.284.734.563a1.2 1.2 0 0 1 .12.918zm-9.46-5.163a2.792 2.792 0 0 0-1.706-1.309 2.793 2.793 0 0 0-2.133.28 2.792 2.792 0 0 0-1.31 1.707 2.812 2.812 0 0 0 5.43 1.455 2.792 2.792 0 0 0-.281-2.133zm-1.266 1.718a1.21 1.21 0 0 1-2.335-.626 1.2 1.2 0 0 1 .563-.733 1.202 1.202 0 0 1 .917-.12 1.2 1.2 0 0 1 .734.562 1.2 1.2 0 0 1 .12.918zm3.88-4.512a.8.8 0 0 0-.8.8v11.842a.8.8 0 1 0 1.6 0V19.73a.8.8 0 0 0-.8-.8zM8.734 27.695a.807.807 0 0 0-.566-.235.807.807 0 0 0-.566.235.807.807 0 0 0-.235.567c0 .21.086.416.235.566a.806.806 0 0 0 1.132 0 .809.809 0 0 0 .235-.566.808.808 0 0 0-.235-.567zm19.018-15.071a.807.807 0 0 0-.566-.234.808.808 0 0 0-.567.234.806.806 0 0 0 0 1.133.805.805 0 0 0 1.368-.566.808.808 0 0 0-.235-.566z"/></g><defs><clipPath id="a"><path fill="#fff" d="M0 0h41v41H0z"/></clipPath></defs></svg>