<svg xmlns="http://www.w3.org/2000/svg" width="106" height="106" fill="none" viewBox="0 0 106 106"><path fill="#319AC7" d="M28.64 71.755c0 1.5 1.217 2.717 2.718 2.717h28.097v-3.623H28.64v.906zm35.332-1.811a2.716 2.716 0 0 1-2.185-1.07c-.174.021-.35.025-.525.01V79l2.173-1.63a.905.905 0 0 1 1.087 0L66.696 79V68.885a2.69 2.69 0 0 1-.544-.01 2.717 2.717 0 0 1-2.18 1.069zm3.892-7.228a.905.905 0 0 1-.514-1.242.942.942 0 0 0-1.25-1.258.906.906 0 0 1-1.244-.514.938.938 0 0 0-1.77 0 .906.906 0 0 1-1.243.514.941.941 0 0 0-1.25 1.258.906.906 0 0 1-.513 1.242.942.942 0 0 0 0 1.775.905.905 0 0 1 .514 1.243.94.94 0 0 0 1.25 1.257.906.906 0 0 1 1.243.514.939.939 0 0 0 1.77 0 .907.907 0 0 1 1.243-.514.942.942 0 0 0 1.25-1.257.904.904 0 0 1 .514-1.243.943.943 0 0 0 0-1.775z"/><path fill="#00CCDF" d="M35.885 33.717v35.32h23.569v-1.005a2.722 2.722 0 0 1-.746-2.245 2.766 2.766 0 0 1 0-4.366 2.762 2.762 0 0 1 3.079-3.088 2.758 2.758 0 0 1 4.361 0 2.763 2.763 0 0 1 3.08 3.088 2.766 2.766 0 0 1 0 4.366 2.716 2.716 0 0 1-.725 2.218v6.3c.285.106.587.162.891.167 1.5 0 2.717-1.217 2.717-2.717V33.717c.002-.282.03-.563.086-.84.016-.087.042-.168.063-.252.044-.185.101-.366.168-.544a4.516 4.516 0 0 1 .375-.742c.047-.076.09-.153.144-.226.026-.037.045-.078.072-.113H38.602a2.717 2.717 0 0 0-2.717 2.717zm31.698 19.019H52.187v-1.811h15.396v1.81zm0-4.528h-20.83v-1.812h20.83v1.812zM56.715 36.434h3.623v1.811h-3.623v-1.811zm-9.057 0h7.246v1.811h-7.246v-1.811zm-2.717 4.528h18.114v1.812H44.94v-1.812zm-4.528 5.434h4.528v1.812h-4.528v-1.812zm0 4.529h9.962v1.81h-9.962v-1.81zm0 4.528h18.113v1.811H40.413v-1.811zm0 4.528H55.81v1.811H40.413v-1.81z"/><path fill="#319AC7" d="M76.64 31a2.717 2.717 0 0 0-2.716 2.717v.906h5.434v-.906c0-1.5-1.217-2.717-2.717-2.717z"/><circle cx="53" cy="53" r="52" stroke="url(#a)" stroke-width="2"/><defs><linearGradient id="a" x1="53" x2="53" y2="106" gradientUnits="userSpaceOnUse"><stop stop-color="#00CCDF"/><stop offset="1" stop-color="#319AC7"/></linearGradient></defs></svg>