<svg xmlns="http://www.w3.org/2000/svg" width="124" height="111" fill="none" viewBox="0 0 124 111"><circle cx="71" cy="58" r="53" fill="#fff"/><circle cx="71" cy="58" r="53" stroke="url(#a)"/><path fill="#99EFDC" d="M42 39h45v36H42zm58.5 16.5l-11.5-1h-1v21h19.5V66l-3-6-4-4.5z"/><circle cx="52.5" cy="75.5" r="3.5" fill="#fff"/><circle cx="96.5" cy="75.5" r="3.5" fill="#fff"/><path stroke="url(#b)" stroke-width="6" d="M109 76.012v-10.85l-.717-1.014.206.376.163.298v12.211c.218-.282.348-.637.348-1.021z"/><mask id="e" fill="#fff"><path d="M56.365 67.982c.327.326.756.49 1.184.49a1.674 1.674 0 0 0 1.184-2.857l-2.251-2.252h11.913a1.674 1.674 0 1 0 0-3.347H56.482l2.251-2.252a1.674 1.674 0 0 0-2.367-2.367l-4.654 4.654a2.302 2.302 0 0 0-.679 1.639c0 .619.241 1.2.679 1.638l4.653 4.654z"/></mask><path fill="url(#d)" d="M58.733 67.982l-4.242-4.244h-.001l4.242 4.244zm0-2.367l4.242-4.243-4.242 4.243zm-2.251-2.252v-6H41.996L52.24 67.606l4.243-4.243zm0-3.347l-4.243-4.243-10.242 10.243h14.485v-6zm2.251-2.252l4.243 4.243-4.243-4.242zm0-2.367l4.243-4.242-.001-.001-4.242 4.243zm-2.367 0l-4.242-4.243 4.242 4.243zm-4.654 4.654l-4.243-4.242-.001.001 4.244 4.241zm0 3.277l-4.243 4.242 4.243-4.242zm.41 8.896a7.668 7.668 0 0 0 5.427 2.248v-12c1.097 0 2.215.423 3.06 1.267l-8.486 8.485zm5.427 2.248c1.955 0 3.93-.751 5.426-2.248L54.49 63.74a4.331 4.331 0 0 1 3.06-1.267v12zm5.425-2.247a7.674 7.674 0 0 0 .001-10.853l-8.485 8.485a4.326 4.326 0 0 1 0-6.119l8.484 8.487zm.001-10.853l-2.25-2.251-8.486 8.485 2.251 2.251 8.485-8.485zm-6.493 7.991h11.913v-12H56.482v12zm11.913 0a7.674 7.674 0 0 0 7.674-7.673h-12a4.326 4.326 0 0 1 4.326-4.327v12zm7.674-7.673a7.674 7.674 0 0 0-7.674-7.674v12a4.326 4.326 0 0 1-4.326-4.327h12zm-7.674-7.674H56.482v12h11.913v-12zm-7.67 10.242l2.25-2.25-8.485-8.486-2.25 2.251 8.484 8.485zm2.25-2.25a7.674 7.674 0 0 0 0-10.853L54.49 59.64a4.326 4.326 0 0 1 0-6.118l8.486 8.485zm0-10.854a7.674 7.674 0 0 0-10.851 0l8.484 8.487a4.326 4.326 0 0 1-6.117 0l8.484-8.487zm-10.852 0L47.47 55.81l8.485 8.485 4.654-4.654-8.485-8.485zm-4.655 4.656a8.303 8.303 0 0 0-2.435 5.88h12c0 .972-.391 1.916-1.078 2.603l-8.487-8.483zm-2.435 5.88c0 2.21.873 4.318 2.436 5.88l8.485-8.485a3.698 3.698 0 0 1 1.08 2.605h-12zm2.436 5.88l4.654 4.654 8.485-8.485-4.654-4.654-8.485 8.485z" mask="url(#e)"/><circle cx="26" cy="26" r="23.5" fill="#00D6A8" stroke="#FAFAFA" stroke-width="5"/><path fill="#fff" d="M30.068 33h-9.98v-2.1l3.584-3.623c1.061-1.087 1.754-1.839 2.08-2.256.326-.423.56-.813.703-1.171.143-.359.215-.73.215-1.114 0-.573-.16-.999-.479-1.279-.312-.28-.732-.42-1.26-.42-.553 0-1.09.127-1.61.381-.522.254-1.065.615-1.632 1.084l-1.64-1.943c.703-.6 1.286-1.023 1.748-1.27a6.269 6.269 0 0 1 1.514-.566 7.576 7.576 0 0 1 1.835-.205c.892 0 1.68.162 2.364.488.683.325 1.214.781 1.592 1.367.377.586.566 1.257.566 2.012a4.9 4.9 0 0 1-.352 1.855c-.227.573-.585 1.162-1.074 1.768-.482.605-1.334 1.468-2.558 2.588l-1.836 1.728v.137h6.22V33z"/><defs><linearGradient id="a" x1="71" x2="71" y1="5" y2="111" gradientUnits="userSpaceOnUse"><stop stop-color="#00D6A8"/><stop offset="1" stop-color="#00A984"/></linearGradient><linearGradient id="b" x1="74.5" x2="74.5" y1="37.123" y2="81.876" gradientUnits="userSpaceOnUse"><stop stop-color="#00D6A8"/><stop offset="1" stop-color="#00A984"/></linearGradient><linearGradient id="c" x1="68.396" x2="68.396" y1="46.338" y2="59.902" gradientUnits="userSpaceOnUse"><stop stop-color="#00D6A8"/><stop offset="1" stop-color="#00A984"/></linearGradient><linearGradient id="d" x1="60.551" x2="60.551" y1="54.907" y2="68.472" gradientUnits="userSpaceOnUse"><stop stop-color="#00D6A8"/><stop offset="1" stop-color="#00A984"/></linearGradient></defs></svg>