<svg xmlns="http://www.w3.org/2000/svg" width="122" height="111" fill="none" viewBox="0 0 122 111"><circle cx="69" cy="58" r="53" fill="#fff"/><circle cx="69" cy="58" r="53" stroke="url(#a)"/><path fill="#99E2E7" d="M63 41l5 2-8 9 1 3 3 1 2.5-2.5L71 49h3l14.5 14.5 1 3-1 1.5-3.5 1-1 3.5-3 2-2 3-3 1.5-4-4.5-5.5-3.5-1.5-3-3-1.5-1.5-3-3-1-1.5-3-2-1-2.5 1-2-1-2-6 5-5.5 6.5-6h4z"/><path fill="#00B6C3" d="M89.993 55.099l5.53-5.481c.635-.63.636-1.657.002-2.287-10.76-10.703-8.53-8.482-11.44-11.391a1.61 1.61 0 0 0-2.278 0l-4.14 4.138c-1.003 1.004-4.43.637-7.619 1.32-2.719-1.58-4.958-1.492-6.777-1.419-1.61.065-2.446.08-3.552-.617-.554-.367-.544-.4-4.544-4.4a1.61 1.61 0 0 0-2.279 0 41364.86 41364.86 0 0 1-11.422 11.392 1.612 1.612 0 0 0 .001 2.284l5.341 5.31c.168.223.314 1.14.41 1.748.204 1.289.468 2.946 1.385 4.449l-.161.16a4.831 4.831 0 0 0 3.151 8.243 4.815 4.815 0 0 0 1.406 3.152 4.798 4.798 0 0 0 3.152 1.408 4.814 4.814 0 0 0 1.406 3.15 4.813 4.813 0 0 0 3.152 1.405 4.834 4.834 0 0 0 6.909 4.097l1.332 1.333a4.831 4.831 0 0 0 6.837 0 4.798 4.798 0 0 0 1.408-3.152 4.814 4.814 0 0 0 3.15-1.405 4.815 4.815 0 0 0 1.405-3.15 4.799 4.799 0 0 0 3.152-1.408 4.814 4.814 0 0 0 1.406-3.151 4.813 4.813 0 0 0 3.151-1.406 4.84 4.84 0 0 0 0-6.836l-1.266-1.266c1.544-2.446 1.23-5.196 1.768-6.19.008-.011.016-.022.024-.03zM75.89 43.977L86.684 54.77c-.347 1.346-.316 2.843-.867 4.164L75.794 48.912a4.831 4.831 0 0 0-6.837 0L64.4 53.469a1.61 1.61 0 1 1-2.279-2.278l4.558-4.558c2.589-2.589 6.147-2.287 9.21-2.656zm-28.53 5.968l-2.466-2.452 9.14-9.114 2.446 2.446-9.12 9.12zm5.646 14.918a1.61 1.61 0 1 1-2.279-2.279l2.279-2.278a1.61 1.61 0 1 1 2.279 2.279l-2.28 2.278zm4.558 4.558a1.61 1.61 0 1 1-2.28-2.279l2.28-2.279a1.613 1.613 0 0 1 2.278 0c.629.629.629 1.65 0 2.279l-2.279 2.279zm2.278 4.557a1.613 1.613 0 0 1 0-2.278l2.28-2.28A1.61 1.61 0 1 1 64.4 71.7l-2.279 2.278a1.613 1.613 0 0 1-2.279 0zm9.115 2.279l-2.278 2.279a1.61 1.61 0 1 1-2.28-2.279l2.28-2.279a1.613 1.613 0 0 1 2.278 0c.629.63.628 1.651 0 2.279zm4.558 4.558a1.61 1.61 0 0 1-2.279 0l-1.14-1.14 1.14-1.139c.4-.4.714-.852.944-1.335l1.335 1.335c.63.63.63 1.649 0 2.279zm13.673-13.673a1.613 1.613 0 0 1-2.28 0l-7.803-7.804a1.611 1.611 0 1 0-2.279 2.279l7.804 7.804a1.61 1.61 0 1 1-2.279 2.279l-7.703-7.704a1.611 1.611 0 1 0-2.278 2.28l7.703 7.702c.628.629.628 1.65 0 2.279a1.613 1.613 0 0 1-2.28 0l-4.557-4.558a4.814 4.814 0 0 0-3.15-1.405 4.799 4.799 0 0 0-1.407-3.152 4.799 4.799 0 0 0-3.152-1.408 4.814 4.814 0 0 0-1.406-3.15 4.799 4.799 0 0 0-3.152-1.408 4.813 4.813 0 0 0-1.405-3.15 4.84 4.84 0 0 0-6.552-.26c-.322-.8-.465-1.697-.604-2.575-.169-1.065-.332-2.082-.832-2.904l9.59-9.59c1.498.61 2.921.555 4.233.502.773-.031 1.527-.06 2.315.041-.45.322-.89.69-1.314 1.114l-4.558 4.558a4.84 4.84 0 0 0 0 6.836 4.831 4.831 0 0 0 6.837 0l4.557-4.557a1.61 1.61 0 0 1 2.279 0l13.673 13.672c.628.629.628 1.65 0 2.279zm-7.851-24.276c.441-.308.35-.25 3.608-3.508 1.478 1.479-.07-.063 9.156 9.113l-3.596 3.564-9.168-9.169z"/><circle cx="26" cy="26" r="23.5" fill="#00B6C3" stroke="#FAFAFA" stroke-width="5"/><path fill="#fff" d="M30.39 31.041h-1.718V34h-2.95v-2.959H19.63v-2.1l6.26-9.218h2.783v8.974h1.719v2.344zm-4.667-2.344v-2.422c0-.403.016-.99.049-1.757.032-.769.058-1.215.078-1.338h-.079a10.89 10.89 0 0 1-.869 1.562l-2.617 3.955h3.438z"/><defs><linearGradient id="a" x1="69" x2="69" y1="5" y2="111" gradientUnits="userSpaceOnUse"><stop stop-color="#00CCDF"/><stop offset="1" stop-color="#319AC7"/></linearGradient></defs></svg>