<svg xmlns="http://www.w3.org/2000/svg" width="124" height="111" fill="none" viewBox="0 0 124 111"><circle cx="71" cy="58" r="53" fill="#fff"/><circle cx="71" cy="58" r="53" stroke="url(#a)"/><path fill="#00B6C3" d="M55.9 86.1l12.6-12.6h21.6V42H46.9v31.5h9v12.6z" opacity=".4"/><path fill="#00B6C3" stroke="#00B6C3" stroke-width="2" d="M99.1 32H55.9a1.9 1.9 0 0 0-1.9 1.9v6.2h-7.1A1.9 1.9 0 0 0 45 42v31.5c0 1.05.85 1.9 1.9 1.9H54v10.7a1.9 1.9 0 0 0 3.243 1.343l-.707-.707.707.707L69.287 75.4H90.1a1.9 1.9 0 0 0 1.9-1.9v-6.2h7.1a1.9 1.9 0 0 0 1.9-1.9V33.9a1.9 1.9 0 0 0-1.9-1.9zM88.2 71.6H68.5a1.9 1.9 0 0 0-1.343.557L57.8 81.513V73.5a1.9 1.9 0 0 0-1.9-1.9h-7.1V43.9h39.4v27.7zm9-8.1H92V42a1.9 1.9 0 0 0-1.9-1.9H57.8v-4.3h39.4v27.7z"/><circle cx="26" cy="26" r="23.5" fill="#00B6C3" stroke="#FAFAFA" stroke-width="5"/><path fill="#fff" d="M27.549 33H24.53v-8.262l.03-1.357.048-1.485c-.5.502-.85.83-1.045.987l-1.64 1.318-1.455-1.816 4.6-3.662h2.48V33z"/><defs><linearGradient id="a" x1="71" x2="71" y1="5" y2="111" gradientUnits="userSpaceOnUse"><stop stop-color="#00CCDF"/><stop offset="1" stop-color="#319AC7"/></linearGradient></defs></svg>