<svg xmlns="http://www.w3.org/2000/svg" width="106" height="106" fill="none" viewBox="0 0 106 106"><path fill="#00A984" d="M33.312 37.84a.955.955 0 0 1 .006-1.401 3.818 3.818 0 1 0-6.406-2.807 3.793 3.793 0 0 0 1.542 3.049.96.96 0 0 1 .215.224l3.438 3.421h3.86l-2.655-2.486zm-2.575-2.295a1.913 1.913 0 1 1 0-3.826 1.913 1.913 0 0 1 0 3.826zm18.353-5.619a7.734 7.734 0 0 0-6.269 1.647l-6.495 6.466 2.062 1.931 10.701-10.044zM32.651 48.932a1.913 1.913 0 1 1-3.825 0 1.913 1.913 0 0 1 3.825 0zm28.574 2.869a1.913 1.913 0 1 1-3.825 0 1.913 1.913 0 0 1 3.825 0zm9.563 9.563a1.913 1.913 0 1 1-3.825 0 1.913 1.913 0 0 1 3.825 0z"/><path fill="#00D6A8" d="M76.67 40.326H35.968L49.09 52.64a7.685 7.685 0 0 1-6.202-1.587l-10.78-10.727H27.33a2.33 2.33 0 0 0-2.33 2.33v27.852a2.33 2.33 0 0 0 2.33 2.331h49.34a2.33 2.33 0 0 0 2.33-2.33V42.655a2.33 2.33 0 0 0-2.33-2.33zM33.606 67.101h-1.912V57.54h1.912v9.56zm.869-17.337a3.825 3.825 0 1 1-6.02-3.88.905.905 0 0 0 .205-.215l3.054-3.038 1.862 1.851-.263.247a.956.956 0 0 0 .006 1.4 3.777 3.777 0 0 1 1.156 3.635zM37.43 67.1h-1.91v-1.91h1.912v1.91zm0-3.825h-1.91V57.54h1.912v5.737zm3.826 3.825h-1.913v-1.91h1.913v1.91zm0-3.825h-1.913V57.54h1.913v5.737zm3.825 3.825h-1.913v-1.91h1.913v1.91zm0-3.825h-1.913V57.54h1.913v5.737zm3.825 3.825h-1.913v-1.91h1.913v1.91zm0-3.825h-1.913V57.54h1.913v5.737zm3.825 3.825h-1.913v-9.56h1.913v9.56zm2.756-15.3a3.825 3.825 0 1 1 7.65 0 3.825 3.825 0 0 1-7.65 0zm2.99 12.924l9.562-17.213 1.671.928-9.562 17.213-1.672-.928zm10.398.464a3.825 3.825 0 1 1 0-7.65 3.825 3.825 0 0 1 0 7.65z"/><circle cx="53" cy="53" r="52" stroke="url(#a)" stroke-width="2"/><defs><linearGradient id="a" x1="53" x2="53" y2="106" gradientUnits="userSpaceOnUse"><stop stop-color="#00D6A8"/><stop offset="1" stop-color="#00A984"/></linearGradient></defs></svg>