<svg xmlns="http://www.w3.org/2000/svg" width="42" height="42" fill="none" viewBox="0 0 42 42"><g fill="#fff" clip-path="url(#a)"><path d="M20.805 27.39a2.135 2.135 0 0 0-2.133 2.132c0 1.176.957 2.133 2.133 2.133a2.135 2.135 0 0 0 2.132-2.133 2.135 2.135 0 0 0-2.132-2.132zm0 2.624a.493.493 0 1 1 0-.985.493.493 0 0 1 0 .985zm6.584-5.344a.827.827 0 0 0-.58-.24.823.823 0 0 0-.58 1.4.824.824 0 0 0 .58.241.827.827 0 0 0 .58-.24.827.827 0 0 0 .24-.58.826.826 0 0 0-.24-.58z"/><path d="M37.9 11.812h-.885L25.444.24a.82.82 0 0 0-1.16 0L21.32 3.205 9.464.028a.82.82 0 0 0-1.005.58L5.458 11.812h-2.01a3.45 3.45 0 0 0-3.443 3.58.817.817 0 0 0-.003.069v22.438A4.106 4.106 0 0 0 4.103 42H37.9a4.106 4.106 0 0 0 4.102-4.102V15.913a4.106 4.106 0 0 0-4.102-4.101zm-.733 1.64h.732a2.464 2.464 0 0 1 2.461 2.46v6.575a1.946 1.946 0 0 1-1.944 1.944h-.845v-3.268a4.105 4.105 0 0 0-4.016-4.1l3.611-3.611zM22.145 4.7l2.72-2.72L35.59 12.708l-4.327 4.328h-1.5l1.962-1.963a.82.82 0 0 0 0-1.16 1.705 1.705 0 0 1 0-2.409.82.82 0 0 0 0-1.16l-4.498-4.497a.82.82 0 0 0-1.16 0 1.705 1.705 0 0 1-2.408 0 .82.82 0 0 0-1.16 0L11.31 17.035h-1.5L22.145 4.7zm-2.414 9.253a3.92 3.92 0 0 0-3.824 3.082H13.63l9.52-9.521a3.355 3.355 0 0 0 3.425 0l3.482 3.481a3.356 3.356 0 0 0 0 3.425l-2.615 2.615h-3.888a3.92 3.92 0 0 0-3.824-3.082zm2.115 3.082h-4.23a2.277 2.277 0 0 1 2.115-1.442c.96 0 1.782.599 2.115 1.442zM8.943 15.58l2.172-8.107a3.324 3.324 0 0 0 1.72-.449c.53-.306.957-.742 1.247-1.264l3.692.99-5.357 5.357-3.474 3.473zm.889-13.756l10.148 2.72-.866.866-5.302-1.42a.82.82 0 0 0-1.005.58 1.69 1.69 0 0 1-.793 1.033 1.692 1.692 0 0 1-1.292.17.82.82 0 0 0-1.005.58L6.847 17.06H5.75L9.832 1.825zM3.447 13.452h1.571l-.967 3.61h-.604c-.995 0-1.804-.81-1.804-1.805 0-.995.81-1.805 1.804-1.805zM40.36 37.898a2.464 2.464 0 0 1-2.46 2.46h-1.15a4.08 4.08 0 0 0 .821-2.46v-3.295h.492c.857 0 1.65-.276 2.297-.742v4.037zm0-7.233a2.3 2.3 0 0 1-2.297 2.297H20.837a3.449 3.449 0 0 1-3.445-3.445c0-1.9 1.546-3.445 3.445-3.445h2.486a.82.82 0 0 0 0-1.64h-2.486a5.092 5.092 0 0 0-5.085 5.085 5.092 5.092 0 0 0 5.085 5.086h15.094v3.295a2.464 2.464 0 0 1-2.423 2.461H5.58v-9.237a.82.82 0 0 0-1.64 0v9.231A2.463 2.463 0 0 1 1.642 37.9V18.19a3.423 3.423 0 0 0 1.804.513H33.47a2.464 2.464 0 0 1 2.46 2.46v3.27H30a.82.82 0 0 0 0 1.64h8.416c.716 0 1.384-.212 1.944-.575v5.169z"/><path d="M5.338 27.343a.827.827 0 0 0-.58-.24.826.826 0 0 0-.58.24.827.827 0 0 0-.24.58c0 .215.087.427.24.58.152.152.364.24.58.24a.827.827 0 0 0 .58-.24.827.827 0 0 0 .24-.58.827.827 0 0 0-.24-.58z"/></g><defs><clipPath id="a"><path fill="#fff" d="M0 0h42v42H0z"/></clipPath></defs></svg>