<svg xmlns="http://www.w3.org/2000/svg" width="49" height="49" fill="none" viewBox="0 0 49 49"><g fill="#fff" clip-path="url(#a)"><path d="M48.403 24.38a3.972 3.972 0 0 0-.598-4.934l-1.91-1.882a2.073 2.073 0 0 1-.614-1.627l.191-2.687a3.968 3.968 0 0 0-2.828-4.104l-2.53-.762A2.073 2.073 0 0 1 38.81 7.22l-1.06-2.442a4.014 4.014 0 0 0-4.43-2.328l-2.566.504a2.071 2.071 0 0 1-1.704-.422L27.006.882a4.012 4.012 0 0 0-5.013 0l-2.043 1.65c-.479.387-1.1.54-1.704.422l-2.567-.504a4.014 4.014 0 0 0-4.43 2.328l-1.058 2.444c-.244.561-.72.985-1.306 1.162l-2.53.762a3.968 3.968 0 0 0-2.827 4.104l.191 2.688a2.07 2.07 0 0 1-.614 1.626l-1.91 1.882a3.972 3.972 0 0 0-.598 4.934l1.412 2.295c.319.518.395 1.146.209 1.724l-.827 2.57a3.97 3.97 0 0 0 1.762 4.653l2.29 1.359c.524.311.883.835.986 1.436l.45 2.643a3.966 3.966 0 0 0 3.736 3.315l2.622.13a2.07 2.07 0 0 1 1.55.818l1.599 2.103a4.01 4.01 0 0 0 4.865 1.201l2.37-1.107a2.072 2.072 0 0 1 1.758 0l2.37 1.107c1.69.79 3.736.284 4.865-1.201l1.598-2.103c.372-.49.937-.787 1.55-.818l2.623-.13a3.966 3.966 0 0 0 3.735-3.315l.45-2.643a2.073 2.073 0 0 1 .988-1.436l2.29-1.36a3.97 3.97 0 0 0 1.76-4.652l-.826-2.57a2.074 2.074 0 0 1 .209-1.724l1.412-2.295zm-3.042 1.292a3.985 3.985 0 0 0-.4 3.313l.826 2.57a2.066 2.066 0 0 1-.917 2.421l-2.289 1.36a3.984 3.984 0 0 0-1.897 2.76l-.45 2.643a2.064 2.064 0 0 1-1.944 1.725l-2.623.13a3.982 3.982 0 0 0-2.979 1.571l-1.598 2.103a2.088 2.088 0 0 1-2.532.625l-2.37-1.107a3.98 3.98 0 0 0-3.376 0l-2.37 1.107c-.88.41-1.945.148-2.532-.625l-1.6-2.103a3.982 3.982 0 0 0-2.978-1.57l-2.622-.131a2.064 2.064 0 0 1-1.944-1.725l-.45-2.643a3.984 3.984 0 0 0-1.897-2.76l-2.29-1.36a2.066 2.066 0 0 1-.916-2.421l.826-2.57a3.985 3.985 0 0 0-.4-3.313l-1.413-2.295a2.067 2.067 0 0 1 .312-2.568l1.91-1.881a3.985 3.985 0 0 0 1.18-3.126l-.191-2.688a2.065 2.065 0 0 1 1.471-2.136l2.53-.762a3.983 3.983 0 0 0 2.508-2.233l1.06-2.443a2.092 2.092 0 0 1 2.305-1.212l2.567.504a3.981 3.981 0 0 0 3.274-.81l2.044-1.65a2.087 2.087 0 0 1 2.608 0l2.044 1.649a3.982 3.982 0 0 0 3.275.81l2.566-.503a2.09 2.09 0 0 1 2.305 1.212l1.059 2.442a3.982 3.982 0 0 0 2.51 2.234l2.529.762a2.065 2.065 0 0 1 1.472 2.136l-.192 2.688a3.985 3.985 0 0 0 1.18 3.126l1.91 1.881c.694.683.822 1.74.312 2.568l-1.413 2.295z"/><path d="M13.795 30.804a.96.96 0 0 0-.957.961.957.957 0 1 0 1.914 0v-.009a.953.953 0 0 0-.957-.952z"/><path d="M39.873 25.386a2.945 2.945 0 0 0-1.895-2.748 2.944 2.944 0 0 0-2.675-4.16H29.14c-.171 0-.34.015-.503.043l.373-1.995a5.195 5.195 0 0 0-3.6-5.931l-.86-.262a.957.957 0 0 0-1.179.59l-1.67 4.617a5.343 5.343 0 0 1-2.471 2.877l-1.267.69a1.907 1.907 0 0 0-1.415-.63H11.04a1.916 1.916 0 0 0-1.914 1.914v13.958c0 1.055.858 1.913 1.914 1.913h5.508c.982 0 1.793-.743 1.9-1.697l.275.2a7.834 7.834 0 0 0 4.623 1.497h10.986a2.943 2.943 0 0 0 2.538-4.423 2.94 2.94 0 0 0 1.106-3.705 2.945 2.945 0 0 0 1.896-2.748zM16.55 34.349h-5.51V20.39h1.797v7.706a.957.957 0 1 0 1.914 0V20.39h1.76a.948.948 0 0 0 .037.353v13.605zm10.58-18.175l-.871 4.666v.005a2.92 2.92 0 0 0-.048.353l-.41 1.384a4.19 4.19 0 0 1-3.995 2.984.957.957 0 1 0 0 1.914c1.694 0 3.277-.72 4.403-1.899a2.93 2.93 0 0 0 .765 1.789 2.93 2.93 0 0 0 .044 4.014 2.928 2.928 0 0 0-.546 2.965h-3.123a5.933 5.933 0 0 1-3.501-1.135l-1.384-1.002V21.014l1.683-.916A7.254 7.254 0 0 0 23.5 16.19l1.362-3.763c1.6.49 2.574 2.1 2.267 3.746zm2.012 4.217h6.162a1.028 1.028 0 0 1 0 2.054H29.14a1.028 1.028 0 0 1 0-2.054zm5.192 13.958h-5.107a1.028 1.028 0 0 1 0-2.054h5.107a1.028 1.028 0 0 1 0 2.054zm.97-3.968h-6.161a1.028 1.028 0 0 1 0-2.054h6.16a1.028 1.028 0 0 1 0 2.054zm1.63-3.968H29.14a1.028 1.028 0 0 1 0-2.054h7.792a1.028 1.028 0 0 1 0 2.054z"/></g><defs><clipPath id="a"><path fill="#fff" d="M0 0h49v49H0z"/></clipPath></defs></svg>