<svg width="40" height="40" viewBox="0 0 40 40" fill="none" xmlns="http://www.w3.org/2000/svg">
<path d="M40 18.3984C40 21.2262 39.4591 23.7663 38.3923 25.9485C37.3761 28.0273 35.8823 29.7884 33.9523 31.1828C30.5315 33.6545 25.7068 34.9609 20 34.9609C18.403 34.9609 16.8605 34.8584 15.4027 34.6555C12.0957 37.9729 8.02859 38.1641 7.14211 38.1641C7.13352 38.1641 7.12523 38.1641 7.11726 38.1641H7.10906L4.30008 38.16L5.78312 35.7756C5.79086 35.763 6.65094 34.3459 7.31367 32.0075C2.52227 29.193 0 24.5144 0 18.3984C0 15.5707 0.540859 13.0305 1.60766 10.8484C2.62391 8.76953 4.11781 7.00844 6.04766 5.61406C9.46852 3.14234 14.2932 1.83594 20 1.83594C25.7068 1.83594 30.5315 3.14242 33.9523 5.61406C35.8822 7.00844 37.376 8.76953 38.3923 10.8484C39.4591 13.0305 40 15.5707 40 18.3984ZM36.875 18.3984C36.875 13.8748 35.2759 10.4257 32.1222 8.14711C29.2373 6.06266 25.0455 4.96094 20 4.96094C14.9545 4.96094 10.7627 6.06273 7.87781 8.14711C4.72406 10.4257 3.125 13.8748 3.125 18.3984C3.125 23.7795 5.37641 27.6184 9.81672 29.8087L10.9162 30.3509L10.651 31.5478C10.3937 32.7093 10.0748 33.7287 9.76008 34.578C10.9723 34.1695 12.4005 33.4023 13.6376 31.9655L14.2133 31.2968L15.0833 31.4445C16.6123 31.7042 18.2665 31.8359 20.0001 31.8359C25.0456 31.8359 29.2374 30.7341 32.1223 28.6497C35.2759 26.3711 36.875 22.922 36.875 18.3984Z" fill="url(#paint0_radial)"/>
<path d="M20.6959 8.4053C19.6172 8.4053 18.7428 9.27976 18.7428 10.3584C18.7428 11.4372 19.6172 12.3116 20.6959 12.3116C21.7746 12.3116 22.649 11.4371 22.649 10.3584C22.649 9.27976 21.7746 8.4053 20.6959 8.4053Z" fill="url(#paint1_radial)"/>
<path d="M21.0745 24.6711C21.1954 24.7601 21.4455 24.8864 21.7598 24.733L22.8213 24.2151L24.1917 27.0236L23.1302 27.5416C22.6009 27.7999 22.0322 27.9271 21.4666 27.9271C20.6742 27.9271 19.8877 27.6774 19.223 27.1886C18.0842 26.351 17.509 24.9626 17.7222 23.5651C17.7297 23.5163 17.7395 23.4678 17.7515 23.4198L18.9918 18.4865C19.0174 18.1743 18.8367 17.9901 18.7224 17.9059C18.6014 17.817 18.3515 17.6907 18.0371 17.844C16.9747 18.3624 16.7557 18.4691 16.7557 18.4691L15.3872 15.6596C15.3872 15.6596 15.6077 15.5522 16.6667 15.0355C17.9374 14.4154 19.4345 14.5505 20.5738 15.3884C21.7127 16.2259 22.2878 17.6144 22.0747 19.0119C22.0672 19.0608 22.0574 19.1093 22.0454 19.1573L20.8051 24.0906C20.7795 24.4028 20.9601 24.5869 21.0745 24.6711Z" fill="url(#paint2_radial)"/>
<defs>
<radialGradient id="paint0_radial" cx="0" cy="0" r="1" gradientUnits="userSpaceOnUse" gradientTransform="translate(20 5.70064) rotate(90) scale(32.4635 35.7447)">
<stop stop-color="#F7CA45" stop-opacity="0.21"/>
<stop offset="1" stop-color="#F2A33A" stop-opacity="0.05"/>
</radialGradient>
<radialGradient id="paint1_radial" cx="0" cy="0" r="1" gradientUnits="userSpaceOnUse" gradientTransform="translate(19.7895 10.4821) rotate(90) scale(17.445 7.86788)">
<stop stop-color="#F7CA45" stop-opacity="0.21"/>
<stop offset="1" stop-color="#F2A33A" stop-opacity="0.05"/>
</radialGradient>
<radialGradient id="paint2_radial" cx="0" cy="0" r="1" gradientUnits="userSpaceOnUse" gradientTransform="translate(19.7895 10.4821) rotate(90) scale(17.445 7.86788)">
<stop stop-color="#F7CA45" stop-opacity="0.21"/>
<stop offset="1" stop-color="#F2A33A" stop-opacity="0.05"/>
</radialGradient>
</defs>
</svg>
