<svg width="50" height="64" viewBox="0 0 50 64" fill="none" xmlns="http://www.w3.org/2000/svg">
<path d="M49.8328 62.6838C49.8328 63.3419 49.3311 64 48.495 64H1.33779C0.668895 64 0 63.5064 0 62.6838V1.3162C0 0.658103 0.501671 0 1.33779 0H48.6622C49.3311 0 50 0.493578 50 1.3162V62.6838H49.8328Z" fill="black"/>
<path d="M2.34113 37.6761V25.6658C2.34113 25.5013 2.50834 25.3368 2.67557 25.3368H4.18059C4.68226 25.3368 5.01671 25.6658 5.01671 26.1594V37.1825C5.01671 37.6761 4.68226 38.0051 4.18059 38.0051H2.67557C2.50834 37.8406 2.34113 37.6761 2.34113 37.6761Z" fill="url(#paint0_linear)"/>
<path d="M2.67557 37.6761V25.6658H4.18059C4.51503 25.6658 4.68226 25.8303 4.68226 26.1594V37.1825C4.68226 37.5115 4.51503 37.6761 4.18059 37.6761H2.67557Z" fill="url(#paint1_linear)"/>
<path d="M47.6589 37.6761V25.6658C47.6589 25.5013 47.4916 25.3368 47.3244 25.3368H45.8194C45.3177 25.3368 44.9833 25.6658 44.9833 26.1594V37.1825C44.9833 37.6761 45.3177 38.0051 45.8194 38.0051H47.3244C47.4916 37.8406 47.6589 37.6761 47.6589 37.6761Z" fill="url(#paint2_linear)"/>
<path d="M47.3244 37.6761V25.6658H45.8194C45.4849 25.6658 45.3177 25.8303 45.3177 26.1594V37.1825C45.3177 37.5115 45.4849 37.6761 45.8194 37.6761H47.3244Z" fill="url(#paint3_linear)"/>
<path d="M5.18394 26.1594V31.0951C5.18394 31.4242 5.35117 31.5887 5.68562 31.5887H44.1472C44.4816 31.5887 44.6488 31.4242 44.6488 31.0951V26.1594C44.6488 25.6658 45.1505 25.1722 45.6522 25.1722H46.8227C47.1572 25.1722 47.3244 25.0077 47.3244 24.6786V3.45501C47.3244 2.96143 46.99 2.63239 46.4883 2.63239H3.34448C2.84281 2.63239 2.50836 2.96143 2.50836 3.45501V24.6786C2.50836 25.0077 2.67558 25.1722 3.01003 25.1722H4.01338C4.8495 25.0077 5.18394 25.5013 5.18394 26.1594Z" fill="url(#paint4_linear)"/>
<path d="M5.18394 38.3342V33.3985C5.18394 33.0695 5.35117 32.9049 5.68562 32.9049H44.1472C44.4816 32.9049 44.6488 33.0695 44.6488 33.3985V38.3342C44.6488 38.8278 45.1505 39.3214 45.6522 39.3214H46.8227C47.1572 39.3214 47.3244 39.4859 47.3244 39.815V61.0386C47.3244 61.5322 46.99 61.8612 46.4883 61.8612H3.34448C2.84281 61.8612 2.50836 61.5322 2.50836 61.0386V39.815C2.50836 39.4859 2.67558 39.3214 3.01003 39.3214H4.01338C4.8495 39.3214 5.18394 38.9923 5.18394 38.3342Z" fill="black"/>
<path d="M5.18394 38.1697V33.234C5.18394 32.9049 5.35117 32.7404 5.68562 32.7404H44.1472C44.4816 32.7404 44.6488 32.9049 44.6488 33.234V38.1697C44.6488 38.6633 45.1505 39.1569 45.6522 39.1569H46.8227C47.1572 39.1569 47.3244 39.3214 47.3244 39.6504V60.874C47.3244 61.3676 46.99 61.6967 46.4883 61.6967H3.34448C2.84281 61.6967 2.50836 61.3676 2.50836 60.874V39.6504C2.50836 39.3214 2.67558 39.1569 3.01003 39.1569H4.01338C4.8495 39.1569 5.18394 38.6633 5.18394 38.1697Z" fill="url(#paint5_linear)"/>
<path d="M5.18394 37.8406V32.9049C5.18394 32.5758 5.35117 32.4113 5.68562 32.4113H44.1472C44.4816 32.4113 44.6488 32.5758 44.6488 32.9049V37.8406C44.6488 38.3342 45.1505 38.8278 45.6522 38.8278H46.8227C47.1572 38.8278 47.3244 38.9923 47.3244 39.3214V60.545C47.3244 61.0386 46.99 61.3676 46.4883 61.3676H3.34448C2.84281 61.3676 2.50836 61.0386 2.50836 60.545V39.3214C2.50836 38.9923 2.67558 38.8278 3.01003 38.8278H4.01338C4.8495 38.8278 5.18394 38.4987 5.18394 37.8406Z" fill="black"/>
<path d="M5.18394 37.6761V32.7404C5.18394 32.4113 5.35117 32.2468 5.68562 32.2468H44.1472C44.4816 32.2468 44.6488 32.4113 44.6488 32.7404V37.6761C44.6488 38.1697 45.1505 38.6632 45.6522 38.6632H46.8227C47.1572 38.6632 47.3244 38.8278 47.3244 39.1568V60.3804C47.3244 60.874 46.99 61.2031 46.4883 61.2031H3.34448C2.84281 61.2031 2.50836 60.874 2.50836 60.3804V39.1568C2.50836 38.8278 2.67558 38.6632 3.01003 38.6632H4.01338C4.8495 38.6632 5.18394 38.1697 5.18394 37.6761Z" fill="url(#paint6_linear)"/>
<path d="M5.18394 37.3471V32.4113C5.18394 32.0823 5.35117 31.9178 5.68562 31.9178H44.1472C44.4816 31.9178 44.6488 32.0823 44.6488 32.4113V37.3471C44.6488 37.8406 45.1505 38.3342 45.6522 38.3342H46.8227C47.1572 38.3342 47.3244 38.4987 47.3244 38.8278V60.0514C47.3244 60.545 46.99 60.874 46.4883 60.874H3.34448C2.84281 60.874 2.50836 60.545 2.50836 60.0514V38.8278C2.50836 38.4987 2.67558 38.3342 3.01003 38.3342H4.01338C4.8495 38.3342 5.18394 37.8406 5.18394 37.3471Z" fill="black"/>
<path d="M5.18394 37.018V32.0823C5.18394 31.7532 5.35117 31.5887 5.68562 31.5887H44.1472C44.4816 31.5887 44.6488 31.7532 44.6488 32.0823V37.018C44.6488 37.5116 45.1505 38.0052 45.6522 38.0052H46.8227C47.1572 38.0052 47.3244 38.1697 47.3244 38.4988V59.7224C47.3244 60.216 46.99 60.545 46.4883 60.545H3.34448C2.84281 60.545 2.50836 60.216 2.50836 59.7224V38.4988C2.50836 38.1697 2.67558 38.0052 3.01003 38.0052H4.01338C4.8495 38.1697 5.18394 37.6761 5.18394 37.018Z" fill="url(#paint7_linear)"/>
<path d="M5.18396 25.8303C5.18396 25.3367 4.68229 24.8432 4.18062 24.8432H3.17728C2.84283 24.8432 2.6756 24.6787 2.6756 24.3496V24.6786C2.6756 25.0077 2.84283 25.1722 3.17728 25.1722H4.18062C4.68229 25.1722 5.18396 25.6658 5.18396 26.1594V25.8303Z" fill="#333333"/>
<path d="M46.8228 24.8432H45.8194C45.3177 24.8432 44.8161 25.3367 44.8161 25.8303V26.1594C44.8161 25.6658 45.3177 25.1722 45.8194 25.1722H46.8228C47.1572 25.1722 47.3244 25.0077 47.3244 24.6786V24.3496C47.3244 24.6787 47.1572 24.8432 46.8228 24.8432Z" fill="#333333"/>
<path d="M46.4883 2.63239H3.34448C2.84281 2.63239 2.50836 2.96143 2.50836 3.45501V3.78408C2.50836 3.2905 2.84281 2.96145 3.34448 2.96145H46.4883C46.99 2.96145 47.3244 3.2905 47.3244 3.78408V3.45501C47.3244 2.96143 46.99 2.63239 46.4883 2.63239Z" fill="#363636"/>
<path d="M5.68564 31.9178H44.1472C44.4816 31.9178 44.6488 32.0823 44.6488 32.4113V32.0822C44.6488 31.7532 44.4816 31.5887 44.1472 31.5887H5.68564C5.35119 31.5887 5.18396 31.7532 5.18396 32.0822V32.4113C5.18396 32.2468 5.51841 31.9178 5.68564 31.9178Z" fill="#363636"/>
<path d="M3.17728 38.3342H4.18062C4.68229 38.3342 5.18396 37.8406 5.18396 37.347V37.0179C5.18396 37.5115 4.68229 38.0051 4.18062 38.0051H3.17728C2.84283 38.0051 2.6756 38.1697 2.6756 38.4987V38.8277C2.6756 38.6632 2.84283 38.3342 3.17728 38.3342Z" fill="#363636"/>
<path d="M46.8228 38.1697H45.8194C45.3177 38.1697 44.8161 37.6761 44.8161 37.1825V37.5116C44.8161 38.0051 45.3177 38.4987 45.8194 38.4987H46.8228C47.1572 38.4987 47.3244 38.6632 47.3244 38.9923V38.6632C47.3244 38.3342 47.1572 38.1697 46.8228 38.1697Z" fill="#363636"/>
<defs>
<linearGradient id="paint0_linear" x1="3.68694" y1="37.8572" x2="3.68694" y2="25.3381" gradientUnits="userSpaceOnUse">
<stop/>
<stop offset="0.1162" stop-color="#454545"/>
<stop offset="0.1465"/>
<stop offset="0.5606" stop-color="#9E9E9E"/>
<stop offset="0.7677" stop-color="#535353"/>
<stop offset="0.7879" stop-color="#727272"/>
<stop offset="0.9242" stop-color="#666666"/>
<stop offset="0.9343" stop-color="#3A3A3A"/>
<stop offset="1"/>
</linearGradient>
<linearGradient id="paint1_linear" x1="3.68711" y1="37.6022" x2="3.68711" y2="25.5931" gradientUnits="userSpaceOnUse">
<stop stop-color="#1C1C1C"/>
<stop offset="0.1162" stop-color="#606060"/>
<stop offset="0.1465" stop-color="#090909"/>
<stop offset="0.5606" stop-color="#C0C0C0"/>
<stop offset="0.7677" stop-color="#707070"/>
<stop offset="0.7879" stop-color="#919191"/>
<stop offset="0.9242" stop-color="#848484"/>
<stop offset="0.9343" stop-color="#555555"/>
<stop offset="1" stop-color="#1A1A1A"/>
</linearGradient>
<linearGradient id="paint2_linear" x1="46.2774" y1="37.8572" x2="46.2774" y2="25.3381" gradientUnits="userSpaceOnUse">
<stop/>
<stop offset="0.1162" stop-color="#454545"/>
<stop offset="0.1465"/>
<stop offset="0.5606" stop-color="#9E9E9E"/>
<stop offset="0.7677" stop-color="#535353"/>
<stop offset="0.7879" stop-color="#727272"/>
<stop offset="0.9242" stop-color="#666666"/>
<stop offset="0.9343" stop-color="#3A3A3A"/>
<stop offset="1"/>
</linearGradient>
<linearGradient id="paint3_linear" x1="46.2769" y1="37.6022" x2="46.2769" y2="25.5931" gradientUnits="userSpaceOnUse">
<stop stop-color="#1C1C1C"/>
<stop offset="0.1162" stop-color="#606060"/>
<stop offset="0.1465" stop-color="#090909"/>
<stop offset="0.5606" stop-color="#C0C0C0"/>
<stop offset="0.7677" stop-color="#707070"/>
<stop offset="0.7879" stop-color="#919191"/>
<stop offset="0.9242" stop-color="#848484"/>
<stop offset="0.9343" stop-color="#555555"/>
<stop offset="1" stop-color="#1A1A1A"/>
</linearGradient>
<linearGradient id="paint4_linear" x1="24.9821" y1="31.4701" x2="24.9821" y2="2.59767" gradientUnits="userSpaceOnUse">
<stop stop-color="#333333"/>
<stop offset="0.1253" stop-color="#3C3C3C"/>
<stop offset="0.3232" stop-color="#454545"/>
<stop offset="1" stop-color="#292929"/>
</linearGradient>
<linearGradient id="paint5_linear" x1="24.9821" y1="32.748" x2="24.9821" y2="61.619" gradientUnits="userSpaceOnUse">
<stop stop-color="#454545"/>
<stop offset="0.5593" stop-color="#323232"/>
<stop offset="1" stop-color="#292929"/>
</linearGradient>
<linearGradient id="paint6_linear" x1="24.9821" y1="32.2364" x2="24.9821" y2="61.1076" gradientUnits="userSpaceOnUse">
<stop stop-color="#454545"/>
<stop offset="0.5593" stop-color="#323232"/>
<stop offset="1" stop-color="#292929"/>
</linearGradient>
<linearGradient id="paint7_linear" x1="24.9821" y1="31.7251" x2="24.9821" y2="60.5962" gradientUnits="userSpaceOnUse">
<stop stop-color="#454545"/>
<stop offset="0.5593" stop-color="#323232"/>
<stop offset="1" stop-color="#292929"/>
</linearGradient>
</defs>
</svg>
