<svg width="9" height="6" viewBox="0 0 9 6" fill="none" xmlns="http://www.w3.org/2000/svg">
<path d="M1.22825 0.934193C0.93764 0.679232 0.495368 0.708131 0.240407 0.99874C-0.0145545 1.28935 0.0143441 1.73162 0.304953 1.98658L1.22825 0.934193ZM4.41445 4.66076L3.9528 5.18696L4.41449 5.59201L4.87614 5.18692L4.41445 4.66076ZM8.52334 1.98654C8.81393 1.73156 8.84279 1.28928 8.5878 0.998694C8.33282 0.708107 7.89054 0.679247 7.59995 0.934234L8.52334 1.98654ZM0.304953 1.98658L3.9528 5.18696L4.8761 4.13457L1.22825 0.934193L0.304953 1.98658ZM4.87614 5.18692L8.52334 1.98654L7.59995 0.934234L3.95275 4.13461L4.87614 5.18692Z" fill="white"/>
</svg>
