<svg width="24" height="24" viewBox="0 0 24 24" fill="none" xmlns="http://www.w3.org/2000/svg">
<path fill-rule="evenodd" clip-rule="evenodd" d="M0 0V2.4H2.4L6.72 11.508L5.088 14.448C4.908 14.784 4.8 15.18 4.8 15.6C4.8 16.92 5.88 18 7.2 18H21.6V15.6H7.704C7.536 15.6 7.404 15.468 7.404 15.3C7.404 15.24 7.416 15.192 7.44 15.156L8.52 13.2H17.46C18.36 13.2 19.152 12.696 19.56 11.964L23.856 4.2C23.94 4.008 24 3.804 24 3.6C24 2.94 23.46 2.4 22.8 2.4H5.052L3.924 0H0ZM19.2 19.2C17.868 19.2 16.8 20.268 16.8 21.6C16.8 22.92 17.88 24 19.2 24C20.52 24 21.6 22.92 21.6 21.6C21.6 20.268 20.52 19.2 19.2 19.2ZM4.8 21.6C4.8 20.268 5.868 19.2 7.2 19.2C8.52 19.2 9.6 20.268 9.6 21.6C9.6 22.92 8.52 24 7.2 24C5.88 24 4.8 22.92 4.8 21.6Z" fill="#202022"/>
</svg>
