<svg width="24" height="24" viewBox="0 0 24 24" fill="none" xmlns="http://www.w3.org/2000/svg">
<rect x="2.73001" y="20.13" width="2.7" height="0.6" fill="black"/>
<path fill-rule="evenodd" clip-rule="evenodd" d="M24 23.79V12.33V11.73V9.02999H4.35V1.64999H6.69L6.18 2.15999C6.09 2.24999 6.06 2.42999 6.15 2.54999L7.23 4.19999V4.37999C7.23 5.18999 7.53 5.93999 8.1 6.50999L8.19 6.59999C8.25 6.65999 8.31 6.68999 8.4 6.68999C8.49 6.68999 8.55 6.65999 8.61 6.59999L12.45 2.75999C12.51 2.69999 12.54 2.63999 12.54 2.54999C12.54 2.45999 12.51 2.39999 12.45 2.33999L12.36 2.24999C11.79 1.67999 11.04 1.37999 10.23 1.37999H10.05L8.4 0.299993C8.28 0.209993 8.13 0.239993 8.01 0.329993L7.26 1.07999H4.32C3.99 1.07999 3.72 1.34999 3.72 1.67999V9.05999H0V11.76V12.36V23.82H8.46V12.33H23.4V23.79H24ZM11.82 2.51999L8.4 5.93999C8.01 5.48999 7.83 4.94999 7.83 4.37999C7.83 3.71999 8.07 3.11999 8.55 2.66999C9 2.21999 9.6 1.94999 10.26 1.94999C10.83 1.94999 11.37 2.12999 11.82 2.51999ZM9.24 1.52999L8.31 0.899993L6.78 2.39999L7.41 3.35999C7.56 2.93999 7.8 2.57999 8.13 2.24999C8.43 1.91999 8.82 1.67999 9.24 1.52999ZM0.6 15.09H7.86V17.19H0.6V15.09ZM0.6 17.79V23.19H7.86V17.79H0.6ZM7.86 14.49H0.6V12.33H7.86V14.49ZM0.6 11.73H8.46H23.4V9.62999H0.6V11.73Z" fill="black"/>
</svg>
