<svg width="37" height="26" viewBox="0 0 37 26" fill="none" xmlns="http://www.w3.org/2000/svg">
<path d="M7.78882 14.0689C7.78882 12.2056 6.26931 10.6944 4.39486 10.6944C2.52042 10.6944 1.00012 12.2056 1.00012 14.0689C1.00012 15.0793 1.44687 15.9865 2.15479 16.605C2.31821 16.7486 2.49707 16.8761 2.68701 16.9863V24.8626H7.78882" stroke="black" stroke-width="2"/>
<path d="M28.9725 14.0689C28.9725 12.2056 30.492 10.6944 32.3665 10.6944C34.2409 10.6944 35.7612 12.2056 35.7612 14.0689C35.7612 15.0793 35.3144 15.9865 34.6065 16.605C34.4431 16.7486 34.2646 16.8761 34.0747 16.9863V24.8626H28.9725" stroke="black" stroke-width="2"/>
<path d="M28.9636 16.6052V4.51782C28.9636 4.51782 29.3051 1.00005 25.7778 1.00005H10.8855C7.35737 1.00005 7.69926 4.51782 7.69926 4.51782V16.6052" stroke="black" stroke-width="2"/>
<path fill-rule="evenodd" clip-rule="evenodd" d="M28.9636 24.8625V17.7467C28.9636 17.7467 29.3051 14.2293 25.7778 14.2293H10.8855C7.35737 14.2293 7.69926 17.7467 7.69926 17.7467V24.8625H28.9636Z" stroke="black" stroke-width="2"/>
</svg>
