<svg width="32" height="26" viewBox="0 0 32 26" fill="none" xmlns="http://www.w3.org/2000/svg">
<path fill-rule="evenodd" clip-rule="evenodd" d="M1.69786 11.1382H30.4721L30.7882 11.6557L30.9981 12.2357V13.0186L30.6681 13.4189L30.3109 13.7488H1.85228L1.44878 13.5235L1.0751 13.0122V12.1686L1.24171 11.5606L1.69786 11.1382Z" stroke="#202022" stroke-width="2"/>
<path d="M1.88148 13.8006C2.97281 18.4426 5.57391 22.5211 5.57391 22.5211H26.1553C26.1553 22.5211 28.7614 18.9185 30.2316 13.8106" stroke="#202022" stroke-width="2"/>
<path d="M3.82549 10.9573V2.61649L4.22707 1.94974L4.73487 1.44546L5.10504 1.16052L6.38351 1.18719L6.75843 1.59843L7.07923 1.98193L7.43483 2.48084V3.66812L6.43762 3.66015L6.00017 4.10235L5.82543 4.61506V5.27853H9.25367L9.24089 4.49903L8.59754 3.66812H7.43483" stroke="#202022" stroke-width="2"/>
<path d="M6.72149 24.7658L8.7347 22.7526" stroke="#202022" stroke-width="2"/>
<path d="M25.4759 24.8549L23.5094 22.8884" stroke="#202022" stroke-width="2"/>
</svg>
