<svg width="30" height="26" viewBox="0 0 30 26" fill="none" xmlns="http://www.w3.org/2000/svg">
<path fill-rule="evenodd" clip-rule="evenodd" d="M1.28601 1.2155C1.28601 1.2155 13.8051 1.2155 18.7854 1.2155C23.7658 1.2155 28.7462 1.2155 28.7462 1.2155V6.72391C28.7462 6.72391 27.5352 6.72391 18.7854 6.72391C10.0357 6.72391 1.28601 6.72391 1.28601 6.72391V1.2155Z" stroke="#F3C6AA" stroke-width="2"/>
<path fill-rule="evenodd" clip-rule="evenodd" d="M1.28601 14.8707C1.28601 14.8707 13.8051 14.8707 18.7854 14.8707C23.7658 14.8707 28.7462 14.8707 28.7462 14.8707V24.8274C28.7462 24.8274 27.5352 24.8274 18.7854 24.8274C10.0357 24.8274 1.28601 24.8274 1.28601 24.8274V14.8707Z" stroke="#F3C6AA" stroke-width="2"/>
<path d="M18.5522 6.6045V1.20973" stroke="#F3C6AA" stroke-width="2"/>
<path d="M17.2985 3.33682V4.48739" stroke="#F3C6AA" stroke-width="2"/>
<path d="M19.806 3.33682V4.48739" stroke="#F3C6AA" stroke-width="2"/>
<path d="M8.94031 14.8833V24.7912" stroke="#F3C6AA" stroke-width="2"/>
<path d="M18.5522 14.9009V24.7958" stroke="#F3C6AA" stroke-width="2"/>
<path d="M1.34021 17.5517H9.28922" stroke="#F3C6AA" stroke-width="2"/>
<path d="M17.2985 19.0475V20.6801" stroke="#F3C6AA" stroke-width="2"/>
<path d="M19.806 19.0475V20.6801" stroke="#F3C6AA" stroke-width="2"/>
<path d="M4.90179 15.8966H5.48282" stroke="#F3C6AA" stroke-width="2"/>
<path d="M13.538 14.5865V11.7863L13.7549 11.334L13.9539 10.9076L14.4243 10.5226L14.813 10.3124L15.1998 10.3135L15.6312 10.7224L16.0709 11.1727L16.4522 11.7798L16.4653 12.5237" stroke="#F3C6AA" stroke-width="2"/>
</svg>
