<svg width="33" height="25" viewBox="0 0 33 25" fill="none" xmlns="http://www.w3.org/2000/svg">
<path fill-rule="evenodd" clip-rule="evenodd" d="M1 20.2914H31.6642V0.999847H1V20.2914Z" stroke="black" stroke-width="2"/>
<path d="M31.7319 10.5832H1.06804" stroke="black" stroke-width="2" stroke-linejoin="round"/>
<path fill-rule="evenodd" clip-rule="evenodd" d="M9.0846 6.29296C9.0846 6.85856 8.62282 7.31776 8.05395 7.31776C7.48387 7.31776 7.02209 6.85856 7.02209 6.29296C7.02209 5.72696 7.48387 5.26776 8.05395 5.26776C8.62282 5.26776 9.0846 5.72696 9.0846 6.29296Z" fill="black"/>
<path fill-rule="evenodd" clip-rule="evenodd" d="M26.226 6.29296C26.226 6.85856 25.7647 7.31776 25.1954 7.31776C24.6253 7.31776 24.1639 6.85856 24.1639 6.29296C24.1639 5.72696 24.6253 5.26776 25.1954 5.26776C25.7647 5.26776 26.226 5.72696 26.226 6.29296Z" fill="black"/>
<path fill-rule="evenodd" clip-rule="evenodd" d="M9.0846 14.9527C9.0846 15.5179 8.62282 15.9767 8.05395 15.9767C7.48387 15.9767 7.02209 15.5179 7.02209 14.9527C7.02209 14.3867 7.48387 13.9279 8.05395 13.9279C8.62282 13.9279 9.0846 14.3867 9.0846 14.9527Z" fill="black"/>
<path fill-rule="evenodd" clip-rule="evenodd" d="M26.226 14.9527C26.226 15.5179 25.7647 15.9767 25.1954 15.9767C24.6253 15.9767 24.1639 15.5179 24.1639 14.9527C24.1639 14.3867 24.6253 13.9279 25.1954 13.9279C25.7647 13.9279 26.226 14.3867 26.226 14.9527Z" fill="black"/>
<path d="M8.05331 20.5621V24.7561" stroke="black" stroke-width="2"/>
<path d="M25.1952 20.5621V24.7561" stroke="black" stroke-width="2"/>
</svg>
