<svg width="100" height="15" viewBox="0 0 100 15" fill="none" xmlns="http://www.w3.org/2000/svg">
<path d="M9.53782 14.3488L3.61345 6.23954V14.3488H0V0.336182H3.71849L9.39076 8.04627V0.336182H13.0252V14.3488H9.53782Z" fill="white"/>
<path fill-rule="evenodd" clip-rule="evenodd" d="M18.3403 13.5925L17.7311 14.3488H15.2101L16.7857 12.395C15.5462 11.1345 14.8319 9.39081 14.8319 7.353C14.8319 3.08829 18.0462 0.105098 22.3319 0.105098C23.6068 0.0894404 24.867 0.377493 26.0084 0.945434L26.5126 0.33619H29.0336L27.6261 2.07989C28.9916 3.3614 29.8109 5.18913 29.8109 7.353C29.8109 11.6177 26.6177 14.6009 22.3319 14.6009C20.8403 14.6009 19.4748 14.2438 18.3403 13.5925ZM19.0546 9.57989L23.8656 3.6135C23.3833 3.39848 22.8599 3.29096 22.3319 3.29838C20 3.29838 18.5084 5.06308 18.5084 7.353C18.497 8.1298 18.6851 8.89654 19.0546 9.57989ZM25.3992 4.853C25.8887 5.59406 26.1449 6.46489 26.1345 7.353C26.1345 9.6219 24.6429 11.4076 22.3319 11.4076C21.6825 11.4108 21.0417 11.2596 20.4622 10.9664L25.3992 4.853Z" fill="white"/>
<path fill-rule="evenodd" clip-rule="evenodd" d="M37.0998 9.6429L39.4527 14.3488H43.5925L40.7353 9.20173C42.0378 8.73954 43.5294 7.43702 43.5294 5.00005C43.5294 2.39501 41.7647 0.336182 38.6555 0.336182H31.6387V14.3488H35.2521V9.6429H37.0998ZM38.1082 3.48744C39.0536 3.48744 39.8519 4.03366 39.8519 4.97904H39.853C39.853 5.96643 39.0536 6.49164 38.1093 6.49164H35.2521V3.48744H38.1082Z" fill="white"/>
<path fill-rule="evenodd" clip-rule="evenodd" d="M45.5252 0.336182V14.3488H51.4286C55.8193 14.3488 58.9916 11.6807 58.9916 7.33198C58.9916 2.98324 55.8193 0.336182 51.4076 0.336182H45.5252ZM51.4286 3.48744C53.9916 3.48744 55.2941 5.16811 55.2941 7.33198H55.2931C55.2931 9.41181 53.8645 11.1975 51.4076 11.1975H49.1387V3.48744H51.4286Z" fill="white"/>
<path fill-rule="evenodd" clip-rule="evenodd" d="M69.6208 12.332L70.3141 14.3488H74.4107L69.1176 0.336182H64.5788L59.3057 14.3488H63.4023L64.0956 12.332H69.6208ZM65.062 9.18072L66.8477 3.90761L68.6334 9.18072H65.062Z" fill="white"/>
<path fill-rule="evenodd" clip-rule="evenodd" d="M80.9023 9.6429L83.2553 14.3488H87.395L84.5378 9.20173C85.8403 8.73954 87.3319 7.43702 87.3319 5.00005C87.3319 2.39501 85.5672 0.336182 82.458 0.336182H75.4401V14.3488H79.0536V9.6429H80.9023ZM81.9107 3.48744C82.8561 3.48744 83.6544 4.03366 83.6544 4.97904C83.6544 5.96643 82.8561 6.49164 81.9107 6.49164H79.0536V3.48744H81.9107Z" fill="white"/>
<path d="M92.457 14.3488V3.48744H88.5284V0.336182H99.978V3.48744H96.0704V14.3488H92.457Z" fill="white"/>
</svg>
