<svg width="100" height="67" viewBox="0 0 100 67" fill="none" xmlns="http://www.w3.org/2000/svg">
<mask id="mask0" mask-type="alpha" maskUnits="userSpaceOnUse" x="0" y="0" width="100" height="67">
<path fill-rule="evenodd" clip-rule="evenodd" d="M49.9633 66.9094H99.9266V0H0V33.4547V66.9094H49.9633Z" fill="white"/>
</mask>
<g mask="url(#mask0)">
<path fill-rule="evenodd" clip-rule="evenodd" d="M0.863309 48.8482H9.13669V16.4745H0.863309V48.8482ZM5.17986 0C7.55396 0 9.92806 1.87014 9.92806 4.82014C9.92806 8.12914 7.55396 9.99964 5.17986 9.99964C2.3741 9.99964 0 8.12914 0 4.82014C0 1.87014 2.3741 0 5.17986 0Z" fill="#202022"/>
<path fill-rule="evenodd" clip-rule="evenodd" d="M12.3735 16.4745H20.6469V19.6399C22.1577 17.5536 24.1717 15.8989 28.0566 15.8989C30.7185 15.8989 32.0135 16.3306 33.0926 17.1219L30.143 24.8914C28.5606 23.9565 27.6969 23.6684 25.9703 23.6684C23.0926 23.6684 21.5822 25.2511 20.6469 27.1219V48.8482H12.3735V16.4745Z" fill="#202022"/>
<path fill-rule="evenodd" clip-rule="evenodd" d="M31.869 48.8482H40.1424V16.4745H31.869V48.8482ZM36.1856 0C38.5597 0 40.9338 1.87014 40.9338 4.82014C40.9338 8.12914 38.5597 9.99964 36.1856 9.99964C33.3798 9.99964 31.0057 8.12914 31.0057 4.82014C31.0057 1.87014 33.3798 0 36.1856 0Z" fill="#202022"/>
<path fill-rule="evenodd" clip-rule="evenodd" d="M71.7963 44.0279C69.0625 47.6966 64.1704 49.6394 58.9186 49.6394C48.4153 49.6394 41.365 42.8772 41.365 32.661C41.365 23.2369 48.2715 15.683 58.1272 15.683C63.451 15.683 68.1272 17.0499 71.1488 20.0714L67.2639 26.6186C64.8179 24.2441 62.156 23.4527 59.2064 23.4527C54.6024 23.4527 50.2136 26.9783 50.2136 32.661C50.2136 38.4164 54.674 41.9416 59.5661 41.9416C63.0912 41.9416 65.8251 40.2869 67.9114 37.9848L71.7963 44.0279Z" fill="#202022"/>
<path fill-rule="evenodd" clip-rule="evenodd" d="M75.7544 29.6394H91.6533C91.7253 25.683 88.9914 22.5891 84.2436 22.5891C79.2796 22.5891 76.6177 25.3952 75.7544 29.6394ZM97.2648 45.6107C94.0274 48.3445 89.4231 49.6394 84.8907 49.6394C74.4594 49.6394 67.481 42.8772 67.481 32.661C67.481 23.2369 73.9558 15.683 84.6033 15.683C92.9483 15.683 99.9267 21.6542 99.9267 30.7186C99.9267 32.7333 99.7828 33.956 99.4231 35.179H76.0422C76.7616 40.0711 80.6465 42.733 85.754 42.733C89.7109 42.733 93.0202 41.2941 94.8907 39.7833L97.2648 45.6107Z" fill="#202022"/>
<path fill-rule="evenodd" clip-rule="evenodd" d="M0.738403 56.6951H1.88948V61.0397C2.3643 60.5505 3.18409 60.1764 4.00423 60.1764C5.68732 60.1764 6.69416 61.0253 6.69416 63.0538V66.7653H5.54344V63.212C5.54344 61.9174 4.92473 61.2556 3.73085 61.2556C3.01142 61.2556 2.292 61.6153 1.88948 62.0753V66.7653H0.738403V56.6951Z" fill="#202022"/>
<path fill-rule="evenodd" clip-rule="evenodd" d="M12.9669 65.8302C14.2615 65.8302 15.1967 64.9093 15.1967 63.5288C15.1967 62.1762 14.2615 61.2266 12.9669 61.2266C11.7007 61.2266 10.737 62.1619 10.737 63.5288C10.737 64.8806 11.6719 65.8302 12.9669 65.8302ZM12.9669 60.1478C15.0384 60.1478 16.4194 61.5863 16.4194 63.5288C16.4194 65.4705 15.0384 66.9093 12.9669 66.9093C10.8953 66.9093 9.51398 65.4705 9.51398 63.5288C9.51398 61.5863 10.8953 60.1478 12.9669 60.1478Z" fill="#202022"/>
<path fill-rule="evenodd" clip-rule="evenodd" d="M28.9425 66.7653H27.7914V62.838C27.7914 61.7732 27.3313 61.2556 26.3961 61.2556C25.6191 61.2556 25.0007 61.6585 24.6986 62.1905C24.713 62.306 24.713 62.5071 24.713 62.6509V66.7653H23.5619V62.5934C23.5619 61.802 23.0874 61.2556 22.181 61.2556C21.4331 61.2556 20.8144 61.6585 20.4835 62.133V66.7653H19.3324V60.2916H20.4835V61.1114C20.9583 60.5506 21.7925 60.1765 22.627 60.1765C23.6338 60.1765 24.3389 60.6225 24.5835 61.2988C25.0439 60.6369 25.8781 60.1765 26.8565 60.1765C28.0504 60.1765 28.9425 60.752 28.9425 62.5214V66.7653Z" fill="#202022"/>
<path fill-rule="evenodd" clip-rule="evenodd" d="M33.0257 62.9529H36.953C36.8955 61.8885 36.2048 61.2266 35.0829 61.2266C33.903 61.2266 33.1552 61.9604 33.0257 62.9529ZM37.7012 66.0604C37.0681 66.6356 36.1333 66.9093 35.2699 66.9093C33.1696 66.9093 31.803 65.5712 31.803 63.5288C31.803 61.6439 33.0113 60.1478 35.1404 60.1478C36.8092 60.1478 38.1473 61.3273 38.1473 63.1111C38.1473 63.4277 38.1185 63.6867 38.0753 63.8881H33.0976C33.1984 65.1108 34.0901 65.8302 35.3563 65.8302C36.1904 65.8302 36.9243 65.5424 37.3415 65.1539L37.7012 66.0604Z" fill="#202022"/>
</g>
</svg>
