<svg style="display: none;" xmlns="http://www.w3.org/2000/svg">
 <symbol id="cart" viewBox="0 0 24 24">
   <g>
     <path fill-rule="evenodd" clip-rule="evenodd" d="M0 0V2.4H2.4L6.72 11.508L5.088 14.448C4.908 14.784 4.8 15.18 4.8 15.6C4.8 16.92 5.88 18 7.2 18H21.6V15.6H7.704C7.536 15.6 7.404 15.468 7.404 15.3C7.404 15.24 7.416 15.192 7.44 15.156L8.52 13.2H17.46C18.36 13.2 19.152 12.696 19.56 11.964L23.856 4.2C23.94 4.008 24 3.804 24 3.6C24 2.94 23.46 2.4 22.8 2.4H5.052L3.924 0H0ZM19.2 19.2C17.868 19.2 16.8 20.268 16.8 21.6C16.8 22.92 17.88 24 19.2 24C20.52 24 21.6 22.92 21.6 21.6C21.6 20.268 20.52 19.2 19.2 19.2ZM4.8 21.6C4.8 20.268 5.868 19.2 7.2 19.2C8.52 19.2 9.6 20.268 9.6 21.6C9.6 22.92 8.52 24 7.2 24C5.88 24 4.8 22.92 4.8 21.6Z"/>
   </g>
 </symbol>
 <symbol id="category-icon1" viewBox="0 0 30 26"><!-- stroke="#F3C6AA" -->
   <g>
     <path fill-rule="evenodd" clip-rule="evenodd" d="M1.28601 1.2155C1.28601 1.2155 13.8051 1.2155 18.7854 1.2155C23.7658 1.2155 28.7462 1.2155 28.7462 1.2155V6.72391C28.7462 6.72391 27.5352 6.72391 18.7854 6.72391C10.0357 6.72391 1.28601 6.72391 1.28601 6.72391V1.2155Z" stroke-width="2"/>
      <path fill-rule="evenodd" clip-rule="evenodd" d="M1.28601 14.8707C1.28601 14.8707 13.8051 14.8707 18.7854 14.8707C23.7658 14.8707 28.7462 14.8707 28.7462 14.8707V24.8274C28.7462 24.8274 27.5352 24.8274 18.7854 24.8274C10.0357 24.8274 1.28601 24.8274 1.28601 24.8274V14.8707Z" stroke-width="2"/>
      <path d="M18.5522 6.6045V1.20973" stroke-width="2"/>
      <path d="M17.2985 3.33682V4.48739" stroke-width="2"/>
      <path d="M19.806 3.33682V4.48739" stroke-width="2"/>
      <path d="M8.94031 14.8833V24.7912" stroke-width="2"/>
      <path d="M18.5522 14.9009V24.7958" stroke-width="2"/>
      <path d="M1.34021 17.5517H9.28922" stroke-width="2"/>
      <path d="M17.2985 19.0475V20.6801" stroke-width="2"/>
      <path d="M19.806 19.0475V20.6801" stroke-width="2"/>
      <path d="M4.90179 15.8966H5.48282" stroke-width="2"/>
      <path d="M13.538 14.5865V11.7863L13.7549 11.334L13.9539 10.9076L14.4243 10.5226L14.813 10.3124L15.1998 10.3135L15.6312 10.7224L16.0709 11.1727L16.4522 11.7798L16.4653 12.5237" stroke-width="2"/>
   </g>
 </symbol>
 <symbol id="category-icon2" viewBox="0 0 22 26"><!-- stroke="black" -->
   <g>
     <path d="M12.3206 4.21618V0.999924H19.3601V6.4446" stroke-width="2"/>
      <path d="M1.98157 4.22192V1.00005H9.0203V4.2163" stroke-width="2"/>
      <path fill-rule="evenodd" clip-rule="evenodd" d="M20.8432 7.85198V24.8371H1V4.21623H16.6625L20.8432 7.85198Z" stroke-width="2"/>
      <path d="M16.3631 4.22192V7.97741H20.8432" stroke="black" stroke-width="2" stroke-linejoin="round"/>
      <path d="M20.8432 20.8458H1" stroke-width="2" stroke-linejoin="round"/>
   </g>
 </symbol>
 <symbol id="category-icon3" viewBox="0 0 24 24">
   <g>
     <rect x="2.73001" y="20.13" width="2.7" height="0.6"/>
<path fill-rule="evenodd" clip-rule="evenodd" d="M24 23.79V12.33V11.73V9.02999H4.35V1.64999H6.69L6.18 2.15999C6.09 2.24999 6.06 2.42999 6.15 2.54999L7.23 4.19999V4.37999C7.23 5.18999 7.53 5.93999 8.1 6.50999L8.19 6.59999C8.25 6.65999 8.31 6.68999 8.4 6.68999C8.49 6.68999 8.55 6.65999 8.61 6.59999L12.45 2.75999C12.51 2.69999 12.54 2.63999 12.54 2.54999C12.54 2.45999 12.51 2.39999 12.45 2.33999L12.36 2.24999C11.79 1.67999 11.04 1.37999 10.23 1.37999H10.05L8.4 0.299993C8.28 0.209993 8.13 0.239993 8.01 0.329993L7.26 1.07999H4.32C3.99 1.07999 3.72 1.34999 3.72 1.67999V9.05999H0V11.76V12.36V23.82H8.46V12.33H23.4V23.79H24ZM11.82 2.51999L8.4 5.93999C8.01 5.48999 7.83 4.94999 7.83 4.37999C7.83 3.71999 8.07 3.11999 8.55 2.66999C9 2.21999 9.6 1.94999 10.26 1.94999C10.83 1.94999 11.37 2.12999 11.82 2.51999ZM9.24 1.52999L8.31 0.899993L6.78 2.39999L7.41 3.35999C7.56 2.93999 7.8 2.57999 8.13 2.24999C8.43 1.91999 8.82 1.67999 9.24 1.52999ZM0.6 15.09H7.86V17.19H0.6V15.09ZM0.6 17.79V23.19H7.86V17.79H0.6ZM7.86 14.49H0.6V12.33H7.86V14.49ZM0.6 11.73H8.46H23.4V9.62999H0.6V11.73Z"/>
   </g>
 </symbol>
 <symbol id="category-icon4" viewBox="0 0 37 26"><!-- stroke="black" -->
   <g>
     <path d="M7.78882 14.0689C7.78882 12.2056 6.26931 10.6944 4.39486 10.6944C2.52042 10.6944 1.00012 12.2056 1.00012 14.0689C1.00012 15.0793 1.44687 15.9865 2.15479 16.605C2.31821 16.7486 2.49707 16.8761 2.68701 16.9863V24.8626H7.78882"  stroke-width="2"/>
      <path d="M28.9725 14.0689C28.9725 12.2056 30.492 10.6944 32.3665 10.6944C34.2409 10.6944 35.7612 12.2056 35.7612 14.0689C35.7612 15.0793 35.3144 15.9865 34.6065 16.605C34.4431 16.7486 34.2646 16.8761 34.0747 16.9863V24.8626H28.9725" stroke-width="2"/>
      <path d="M28.9636 16.6052V4.51782C28.9636 4.51782 29.3051 1.00005 25.7778 1.00005H10.8855C7.35737 1.00005 7.69926 4.51782 7.69926 4.51782V16.6052" stroke-width="2"/>
      <path fill-rule="evenodd" clip-rule="evenodd" d="M28.9636 24.8625V17.7467C28.9636 17.7467 29.3051 14.2293 25.7778 14.2293H10.8855C7.35737 14.2293 7.69926 17.7467 7.69926 17.7467V24.8625H28.9636Z" stroke-width="2"/>
   </g>
 </symbol>
 <symbol id="category-icon5" viewBox="0 0 32 26"><!-- stroke="#202022" -->
   <g>
     <path fill-rule="evenodd" clip-rule="evenodd" d="M1.69786 11.1382H30.4721L30.7882 11.6557L30.9981 12.2357V13.0186L30.6681 13.4189L30.3109 13.7488H1.85228L1.44878 13.5235L1.0751 13.0122V12.1686L1.24171 11.5606L1.69786 11.1382Z" stroke-width="2"/>
      <path d="M1.88148 13.8006C2.97281 18.4426 5.57391 22.5211 5.57391 22.5211H26.1553C26.1553 22.5211 28.7614 18.9185 30.2316 13.8106" stroke-width="2"/>
      <path d="M3.82549 10.9573V2.61649L4.22707 1.94974L4.73487 1.44546L5.10504 1.16052L6.38351 1.18719L6.75843 1.59843L7.07923 1.98193L7.43483 2.48084V3.66812L6.43762 3.66015L6.00017 4.10235L5.82543 4.61506V5.27853H9.25367L9.24089 4.49903L8.59754 3.66812H7.43483" stroke-width="2"/>
      <path d="M6.72149 24.7658L8.7347 22.7526" stroke-width="2"/>
      <path d="M25.4759 24.8549L23.5094 22.8884" stroke-width="2"/>
   </g>
 </symbol>
 <symbol id="category-icon6" viewBox="0 0 35 25"><!-- stroke="#202022"  fill="#202022"-->
   <g>
     <path d="M1.76979 6.03226H32.871V20.6774H1.76979V6.03226Z" stroke="#202022" stroke-width="2"/>
      <path d="M1.15469 2.70967V24" stroke-width="2" stroke-linecap="square"/>
      <path d="M33.4861 2.70967V24" stroke-width="2" stroke-linecap="square"/>
      <path d="M28.8673 5.6129V21.0968" stroke-width="2" stroke-linecap="square"/>
      <path d="M24.2485 5.6129V21.0968" stroke-width="2" stroke-linecap="square"/>
      <path d="M19.6298 5.6129V21.0968" stroke-width="2" stroke-linecap="square"/>
      <path d="M15.011 5.6129V21.0968" stroke-width="2" stroke-linecap="square"/>
      <path d="M10.3922 5.6129V21.0968" stroke-width="2" stroke-linecap="square"/>
      <path d="M5.77346 5.6129V21.0968" stroke-width="2" stroke-linecap="square"/>
      <path fill-rule="evenodd" clip-rule="evenodd" d="M1.15469 2.32258C1.79241 2.32258 2.30938 1.80265 2.30938 1.16129C2.30938 0.519927 1.79241 0 1.15469 0C0.516973 0 0 0.519927 0 1.16129C0 1.80265 0.516973 2.32258 1.15469 2.32258Z"/>
      <path fill-rule="evenodd" clip-rule="evenodd" d="M33.4861 2.32258C34.1238 2.32258 34.6408 1.80265 34.6408 1.16129C34.6408 0.519927 34.1238 0 33.4861 0C32.8484 0 32.3314 0.519927 32.3314 1.16129C32.3314 1.80265 32.8484 2.32258 33.4861 2.32258Z"/>
   </g>
 </symbol>
 <symbol id="category-icon7" viewBox="0 0 33 25"><!-- stroke="black" fill="black"-->
   <g>
     <path fill-rule="evenodd" clip-rule="evenodd" d="M1 20.2914H31.6642V0.999847H1V20.2914Z" stroke-width="2"/>
      <path d="M31.7319 10.5832H1.06804" stroke-width="2" stroke-linejoin="round"/>
      <path fill-rule="evenodd" clip-rule="evenodd" d="M9.0846 6.29296C9.0846 6.85856 8.62282 7.31776 8.05395 7.31776C7.48387 7.31776 7.02209 6.85856 7.02209 6.29296C7.02209 5.72696 7.48387 5.26776 8.05395 5.26776C8.62282 5.26776 9.0846 5.72696 9.0846 6.29296Z"/>
      <path fill-rule="evenodd" clip-rule="evenodd" d="M26.226 6.29296C26.226 6.85856 25.7647 7.31776 25.1954 7.31776C24.6253 7.31776 24.1639 6.85856 24.1639 6.29296C24.1639 5.72696 24.6253 5.26776 25.1954 5.26776C25.7647 5.26776 26.226 5.72696 26.226 6.29296Z"/>
      <path fill-rule="evenodd" clip-rule="evenodd" d="M9.0846 14.9527C9.0846 15.5179 8.62282 15.9767 8.05395 15.9767C7.48387 15.9767 7.02209 15.5179 7.02209 14.9527C7.02209 14.3867 7.48387 13.9279 8.05395 13.9279C8.62282 13.9279 9.0846 14.3867 9.0846 14.9527Z"/>
      <path fill-rule="evenodd" clip-rule="evenodd" d="M26.226 14.9527C26.226 15.5179 25.7647 15.9767 25.1954 15.9767C24.6253 15.9767 24.1639 15.5179 24.1639 14.9527C24.1639 14.3867 24.6253 13.9279 25.1954 13.9279C25.7647 13.9279 26.226 14.3867 26.226 14.9527Z"/>
      <path d="M8.05331 20.5621V24.7561" stroke-width="2"/>
      <path d="M25.1952 20.5621V24.7561" stroke-width="2"/>
   </g>
 </symbol>
 <symbol id="close-icon" viewBox="0 0 22 22">
   <g>
     <path d="M22 2.21571L19.7843 0L11 8.78429L2.21571 0L0 2.21571L8.78429 11L0 19.7843L2.21571 22L11 13.2157L19.7843 22L22 19.7843L13.2157 11L22 2.21571Z"/>
   </g>
 </symbol>
 <symbol id="filter-icon" viewBox="0 0 22 14">
   <g>
     <path fill-rule="evenodd" clip-rule="evenodd" d="M0 0V2.33333H22V0H0ZM3.66667 8.16667H18.3333V5.83333H3.66667V8.16667ZM13.4444 14H8.55556V11.6667H13.4444V14Z"/>
   </g>
 </symbol>
 <symbol id="footer-logo" viewBox="0 0 100 15">
   <g>
     <path d="M9.53782 14.3488L3.61345 6.23954V14.3488H0V0.336182H3.71849L9.39076 8.04627V0.336182H13.0252V14.3488H9.53782Z"/>
      <path fill-rule="evenodd" clip-rule="evenodd" d="M18.3403 13.5925L17.7311 14.3488H15.2101L16.7857 12.395C15.5462 11.1345 14.8319 9.39081 14.8319 7.353C14.8319 3.08829 18.0462 0.105098 22.3319 0.105098C23.6068 0.0894404 24.867 0.377493 26.0084 0.945434L26.5126 0.33619H29.0336L27.6261 2.07989C28.9916 3.3614 29.8109 5.18913 29.8109 7.353C29.8109 11.6177 26.6177 14.6009 22.3319 14.6009C20.8403 14.6009 19.4748 14.2438 18.3403 13.5925ZM19.0546 9.57989L23.8656 3.6135C23.3833 3.39848 22.8599 3.29096 22.3319 3.29838C20 3.29838 18.5084 5.06308 18.5084 7.353C18.497 8.1298 18.6851 8.89654 19.0546 9.57989ZM25.3992 4.853C25.8887 5.59406 26.1449 6.46489 26.1345 7.353C26.1345 9.6219 24.6429 11.4076 22.3319 11.4076C21.6825 11.4108 21.0417 11.2596 20.4622 10.9664L25.3992 4.853Z"/>
      <path fill-rule="evenodd" clip-rule="evenodd" d="M37.0998 9.6429L39.4527 14.3488H43.5925L40.7353 9.20173C42.0378 8.73954 43.5294 7.43702 43.5294 5.00005C43.5294 2.39501 41.7647 0.336182 38.6555 0.336182H31.6387V14.3488H35.2521V9.6429H37.0998ZM38.1082 3.48744C39.0536 3.48744 39.8519 4.03366 39.8519 4.97904H39.853C39.853 5.96643 39.0536 6.49164 38.1093 6.49164H35.2521V3.48744H38.1082Z"/>
      <path fill-rule="evenodd" clip-rule="evenodd" d="M45.5252 0.336182V14.3488H51.4286C55.8193 14.3488 58.9916 11.6807 58.9916 7.33198C58.9916 2.98324 55.8193 0.336182 51.4076 0.336182H45.5252ZM51.4286 3.48744C53.9916 3.48744 55.2941 5.16811 55.2941 7.33198H55.2931C55.2931 9.41181 53.8645 11.1975 51.4076 11.1975H49.1387V3.48744H51.4286Z"/>
      <path fill-rule="evenodd" clip-rule="evenodd" d="M69.6208 12.332L70.3141 14.3488H74.4107L69.1176 0.336182H64.5788L59.3057 14.3488H63.4023L64.0956 12.332H69.6208ZM65.062 9.18072L66.8477 3.90761L68.6334 9.18072H65.062Z"/>
      <path fill-rule="evenodd" clip-rule="evenodd" d="M80.9023 9.6429L83.2553 14.3488H87.395L84.5378 9.20173C85.8403 8.73954 87.3319 7.43702 87.3319 5.00005C87.3319 2.39501 85.5672 0.336182 82.458 0.336182H75.4401V14.3488H79.0536V9.6429H80.9023ZM81.9107 3.48744C82.8561 3.48744 83.6544 4.03366 83.6544 4.97904C83.6544 5.96643 82.8561 6.49164 81.9107 6.49164H79.0536V3.48744H81.9107Z"/>
      <path d="M92.457 14.3488V3.48744H88.5284V0.336182H99.978V3.48744H96.0704V14.3488H92.457Z"/>
   </g>
 </symbol>
 <symbol id="icon-next" viewBox="0 0 10 19">
   <g>
     <path opacity="0.5" d="M0.76087 0L10 9.23913L9.23913 10L0.76087 18.4783L0 17.7174L8.47826 9.23913L0 0.76087L0.76087 0Z"/>
   </g>
 </symbol>
 <symbol id="icon-prev" viewBox="0 0 10 19">
   <g>
     <path opacity="0.5" d="M9.23913 0L0 9.23913L0.76087 10L9.23913 18.4783L10 17.7174L1.52174 9.23913L10 0.76087L9.23913 0Z"/>
   </g>
 </symbol>
 <symbol id="logo" viewBox="0 0 100 67">
   <mask id="mask0" mask-type="alpha" maskUnits="userSpaceOnUse" x="0" y="0" width="100" height="67">
  <path fill-rule="evenodd" clip-rule="evenodd" d="M49.9633 66.9094H99.9266V0H0V33.4547V66.9094H49.9633Z" fill="white"/>
  </mask>
  <g mask="url(#mask0)">
  <path fill-rule="evenodd" clip-rule="evenodd" d="M0.863309 48.8482H9.13669V16.4745H0.863309V48.8482ZM5.17986 0C7.55396 0 9.92806 1.87014 9.92806 4.82014C9.92806 8.12914 7.55396 9.99964 5.17986 9.99964C2.3741 9.99964 0 8.12914 0 4.82014C0 1.87014 2.3741 0 5.17986 0Z" fill="#202022"/>
  <path fill-rule="evenodd" clip-rule="evenodd" d="M12.3735 16.4745H20.6469V19.6399C22.1577 17.5536 24.1717 15.8989 28.0566 15.8989C30.7185 15.8989 32.0135 16.3306 33.0926 17.1219L30.143 24.8914C28.5606 23.9565 27.6969 23.6684 25.9703 23.6684C23.0926 23.6684 21.5822 25.2511 20.6469 27.1219V48.8482H12.3735V16.4745Z" fill="#202022"/>
  <path fill-rule="evenodd" clip-rule="evenodd" d="M31.869 48.8482H40.1424V16.4745H31.869V48.8482ZM36.1856 0C38.5597 0 40.9338 1.87014 40.9338 4.82014C40.9338 8.12914 38.5597 9.99964 36.1856 9.99964C33.3798 9.99964 31.0057 8.12914 31.0057 4.82014C31.0057 1.87014 33.3798 0 36.1856 0Z" fill="#202022"/>
  <path fill-rule="evenodd" clip-rule="evenodd" d="M71.7963 44.0279C69.0625 47.6966 64.1704 49.6394 58.9186 49.6394C48.4153 49.6394 41.365 42.8772 41.365 32.661C41.365 23.2369 48.2715 15.683 58.1272 15.683C63.451 15.683 68.1272 17.0499 71.1488 20.0714L67.2639 26.6186C64.8179 24.2441 62.156 23.4527 59.2064 23.4527C54.6024 23.4527 50.2136 26.9783 50.2136 32.661C50.2136 38.4164 54.674 41.9416 59.5661 41.9416C63.0912 41.9416 65.8251 40.2869 67.9114 37.9848L71.7963 44.0279Z" fill="#202022"/>
  <path fill-rule="evenodd" clip-rule="evenodd" d="M75.7544 29.6394H91.6533C91.7253 25.683 88.9914 22.5891 84.2436 22.5891C79.2796 22.5891 76.6177 25.3952 75.7544 29.6394ZM97.2648 45.6107C94.0274 48.3445 89.4231 49.6394 84.8907 49.6394C74.4594 49.6394 67.481 42.8772 67.481 32.661C67.481 23.2369 73.9558 15.683 84.6033 15.683C92.9483 15.683 99.9267 21.6542 99.9267 30.7186C99.9267 32.7333 99.7828 33.956 99.4231 35.179H76.0422C76.7616 40.0711 80.6465 42.733 85.754 42.733C89.7109 42.733 93.0202 41.2941 94.8907 39.7833L97.2648 45.6107Z" fill="#202022"/>
  <path fill-rule="evenodd" clip-rule="evenodd" d="M0.738403 56.6951H1.88948V61.0397C2.3643 60.5505 3.18409 60.1764 4.00423 60.1764C5.68732 60.1764 6.69416 61.0253 6.69416 63.0538V66.7653H5.54344V63.212C5.54344 61.9174 4.92473 61.2556 3.73085 61.2556C3.01142 61.2556 2.292 61.6153 1.88948 62.0753V66.7653H0.738403V56.6951Z" fill="#202022"/>
  <path fill-rule="evenodd" clip-rule="evenodd" d="M12.9669 65.8302C14.2615 65.8302 15.1967 64.9093 15.1967 63.5288C15.1967 62.1762 14.2615 61.2266 12.9669 61.2266C11.7007 61.2266 10.737 62.1619 10.737 63.5288C10.737 64.8806 11.6719 65.8302 12.9669 65.8302ZM12.9669 60.1478C15.0384 60.1478 16.4194 61.5863 16.4194 63.5288C16.4194 65.4705 15.0384 66.9093 12.9669 66.9093C10.8953 66.9093 9.51398 65.4705 9.51398 63.5288C9.51398 61.5863 10.8953 60.1478 12.9669 60.1478Z" fill="#202022"/>
  <path fill-rule="evenodd" clip-rule="evenodd" d="M28.9425 66.7653H27.7914V62.838C27.7914 61.7732 27.3313 61.2556 26.3961 61.2556C25.6191 61.2556 25.0007 61.6585 24.6986 62.1905C24.713 62.306 24.713 62.5071 24.713 62.6509V66.7653H23.5619V62.5934C23.5619 61.802 23.0874 61.2556 22.181 61.2556C21.4331 61.2556 20.8144 61.6585 20.4835 62.133V66.7653H19.3324V60.2916H20.4835V61.1114C20.9583 60.5506 21.7925 60.1765 22.627 60.1765C23.6338 60.1765 24.3389 60.6225 24.5835 61.2988C25.0439 60.6369 25.8781 60.1765 26.8565 60.1765C28.0504 60.1765 28.9425 60.752 28.9425 62.5214V66.7653Z" fill="#202022"/>
  <path fill-rule="evenodd" clip-rule="evenodd" d="M33.0257 62.9529H36.953C36.8955 61.8885 36.2048 61.2266 35.0829 61.2266C33.903 61.2266 33.1552 61.9604 33.0257 62.9529ZM37.7012 66.0604C37.0681 66.6356 36.1333 66.9093 35.2699 66.9093C33.1696 66.9093 31.803 65.5712 31.803 63.5288C31.803 61.6439 33.0113 60.1478 35.1404 60.1478C36.8092 60.1478 38.1473 61.3273 38.1473 63.1111C38.1473 63.4277 38.1185 63.6867 38.0753 63.8881H33.0976C33.1984 65.1108 34.0901 65.8302 35.3563 65.8302C36.1904 65.8302 36.9243 65.5424 37.3415 65.1539L37.7012 66.0604Z" fill="#202022"/>
  </g>
 </symbol>
 <symbol id="price-sort" viewBox="0 0 19 16">
   <g>
     <path fill-rule="evenodd" clip-rule="evenodd" d="M19 0H14V16H19V0ZM12 5H7V16H12V5ZM0 10H5V16H0V10Z"/>
   </g>
 </symbol>
 <symbol id="search-icon" viewBox="0 0 18 18">
   <g>
     <path fill-rule="evenodd" clip-rule="evenodd" d="M13 6.5C13 2.91 10.09 0 6.5 0C2.91 0 0 2.91 0 6.5C0 10.09 2.91 13 6.5 13C8.11 13 9.59 12.41 10.73 11.44L11 11.71V12.5L16 17.5L17.5 16L12.5 11H11.71L11.44 10.73C12.41 9.59 13 8.11 13 6.5ZM2 6.5C2 4 4 2 6.5 2C9 2 11 4 11 6.5C11 9 9 11 6.5 11C4 11 2 9 2 6.5Z"/>
   </g>
 </symbol>
</svg>