<svg xmlns="http://www.w3.org/2000/svg" width="32" height="32"><path fill="#0bd" d="M12.091 17.909a3.416 3.416 0 0 0-2.949.96c-1.051 1.051-2.686 3.703-3.691 6.149-.526 1.291-.914 3.303-.914 3.303s2.023-.389 3.314-.914c2.446-1.006 5.086-2.629 6.137-3.691a3.416 3.416 0 0 0 1.003-2.423c0-.44-.083-.86-.234-1.246l.008.023-1.989 2a1.71 1.71 0 0 1-2.422 0 1.71 1.71 0 0 1 0-2.422zm5.143-11.955a3.35 3.35 0 0 0-.116.886c0 .949.385 1.807 1.008 2.428 1.051 1.051 3.703 2.686 6.149 3.68 1.291.526 3.314.891 3.314.891s-.4-1.989-.926-3.269c-1.006-2.457-2.629-5.097-3.691-6.149a3.416 3.416 0 0 0-2.428-1.008c-.315 0-.62.043-.91.122l.024-.006 1.337 1.337a1.71 1.71 0 0 1 0 2.422 1.71 1.71 0 0 1-2.422 0zM6.72 16.446a6.857 6.857 0 0 1 9.69 9.704l.001-.001c-2.674 2.674-11.863 7.52-14.549 4.846-2.674-2.674 2.171-11.874 4.857-14.549zm8.983-4.755a6.857 6.857 0 1 1 9.702-9.692l.001.001c2.674 2.674 7.52 11.863 4.846 14.549-2.674 2.674-11.874-2.171-14.549-4.857zm-13.2.229c-1.063-1.074.869-4.743 1.943-5.806a2.743 2.743 0 1 1 3.867 3.86l-.004.004c-1.074 1.074-4.731 3.006-5.806 1.943zm25.52 16.114c-1.074 1.063-4.731-.869-5.806-1.943a2.743 2.743 0 0 1 3.878-3.86l-.003-.003c1.063 1.063 2.994 4.731 1.931 5.806z"/></svg>