<svg xmlns="http://www.w3.org/2000/svg" width="32" height="32"><path fill="#0bd" d="M16 1.387s.107-.107.939-.427c1.739-.704 3.659-1.035 5.653-.821 4.834.54 8.569 4.57 8.64 9.486v.007c0 4.053-.96 9.387-2.475 13.909-1.76 5.248-3.787 8.491-6.336 8.491-2.315 0-4.267-2.261-6.421-7.232-2.219 5.109-4.096 7.243-6.421 7.2-2.325-.032-4.555-3.275-6.293-8.501C1.843 19.375.944 14.616.802 9.668L.8 9.6C.8 4.608 4.747.693 9.44.139a13.01 13.01 0 0 1 6.649 1.272l-.078-.034zm4.544 4.106A1.601 1.601 0 0 1 17.88 7.27l-.004-.006c-.373-.555-3.221-4.395-8.117-4.021-3.238.35-5.739 3.058-5.76 6.355V9.6c0 3.691.917 8.683 2.315 12.885 1.28 3.808 2.837 6.304 3.307 6.315.48 0 3.317-4.267 4.608-8.533.597-1.941 2.944-1.856 3.552.032 1.547 4.843 4.139 8.533 4.64 8.533.053 0 1.707-1.472 3.307-6.304 1.376-4.213 2.315-9.216 2.315-12.907a6.574 6.574 0 0 0-5.782-6.376l-.031-.003a7.904 7.904 0 0 0-3.299.39l.056-.017a11.522 11.522 0 0 1 1.557 1.877zM10.4 4.8a1.6 1.6 0 1 1 0 3.2c-.885 0-1.6.715-1.6 1.6a1.6 1.6 0 1 1-3.2 0 4.8 4.8 0 0 1 4.8-4.8z"/></svg>