<svg xmlns="http://www.w3.org/2000/svg" width="20" height="21" viewBox="0 0 20 21"><g><g><path fill="#fff" d="M19.48 12.608c0 .647-.166 1.253-.496 1.817.027.177.04.357.04.542 0 .85-.261 1.599-.782 2.247.009 1.17-.36 2.093-1.107 2.77C16.39 20.66 15.404 21 14.18 21H12.5a10.82 10.82 0 0 1-2.468-.284 30.613 30.613 0 0 1-2.819-.827c-1.007-.336-1.605-.504-1.797-.504h-3.75c-.46 0-.852-.158-1.178-.474A1.533 1.533 0 0 1 0 17.77V9.692c0-.445.163-.826.488-1.142a1.634 1.634 0 0 1 1.179-.473h3.567c.313-.202.907-.854 1.784-1.956.504-.631.968-1.17 1.394-1.616.208-.21.362-.57.462-1.078.1-.51.232-1.042.397-1.597.165-.555.434-1.01.807-1.363A1.68 1.68 0 0 1 11.25 0c.73 0 1.384.137 1.966.41a2.82 2.82 0 0 1 1.329 1.281c.303.58.455 1.363.455 2.347 0 .783-.208 1.59-.625 2.423h2.292c.903 0 1.684.32 2.344.96.66.64.989 1.392.989 2.259 0 .749-.212 1.434-.638 2.057.078.277.117.568.117.87zM3.333 16.96a.765.765 0 0 0-.248-.567.814.814 0 0 0-.586-.24c-.226 0-.42.08-.586.24a.764.764 0 0 0-.247.567c0 .22.082.409.247.568.165.16.36.24.586.24.226 0 .421-.08.586-.24a.765.765 0 0 0 .248-.568zm15-7.268c0-.43-.17-.806-.508-1.13-.339-.324-.725-.486-1.16-.486h-4.582c0-.488.208-1.159.624-2.013.417-.854.625-1.529.625-2.025 0-.825-.138-1.434-.416-1.83-.278-.395-.833-.593-1.667-.593-.226.219-.39.576-.495 1.073a22.387 22.387 0 0 1-.397 1.584c-.16.559-.419 1.02-.775 1.381a22.106 22.106 0 0 0-1.302 1.527 26.381 26.381 0 0 1-.86 1.054 7.235 7.235 0 0 1-.52.555c-.156.148-.323.297-.501.448a2.21 2.21 0 0 1-.521.341 1.15 1.15 0 0 1-.462.114H5v8.076h.417c.113 0 .25.012.41.038.16.025.304.052.43.082.126.03.29.076.494.139a18.998 18.998 0 0 1 .918.303c.209.07.335.115.378.132 1.832.614 3.316.921 4.453.921h1.576c1.666 0 2.5-.702 2.5-2.107a4.2 4.2 0 0 0-.065-.707c.26-.135.466-.355.618-.662.152-.307.228-.616.228-.928 0-.31-.078-.601-.234-.87.46-.42.69-.921.69-1.502 0-.21-.043-.444-.13-.7a1.692 1.692 0 0 0-.326-.6c.278-.008.51-.206.697-.593.186-.387.28-.728.28-1.022z"/></g></g></svg>