<svg display="none" xmlns="http://www.w3.org/2000/svg">
    <symbol id="mail-icon" viewBox="0 0 12 10">
        <g>
            <path d="M10.928 10C11.1978 10 11.4315 9.90554 11.6302 9.71902L8.23052 6.11306C8.14896 6.17501 8.0699 6.23525 7.99522 6.29254C7.7408 6.49135 7.53432 6.64649 7.37576 6.75766C7.21723 6.86908 7.0063 6.98265 6.743 7.0986C6.47952 7.21469 6.23406 7.27255 6.00636 7.27255H5.99302C5.7653 7.27255 5.51984 7.21471 5.25638 7.0986C4.99293 6.98265 4.782 6.86908 4.62362 6.75766C4.46508 6.64649 4.25871 6.49137 4.00416 6.29254C3.93323 6.23738 3.85456 6.17686 3.76951 6.11209L0.36922 9.71902C0.567884 9.90554 0.801754 10 1.07146 10H10.928Z"/>
			<path d="M0.676381 3.84235C0.421989 3.66247 0.196398 3.45644 0 3.22438V8.71055L2.99643 5.5324C2.39697 5.08851 1.6246 4.52581 0.676381 3.84235Z"/>
			<path d="M11.3298 3.84235C10.4178 4.49711 9.64257 5.06078 9.00418 5.53367L11.9994 8.71069V3.22438C11.8074 3.45178 11.5842 3.65766 11.3298 3.84235Z"/>
			<path d="M10.9285 0H1.07199C0.728122 0 0.463753 0.12316 0.278553 0.369226C0.0931997 0.615407 0.000675873 0.923284 0.000675873 1.29251C0.000675873 1.59075 0.12346 1.9139 0.36892 2.26205C0.614379 2.61007 0.875568 2.88342 1.15236 3.08226C1.30409 3.19597 1.76168 3.53337 2.52512 4.09437C2.93724 4.39727 3.29563 4.66129 3.60362 4.88913C3.86613 5.08313 4.09253 5.25114 4.27945 5.39057C4.30091 5.40654 4.33466 5.43214 4.37945 5.46611C4.4277 5.50287 4.48877 5.54952 4.56411 5.60722C4.70918 5.71851 4.82969 5.80846 4.92568 5.87718C5.02154 5.94592 5.13768 6.02271 5.27393 6.10797C5.41007 6.19312 5.53847 6.25715 5.65899 6.29974C5.77953 6.3423 5.89112 6.36365 5.99377 6.36365H6.0071C6.10974 6.36365 6.22134 6.3423 6.34191 6.29974C6.4624 6.25715 6.5907 6.19326 6.72695 6.10797C6.86306 6.02271 6.97905 5.94576 7.07521 5.87718C7.1712 5.80846 7.29172 5.71853 7.43681 5.60722C7.51199 5.54952 7.57306 5.50285 7.62131 5.46622C7.66613 5.43212 7.69985 5.40668 7.72144 5.39057C7.86706 5.2831 8.09398 5.11578 8.39906 4.89109C8.95421 4.48198 9.77178 3.87984 10.8552 3.08226C11.1811 2.84086 11.4533 2.54955 11.6721 2.20875C11.8905 1.86794 12 1.51045 12 1.1364C12 0.823878 11.8938 0.556461 11.682 0.333734C11.4699 0.111283 11.2187 0 10.9285 0Z"/>
        </g>
    </symbol>
    <symbol id="map-marker-icon" viewBox="0 0 11 15">
    	<g>
    		<path d="M5.49977 0C2.46734 0 0 2.47738 0 5.52245C0 6.31673 0.161911 7.07508 0.480993 7.77663C1.85609 10.7979 4.49253 13.9877 5.26799 14.8933C5.32609 14.961 5.41079 15 5.49992 15C5.58906 15 5.67376 14.961 5.73186 14.8933C6.50701 13.9879 9.14345 10.7982 10.519 7.77663C10.8382 7.07508 11 6.31673 11 5.52245C10.9997 2.47738 8.53235 0 5.49977 0ZM5.49977 8.39083C3.92454 8.39083 2.64286 7.10394 2.64286 5.5223C2.64286 3.94051 3.92454 2.65361 5.49977 2.65361C7.075 2.65361 8.35668 3.94051 8.35668 5.5223C8.35683 7.10394 7.07515 8.39083 5.49977 8.39083Z"/>
    	</g>
    </symbol>
    <symbol id="phone-icon" viewBox="0 0 15 23">
    	<g>
    		<rect x="0.5" y="0.786682" width="14" height="20.8653" rx="1.5"/>
            <rect x="6.23767" y="2.42565" width="2.52467" height="0.475333" stroke-width="0.475333"/>
            <path d="M8.5 17.874C8.5 18.3619 8.07642 18.8 7.5 18.8C6.92358 18.8 6.5 18.3619 6.5 17.874C6.5 17.3861 6.92358 16.948 7.5 16.948C8.07642 16.948 8.5 17.3861 8.5 17.874Z"/>
    	</g>
    </symbol>
    <symbol id="photo-icon" viewBox="0 0 23 18">
    	<g>
    		<path d="M22.6034 0H0.396552C0.177655 0 0 0.174913 0 0.391304V17.6087C0 17.8251 0.177655 18 0.396552 18H22.6034C22.8223 18 23 17.8251 23 17.6087V0.391304C23 0.174913 22.8223 0 22.6034 0ZM22.2069 17.2174H0.793103V0.782609H22.2069V17.2174Z"/>
			<path d="M6.34483 8.6627C7.56264 8.6627 8.55322 7.68522 8.55322 6.48391C8.55322 5.28183 7.56264 4.30435 6.34483 4.30435C5.12702 4.30435 4.13643 5.28183 4.13643 6.48352C4.13643 7.68522 5.12702 8.6627 6.34483 8.6627ZM6.34483 5.08696C7.12524 5.08696 7.76012 5.71383 7.76012 6.48352C7.76012 7.25322 7.12524 7.88009 6.34483 7.88009C5.56441 7.88009 4.92953 7.25361 4.92953 6.48391C4.92953 5.71422 5.56441 5.08696 6.34483 5.08696Z"/>
			<path d="M2.77586 15.6522C2.86866 15.6522 2.96224 15.6201 3.03759 15.5547L9.50653 9.93483L13.5918 13.9657C13.7469 14.1187 13.9975 14.1187 14.1525 13.9657C14.3076 13.8127 14.3076 13.5653 14.1525 13.4123L12.2463 11.5313L15.8871 7.59717L20.3526 11.6366C20.514 11.7826 20.765 11.7716 20.9129 11.6123C21.0609 11.4531 21.0502 11.2054 20.8884 11.0594L16.1297 6.75509C16.052 6.68504 15.9485 6.65022 15.8442 6.65257C15.7391 6.65726 15.64 6.70304 15.569 6.77974L11.6852 10.9773L9.80435 9.1213C9.65604 8.97535 9.4189 8.96791 9.26186 9.10409L2.51374 14.967C2.34917 15.1098 2.33331 15.3571 2.47805 15.5195C2.55657 15.6076 2.66602 15.6522 2.77586 15.6522Z"/>
    	</g>
    </symbol>
    <symbol id="play-icon" viewBox="0 0 19 24">
    	<g>
    		<path fill-rule="evenodd" clip-rule="evenodd" d="M17.8769 10.4034C19.1034 11.1905 19.1034 12.9829 17.8769 13.7699L3.58014 22.9442C2.24903 23.7983 0.5 22.8425 0.5 21.2609L0.5 2.91245C0.5 1.33085 2.24903 0.375041 3.58014 1.22921L17.8769 10.4034Z"/>
    	</g>
    </symbol>
    <symbol id="sell-icon" viewBox="0 0 37 37">
    	<g>
    		<path fill-rule="evenodd" clip-rule="evenodd" d="M34 20.6246C34 20.6213 33.9996 20.6181 33.9995 20.6148L33.9988 15.5503C33.9988 14.4533 33.1064 13.5609 32.0095 13.5609H30.978L30.7144 11.4041H32.2717C32.5713 11.4041 32.8143 11.1612 32.8143 10.8615V7.32707C32.8143 7.02743 32.5713 6.78451 32.2717 6.78451C31.9721 6.78451 31.7292 7.02743 31.7292 7.32707V10.319H30.5818L29.5771 3.36841C29.4706 2.49714 28.6996 1.81461 27.8217 1.81461H26.1941V0.910351C26.1941 0.610717 25.9512 0.367798 25.6515 0.367798C25.3519 0.367798 25.109 0.610717 25.109 0.910351V1.81461H8.66693V0.910351C8.66693 0.610717 8.42401 0.367798 8.12438 0.367798C7.82475 0.367798 7.58183 0.610717 7.58183 0.910351V1.81461H5.95417C5.07639 1.81461 4.30538 2.49714 4.1989 3.36848L3.41707 10.3191H2.30064V7.32714C2.30064 7.0275 2.05772 6.78458 1.75809 6.78458C1.45846 6.78458 1.21554 7.0275 1.21554 7.32714V10.8616C1.21554 11.1613 1.45846 11.4042 1.75809 11.4042H3.28447L3.02094 13.561H1.98936C0.892391 13.561 0 14.4534 0 15.5504V24.5633C0 24.863 0.242919 25.1059 0.542553 25.1059L0.914894 25V32.2583C0.914894 33.1559 1.64503 33.886 2.54255 33.886L6.45745 33.7583C7.35497 33.7583 8.08511 33.0282 8.08511 32.1307V26.5C8.27985 26.2664 7.84219 25.9574 7.54255 25.9574C7.24292 25.9574 7 26.2004 7 26.5V32.1307C7 32.4298 6.75665 32.6732 6.45745 32.6732L2.54255 32.8009C2.24335 32.8009 2 32.5575 2 32.2583V25H32V32.2583C32 32.5575 31.7566 32.8009 31.4574 32.8009L27.6277 33.1732C27.3285 33.1732 27.0851 32.9298 27.0851 32.6307V27C27.0851 26.7004 26.8422 26.4574 26.5426 26.4574C26.2429 26.4574 26 26.7004 26 27V32.6307C26 33.5282 26.7301 34.2583 27.6277 34.2583L31.4574 33.886C32.355 33.886 33.0851 33.1559 33.0851 32.2583V25L33.4574 25.1059C33.6013 25.1059 33.7394 25.0487 33.8411 24.947C33.9429 24.8452 34 24.7072 34 24.5633L33.9995 20.6344L33.9997 20.63L34 20.6246ZM4.34737 14.646C4.8994 14.646 5.51531 15.1121 5.66527 15.6433L6.50094 18.6018C6.5824 18.8902 6.88247 19.0581 7.17053 18.9765C7.45888 18.895 7.62663 18.5952 7.54518 18.3069L6.70957 15.3484C6.42651 14.3461 5.38893 13.561 4.34737 13.561H4.11414L5.27597 3.50007C5.31511 3.18025 5.63196 2.89964 5.95417 2.89964H27.8218C28.144 2.89964 28.4609 3.18018 28.5 3.49999L29.8848 13.5609H29.6515C28.6101 13.5609 27.5725 14.346 27.2893 15.3483L26.4537 18.3068C26.3724 18.5952 26.54 18.895 26.8284 18.9764C27.1167 19.0578 27.4165 18.8902 27.498 18.6018L28.3336 15.6432C28.4836 15.112 29.0995 14.646 29.6515 14.646H30.4955H32.0095C32.5081 14.646 32.9137 15.0516 32.9137 15.5503L32.9143 20.082H1.08511V15.5503C1.08511 15.0517 1.49072 14.646 1.98936 14.646H4.34737ZM1.08511 24.0208H32.9148L32.9145 21.1672H1.08511V24.0208Z"/>
            <path d="M24.0662 26.9144H9.93318C9.63354 26.9144 9.39062 27.1573 9.39062 27.457C9.39062 27.7566 9.63354 27.9995 9.93318 27.9995H24.0662C24.3658 27.9995 24.6087 27.7566 24.6087 27.457C24.6087 27.1573 24.3658 26.9144 24.0662 26.9144Z"/>
            <path fill-rule="evenodd" clip-rule="evenodd" d="M8.32031 15.7431C8.32031 14.4243 9.39327 13.3514 10.712 13.3514C12.0309 13.3514 13.1038 14.4243 13.1038 15.7431C13.1038 17.0618 12.0308 18.1348 10.712 18.1348C9.39327 18.1348 8.32031 17.0618 8.32031 15.7431ZM9.40542 15.7431C9.40542 16.4635 9.99159 17.0497 10.712 17.0497C11.4325 17.0497 12.0186 16.4635 12.0186 15.7431C12.0186 15.0226 11.4325 14.4365 10.712 14.4365C9.99159 14.4365 9.40542 15.0226 9.40542 15.7431Z"/>
            <path fill-rule="evenodd" clip-rule="evenodd" d="M20.8945 15.7431C20.8945 14.4243 21.9675 13.3514 23.2863 13.3514C24.605 13.3514 25.678 14.4243 25.678 15.7431C25.678 17.0618 24.605 18.1348 23.2863 18.1348C21.9675 18.1348 20.8945 17.0618 20.8945 15.7431ZM21.9796 15.7431C21.9796 16.4635 22.5658 17.0497 23.2863 17.0497C24.0067 17.0497 24.5929 16.4635 24.5929 15.7431C24.5929 15.0226 24.0067 14.4365 23.2863 14.4365C22.5658 14.4365 21.9796 15.0226 21.9796 15.7431Z"/>
            <path d="M14.7808 13.3514C14.4812 13.3514 14.2383 13.5943 14.2383 13.8939V17.5922C14.2383 17.8919 14.4812 18.1348 14.7808 18.1348C15.0805 18.1348 15.3234 17.8919 15.3234 17.5922V13.8939C15.3234 13.5943 15.0805 13.3514 14.7808 13.3514Z"/>
            <path d="M16.9996 13.3514C16.7 13.3514 16.457 13.5943 16.457 13.8939V17.5922C16.457 17.8919 16.7 18.1348 16.9996 18.1348C17.2992 18.1348 17.5421 17.8919 17.5421 17.5922V13.8939C17.5421 13.5943 17.2992 13.3514 16.9996 13.3514Z"/>
            <path d="M19.2183 13.3514C18.9187 13.3514 18.6758 13.5943 18.6758 13.8939V17.5922C18.6758 17.8919 18.9187 18.1348 19.2183 18.1348C19.518 18.1348 19.7609 17.8919 19.7609 17.5922V13.8939C19.7609 13.5943 19.518 13.3514 19.2183 13.3514Z"/>
            <path d="M28.4722 10.5426C28.4722 10.2429 28.2293 10 27.9297 10H6.06599C5.76636 10 5.52344 10.2429 5.52344 10.5426C5.52344 10.8422 5.76636 11.0851 6.06599 11.0851H27.9297C28.2293 11.0851 28.4722 10.8422 28.4722 10.5426Z"/>
    	</g>
    </symbol>
    <symbol id="sell-icon2" viewBox="0 0 37 37">
    	<g>
    		<path fill-rule="evenodd" clip-rule="evenodd" d="M16.7197 7.05702H5.80028C5.64185 7.05702 5.48991 6.99406 5.37791 6.882C5.26591 6.76994 5.20303 6.61796 5.20313 6.45952V3.52834C5.20313 3.19854 5.47048 2.93118 5.80028 2.93118H16.7197C17.0495 2.93118 17.3169 3.19854 17.3169 3.52834V6.45987C17.3169 6.78967 17.0495 7.05702 16.7197 7.05702ZM16.1226 4.12584H6.39744V5.86271H16.1226V4.12584Z"/>
            <path fill-rule="evenodd" clip-rule="evenodd" d="M9.28583 14.154H5.71825C5.38845 14.154 5.12109 13.8866 5.12109 13.5568V9.98923C5.12109 9.65943 5.38845 9.39207 5.71825 9.39207H9.28583C9.61563 9.39207 9.88299 9.65943 9.88299 9.98923V13.5568C9.88299 13.8866 9.61563 14.154 9.28583 14.154ZM8.68834 10.5867H6.31541L6.31575 12.9597H8.68834V10.5867Z"/>
            <path fill-rule="evenodd" clip-rule="evenodd" d="M13.1518 9.39207H16.7191C17.0489 9.39207 17.3162 9.65943 17.3162 9.98923V13.5568C17.3162 13.8866 17.0489 14.154 16.7191 14.154H13.1518C12.822 14.154 12.5547 13.8866 12.5547 13.5568V9.98923C12.5547 9.65943 12.822 9.39207 13.1518 9.39207ZM13.749 12.9593H16.1219V10.5864H13.749V12.9593Z"/>
            <path fill-rule="evenodd" clip-rule="evenodd" d="M9.88299 20.0986C9.88299 20.4284 9.61564 20.6957 9.28584 20.6957H5.71825C5.55958 20.6957 5.40743 20.6326 5.29539 20.5202C5.18336 20.4079 5.12064 20.2555 5.1211 20.0969V16.5296C5.1211 16.1998 5.38845 15.9325 5.71825 15.9325H9.28584C9.61564 15.9325 9.88299 16.1998 9.88299 16.5296V20.0986ZM8.69004 17.1285H6.31712L6.31575 19.5014H8.69004V17.1285Z"/>
            <path fill-rule="evenodd" clip-rule="evenodd" d="M13.1518 15.9325H16.7191C17.0489 15.9325 17.3162 16.1998 17.3162 16.5296V20.0969C17.3162 20.4267 17.0489 20.694 16.7191 20.694H13.1518C12.822 20.694 12.5547 20.4267 12.5547 20.0969V16.5296C12.5547 16.1998 12.822 15.9325 13.1518 15.9325ZM13.749 19.5014H16.1219V17.1268H13.749V19.5014Z"/>
            <path fill-rule="evenodd" clip-rule="evenodd" d="M29.0016 35L35.5016 34.8057C35.8314 34.8057 36.0988 35.073 36.0988 35.4028C36.0988 35.7326 35.8314 36 35.5016 36L1.25731 36.1943C0.927512 36.1943 0.660156 35.927 0.660156 35.5972C0.660156 35.2674 0.927512 35 1.25731 35H2.90444L2.80728 0.791469C2.80728 0.633093 2.8702 0.481204 2.98219 0.369216C3.09418 0.257227 3.24606 0.194313 3.40444 0.194313L19.6774 0C20.0072 0 20.2745 0.267356 20.2745 0.597156V23.0332H26.4188C26.7486 23.0332 27.0159 23.3005 27.0159 23.6303V25.9763H29.7895C30.1193 25.9763 30.3866 26.2437 30.3866 26.5735V28.9194L32.5016 28.8626C32.8314 28.8626 33.0988 29.1299 33.0988 29.4597V32.4028C33.0988 32.7326 32.8314 33 32.5016 33H29.1959L29.0016 35ZM27.0159 31.8626L31.9044 31.8057V30.0569L27.0159 30.1137V31.8626ZM20.2745 31.8626V30.1137H25.8216V31.8626H20.2745ZM20.2745 28.9194L23.0016 28.7488V27L20.2745 27.1706V28.9194ZM20.2745 33.0569L22.0016 33L21.8073 35L20.3717 34.8057L20.2745 33.0569ZM24.0016 28.7488L29.1923 28.9194V27.1706L24.0016 27V28.7488ZM25.8216 24.2275V25.9763H20.2745V24.2275H25.8216ZM19.0802 1.19431L4.0016 1L4.09875 35L7.06364 34.8057L6.96649 24.5957C6.96649 24.2659 7.23384 23.9985 7.56364 23.9985L15.3073 24.1928C15.6371 24.1928 15.9044 24.4602 15.9044 24.79L16.0016 35L19.1774 34.8057L19.0802 1.19431ZM14.8073 35L8.25796 34.8057L8.1608 25.1928L14.7101 25.3871L14.8073 35ZM23.1959 33L23.0016 35H27.8073L28.0016 33H23.1959Z"/>
    	</g>
    </symbol>
    <symbol id="slide-prev-icon" viewBox="0 0 14 12">
    	<g>
    		<path d="M0.286464 6.62105L5.39659 11.6625C5.76176 12.0224 6.35399 12.0224 6.71916 11.6625C7.0844 11.3026 7.0844 10.719 6.71916 10.3591L3.20549 6.89099L13.0648 6.89099C13.5813 6.89099 14 6.4783 14 5.96933C14 5.46042 13.5813 5.04767 13.0648 5.04767L3.20549 5.04767L6.71901 1.57958C7.08425 1.21961 7.08425 0.636092 6.71901 0.276129C6.53646 0.0962944 6.29706 0.00619316 6.05773 0.00619316C5.8184 0.00619316 5.57906 0.0962944 5.39644 0.276129L0.286464 5.3176C-0.0787792 5.67757 -0.0787792 6.26109 0.286464 6.62105Z"/>
    	</g>
    </symbol>
    <symbol id="slide-next-icon" viewBox="0 0 14 12">
    	<g>
    		<path d="M13.7135 5.37894L8.60341 0.337468C8.23824 -0.0224217 7.64601 -0.0224217 7.28084 0.337468C6.9156 0.697431 6.9156 1.28095 7.28084 1.64091L10.7945 5.10901L0.935177 5.10901C0.418735 5.10901 0 5.52169 0 6.03067C0 6.53957 0.418735 6.95232 0.935177 6.95232L10.7945 6.95232L7.28099 10.4204C6.91575 10.7804 6.91575 11.3639 7.28099 11.7239C7.46354 11.9037 7.70294 11.9938 7.94227 11.9938C8.1816 11.9938 8.42094 11.9037 8.60356 11.7239L13.7135 6.68239C14.0788 6.32243 14.0788 5.73891 13.7135 5.37894Z"/>
    	</g>
    </symbol>
    <symbol id="tel-icon" viewBox="0 0 12 12">
    	<g>
    		<path d="M11.731 9.49142L9.87777 7.6338C9.50864 7.26533 8.89736 7.27652 8.51538 7.65951L7.58172 8.59508C7.52274 8.56249 7.46168 8.52846 7.39749 8.49235C6.80789 8.16492 6.00093 7.71614 5.15177 6.86444C4.3001 6.01094 3.85192 5.20091 3.52424 4.6096C3.48966 4.54695 3.45653 4.48655 3.42381 4.42919L4.05043 3.80209L4.3585 3.49294C4.74107 3.1094 4.75162 2.4969 4.38336 2.12736L2.53014 0.26953C2.16188 -0.0994993 1.55033 -0.0883041 1.16776 0.295237L0.645456 0.821726L0.659729 0.835927C0.484595 1.0599 0.338248 1.31822 0.229341 1.59679C0.128949 1.86195 0.0664456 2.11499 0.0378657 2.36854C-0.206839 4.40179 0.720198 6.26003 3.23606 8.78163C6.71374 12.267 9.5163 12.0037 9.6372 11.9908C9.90052 11.9593 10.1529 11.8962 10.4093 11.7964C10.6849 11.6885 10.9424 11.542 11.1658 11.3669L11.1772 11.377L11.7063 10.8577C12.0881 10.4743 12.0991 9.86156 11.731 9.49142Z"/>
    	</g>
    </symbol>
    <symbol id="video-icon" viewBox="0 0 23 18">
    	<g>
    		<path d="M14.4888 8.66974L10.1267 5.93061C10.0046 5.8543 9.84995 5.84922 9.72266 5.9177C9.59616 5.98656 9.51724 6.11804 9.51724 6.26087V11.7391C9.51724 11.882 9.59616 12.0134 9.72305 12.0823C9.78253 12.1144 9.84797 12.1304 9.91379 12.1304C9.98795 12.1304 10.0621 12.1097 10.1267 12.0694L14.4888 9.33026C14.603 9.25826 14.6724 9.13383 14.6724 9C14.6724 8.86617 14.603 8.74174 14.4888 8.66974ZM10.3103 11.0266V6.97343L13.5371 9L10.3103 11.0266Z"/>
			<path d="M22.6034 0H0.396552C0.177655 0 0 0.174913 0 0.391304V17.6087C0 17.8251 0.177655 18 0.396552 18H22.6034C22.8223 18 23 17.8251 23 17.6087V0.391304C23 0.174913 22.8223 0 22.6034 0ZM3.96552 8.6087H0.793103V5.08696H3.96552V8.6087ZM0.793103 9.3913H3.96552V12.913H0.793103V9.3913ZM4.75862 0.782609H18.2414V17.2174H4.75862V0.782609ZM22.2069 8.6087H19.0345V5.08696H22.2069V8.6087ZM19.0345 9.3913H22.2069V12.913H19.0345V9.3913ZM22.2069 0.782609V4.30435H19.0345V0.782609H22.2069ZM0.793103 0.782609H3.96552V4.30435H0.793103V0.782609ZM0.793103 17.2174V13.6957H3.96552V17.2174H0.793103ZM22.2069 17.2174H19.0345V13.6957H22.2069V17.2174Z"/>
    	</g>
    </symbol>
    <symbol id="calendar-icon" viewBox="0 0 26 26">
        <g>
            <path d="M23.4609 2.23438H21.0403V1.52344C21.0403 0.683414 20.3569 0 19.5169 0C18.6769 0 17.9935 0.683414 17.9935 1.52344V2.23438H9.46222V1.52344C9.46222 0.683414 8.77881 0 7.93878 0C7.09876 0 6.41535 0.683414 6.41535 1.52344V2.25316C6.37218 2.24123 6.32694 2.23438 6.27996 2.23438H4.25664C2.8566 2.23438 1.71757 3.3734 1.71757 4.77344V13.4232C1.71757 13.7036 1.94497 13.931 2.22539 13.931C2.5058 13.931 2.7332 13.7036 2.7332 13.4232V7.46484H21.0403C21.3208 7.46484 21.5482 7.2375 21.5482 6.95703C21.5482 6.67657 21.3208 6.44922 21.0403 6.44922H2.7332V4.77344C2.7332 3.93341 3.41661 3.25 4.25664 3.25H6.27996C6.32694 3.25 6.37218 3.24309 6.41535 3.23121V3.88477C6.41535 4.72479 7.09876 5.4082 7.93878 5.4082C8.77881 5.4082 9.46222 4.72479 9.46222 3.88477V3.25H17.9935V3.88477C17.9935 4.72479 18.6769 5.4082 19.5169 5.4082C20.3569 5.4082 21.0403 4.72479 21.0403 3.88477V3.25H23.4609C24.301 3.25 24.9844 3.93341 24.9844 4.77344V24.07C24.9844 24.5742 24.5742 24.9844 24.07 24.9844C23.5658 24.9844 23.1556 24.5742 23.1556 24.07V22.7563C23.1556 22.4759 22.9282 22.2485 22.6478 22.2485H16.7409C16.4605 22.2485 16.2331 22.4759 16.2331 22.7563C16.2331 23.0368 16.4605 23.2642 16.7409 23.2642H22.14V24.07C22.14 24.4006 22.2237 24.712 22.3708 24.9844H1.92969C1.42568 24.9844 1.01562 24.5743 1.01562 24.0703V23.2642H12.3817C12.6622 23.2642 12.8896 23.0368 12.8896 22.7563C12.8896 22.4759 12.6622 22.2485 12.3817 22.2485H7.30788C8.19523 21.4843 8.7587 20.3539 8.7587 19.0938C8.7587 16.7977 6.89071 14.9297 4.59464 14.9297C2.29856 14.9297 0.430574 16.7977 0.430574 19.0938C0.430574 20.3539 0.994043 21.4843 1.88139 22.2485H0.507812C0.227398 22.2485 0 22.4759 0 22.7563V24.0703C0 25.1343 0.865668 26 1.92969 26H24.07C25.1342 26 26 25.1342 26 24.07V4.77344C26 3.3734 24.861 2.23438 23.4609 2.23438ZM8.4466 3.88477C8.4466 4.16477 8.21879 4.39258 7.93878 4.39258C7.65878 4.39258 7.43097 4.16477 7.43097 3.88477V1.52344C7.43097 1.24343 7.65878 1.01562 7.93878 1.01562C8.21879 1.01562 8.4466 1.24343 8.4466 1.52344V3.88477ZM20.0247 3.88477C20.0247 4.16477 19.7969 4.39258 19.5169 4.39258C19.2369 4.39258 19.0091 4.16477 19.0091 3.88477V1.52344C19.0091 1.24343 19.2369 1.01562 19.5169 1.01562C19.7969 1.01562 20.0247 1.24343 20.0247 1.52344V3.88477ZM1.4462 19.0938C1.4462 17.3577 2.85858 15.9453 4.59464 15.9453C6.3307 15.9453 7.74307 17.3577 7.74307 19.0938C7.74307 20.8298 6.3307 22.2422 4.59464 22.2422C2.85858 22.2422 1.4462 20.8298 1.4462 19.0938Z"/>
            <path d="M23.7846 6.59801C23.6902 6.50355 23.5592 6.44922 23.4256 6.44922C23.292 6.44922 23.161 6.50355 23.0666 6.59801C22.9721 6.69246 22.9178 6.82348 22.9178 6.95703C22.9178 7.09059 22.9721 7.2216 23.0666 7.31605C23.1611 7.41051 23.292 7.46484 23.4256 7.46484C23.5592 7.46484 23.6902 7.41051 23.7846 7.31605C23.879 7.2216 23.9334 7.09059 23.9334 6.95703C23.9334 6.82348 23.8791 6.69246 23.7846 6.59801Z"/>
            <path d="M15.1674 22.3971C15.073 22.3026 14.942 22.2488 14.8085 22.2488C14.6749 22.2488 14.5439 22.3026 14.4494 22.3971C14.355 22.492 14.3006 22.6225 14.3006 22.7561C14.3006 22.8901 14.3549 23.0207 14.4494 23.1156C14.5439 23.2101 14.6749 23.2639 14.8085 23.2639C14.942 23.2639 15.073 23.2101 15.1674 23.1156C15.2619 23.0207 15.3163 22.8896 15.3163 22.7561C15.3163 22.6225 15.2619 22.492 15.1674 22.3971Z"/>
            <path d="M11.4882 15.4375C10.4242 15.4375 9.55853 16.3032 9.55853 17.3672C9.55853 18.4312 10.4242 19.2969 11.4882 19.2969C12.5522 19.2969 13.4179 18.4312 13.4179 17.3672C13.4179 16.3032 12.5522 15.4375 11.4882 15.4375ZM11.4882 18.2812C10.9842 18.2812 10.5742 17.8712 10.5742 17.3672C10.5742 16.8632 10.9842 16.4531 11.4882 16.4531C11.9922 16.4531 12.4023 16.8632 12.4023 17.3672C12.4023 17.8712 11.9922 18.2812 11.4882 18.2812Z"/>
            <path d="M16.2303 15.4375C15.1663 15.4375 14.3006 16.3032 14.3006 17.3672C14.3006 18.4312 15.1663 19.2969 16.2303 19.2969C17.2943 19.2969 18.16 18.4312 18.16 17.3672C18.16 16.3032 17.2943 15.4375 16.2303 15.4375ZM16.2303 18.2812C15.7263 18.2812 15.3163 17.8712 15.3163 17.3672C15.3163 16.8632 15.7263 16.4531 16.2303 16.4531C16.7343 16.4531 17.1444 16.8632 17.1444 17.3672C17.1444 17.8712 16.7343 18.2812 16.2303 18.2812Z"/>
            <path d="M20.9688 15.4375C19.9048 15.4375 19.0391 16.3032 19.0391 17.3672C19.0391 18.4312 19.9048 19.2969 20.9688 19.2969C22.0328 19.2969 22.8985 18.4312 22.8985 17.3672C22.8985 16.3032 22.0328 15.4375 20.9688 15.4375ZM20.9688 18.2812C20.4648 18.2812 20.0548 17.8712 20.0548 17.3672C20.0548 16.8632 20.4648 16.4531 20.9688 16.4531C21.4728 16.4531 21.8829 16.8632 21.8829 17.3672C21.8829 17.8712 21.4728 18.2812 20.9688 18.2812Z"/>
            <path d="M6.75007 10.1562C5.68605 10.1562 4.82038 11.0219 4.82038 12.0859C4.82038 13.15 5.68605 14.0156 6.75007 14.0156C7.81409 14.0156 8.67975 13.15 8.67975 12.0859C8.67975 11.0219 7.81409 10.1562 6.75007 10.1562ZM6.75007 13C6.24606 13 5.836 12.5899 5.836 12.0859C5.836 11.5819 6.24606 11.1719 6.75007 11.1719C7.25407 11.1719 7.66413 11.5819 7.66413 12.0859C7.66413 12.5899 7.25407 13 6.75007 13Z"/>
            <path d="M16.2303 10.1562C15.1663 10.1562 14.3006 11.0219 14.3006 12.0859C14.3006 13.15 15.1663 14.0156 16.2303 14.0156C17.2943 14.0156 18.16 13.15 18.16 12.0859C18.16 11.0219 17.2943 10.1562 16.2303 10.1562ZM16.2303 13C15.7263 13 15.3163 12.5899 15.3163 12.0859C15.3163 11.5819 15.7263 11.1719 16.2303 11.1719C16.7343 11.1719 17.1444 11.5819 17.1444 12.0859C17.1444 12.5899 16.7343 13 16.2303 13Z"/>
            <path d="M20.9688 10.1562C19.9048 10.1562 19.0391 11.0219 19.0391 12.0859C19.0391 13.15 19.9048 14.0156 20.9688 14.0156C22.0328 14.0156 22.8985 13.15 22.8985 12.0859C22.8985 11.0219 22.0328 10.1562 20.9688 10.1562ZM20.9688 13C20.4648 13 20.0548 12.5899 20.0548 12.0859C20.0548 11.5819 20.4648 11.1719 20.9688 11.1719C21.4728 11.1719 21.8829 11.5819 21.8829 12.0859C21.8829 12.5899 21.4728 13 20.9688 13Z"/>
            <path d="M11.4882 10.1562C10.4242 10.1562 9.55853 11.0219 9.55853 12.0859C9.55853 13.15 10.4242 14.0156 11.4882 14.0156C12.5522 14.0156 13.4179 13.15 13.4179 12.0859C13.4179 11.0219 12.5522 10.1562 11.4882 10.1562ZM11.4882 13C10.9842 13 10.5742 12.5899 10.5742 12.0859C10.5742 11.5819 10.9842 11.1719 11.4882 11.1719C11.9922 11.1719 12.4023 11.5819 12.4023 12.0859C12.4023 12.5899 11.9922 13 11.4882 13Z"/>
            <path d="M6.4017 17.8562C6.20335 17.6579 5.88191 17.6579 5.68351 17.8562L4.02977 19.51L3.46462 18.9449C3.26627 18.7466 2.94483 18.7466 2.74642 18.9449C2.54812 19.1432 2.54812 19.4647 2.74642 19.6631L3.67069 20.5873C3.76596 20.6825 3.89509 20.736 4.02977 20.736C4.16444 20.736 4.29357 20.6825 4.38884 20.5873L6.4017 18.5744C6.6 18.3761 6.6 18.0545 6.4017 17.8562Z"/>
            <path d="M12.3437 22.2388H17.0641V23.2738H12.3437V22.2388Z"/>
        </g>
    </symbol>
    <symbol id="clock-icon" viewBox="0 0 26 26">
        <g>
            <path d="M22.1924 3.80758C19.737 1.3522 16.4724 0 13 0C9.52758 0 6.263 1.3522 3.80758 3.80758C1.3522 6.263 0 9.52758 0 13C0 16.4724 1.3522 19.737 3.80758 22.1924C6.263 24.6478 9.52758 26 13 26C16.4724 26 19.737 24.6478 22.1924 22.1924C24.6478 19.737 26 16.4724 26 13C26 9.52758 24.6478 6.263 22.1924 3.80758ZM13 24.9642C6.40296 24.9642 1.03584 19.5971 1.03584 13C1.03584 6.40291 6.40296 1.03584 13 1.03584C19.597 1.03584 24.9642 6.40296 24.9642 13C24.9642 19.597 19.597 24.9642 13 24.9642Z"/>
            <path d="M12.9997 2.04144C6.95715 2.04144 2.04117 6.95742 2.04117 13C2.04117 19.0425 6.95715 23.9585 12.9997 23.9585C19.0423 23.9585 23.9583 19.0425 23.9583 13C23.9583 6.95742 19.0423 2.04144 12.9997 2.04144ZM21.8392 17.5055L20.3456 16.6431C20.098 16.5001 19.7812 16.5849 19.6381 16.8327C19.4951 17.0804 19.58 17.3971 19.8277 17.5401L21.3195 18.4014C20.561 19.5655 19.5653 20.5613 18.4012 21.3196L17.54 19.8279C17.3969 19.5801 17.0801 19.4953 16.8325 19.6383C16.5848 19.7813 16.4999 20.0981 16.6429 20.3458L17.5053 21.8394C16.2974 22.4575 14.9471 22.8352 13.5177 22.9091V21.1831C13.5177 20.8971 13.2859 20.6652 12.9998 20.6652C12.7138 20.6652 12.4819 20.8971 12.4819 21.1831V22.9091C11.0525 22.8352 9.70223 22.4575 8.49435 21.8394L9.35671 20.3458C9.49976 20.0981 9.41486 19.7813 9.16715 19.6383C8.91949 19.4954 8.60266 19.5802 8.45966 19.8279L7.59841 21.3196C6.43425 20.5612 5.43853 19.5655 4.68017 18.4014L6.17192 17.5401C6.41963 17.3971 6.50453 17.0804 6.36148 16.8327C6.21848 16.5849 5.90166 16.5 5.654 16.6431L4.16022 17.5055C3.54211 16.2976 3.16435 14.9473 3.09051 13.5179H4.81646C5.10251 13.5179 5.33438 13.286 5.33438 13C5.33438 12.7139 5.10251 12.4821 4.81646 12.4821H3.09051C3.16435 11.0527 3.54211 9.7024 4.16022 8.49452L5.6538 9.35689C5.73535 9.40396 5.82442 9.42636 5.91227 9.42636C6.09128 9.42636 6.26535 9.33348 6.36128 9.16732C6.50433 8.91961 6.41942 8.60284 6.17171 8.45984L4.67996 7.59859C5.43838 6.43443 6.4341 5.43871 7.59821 4.68034L8.45946 6.17209C8.55538 6.33825 8.72946 6.43113 8.90847 6.43113C8.99632 6.43113 9.08539 6.40873 9.16694 6.36166C9.41465 6.21866 9.49956 5.90189 9.35651 5.65417L8.49424 4.16049C9.70203 3.54238 11.0524 3.16462 12.4818 3.09079V4.81674C12.4818 5.10279 12.7137 5.33466 12.9997 5.33466C13.2858 5.33466 13.5176 5.10279 13.5176 4.81674V3.09079C14.947 3.16462 16.2973 3.54238 17.5052 4.16049L16.6428 5.65407C16.4998 5.90178 16.5847 6.21856 16.8324 6.36156C16.9139 6.40863 17.003 6.43102 17.0909 6.43102C17.2699 6.43102 17.4439 6.33815 17.5399 6.17199L18.4011 4.68024C19.5653 5.43866 20.561 6.43438 21.3194 7.59849L19.8276 8.45974C19.5799 8.60274 19.495 8.91951 19.638 9.16722C19.734 9.33338 19.908 9.42626 20.087 9.42626C20.1749 9.42626 20.264 9.40386 20.3455 9.35679L21.8391 8.49442C22.4572 9.70225 22.835 11.0526 22.9088 12.482H21.1829C20.8968 12.482 20.6649 12.7138 20.6649 12.9999C20.6649 13.2859 20.8968 13.5178 21.1829 13.5178H22.9088C22.8351 14.9473 22.4574 16.2976 21.8392 17.5055Z"/>
            <path d="M13.5182 11.558V8.23504C13.5182 7.94899 13.2863 7.71712 13.0003 7.71712C12.7142 7.71712 12.4824 7.94899 12.4824 8.23504V11.558C11.8916 11.7708 11.4681 12.3368 11.4681 13C11.4681 13.3767 11.605 13.7219 11.8313 13.9889L11.0092 15.4129C10.8662 15.6606 10.9511 15.9774 11.1988 16.1204C11.2803 16.1675 11.3694 16.1898 11.4573 16.1898C11.6363 16.1898 11.8103 16.0969 11.9063 15.9308L12.728 14.5075C12.8164 14.5235 12.9073 14.5323 13.0003 14.5323C13.8452 14.5323 14.5325 13.845 14.5325 13.0001C14.5325 12.3368 14.109 11.7709 13.5182 11.558ZM13.0003 13.4964C12.7266 13.4964 12.5039 13.2737 12.5039 13C12.5039 12.7263 12.7266 12.5036 13.0003 12.5036C13.274 12.5036 13.4967 12.7263 13.4967 13C13.4967 13.2737 13.274 13.4964 13.0003 13.4964Z"/>
            <path d="M13.0001 6.00797C12.7141 6.00797 12.4822 6.23984 12.4822 6.52589V6.73308C12.4822 7.01913 12.7141 7.251 13.0001 7.251C13.2862 7.251 13.518 7.01913 13.518 6.73308V6.52589C13.518 6.23984 13.2862 6.00797 13.0001 6.00797Z"/>
        </g>
    </symbol>
    <symbol id="close" viewBox="0 0 386.667 386.667">
        <g>
            <path d="m386.667 45.564-45.564-45.564-147.77 147.769-147.769-147.769-45.564 45.564 147.769 147.769-147.769 147.77 45.564 45.564 147.769-147.769 147.769 147.769 45.564-45.564-147.768-147.77z"/>
        </g>
    </symbol>
</svg>