<svg width="53" height="194" viewBox="0 0 53 194" fill="none" xmlns="http://www.w3.org/2000/svg">
<path fill-rule="evenodd" clip-rule="evenodd" d="M1.15451 0.512119C0.608858 0.426914 0.0973835 0.800083 0.0121173 1.34574C-0.0730877 1.89139 0.300142 2.40287 0.845797 2.48819L25.0002 6.26224V8.53128L26.9451 6.5662L48.0002 9.85599V23.0002H45.9691L48.0002 25.0104V47.0002H45.9691L48.0002 49.0104V71.0002H45.9691L48.0002 73.0104V95.0002H45.9691L48.0002 97.0104V119H45.9691L48.0002 121.01V143H45.9691L48.0002 145.01V167H45.9691L48.0002 169.01V191H45.9691L49.0002 194L52.0312 191H50.0002V169.01L52.0312 167H50.0002V145.01L52.0312 143H50.0002V121.01L52.0312 119H50.0002V97.0104L52.0312 95.0002H50.0002V73.0104L52.0312 71.0002H50.0002V49.0104L52.0312 47.0002H50.0002V25.0104L52.0312 23.0002H50.0002V9.00016V8.14432L49.1545 8.01212L27.0713 4.56156L25.0002 2.46903V4.23795L1.15451 0.512119Z" fill="#15CF74"/>
</svg>
