<svg width="244" height="165" viewBox="0 0 244 165" fill="none" xmlns="http://www.w3.org/2000/svg">
<path fill-rule="evenodd" clip-rule="evenodd" d="M91.4998 1C91.4998 0.447715 91.0521 0 90.4998 0C89.9476 0 89.4998 0.447715 89.4998 1V22H87.4687L89.4998 24.0103V46H87.4687L89.4998 48.0103V70H87.4687L89.4998 72.0103V94H87.4687L89.4998 96.0103V120.332L64.9998 116.508V114.469L63.2516 116.235L30.9998 111.202V108.969L29.0856 110.903L4.15404 107.012L2.99984 106.832V108V132H0.96875L3.99984 135L7.03093 132H4.99984V109.168L28.8869 112.896L30.9998 115.031V113.226L62.6602 118.167L64.9998 120.531V118.532L90.3456 122.488L90.3456 122.488L90.3575 122.49L115 126.034V128.031L116.73 126.283L178 135.094V137.031L179.678 135.335L216 140.559V142.531L217.709 140.805L239 143.866V162H236.969L240 165L243.031 162H241V143V142.134L240.142 142.01L218.388 138.882L216 136.469V138.538L180.428 133.423L178 130.969V133.073L117.359 124.352L115 121.969V124.013L91.4998 120.634V96.0103L93.5309 94H91.4998V72.0103L93.5309 70H91.4998V48.0103L93.5309 46H91.4998V24.0103L93.5309 22H91.4998V1Z" fill="#0094FF"/>
</svg>
