<svg width="143" height="68" viewBox="0 0 143 68" fill="none" xmlns="http://www.w3.org/2000/svg">
<path fill-rule="evenodd" clip-rule="evenodd" d="M3.64335 0.511949L2.48859 0.331055V1.4999V8.9999H0.46875L2.48859 11.0065V20.9999H0.46875L3.48859 23.9999L6.50843 20.9999H4.48859V11.0065L6.50843 8.9999H4.48859V2.66875L24.3233 5.77587L26.9753 8.65944L27.0831 6.20819L49.1249 9.66106L51.8825 12.6594L51.9946 10.1106L74.0367 13.5635L76.7187 16.4798L76.8278 14.0007L88.6676 15.8554V29.7291L86.7995 31.5849H88.6676V48.9933L86.6477 50.9999H88.6676V66.9999C88.6676 67.5522 89.1153 67.9999 89.6676 67.9999C90.2199 67.9999 90.6676 67.5522 90.6676 66.9999V50.9999H92.6874L90.6676 48.9933V31.5849H92.8392L90.6676 29.4275V16.16L109.726 19.001L109.613 21.5688L112.012 19.3418L129.653 21.9715L129.539 24.5688L131.965 22.3162L138.98 23.3619V30.9999H136.96L138.98 33.0065V39.9999H136.96L139.98 42.9999L143 39.9999H140.98V33.0065L143 30.9999H140.98V22.4999V21.6379L140.128 21.5108L131.327 20.199L129.805 18.5125L129.741 19.9626L111.433 17.2334L109.879 15.5125L109.814 16.9921L89.8223 14.0119L89.815 14.0108L76.9162 11.9902L76.9851 10.4235L75.5078 11.7696L52.0831 8.10008L52.1489 6.60316L50.7374 7.88928L27.1716 4.19767L27.2417 2.60316L25.7382 3.97313L3.64335 0.511949Z" fill="#15CF74"/>
</svg>
