<svg width="35" height="41" viewBox="0 0 35 41" fill="none" xmlns="http://www.w3.org/2000/svg">
<path d="M29.9489 12.292V40.0001H3.74365V4.27832V3.87085H21.3525M29.9489 12.292L21.3525 3.87085M29.9489 12.292H21.3525V3.87085" stroke="white" stroke-width="2"/>
<rect y="16.7742" width="34.1084" height="15.2123" rx="2" fill="white"/>
<path d="M6.9484 28V21H9.8084C10.6351 21 11.2884 21.2233 11.7684 21.67C12.2484 22.1167 12.4884 22.7067 12.4884 23.44C12.4884 24.22 12.2217 24.8267 11.6884 25.26C11.1551 25.6867 10.4784 25.9 9.6584 25.9H8.4884V28H6.9484ZM8.4884 24.53H9.7084C10.0884 24.53 10.3851 24.43 10.5984 24.23C10.8184 24.03 10.9284 23.77 10.9284 23.45C10.9284 23.11 10.8184 22.85 10.5984 22.67C10.3784 22.4833 10.0717 22.39 9.6784 22.39H8.4884V24.53ZM13.6281 28V21H16.3581C17.4514 21 18.3448 21.3333 19.0381 22C19.7314 22.66 20.0781 23.4933 20.0781 24.5C20.0781 25.5 19.7281 26.3333 19.0281 27C18.3348 27.6667 17.4448 28 16.3581 28H13.6281ZM15.1681 26.61H16.3581C16.9914 26.61 17.5014 26.4167 17.8881 26.03C18.2748 25.6367 18.4681 25.1267 18.4681 24.5C18.4681 23.88 18.2714 23.3733 17.8781 22.98C17.4914 22.5867 16.9848 22.39 16.3581 22.39H15.1681V26.61ZM21.4504 28V21H26.7804V22.4H22.9904V23.89H26.3304V25.29H22.9904V28H21.4504Z" fill="#419EF4"/>
</svg>
