<svg width="15" height="15" viewBox="0 0 15 15" fill="none" xmlns="http://www.w3.org/2000/svg">
<path fill-rule="evenodd" clip-rule="evenodd" d="M7.5 14C3.91015 14 1 11.0899 1 7.5C1 3.91015 3.91015 1 7.5 1C11.0899 1 14 3.91015 14 7.5C14 11.0899 11.0899 14 7.5 14Z" fill="#DADADA" stroke="#DADADA" stroke-width="2"/>
<path fill-rule="evenodd" clip-rule="evenodd" d="M8.31535 9.93604H6.68982V6.68604H8.31535V9.93604Z" fill="#6F6F6F"/>
<path fill-rule="evenodd" clip-rule="evenodd" d="M7.50027 5.87354C7.94915 5.87354 8.31303 5.50977 8.31303 5.06104C8.31303 4.6123 7.94915 4.24854 7.50027 4.24854C7.05139 4.24854 6.6875 4.6123 6.6875 5.06104C6.6875 5.50977 7.05139 5.87354 7.50027 5.87354Z" fill="#6F6F6F"/>
</svg>
