<svg width="11" height="13" viewBox="0 0 11 13" fill="none" xmlns="http://www.w3.org/2000/svg">
<path fill-rule="evenodd" clip-rule="evenodd" d="M5.5 12.6356L5.85627 12.3245C8.85221 9.70852 10.375 7.42433 10.375 5.4165C10.375 2.57311 8.15576 0.541504 5.5 0.541504C2.84424 0.541504 0.625 2.57311 0.625 5.4165C0.625 7.42433 2.14779 9.70852 5.14373 12.3245L5.5 12.6356ZM5.5 11.1925C2.95775 8.90134 1.70833 6.95984 1.70833 5.4165C1.70833 3.19383 3.42223 1.62484 5.5 1.62484C7.57777 1.62484 9.29167 3.19383 9.29167 5.4165C9.29167 6.95984 8.04225 8.90134 5.5 11.1925ZM5.5 2.70817C6.99577 2.70817 8.20833 3.92073 8.20833 5.4165C8.20833 6.91228 6.99577 8.12484 5.5 8.12484C4.00423 8.12484 2.79167 6.91228 2.79167 5.4165C2.79167 3.92073 4.00423 2.70817 5.5 2.70817ZM3.875 5.4165C3.875 4.51904 4.60254 3.7915 5.5 3.7915C6.39746 3.7915 7.125 4.51904 7.125 5.4165C7.125 6.31397 6.39746 7.0415 5.5 7.0415C4.60254 7.0415 3.875 6.31397 3.875 5.4165Z" fill="white"/>
</svg>
