<svg width="11" height="11" viewBox="0 0 11 11" fill="none" xmlns="http://www.w3.org/2000/svg">
<path fill-rule="evenodd" clip-rule="evenodd" d="M4.88073 3.51657C5.16137 3.13837 5.26201 2.73978 4.94461 2.38795C4.23234 1.3913 3.75333 0.77497 3.45286 0.478161C2.88164 -0.0861111 1.94198 -0.00978438 1.44726 0.477679C1.18154 0.7395 1.09158 0.829411 0.81875 1.10653C-0.700978 2.62708 0.225831 5.84145 2.68962 8.30767C5.15286 10.7733 8.36693 11.7006 9.88985 10.1769C10.1416 9.93416 10.3548 9.72088 10.5229 9.54319C11.0077 9.03077 11.0813 8.13255 10.5197 7.54902C10.2318 7.24984 9.64405 6.79395 8.60546 6.05104C8.28737 5.76661 7.91021 5.82826 7.56443 6.05511C7.39811 6.16423 7.27706 6.27461 7.0485 6.5034L6.63345 6.91868C6.57879 6.97338 5.83649 6.60163 5.11592 5.88036C4.39497 5.1587 4.02348 4.41636 4.07789 4.36195L4.49323 3.94639C4.56574 3.8738 4.60041 3.83866 4.64487 3.79193C4.7375 3.69458 4.8142 3.60623 4.88073 3.51657ZM7.39906 7.68469L7.81419 7.26933C7.93998 7.14342 8.02151 7.066 8.08782 7.01262C8.99764 7.66598 9.52455 8.07681 9.73978 8.30044C9.86899 8.4347 9.84892 8.67969 9.73659 8.79842C9.58113 8.96273 9.37916 9.16481 9.13132 9.40387C8.14654 10.3891 5.55207 9.64051 3.4554 7.54178C1.35807 5.4424 0.60989 2.84753 1.58723 1.86966C1.85896 1.59367 1.94505 1.50762 2.20698 1.24954C2.30519 1.15277 2.57269 1.13104 2.69216 1.24906C2.92349 1.47757 3.3526 2.02701 3.98384 2.90632C3.95116 2.94689 3.91034 2.99274 3.86067 3.04494C3.82422 3.08326 3.79385 3.11404 3.72745 3.18051L3.31252 3.59566C2.60665 4.30148 3.2078 5.50274 4.35015 6.64621C5.49171 7.7889 6.69343 8.39072 7.39906 7.68469Z" fill="white"/>
</svg>
