<svg style="display: none;" xmlns="http://www.w3.org/2000/svg">
  <symbol id="burger" viewBox="0 0 15 11">
    <g>
      <path fill-rule="evenodd" clip-rule="evenodd" d="M15 1.5V0H0V1.5H15ZM10.5 3V4.5H0V3H10.5ZM15 7.5V6H0V7.5H15ZM10.5 10.5V9H0V10.5H10.5Z" />
    </g>
  </symbol>
  <symbol id="claim-icon" viewBox="0 0 35 41">
    <g>
      <path d="M29.9489 12.292V40.0001H3.74365V4.27832V3.87085H21.3525M29.9489 12.292L21.3525 3.87085M29.9489 12.292H21.3525V3.87085" stroke="white" stroke-width="2"/>
      <rect y="16.7742" width="34.1084" height="15.2123" rx="2" fill="white"/>
      <path d="M6.9484 28V21H9.8084C10.6351 21 11.2884 21.2233 11.7684 21.67C12.2484 22.1167 12.4884 22.7067 12.4884 23.44C12.4884 24.22 12.2217 24.8267 11.6884 25.26C11.1551 25.6867 10.4784 25.9 9.6584 25.9H8.4884V28H6.9484ZM8.4884 24.53H9.7084C10.0884 24.53 10.3851 24.43 10.5984 24.23C10.8184 24.03 10.9284 23.77 10.9284 23.45C10.9284 23.11 10.8184 22.85 10.5984 22.67C10.3784 22.4833 10.0717 22.39 9.6784 22.39H8.4884V24.53ZM13.6281 28V21H16.3581C17.4514 21 18.3448 21.3333 19.0381 22C19.7314 22.66 20.0781 23.4933 20.0781 24.5C20.0781 25.5 19.7281 26.3333 19.0281 27C18.3348 27.6667 17.4448 28 16.3581 28H13.6281ZM15.1681 26.61H16.3581C16.9914 26.61 17.5014 26.4167 17.8881 26.03C18.2748 25.6367 18.4681 25.1267 18.4681 24.5C18.4681 23.88 18.2714 23.3733 17.8781 22.98C17.4914 22.5867 16.9848 22.39 16.3581 22.39H15.1681V26.61ZM21.4504 28V21H26.7804V22.4H22.9904V23.89H26.3304V25.29H22.9904V28H21.4504Z" fill="#419EF4"/>
    </g>
  </symbol>
  <symbol id="icon-close" viewBox="0 0 14 13">
    <g>
      <rect x="0.989746" y="1.41431" width="2" height="15" transform="rotate(-45 0.989746 1.41431)" fill="white"/>
      <rect x="11.5962" width="2" height="15" transform="rotate(45 11.5962 0)" fill="white"/>
    </g>
  </symbol>
  <symbol id="info-icon" viewBox="0 0 15 15">
    <g>
      <path fill-rule="evenodd" clip-rule="evenodd" d="M7.5 14C3.91015 14 1 11.0899 1 7.5C1 3.91015 3.91015 1 7.5 1C11.0899 1 14 3.91015 14 7.5C14 11.0899 11.0899 14 7.5 14Z" fill="#DADADA" stroke="#DADADA" stroke-width="2"/>
      <path fill-rule="evenodd" clip-rule="evenodd" d="M8.31535 9.93604H6.68982V6.68604H8.31535V9.93604Z" fill="#6F6F6F"/>
      <path fill-rule="evenodd" clip-rule="evenodd" d="M7.50027 5.87354C7.94915 5.87354 8.31303 5.50977 8.31303 5.06104C8.31303 4.6123 7.94915 4.24854 7.50027 4.24854C7.05139 4.24854 6.6875 4.6123 6.6875 5.06104C6.6875 5.50977 7.05139 5.87354 7.50027 5.87354Z" fill="#6F6F6F"/>
    </g>
  </symbol>
  <symbol id="message-icon" viewBox="0 0 20 20">
    <g>
      <path fill-rule="evenodd" clip-rule="evenodd" d="M4 19.8042L10.0868 16H18C19.1046 16 20 15.1046 20 14V2C20 0.89543 19.1046 0 18 0H2C0.89543 0 0 0.89543 0 2V14C0 15.1046 0.89543 16 2 16H4V19.8042ZM9.5132 14L6 16.1958V14H2V2H18V14H9.5132ZM5 11V9H12V11H5ZM5 5V7H14V5H5Z" fill="white"/>
    </g>
  </symbol>
  <symbol id="youtube-icon" viewBox="0 0 21 16">
    <g>
      <path fill-rule="evenodd" clip-rule="evenodd" d="M20.5611 2.35694C20.3196 1.42916 19.608 0.698573 18.7044 0.450621C17.0669 0 10.5 0 10.5 0C10.5 0 3.93309 0 2.29544 0.450621C1.39185 0.698573 0.680233 1.42916 0.438733 2.35694C0 4.03843 0 7.54688 0 7.54688C0 7.54688 0 11.0552 0.438733 12.7368C0.680233 13.6646 1.39185 14.3952 2.29544 14.6433C3.93309 15.0938 10.5 15.0938 10.5 15.0938C10.5 15.0938 17.0669 15.0938 18.7044 14.6433C19.608 14.3952 20.3196 13.6646 20.5611 12.7368C21 11.0552 21 7.54688 21 7.54688C21 7.54688 21 4.03843 20.5611 2.35694Z" fill="#FF0000"/>
      <path fill-rule="evenodd" clip-rule="evenodd" d="M8.53125 11.1562V4.59375L13.7812 7.87513L8.53125 11.1562Z" fill="white"/>
    </g>
  </symbol>
  <symbol id="marker-icon" viewBox="0 0 11 13">
    <g>
      <path fill-rule="evenodd" clip-rule="evenodd" d="M5.5 12.6356L5.85627 12.3245C8.85221 9.70852 10.375 7.42433 10.375 5.4165C10.375 2.57311 8.15576 0.541504 5.5 0.541504C2.84424 0.541504 0.625 2.57311 0.625 5.4165C0.625 7.42433 2.14779 9.70852 5.14373 12.3245L5.5 12.6356ZM5.5 11.1925C2.95775 8.90134 1.70833 6.95984 1.70833 5.4165C1.70833 3.19383 3.42223 1.62484 5.5 1.62484C7.57777 1.62484 9.29167 3.19383 9.29167 5.4165C9.29167 6.95984 8.04225 8.90134 5.5 11.1925ZM5.5 2.70817C6.99577 2.70817 8.20833 3.92073 8.20833 5.4165C8.20833 6.91228 6.99577 8.12484 5.5 8.12484C4.00423 8.12484 2.79167 6.91228 2.79167 5.4165C2.79167 3.92073 4.00423 2.70817 5.5 2.70817ZM3.875 5.4165C3.875 4.51904 4.60254 3.7915 5.5 3.7915C6.39746 3.7915 7.125 4.51904 7.125 5.4165C7.125 6.31397 6.39746 7.0415 5.5 7.0415C4.60254 7.0415 3.875 6.31397 3.875 5.4165Z" fill="white"/>
    </g>
  </symbol>
  <symbol id="mail-icon" viewBox="0 0 12 10">
    <g>
      <path fill-rule="evenodd" clip-rule="evenodd" d="M1.5 0.5H10.5C11.0523 0.5 11.5 0.947715 11.5 1.5V8.5C11.5 9.05229 11.0523 9.5 10.5 9.5H1.5C0.947715 9.5 0.5 9.05229 0.5 8.5V1.5C0.5 0.947715 0.947715 0.5 1.5 0.5ZM1.49999 3.80903V8.5H10.5V3.80927L6 6.05926L1.49999 3.80903ZM1.49999 2.69097L6.00003 4.94122L10.5 2.69124V1.5H1.49999V2.69097Z" fill="white"/>
    </g>
  </symbol>
  <symbol id="phone-icon" viewBox="0 0 11 11">
    <g>
      <path fill-rule="evenodd" clip-rule="evenodd" d="M4.88073 3.51657C5.16137 3.13837 5.26201 2.73978 4.94461 2.38795C4.23234 1.3913 3.75333 0.77497 3.45286 0.478161C2.88164 -0.0861111 1.94198 -0.00978438 1.44726 0.477679C1.18154 0.7395 1.09158 0.829411 0.81875 1.10653C-0.700978 2.62708 0.225831 5.84145 2.68962 8.30767C5.15286 10.7733 8.36693 11.7006 9.88985 10.1769C10.1416 9.93416 10.3548 9.72088 10.5229 9.54319C11.0077 9.03077 11.0813 8.13255 10.5197 7.54902C10.2318 7.24984 9.64405 6.79395 8.60546 6.05104C8.28737 5.76661 7.91021 5.82826 7.56443 6.05511C7.39811 6.16423 7.27706 6.27461 7.0485 6.5034L6.63345 6.91868C6.57879 6.97338 5.83649 6.60163 5.11592 5.88036C4.39497 5.1587 4.02348 4.41636 4.07789 4.36195L4.49323 3.94639C4.56574 3.8738 4.60041 3.83866 4.64487 3.79193C4.7375 3.69458 4.8142 3.60623 4.88073 3.51657ZM7.39906 7.68469L7.81419 7.26933C7.93998 7.14342 8.02151 7.066 8.08782 7.01262C8.99764 7.66598 9.52455 8.07681 9.73978 8.30044C9.86899 8.4347 9.84892 8.67969 9.73659 8.79842C9.58113 8.96273 9.37916 9.16481 9.13132 9.40387C8.14654 10.3891 5.55207 9.64051 3.4554 7.54178C1.35807 5.4424 0.60989 2.84753 1.58723 1.86966C1.85896 1.59367 1.94505 1.50762 2.20698 1.24954C2.30519 1.15277 2.57269 1.13104 2.69216 1.24906C2.92349 1.47757 3.3526 2.02701 3.98384 2.90632C3.95116 2.94689 3.91034 2.99274 3.86067 3.04494C3.82422 3.08326 3.79385 3.11404 3.72745 3.18051L3.31252 3.59566C2.60665 4.30148 3.2078 5.50274 4.35015 6.64621C5.49171 7.7889 6.69343 8.39072 7.39906 7.68469Z" fill="white"/>
    </g>
  </symbol>
</svg>