<svg width="217" height="244" viewBox="0 0 217 244" fill="none" xmlns="http://www.w3.org/2000/svg">
<g filter="url(#filter0_dd)">
<circle cx="108.804" cy="107.117" r="52.2523" fill="url(#paint0_linear)"/>
</g>
<g opacity="0.2" filter="url(#filter1_d)">
<path d="M173.304 108.424C173.304 145.517 144.398 175.531 108.809 175.531C73.2193 175.531 44.3139 145.517 44.3139 108.424C44.3139 71.3307 73.2193 41.3162 108.809 41.3162C144.398 41.3162 173.304 71.3307 173.304 108.424Z" stroke="#D04A48" stroke-width="1.64072"/>
</g>
<path opacity="0.2" d="M213.801 108.423C213.801 167.87 166.777 216.027 108.811 216.027C50.8449 216.027 3.82036 167.87 3.82036 108.423C3.82036 48.9769 50.8449 0.82036 108.811 0.82036C166.777 0.82036 213.801 48.9769 213.801 108.423Z" stroke="#D04A48" stroke-width="1.64072"/>
<g filter="url(#filter2_i)">
<path d="M100.107 95.2447C100.107 93.8807 101.578 93.0551 102.7 93.7893L121.115 105.837C122.153 106.516 122.153 108.069 121.115 108.748L102.7 120.795C101.578 121.53 100.107 120.704 100.107 119.34L100.107 95.2447Z" fill="white"/>
</g>
<defs>
<filter id="filter0_dd" x="0.766884" y="26.9727" width="216.074" height="216.074" filterUnits="userSpaceOnUse" color-interpolation-filters="sRGB">
<feFlood flood-opacity="0" result="BackgroundImageFix"/>
<feColorMatrix in="SourceAlpha" type="matrix" values="0 0 0 0 0 0 0 0 0 0 0 0 0 0 0 0 0 0 127 0"/>
<feOffset dy="27.8923"/>
<feGaussianBlur stdDeviation="27.8923"/>
<feColorMatrix type="matrix" values="0 0 0 0 0.9875 0 0 0 0 0.164523 0 0 0 0 0.15224 0 0 0 1 0"/>
<feBlend mode="normal" in2="BackgroundImageFix" result="effect1_dropShadow"/>
<feColorMatrix in="SourceAlpha" type="matrix" values="0 0 0 0 0 0 0 0 0 0 0 0 0 0 0 0 0 0 127 0"/>
<feOffset dy="2.61261"/>
<feColorMatrix type="matrix" values="0 0 0 0 0.545833 0 0 0 0 0.176091 0 0 0 0 0.170573 0 0 0 1 0"/>
<feBlend mode="normal" in2="effect1_dropShadow" result="effect2_dropShadow"/>
<feBlend mode="normal" in="SourceGraphic" in2="effect2_dropShadow" result="shape"/>
</filter>
<filter id="filter1_d" x="39.4935" y="40.4958" width="138.631" height="143.856" filterUnits="userSpaceOnUse" color-interpolation-filters="sRGB">
<feFlood flood-opacity="0" result="BackgroundImageFix"/>
<feColorMatrix in="SourceAlpha" type="matrix" values="0 0 0 0 0 0 0 0 0 0 0 0 0 0 0 0 0 0 127 0"/>
<feOffset dy="4"/>
<feGaussianBlur stdDeviation="2"/>
<feColorMatrix type="matrix" values="0 0 0 0 0 0 0 0 0 0 0 0 0 0 0 0 0 0 0.25 0"/>
<feBlend mode="normal" in2="BackgroundImageFix" result="effect1_dropShadow"/>
<feBlend mode="normal" in="SourceGraphic" in2="effect1_dropShadow" result="shape"/>
</filter>
<filter id="filter2_i" x="100.107" y="93.5149" width="21.7867" height="27.5549" filterUnits="userSpaceOnUse" color-interpolation-filters="sRGB">
<feFlood flood-opacity="0" result="BackgroundImageFix"/>
<feBlend mode="normal" in="SourceGraphic" in2="BackgroundImageFix" result="shape"/>
<feColorMatrix in="SourceAlpha" type="matrix" values="0 0 0 0 0 0 0 0 0 0 0 0 0 0 0 0 0 0 127 0" result="hardAlpha"/>
<feOffset dy="2.61261"/>
<feComposite in2="hardAlpha" operator="arithmetic" k2="-1" k3="1"/>
<feColorMatrix type="matrix" values="0 0 0 0 0.1325 0 0 0 0 0.4081 0 0 0 0 0.6625 0 0 0 1 0"/>
<feBlend mode="normal" in2="shape" result="effect1_innerShadow"/>
</filter>
<linearGradient id="paint0_linear" x1="112.144" y1="54.865" x2="104.043" y2="158.775" gradientUnits="userSpaceOnUse">
<stop stop-color="#D04A48"/>
<stop offset="1" stop-color="#FC2A27"/>
</linearGradient>
</defs>
</svg>
