<svg width="21" height="16" viewBox="0 0 21 16" fill="none" xmlns="http://www.w3.org/2000/svg">
<path fill-rule="evenodd" clip-rule="evenodd" d="M20.5611 2.35694C20.3196 1.42916 19.608 0.698573 18.7044 0.450621C17.0669 0 10.5 0 10.5 0C10.5 0 3.93309 0 2.29544 0.450621C1.39185 0.698573 0.680233 1.42916 0.438733 2.35694C0 4.03843 0 7.54688 0 7.54688C0 7.54688 0 11.0552 0.438733 12.7368C0.680233 13.6646 1.39185 14.3952 2.29544 14.6433C3.93309 15.0938 10.5 15.0938 10.5 15.0938C10.5 15.0938 17.0669 15.0938 18.7044 14.6433C19.608 14.3952 20.3196 13.6646 20.5611 12.7368C21 11.0552 21 7.54688 21 7.54688C21 7.54688 21 4.03843 20.5611 2.35694Z" fill="#FF0000"/>
<path fill-rule="evenodd" clip-rule="evenodd" d="M8.53125 11.1562V4.59375L13.7812 7.87513L8.53125 11.1562Z" fill="white"/>
</svg>
