<svg width="62" height="83" viewBox="0 0 62 83" fill="none" xmlns="http://www.w3.org/2000/svg">
<path d="M41.6823 52.283C41.6823 58.19 36.8983 62.9811 31 62.9811C25.1017 62.9811 20.3177 58.19 20.3177 52.283H1C1 67.372 12.1062 79.8652 26.5793 82V79.5377C26.5793 77.0876 28.5656 75.1105 31 75.1105C33.4344 75.1105 35.4207 77.0997 35.4207 79.5377V82C49.8938 79.8531 61 67.372 61 52.283H41.6823Z" stroke="#334DA6" stroke-width="2" stroke-miterlimit="10" stroke-linecap="round" stroke-linejoin="round"/>
<path d="M3.36182 52.283V47.88" stroke="#334DA6" stroke-miterlimit="10" stroke-linecap="round" stroke-linejoin="round"/>
<path d="M6.99512 52.283V47.88" stroke="#334DA6" stroke-miterlimit="10" stroke-linecap="round" stroke-linejoin="round"/>
<path d="M10.6284 52.283V47.88" stroke="#334DA6" stroke-miterlimit="10" stroke-linecap="round" stroke-linejoin="round"/>
<path d="M14.2617 52.283V47.88" stroke="#334DA6" stroke-miterlimit="10" stroke-linecap="round" stroke-linejoin="round"/>
<path d="M17.8955 52.283V47.88" stroke="#334DA6" stroke-miterlimit="10" stroke-linecap="round" stroke-linejoin="round"/>
<path d="M44.1895 52.283V47.88" stroke="#334DA6" stroke-miterlimit="10" stroke-linecap="round" stroke-linejoin="round"/>
<path d="M47.8228 52.283V47.88" stroke="#334DA6" stroke-miterlimit="10" stroke-linecap="round" stroke-linejoin="round"/>
<path d="M51.4563 52.283V47.88" stroke="#334DA6" stroke-miterlimit="10" stroke-linecap="round" stroke-linejoin="round"/>
<path d="M55.0896 52.283V47.88" stroke="#334DA6" stroke-miterlimit="10" stroke-linecap="round" stroke-linejoin="round"/>
<path d="M58.7229 52.283V47.88" stroke="#334DA6" stroke-miterlimit="10" stroke-linecap="round" stroke-linejoin="round"/>
<path d="M21.3108 70.2224H24.3144" stroke="#334DA6" stroke-miterlimit="10" stroke-linecap="round" stroke-linejoin="round"/>
<path d="M28.9409 70.2224H31.9324" stroke="#334DA6" stroke-miterlimit="10" stroke-linecap="round" stroke-linejoin="round"/>
<path d="M36.5713 70.2224H39.5628" stroke="#334DA6" stroke-miterlimit="10" stroke-linecap="round" stroke-linejoin="round"/>
<path d="M47.1863 63.5299H48.8715" stroke="#334DA6" stroke-miterlimit="10" stroke-linecap="round" stroke-linejoin="round"/>
<path d="M47.1863 65.5363H48.8715" stroke="#334DA6" stroke-miterlimit="10" stroke-linecap="round" stroke-linejoin="round"/>
<path d="M47.1863 67.5426H48.8715" stroke="#334DA6" stroke-miterlimit="10" stroke-linecap="round" stroke-linejoin="round"/>
<path d="M47.1863 69.5489H48.8715" stroke="#334DA6" stroke-miterlimit="10" stroke-linecap="round" stroke-linejoin="round"/>
<path d="M12.0024 63.5299H13.6876" stroke="#334DA6" stroke-miterlimit="10" stroke-linecap="round" stroke-linejoin="round"/>
<path d="M12.0024 65.5363H13.6876" stroke="#334DA6" stroke-miterlimit="10" stroke-linecap="round" stroke-linejoin="round"/>
<path d="M12.0024 67.5426H13.6876" stroke="#334DA6" stroke-miterlimit="10" stroke-linecap="round" stroke-linejoin="round"/>
<path d="M12.0024 69.5489H13.6876" stroke="#334DA6" stroke-miterlimit="10" stroke-linecap="round" stroke-linejoin="round"/>
<path d="M2 56H21" stroke="#334DA6" stroke-miterlimit="10" stroke-linecap="round" stroke-linejoin="round"/>
<path d="M41 56L61 56" stroke="#334DA6" stroke-miterlimit="10" stroke-linecap="round" stroke-linejoin="round"/>
<path d="M47.1862 62.5445H43.1895V70.2224H47.1862V62.5445Z" stroke="#334DA6" stroke-miterlimit="10" stroke-linecap="round" stroke-linejoin="round"/>
<path d="M17.6843 62.5445H13.6875V70.2224H17.6843V62.5445Z" stroke="#334DA6" stroke-miterlimit="10" stroke-linecap="round" stroke-linejoin="round"/>
<path d="M30.9998 46.655C43.5884 46.655 53.7935 36.4348 53.7935 23.8275C53.7935 11.2202 43.5884 1 30.9998 1C18.4111 1 8.20605 11.2202 8.20605 23.8275C8.20605 36.4348 18.4111 46.655 30.9998 46.655Z" stroke="#334DA6" stroke-width="2" stroke-miterlimit="10" stroke-linecap="round" stroke-linejoin="round"/>
<path d="M30.9999 41.403C40.6922 41.403 48.5493 33.5342 48.5493 23.8275C48.5493 14.1208 40.6922 6.25201 30.9999 6.25201C21.3076 6.25201 13.4504 14.1208 13.4504 23.8275C13.4504 33.5342 21.3076 41.403 30.9999 41.403Z" stroke="#334DA6" stroke-miterlimit="10" stroke-linecap="round" stroke-linejoin="round"/>
<path d="M41.8884 23.8275C41.8884 17.8113 37.0196 12.9232 31.0002 12.9232C24.9809 12.9232 20.1121 17.7992 20.1121 23.8275C20.1121 27.624 22.062 30.9717 25.0051 32.9245C25.0051 32.9609 24.993 32.9973 24.993 33.0458C24.993 34.3558 26.0588 35.4232 27.3668 35.4232H34.6337C35.9417 35.4232 37.0075 34.3558 37.0075 33.0458C37.0075 33.0094 36.9954 32.9609 36.9954 32.9245C39.9506 30.9717 41.8884 27.624 41.8884 23.8275Z" stroke="#334DA6" stroke-width="2" stroke-miterlimit="10" stroke-linecap="round" stroke-linejoin="round"/>
<path d="M31.0003 10.6467C31.711 10.6467 32.2871 10.0706 32.2871 9.35996C32.2871 8.64932 31.711 8.07324 31.0003 8.07324C30.2897 8.07324 29.7136 8.64932 29.7136 9.35996C29.7136 10.0706 30.2897 10.6467 31.0003 10.6467Z" stroke="#334DA6" stroke-miterlimit="10"/>
<path d="M41.0001 35.8121C41.7107 35.8121 42.2868 35.2361 42.2868 34.5254C42.2868 33.8148 41.7107 33.2387 41.0001 33.2387C40.2895 33.2387 39.7134 33.8148 39.7134 34.5254C39.7134 35.2361 40.2895 35.8121 41.0001 35.8121Z" stroke="#334DA6" stroke-miterlimit="10"/>
<path d="M21.0001 35.8121C21.7107 35.8121 22.2868 35.2361 22.2868 34.5254C22.2868 33.8148 21.7107 33.2387 21.0001 33.2387C20.2895 33.2387 19.7134 33.8148 19.7134 34.5254C19.7134 35.2361 20.2895 35.8121 21.0001 35.8121Z" stroke="#334DA6" stroke-miterlimit="10"/>
</svg>
