<svg width="72" height="78" viewBox="0 0 72 78" fill="none" xmlns="http://www.w3.org/2000/svg">
<path d="M71 1H1V67H71V1Z" stroke="#334DA6" stroke-width="2" stroke-miterlimit="10" stroke-linecap="round" stroke-linejoin="round"/>
<path d="M67 5H5V63H67V5Z" stroke="#334DA6" stroke-miterlimit="10" stroke-linecap="round" stroke-linejoin="round"/>
<path d="M5.09668 39.5718H66.8806" stroke="#334DA6" stroke-miterlimit="10" stroke-linecap="round" stroke-linejoin="round"/>
<path d="M5.09668 43.7151H66.8806" stroke="#334DA6" stroke-miterlimit="10" stroke-linecap="round" stroke-linejoin="round"/>
<path d="M5.09668 14.9991H66.8806" stroke="#334DA6" stroke-miterlimit="10" stroke-linecap="round" stroke-linejoin="round"/>
<path d="M5.09668 19.1424H66.8806" stroke="#334DA6" stroke-miterlimit="10" stroke-linecap="round" stroke-linejoin="round"/>
<path d="M5.09668 24.9667H66.8806" stroke="#334DA6" stroke-miterlimit="10" stroke-linecap="round" stroke-linejoin="round"/>
<path d="M5.09668 29.1009H66.8806" stroke="#334DA6" stroke-miterlimit="10" stroke-linecap="round" stroke-linejoin="round"/>
<path d="M5.09668 9.18396H66.8806" stroke="#334DA6" stroke-miterlimit="10" stroke-linecap="round" stroke-linejoin="round"/>
<path d="M11.8736 70.7749C12.0024 71.2031 12.0759 71.6586 12.0759 72.1324C12.0759 74.7017 9.97018 76.7882 7.37707 76.7882C4.78397 76.7882 2.67822 74.7109 2.67822 72.1324C2.67822 69.5631 4.78397 67.4766 7.37707 67.4766" stroke="#334DA6" stroke-width="2" stroke-miterlimit="10" stroke-linecap="round" stroke-linejoin="round"/>
<path d="M18.9909 43.7151C18.9909 44.9998 17.9426 46.0384 16.6461 46.0384C15.3495 46.0384 14.3013 44.9998 14.3013 43.7151" stroke="#334DA6" stroke-miterlimit="10" stroke-linecap="round" stroke-linejoin="round"/>
<path d="M57.7588 43.7151C57.7588 44.9998 56.7105 46.0384 55.4139 46.0384C54.1174 46.0384 53.0691 44.9998 53.0691 43.7151" stroke="#334DA6" stroke-miterlimit="10" stroke-linecap="round" stroke-linejoin="round"/>
<path d="M18.9909 29.1009C18.9909 30.3856 17.9426 31.4242 16.6461 31.4242C15.3495 31.4242 14.3013 30.3856 14.3013 29.1009" stroke="#334DA6" stroke-miterlimit="10" stroke-linecap="round" stroke-linejoin="round"/>
<path d="M57.7588 29.1009C57.7588 30.3856 56.7105 31.4242 55.4139 31.4242C54.1174 31.4242 53.0691 30.3856 53.0691 29.1009" stroke="#334DA6" stroke-miterlimit="10" stroke-linecap="round" stroke-linejoin="round"/>
<path d="M18.9909 19.1425C18.9909 20.4271 17.9426 21.4658 16.6461 21.4658C15.3495 21.4658 14.3013 20.4271 14.3013 19.1425" stroke="#334DA6" stroke-miterlimit="10" stroke-linecap="round" stroke-linejoin="round"/>
<path d="M57.7588 19.1425C57.7588 20.4271 56.7105 21.4658 55.4139 21.4658C54.1174 21.4658 53.0691 20.4271 53.0691 19.1425" stroke="#334DA6" stroke-miterlimit="10" stroke-linecap="round" stroke-linejoin="round"/>
<path d="M18.9909 9.18396C18.9909 10.4686 17.9426 11.5073 16.6461 11.5073C15.3495 11.5073 14.3013 10.4686 14.3013 9.18396" stroke="#334DA6" stroke-miterlimit="10" stroke-linecap="round" stroke-linejoin="round"/>
<path d="M57.7588 9.18396C57.7588 10.4686 56.7105 11.5073 55.4139 11.5073C54.1174 11.5073 53.0691 10.4686 53.0691 9.18396" stroke="#334DA6" stroke-miterlimit="10" stroke-linecap="round" stroke-linejoin="round"/>
<path d="M7.37695 67.2671V72.1324L18.9907 67.2671H7.37695Z" stroke="#334DA6" stroke-miterlimit="10" stroke-linecap="round" stroke-linejoin="round"/>
<path d="M59.193 70.7749C59.0643 71.2031 58.9907 71.6586 58.9907 72.1324C58.9907 74.7017 61.0965 76.7882 63.6896 76.7882C66.2827 76.7882 68.3884 74.7017 68.3884 72.1324C68.3884 69.5631 66.2827 67.4766 63.6896 67.4766" stroke="#334DA6" stroke-width="2" stroke-miterlimit="10" stroke-linecap="round" stroke-linejoin="round"/>
<path d="M63.6896 67.2671V72.1324L52.0667 67.2671H63.6896Z" stroke="#334DA6" stroke-miterlimit="10" stroke-linecap="round" stroke-linejoin="round"/>
</svg>
