<svg width="82" height="85" viewBox="0 0 82 85" fill="none" xmlns="http://www.w3.org/2000/svg">
<path d="M55.1527 5.66272H44.616V14.0624H55.1527V5.66272Z" stroke="#334DA6" stroke-width="2" stroke-miterlimit="10" stroke-linecap="round" stroke-linejoin="round"/>
<path d="M71.2109 1H58.496C56.6385 1 55.1526 2.49814 55.1526 4.33293V17.3448H74.5712V4.33293C74.5543 2.49814 73.0515 1 71.2109 1Z" stroke="#334DA6" stroke-width="2" stroke-miterlimit="10" stroke-linecap="round" stroke-linejoin="round"/>
<path d="M44.6159 2.34662H31.6814C27.5275 2.34662 24.1504 5.69638 24.1504 9.85413C24.1504 13.9951 27.5107 17.3616 31.6814 17.3616H44.6159V2.34662Z" stroke="#334DA6" stroke-width="2" stroke-miterlimit="10" stroke-linecap="round" stroke-linejoin="round"/>
<path d="M34.383 43.1498L23.6099 25.7445C21.972 23.1017 18.7131 21.7888 15.7749 22.8324C11.7392 24.28 10.2026 28.9428 12.364 32.4272L28.5068 58.451H43.856H68.8638C71.0927 58.451 72.8826 56.6499 72.8826 54.4448V43.1498H34.383V43.1498Z" stroke="#334DA6" stroke-width="2" stroke-miterlimit="10" stroke-linecap="round" stroke-linejoin="round"/>
<path d="M72.8997 75.2504L67.834 66.8507H60.0327V58.451H32.4921V66.8507H24.6908L19.6251 75.2504H11.655V83.65H80.8698V75.2504H72.8997Z" stroke="#334DA6" stroke-width="2" stroke-miterlimit="10" stroke-linecap="round" stroke-linejoin="round"/>
<path d="M64.8619 24.4373C62.1609 24.4373 59.9895 23.057 59.9895 21.3401V20.1786H69.7343V21.3401C69.7343 23.0402 67.5629 24.4373 64.8619 24.4373Z" stroke="#334DA6" stroke-miterlimit="10" stroke-linecap="round" stroke-linejoin="round"/>
<path d="M64.8621 24.4373V27.6188" stroke="#334DA6" stroke-miterlimit="10" stroke-linecap="round" stroke-linejoin="round"/>
<path d="M25.4168 5.66272L12.4316 25.4752" stroke="#334DA6" stroke-width="2" stroke-miterlimit="10" stroke-linecap="round" stroke-linejoin="round"/>
<path d="M33.7753 17.3448L25.8728 29.3972" stroke="#334DA6" stroke-width="2" stroke-miterlimit="10" stroke-linecap="round" stroke-linejoin="round"/>
<path d="M26.9071 16.1936L21.959 23.5131" stroke="#334DA6" stroke-miterlimit="10" stroke-linecap="round" stroke-linejoin="round"/>
<path d="M18.5105 42.3418C17.0921 42.8805 15.5555 43.1666 13.9514 43.1666C6.8087 43.1666 1 37.3929 1 30.2557C1 23.1185 6.79182 17.3448 13.9514 17.3448C15.1503 17.3448 16.3154 17.5131 17.4298 17.8161" stroke="#334DA6" stroke-miterlimit="10" stroke-linecap="round" stroke-linejoin="round"/>
<path d="M53.0083 39.6467H76.6821" stroke="#334DA6" stroke-miterlimit="10" stroke-linecap="round" stroke-linejoin="round"/>
<path d="M64.8452 9.87097H74.5545" stroke="#334DA6" stroke-miterlimit="10" stroke-linecap="round" stroke-linejoin="round"/>
<path d="M45.0295 9.87097H54.7389" stroke="#334DA6" stroke-miterlimit="10" stroke-linecap="round" stroke-linejoin="round"/>
<path d="M32.4919 67.3375H60.0326" stroke="#334DA6" stroke-miterlimit="10" stroke-linecap="round" stroke-linejoin="round"/>
<path d="M32.4919 63.344H60.0326" stroke="#334DA6" stroke-miterlimit="10" stroke-linecap="round" stroke-linejoin="round"/>
<path d="M19.625 75.7877H72.8996" stroke="#334DA6" stroke-miterlimit="10" stroke-linecap="round" stroke-linejoin="round"/>
<path d="M17.9872 31.232C19.2089 31.232 20.1992 30.2448 20.1992 29.0269C20.1992 27.8091 19.2089 26.8218 17.9872 26.8218C16.7655 26.8218 15.7751 27.8091 15.7751 29.0269C15.7751 30.2448 16.7655 31.232 17.9872 31.232Z" stroke="#334DA6" stroke-miterlimit="10"/>
<path d="M31.0565 12.0593C32.2782 12.0593 33.2686 11.072 33.2686 9.85417C33.2686 8.63632 32.2782 7.64905 31.0565 7.64905C29.8348 7.64905 28.8445 8.63632 28.8445 9.85417C28.8445 11.072 29.8348 12.0593 31.0565 12.0593Z" stroke="#334DA6" stroke-miterlimit="10"/>
<path d="M38.6721 52.4416V58.451" stroke="#334DA6" stroke-miterlimit="10" stroke-linecap="round" stroke-linejoin="round"/>
<path d="M46.1863 52.4416V58.451" stroke="#334DA6" stroke-miterlimit="10" stroke-linecap="round" stroke-linejoin="round"/>
<path d="M53.7173 52.4416V58.451" stroke="#334DA6" stroke-miterlimit="10" stroke-linecap="round" stroke-linejoin="round"/>
</svg>
