<svg width="88" height="82" viewBox="0 0 88 82" fill="none" xmlns="http://www.w3.org/2000/svg">
<path d="M86.7446 58.0952V42.0993H1V58.0952H3.77403V71.8529L1 76.3777V80.9024H17.8561L21.7089 76.3777H66.026L69.8789 80.9024H86.7446V76.3777L83.9706 71.8529V58.0952H86.7446Z" stroke="#334DA6" stroke-width="2" stroke-miterlimit="10" stroke-linecap="round" stroke-linejoin="round"/>
<path d="M7.64632 17.2563V28.7275L4.85303 30.657V35.6835V42.0992H7.64632H10.43H13.2233V17.2563H7.64632Z" stroke="#334DA6" stroke-width="2" stroke-miterlimit="10" stroke-linecap="round" stroke-linejoin="round"/>
<path d="M4.85303 35.6836H8.18572" stroke="#334DA6" stroke-miterlimit="10" stroke-linecap="round" stroke-linejoin="round"/>
<path d="M80.0987 17.2563V28.7275L82.892 30.657V35.6835V42.0992H80.0987H77.315H74.5217V17.2563H80.0987Z" stroke="#334DA6" stroke-width="2" stroke-miterlimit="10" stroke-linecap="round" stroke-linejoin="round"/>
<path d="M82.892 35.6836H79.5593" stroke="#334DA6" stroke-miterlimit="10" stroke-linecap="round" stroke-linejoin="round"/>
<path d="M34.1729 24.6176H13.2231V17.7144H74.5216V24.6176H44.8356" stroke="#334DA6" stroke-miterlimit="10" stroke-linecap="round" stroke-linejoin="round"/>
<path d="M43.3619 5.93964H35.7237C33.595 5.93964 31.8708 7.66658 31.8708 9.79872V18.2308H34.3174V26.6629C34.3174 28.7951 36.0415 30.522 38.1702 30.522H40.9154C43.044 30.522 44.7682 28.7951 44.7682 26.6629V18.2308H47.2147V9.78908C47.2051 7.66658 45.481 5.93964 43.3619 5.93964Z" stroke="#334DA6" stroke-width="2" stroke-miterlimit="10" stroke-linecap="round" stroke-linejoin="round"/>
<path d="M74.5216 17.2564V13.2719H47.2051" stroke="#334DA6" stroke-miterlimit="10" stroke-linecap="round" stroke-linejoin="round"/>
<path d="M31.8707 13.2719H25.1475C21.7666 13.2719 19.0215 10.5223 19.0215 7.13595C19.0215 3.7496 21.7666 1 25.1475 1H39.5378V5.92999" stroke="#334DA6" stroke-miterlimit="10" stroke-linecap="round" stroke-linejoin="round"/>
<path d="M39.5381 30.5027V34.4776" stroke="#334DA6" stroke-width="2" stroke-miterlimit="10" stroke-linecap="round" stroke-linejoin="round"/>
<path d="M3.77393 57.5852H83.9705" stroke="#334DA6" stroke-miterlimit="10" stroke-linecap="round" stroke-linejoin="round"/>
<path d="M67.4612 50.0973H86.3111" stroke="#334DA6" stroke-miterlimit="10" stroke-linecap="round" stroke-linejoin="round"/>
<path d="M21.815 53.0205C23.4269 53.0205 24.7335 51.7117 24.7335 50.0972C24.7335 48.4827 23.4269 47.174 21.815 47.174C20.2031 47.174 18.8965 48.4827 18.8965 50.0972C18.8965 51.7117 20.2031 53.0205 21.815 53.0205Z" stroke="#334DA6" stroke-miterlimit="10" stroke-linecap="round" stroke-linejoin="round"/>
<path d="M10.3045 53.0205C11.9164 53.0205 13.223 51.7117 13.223 50.0972C13.223 48.4827 11.9164 47.174 10.3045 47.174C8.69265 47.174 7.38599 48.4827 7.38599 50.0972C7.38599 51.7117 8.69265 53.0205 10.3045 53.0205Z" stroke="#334DA6" stroke-miterlimit="10" stroke-linecap="round" stroke-linejoin="round"/>
<path d="M33.3255 53.0205C34.9373 53.0205 36.244 51.7117 36.244 50.0972C36.244 48.4827 34.9373 47.174 33.3255 47.174C31.7136 47.174 30.407 48.4827 30.407 50.0972C30.407 51.7117 31.7136 53.0205 33.3255 53.0205Z" stroke="#334DA6" stroke-miterlimit="10" stroke-linecap="round" stroke-linejoin="round"/>
<path d="M60.1699 69.391C61.6115 69.391 62.7801 68.2204 62.7801 66.7765C62.7801 65.3325 61.6115 64.1619 60.1699 64.1619C58.7282 64.1619 57.5596 65.3325 57.5596 66.7765C57.5596 68.2204 58.7282 69.391 60.1699 69.391Z" stroke="#334DA6" stroke-miterlimit="10" stroke-linecap="round" stroke-linejoin="round"/>
<path d="M61.1523 65.9371L63.0306 64.0558" stroke="#334DA6" stroke-miterlimit="10" stroke-linecap="round" stroke-linejoin="round"/>
<path d="M72.2001 69.391C73.6418 69.391 74.8104 68.2204 74.8104 66.7765C74.8104 65.3325 73.6418 64.1619 72.2001 64.1619C70.7585 64.1619 69.5898 65.3325 69.5898 66.7765C69.5898 68.2204 70.7585 69.391 72.2001 69.391Z" stroke="#334DA6" stroke-miterlimit="10" stroke-linecap="round" stroke-linejoin="round"/>
<path d="M73.1826 65.9371L75.0609 64.0558" stroke="#334DA6" stroke-miterlimit="10" stroke-linecap="round" stroke-linejoin="round"/>
<path d="M64.8896 41.9063V39.726" stroke="#334DA6" stroke-miterlimit="10" stroke-linecap="round" stroke-linejoin="round"/>
<path d="M36.8699 41.9064V39.726" stroke="#334DA6" stroke-miterlimit="10" stroke-linecap="round" stroke-linejoin="round"/>
<path d="M50.875 41.9064V39.726" stroke="#334DA6" stroke-miterlimit="10" stroke-linecap="round" stroke-linejoin="round"/>
<path d="M37.4575 9.57678H41.6186" stroke="#334DA6" stroke-miterlimit="10" stroke-linecap="round" stroke-linejoin="round"/>
<path d="M37.4575 11.4196H41.6186" stroke="#334DA6" stroke-miterlimit="10" stroke-linecap="round" stroke-linejoin="round"/>
<path d="M37.4575 13.2719H41.6186" stroke="#334DA6" stroke-miterlimit="10" stroke-linecap="round" stroke-linejoin="round"/>
<path d="M22.8552 41.9063V39.726" stroke="#334DA6" stroke-miterlimit="10" stroke-linecap="round" stroke-linejoin="round"/>
<path d="M12.1541 68.5902V63.4866" stroke="#334DA6" stroke-miterlimit="10" stroke-linecap="round" stroke-linejoin="round"/>
<path d="M15.1785 68.5902V63.4866" stroke="#334DA6" stroke-miterlimit="10" stroke-linecap="round" stroke-linejoin="round"/>
<path d="M18.2031 68.5902V63.4866" stroke="#334DA6" stroke-miterlimit="10" stroke-linecap="round" stroke-linejoin="round"/>
<path d="M21.2273 68.5902V63.4866" stroke="#334DA6" stroke-miterlimit="10" stroke-linecap="round" stroke-linejoin="round"/>
<path d="M24.2517 68.5902V63.4866" stroke="#334DA6" stroke-miterlimit="10" stroke-linecap="round" stroke-linejoin="round"/>
<path d="M27.2764 68.5902V63.4866" stroke="#334DA6" stroke-miterlimit="10" stroke-linecap="round" stroke-linejoin="round"/>
<path d="M30.3008 68.5902V63.4866" stroke="#334DA6" stroke-miterlimit="10" stroke-linecap="round" stroke-linejoin="round"/>
<path d="M33.3252 68.5902V63.4866" stroke="#334DA6" stroke-miterlimit="10" stroke-linecap="round" stroke-linejoin="round"/>
<path d="M39.5379 20.8402C38.6807 20.8402 37.9775 20.1456 37.9775 19.2773V17.7144H41.0983V19.2773C41.0983 20.1359 40.3952 20.8402 39.5379 20.8402Z" stroke="#334DA6" stroke-miterlimit="10" stroke-linecap="round" stroke-linejoin="round"/>
</svg>
