<svg width="68" height="86" viewBox="0 0 68 86" fill="none" xmlns="http://www.w3.org/2000/svg">
<path d="M1.33252 1.31421V10.5091H10.6754L13.7968 17.8736H54.5151L57.6365 10.5091H66.9794V1.31421H1.33252Z" stroke="#334DA6" stroke-width="2" stroke-miterlimit="10" stroke-linecap="round" stroke-linejoin="round"/>
<path d="M49.8382 17.8736H18.4735L10.6753 27.1643L18.4735 41.4675H19.8251V52.3652H24.2337V63.2735H44.078V52.3652H48.4866V41.4675H49.8382L57.6364 27.1643L49.8382 17.8736Z" stroke="#334DA6" stroke-width="2" stroke-miterlimit="10" stroke-linecap="round" stroke-linejoin="round"/>
<path d="M19.8252 41.0844H26.7117V37.8385C26.7117 33.7625 30.0477 30.4528 34.156 30.4528C38.2642 30.4528 41.6002 33.7625 41.6002 37.8385V41.0844H48.4867" stroke="#334DA6" stroke-width="1.3" stroke-miterlimit="10" stroke-linecap="round" stroke-linejoin="round"/>
<path d="M24.2339 51.9821H44.0781" stroke="#334DA6" stroke-width="1.3" stroke-miterlimit="10" stroke-linecap="round" stroke-linejoin="round"/>
<path d="M9.43115 10.1367H57.6366" stroke="#334DA6" stroke-width="1.3" stroke-miterlimit="10" stroke-linecap="round" stroke-linejoin="round"/>
<path d="M34.156 47.1505V51.1945" stroke="#334DA6" stroke-miterlimit="10" stroke-linecap="round" stroke-linejoin="round"/>
<path d="M40.7314 47.1505V51.1945" stroke="#334DA6" stroke-miterlimit="10" stroke-linecap="round" stroke-linejoin="round"/>
<path d="M27.5806 47.1505V51.1945" stroke="#334DA6" stroke-miterlimit="10" stroke-linecap="round" stroke-linejoin="round"/>
<path d="M34.156 13.8295V17.8736" stroke="#334DA6" stroke-miterlimit="10" stroke-linecap="round" stroke-linejoin="round"/>
<path d="M20.1577 46.7225H48.4866" stroke="#334DA6" stroke-miterlimit="10" stroke-linecap="round" stroke-linejoin="round"/>
<path d="M14.9436 21.8056L52.7182 21.8056" stroke="#334DA6" stroke-miterlimit="10" stroke-linecap="round" stroke-linejoin="round"/>
<path d="M24.2336 59.8366L44.0781 59.8366" stroke="#334DA6" stroke-miterlimit="10" stroke-linecap="round" stroke-linejoin="round"/>
<path d="M40.7314 13.8295V17.8736" stroke="#334DA6" stroke-miterlimit="10" stroke-linecap="round" stroke-linejoin="round"/>
<path d="M27.5806 13.8295V17.8736" stroke="#334DA6" stroke-miterlimit="10" stroke-linecap="round" stroke-linejoin="round"/>
<path d="M39.7659 78.8644L34.1559 85.0582L28.5459 78.8644V63.2735H39.7659V78.8644Z" stroke="#334DA6" stroke-width="1.3" stroke-miterlimit="10" stroke-linecap="round" stroke-linejoin="round"/>
<path d="M28.5459 67.0409L39.7659 78.8645" stroke="#334DA6" stroke-miterlimit="10" stroke-linecap="round" stroke-linejoin="round"/>
<path d="M39.7659 72.8235L30.7041 63.2743" stroke="#334DA6" stroke-miterlimit="10" stroke-linecap="round" stroke-linejoin="round"/>
<path d="M28.5459 72.9526L36.9995 81.8609" stroke="#334DA6" stroke-miterlimit="10" stroke-linecap="round" stroke-linejoin="round"/>
<path d="M46.7814 30.9802C48.0373 30.9802 49.0554 29.9701 49.0554 28.7241C49.0554 27.478 48.0373 26.4679 46.7814 26.4679C45.5254 26.4679 44.5073 27.478 44.5073 28.7241C44.5073 29.9701 45.5254 30.9802 46.7814 30.9802Z" stroke="#334DA6" stroke-miterlimit="10"/>
<path d="M21.5309 30.9802C22.7868 30.9802 23.8049 29.9701 23.8049 28.7241C23.8049 27.478 22.7868 26.4679 21.5309 26.4679C20.275 26.4679 19.2568 27.478 19.2568 28.7241C19.2568 29.9701 20.275 30.9802 21.5309 30.9802Z" stroke="#334DA6" stroke-miterlimit="10"/>
</svg>
