<svg width="89" height="42" viewBox="0 0 89 42" fill="none" xmlns="http://www.w3.org/2000/svg">
<path d="M57.7335 3.12653H45.2045L44.0795 1.25H39.9511V4.54733H36.0551V1.25H29.7554V7.27276L1.25 12.956V28.5579L29.7554 34.2322V40.4784H36.0551V37.181H39.9511V40.4784H44.0795L45.2045 38.6018H57.7335L62.3801 33.6514V8.07699L57.7335 3.12653Z" stroke="#334DA6" stroke-width="2" stroke-miterlimit="10" stroke-linecap="round" stroke-linejoin="round"/>
<path d="M83.8351 11.2671V4.8869H78.2859V8.14849H62.3801V33.5799H78.2859V36.8415H83.8351V30.4702H87.2128V11.2671H83.8351Z" stroke="#334DA6" stroke-width="2" stroke-miterlimit="10" stroke-linecap="round" stroke-linejoin="round"/>
<path d="M30.3032 7.41638V34.3848" stroke="#334DA6" stroke-miterlimit="10" stroke-linecap="round" stroke-linejoin="round"/>
<path d="M35.4917 16.5482V4.54736" stroke="#334DA6" stroke-miterlimit="10" stroke-linecap="round" stroke-linejoin="round"/>
<path d="M35.4917 37.4433V25.4424" stroke="#334DA6" stroke-miterlimit="10" stroke-linecap="round" stroke-linejoin="round"/>
<path d="M40.5034 17.3792V4.54736" stroke="#334DA6" stroke-miterlimit="10" stroke-linecap="round" stroke-linejoin="round"/>
<path d="M45.012 38.8878V3.198" stroke="#334DA6" stroke-miterlimit="10" stroke-linecap="round" stroke-linejoin="round"/>
<path d="M57.7156 38.6018V3.198" stroke="#334DA6" stroke-miterlimit="10" stroke-linecap="round" stroke-linejoin="round"/>
<path d="M83.2905 30.4658V11.2626" stroke="#334DA6" stroke-miterlimit="10" stroke-linecap="round" stroke-linejoin="round"/>
<path d="M40.5034 37.1811V24.3492" stroke="#334DA6" stroke-miterlimit="10" stroke-linecap="round" stroke-linejoin="round"/>
<path d="M37.9169 25.2165H30.3125V16.5934H37.9169C40.3028 16.5934 42.2329 18.5236 42.2329 20.9095C42.224 23.2864 40.2938 25.2165 37.9169 25.2165Z" stroke="#334DA6" stroke-miterlimit="10" stroke-linecap="round" stroke-linejoin="round"/>
<path d="M80.4484 11.5709H76.1145V18.1298H80.4484V11.5709Z" stroke="#334DA6" stroke-miterlimit="10" stroke-linecap="round" stroke-linejoin="round"/>
<path d="M76.0698 16.6197H70.1922C69.4706 16.6197 68.8933 15.8244 68.8933 14.8504C68.8933 13.8674 69.4771 13.0811 70.1922 13.0811H76.0698V16.6197V16.6197Z" stroke="#334DA6" stroke-miterlimit="10" stroke-linecap="round" stroke-linejoin="round"/>
<path d="M80.4484 23.5985H76.1145V30.1574H80.4484V23.5985Z" stroke="#334DA6" stroke-miterlimit="10" stroke-linecap="round" stroke-linejoin="round"/>
<path d="M76.0698 28.6474H70.1922C69.4706 28.6474 68.8933 27.8521 68.8933 26.8781C68.8933 25.8951 69.4771 25.1088 70.1922 25.1088H76.0698V28.6474V28.6474Z" stroke="#334DA6" stroke-miterlimit="10" stroke-linecap="round" stroke-linejoin="round"/>
</svg>
