<svg width="77" height="50" viewBox="0 0 77 50" fill="none" xmlns="http://www.w3.org/2000/svg">
<path d="M63.8643 40.1327L66.6791 42.9279L71.8396 37.8033" stroke="#AABEFF" stroke-width="2" stroke-linecap="round" stroke-linejoin="round"/>
<path d="M70.4321 31.7471V4C70.4321 2.34315 69.089 1 67.4321 1H4C2.34315 1 1 2.34315 1 4V39.9279C1 41.5847 2.34315 42.9279 4 42.9279H59.1728" stroke="#AABEFF" stroke-width="2" stroke-miterlimit="10" stroke-linejoin="round"/>
<path d="M76.4998 40.1327C76.4998 44.9991 72.5262 48.95 67.6171 48.95C62.708 48.95 58.7344 44.9991 58.7344 40.1327C58.7344 35.2664 62.708 31.3154 67.6171 31.3154C72.5262 31.3154 76.4998 35.2664 76.4998 40.1327Z" stroke="#AABEFF"/>
<path d="M1 10.3173H70.4321" stroke="#AABEFF"/>
<path d="M1 18.7029H70.4321" stroke="#AABEFF"/>
<path d="M8.5061 29.952H35.716" stroke="#AABEFF" stroke-linecap="round" stroke-linejoin="round"/>
<path d="M8.5061 35.5423H27.2715" stroke="#AABEFF" stroke-linecap="round" stroke-linejoin="round"/>
</svg>
