<svg width="20" height="20" viewBox="0 0 20 20" fill="none" xmlns="http://www.w3.org/2000/svg">
<g>
<path fill-rule="evenodd" clip-rule="evenodd" d="M10.0008 0.400391C7.39358 0.400391 7.06637 0.411791 6.04236 0.458391C5.02035 0.505191 4.32274 0.666993 3.71234 0.904396C3.08093 1.1496 2.54532 1.4776 2.01172 2.01141C1.47771 2.54501 1.14971 3.08062 0.903707 3.71183C0.665705 4.32243 0.503704 5.02024 0.457703 6.04185C0.411903 7.06586 0.399902 7.39326 0.399902 10.0005C0.399902 12.6077 0.411502 12.9339 0.457903 13.9579C0.504903 14.9799 0.666705 15.6775 0.903908 16.288C1.14931 16.9194 1.47731 17.455 2.01112 17.9886C2.54453 18.5226 3.08013 18.8514 3.71114 19.0966C4.32194 19.334 5.01975 19.4958 6.04156 19.5426C7.06557 19.5892 7.39258 19.6006 9.9996 19.6006C12.607 19.6006 12.9332 19.5892 13.9572 19.5426C14.9793 19.4958 15.6777 19.334 16.2885 19.0966C16.9197 18.8514 17.4545 18.5226 17.9879 17.9886C18.5219 17.455 18.8499 16.9194 19.0959 16.2882C19.3319 15.6776 19.4939 14.9797 19.5419 13.9581C19.5879 12.9341 19.5999 12.6077 19.5999 10.0005C19.5999 7.39326 19.5879 7.06606 19.5419 6.04205C19.4939 5.02004 19.3319 4.32243 19.0959 3.71202C18.8499 3.08062 18.5219 2.54501 17.9879 2.01141C17.4539 1.4774 16.9199 1.1494 16.2879 0.904396C15.6759 0.666993 14.9779 0.505191 13.9558 0.458391C12.9318 0.411791 12.6058 0.400391 9.9978 0.400391H10.0008ZM9.13959 2.13041C9.3952 2.13001 9.6804 2.13041 10.0008 2.13041C12.564 2.13041 12.8678 2.13961 13.88 2.18561C14.8161 2.22841 15.3241 2.38481 15.6625 2.51621C16.1105 2.69022 16.4299 2.89822 16.7657 3.23422C17.1017 3.57022 17.3097 3.89023 17.4841 4.33823C17.6155 4.67624 17.7721 5.18424 17.8147 6.12025C17.8607 7.13226 17.8707 7.43626 17.8707 9.99829C17.8707 12.5603 17.8607 12.8643 17.8147 13.8763C17.7719 14.8123 17.6155 15.3203 17.4841 15.6583C17.3101 16.1064 17.1017 16.4254 16.7657 16.7612C16.4297 17.0972 16.1107 17.3052 15.6625 17.4792C15.3245 17.6112 14.8161 17.7672 13.88 17.81C12.868 17.856 12.564 17.866 10.0008 17.866C7.43738 17.866 7.13357 17.856 6.12156 17.81C5.18555 17.7668 4.67755 17.6104 4.33894 17.479C3.89094 17.305 3.57094 17.097 3.23493 16.761C2.89893 16.425 2.69093 16.1058 2.51653 15.6575C2.38512 15.3195 2.22852 14.8115 2.18592 13.8755C2.13992 12.8635 2.13072 12.5595 2.13072 9.99589C2.13072 7.43226 2.13992 7.12986 2.18592 6.11785C2.22872 5.18184 2.38512 4.67383 2.51653 4.33543C2.69053 3.88743 2.89893 3.56742 3.23493 3.23142C3.57094 2.89542 3.89094 2.68741 4.33894 2.51301C4.67735 2.38101 5.18555 2.22501 6.12156 2.18201C7.00717 2.14201 7.35038 2.13001 9.13959 2.12801V2.13041ZM15.1253 3.72443C14.4892 3.72443 13.9732 4.23983 13.9732 4.87604C13.9732 5.51204 14.4892 6.02805 15.1253 6.02805C15.7613 6.02805 16.2773 5.51204 16.2773 4.87604C16.2773 4.24003 15.7613 3.72403 15.1253 3.72403V3.72443ZM10.0008 5.07044C7.27817 5.07044 5.07075 7.27786 5.07075 10.0005C5.07075 12.7231 7.27817 14.9295 10.0008 14.9295C12.7234 14.9295 14.9301 12.7231 14.9301 10.0005C14.9301 7.27786 12.7232 5.07044 10.0006 5.07044H10.0008ZM10.0008 6.80046C11.768 6.80046 13.2008 8.23307 13.2008 10.0005C13.2008 11.7677 11.768 13.2005 10.0008 13.2005C8.23338 13.2005 6.80077 11.7677 6.80077 10.0005C6.80077 8.23307 8.23338 6.80046 10.0008 6.80046Z" fill="#B7BBE2"/>
</g>
</svg>
