<svg width="40" height="50" viewBox="0 0 40 50" fill="none" xmlns="http://www.w3.org/2000/svg">
<path d="M0 0H26L40 14V50H0V0Z" fill="#1D337E"/>
<path d="M26 14V0L40 14H26Z" fill="#334DA6"/>
<path d="M7 43H8.59021V39.6211H10.2704C12.2978 39.6211 13.3866 38.2344 13.3866 36.3105C13.3866 34.4014 12.3107 33 10.2919 33H7V43ZM8.59021 38.1318V34.5137H10.0475C11.2391 34.5137 11.7663 35.2461 11.7663 36.3105C11.7663 37.375 11.2391 38.1318 10.0561 38.1318H8.59021Z" fill="#AABEFF"/>
<path d="M19.6737 43C22.3483 43 23.9343 41.1152 23.9343 37.9902C23.9343 34.875 22.3483 33 19.7337 33H16.699V43H19.6737ZM18.2892 41.4326V34.5674H19.6437C21.4268 34.5674 22.3569 35.7002 22.3569 37.9902C22.3569 40.29 21.4268 41.4326 19.5966 41.4326H18.2892Z" fill="#AABEFF"/>
<path d="M27.3764 43H28.9666V38.752H32.6142V37.2334H28.9666V34.5186H33V33H27.3764V43Z" fill="#AABEFF"/>
</svg>
