<svg width="20" height="20" viewBox="0 0 20 20" fill="none" xmlns="http://www.w3.org/2000/svg">
<path fill-rule="evenodd" clip-rule="evenodd" d="M8.40004 3C11.3824 3 13.8 5.41766 13.8 8.4C13.8 9.9112 13.1806 11.2759 12.1792 12.2572C11.2042 13.2126 9.87173 13.8 8.40004 13.8C5.4177 13.8 3.00004 11.3823 3.00004 8.4C3.00004 5.41766 5.4177 3 8.40004 3ZM15.8 8.4C15.8 4.31309 12.4869 1 8.40004 1C4.31313 1 1.00004 4.31309 1.00004 8.4C1.00004 12.4869 4.31313 15.8 8.40004 15.8C10.0618 15.8 11.5968 15.2513 12.8319 14.3266L17.2994 18.7135L18.7007 17.2865L14.2571 12.9231C15.2238 11.6728 15.8 10.1031 15.8 8.4Z" fill="white"/>
</svg>
