<svg xmlns="http://www.w3.org/2000/svg">
<symbol id="arrow-prev" viewBox="0 0 25 16"> <path d="M2 7.99999L25 7.99999M2 7.99999L9 1M2 7.99999L9 15" stroke-width="2"/> </symbol>
<symbol id="catalog-burger" viewBox="0 0 22 18"> <rect width="22" height="2" rx="1"/> <rect y="16" width="22" height="2" rx="1"/> <rect y="8" width="18" height="2" rx="1"/> </symbol>
<symbol id="catalog-icon-1" viewBox="0 0 87 90"> <rect x="35.9631" y="9.93515" width="4.15801" height="12.4203"/> <path d="M47.3977 22.3554H51.5557V34.7757L47.3977 30.6356V22.3554Z"/> <rect x="2.69873" y="8.90012" width="4.15801" height="72.4515"/> <path d="M45.7861 69.6214L32.6758 55.8211L36.1259 54.4411L49.9261 68.9314V82.0416H45.7861V69.6214Z"/> <path d="M64.6827 61.813C59.2121 64.2936 59.2121 72.7988 64.6827 75.2795C55.7929 73.5076 55.7929 62.8761 64.6827 61.813Z"/> <path d="M14.7101 9.03815H2V82.0417H44.9327V68.2828L26.4679 49.8042V39.247L35.7693 29.9456V2H20.8512L14.7101 9.03815Z" stroke-width="2" stroke-miterlimit="10" stroke-linecap="round" stroke-linejoin="round"/> <path d="M35.7693 9.63156H60.941L66.8613 15.5381V22.4934H35.7693V9.63156Z" stroke-width="2" stroke-miterlimit="10" stroke-linecap="round" stroke-linejoin="round"/> <path d="M47.4858 22.4934V30.4286L51.1429 35.9763H56.8286L60.4995 30.4286V22.4934H47.4858Z" stroke-width="2" stroke-miterlimit="10" stroke-linecap="round" stroke-linejoin="round"/> <path d="M45.9399 30.2768H62.0311" stroke-miterlimit="10" stroke-linecap="round" stroke-linejoin="round"/> <path d="M31.3948 54.7309H64.9295C72.4644 54.7309 78.5779 60.8444 78.5779 68.3793C78.5779 75.9143 72.4644 82.0278 64.9295 82.0278H44.9329" stroke-width="2" stroke-miterlimit="10"/> <path d="M64.8879 75.2795C68.6835 75.2795 71.7605 72.1964 71.7605 68.3932C71.7605 64.59 68.6835 61.5068 64.8879 61.5068C61.0923 61.5068 58.0154 64.59 58.0154 68.3932C58.0154 72.1964 61.0923 75.2795 64.8879 75.2795Z" stroke-miterlimit="10"/> <path d="M25.1706 70.9048C26.5577 70.9048 27.6822 69.7803 27.6822 68.3932C27.6822 67.006 26.5577 65.8815 25.1706 65.8815C23.7834 65.8815 22.6589 67.006 22.6589 68.3932C22.6589 69.7803 23.7834 70.9048 25.1706 70.9048Z" stroke-miterlimit="10"/> <path d="M64.8879 70.9048C66.275 70.9048 67.3995 69.7803 67.3995 68.3932C67.3995 67.006 66.275 65.8815 64.8879 65.8815C63.5007 65.8815 62.3762 67.006 62.3762 68.3932C62.3762 69.7803 63.5007 70.9048 64.8879 70.9048Z" stroke-miterlimit="10"/> <path d="M25.1706 18.5741C26.5577 18.5741 27.6822 17.4496 27.6822 16.0625C27.6822 14.6753 26.5577 13.5508 25.1706 13.5508C23.7834 13.5508 22.6589 14.6753 22.6589 16.0625C22.6589 17.4496 23.7834 18.5741 25.1706 18.5741Z" stroke-miterlimit="10"/> <path d="M13.5646 70.9048C14.9518 70.9048 16.0763 69.7803 16.0763 68.3932C16.0763 67.006 14.9518 65.8815 13.5646 65.8815C12.1775 65.8815 11.053 67.006 11.053 68.3932C11.053 69.7803 12.1775 70.9048 13.5646 70.9048Z" stroke-miterlimit="10"/> <path d="M58.0017 68.3932H44.9329" stroke-miterlimit="10"/> <path d="M44.9327 77.2936L2 77.2936" stroke-miterlimit="10"/> <path d="M10.9705 28.2481H17.4152" stroke-miterlimit="10" stroke-linecap="round" stroke-linejoin="round"/> <path d="M35.7693 16.1453H43.7109" stroke-miterlimit="10" stroke-linecap="round" stroke-linejoin="round"/> <path d="M10.9705 32.2088H17.4152" stroke-miterlimit="10" stroke-linecap="round" stroke-linejoin="round"/> <path d="M10.9705 36.1557H17.4152" stroke-miterlimit="10" stroke-linecap="round" stroke-linejoin="round"/> <path d="M53.9858 42.3244C52.5782 42.3244 51.4465 41.1928 51.4465 39.7852V38.833H56.525V39.7852C56.525 41.1928 55.3796 42.3244 53.9858 42.3244Z" stroke-miterlimit="10" stroke-linecap="round" stroke-linejoin="round"/> </symbol>
<symbol id="catalog-icon-2" viewBox="0 0 62 83"> <path d="M41.6823 52.283C41.6823 58.19 36.8983 62.9811 31 62.9811C25.1017 62.9811 20.3177 58.19 20.3177 52.283H1C1 67.372 12.1062 79.8652 26.5793 82V79.5377C26.5793 77.0876 28.5656 75.1105 31 75.1105C33.4344 75.1105 35.4207 77.0997 35.4207 79.5377V82C49.8938 79.8531 61 67.372 61 52.283H41.6823Z" stroke-width="2" stroke-miterlimit="10" stroke-linecap="round" stroke-linejoin="round"/> <path d="M3.36182 52.283V47.88" stroke-miterlimit="10" stroke-linecap="round" stroke-linejoin="round"/> <path d="M6.99512 52.283V47.88" stroke-miterlimit="10" stroke-linecap="round" stroke-linejoin="round"/> <path d="M10.6284 52.283V47.88" stroke-miterlimit="10" stroke-linecap="round" stroke-linejoin="round"/> <path d="M14.2617 52.283V47.88" stroke-miterlimit="10" stroke-linecap="round" stroke-linejoin="round"/> <path d="M17.8955 52.283V47.88" stroke-miterlimit="10" stroke-linecap="round" stroke-linejoin="round"/> <path d="M44.1895 52.283V47.88" stroke-miterlimit="10" stroke-linecap="round" stroke-linejoin="round"/> <path d="M47.8228 52.283V47.88" stroke-miterlimit="10" stroke-linecap="round" stroke-linejoin="round"/> <path d="M51.4563 52.283V47.88" stroke-miterlimit="10" stroke-linecap="round" stroke-linejoin="round"/> <path d="M55.0896 52.283V47.88" stroke-miterlimit="10" stroke-linecap="round" stroke-linejoin="round"/> <path d="M58.7229 52.283V47.88" stroke-miterlimit="10" stroke-linecap="round" stroke-linejoin="round"/> <path d="M21.3108 70.2224H24.3144" stroke-miterlimit="10" stroke-linecap="round" stroke-linejoin="round"/> <path d="M28.9409 70.2224H31.9324" stroke-miterlimit="10" stroke-linecap="round" stroke-linejoin="round"/> <path d="M36.5713 70.2224H39.5628" stroke-miterlimit="10" stroke-linecap="round" stroke-linejoin="round"/> <path d="M47.1863 63.5299H48.8715" stroke-miterlimit="10" stroke-linecap="round" stroke-linejoin="round"/> <path d="M47.1863 65.5363H48.8715" stroke-miterlimit="10" stroke-linecap="round" stroke-linejoin="round"/> <path d="M47.1863 67.5426H48.8715" stroke-miterlimit="10" stroke-linecap="round" stroke-linejoin="round"/> <path d="M47.1863 69.5489H48.8715" stroke-miterlimit="10" stroke-linecap="round" stroke-linejoin="round"/> <path d="M12.0024 63.5299H13.6876" stroke-miterlimit="10" stroke-linecap="round" stroke-linejoin="round"/> <path d="M12.0024 65.5363H13.6876" stroke-miterlimit="10" stroke-linecap="round" stroke-linejoin="round"/> <path d="M12.0024 67.5426H13.6876" stroke-miterlimit="10" stroke-linecap="round" stroke-linejoin="round"/> <path d="M12.0024 69.5489H13.6876" stroke-miterlimit="10" stroke-linecap="round" stroke-linejoin="round"/> <path d="M2 56H21" stroke-miterlimit="10" stroke-linecap="round" stroke-linejoin="round"/> <path d="M41 56L61 56" stroke-miterlimit="10" stroke-linecap="round" stroke-linejoin="round"/> <path d="M47.1862 62.5445H43.1895V70.2224H47.1862V62.5445Z" stroke-miterlimit="10" stroke-linecap="round" stroke-linejoin="round"/> <path d="M17.6843 62.5445H13.6875V70.2224H17.6843V62.5445Z" stroke-miterlimit="10" stroke-linecap="round" stroke-linejoin="round"/> <path d="M30.9998 46.655C43.5884 46.655 53.7935 36.4348 53.7935 23.8275C53.7935 11.2202 43.5884 1 30.9998 1C18.4111 1 8.20605 11.2202 8.20605 23.8275C8.20605 36.4348 18.4111 46.655 30.9998 46.655Z" stroke-width="2" stroke-miterlimit="10" stroke-linecap="round" stroke-linejoin="round"/> <path d="M30.9999 41.403C40.6922 41.403 48.5493 33.5342 48.5493 23.8275C48.5493 14.1208 40.6922 6.25201 30.9999 6.25201C21.3076 6.25201 13.4504 14.1208 13.4504 23.8275C13.4504 33.5342 21.3076 41.403 30.9999 41.403Z" stroke-miterlimit="10" stroke-linecap="round" stroke-linejoin="round"/> <path d="M41.8884 23.8275C41.8884 17.8113 37.0196 12.9232 31.0002 12.9232C24.9809 12.9232 20.1121 17.7992 20.1121 23.8275C20.1121 27.624 22.062 30.9717 25.0051 32.9245C25.0051 32.9609 24.993 32.9973 24.993 33.0458C24.993 34.3558 26.0588 35.4232 27.3668 35.4232H34.6337C35.9417 35.4232 37.0075 34.3558 37.0075 33.0458C37.0075 33.0094 36.9954 32.9609 36.9954 32.9245C39.9506 30.9717 41.8884 27.624 41.8884 23.8275Z" stroke-width="2" stroke-miterlimit="10" stroke-linecap="round" stroke-linejoin="round"/> <path d="M31.0003 10.6467C31.711 10.6467 32.2871 10.0706 32.2871 9.35996C32.2871 8.64932 31.711 8.07324 31.0003 8.07324C30.2897 8.07324 29.7136 8.64932 29.7136 9.35996C29.7136 10.0706 30.2897 10.6467 31.0003 10.6467Z" stroke-miterlimit="10"/> <path d="M41.0001 35.8121C41.7107 35.8121 42.2868 35.2361 42.2868 34.5254C42.2868 33.8148 41.7107 33.2387 41.0001 33.2387C40.2895 33.2387 39.7134 33.8148 39.7134 34.5254C39.7134 35.2361 40.2895 35.8121 41.0001 35.8121Z" stroke-miterlimit="10"/> <path d="M21.0001 35.8121C21.7107 35.8121 22.2868 35.2361 22.2868 34.5254C22.2868 33.8148 21.7107 33.2387 21.0001 33.2387C20.2895 33.2387 19.7134 33.8148 19.7134 34.5254C19.7134 35.2361 20.2895 35.8121 21.0001 35.8121Z" stroke-miterlimit="10"/> </symbol>
<symbol id="catalog-icon-3" viewBox="0 0 82 85"> <path d="M55.1527 5.66272H44.616V14.0624H55.1527V5.66272Z" stroke-width="2" stroke-miterlimit="10" stroke-linecap="round" stroke-linejoin="round"/> <path d="M71.2109 1H58.496C56.6385 1 55.1526 2.49814 55.1526 4.33293V17.3448H74.5712V4.33293C74.5543 2.49814 73.0515 1 71.2109 1Z" stroke-width="2" stroke-miterlimit="10" stroke-linecap="round" stroke-linejoin="round"/> <path d="M44.6159 2.34662H31.6814C27.5275 2.34662 24.1504 5.69638 24.1504 9.85413C24.1504 13.9951 27.5107 17.3616 31.6814 17.3616H44.6159V2.34662Z" stroke-width="2" stroke-miterlimit="10" stroke-linecap="round" stroke-linejoin="round"/> <path d="M34.383 43.1498L23.6099 25.7445C21.972 23.1017 18.7131 21.7888 15.7749 22.8324C11.7392 24.28 10.2026 28.9428 12.364 32.4272L28.5068 58.451H43.856H68.8638C71.0927 58.451 72.8826 56.6499 72.8826 54.4448V43.1498H34.383V43.1498Z" stroke-width="2" stroke-miterlimit="10" stroke-linecap="round" stroke-linejoin="round"/> <path d="M72.8997 75.2504L67.834 66.8507H60.0327V58.451H32.4921V66.8507H24.6908L19.6251 75.2504H11.655V83.65H80.8698V75.2504H72.8997Z" stroke-width="2" stroke-miterlimit="10" stroke-linecap="round" stroke-linejoin="round"/> <path d="M64.8619 24.4373C62.1609 24.4373 59.9895 23.057 59.9895 21.3401V20.1786H69.7343V21.3401C69.7343 23.0402 67.5629 24.4373 64.8619 24.4373Z" stroke-miterlimit="10" stroke-linecap="round" stroke-linejoin="round"/> <path d="M64.8621 24.4373V27.6188" stroke-miterlimit="10" stroke-linecap="round" stroke-linejoin="round"/> <path d="M25.4168 5.66272L12.4316 25.4752" stroke-width="2" stroke-miterlimit="10" stroke-linecap="round" stroke-linejoin="round"/> <path d="M33.7753 17.3448L25.8728 29.3972" stroke-width="2" stroke-miterlimit="10" stroke-linecap="round" stroke-linejoin="round"/> <path d="M26.9071 16.1936L21.959 23.5131" stroke-miterlimit="10" stroke-linecap="round" stroke-linejoin="round"/> <path d="M18.5105 42.3418C17.0921 42.8805 15.5555 43.1666 13.9514 43.1666C6.8087 43.1666 1 37.3929 1 30.2557C1 23.1185 6.79182 17.3448 13.9514 17.3448C15.1503 17.3448 16.3154 17.5131 17.4298 17.8161" stroke-miterlimit="10" stroke-linecap="round" stroke-linejoin="round"/> <path d="M53.0083 39.6467H76.6821" stroke-miterlimit="10" stroke-linecap="round" stroke-linejoin="round"/> <path d="M64.8452 9.87097H74.5545" stroke-miterlimit="10" stroke-linecap="round" stroke-linejoin="round"/> <path d="M45.0295 9.87097H54.7389" stroke-miterlimit="10" stroke-linecap="round" stroke-linejoin="round"/> <path d="M32.4919 67.3375H60.0326" stroke-miterlimit="10" stroke-linecap="round" stroke-linejoin="round"/> <path d="M32.4919 63.344H60.0326" stroke-miterlimit="10" stroke-linecap="round" stroke-linejoin="round"/> <path d="M19.625 75.7877H72.8996" stroke-miterlimit="10" stroke-linecap="round" stroke-linejoin="round"/> <path d="M17.9872 31.232C19.2089 31.232 20.1992 30.2448 20.1992 29.0269C20.1992 27.8091 19.2089 26.8218 17.9872 26.8218C16.7655 26.8218 15.7751 27.8091 15.7751 29.0269C15.7751 30.2448 16.7655 31.232 17.9872 31.232Z" stroke-miterlimit="10"/> <path d="M31.0565 12.0593C32.2782 12.0593 33.2686 11.072 33.2686 9.85417C33.2686 8.63632 32.2782 7.64905 31.0565 7.64905C29.8348 7.64905 28.8445 8.63632 28.8445 9.85417C28.8445 11.072 29.8348 12.0593 31.0565 12.0593Z" stroke-miterlimit="10"/> <path d="M38.6721 52.4416V58.451" stroke-miterlimit="10" stroke-linecap="round" stroke-linejoin="round"/> <path d="M46.1863 52.4416V58.451" stroke-miterlimit="10" stroke-linecap="round" stroke-linejoin="round"/> <path d="M53.7173 52.4416V58.451" stroke-miterlimit="10" stroke-linecap="round" stroke-linejoin="round"/> </symbol>
<symbol id="catalog-icon-4" viewBox="0 0 68 86"> <path d="M1.33252 1.31421V10.5091H10.6754L13.7968 17.8736H54.5151L57.6365 10.5091H66.9794V1.31421H1.33252Z" stroke-width="2" stroke-miterlimit="10" stroke-linecap="round" stroke-linejoin="round"/> <path d="M49.8382 17.8736H18.4735L10.6753 27.1643L18.4735 41.4675H19.8251V52.3652H24.2337V63.2735H44.078V52.3652H48.4866V41.4675H49.8382L57.6364 27.1643L49.8382 17.8736Z" stroke-width="2" stroke-miterlimit="10" stroke-linecap="round" stroke-linejoin="round"/> <path d="M19.8252 41.0844H26.7117V37.8385C26.7117 33.7625 30.0477 30.4528 34.156 30.4528C38.2642 30.4528 41.6002 33.7625 41.6002 37.8385V41.0844H48.4867" stroke-width="1.3" stroke-miterlimit="10" stroke-linecap="round" stroke-linejoin="round"/> <path d="M24.2339 51.9821H44.0781" stroke-width="1.3" stroke-miterlimit="10" stroke-linecap="round" stroke-linejoin="round"/> <path d="M9.43115 10.1367H57.6366" stroke-width="1.3" stroke-miterlimit="10" stroke-linecap="round" stroke-linejoin="round"/> <path d="M34.156 47.1505V51.1945" stroke-miterlimit="10" stroke-linecap="round" stroke-linejoin="round"/> <path d="M40.7314 47.1505V51.1945" stroke-miterlimit="10" stroke-linecap="round" stroke-linejoin="round"/> <path d="M27.5806 47.1505V51.1945" stroke-miterlimit="10" stroke-linecap="round" stroke-linejoin="round"/> <path d="M34.156 13.8295V17.8736" stroke-miterlimit="10" stroke-linecap="round" stroke-linejoin="round"/> <path d="M20.1577 46.7225H48.4866" stroke-miterlimit="10" stroke-linecap="round" stroke-linejoin="round"/> <path d="M14.9436 21.8056L52.7182 21.8056" stroke-miterlimit="10" stroke-linecap="round" stroke-linejoin="round"/> <path d="M24.2336 59.8366L44.0781 59.8366" stroke-miterlimit="10" stroke-linecap="round" stroke-linejoin="round"/> <path d="M40.7314 13.8295V17.8736" stroke-miterlimit="10" stroke-linecap="round" stroke-linejoin="round"/> <path d="M27.5806 13.8295V17.8736" stroke-miterlimit="10" stroke-linecap="round" stroke-linejoin="round"/> <path d="M39.7659 78.8644L34.1559 85.0582L28.5459 78.8644V63.2735H39.7659V78.8644Z" stroke-width="1.3" stroke-miterlimit="10" stroke-linecap="round" stroke-linejoin="round"/> <path d="M28.5459 67.0409L39.7659 78.8645" stroke-miterlimit="10" stroke-linecap="round" stroke-linejoin="round"/> <path d="M39.7659 72.8235L30.7041 63.2743" stroke-miterlimit="10" stroke-linecap="round" stroke-linejoin="round"/> <path d="M28.5459 72.9526L36.9995 81.8609" stroke-miterlimit="10" stroke-linecap="round" stroke-linejoin="round"/> <path d="M46.7814 30.9802C48.0373 30.9802 49.0554 29.9701 49.0554 28.7241C49.0554 27.478 48.0373 26.4679 46.7814 26.4679C45.5254 26.4679 44.5073 27.478 44.5073 28.7241C44.5073 29.9701 45.5254 30.9802 46.7814 30.9802Z" stroke-miterlimit="10"/> <path d="M21.5309 30.9802C22.7868 30.9802 23.8049 29.9701 23.8049 28.7241C23.8049 27.478 22.7868 26.4679 21.5309 26.4679C20.275 26.4679 19.2568 27.478 19.2568 28.7241C19.2568 29.9701 20.275 30.9802 21.5309 30.9802Z" stroke-miterlimit="10"/> </symbol>
<symbol id="catalog-icon-5" viewBox="0 0 76 61"> <path d="M72.0396 59.05H3.42933C2.08952 59.05 1 58.0308 1 56.7604V3.30357C1 2.03312 2.08952 1 3.42933 1H72.0396C73.3794 1 74.4689 2.03312 74.4689 3.30357V56.7604C74.4689 58.0308 73.3794 59.05 72.0396 59.05Z" stroke-width="2" stroke-miterlimit="10" stroke-linecap="round" stroke-linejoin="round"/> <path d="M35.0551 9.92114H9.21582V37.5361H35.0551V9.92114Z" stroke-width="2" stroke-miterlimit="10" stroke-linecap="round" stroke-linejoin="round"/> <path d="M67.0788 9.92114H41.2395V25.4737H67.0788V9.92114Z" stroke-miterlimit="10" stroke-linecap="round" stroke-linejoin="round"/> <path d="M44.2134 18.3815H51.8547L53.651 13.3136L54.6669 22.8909L56.36 18.3815H63.7953" stroke-miterlimit="10" stroke-linecap="round" stroke-linejoin="round"/> <path d="M1 44.7539H74.4689" stroke-width="2" stroke-miterlimit="10" stroke-linecap="round" stroke-linejoin="round"/> <path d="M9.21582 53.7029H14.3837" stroke-miterlimit="10" stroke-linecap="round" stroke-linejoin="round"/> <path d="M61.7622 53.7029H66.9153" stroke-miterlimit="10" stroke-linecap="round" stroke-linejoin="round"/> <path d="M48.6309 53.7029H53.784" stroke-miterlimit="10" stroke-linecap="round" stroke-linejoin="round"/> <path d="M35.4971 53.7029H40.6502" stroke-miterlimit="10" stroke-linecap="round" stroke-linejoin="round"/> <path d="M1 48.5723L74.4687 48.5723" stroke-miterlimit="10" stroke-linecap="round" stroke-linejoin="round"/> <path d="M9.21582 33.285L35.0551 33.285" stroke-miterlimit="10" stroke-linecap="round" stroke-linejoin="round"/> <path d="M22.3491 53.7029H27.517" stroke-miterlimit="10" stroke-linecap="round" stroke-linejoin="round"/> <path d="M44.2131 37.2848C45.937 37.2848 47.3344 35.9597 47.3344 34.3251C47.3344 32.6905 45.937 31.3654 44.2131 31.3654C42.4893 31.3654 41.0918 32.6905 41.0918 34.3251C41.0918 35.9597 42.4893 37.2848 44.2131 37.2848Z" stroke-miterlimit="10"/> <path d="M44.2134 34.3251L46.4071 32.2449" stroke-miterlimit="10" stroke-linecap="round" stroke-linejoin="round"/> <path d="M54.0036 37.2848C55.7275 37.2848 57.125 35.9597 57.125 34.3251C57.125 32.6905 55.7275 31.3654 54.0036 31.3654C52.2798 31.3654 50.8823 32.6905 50.8823 34.3251C50.8823 35.9597 52.2798 37.2848 54.0036 37.2848Z" stroke-miterlimit="10"/> <path d="M54.0039 34.3251L56.2124 32.2449" stroke-miterlimit="10" stroke-linecap="round" stroke-linejoin="round"/> <path d="M63.7942 37.2848C65.518 37.2848 66.9155 35.9597 66.9155 34.3251C66.9155 32.6905 65.518 31.3654 63.7942 31.3654C62.0703 31.3654 60.6729 32.6905 60.6729 34.3251C60.6729 35.9597 62.0703 37.2848 63.7942 37.2848Z" stroke-miterlimit="10"/> <path d="M63.7944 34.3251L66.0029 32.2449" stroke-miterlimit="10" stroke-linecap="round" stroke-linejoin="round"/> </symbol>
<symbol id="catalog-icon-6" viewBox="0 0 89 42"> <path d="M57.7335 3.12653H45.2045L44.0795 1.25H39.9511V4.54733H36.0551V1.25H29.7554V7.27276L1.25 12.956V28.5579L29.7554 34.2322V40.4784H36.0551V37.181H39.9511V40.4784H44.0795L45.2045 38.6018H57.7335L62.3801 33.6514V8.07699L57.7335 3.12653Z" stroke-width="2" stroke-miterlimit="10" stroke-linecap="round" stroke-linejoin="round"/> <path d="M83.8351 11.2671V4.8869H78.2859V8.14849H62.3801V33.5799H78.2859V36.8415H83.8351V30.4702H87.2128V11.2671H83.8351Z" stroke-width="2" stroke-miterlimit="10" stroke-linecap="round" stroke-linejoin="round"/> <path d="M30.3032 7.41638V34.3848" stroke-miterlimit="10" stroke-linecap="round" stroke-linejoin="round"/> <path d="M35.4917 16.5482V4.54736" stroke-miterlimit="10" stroke-linecap="round" stroke-linejoin="round"/> <path d="M35.4917 37.4433V25.4424" stroke-miterlimit="10" stroke-linecap="round" stroke-linejoin="round"/> <path d="M40.5034 17.3792V4.54736" stroke-miterlimit="10" stroke-linecap="round" stroke-linejoin="round"/> <path d="M45.012 38.8878V3.198" stroke-miterlimit="10" stroke-linecap="round" stroke-linejoin="round"/> <path d="M57.7156 38.6018V3.198" stroke-miterlimit="10" stroke-linecap="round" stroke-linejoin="round"/> <path d="M83.2905 30.4658V11.2626" stroke-miterlimit="10" stroke-linecap="round" stroke-linejoin="round"/> <path d="M40.5034 37.1811V24.3492" stroke-miterlimit="10" stroke-linecap="round" stroke-linejoin="round"/> <path d="M37.9169 25.2165H30.3125V16.5934H37.9169C40.3028 16.5934 42.2329 18.5236 42.2329 20.9095C42.224 23.2864 40.2938 25.2165 37.9169 25.2165Z" stroke-miterlimit="10" stroke-linecap="round" stroke-linejoin="round"/> <path d="M80.4484 11.5709H76.1145V18.1298H80.4484V11.5709Z" stroke-miterlimit="10" stroke-linecap="round" stroke-linejoin="round"/> <path d="M76.0698 16.6197H70.1922C69.4706 16.6197 68.8933 15.8244 68.8933 14.8504C68.8933 13.8674 69.4771 13.0811 70.1922 13.0811H76.0698V16.6197V16.6197Z" stroke-miterlimit="10" stroke-linecap="round" stroke-linejoin="round"/> <path d="M80.4484 23.5985H76.1145V30.1574H80.4484V23.5985Z" stroke-miterlimit="10" stroke-linecap="round" stroke-linejoin="round"/> <path d="M76.0698 28.6474H70.1922C69.4706 28.6474 68.8933 27.8521 68.8933 26.8781C68.8933 25.8951 69.4771 25.1088 70.1922 25.1088H76.0698V28.6474V28.6474Z" stroke-miterlimit="10" stroke-linecap="round" stroke-linejoin="round"/> </symbol>
<symbol id="catalog-icon-7" viewBox="0 0 88 82"> <path d="M86.7446 58.0952V42.0993H1V58.0952H3.77403V71.8529L1 76.3777V80.9024H17.8561L21.7089 76.3777H66.026L69.8789 80.9024H86.7446V76.3777L83.9706 71.8529V58.0952H86.7446Z" stroke-width="2" stroke-miterlimit="10" stroke-linecap="round" stroke-linejoin="round"/> <path d="M7.64632 17.2563V28.7275L4.85303 30.657V35.6835V42.0992H7.64632H10.43H13.2233V17.2563H7.64632Z" stroke-width="2" stroke-miterlimit="10" stroke-linecap="round" stroke-linejoin="round"/> <path d="M4.85303 35.6836H8.18572" stroke-miterlimit="10" stroke-linecap="round" stroke-linejoin="round"/> <path d="M80.0987 17.2563V28.7275L82.892 30.657V35.6835V42.0992H80.0987H77.315H74.5217V17.2563H80.0987Z" stroke-width="2" stroke-miterlimit="10" stroke-linecap="round" stroke-linejoin="round"/> <path d="M82.892 35.6836H79.5593" stroke-miterlimit="10" stroke-linecap="round" stroke-linejoin="round"/> <path d="M34.1729 24.6176H13.2231V17.7144H74.5216V24.6176H44.8356" stroke-miterlimit="10" stroke-linecap="round" stroke-linejoin="round"/> <path d="M43.3619 5.93964H35.7237C33.595 5.93964 31.8708 7.66658 31.8708 9.79872V18.2308H34.3174V26.6629C34.3174 28.7951 36.0415 30.522 38.1702 30.522H40.9154C43.044 30.522 44.7682 28.7951 44.7682 26.6629V18.2308H47.2147V9.78908C47.2051 7.66658 45.481 5.93964 43.3619 5.93964Z" stroke-width="2" stroke-miterlimit="10" stroke-linecap="round" stroke-linejoin="round"/> <path d="M74.5216 17.2564V13.2719H47.2051" stroke-miterlimit="10" stroke-linecap="round" stroke-linejoin="round"/> <path d="M31.8707 13.2719H25.1475C21.7666 13.2719 19.0215 10.5223 19.0215 7.13595C19.0215 3.7496 21.7666 1 25.1475 1H39.5378V5.92999" stroke-miterlimit="10" stroke-linecap="round" stroke-linejoin="round"/> <path d="M39.5381 30.5027V34.4776" stroke-width="2" stroke-miterlimit="10" stroke-linecap="round" stroke-linejoin="round"/> <path d="M3.77393 57.5852H83.9705" stroke-miterlimit="10" stroke-linecap="round" stroke-linejoin="round"/> <path d="M67.4612 50.0973H86.3111" stroke-miterlimit="10" stroke-linecap="round" stroke-linejoin="round"/> <path d="M21.815 53.0205C23.4269 53.0205 24.7335 51.7117 24.7335 50.0972C24.7335 48.4827 23.4269 47.174 21.815 47.174C20.2031 47.174 18.8965 48.4827 18.8965 50.0972C18.8965 51.7117 20.2031 53.0205 21.815 53.0205Z" stroke-miterlimit="10" stroke-linecap="round" stroke-linejoin="round"/> <path d="M10.3045 53.0205C11.9164 53.0205 13.223 51.7117 13.223 50.0972C13.223 48.4827 11.9164 47.174 10.3045 47.174C8.69265 47.174 7.38599 48.4827 7.38599 50.0972C7.38599 51.7117 8.69265 53.0205 10.3045 53.0205Z" stroke-miterlimit="10" stroke-linecap="round" stroke-linejoin="round"/> <path d="M33.3255 53.0205C34.9373 53.0205 36.244 51.7117 36.244 50.0972C36.244 48.4827 34.9373 47.174 33.3255 47.174C31.7136 47.174 30.407 48.4827 30.407 50.0972C30.407 51.7117 31.7136 53.0205 33.3255 53.0205Z" stroke-miterlimit="10" stroke-linecap="round" stroke-linejoin="round"/> <path d="M60.1699 69.391C61.6115 69.391 62.7801 68.2204 62.7801 66.7765C62.7801 65.3325 61.6115 64.1619 60.1699 64.1619C58.7282 64.1619 57.5596 65.3325 57.5596 66.7765C57.5596 68.2204 58.7282 69.391 60.1699 69.391Z" stroke-miterlimit="10" stroke-linecap="round" stroke-linejoin="round"/> <path d="M61.1523 65.9371L63.0306 64.0558" stroke-miterlimit="10" stroke-linecap="round" stroke-linejoin="round"/> <path d="M72.2001 69.391C73.6418 69.391 74.8104 68.2204 74.8104 66.7765C74.8104 65.3325 73.6418 64.1619 72.2001 64.1619C70.7585 64.1619 69.5898 65.3325 69.5898 66.7765C69.5898 68.2204 70.7585 69.391 72.2001 69.391Z" stroke-miterlimit="10" stroke-linecap="round" stroke-linejoin="round"/> <path d="M73.1826 65.9371L75.0609 64.0558" stroke-miterlimit="10" stroke-linecap="round" stroke-linejoin="round"/> <path d="M64.8896 41.9063V39.726" stroke-miterlimit="10" stroke-linecap="round" stroke-linejoin="round"/> <path d="M36.8699 41.9064V39.726" stroke-miterlimit="10" stroke-linecap="round" stroke-linejoin="round"/> <path d="M50.875 41.9064V39.726" stroke-miterlimit="10" stroke-linecap="round" stroke-linejoin="round"/> <path d="M37.4575 9.57678H41.6186" stroke-miterlimit="10" stroke-linecap="round" stroke-linejoin="round"/> <path d="M37.4575 11.4196H41.6186" stroke-miterlimit="10" stroke-linecap="round" stroke-linejoin="round"/> <path d="M37.4575 13.2719H41.6186" stroke-miterlimit="10" stroke-linecap="round" stroke-linejoin="round"/> <path d="M22.8552 41.9063V39.726" stroke-miterlimit="10" stroke-linecap="round" stroke-linejoin="round"/> <path d="M12.1541 68.5902V63.4866" stroke-miterlimit="10" stroke-linecap="round" stroke-linejoin="round"/> <path d="M15.1785 68.5902V63.4866" stroke-miterlimit="10" stroke-linecap="round" stroke-linejoin="round"/> <path d="M18.2031 68.5902V63.4866" stroke-miterlimit="10" stroke-linecap="round" stroke-linejoin="round"/> <path d="M21.2273 68.5902V63.4866" stroke-miterlimit="10" stroke-linecap="round" stroke-linejoin="round"/> <path d="M24.2517 68.5902V63.4866" stroke-miterlimit="10" stroke-linecap="round" stroke-linejoin="round"/> <path d="M27.2764 68.5902V63.4866" stroke-miterlimit="10" stroke-linecap="round" stroke-linejoin="round"/> <path d="M30.3008 68.5902V63.4866" stroke-miterlimit="10" stroke-linecap="round" stroke-linejoin="round"/> <path d="M33.3252 68.5902V63.4866" stroke-miterlimit="10" stroke-linecap="round" stroke-linejoin="round"/> <path d="M39.5379 20.8402C38.6807 20.8402 37.9775 20.1456 37.9775 19.2773V17.7144H41.0983V19.2773C41.0983 20.1359 40.3952 20.8402 39.5379 20.8402Z" stroke-miterlimit="10" stroke-linecap="round" stroke-linejoin="round"/> </symbol>
<symbol id="catalog-icon-8" viewBox="0 0 72 78"> <path d="M71 1H1V67H71V1Z" stroke-width="2" stroke-miterlimit="10" stroke-linecap="round" stroke-linejoin="round"/> <path d="M67 5H5V63H67V5Z" stroke-miterlimit="10" stroke-linecap="round" stroke-linejoin="round"/> <path d="M5.09668 39.5718H66.8806" stroke-miterlimit="10" stroke-linecap="round" stroke-linejoin="round"/> <path d="M5.09668 43.7151H66.8806" stroke-miterlimit="10" stroke-linecap="round" stroke-linejoin="round"/> <path d="M5.09668 14.9991H66.8806" stroke-miterlimit="10" stroke-linecap="round" stroke-linejoin="round"/> <path d="M5.09668 19.1424H66.8806" stroke-miterlimit="10" stroke-linecap="round" stroke-linejoin="round"/> <path d="M5.09668 24.9667H66.8806" stroke-miterlimit="10" stroke-linecap="round" stroke-linejoin="round"/> <path d="M5.09668 29.1009H66.8806" stroke-miterlimit="10" stroke-linecap="round" stroke-linejoin="round"/> <path d="M5.09668 9.18396H66.8806" stroke-miterlimit="10" stroke-linecap="round" stroke-linejoin="round"/> <path d="M11.8736 70.7749C12.0024 71.2031 12.0759 71.6586 12.0759 72.1324C12.0759 74.7017 9.97018 76.7882 7.37707 76.7882C4.78397 76.7882 2.67822 74.7109 2.67822 72.1324C2.67822 69.5631 4.78397 67.4766 7.37707 67.4766" stroke-width="2" stroke-miterlimit="10" stroke-linecap="round" stroke-linejoin="round"/> <path d="M18.9909 43.7151C18.9909 44.9998 17.9426 46.0384 16.6461 46.0384C15.3495 46.0384 14.3013 44.9998 14.3013 43.7151" stroke-miterlimit="10" stroke-linecap="round" stroke-linejoin="round"/> <path d="M57.7588 43.7151C57.7588 44.9998 56.7105 46.0384 55.4139 46.0384C54.1174 46.0384 53.0691 44.9998 53.0691 43.7151" stroke-miterlimit="10" stroke-linecap="round" stroke-linejoin="round"/> <path d="M18.9909 29.1009C18.9909 30.3856 17.9426 31.4242 16.6461 31.4242C15.3495 31.4242 14.3013 30.3856 14.3013 29.1009" stroke-miterlimit="10" stroke-linecap="round" stroke-linejoin="round"/> <path d="M57.7588 29.1009C57.7588 30.3856 56.7105 31.4242 55.4139 31.4242C54.1174 31.4242 53.0691 30.3856 53.0691 29.1009" stroke-miterlimit="10" stroke-linecap="round" stroke-linejoin="round"/> <path d="M18.9909 19.1425C18.9909 20.4271 17.9426 21.4658 16.6461 21.4658C15.3495 21.4658 14.3013 20.4271 14.3013 19.1425" stroke-miterlimit="10" stroke-linecap="round" stroke-linejoin="round"/> <path d="M57.7588 19.1425C57.7588 20.4271 56.7105 21.4658 55.4139 21.4658C54.1174 21.4658 53.0691 20.4271 53.0691 19.1425" stroke-miterlimit="10" stroke-linecap="round" stroke-linejoin="round"/> <path d="M18.9909 9.18396C18.9909 10.4686 17.9426 11.5073 16.6461 11.5073C15.3495 11.5073 14.3013 10.4686 14.3013 9.18396" stroke-miterlimit="10" stroke-linecap="round" stroke-linejoin="round"/> <path d="M57.7588 9.18396C57.7588 10.4686 56.7105 11.5073 55.4139 11.5073C54.1174 11.5073 53.0691 10.4686 53.0691 9.18396" stroke-miterlimit="10" stroke-linecap="round" stroke-linejoin="round"/> <path d="M7.37695 67.2671V72.1324L18.9907 67.2671H7.37695Z" stroke-miterlimit="10" stroke-linecap="round" stroke-linejoin="round"/> <path d="M59.193 70.7749C59.0643 71.2031 58.9907 71.6586 58.9907 72.1324C58.9907 74.7017 61.0965 76.7882 63.6896 76.7882C66.2827 76.7882 68.3884 74.7017 68.3884 72.1324C68.3884 69.5631 66.2827 67.4766 63.6896 67.4766" stroke-width="2" stroke-miterlimit="10" stroke-linecap="round" stroke-linejoin="round"/> <path d="M63.6896 67.2671V72.1324L52.0667 67.2671H63.6896Z" stroke-miterlimit="10" stroke-linecap="round" stroke-linejoin="round"/> </symbol>
<symbol id="catalog-icon-9" viewBox="0 0 78 51"> <path d="M76.21 1H1V46.15H7.3V49.59H28.8V46.15H33.08V49.59H69.79V46.15H76.21V1Z" stroke-width="2" stroke-miterlimit="10" stroke-linecap="round" stroke-linejoin="round"/> <path d="M10.8 49.59V45.97" stroke-miterlimit="10" stroke-linecap="round" stroke-linejoin="round"/> <path d="M13.8 49.59V45.97" stroke-miterlimit="10" stroke-linecap="round" stroke-linejoin="round"/> <path d="M16.8 49.59V45.97" stroke-miterlimit="10" stroke-linecap="round" stroke-linejoin="round"/> <path d="M19.8 49.59V45.97" stroke-miterlimit="10" stroke-linecap="round" stroke-linejoin="round"/> <path d="M22.8 49.59V45.97" stroke-miterlimit="10" stroke-linecap="round" stroke-linejoin="round"/> <path d="M25.8 49.59V45.97" stroke-miterlimit="10" stroke-linecap="round" stroke-linejoin="round"/> <path d="M36.4399 49.59V45.97" stroke-miterlimit="10" stroke-linecap="round" stroke-linejoin="round"/> <path d="M39.4399 49.59V45.97" stroke-miterlimit="10" stroke-linecap="round" stroke-linejoin="round"/> <path d="M42.4399 49.59V45.97" stroke-miterlimit="10" stroke-linecap="round" stroke-linejoin="round"/> <path d="M45.4399 49.59V45.97" stroke-miterlimit="10" stroke-linecap="round" stroke-linejoin="round"/> <path d="M48.4399 49.59V45.97" stroke-miterlimit="10" stroke-linecap="round" stroke-linejoin="round"/> <path d="M51.4399 49.59V45.97" stroke-miterlimit="10" stroke-linecap="round" stroke-linejoin="round"/> <path d="M33.4399 35.99V32.37" stroke-miterlimit="10" stroke-linecap="round" stroke-linejoin="round"/> <path d="M36.4399 35.99V32.37" stroke-miterlimit="10" stroke-linecap="round" stroke-linejoin="round"/> <path d="M39.4399 35.99V32.37" stroke-miterlimit="10" stroke-linecap="round" stroke-linejoin="round"/> <path d="M42.4399 35.99V32.37" stroke-miterlimit="10" stroke-linecap="round" stroke-linejoin="round"/> <path d="M45.4399 35.99V32.37" stroke-miterlimit="10" stroke-linecap="round" stroke-linejoin="round"/> <path d="M33.4399 12.64V9.01996" stroke-miterlimit="10" stroke-linecap="round" stroke-linejoin="round"/> <path d="M36.4399 12.64V9.01996" stroke-miterlimit="10" stroke-linecap="round" stroke-linejoin="round"/> <path d="M39.4399 12.64V9.01996" stroke-miterlimit="10" stroke-linecap="round" stroke-linejoin="round"/> <path d="M42.4399 12.64V9.01996" stroke-miterlimit="10" stroke-linecap="round" stroke-linejoin="round"/> <path d="M45.4399 12.64V9.01996" stroke-miterlimit="10" stroke-linecap="round" stroke-linejoin="round"/> <path d="M25.9502 16.5H29.5702" stroke-miterlimit="10" stroke-linecap="round" stroke-linejoin="round"/> <path d="M25.9502 19.5H29.5702" stroke-miterlimit="10" stroke-linecap="round" stroke-linejoin="round"/> <path d="M25.9502 22.5H29.5702" stroke-miterlimit="10" stroke-linecap="round" stroke-linejoin="round"/> <path d="M25.9502 25.5H29.5702" stroke-miterlimit="10" stroke-linecap="round" stroke-linejoin="round"/> <path d="M25.9502 28.5H29.5702" stroke-miterlimit="10" stroke-linecap="round" stroke-linejoin="round"/> <path d="M49.3 16.5H52.92" stroke-miterlimit="10" stroke-linecap="round" stroke-linejoin="round"/> <path d="M49.3 19.5H52.92" stroke-miterlimit="10" stroke-linecap="round" stroke-linejoin="round"/> <path d="M49.3 22.5H52.92" stroke-miterlimit="10" stroke-linecap="round" stroke-linejoin="round"/> <path d="M49.3 25.5H52.92" stroke-miterlimit="10" stroke-linecap="round" stroke-linejoin="round"/> <path d="M49.3 28.5H52.92" stroke-miterlimit="10" stroke-linecap="round" stroke-linejoin="round"/> <path d="M54.4399 49.59V45.97" stroke-miterlimit="10" stroke-linecap="round" stroke-linejoin="round"/> <path d="M57.4399 49.59V45.97" stroke-miterlimit="10" stroke-linecap="round" stroke-linejoin="round"/> <path d="M60.4399 49.59V45.97" stroke-miterlimit="10" stroke-linecap="round" stroke-linejoin="round"/> <path d="M63.4399 49.59V45.97" stroke-miterlimit="10" stroke-linecap="round" stroke-linejoin="round"/> <path d="M66.4399 49.59V45.97" stroke-miterlimit="10" stroke-linecap="round" stroke-linejoin="round"/> <path d="M49.2901 12.64H29.5701V32.36H49.2901V12.64Z" stroke-width="2" stroke-miterlimit="10" stroke-linecap="round" stroke-linejoin="round"/> <path d="M12.8 20.23C11.52 20.23 10.48 19.19 10.48 17.91V12.33C10.48 11.05 11.52 10.01 12.8 10.01C14.08 10.01 15.12 11.05 15.12 12.33V17.91C15.12 19.19 14.08 20.23 12.8 20.23Z" stroke-miterlimit="10" stroke-linecap="round" stroke-linejoin="round"/> <path d="M68.7501 10.01H64.1201V15.12H68.7501V10.01Z" stroke-miterlimit="10" stroke-linecap="round" stroke-linejoin="round"/> <path d="M68.7501 31.07H64.1201V36.18H68.7501V31.07Z" stroke-miterlimit="10" stroke-linecap="round" stroke-linejoin="round"/> <path d="M68.7501 20.54H64.1201V25.65H68.7501V20.54Z" stroke-miterlimit="10" stroke-linecap="round" stroke-linejoin="round"/> <path d="M12.8 35.61C11.52 35.61 10.48 34.57 10.48 33.29V27.71C10.48 26.43 11.52 25.39 12.8 25.39C14.08 25.39 15.12 26.43 15.12 27.71V33.29C15.12 34.58 14.08 35.61 12.8 35.61Z" stroke-miterlimit="10" stroke-linecap="round" stroke-linejoin="round"/> </symbol>
<symbol id="delivery-icon-1" viewBox="0 0 83 54"> <path d="M60 31H64" stroke-linecap="round"/> <path d="M70 42L81 42" stroke-linecap="round"/> <path d="M21 42L62 42" stroke-linecap="round"/> <path d="M2 42L14 42" stroke-linecap="round"/> <path d="M72 15V28"/> <path d="M23 47H55V1H1V47H11" stroke-width="2" stroke-miterlimit="10" stroke-linejoin="round"/> <path d="M13.6299 16.3172L16.4447 19.1124L21.6052 13.9879" stroke-width="2" stroke-linecap="round" stroke-linejoin="round"/> <path d="M26.2654 16.3173C26.2654 21.1837 22.2918 25.1346 17.3827 25.1346C12.4736 25.1346 8.5 21.1837 8.5 16.3173C8.5 11.4509 12.4736 7.5 17.3827 7.5C22.2918 7.5 26.2654 11.4509 26.2654 16.3173Z"/> <path d="M72 47H82V28L75.5 11H55V47H60" stroke-width="2" stroke-miterlimit="10" stroke-linejoin="round"/> <path d="M77 15H60V28H82"/> <circle cx="17" cy="47" r="6" stroke-width="2" stroke-miterlimit="10" stroke-linejoin="round"/> <circle cx="66" cy="47" r="6" stroke-width="2" stroke-miterlimit="10" stroke-linejoin="round"/> </symbol>
<symbol id="delivery-icon-2" viewBox="0 0 71 59"> <path d="M63 40.5V3C63 1.89543 62.1046 1 61 1H3C1.89543 1 1 1.89543 1 3V48.0191C1 48.6378 1.28639 49.2217 1.77565 49.6005L7.52565 54.0521C8.24649 54.6102 9.25351 54.6102 9.97435 54.0521L15.2757 49.9479C15.9965 49.3898 17.0035 49.3898 17.7243 49.9479L23.0257 54.0521C23.7465 54.6102 24.7535 54.6102 25.4743 54.0521L30.7757 49.9479C31.4965 49.3898 32.5035 49.3898 33.2243 49.9479L38.5257 54.0521C39.2465 54.6102 40.2535 54.6102 40.9743 54.0521L46.8697 49.4879C47.2744 49.1746 47.7838 49.0284 48.2931 49.0793L52.5 49.5" stroke-width="2" stroke-miterlimit="10" stroke-linejoin="round"/> <path d="M57.6299 49.3172L60.4447 52.1124L65.6052 46.9879" stroke-width="2" stroke-linecap="round" stroke-linejoin="round"/> <path d="M70.2654 49.3173C70.2654 54.1837 66.2918 58.1346 61.3827 58.1346C56.4736 58.1346 52.5 54.1837 52.5 49.3173C52.5 44.4509 56.4736 40.5 61.3827 40.5C66.2918 40.5 70.2654 44.4509 70.2654 49.3173Z"/> <path d="M11 11H55" stroke-width="2" stroke-linecap="round" stroke-linejoin="round"/> <path d="M11 16H55" stroke-linecap="round" stroke-linejoin="round"/> <path d="M11 26H34" stroke-linecap="round" stroke-linejoin="round"/> <path d="M45 26L55 26" stroke-linecap="round" stroke-linejoin="round"/> <path d="M11 32H34" stroke-linecap="round" stroke-linejoin="round"/> <path d="M45 32L55 32" stroke-linecap="round" stroke-linejoin="round"/> <path d="M11 38H34" stroke-linecap="round" stroke-linejoin="round"/> <path d="M45 38L55 38" stroke-linecap="round" stroke-linejoin="round"/> </symbol>
<symbol id="delivery-icon-3" viewBox="0 0 77 50"> <path d="M63.8643 40.1327L66.6791 42.9279L71.8396 37.8033" stroke-width="2" stroke-linecap="round" stroke-linejoin="round"/> <path d="M70.4321 31.7471V4C70.4321 2.34315 69.089 1 67.4321 1H4C2.34315 1 1 2.34315 1 4V39.9279C1 41.5847 2.34315 42.9279 4 42.9279H59.1728" stroke-width="2" stroke-miterlimit="10" stroke-linejoin="round"/> <path d="M76.4998 40.1327C76.4998 44.9991 72.5262 48.95 67.6171 48.95C62.708 48.95 58.7344 44.9991 58.7344 40.1327C58.7344 35.2664 62.708 31.3154 67.6171 31.3154C72.5262 31.3154 76.4998 35.2664 76.4998 40.1327Z"/> <path d="M1 10.3173H70.4321"/> <path d="M1 18.7029H70.4321"/> <path d="M8.5061 29.952H35.716" stroke-linecap="round" stroke-linejoin="round"/> <path d="M8.5061 35.5423H27.2715" stroke-linecap="round" stroke-linejoin="round"/> </symbol>
<symbol id="fb-icon" viewBox="0 0 10 20"> <path fill-rule="evenodd" clip-rule="evenodd" d="M6.87597 19.5836V9.79066H9.57925L9.9375 6.41595H6.87597L6.88056 4.72688C6.88056 3.84671 6.96419 3.37509 8.22838 3.37509H9.91836V0H7.21469C3.96716 0 2.82411 1.63709 2.82411 4.39017V6.41634H0.799805V9.79104H2.82411V19.5836H6.87597Z"/> </symbol>
<symbol id="icon-close" viewBox="0 0 23 24"> <path d="M16.9707 6.34316L11.3138 12L5.65699 17.6569" stroke-width="2"/> <path d="M16.9707 17.6569L5.657 6.34315" stroke-width="2"/> </symbol>
<symbol id="icon-next" viewBox="0 0 25 16"> <path d="M23 7.99999L1.58437e-06 7.99999M23 7.99999L16 1M23 7.99999L16 15" stroke-width="2"/> </symbol>
<symbol id="inst-icon" viewBox="0 0 20 20"> <g> <path fill-rule="evenodd" clip-rule="evenodd" d="M10.0008 0.400391C7.39358 0.400391 7.06637 0.411791 6.04236 0.458391C5.02035 0.505191 4.32274 0.666993 3.71234 0.904396C3.08093 1.1496 2.54532 1.4776 2.01172 2.01141C1.47771 2.54501 1.14971 3.08062 0.903707 3.71183C0.665705 4.32243 0.503704 5.02024 0.457703 6.04185C0.411903 7.06586 0.399902 7.39326 0.399902 10.0005C0.399902 12.6077 0.411502 12.9339 0.457903 13.9579C0.504903 14.9799 0.666705 15.6775 0.903908 16.288C1.14931 16.9194 1.47731 17.455 2.01112 17.9886C2.54453 18.5226 3.08013 18.8514 3.71114 19.0966C4.32194 19.334 5.01975 19.4958 6.04156 19.5426C7.06557 19.5892 7.39258 19.6006 9.9996 19.6006C12.607 19.6006 12.9332 19.5892 13.9572 19.5426C14.9793 19.4958 15.6777 19.334 16.2885 19.0966C16.9197 18.8514 17.4545 18.5226 17.9879 17.9886C18.5219 17.455 18.8499 16.9194 19.0959 16.2882C19.3319 15.6776 19.4939 14.9797 19.5419 13.9581C19.5879 12.9341 19.5999 12.6077 19.5999 10.0005C19.5999 7.39326 19.5879 7.06606 19.5419 6.04205C19.4939 5.02004 19.3319 4.32243 19.0959 3.71202C18.8499 3.08062 18.5219 2.54501 17.9879 2.01141C17.4539 1.4774 16.9199 1.1494 16.2879 0.904396C15.6759 0.666993 14.9779 0.505191 13.9558 0.458391C12.9318 0.411791 12.6058 0.400391 9.9978 0.400391H10.0008ZM9.13959 2.13041C9.3952 2.13001 9.6804 2.13041 10.0008 2.13041C12.564 2.13041 12.8678 2.13961 13.88 2.18561C14.8161 2.22841 15.3241 2.38481 15.6625 2.51621C16.1105 2.69022 16.4299 2.89822 16.7657 3.23422C17.1017 3.57022 17.3097 3.89023 17.4841 4.33823C17.6155 4.67624 17.7721 5.18424 17.8147 6.12025C17.8607 7.13226 17.8707 7.43626 17.8707 9.99829C17.8707 12.5603 17.8607 12.8643 17.8147 13.8763C17.7719 14.8123 17.6155 15.3203 17.4841 15.6583C17.3101 16.1064 17.1017 16.4254 16.7657 16.7612C16.4297 17.0972 16.1107 17.3052 15.6625 17.4792C15.3245 17.6112 14.8161 17.7672 13.88 17.81C12.868 17.856 12.564 17.866 10.0008 17.866C7.43738 17.866 7.13357 17.856 6.12156 17.81C5.18555 17.7668 4.67755 17.6104 4.33894 17.479C3.89094 17.305 3.57094 17.097 3.23493 16.761C2.89893 16.425 2.69093 16.1058 2.51653 15.6575C2.38512 15.3195 2.22852 14.8115 2.18592 13.8755C2.13992 12.8635 2.13072 12.5595 2.13072 9.99589C2.13072 7.43226 2.13992 7.12986 2.18592 6.11785C2.22872 5.18184 2.38512 4.67383 2.51653 4.33543C2.69053 3.88743 2.89893 3.56742 3.23493 3.23142C3.57094 2.89542 3.89094 2.68741 4.33894 2.51301C4.67735 2.38101 5.18555 2.22501 6.12156 2.18201C7.00717 2.14201 7.35038 2.13001 9.13959 2.12801V2.13041ZM15.1253 3.72443C14.4892 3.72443 13.9732 4.23983 13.9732 4.87604C13.9732 5.51204 14.4892 6.02805 15.1253 6.02805C15.7613 6.02805 16.2773 5.51204 16.2773 4.87604C16.2773 4.24003 15.7613 3.72403 15.1253 3.72403V3.72443ZM10.0008 5.07044C7.27817 5.07044 5.07075 7.27786 5.07075 10.0005C5.07075 12.7231 7.27817 14.9295 10.0008 14.9295C12.7234 14.9295 14.9301 12.7231 14.9301 10.0005C14.9301 7.27786 12.7232 5.07044 10.0006 5.07044H10.0008ZM10.0008 6.80046C11.768 6.80046 13.2008 8.23307 13.2008 10.0005C13.2008 11.7677 11.768 13.2005 10.0008 13.2005C8.23338 13.2005 6.80077 11.7677 6.80077 10.0005C6.80077 8.23307 8.23338 6.80046 10.0008 6.80046Z"/> </g> </symbol>
<symbol id="minus-icon" viewBox="0 0 18 2"> <path d="M18 1L5.96046e-08 0.999999" stroke-width="2"/> </symbol>
<symbol id="pdf-icon" viewBox="0 0 40 50"> <path d="M0 0H26L40 14V50H0V0Z"/> <path d="M26 14V0L40 14H26Z"/> <path d="M7 43H8.59021V39.6211H10.2704C12.2978 39.6211 13.3866 38.2344 13.3866 36.3105C13.3866 34.4014 12.3107 33 10.2919 33H7V43ZM8.59021 38.1318V34.5137H10.0475C11.2391 34.5137 11.7663 35.2461 11.7663 36.3105C11.7663 37.375 11.2391 38.1318 10.0561 38.1318H8.59021Z"/> <path d="M19.6737 43C22.3483 43 23.9343 41.1152 23.9343 37.9902C23.9343 34.875 22.3483 33 19.7337 33H16.699V43H19.6737ZM18.2892 41.4326V34.5674H19.6437C21.4268 34.5674 22.3569 35.7002 22.3569 37.9902C22.3569 40.29 21.4268 41.4326 19.5966 41.4326H18.2892Z"/> <path d="M27.3764 43H28.9666V38.752H32.6142V37.2334H28.9666V34.5186H33V33H27.3764V43Z"/> </symbol>
<symbol id="plus-icon" viewBox="0 0 18 18"> <path d="M9 0L9 9L9 18" stroke-width="2"/> <path d="M18 9L5.96046e-08 9" stroke-width="2"/> </symbol>
<symbol id="search-icon" viewBox="0 0 20 20"> <path fill-rule="evenodd" clip-rule="evenodd" d="M8.40004 3C11.3824 3 13.8 5.41766 13.8 8.4C13.8 9.9112 13.1806 11.2759 12.1792 12.2572C11.2042 13.2126 9.87173 13.8 8.40004 13.8C5.4177 13.8 3.00004 11.3823 3.00004 8.4C3.00004 5.41766 5.4177 3 8.40004 3ZM15.8 8.4C15.8 4.31309 12.4869 1 8.40004 1C4.31313 1 1.00004 4.31309 1.00004 8.4C1.00004 12.4869 4.31313 15.8 8.40004 15.8C10.0618 15.8 11.5968 15.2513 12.8319 14.3266L17.2994 18.7135L18.7007 17.2865L14.2571 12.9231C15.2238 11.6728 15.8 10.1031 15.8 8.4Z"/> </symbol>
<symbol id="up-arrow" viewBox="0 0 20 26"> <path d="M10 3L9.99999 26M10 3L18 11M10 3L2 11" stroke-width="3"/> </symbol>
<symbol id="upgrade-icon-1" viewBox="0 0 78 51"> <path d="M76.21 1H1V46.15H7.3V49.59H28.8V46.15H33.08V49.59H69.79V46.15H76.21V1Z" stroke-width="2" stroke-miterlimit="10" stroke-linecap="round" stroke-linejoin="round"/> <path d="M10.8 49.59V45.97" stroke-miterlimit="10" stroke-linecap="round" stroke-linejoin="round"/> <path d="M13.8 49.59V45.97" stroke-miterlimit="10" stroke-linecap="round" stroke-linejoin="round"/> <path d="M16.8 49.59V45.97" stroke-miterlimit="10" stroke-linecap="round" stroke-linejoin="round"/> <path d="M19.8 49.59V45.97" stroke-miterlimit="10" stroke-linecap="round" stroke-linejoin="round"/> <path d="M22.8 49.59V45.97" stroke-miterlimit="10" stroke-linecap="round" stroke-linejoin="round"/> <path d="M25.8 49.59V45.97" stroke-miterlimit="10" stroke-linecap="round" stroke-linejoin="round"/> <path d="M36.4399 49.59V45.97" stroke-miterlimit="10" stroke-linecap="round" stroke-linejoin="round"/> <path d="M39.4399 49.59V45.97" stroke-miterlimit="10" stroke-linecap="round" stroke-linejoin="round"/> <path d="M42.4399 49.59V45.97" stroke-miterlimit="10" stroke-linecap="round" stroke-linejoin="round"/> <path d="M45.4399 49.59V45.97" stroke-miterlimit="10" stroke-linecap="round" stroke-linejoin="round"/> <path d="M48.4399 49.59V45.97" stroke-miterlimit="10" stroke-linecap="round" stroke-linejoin="round"/> <path d="M51.4399 49.59V45.97" stroke-miterlimit="10" stroke-linecap="round" stroke-linejoin="round"/> <path d="M33.4399 35.9901V32.3701" stroke-miterlimit="10" stroke-linecap="round" stroke-linejoin="round"/> <path d="M36.4399 35.9901V32.3701" stroke-miterlimit="10" stroke-linecap="round" stroke-linejoin="round"/> <path d="M39.4399 35.9901V32.3701" stroke-miterlimit="10" stroke-linecap="round" stroke-linejoin="round"/> <path d="M42.4399 35.9901V32.3701" stroke-miterlimit="10" stroke-linecap="round" stroke-linejoin="round"/> <path d="M45.4399 35.9901V32.3701" stroke-miterlimit="10" stroke-linecap="round" stroke-linejoin="round"/> <path d="M33.4399 12.64V9.02002" stroke-miterlimit="10" stroke-linecap="round" stroke-linejoin="round"/> <path d="M36.4399 12.64V9.02002" stroke-miterlimit="10" stroke-linecap="round" stroke-linejoin="round"/> <path d="M39.4399 12.64V9.02002" stroke-miterlimit="10" stroke-linecap="round" stroke-linejoin="round"/> <path d="M42.4399 12.64V9.02002" stroke-miterlimit="10" stroke-linecap="round" stroke-linejoin="round"/> <path d="M45.4399 12.64V9.02002" stroke-miterlimit="10" stroke-linecap="round" stroke-linejoin="round"/> <path d="M25.9502 16.5H29.5702" stroke-miterlimit="10" stroke-linecap="round" stroke-linejoin="round"/> <path d="M25.9502 19.5H29.5702" stroke-miterlimit="10" stroke-linecap="round" stroke-linejoin="round"/> <path d="M25.9502 22.5H29.5702" stroke-miterlimit="10" stroke-linecap="round" stroke-linejoin="round"/> <path d="M25.9502 25.5H29.5702" stroke-miterlimit="10" stroke-linecap="round" stroke-linejoin="round"/> <path d="M25.9502 28.5H29.5702" stroke-miterlimit="10" stroke-linecap="round" stroke-linejoin="round"/> <path d="M49.3 16.5H52.92" stroke-miterlimit="10" stroke-linecap="round" stroke-linejoin="round"/> <path d="M49.3 19.5H52.92" stroke-miterlimit="10" stroke-linecap="round" stroke-linejoin="round"/> <path d="M49.3 22.5H52.92" stroke-miterlimit="10" stroke-linecap="round" stroke-linejoin="round"/> <path d="M49.3 25.5H52.92" stroke-miterlimit="10" stroke-linecap="round" stroke-linejoin="round"/> <path d="M49.3 28.5H52.92" stroke-miterlimit="10" stroke-linecap="round" stroke-linejoin="round"/> <path d="M54.4399 49.59V45.97" stroke-miterlimit="10" stroke-linecap="round" stroke-linejoin="round"/> <path d="M57.4399 49.59V45.97" stroke-miterlimit="10" stroke-linecap="round" stroke-linejoin="round"/> <path d="M60.4399 49.59V45.97" stroke-miterlimit="10" stroke-linecap="round" stroke-linejoin="round"/> <path d="M63.4399 49.59V45.97" stroke-miterlimit="10" stroke-linecap="round" stroke-linejoin="round"/> <path d="M66.4399 49.59V45.97" stroke-miterlimit="10" stroke-linecap="round" stroke-linejoin="round"/> <path d="M49.2901 12.6401H29.5701V32.3601H49.2901V12.6401Z" stroke-width="2" stroke-miterlimit="10" stroke-linecap="round" stroke-linejoin="round"/> <path d="M12.8 20.23C11.52 20.23 10.48 19.19 10.48 17.91V12.33C10.48 11.05 11.52 10.01 12.8 10.01C14.08 10.01 15.12 11.05 15.12 12.33V17.91C15.12 19.19 14.08 20.23 12.8 20.23Z" stroke-miterlimit="10" stroke-linecap="round" stroke-linejoin="round"/> <path d="M68.7501 10.01H64.1201V15.12H68.7501V10.01Z" stroke-miterlimit="10" stroke-linecap="round" stroke-linejoin="round"/> <path d="M68.7501 31.0701H64.1201V36.1801H68.7501V31.0701Z" stroke-miterlimit="10" stroke-linecap="round" stroke-linejoin="round"/> <path d="M68.7501 20.54H64.1201V25.65H68.7501V20.54Z" stroke-miterlimit="10" stroke-linecap="round" stroke-linejoin="round"/> <path d="M12.8 35.6101C11.52 35.6101 10.48 34.5701 10.48 33.2901V27.7101C10.48 26.4301 11.52 25.3901 12.8 25.3901C14.08 25.3901 15.12 26.4301 15.12 27.7101V33.2901C15.12 34.5801 14.08 35.6101 12.8 35.6101Z" stroke-miterlimit="10" stroke-linecap="round" stroke-linejoin="round"/> </symbol>
<symbol id="upgrade-icon-2" viewBox="0 0 76 61"> <rect x="2.04956" y="1.77759" width="3.33972" height="57.0134"/> <rect x="9.39624" y="10.0703" width="3.14867" height="26.9518"/> <rect x="41.2393" y="10.0703" width="3.14867" height="15.4033"/> <path d="M72.0396 59.05H3.42933C2.08952 59.05 1 58.0308 1 56.7604V3.30357C1 2.03312 2.08952 1 3.42933 1H72.0396C73.3794 1 74.4689 2.03312 74.4689 3.30357V56.7604C74.4689 58.0308 73.3794 59.05 72.0396 59.05Z" stroke-width="2" stroke-miterlimit="10" stroke-linecap="round" stroke-linejoin="round"/> <path d="M35.0551 9.92114H9.21582V37.5361H35.0551V9.92114Z" stroke-width="2" stroke-miterlimit="10" stroke-linecap="round" stroke-linejoin="round"/> <path d="M67.0788 9.92114H41.2395V25.4737H67.0788V9.92114Z" stroke-miterlimit="10" stroke-linecap="round" stroke-linejoin="round"/> <path d="M44.2134 18.3816H51.8547L53.651 13.3137L54.6669 22.891L56.36 18.3816H63.7953" stroke-miterlimit="10" stroke-linecap="round" stroke-linejoin="round"/> <path d="M1 44.7539H74.4689" stroke-width="2" stroke-miterlimit="10" stroke-linecap="round" stroke-linejoin="round"/> <path d="M9.21582 53.7029H14.3837" stroke-miterlimit="10" stroke-linecap="round" stroke-linejoin="round"/> <path d="M61.7622 53.7029H66.9153" stroke-miterlimit="10" stroke-linecap="round" stroke-linejoin="round"/> <path d="M48.6309 53.7029H53.784" stroke-miterlimit="10" stroke-linecap="round" stroke-linejoin="round"/> <path d="M35.4971 53.7029H40.6502" stroke-miterlimit="10" stroke-linecap="round" stroke-linejoin="round"/> <path d="M1 48.5723L74.4687 48.5723" stroke-miterlimit="10" stroke-linecap="round" stroke-linejoin="round"/> <path d="M9.21582 33.2849L35.0551 33.2849" stroke-miterlimit="10" stroke-linecap="round" stroke-linejoin="round"/> <path d="M22.3491 53.7029H27.517" stroke-miterlimit="10" stroke-linecap="round" stroke-linejoin="round"/> <path d="M44.2131 37.285C45.937 37.285 47.3344 35.9598 47.3344 34.3252C47.3344 32.6906 45.937 31.3655 44.2131 31.3655C42.4893 31.3655 41.0918 32.6906 41.0918 34.3252C41.0918 35.9598 42.4893 37.285 44.2131 37.285Z" stroke-miterlimit="10"/> <path d="M44.2134 34.3251L46.4071 32.2449" stroke-miterlimit="10" stroke-linecap="round" stroke-linejoin="round"/> <path d="M54.0036 37.285C55.7275 37.285 57.125 35.9598 57.125 34.3252C57.125 32.6906 55.7275 31.3655 54.0036 31.3655C52.2798 31.3655 50.8823 32.6906 50.8823 34.3252C50.8823 35.9598 52.2798 37.285 54.0036 37.285Z" stroke-miterlimit="10"/> <path d="M54.0039 34.3251L56.2124 32.2449" stroke-miterlimit="10" stroke-linecap="round" stroke-linejoin="round"/> <path d="M63.7942 37.285C65.518 37.285 66.9155 35.9598 66.9155 34.3252C66.9155 32.6906 65.518 31.3655 63.7942 31.3655C62.0703 31.3655 60.6729 32.6906 60.6729 34.3252C60.6729 35.9598 62.0703 37.285 63.7942 37.285Z" stroke-miterlimit="10"/> <path d="M63.7944 34.3251L66.0029 32.2449" stroke-miterlimit="10" stroke-linecap="round" stroke-linejoin="round"/> </symbol>
<symbol id="upgrade-icon-3" viewBox="0 0 88 82"> <path d="M86.7446 58.0953V42.0994H1V58.0953H3.77403V71.8529L1 76.3777V80.9025H17.8561L21.7089 76.3777H66.026L69.8789 80.9025H86.7446V76.3777L83.9706 71.8529V58.0953H86.7446Z" stroke-width="2" stroke-miterlimit="10" stroke-linecap="round" stroke-linejoin="round"/> <path d="M7.64632 17.2563V28.7275L4.85303 30.657V35.6835V42.0992H7.64632H10.43H13.2233V17.2563H7.64632Z" stroke-width="2" stroke-miterlimit="10" stroke-linecap="round" stroke-linejoin="round"/> <path d="M4.85303 35.6836H8.18572" stroke-miterlimit="10" stroke-linecap="round" stroke-linejoin="round"/> <path d="M80.0987 17.2563V28.7275L82.892 30.657V35.6835V42.0992H80.0987H77.315H74.5217V17.2563H80.0987Z" stroke-width="2" stroke-miterlimit="10" stroke-linecap="round" stroke-linejoin="round"/> <path d="M82.892 35.6836H79.5593" stroke-miterlimit="10" stroke-linecap="round" stroke-linejoin="round"/> <path d="M34.1729 24.6176H13.2231V17.7144H74.5216V24.6176H44.8356" stroke-miterlimit="10" stroke-linecap="round" stroke-linejoin="round"/> <path d="M43.3619 5.9397H35.7237C33.595 5.9397 31.8708 7.66664 31.8708 9.79879V18.2309H34.3174V26.663C34.3174 28.7952 36.0415 30.5221 38.1702 30.5221H40.9154C43.044 30.5221 44.7682 28.7952 44.7682 26.663V18.2309H47.2147V9.78914C47.2051 7.66664 45.481 5.9397 43.3619 5.9397Z" stroke-width="2" stroke-miterlimit="10" stroke-linecap="round" stroke-linejoin="round"/> <path d="M74.5216 17.2565V13.272H47.2051" stroke-miterlimit="10" stroke-linecap="round" stroke-linejoin="round"/> <path d="M31.8707 13.2719H25.1475C21.7666 13.2719 19.0215 10.5223 19.0215 7.13595C19.0215 3.7496 21.7666 1 25.1475 1H39.5378V5.92999" stroke-miterlimit="10" stroke-linecap="round" stroke-linejoin="round"/> <path d="M39.5381 30.5027V34.4775" stroke-width="2" stroke-miterlimit="10" stroke-linecap="round" stroke-linejoin="round"/> <path d="M3.77393 57.5852H83.9705" stroke-miterlimit="10" stroke-linecap="round" stroke-linejoin="round"/> <path d="M67.4612 50.0972H86.3111" stroke-miterlimit="10" stroke-linecap="round" stroke-linejoin="round"/> <path d="M21.815 53.0206C23.4269 53.0206 24.7335 51.7118 24.7335 50.0973C24.7335 48.4829 23.4269 47.1741 21.815 47.1741C20.2031 47.1741 18.8965 48.4829 18.8965 50.0973C18.8965 51.7118 20.2031 53.0206 21.815 53.0206Z" stroke-miterlimit="10" stroke-linecap="round" stroke-linejoin="round"/> <path d="M10.3045 53.0206C11.9164 53.0206 13.223 51.7118 13.223 50.0973C13.223 48.4829 11.9164 47.1741 10.3045 47.1741C8.69265 47.1741 7.38599 48.4829 7.38599 50.0973C7.38599 51.7118 8.69265 53.0206 10.3045 53.0206Z" stroke-miterlimit="10" stroke-linecap="round" stroke-linejoin="round"/> <path d="M33.3255 53.0206C34.9373 53.0206 36.244 51.7118 36.244 50.0973C36.244 48.4829 34.9373 47.1741 33.3255 47.1741C31.7136 47.1741 30.407 48.4829 30.407 50.0973C30.407 51.7118 31.7136 53.0206 33.3255 53.0206Z" stroke-miterlimit="10" stroke-linecap="round" stroke-linejoin="round"/> <path d="M60.1699 69.3909C61.6115 69.3909 62.7801 68.2204 62.7801 66.7764C62.7801 65.3324 61.6115 64.1619 60.1699 64.1619C58.7282 64.1619 57.5596 65.3324 57.5596 66.7764C57.5596 68.2204 58.7282 69.3909 60.1699 69.3909Z" stroke-miterlimit="10" stroke-linecap="round" stroke-linejoin="round"/> <path d="M61.1523 65.937L63.0306 64.0557" stroke-miterlimit="10" stroke-linecap="round" stroke-linejoin="round"/> <path d="M72.2001 69.3909C73.6418 69.3909 74.8104 68.2204 74.8104 66.7764C74.8104 65.3324 73.6418 64.1619 72.2001 64.1619C70.7585 64.1619 69.5898 65.3324 69.5898 66.7764C69.5898 68.2204 70.7585 69.3909 72.2001 69.3909Z" stroke-miterlimit="10" stroke-linecap="round" stroke-linejoin="round"/> <path d="M73.1826 65.937L75.0609 64.0557" stroke-miterlimit="10" stroke-linecap="round" stroke-linejoin="round"/> <path d="M64.8896 41.9065V39.7261" stroke-miterlimit="10" stroke-linecap="round" stroke-linejoin="round"/> <path d="M36.8699 41.9065V39.7261" stroke-miterlimit="10" stroke-linecap="round" stroke-linejoin="round"/> <path d="M50.875 41.9065V39.7261" stroke-miterlimit="10" stroke-linecap="round" stroke-linejoin="round"/> <path d="M37.4575 9.57666H41.6186" stroke-miterlimit="10" stroke-linecap="round" stroke-linejoin="round"/> <path d="M37.4575 11.4194H41.6186" stroke-miterlimit="10" stroke-linecap="round" stroke-linejoin="round"/> <path d="M37.4575 13.272H41.6186" stroke-miterlimit="10" stroke-linecap="round" stroke-linejoin="round"/> <path d="M22.8552 41.9065V39.7261" stroke-miterlimit="10" stroke-linecap="round" stroke-linejoin="round"/> <path d="M12.1541 68.5902V63.4866" stroke-miterlimit="10" stroke-linecap="round" stroke-linejoin="round"/> <path d="M15.1785 68.5902V63.4866" stroke-miterlimit="10" stroke-linecap="round" stroke-linejoin="round"/> <path d="M18.2031 68.5902V63.4866" stroke-miterlimit="10" stroke-linecap="round" stroke-linejoin="round"/> <path d="M21.2273 68.5902V63.4866" stroke-miterlimit="10" stroke-linecap="round" stroke-linejoin="round"/> <path d="M24.2517 68.5902V63.4866" stroke-miterlimit="10" stroke-linecap="round" stroke-linejoin="round"/> <path d="M27.2764 68.5902V63.4866" stroke-miterlimit="10" stroke-linecap="round" stroke-linejoin="round"/> <path d="M30.3008 68.5902V63.4866" stroke-miterlimit="10" stroke-linecap="round" stroke-linejoin="round"/> <path d="M33.3252 68.5902V63.4866" stroke-miterlimit="10" stroke-linecap="round" stroke-linejoin="round"/> <path d="M39.5379 20.8402C38.6807 20.8402 37.9775 20.1456 37.9775 19.2773V17.7144H41.0983V19.2773C41.0983 20.1359 40.3952 20.8402 39.5379 20.8402Z" stroke-miterlimit="10" stroke-linecap="round" stroke-linejoin="round"/> </symbol>
</svg>