<svg width="76" height="61" viewBox="0 0 76 61" fill="none" xmlns="http://www.w3.org/2000/svg">
<rect x="2.04956" y="1.77759" width="3.33972" height="57.0134" fill="#334DA6"/>
<rect x="9.39624" y="10.0703" width="3.14867" height="26.9518" fill="#334DA6"/>
<rect x="41.2393" y="10.0703" width="3.14867" height="15.4033" fill="#334DA6"/>
<path d="M72.0396 59.05H3.42933C2.08952 59.05 1 58.0308 1 56.7604V3.30357C1 2.03312 2.08952 1 3.42933 1H72.0396C73.3794 1 74.4689 2.03312 74.4689 3.30357V56.7604C74.4689 58.0308 73.3794 59.05 72.0396 59.05Z" stroke="#AABEFF" stroke-width="2" stroke-miterlimit="10" stroke-linecap="round" stroke-linejoin="round"/>
<path d="M35.0551 9.92114H9.21582V37.5361H35.0551V9.92114Z" stroke="#AABEFF" stroke-width="2" stroke-miterlimit="10" stroke-linecap="round" stroke-linejoin="round"/>
<path d="M67.0788 9.92114H41.2395V25.4737H67.0788V9.92114Z" stroke="#AABEFF" stroke-miterlimit="10" stroke-linecap="round" stroke-linejoin="round"/>
<path d="M44.2134 18.3816H51.8547L53.651 13.3137L54.6669 22.891L56.36 18.3816H63.7953" stroke="#AABEFF" stroke-miterlimit="10" stroke-linecap="round" stroke-linejoin="round"/>
<path d="M1 44.7539H74.4689" stroke="#AABEFF" stroke-width="2" stroke-miterlimit="10" stroke-linecap="round" stroke-linejoin="round"/>
<path d="M9.21582 53.7029H14.3837" stroke="#AABEFF" stroke-miterlimit="10" stroke-linecap="round" stroke-linejoin="round"/>
<path d="M61.7622 53.7029H66.9153" stroke="#AABEFF" stroke-miterlimit="10" stroke-linecap="round" stroke-linejoin="round"/>
<path d="M48.6309 53.7029H53.784" stroke="#AABEFF" stroke-miterlimit="10" stroke-linecap="round" stroke-linejoin="round"/>
<path d="M35.4971 53.7029H40.6502" stroke="#AABEFF" stroke-miterlimit="10" stroke-linecap="round" stroke-linejoin="round"/>
<path d="M1 48.5723L74.4687 48.5723" stroke="#AABEFF" stroke-miterlimit="10" stroke-linecap="round" stroke-linejoin="round"/>
<path d="M9.21582 33.2849L35.0551 33.2849" stroke="#AABEFF" stroke-miterlimit="10" stroke-linecap="round" stroke-linejoin="round"/>
<path d="M22.3491 53.7029H27.517" stroke="#AABEFF" stroke-miterlimit="10" stroke-linecap="round" stroke-linejoin="round"/>
<path d="M44.2131 37.285C45.937 37.285 47.3344 35.9598 47.3344 34.3252C47.3344 32.6906 45.937 31.3655 44.2131 31.3655C42.4893 31.3655 41.0918 32.6906 41.0918 34.3252C41.0918 35.9598 42.4893 37.285 44.2131 37.285Z" stroke="#AABEFF" stroke-miterlimit="10"/>
<path d="M44.2134 34.3251L46.4071 32.2449" stroke="#AABEFF" stroke-miterlimit="10" stroke-linecap="round" stroke-linejoin="round"/>
<path d="M54.0036 37.285C55.7275 37.285 57.125 35.9598 57.125 34.3252C57.125 32.6906 55.7275 31.3655 54.0036 31.3655C52.2798 31.3655 50.8823 32.6906 50.8823 34.3252C50.8823 35.9598 52.2798 37.285 54.0036 37.285Z" stroke="#AABEFF" stroke-miterlimit="10"/>
<path d="M54.0039 34.3251L56.2124 32.2449" stroke="#AABEFF" stroke-miterlimit="10" stroke-linecap="round" stroke-linejoin="round"/>
<path d="M63.7942 37.285C65.518 37.285 66.9155 35.9598 66.9155 34.3252C66.9155 32.6906 65.518 31.3655 63.7942 31.3655C62.0703 31.3655 60.6729 32.6906 60.6729 34.3252C60.6729 35.9598 62.0703 37.285 63.7942 37.285Z" stroke="#AABEFF" stroke-miterlimit="10"/>
<path d="M63.7944 34.3251L66.0029 32.2449" stroke="#AABEFF" stroke-miterlimit="10" stroke-linecap="round" stroke-linejoin="round"/>
</svg>
