<svg width="88" height="82" viewBox="0 0 88 82" fill="none" xmlns="http://www.w3.org/2000/svg">
<path d="M86.7446 58.0953V42.0994H1V58.0953H3.77403V71.8529L1 76.3777V80.9025H17.8561L21.7089 76.3777H66.026L69.8789 80.9025H86.7446V76.3777L83.9706 71.8529V58.0953H86.7446Z" stroke="#AABEFF" stroke-width="2" stroke-miterlimit="10" stroke-linecap="round" stroke-linejoin="round"/>
<path d="M7.64632 17.2563V28.7275L4.85303 30.657V35.6835V42.0992H7.64632H10.43H13.2233V17.2563H7.64632Z" stroke="#AABEFF" stroke-width="2" stroke-miterlimit="10" stroke-linecap="round" stroke-linejoin="round"/>
<path d="M4.85303 35.6836H8.18572" stroke="#AABEFF" stroke-miterlimit="10" stroke-linecap="round" stroke-linejoin="round"/>
<path d="M80.0987 17.2563V28.7275L82.892 30.657V35.6835V42.0992H80.0987H77.315H74.5217V17.2563H80.0987Z" stroke="#AABEFF" stroke-width="2" stroke-miterlimit="10" stroke-linecap="round" stroke-linejoin="round"/>
<path d="M82.892 35.6836H79.5593" stroke="#AABEFF" stroke-miterlimit="10" stroke-linecap="round" stroke-linejoin="round"/>
<path d="M34.1729 24.6176H13.2231V17.7144H74.5216V24.6176H44.8356" stroke="#AABEFF" stroke-miterlimit="10" stroke-linecap="round" stroke-linejoin="round"/>
<path d="M43.3619 5.9397H35.7237C33.595 5.9397 31.8708 7.66664 31.8708 9.79879V18.2309H34.3174V26.663C34.3174 28.7952 36.0415 30.5221 38.1702 30.5221H40.9154C43.044 30.5221 44.7682 28.7952 44.7682 26.663V18.2309H47.2147V9.78914C47.2051 7.66664 45.481 5.9397 43.3619 5.9397Z" stroke="#AABEFF" stroke-width="2" stroke-miterlimit="10" stroke-linecap="round" stroke-linejoin="round"/>
<path d="M74.5216 17.2565V13.272H47.2051" stroke="#AABEFF" stroke-miterlimit="10" stroke-linecap="round" stroke-linejoin="round"/>
<path d="M31.8707 13.2719H25.1475C21.7666 13.2719 19.0215 10.5223 19.0215 7.13595C19.0215 3.7496 21.7666 1 25.1475 1H39.5378V5.92999" stroke="#AABEFF" stroke-miterlimit="10" stroke-linecap="round" stroke-linejoin="round"/>
<path d="M39.5381 30.5027V34.4775" stroke="#AABEFF" stroke-width="2" stroke-miterlimit="10" stroke-linecap="round" stroke-linejoin="round"/>
<path d="M3.77393 57.5852H83.9705" stroke="#AABEFF" stroke-miterlimit="10" stroke-linecap="round" stroke-linejoin="round"/>
<path d="M67.4612 50.0972H86.3111" stroke="#AABEFF" stroke-miterlimit="10" stroke-linecap="round" stroke-linejoin="round"/>
<path d="M21.815 53.0206C23.4269 53.0206 24.7335 51.7118 24.7335 50.0973C24.7335 48.4829 23.4269 47.1741 21.815 47.1741C20.2031 47.1741 18.8965 48.4829 18.8965 50.0973C18.8965 51.7118 20.2031 53.0206 21.815 53.0206Z" stroke="#AABEFF" stroke-miterlimit="10" stroke-linecap="round" stroke-linejoin="round"/>
<path d="M10.3045 53.0206C11.9164 53.0206 13.223 51.7118 13.223 50.0973C13.223 48.4829 11.9164 47.1741 10.3045 47.1741C8.69265 47.1741 7.38599 48.4829 7.38599 50.0973C7.38599 51.7118 8.69265 53.0206 10.3045 53.0206Z" stroke="#AABEFF" stroke-miterlimit="10" stroke-linecap="round" stroke-linejoin="round"/>
<path d="M33.3255 53.0206C34.9373 53.0206 36.244 51.7118 36.244 50.0973C36.244 48.4829 34.9373 47.1741 33.3255 47.1741C31.7136 47.1741 30.407 48.4829 30.407 50.0973C30.407 51.7118 31.7136 53.0206 33.3255 53.0206Z" stroke="#AABEFF" stroke-miterlimit="10" stroke-linecap="round" stroke-linejoin="round"/>
<path d="M60.1699 69.3909C61.6115 69.3909 62.7801 68.2204 62.7801 66.7764C62.7801 65.3324 61.6115 64.1619 60.1699 64.1619C58.7282 64.1619 57.5596 65.3324 57.5596 66.7764C57.5596 68.2204 58.7282 69.3909 60.1699 69.3909Z" stroke="#AABEFF" stroke-miterlimit="10" stroke-linecap="round" stroke-linejoin="round"/>
<path d="M61.1523 65.937L63.0306 64.0557" stroke="#AABEFF" stroke-miterlimit="10" stroke-linecap="round" stroke-linejoin="round"/>
<path d="M72.2001 69.3909C73.6418 69.3909 74.8104 68.2204 74.8104 66.7764C74.8104 65.3324 73.6418 64.1619 72.2001 64.1619C70.7585 64.1619 69.5898 65.3324 69.5898 66.7764C69.5898 68.2204 70.7585 69.3909 72.2001 69.3909Z" stroke="#AABEFF" stroke-miterlimit="10" stroke-linecap="round" stroke-linejoin="round"/>
<path d="M73.1826 65.937L75.0609 64.0557" stroke="#AABEFF" stroke-miterlimit="10" stroke-linecap="round" stroke-linejoin="round"/>
<path d="M64.8896 41.9065V39.7261" stroke="#AABEFF" stroke-miterlimit="10" stroke-linecap="round" stroke-linejoin="round"/>
<path d="M36.8699 41.9065V39.7261" stroke="#AABEFF" stroke-miterlimit="10" stroke-linecap="round" stroke-linejoin="round"/>
<path d="M50.875 41.9065V39.7261" stroke="#AABEFF" stroke-miterlimit="10" stroke-linecap="round" stroke-linejoin="round"/>
<path d="M37.4575 9.57666H41.6186" stroke="#AABEFF" stroke-miterlimit="10" stroke-linecap="round" stroke-linejoin="round"/>
<path d="M37.4575 11.4194H41.6186" stroke="#AABEFF" stroke-miterlimit="10" stroke-linecap="round" stroke-linejoin="round"/>
<path d="M37.4575 13.272H41.6186" stroke="#AABEFF" stroke-miterlimit="10" stroke-linecap="round" stroke-linejoin="round"/>
<path d="M22.8552 41.9065V39.7261" stroke="#AABEFF" stroke-miterlimit="10" stroke-linecap="round" stroke-linejoin="round"/>
<path d="M12.1541 68.5902V63.4866" stroke="#AABEFF" stroke-miterlimit="10" stroke-linecap="round" stroke-linejoin="round"/>
<path d="M15.1785 68.5902V63.4866" stroke="#AABEFF" stroke-miterlimit="10" stroke-linecap="round" stroke-linejoin="round"/>
<path d="M18.2031 68.5902V63.4866" stroke="#AABEFF" stroke-miterlimit="10" stroke-linecap="round" stroke-linejoin="round"/>
<path d="M21.2273 68.5902V63.4866" stroke="#AABEFF" stroke-miterlimit="10" stroke-linecap="round" stroke-linejoin="round"/>
<path d="M24.2517 68.5902V63.4866" stroke="#AABEFF" stroke-miterlimit="10" stroke-linecap="round" stroke-linejoin="round"/>
<path d="M27.2764 68.5902V63.4866" stroke="#AABEFF" stroke-miterlimit="10" stroke-linecap="round" stroke-linejoin="round"/>
<path d="M30.3008 68.5902V63.4866" stroke="#AABEFF" stroke-miterlimit="10" stroke-linecap="round" stroke-linejoin="round"/>
<path d="M33.3252 68.5902V63.4866" stroke="#AABEFF" stroke-miterlimit="10" stroke-linecap="round" stroke-linejoin="round"/>
<path d="M39.5379 20.8402C38.6807 20.8402 37.9775 20.1456 37.9775 19.2773V17.7144H41.0983V19.2773C41.0983 20.1359 40.3952 20.8402 39.5379 20.8402Z" stroke="#AABEFF" stroke-miterlimit="10" stroke-linecap="round" stroke-linejoin="round"/>
</svg>
