<svg width="78" height="51" viewBox="0 0 78 51" fill="none" xmlns="http://www.w3.org/2000/svg">
<path d="M76.21 1H1V46.15H7.3V49.59H28.8V46.15H33.08V49.59H69.79V46.15H76.21V1Z" stroke="#AABEFF" stroke-width="2" stroke-miterlimit="10" stroke-linecap="round" stroke-linejoin="round"/>
<path d="M10.8 49.59V45.97" stroke="#AABEFF" stroke-miterlimit="10" stroke-linecap="round" stroke-linejoin="round"/>
<path d="M13.8 49.59V45.97" stroke="#AABEFF" stroke-miterlimit="10" stroke-linecap="round" stroke-linejoin="round"/>
<path d="M16.8 49.59V45.97" stroke="#AABEFF" stroke-miterlimit="10" stroke-linecap="round" stroke-linejoin="round"/>
<path d="M19.8 49.59V45.97" stroke="#AABEFF" stroke-miterlimit="10" stroke-linecap="round" stroke-linejoin="round"/>
<path d="M22.8 49.59V45.97" stroke="#AABEFF" stroke-miterlimit="10" stroke-linecap="round" stroke-linejoin="round"/>
<path d="M25.8 49.59V45.97" stroke="#AABEFF" stroke-miterlimit="10" stroke-linecap="round" stroke-linejoin="round"/>
<path d="M36.4399 49.59V45.97" stroke="#AABEFF" stroke-miterlimit="10" stroke-linecap="round" stroke-linejoin="round"/>
<path d="M39.4399 49.59V45.97" stroke="#AABEFF" stroke-miterlimit="10" stroke-linecap="round" stroke-linejoin="round"/>
<path d="M42.4399 49.59V45.97" stroke="#AABEFF" stroke-miterlimit="10" stroke-linecap="round" stroke-linejoin="round"/>
<path d="M45.4399 49.59V45.97" stroke="#AABEFF" stroke-miterlimit="10" stroke-linecap="round" stroke-linejoin="round"/>
<path d="M48.4399 49.59V45.97" stroke="#AABEFF" stroke-miterlimit="10" stroke-linecap="round" stroke-linejoin="round"/>
<path d="M51.4399 49.59V45.97" stroke="#AABEFF" stroke-miterlimit="10" stroke-linecap="round" stroke-linejoin="round"/>
<path d="M33.4399 35.9901V32.3701" stroke="#AABEFF" stroke-miterlimit="10" stroke-linecap="round" stroke-linejoin="round"/>
<path d="M36.4399 35.9901V32.3701" stroke="#AABEFF" stroke-miterlimit="10" stroke-linecap="round" stroke-linejoin="round"/>
<path d="M39.4399 35.9901V32.3701" stroke="#AABEFF" stroke-miterlimit="10" stroke-linecap="round" stroke-linejoin="round"/>
<path d="M42.4399 35.9901V32.3701" stroke="#AABEFF" stroke-miterlimit="10" stroke-linecap="round" stroke-linejoin="round"/>
<path d="M45.4399 35.9901V32.3701" stroke="#AABEFF" stroke-miterlimit="10" stroke-linecap="round" stroke-linejoin="round"/>
<path d="M33.4399 12.64V9.02002" stroke="#AABEFF" stroke-miterlimit="10" stroke-linecap="round" stroke-linejoin="round"/>
<path d="M36.4399 12.64V9.02002" stroke="#AABEFF" stroke-miterlimit="10" stroke-linecap="round" stroke-linejoin="round"/>
<path d="M39.4399 12.64V9.02002" stroke="#AABEFF" stroke-miterlimit="10" stroke-linecap="round" stroke-linejoin="round"/>
<path d="M42.4399 12.64V9.02002" stroke="#AABEFF" stroke-miterlimit="10" stroke-linecap="round" stroke-linejoin="round"/>
<path d="M45.4399 12.64V9.02002" stroke="#AABEFF" stroke-miterlimit="10" stroke-linecap="round" stroke-linejoin="round"/>
<path d="M25.9502 16.5H29.5702" stroke="#AABEFF" stroke-miterlimit="10" stroke-linecap="round" stroke-linejoin="round"/>
<path d="M25.9502 19.5H29.5702" stroke="#AABEFF" stroke-miterlimit="10" stroke-linecap="round" stroke-linejoin="round"/>
<path d="M25.9502 22.5H29.5702" stroke="#AABEFF" stroke-miterlimit="10" stroke-linecap="round" stroke-linejoin="round"/>
<path d="M25.9502 25.5H29.5702" stroke="#AABEFF" stroke-miterlimit="10" stroke-linecap="round" stroke-linejoin="round"/>
<path d="M25.9502 28.5H29.5702" stroke="#AABEFF" stroke-miterlimit="10" stroke-linecap="round" stroke-linejoin="round"/>
<path d="M49.3 16.5H52.92" stroke="#AABEFF" stroke-miterlimit="10" stroke-linecap="round" stroke-linejoin="round"/>
<path d="M49.3 19.5H52.92" stroke="#AABEFF" stroke-miterlimit="10" stroke-linecap="round" stroke-linejoin="round"/>
<path d="M49.3 22.5H52.92" stroke="#AABEFF" stroke-miterlimit="10" stroke-linecap="round" stroke-linejoin="round"/>
<path d="M49.3 25.5H52.92" stroke="#AABEFF" stroke-miterlimit="10" stroke-linecap="round" stroke-linejoin="round"/>
<path d="M49.3 28.5H52.92" stroke="#AABEFF" stroke-miterlimit="10" stroke-linecap="round" stroke-linejoin="round"/>
<path d="M54.4399 49.59V45.97" stroke="#AABEFF" stroke-miterlimit="10" stroke-linecap="round" stroke-linejoin="round"/>
<path d="M57.4399 49.59V45.97" stroke="#AABEFF" stroke-miterlimit="10" stroke-linecap="round" stroke-linejoin="round"/>
<path d="M60.4399 49.59V45.97" stroke="#AABEFF" stroke-miterlimit="10" stroke-linecap="round" stroke-linejoin="round"/>
<path d="M63.4399 49.59V45.97" stroke="#AABEFF" stroke-miterlimit="10" stroke-linecap="round" stroke-linejoin="round"/>
<path d="M66.4399 49.59V45.97" stroke="#AABEFF" stroke-miterlimit="10" stroke-linecap="round" stroke-linejoin="round"/>
<path d="M49.2901 12.6401H29.5701V32.3601H49.2901V12.6401Z" stroke="#AABEFF" stroke-width="2" stroke-miterlimit="10" stroke-linecap="round" stroke-linejoin="round"/>
<path d="M12.8 20.23C11.52 20.23 10.48 19.19 10.48 17.91V12.33C10.48 11.05 11.52 10.01 12.8 10.01C14.08 10.01 15.12 11.05 15.12 12.33V17.91C15.12 19.19 14.08 20.23 12.8 20.23Z" stroke="#AABEFF" stroke-miterlimit="10" stroke-linecap="round" stroke-linejoin="round"/>
<path d="M68.7501 10.01H64.1201V15.12H68.7501V10.01Z" stroke="#AABEFF" stroke-miterlimit="10" stroke-linecap="round" stroke-linejoin="round"/>
<path d="M68.7501 31.0701H64.1201V36.1801H68.7501V31.0701Z" stroke="#AABEFF" stroke-miterlimit="10" stroke-linecap="round" stroke-linejoin="round"/>
<path d="M68.7501 20.54H64.1201V25.65H68.7501V20.54Z" stroke="#AABEFF" stroke-miterlimit="10" stroke-linecap="round" stroke-linejoin="round"/>
<path d="M12.8 35.6101C11.52 35.6101 10.48 34.5701 10.48 33.2901V27.7101C10.48 26.4301 11.52 25.3901 12.8 25.3901C14.08 25.3901 15.12 26.4301 15.12 27.7101V33.2901C15.12 34.5801 14.08 35.6101 12.8 35.6101Z" stroke="#AABEFF" stroke-miterlimit="10" stroke-linecap="round" stroke-linejoin="round"/>
</svg>
