<svg xmlns="http://www.w3.org/2000/svg" width="55" height="32"><path fill="#0bd" d="M47.406 17.905a35.352 35.352 0 0 1-2.809 2.754l-.04.035c-4.968 4.008-10.712 6.385-17.143 6.354-6.37.015-12.084-2.347-17.097-6.354a36.347 36.347 0 0 1-2.842-2.763l-.023-.025zM8.015 13.333a39.332 39.332 0 0 0 1.493-1.798l1.92-2.59c1.544-2.144 4.007-3.542 6.801-3.611h.011c1.097 0 2.042.244 4.008 1.006 2.59 1.006 3.581 1.31 5.242 1.326 1.524-.015 2.545-.32 5.12-1.326 1.966-.762 2.91-1.021 4.008-1.006a8.616 8.616 0 0 1 6.794 3.571l.017.025 1.92 2.59c.472.625.96 1.219 1.493 1.813zm46.294 3.779a2.282 2.282 0 0 0-.241-3.213l-.003-.002a32.429 32.429 0 0 1-5.023-5.069l-.051-.067-1.95-2.636C44.656 2.9 40.886.817 36.627.761h-.009c-1.798-.015-3.17.35-5.653 1.31-2.042.792-2.743 1.006-3.535 1.021-.792 0-1.493-.229-3.535-1.021-2.484-.96-3.855-1.326-5.638-1.31A13.12 13.12 0 0 0 7.844 6.089l-.025.036-1.95 2.636C4.711 10.285 3.461 11.58.81 13.866a2.283 2.283 0 0 0-.196 3.308l-.001-.001c1.021 1.219 5.059 5.638 6.857 7.086 5.76 4.617 12.45 7.39 19.947 7.36 7.573.03 14.278-2.743 20.008-7.36 1.691-1.371 6.796-7.04 6.888-7.147z"/></svg>