<svg xmlns="http://www.w3.org/2000/svg" width="32" height="32"><path fill="#0bd" d="M10.857 6.423v23.383c0 .903-.766 1.623-1.714 1.623s-1.714-.72-1.714-1.623V6.423l-3.931 3.931A1.712 1.712 0 0 1 .53 9.186c0-.495.21-.94.545-1.253l.001-.001 6.857-6.857a1.71 1.71 0 0 1 2.422 0l6.857 6.857a1.712 1.712 0 0 1-1.168 2.968c-.495 0-.94-.21-1.253-.545l-.001-.001zm13.714 12v11.383c0 .903-.766 1.623-1.714 1.623s-1.714-.72-1.714-1.623V18.423l-3.931 3.931a1.712 1.712 0 0 1-2.968-1.168c0-.495.21-.94.545-1.253l.001-.001 6.857-6.857a1.71 1.71 0 0 1 2.422 0l6.857 6.857a1.712 1.712 0 0 1-1.168 2.968c-.495 0-.94-.209-1.253-.545l-.001-.001z"/></svg>