<svg xmlns="http://www.w3.org/2000/svg" width="29" height="32"><path fill="#0bd" d="M6.67 18.1C3.54 14.95 1.53 11.98.55 8.4a1.504 1.504 0 0 1 2.897-.81l.003.011a15.27 15.27 0 0 0 2.232 4.708l-.032-.048a6.235 6.235 0 0 1 1.182-2.957l-.012.017a1.502 1.502 0 1 1 2.357 1.863l.002-.003c-.3.38-.5 1-.6 1.81s-.08 1.72.03 2.59c0 .09.13.36.19.4.62.63 2.61 2.5 3.7 3.55v-7.78c0-1.84-.75-3.88-2.03-5.94a20.91 20.91 0 0 0-2.08-2.803l.02.023a1.5 1.5 0 0 1 2.18-2.06 23.746 23.746 0 0 1 2.372 3.161l.058.099c.62.99 1.13 1.98 1.53 2.97.6-1.1 1.3-2.2 2.01-3.12a1.503 1.503 0 0 1 2.694.92c0 .348-.118.668-.317.923l.003-.003c-1.79 2.3-3.44 5.9-3.44 7.33v3.28a10.923 10.923 0 0 1 3.831-2.843l.069-.027c-.38-1.4-.2-2.93.93-4.34a1.498 1.498 0 0 1 2.633.982c0 .33-.106.634-.286.882l.003-.004c-.32.4-.45.8-.45 1.19 1.71-1 2.5-2.14 3.08-4.06a1.501 1.501 0 1 1 2.867.891l.003-.011c-1.12 3.64-3 5.45-7.47 7.18-.2.08-.4.16-.58.26.18.29.4.58.67.84.52.53 1.12.9 1.8 1.07a1.501 1.501 0 1 1-.71 2.917l.01.002a6.75 6.75 0 0 1-3.238-1.878l-.002-.002a8.25 8.25 0 0 1-.882-1.054l-.018-.026-.4.47a13.523 13.523 0 0 0-1.826 2.993l-.034.087v8.45a1.5 1.5 0 0 1-3 0v-4.49a5.182 5.182 0 0 0-.574-2.199l.014.029c-.93-1.8-2.83-2.58-6.55-1.64a1.5 1.5 0 0 1-.74-2.908l.01-.002c.98-.25 1.9-.4 2.76-.45l-.75-.74z"/></svg>