<svg width="24" height="20" viewBox="0 0 24 20" fill="none" xmlns="http://www.w3.org/2000/svg">
<path d="M7.47367 19.3316C5.10753 19.3316 3.70117 17.9289 3.70117 15.5866L3.70117 10.161C3.70117 7.81211 5.11419 6.41602 7.47367 6.41602L16.5317 6.41602C18.8978 6.41602 20.3042 7.81873 20.3042 10.161V15.5535C20.3042 17.9024 18.8911 19.2985 16.5317 19.2985L7.47367 19.3316ZM15.8118 9.36701C14.7075 9.36701 13.8123 10.2557 13.8123 11.352C13.8123 12.4483 14.7075 13.337 15.8118 13.337C16.9162 13.337 17.8114 12.4483 17.8114 11.352C17.8114 10.2557 16.9162 9.36701 15.8118 9.36701ZM8.18018 9.36701C7.07584 9.36701 6.18062 10.2557 6.18062 11.352C6.18062 12.4483 7.07584 13.337 8.18018 13.337C9.28452 13.337 10.1797 12.4483 10.1797 11.352C10.1797 10.2583 9.2886 9.37065 8.18684 9.36701H8.18018Z" fill="url(#paint0_linear)"/>
<path d="M8.18674 13.3307C9.28738 13.3307 10.1796 12.445 10.1796 11.3524C10.1796 10.2598 9.28738 9.37402 8.18674 9.37402C7.0861 9.37402 6.19385 10.2598 6.19385 11.3524C6.19385 12.445 7.0861 13.3307 8.18674 13.3307Z" fill="white"/>
<path d="M8.18819 12.6686C8.92073 12.6686 9.51456 12.0791 9.51456 11.3519C9.51456 10.6247 8.92073 10.0352 8.18819 10.0352C7.45565 10.0352 6.86182 10.6247 6.86182 11.3519C6.86182 12.0791 7.45565 12.6686 8.18819 12.6686Z" fill="url(#paint1_linear)"/>
<path d="M2.84207 15.2956C1.22976 14.832 0.3013 13.1588 0.768197 11.5582C1.05813 10.5644 1.84088 9.78738 2.84207 9.49948L3.69522 9.24805L3.69522 15.5536L2.84207 15.2956Z" fill="url(#paint2_linear)"/>
<path d="M15.8122 13.3307C16.9129 13.3307 17.8051 12.445 17.8051 11.3524C17.8051 10.2598 16.9129 9.37402 15.8122 9.37402C14.7116 9.37402 13.8193 10.2598 13.8193 11.3524C13.8193 12.445 14.7116 13.3307 15.8122 13.3307Z" fill="white"/>
<path d="M15.8127 12.6686C16.5452 12.6686 17.1391 12.0791 17.1391 11.3519C17.1391 10.6247 16.5452 10.0352 15.8127 10.0352C15.0802 10.0352 14.4863 10.6247 14.4863 11.3519C14.4863 12.0791 15.0802 12.6686 15.8127 12.6686Z" fill="url(#paint3_linear)"/>
<path d="M20.3042 9.27441L21.1573 9.49938C22.7697 9.96295 23.6981 11.6362 23.2312 13.2368C22.9413 14.2306 22.1585 15.0076 21.1573 15.2955L20.3042 15.5535V9.27441Z" fill="url(#paint4_linear)"/>
<path d="M12.0007 3.78254C12.8584 3.78254 13.5537 3.09232 13.5537 2.24088C13.5537 1.38944 12.8584 0.699219 12.0007 0.699219C11.143 0.699219 10.4478 1.38944 10.4478 2.24088C10.4478 3.09232 11.143 3.78254 12.0007 3.78254Z" fill="url(#paint5_linear)"/>
<path d="M8.18756 13.9915C9.65999 13.9915 10.8536 12.8066 10.8536 11.3449C10.8536 9.88319 9.65999 8.69824 8.18756 8.69824C6.71514 8.69824 5.52148 9.88319 5.52148 11.3449C5.52148 12.8066 6.71514 13.9915 8.18756 13.9915ZM8.18756 10.0216C8.92382 10.0216 9.5206 10.614 9.5206 11.3449C9.5206 12.0758 8.92382 12.6682 8.18756 12.6682C7.45131 12.6682 6.85452 12.0758 6.85452 11.3449C6.85819 10.6166 7.45397 10.0282 8.18756 10.0282V10.0216Z" fill="white"/>
<path d="M15.8116 13.9915C17.284 13.9915 18.4777 12.8066 18.4777 11.3449C18.4777 9.88319 17.284 8.69824 15.8116 8.69824C14.3392 8.69824 13.1455 9.88319 13.1455 11.3449C13.1455 12.8066 14.3392 13.9915 15.8116 13.9915ZM15.8116 10.0216C16.5478 10.0216 17.1446 10.614 17.1446 11.3449C17.1446 12.0758 16.5478 12.6682 15.8116 12.6682C15.0753 12.6682 14.4785 12.0758 14.4785 11.3449C14.4822 10.6166 15.078 10.0282 15.8116 10.0282V10.0216Z" fill="white"/>
<path d="M3.04811 16.0301C3.24806 18.9347 5.42092 20 7.46713 20H16.5318C19.5778 20 20.7975 18.015 20.9508 16.0301C22.9681 15.6661 24.3062 13.7475 23.9395 11.7449C23.6519 10.1741 22.378 8.9657 20.7842 8.75182C20.3443 7.13738 19.0779 5.76113 16.5318 5.76113H12.666V4.30548C13.8352 3.94008 14.4847 2.70287 14.1165 1.54224C13.7483 0.381607 12.5021 -0.263178 11.3329 0.102305C10.1638 0.467788 9.51426 1.70492 9.88243 2.86555C10.1001 3.55186 10.6416 4.08945 11.3329 4.30548V5.72805H7.4738C5.67419 5.72805 3.78128 6.5485 3.20807 8.71874C1.17677 8.99556 -0.243914 10.8547 0.0349415 12.8711C0.25356 14.4522 1.47254 15.7139 3.05477 15.997L3.04811 16.0301ZM22.6638 12.3976C22.6608 13.4474 21.9603 14.3693 20.9442 14.6604V10.1347C21.9603 10.4258 22.6608 11.3477 22.6638 12.3976ZM11.113 2.24111C11.113 1.75513 11.5099 1.36111 11.9995 1.36111C12.489 1.36111 12.8859 1.75513 12.8859 2.24111C12.8859 2.7271 12.489 3.12112 11.9995 3.12112C11.5099 3.12112 11.113 2.7271 11.113 2.24111ZM4.36115 10.181C4.36115 7.49467 6.30739 7.09768 7.46713 7.09768H16.5318C19.2379 7.09768 19.6378 9.02972 19.6378 10.181V15.5537C19.6378 16.7049 19.2312 18.637 16.5318 18.637H7.4738C6.31405 18.637 4.36782 18.2334 4.36782 15.5537L4.36115 10.181ZM3.02811 10.181V14.7067C1.76914 14.3455 1.04363 13.0395 1.40747 11.7898C1.63367 11.0129 2.24554 10.4056 3.02811 10.181Z" fill="white"/>
<path d="M15.8115 15.792L8.18654 15.792C7.81845 15.792 7.52002 16.0882 7.52002 16.4536C7.52002 16.819 7.81845 17.1153 8.18654 17.1153H15.8115C16.1796 17.1153 16.478 16.819 16.478 16.4536C16.478 16.0882 16.1796 15.792 15.8115 15.792Z" fill="white"/>
<defs>
<linearGradient id="paint0_linear" x1="12.0027" y1="6.41602" x2="12.0027" y2="19.3316" gradientUnits="userSpaceOnUse">
<stop stop-color="#37B1E2"/>
<stop offset="1" stop-color="#1D95C9"/>
</linearGradient>
<linearGradient id="paint1_linear" x1="8.18819" y1="10.0352" x2="8.18819" y2="12.6686" gradientUnits="userSpaceOnUse">
<stop stop-color="#37B1E2"/>
<stop offset="1" stop-color="#1D95C9"/>
</linearGradient>
<linearGradient id="paint2_linear" x1="2.17134" y1="9.24805" x2="2.17134" y2="15.5536" gradientUnits="userSpaceOnUse">
<stop stop-color="#37B1E2"/>
<stop offset="1" stop-color="#1D95C9"/>
</linearGradient>
<linearGradient id="paint3_linear" x1="15.8127" y1="10.0352" x2="15.8127" y2="12.6686" gradientUnits="userSpaceOnUse">
<stop stop-color="#37B1E2"/>
<stop offset="1" stop-color="#1D95C9"/>
</linearGradient>
<linearGradient id="paint4_linear" x1="21.8281" y1="9.27441" x2="21.8281" y2="15.5535" gradientUnits="userSpaceOnUse">
<stop stop-color="#37B1E2"/>
<stop offset="1" stop-color="#1D95C9"/>
</linearGradient>
<linearGradient id="paint5_linear" x1="12.0007" y1="0.699219" x2="12.0007" y2="3.78254" gradientUnits="userSpaceOnUse">
<stop stop-color="#37B1E2"/>
<stop offset="1" stop-color="#1D95C9"/>
</linearGradient>
</defs>
</svg>
