<svg width="38" height="42" viewBox="0 0 38 42" fill="none" xmlns="http://www.w3.org/2000/svg">
<path d="M1.14279 15.9551L5.73654 14.3965L8.7717 16.1602L5.53147 17.2676C5.08029 17.4317 4.8342 17.8829 4.99826 18.334C5.16232 18.7852 5.6135 19.0313 6.06467 18.8672L10.6584 17.3086L12.4631 18.293C12.8322 18.5391 13.3244 18.4161 13.5705 18.0059C13.8166 17.6368 13.6936 17.1446 13.2834 16.8985L11.5197 15.8731L10.5764 11.1153C10.4533 10.6641 10.0432 10.377 9.59201 10.459C9.14084 10.5821 8.85373 10.9922 8.93576 11.4434L9.63303 14.6426L6.59787 12.879L5.65451 8.12114C5.53147 7.66997 5.12131 7.38286 4.67014 7.46489C4.21897 7.58794 3.93186 7.9981 4.01389 8.44927L4.67014 11.8126L1.63498 10.0899C1.26584 9.8438 0.773653 9.96685 0.527559 10.377C0.281465 10.7461 0.404512 11.2383 0.814668 11.4844L3.84982 13.2481L0.60959 14.3555C0.158418 14.5196 -0.0876755 14.9708 0.076387 15.4219C0.24045 15.8731 0.691621 16.1192 1.14279 15.9551Z" fill="url(#paint0_linear)"/>
<path d="M26.6953 21.041C26.8184 20.6308 26.6133 20.1387 26.1621 20.0156L22.4297 18.7851L22.9629 14.7656C23.0039 14.5195 22.9219 14.3144 22.7168 14.1504C22.4297 13.7812 21.8965 13.7812 21.5684 14.0683L18.6152 16.6933L15.416 14.2324C15.252 14.0683 15.0059 14.0273 14.7598 14.0683C14.3086 14.1914 14.0215 14.6016 14.1035 15.0527L14.8828 18.9082L11.1504 20.4668C10.9453 20.5488 10.7813 20.7129 10.6992 20.959C10.5762 21.3691 10.7813 21.8613 11.2324 21.9844L14.9649 23.2148L14.4317 27.2344C14.3906 27.4805 14.4727 27.6855 14.6367 27.8906C14.9238 28.2598 15.457 28.2598 15.7852 27.9726L18.7793 25.3066L21.9785 27.7676C22.1426 27.9316 22.3887 27.9726 22.6348 27.9316C23.0859 27.8086 23.3731 27.3984 23.291 26.9473L22.5117 23.0918L26.2442 21.5332C26.4492 21.4512 26.6133 21.2871 26.6953 21.041ZM21.2402 21.8613C20.8711 22.0254 20.666 22.4355 20.7481 22.8047L21.1992 25.1426L19.1895 23.625C18.8613 23.3379 18.4102 23.3789 18.1231 23.666L16.3184 25.2656L16.6465 22.7637C16.7285 22.3535 16.4414 21.9844 16.0723 21.8613L13.8164 21.123L16.1543 20.1797C16.5234 20.0156 16.7285 19.6055 16.6465 19.2363L16.1543 16.8574L18.1641 18.375C18.4922 18.6621 18.9434 18.6211 19.2305 18.334L21.0352 16.7344L20.707 19.2363C20.666 19.6465 20.9121 20.0156 21.3223 20.1797L23.5781 20.918L21.2402 21.8613Z" fill="url(#paint1_linear)"/>
<path d="M15.2931 7.75195C14.9649 7.46484 14.4317 7.50586 14.1446 7.83398C13.8575 8.16211 13.8985 8.69531 14.2267 8.98242L17.8771 12.1816V14.1914C17.8771 14.6426 18.2462 15.0117 18.6974 15.0117C19.1485 15.0117 19.5177 14.6426 19.5177 14.1914V12.1816L23.1681 8.98242C23.4962 8.69531 23.5372 8.16211 23.2501 7.83398C22.963 7.50586 22.4298 7.46484 22.1017 7.75195L19.5177 10.0078V6.48047L23.1681 3.28125C23.4962 2.99414 23.5372 2.46094 23.2501 2.13281C22.963 1.80469 22.4298 1.76367 22.1017 2.05078L19.5177 4.30664V0.820312C19.5177 0.369141 19.1485 0 18.6974 0C18.2462 0 17.8771 0.369141 17.8771 0.820312V4.30664L15.2931 2.05078C14.9649 1.76367 14.4317 1.80469 14.1446 2.13281C13.8575 2.46094 13.8985 2.99414 14.2267 3.28125L17.8771 6.48047V10.0078L15.2931 7.75195Z" fill="url(#paint2_linear)"/>
<path d="M12.4219 23.666L10.6582 24.6914L6.06446 23.0918C5.61329 22.9688 5.16212 23.1738 4.99806 23.625C4.87501 24.0762 5.08009 24.5274 5.53126 24.6914L8.73048 25.7168L5.69532 27.4805L1.10157 25.9219C0.650402 25.7988 0.19923 26.0039 0.0351676 26.4551C-0.0878793 26.8652 0.117199 27.3164 0.568371 27.4805L3.8086 28.5879L0.773449 30.3516C0.404308 30.5567 0.240246 31.0488 0.48634 31.459C0.691418 31.8281 1.18361 31.9922 1.59376 31.7461L4.62892 30.0234L3.97267 33.3867C3.89064 33.8379 4.17775 34.2891 4.62892 34.3711C5.08009 34.4531 5.53126 34.166 5.61329 33.7149L6.51564 28.916L9.55079 27.1524L8.89454 30.5156C8.81251 30.9668 9.09962 31.418 9.55079 31.5C10.002 31.582 10.4531 31.2949 10.5352 30.8438L11.4785 26.0859L13.2422 25.0606C13.6113 24.8555 13.7754 24.3633 13.5293 23.9531C13.3242 23.584 12.832 23.4199 12.4219 23.666Z" fill="url(#paint3_linear)"/>
<path d="M36.826 14.5196L33.5858 13.4122L36.6209 11.6485C36.9901 11.4434 37.1541 10.9512 36.908 10.5411C36.703 10.1719 36.2108 10.0079 35.8006 10.254L32.7655 11.9766L33.4217 8.61333C33.5037 8.16216 33.2166 7.71099 32.7655 7.62896C32.3143 7.54693 31.8631 7.83404 31.7811 8.28521L30.8787 13.084L27.8436 14.8477L28.4998 11.4844C28.5819 11.0333 28.2948 10.5821 27.8436 10.5001C27.3924 10.418 26.9412 10.7051 26.8592 11.1563L25.9158 15.9141L24.1522 16.9395C23.783 17.1446 23.619 17.6368 23.8651 18.0469C24.0701 18.4161 24.5623 18.5801 24.9725 18.334L26.7362 17.3086L31.3709 18.9083C31.7811 19.0313 32.2323 18.8262 32.3963 18.3751C32.5194 17.9239 32.3143 17.4727 31.8631 17.3086L28.6639 16.3243L31.699 14.5606L36.2928 16.1192C36.744 16.2422 37.1951 16.0372 37.3592 15.586C37.4823 15.1348 37.2772 14.6836 36.826 14.5196Z" fill="url(#paint4_linear)"/>
<path d="M36.2112 26.086L31.6175 27.6446L28.5823 25.881L31.8226 24.7735C32.2737 24.6095 32.5198 24.1583 32.3558 23.7071C32.2327 23.256 31.7815 23.0099 31.3304 23.1739L26.7366 24.7325L24.9729 23.7071C24.6038 23.461 24.1116 23.5841 23.8655 23.9942C23.6194 24.3634 23.7425 24.8556 24.1526 25.1017L25.8753 26.127L26.8187 30.8849C26.9417 31.336 27.3519 31.6231 27.803 31.5411C28.2542 31.4181 28.5413 31.0079 28.4593 30.5567L27.721 27.3575L30.7561 29.1212L31.6995 33.879C31.8226 34.3302 32.2327 34.6173 32.6839 34.5352C33.1351 34.4122 33.4222 34.002 33.3401 33.5509L32.6839 30.1876L35.719 31.9103C36.0882 32.1563 36.5804 32.0333 36.8265 31.6231C37.0726 31.254 36.9495 30.7618 36.5394 30.5157L33.5042 28.752L36.7444 27.6446C37.1956 27.5216 37.4417 27.0704 37.2776 26.6192C37.1136 26.1681 36.6624 25.922 36.2112 26.086Z" fill="url(#paint5_linear)"/>
<path d="M22.1017 34.248C22.4298 34.5352 22.963 34.4941 23.2501 34.166C23.5372 33.8379 23.4962 33.3047 23.1681 33.0176L19.5177 29.8184V27.8086C19.5177 27.3574 19.1485 26.9883 18.6974 26.9883C18.2462 26.9883 17.8771 27.3574 17.8771 27.8086V29.8184L14.2267 33.0176C13.8985 33.3047 13.8575 33.8379 14.1446 34.166C14.4317 34.4941 14.9649 34.5352 15.2931 34.248L17.8771 31.9922V35.5195L14.2267 38.7187C13.8985 39.0059 13.8575 39.5391 14.1446 39.8672C14.4317 40.1953 14.9649 40.2363 15.2931 39.9492L17.8771 37.6934V41.1797C17.8771 41.6309 18.2462 42 18.6974 42C19.1485 42 19.5177 41.6309 19.5177 41.1797V37.6934L22.1017 39.9492C22.4298 40.2363 22.963 40.1953 23.2501 39.8672C23.5372 39.5391 23.4962 39.0059 23.1681 38.7187L19.5177 35.5195V31.9922L22.1017 34.248Z" fill="url(#paint6_linear)"/>
<defs>
<linearGradient id="paint0_linear" x1="6.67461" y1="19.9378" x2="6.87973" y2="7.14029" gradientUnits="userSpaceOnUse">
<stop stop-color="#006DF0"/>
<stop offset="1" stop-color="#00E7F0"/>
</linearGradient>
<linearGradient id="paint1_linear" x1="18.4781" y1="29.4515" x2="18.7502" y2="13.475" gradientUnits="userSpaceOnUse">
<stop stop-color="#006DF0"/>
<stop offset="1" stop-color="#00E7F0"/>
</linearGradient>
<linearGradient id="paint2_linear" x1="18.5679" y1="16.3464" x2="19.074" y2="-0.395659" gradientUnits="userSpaceOnUse">
<stop stop-color="#006DF0"/>
<stop offset="1" stop-color="#00E7F0"/>
</linearGradient>
<linearGradient id="paint3_linear" x1="6.63702" y1="35.3923" x2="6.83757" y2="22.7497" gradientUnits="userSpaceOnUse">
<stop stop-color="#006DF0"/>
<stop offset="1" stop-color="#00E7F0"/>
</linearGradient>
<linearGradient id="paint4_linear" x1="30.3851" y1="19.9506" x2="30.5856" y2="7.30805" gradientUnits="userSpaceOnUse">
<stop stop-color="#006DF0"/>
<stop offset="1" stop-color="#00E7F0"/>
</linearGradient>
<linearGradient id="paint5_linear" x1="30.3486" y1="35.5651" x2="30.5535" y2="22.8134" gradientUnits="userSpaceOnUse">
<stop stop-color="#006DF0"/>
<stop offset="1" stop-color="#00E7F0"/>
</linearGradient>
<linearGradient id="paint6_linear" x1="18.5679" y1="43.3347" x2="19.074" y2="26.5926" gradientUnits="userSpaceOnUse">
<stop stop-color="#006DF0"/>
<stop offset="1" stop-color="#00E7F0"/>
</linearGradient>
</defs>
</svg>
