<svg width="16" height="9" viewBox="0 0 16 9" fill="none" xmlns="http://www.w3.org/2000/svg">
<path d="M15.8914 0.818182C15.9638 0.924901 16 1.03162 16 1.13834C16 1.28063 15.9638 1.35178 15.8914 1.42292L8.32579 8.89328C8.21719 8.96443 8.1086 9 8 9C7.8552 9 7.78281 8.96443 7.71041 8.89328L0.108597 1.42292C0.0361991 1.35178 0 1.28063 0 1.13834C0 1.03162 0.0361991 0.924901 0.108597 0.818182L0.832579 0.106719C0.904977 0.0355731 0.977376 0 1.12217 0C1.23077 0 1.33937 0.0355731 1.44796 0.106719L8 6.54545L14.552 0.106719C14.6244 0.0355731 14.733 0 14.8778 0C14.9864 0 15.095 0.0355731 15.1674 0.106719L15.8914 0.818182Z" fill="white"/>
</svg>
