<svg width="10" height="10" viewBox="0 0 10 10" fill="none" xmlns="http://www.w3.org/2000/svg">
<path d="M9.00099 6.25773C9.18555 6.74047 9.17325 7.26236 8.96408 7.7451C8.76793 8.19779 8.13818 8.83731 7.73368 9.03676C6.98314 9.46731 6.02343 9.71521 5.02681 9.71521C4.54695 9.71521 4.0671 9.66302 3.58724 9.54559H3.56264L3.26734 9.46731C0.995157 8.77664 0.885429 7.63999 0.880371 6.97532C0.880371 6.59696 0.991107 6.20554 1.21258 5.85327C1.36023 5.61843 1.66782 5.55319 1.8893 5.70975C2.11077 5.86632 2.17229 6.1925 2.02464 6.42734C1.84008 6.71438 1.80317 7.00141 1.9139 7.28845C2.12307 7.84947 2.8367 8.33222 3.7718 8.56706H3.79641C5.44514 8.97152 7.36456 8.48878 7.97976 7.51025C8.16432 7.23626 8.20123 6.94923 8.0905 6.66219C7.88133 6.10117 7.1677 5.61843 6.2326 5.38358L4.15323 4.87474C3.07048 4.60075 2.28302 4.01364 2.00003 3.25691C1.80317 2.73502 1.86469 2.18705 2.17229 1.69126C2.88592 0.556162 4.80534 0.00818554 6.52789 0.425692C7.54912 0.673586 8.63187 1.36508 8.63187 2.57846C8.63187 2.86549 8.4104 3.10034 8.13971 3.10034C7.86902 3.10034 7.64755 2.86549 7.64755 2.57846C7.64755 1.96525 6.92162 1.58688 6.30642 1.43032C4.85455 1.07804 3.41499 1.57383 2.98435 2.25228C2.86131 2.46103 2.8367 2.65674 2.91053 2.86549C3.04587 3.19167 3.48881 3.62222 4.3747 3.84402L6.45407 4.35286C7.73368 4.66599 8.66878 5.35748 9.00099 6.25773Z" fill="white"/>
</svg>
