<svg width="16" height="16" viewBox="0 0 16 16" fill="none" xmlns="http://www.w3.org/2000/svg">
<path d="M2.8125 11.8125C2.49609 11.8125 2.21484 11.9531 2.00391 12.1641C1.79297 12.375 1.6875 12.6562 1.6875 12.9375C1.6875 13.2539 1.79297 13.5352 2.00391 13.7461C2.21484 13.957 2.49609 14.0625 2.8125 14.0625C3.09375 14.0625 3.375 13.957 3.58594 13.7461C3.79688 13.5352 3.9375 13.2539 3.9375 12.9375C3.9375 12.6562 3.79688 12.375 3.58594 12.1641C3.375 11.9531 3.09375 11.8125 2.8125 11.8125ZM2.8125 10.125C3.58594 10.125 4.21875 10.4062 4.78125 10.9688C5.34375 11.5312 5.625 12.1641 5.625 12.9375C5.625 13.7109 5.34375 14.3789 4.78125 14.9414C4.21875 15.5039 3.58594 15.75 2.8125 15.75C2.03906 15.75 1.37109 15.5039 0.808594 14.9414C0.246094 14.3789 0 13.7109 0 12.9375C0 12.1641 0.246094 11.5312 0.808594 10.9688C1.37109 10.4062 2.03906 10.125 2.8125 10.125ZM15.75 15.3281C15.75 15.4688 15.6797 15.5742 15.6094 15.6445C15.5391 15.7148 15.4336 15.75 15.3281 15.75H14.4844C14.3438 15.75 14.2383 15.7148 14.168 15.6445C14.0977 15.5742 14.0625 15.4688 14.0625 15.3281C13.9922 12.9023 13.3242 10.6523 12.0938 8.54297C10.8633 6.50391 9.24609 4.88672 7.20703 3.65625C5.09766 2.42578 2.84766 1.75781 0.421875 1.6875C0.28125 1.6875 0.175781 1.65234 0.105469 1.58203C0.0351562 1.51172 0 1.40625 0 1.26562V0.421875C0 0.316406 0.0351562 0.210938 0.105469 0.140625C0.175781 0.0703125 0.28125 0 0.421875 0C3.16406 0.0703125 5.69531 0.808594 8.05078 2.21484C10.3359 3.58594 12.1641 5.41406 13.5352 7.66406C14.9414 10.0547 15.6797 12.5859 15.75 15.3281ZM10.9688 15.3281C10.9688 15.4688 10.8984 15.5742 10.8281 15.6445C10.7578 15.7148 10.6523 15.75 10.5469 15.75H9.70312C9.5625 15.75 9.45703 15.7148 9.38672 15.6445C9.31641 15.5742 9.28125 15.4688 9.28125 15.3633C9.21094 13.7812 8.75391 12.3398 7.94531 11.0039C7.13672 9.66797 6.08203 8.61328 4.74609 7.80469C3.41016 6.99609 1.96875 6.53906 0.386719 6.46875C0.28125 6.46875 0.175781 6.43359 0.105469 6.36328C0.0351562 6.29297 0 6.1875 0 6.04688V5.20312C0 5.09766 0.0351562 4.99219 0.105469 4.92188C0.175781 4.85156 0.28125 4.78125 0.421875 4.78125C2.28516 4.85156 4.00781 5.37891 5.58984 6.32812C7.17188 7.3125 8.4375 8.57812 9.42188 10.125C10.3711 11.707 10.8984 13.4297 10.9688 15.3281Z" fill="white"/>
</svg>
