<svg width="36" height="36" viewBox="0 0 36 36" fill="none" xmlns="http://www.w3.org/2000/svg">
<path d="M17.9991 28.5876C23.8467 28.5876 28.5871 23.8472 28.5871 17.9996C28.5871 12.152 23.8467 7.41162 17.9991 7.41162C12.1515 7.41162 7.41064 12.152 7.41064 17.9996C7.41754 23.8448 12.154 28.5812 17.9991 28.5876ZM17.9991 9.52902C22.6769 9.52902 26.4692 13.3218 26.4692 17.9996C26.4692 22.6779 22.6769 26.4702 17.9991 26.4702C13.3208 26.4702 9.52854 22.6779 9.52854 17.9996C9.53396 13.3238 13.3228 9.53444 17.9991 9.52902Z" fill="url(#paint0_linear)"/>
<path d="M18.0006 5.29448C18.5851 5.29448 19.0591 4.82042 19.0591 4.23548V1.05899C19.0591 0.474059 18.5851 0 18.0006 0C17.4157 0 16.9417 0.474059 16.9417 1.05899V4.23548C16.9417 4.82042 17.4157 5.29448 18.0006 5.29448Z" fill="url(#paint1_linear)"/>
<path d="M10.2013 6.60913C10.496 7.11127 11.14 7.28178 11.6441 6.99054C12.1483 6.6998 12.3232 6.05622 12.0354 5.55062L10.4472 2.79744C10.2594 2.46727 9.90905 2.26277 9.52912 2.26178C9.14869 2.26129 8.79782 2.46382 8.6086 2.7935C8.41937 3.12268 8.42084 3.52824 8.61303 3.85643L10.2013 6.60913Z" fill="url(#paint2_linear)"/>
<path d="M2.80055 10.4461L5.55325 12.0344C6.05934 12.3222 6.70291 12.1477 6.99366 11.6436C7.28489 11.1395 7.11439 10.4949 6.61224 10.2007L3.85905 8.61249C3.53135 8.4203 3.12579 8.41833 2.79612 8.60756C2.46694 8.79679 2.26391 9.14814 2.2649 9.52808C2.26588 9.90802 2.46989 10.2584 2.80055 10.4461Z" fill="url(#paint3_linear)"/>
<path d="M1.05899 19.0587H4.23548C4.82042 19.0587 5.29448 18.5846 5.29448 17.9997C5.29448 17.4152 4.82042 16.9412 4.23548 16.9412H1.05899C0.474058 16.9412 0 17.4152 0 17.9997C0 18.5846 0.474058 19.0587 1.05899 19.0587Z" fill="url(#paint4_linear)"/>
<path d="M5.55081 23.965L2.79762 25.5533C2.46745 25.741 2.26295 26.0914 2.26245 26.4713C2.26147 26.8513 2.464 27.2026 2.79368 27.3918C3.12335 27.5811 3.52891 27.5796 3.85661 27.3874L6.6098 25.7992C6.93996 25.6114 7.14447 25.261 7.14496 24.8811C7.14595 24.5007 6.94292 24.1498 6.61374 23.9606C6.28407 23.7714 5.87851 23.7728 5.55081 23.965Z" fill="url(#paint5_linear)"/>
<path d="M10.2013 29.3904L8.61303 32.1436C8.42084 32.4713 8.41937 32.8768 8.6086 33.2065C8.79782 33.5357 9.14869 33.7387 9.52912 33.7377C9.90905 33.7372 10.2594 33.5327 10.4472 33.2026L12.0354 30.4494C12.3232 29.9433 12.1483 29.3002 11.6441 29.009C11.14 28.7177 10.496 28.8882 10.2013 29.3904Z" fill="url(#paint6_linear)"/>
<path d="M16.9417 31.7645V34.941C16.9417 35.5259 17.4157 36 18.0006 36C18.5851 36 19.0591 35.5259 19.0591 34.941V31.7645C19.0591 31.1796 18.5851 30.7055 18.0006 30.7055C17.4157 30.7055 16.9417 31.1796 16.9417 31.7645Z" fill="url(#paint7_linear)"/>
<path d="M24.3524 29.003C23.8458 29.2952 23.6723 29.9427 23.965 30.4493L25.5533 33.2025C25.741 33.5327 26.0914 33.7372 26.4713 33.7377C26.8513 33.7387 27.2026 33.5356 27.3918 33.2065C27.5811 32.8768 27.5791 32.4712 27.3869 32.1435L25.7987 29.3903C25.5065 28.8842 24.8589 28.7103 24.3524 29.003Z" fill="url(#paint8_linear)"/>
<path d="M29.3934 25.7992L32.1461 27.3874C32.4743 27.5796 32.8799 27.5811 33.2091 27.3919C33.5387 27.2026 33.7418 26.8513 33.7408 26.4713C33.7398 26.0914 33.5353 25.741 33.2051 25.5533L30.4524 23.965C29.9463 23.6772 29.3028 23.8522 29.012 24.3563C28.7208 24.8604 28.8913 25.5045 29.3934 25.7992Z" fill="url(#paint9_linear)"/>
<path d="M30.7063 17.9997C30.7063 18.5846 31.1804 19.0587 31.7653 19.0587H34.9418C35.5267 19.0587 36.0008 18.5846 36.0008 17.9997C36.0008 17.4152 35.5267 16.9412 34.9418 16.9412H31.7653C31.1804 16.9412 30.7063 17.4152 30.7063 17.9997Z" fill="url(#paint10_linear)"/>
<path d="M29.9235 12.1763C30.1098 12.1768 30.2921 12.128 30.4532 12.0344L33.2059 10.4461C33.5366 10.2584 33.7406 9.90802 33.7416 9.52808C33.7426 9.14814 33.5396 8.79679 33.2104 8.60756C32.8807 8.41833 32.4751 8.4203 32.1474 8.61249L29.3943 10.2007C28.9793 10.4402 28.7768 10.9286 28.901 11.3918C29.0252 11.8545 29.4445 12.1763 29.9235 12.1763Z" fill="url(#paint11_linear)"/>
<path d="M24.3524 6.99695C24.8589 7.28917 25.5065 7.11571 25.7987 6.60912L27.3869 3.85643C27.5791 3.52824 27.5811 3.12268 27.3918 2.79349C27.2026 2.46382 26.8513 2.26129 26.4713 2.26178C26.0914 2.26277 25.741 2.46727 25.5533 2.79744L23.965 5.55062C23.6723 6.05671 23.8458 6.70423 24.3524 6.99695Z" fill="url(#paint12_linear)"/>
<defs>
<linearGradient id="paint0_linear" x1="17.71" y1="30.4703" x2="18.1616" y2="6.84054" gradientUnits="userSpaceOnUse">
<stop stop-color="#006DF0"/>
<stop offset="1" stop-color="#00E7F0"/>
</linearGradient>
<linearGradient id="paint1_linear" x1="17.9715" y1="5.76519" x2="18.2532" y2="-0.13148" gradientUnits="userSpaceOnUse">
<stop stop-color="#006DF0"/>
<stop offset="1" stop-color="#00E7F0"/>
</linearGradient>
<linearGradient id="paint2_linear" x1="10.2703" y1="7.56575" x2="10.4068" y2="2.13186" gradientUnits="userSpaceOnUse">
<stop stop-color="#006DF0"/>
<stop offset="1" stop-color="#00E7F0"/>
</linearGradient>
<linearGradient id="paint3_linear" x1="4.63391" y1="12.5026" x2="4.69404" y2="8.3664" gradientUnits="userSpaceOnUse">
<stop stop-color="#006DF0"/>
<stop offset="1" stop-color="#00E7F0"/>
</linearGradient>
<linearGradient id="paint4_linear" x1="2.57502" y1="19.2469" x2="2.59308" y2="16.8833" gradientUnits="userSpaceOnUse">
<stop stop-color="#006DF0"/>
<stop offset="1" stop-color="#00E7F0"/>
</linearGradient>
<linearGradient id="paint5_linear" x1="4.63711" y1="27.8628" x2="4.69732" y2="23.719" gradientUnits="userSpaceOnUse">
<stop stop-color="#006DF0"/>
<stop offset="1" stop-color="#00E7F0"/>
</linearGradient>
<linearGradient id="paint6_linear" x1="10.2703" y1="34.1708" x2="10.4068" y2="28.7369" gradientUnits="userSpaceOnUse">
<stop stop-color="#006DF0"/>
<stop offset="1" stop-color="#00E7F0"/>
</linearGradient>
<linearGradient id="paint7_linear" x1="17.9715" y1="36.4707" x2="18.2532" y2="30.574" gradientUnits="userSpaceOnUse">
<stop stop-color="#006DF0"/>
<stop offset="1" stop-color="#00E7F0"/>
</linearGradient>
<linearGradient id="paint8_linear" x1="25.627" y1="34.1713" x2="25.7637" y2="28.7308" gradientUnits="userSpaceOnUse">
<stop stop-color="#006DF0"/>
<stop offset="1" stop-color="#00E7F0"/>
</linearGradient>
<linearGradient id="paint9_linear" x1="31.2389" y1="27.8622" x2="31.299" y2="23.7259" gradientUnits="userSpaceOnUse">
<stop stop-color="#006DF0"/>
<stop offset="1" stop-color="#00E7F0"/>
</linearGradient>
<linearGradient id="paint10_linear" x1="33.2813" y1="19.2469" x2="33.2994" y2="16.8833" gradientUnits="userSpaceOnUse">
<stop stop-color="#006DF0"/>
<stop offset="1" stop-color="#00E7F0"/>
</linearGradient>
<linearGradient id="paint11_linear" x1="31.2367" y1="12.5061" x2="31.2968" y2="8.36631" gradientUnits="userSpaceOnUse">
<stop stop-color="#006DF0"/>
<stop offset="1" stop-color="#00E7F0"/>
</linearGradient>
<linearGradient id="paint12_linear" x1="25.627" y1="7.57248" x2="25.7637" y2="2.1317" gradientUnits="userSpaceOnUse">
<stop stop-color="#006DF0"/>
<stop offset="1" stop-color="#00E7F0"/>
</linearGradient>
</defs>
</svg>
