<svg xmlns="http://www.w3.org/2000/svg">
<defs>
<linearGradient id="paint0_linear" x1="12.0027" y1="6.41602" x2="12.0027" y2="19.3316" gradientUnits="userSpaceOnUse"> <stop stop-color="#37B1E2"/> <stop offset="1" stop-color="#1D95C9"/> </linearGradient> <linearGradient id="paint1_linear" x1="8.18819" y1="10.0352" x2="8.18819" y2="12.6686" gradientUnits="userSpaceOnUse"> <stop stop-color="#37B1E2"/> <stop offset="1" stop-color="#1D95C9"/> </linearGradient> <linearGradient id="paint2_linear" x1="2.17134" y1="9.24805" x2="2.17134" y2="15.5536" gradientUnits="userSpaceOnUse"> <stop stop-color="#37B1E2"/> <stop offset="1" stop-color="#1D95C9"/> </linearGradient> <linearGradient id="paint3_linear" x1="15.8127" y1="10.0352" x2="15.8127" y2="12.6686" gradientUnits="userSpaceOnUse"> <stop stop-color="#37B1E2"/> <stop offset="1" stop-color="#1D95C9"/> </linearGradient> <linearGradient id="paint4_linear" x1="21.8281" y1="9.27441" x2="21.8281" y2="15.5535" gradientUnits="userSpaceOnUse"> <stop stop-color="#37B1E2"/> <stop offset="1" stop-color="#1D95C9"/> </linearGradient> <linearGradient id="paint5_linear" x1="12.0007" y1="0.699219" x2="12.0007" y2="3.78254" gradientUnits="userSpaceOnUse"> <stop stop-color="#37B1E2"/> <stop offset="1" stop-color="#1D95C9"/> </linearGradient> 
 <linearGradient id="paint0_linear" x1="15.7842" y1="46.7341" x2="17.0211" y2="-0.117124" gradientUnits="userSpaceOnUse"> <stop stop-color="#006DF0"/> <stop offset="1" stop-color="#00E7F0"/> </linearGradient> <linearGradient id="paint1_linear" x1="15.7842" y1="46.7341" x2="17.0211" y2="-0.117124" gradientUnits="userSpaceOnUse"> <stop stop-color="#006DF0"/> <stop offset="1" stop-color="#00E7F0"/> </linearGradient> <linearGradient id="paint2_linear" x1="9.22565" y1="23.2505" x2="9.51004" y2="13.2017" gradientUnits="userSpaceOnUse"> <stop stop-color="#006DF0"/> <stop offset="1" stop-color="#00E7F0"/> </linearGradient> <linearGradient id="paint3_linear" x1="9.22565" y1="23.2505" x2="9.51004" y2="13.2017" gradientUnits="userSpaceOnUse"> <stop stop-color="#006DF0"/> <stop offset="1" stop-color="#00E7F0"/> </linearGradient> <linearGradient id="paint4_linear" x1="5.87345" y1="26.5241" x2="5.96182" y2="23.2106" gradientUnits="userSpaceOnUse"> <stop stop-color="#006DF0"/> <stop offset="1" stop-color="#00E7F0"/> </linearGradient> <linearGradient id="paint5_linear" x1="5.87345" y1="26.5241" x2="5.96182" y2="23.2106" gradientUnits="userSpaceOnUse"> <stop stop-color="#006DF0"/> <stop offset="1" stop-color="#00E7F0"/> </linearGradient> 
 <linearGradient id="paint0_linear" x1="6.67461" y1="19.9378" x2="6.87973" y2="7.14029" gradientUnits="userSpaceOnUse"> <stop stop-color="#006DF0"/> <stop offset="1" stop-color="#00E7F0"/> </linearGradient> <linearGradient id="paint1_linear" x1="18.4781" y1="29.4515" x2="18.7502" y2="13.475" gradientUnits="userSpaceOnUse"> <stop stop-color="#006DF0"/> <stop offset="1" stop-color="#00E7F0"/> </linearGradient> <linearGradient id="paint2_linear" x1="18.5679" y1="16.3464" x2="19.074" y2="-0.395659" gradientUnits="userSpaceOnUse"> <stop stop-color="#006DF0"/> <stop offset="1" stop-color="#00E7F0"/> </linearGradient> <linearGradient id="paint3_linear" x1="6.63702" y1="35.3923" x2="6.83757" y2="22.7497" gradientUnits="userSpaceOnUse"> <stop stop-color="#006DF0"/> <stop offset="1" stop-color="#00E7F0"/> </linearGradient> <linearGradient id="paint4_linear" x1="30.3851" y1="19.9506" x2="30.5856" y2="7.30805" gradientUnits="userSpaceOnUse"> <stop stop-color="#006DF0"/> <stop offset="1" stop-color="#00E7F0"/> </linearGradient> <linearGradient id="paint5_linear" x1="30.3486" y1="35.5651" x2="30.5535" y2="22.8134" gradientUnits="userSpaceOnUse"> <stop stop-color="#006DF0"/> <stop offset="1" stop-color="#00E7F0"/> </linearGradient> <linearGradient id="paint6_linear" x1="18.5679" y1="43.3347" x2="19.074" y2="26.5926" gradientUnits="userSpaceOnUse"> <stop stop-color="#006DF0"/> <stop offset="1" stop-color="#00E7F0"/> </linearGradient> 
 <filter id="filter0_d" x="0" y="0" width="32" height="38" filterUnits="userSpaceOnUse" color-interpolation-filters="sRGB"> <feFlood flood-opacity="0" result="BackgroundImageFix"/> <feColorMatrix in="SourceAlpha" type="matrix" values="0 0 0 0 0 0 0 0 0 0 0 0 0 0 0 0 0 0 127 0"/> <feOffset dy="1"/> <feGaussianBlur stdDeviation="2"/> <feColorMatrix type="matrix" values="0 0 0 0 0 0 0 0 0 0.698039 0 0 0 0 1 0 0 0 0.58 0"/> <feBlend mode="normal" in2="BackgroundImageFix" result="effect1_dropShadow"/> <feBlend mode="normal" in="SourceGraphic" in2="effect1_dropShadow" result="shape"/> </filter> 
 <linearGradient id="paint0_linear" x1="12.0027" y1="6.41602" x2="12.0027" y2="19.3316" gradientUnits="userSpaceOnUse"> <stop stop-color="#37B1E2"/> <stop offset="1" stop-color="#1D95C9"/> </linearGradient> <linearGradient id="paint1_linear" x1="8.18819" y1="10.0352" x2="8.18819" y2="12.6686" gradientUnits="userSpaceOnUse"> <stop stop-color="#37B1E2"/> <stop offset="1" stop-color="#1D95C9"/> </linearGradient> <linearGradient id="paint2_linear" x1="2.17134" y1="9.24805" x2="2.17134" y2="15.5536" gradientUnits="userSpaceOnUse"> <stop stop-color="#37B1E2"/> <stop offset="1" stop-color="#1D95C9"/> </linearGradient> <linearGradient id="paint3_linear" x1="15.8127" y1="10.0352" x2="15.8127" y2="12.6686" gradientUnits="userSpaceOnUse"> <stop stop-color="#37B1E2"/> <stop offset="1" stop-color="#1D95C9"/> </linearGradient> <linearGradient id="paint4_linear" x1="21.8281" y1="9.27441" x2="21.8281" y2="15.5535" gradientUnits="userSpaceOnUse"> <stop stop-color="#37B1E2"/> <stop offset="1" stop-color="#1D95C9"/> </linearGradient> <linearGradient id="paint5_linear" x1="12.0007" y1="0.699219" x2="12.0007" y2="3.78254" gradientUnits="userSpaceOnUse"> <stop stop-color="#37B1E2"/> <stop offset="1" stop-color="#1D95C9"/> </linearGradient> <linearGradient id="paint0_linear" x1="15.7842" y1="46.7341" x2="17.0211" y2="-0.117124" gradientUnits="userSpaceOnUse"> <stop stop-color="#006DF0"/> <stop offset="1" stop-color="#00E7F0"/> </linearGradient> <linearGradient id="paint1_linear" x1="15.7842" y1="46.7341" x2="17.0211" y2="-0.117124" gradientUnits="userSpaceOnUse"> <stop stop-color="#006DF0"/> <stop offset="1" stop-color="#00E7F0"/> </linearGradient> <linearGradient id="paint2_linear" x1="9.22565" y1="23.2505" x2="9.51004" y2="13.2017" gradientUnits="userSpaceOnUse"> <stop stop-color="#006DF0"/> <stop offset="1" stop-color="#00E7F0"/> </linearGradient> <linearGradient id="paint3_linear" x1="9.22565" y1="23.2505" x2="9.51004" y2="13.2017" gradientUnits="userSpaceOnUse"> <stop stop-color="#006DF0"/> <stop offset="1" stop-color="#00E7F0"/> </linearGradient> <linearGradient id="paint4_linear" x1="5.87345" y1="26.5241" x2="5.96182" y2="23.2106" gradientUnits="userSpaceOnUse"> <stop stop-color="#006DF0"/> <stop offset="1" stop-color="#00E7F0"/> </linearGradient> <linearGradient id="paint5_linear" x1="5.87345" y1="26.5241" x2="5.96182" y2="23.2106" gradientUnits="userSpaceOnUse"> <stop stop-color="#006DF0"/> <stop offset="1" stop-color="#00E7F0"/> </linearGradient> <linearGradient id="paint0_linear" x1="6.67461" y1="19.9378" x2="6.87973" y2="7.14029" gradientUnits="userSpaceOnUse"> <stop stop-color="#006DF0"/> <stop offset="1" stop-color="#00E7F0"/> </linearGradient> <linearGradient id="paint1_linear" x1="18.4781" y1="29.4515" x2="18.7502" y2="13.475" gradientUnits="userSpaceOnUse"> <stop stop-color="#006DF0"/> <stop offset="1" stop-color="#00E7F0"/> </linearGradient> <linearGradient id="paint2_linear" x1="18.5679" y1="16.3464" x2="19.074" y2="-0.395659" gradientUnits="userSpaceOnUse"> <stop stop-color="#006DF0"/> <stop offset="1" stop-color="#00E7F0"/> </linearGradient> <linearGradient id="paint3_linear" x1="6.63702" y1="35.3923" x2="6.83757" y2="22.7497" gradientUnits="userSpaceOnUse"> <stop stop-color="#006DF0"/> <stop offset="1" stop-color="#00E7F0"/> </linearGradient> <linearGradient id="paint4_linear" x1="30.3851" y1="19.9506" x2="30.5856" y2="7.30805" gradientUnits="userSpaceOnUse"> <stop stop-color="#006DF0"/> <stop offset="1" stop-color="#00E7F0"/> </linearGradient> <linearGradient id="paint5_linear" x1="30.3486" y1="35.5651" x2="30.5535" y2="22.8134" gradientUnits="userSpaceOnUse"> <stop stop-color="#006DF0"/> <stop offset="1" stop-color="#00E7F0"/> </linearGradient> <linearGradient id="paint6_linear" x1="18.5679" y1="43.3347" x2="19.074" y2="26.5926" gradientUnits="userSpaceOnUse"> <stop stop-color="#006DF0"/> <stop offset="1" stop-color="#00E7F0"/> </linearGradient> <filter id="filter0_d" x="0" y="0" width="32" height="38" filterUnits="userSpaceOnUse" color-interpolation-filters="sRGB"> <feFlood flood-opacity="0" result="BackgroundImageFix"/> <feColorMatrix in="SourceAlpha" type="matrix" values="0 0 0 0 0 0 0 0 0 0 0 0 0 0 0 0 0 0 127 0"/> <feOffset dy="1"/> <feGaussianBlur stdDeviation="2"/> <feColorMatrix type="matrix" values="0 0 0 0 0 0 0 0 0 0.698039 0 0 0 0 1 0 0 0 0.58 0"/> <feBlend mode="normal" in2="BackgroundImageFix" result="effect1_dropShadow"/> <feBlend mode="normal" in="SourceGraphic" in2="effect1_dropShadow" result="shape"/> </filter> <linearGradient id="paint0_linear" x1="12.0027" y1="6.41602" x2="12.0027" y2="19.3316" gradientUnits="userSpaceOnUse"> <stop stop-color="#37B1E2"/> <stop offset="1" stop-color="#1D95C9"/> </linearGradient> <linearGradient id="paint1_linear" x1="8.18819" y1="10.0352" x2="8.18819" y2="12.6686" gradientUnits="userSpaceOnUse"> <stop stop-color="#37B1E2"/> <stop offset="1" stop-color="#1D95C9"/> </linearGradient> <linearGradient id="paint2_linear" x1="2.17134" y1="9.24805" x2="2.17134" y2="15.5536" gradientUnits="userSpaceOnUse"> <stop stop-color="#37B1E2"/> <stop offset="1" stop-color="#1D95C9"/> </linearGradient> <linearGradient id="paint3_linear" x1="15.8127" y1="10.0352" x2="15.8127" y2="12.6686" gradientUnits="userSpaceOnUse"> <stop stop-color="#37B1E2"/> <stop offset="1" stop-color="#1D95C9"/> </linearGradient> <linearGradient id="paint4_linear" x1="21.8281" y1="9.27441" x2="21.8281" y2="15.5535" gradientUnits="userSpaceOnUse"> <stop stop-color="#37B1E2"/> <stop offset="1" stop-color="#1D95C9"/> </linearGradient> <linearGradient id="paint5_linear" x1="12.0007" y1="0.699219" x2="12.0007" y2="3.78254" gradientUnits="userSpaceOnUse"> <stop stop-color="#37B1E2"/> <stop offset="1" stop-color="#1D95C9"/> </linearGradient> <linearGradient id="paint0_linear" x1="15.7842" y1="46.7341" x2="17.0211" y2="-0.117124" gradientUnits="userSpaceOnUse"> <stop stop-color="#006DF0"/> <stop offset="1" stop-color="#00E7F0"/> </linearGradient> <linearGradient id="paint1_linear" x1="15.7842" y1="46.7341" x2="17.0211" y2="-0.117124" gradientUnits="userSpaceOnUse"> <stop stop-color="#006DF0"/> <stop offset="1" stop-color="#00E7F0"/> </linearGradient> <linearGradient id="paint2_linear" x1="9.22565" y1="23.2505" x2="9.51004" y2="13.2017" gradientUnits="userSpaceOnUse"> <stop stop-color="#006DF0"/> <stop offset="1" stop-color="#00E7F0"/> </linearGradient> <linearGradient id="paint3_linear" x1="9.22565" y1="23.2505" x2="9.51004" y2="13.2017" gradientUnits="userSpaceOnUse"> <stop stop-color="#006DF0"/> <stop offset="1" stop-color="#00E7F0"/> </linearGradient> <linearGradient id="paint4_linear" x1="5.87345" y1="26.5241" x2="5.96182" y2="23.2106" gradientUnits="userSpaceOnUse"> <stop stop-color="#006DF0"/> <stop offset="1" stop-color="#00E7F0"/> </linearGradient> <linearGradient id="paint5_linear" x1="5.87345" y1="26.5241" x2="5.96182" y2="23.2106" gradientUnits="userSpaceOnUse"> <stop stop-color="#006DF0"/> <stop offset="1" stop-color="#00E7F0"/> </linearGradient> <linearGradient id="paint0_linear" x1="6.67461" y1="19.9378" x2="6.87973" y2="7.14029" gradientUnits="userSpaceOnUse"> <stop stop-color="#006DF0"/> <stop offset="1" stop-color="#00E7F0"/> </linearGradient> <linearGradient id="paint1_linear" x1="18.4781" y1="29.4515" x2="18.7502" y2="13.475" gradientUnits="userSpaceOnUse"> <stop stop-color="#006DF0"/> <stop offset="1" stop-color="#00E7F0"/> </linearGradient> <linearGradient id="paint2_linear" x1="18.5679" y1="16.3464" x2="19.074" y2="-0.395659" gradientUnits="userSpaceOnUse"> <stop stop-color="#006DF0"/> <stop offset="1" stop-color="#00E7F0"/> </linearGradient> <linearGradient id="paint3_linear" x1="6.63702" y1="35.3923" x2="6.83757" y2="22.7497" gradientUnits="userSpaceOnUse"> <stop stop-color="#006DF0"/> <stop offset="1" stop-color="#00E7F0"/> </linearGradient> <linearGradient id="paint4_linear" x1="30.3851" y1="19.9506" x2="30.5856" y2="7.30805" gradientUnits="userSpaceOnUse"> <stop stop-color="#006DF0"/> <stop offset="1" stop-color="#00E7F0"/> </linearGradient> <linearGradient id="paint5_linear" x1="30.3486" y1="35.5651" x2="30.5535" y2="22.8134" gradientUnits="userSpaceOnUse"> <stop stop-color="#006DF0"/> <stop offset="1" stop-color="#00E7F0"/> </linearGradient> <linearGradient id="paint6_linear" x1="18.5679" y1="43.3347" x2="19.074" y2="26.5926" gradientUnits="userSpaceOnUse"> <stop stop-color="#006DF0"/> <stop offset="1" stop-color="#00E7F0"/> </linearGradient> <filter id="filter0_d" x="0" y="0" width="32" height="38" filterUnits="userSpaceOnUse" color-interpolation-filters="sRGB"> <feFlood flood-opacity="0" result="BackgroundImageFix"/> <feColorMatrix in="SourceAlpha" type="matrix" values="0 0 0 0 0 0 0 0 0 0 0 0 0 0 0 0 0 0 127 0"/> <feOffset dy="1"/> <feGaussianBlur stdDeviation="2"/> <feColorMatrix type="matrix" values="0 0 0 0 0 0 0 0 0 0.698039 0 0 0 0 1 0 0 0 0.58 0"/> <feBlend mode="normal" in2="BackgroundImageFix" result="effect1_dropShadow"/> <feBlend mode="normal" in="SourceGraphic" in2="effect1_dropShadow" result="shape"/> </filter>
</defs>
<symbol id="bot-icon" viewBox="0 0 24 20"> <path d="M7.47367 19.3316C5.10753 19.3316 3.70117 17.9289 3.70117 15.5866L3.70117 10.161C3.70117 7.81211 5.11419 6.41602 7.47367 6.41602L16.5317 6.41602C18.8978 6.41602 20.3042 7.81873 20.3042 10.161V15.5535C20.3042 17.9024 18.8911 19.2985 16.5317 19.2985L7.47367 19.3316ZM15.8118 9.36701C14.7075 9.36701 13.8123 10.2557 13.8123 11.352C13.8123 12.4483 14.7075 13.337 15.8118 13.337C16.9162 13.337 17.8114 12.4483 17.8114 11.352C17.8114 10.2557 16.9162 9.36701 15.8118 9.36701ZM8.18018 9.36701C7.07584 9.36701 6.18062 10.2557 6.18062 11.352C6.18062 12.4483 7.07584 13.337 8.18018 13.337C9.28452 13.337 10.1797 12.4483 10.1797 11.352C10.1797 10.2583 9.2886 9.37065 8.18684 9.36701H8.18018Z"/> <path d="M8.18674 13.3307C9.28738 13.3307 10.1796 12.445 10.1796 11.3524C10.1796 10.2598 9.28738 9.37402 8.18674 9.37402C7.0861 9.37402 6.19385 10.2598 6.19385 11.3524C6.19385 12.445 7.0861 13.3307 8.18674 13.3307Z"/> <path d="M8.18819 12.6686C8.92073 12.6686 9.51456 12.0791 9.51456 11.3519C9.51456 10.6247 8.92073 10.0352 8.18819 10.0352C7.45565 10.0352 6.86182 10.6247 6.86182 11.3519C6.86182 12.0791 7.45565 12.6686 8.18819 12.6686Z"/> <path d="M2.84207 15.2956C1.22976 14.832 0.3013 13.1588 0.768197 11.5582C1.05813 10.5644 1.84088 9.78738 2.84207 9.49948L3.69522 9.24805L3.69522 15.5536L2.84207 15.2956Z"/> <path d="M15.8122 13.3307C16.9129 13.3307 17.8051 12.445 17.8051 11.3524C17.8051 10.2598 16.9129 9.37402 15.8122 9.37402C14.7116 9.37402 13.8193 10.2598 13.8193 11.3524C13.8193 12.445 14.7116 13.3307 15.8122 13.3307Z"/> <path d="M15.8127 12.6686C16.5452 12.6686 17.1391 12.0791 17.1391 11.3519C17.1391 10.6247 16.5452 10.0352 15.8127 10.0352C15.0802 10.0352 14.4863 10.6247 14.4863 11.3519C14.4863 12.0791 15.0802 12.6686 15.8127 12.6686Z"/> <path d="M20.3042 9.27441L21.1573 9.49938C22.7697 9.96295 23.6981 11.6362 23.2312 13.2368C22.9413 14.2306 22.1585 15.0076 21.1573 15.2955L20.3042 15.5535V9.27441Z"/> <path d="M12.0007 3.78254C12.8584 3.78254 13.5537 3.09232 13.5537 2.24088C13.5537 1.38944 12.8584 0.699219 12.0007 0.699219C11.143 0.699219 10.4478 1.38944 10.4478 2.24088C10.4478 3.09232 11.143 3.78254 12.0007 3.78254Z"/> <path d="M8.18756 13.9915C9.65999 13.9915 10.8536 12.8066 10.8536 11.3449C10.8536 9.88319 9.65999 8.69824 8.18756 8.69824C6.71514 8.69824 5.52148 9.88319 5.52148 11.3449C5.52148 12.8066 6.71514 13.9915 8.18756 13.9915ZM8.18756 10.0216C8.92382 10.0216 9.5206 10.614 9.5206 11.3449C9.5206 12.0758 8.92382 12.6682 8.18756 12.6682C7.45131 12.6682 6.85452 12.0758 6.85452 11.3449C6.85819 10.6166 7.45397 10.0282 8.18756 10.0282V10.0216Z"/> <path d="M15.8116 13.9915C17.284 13.9915 18.4777 12.8066 18.4777 11.3449C18.4777 9.88319 17.284 8.69824 15.8116 8.69824C14.3392 8.69824 13.1455 9.88319 13.1455 11.3449C13.1455 12.8066 14.3392 13.9915 15.8116 13.9915ZM15.8116 10.0216C16.5478 10.0216 17.1446 10.614 17.1446 11.3449C17.1446 12.0758 16.5478 12.6682 15.8116 12.6682C15.0753 12.6682 14.4785 12.0758 14.4785 11.3449C14.4822 10.6166 15.078 10.0282 15.8116 10.0282V10.0216Z"/> <path d="M3.04811 16.0301C3.24806 18.9347 5.42092 20 7.46713 20H16.5318C19.5778 20 20.7975 18.015 20.9508 16.0301C22.9681 15.6661 24.3062 13.7475 23.9395 11.7449C23.6519 10.1741 22.378 8.9657 20.7842 8.75182C20.3443 7.13738 19.0779 5.76113 16.5318 5.76113H12.666V4.30548C13.8352 3.94008 14.4847 2.70287 14.1165 1.54224C13.7483 0.381607 12.5021 -0.263178 11.3329 0.102305C10.1638 0.467788 9.51426 1.70492 9.88243 2.86555C10.1001 3.55186 10.6416 4.08945 11.3329 4.30548V5.72805H7.4738C5.67419 5.72805 3.78128 6.5485 3.20807 8.71874C1.17677 8.99556 -0.243914 10.8547 0.0349415 12.8711C0.25356 14.4522 1.47254 15.7139 3.05477 15.997L3.04811 16.0301ZM22.6638 12.3976C22.6608 13.4474 21.9603 14.3693 20.9442 14.6604V10.1347C21.9603 10.4258 22.6608 11.3477 22.6638 12.3976ZM11.113 2.24111C11.113 1.75513 11.5099 1.36111 11.9995 1.36111C12.489 1.36111 12.8859 1.75513 12.8859 2.24111C12.8859 2.7271 12.489 3.12112 11.9995 3.12112C11.5099 3.12112 11.113 2.7271 11.113 2.24111ZM4.36115 10.181C4.36115 7.49467 6.30739 7.09768 7.46713 7.09768H16.5318C19.2379 7.09768 19.6378 9.02972 19.6378 10.181V15.5537C19.6378 16.7049 19.2312 18.637 16.5318 18.637H7.4738C6.31405 18.637 4.36782 18.2334 4.36782 15.5537L4.36115 10.181ZM3.02811 10.181V14.7067C1.76914 14.3455 1.04363 13.0395 1.40747 11.7898C1.63367 11.0129 2.24554 10.4056 3.02811 10.181Z"/> <path d="M15.8115 15.792L8.18654 15.792C7.81845 15.792 7.52002 16.0882 7.52002 16.4536C7.52002 16.819 7.81845 17.1153 8.18654 17.1153H15.8115C16.1796 17.1153 16.478 16.819 16.478 16.4536C16.478 16.0882 16.1796 15.792 15.8115 15.792Z"/>  </symbol>
<symbol id="drib-icon" viewBox="0 0 32 44"> <path d="M23.948 11.2752C21.9358 8.44954 19.8807 5.49541 18.2966 2.41284C17.8685 1.55657 16.9694 1 16.0275 1C15.0856 1 14.1865 1.51376 13.7584 2.41284C12.2171 5.4526 10.2477 8.3211 8.36392 11.104C4.55352 16.6269 1 21.8073 1 27.5872C1 36.5352 7.29358 43 15.9847 43C24.7615 43 31.3976 36.3639 31.3976 27.5872C31.3976 21.8502 27.7584 16.7125 23.948 11.2752ZM15.9847 41.2875C8.27829 41.2875 2.71254 35.5076 2.71254 27.5872C2.71254 22.3639 6.13762 17.3547 9.73395 12.0887C11.6606 9.263 13.6728 6.30887 15.2569 3.18349C15.471 2.75535 15.8563 2.71254 16.0275 2.71254C16.1988 2.71254 16.5841 2.75535 16.7982 3.18349C18.4251 6.35168 20.5229 9.34862 22.578 12.2599C26.2171 17.4832 29.685 22.4067 29.685 27.5872C29.685 35.3792 23.7768 41.2875 15.9847 41.2875Z" stroke-width="0.7" stroke-miterlimit="10" stroke-linecap="round" stroke-linejoin="round"/> <path d="M11.9596 13.5871C11.5743 13.3303 11.0177 13.4159 10.7609 13.8012C9.3052 16.0275 7.59266 18.5963 6.35107 21.2079C6.137 21.6361 6.35107 22.1498 6.7792 22.3639C6.90764 22.4067 7.03609 22.4495 7.16453 22.4495C7.46422 22.4495 7.80673 22.2783 7.93517 21.9786C9.13394 19.4526 10.7609 16.9694 12.2165 14.8287C12.4734 14.4006 12.345 13.8868 11.9596 13.5871Z" stroke-width="0.7" stroke-miterlimit="10" stroke-linecap="round" stroke-linejoin="round"/> <path d="M6.39424 23.3487C5.96611 23.1774 5.45235 23.3915 5.28109 23.8196C5.10984 24.2906 4.93858 24.7615 4.85296 25.2325C4.76733 25.7034 5.06703 26.1315 5.53797 26.26C5.58079 26.26 5.66641 26.26 5.70923 26.26C6.09455 26.26 6.47987 25.9603 6.56549 25.575C6.65112 25.1896 6.73675 24.8043 6.908 24.419C7.07925 24.0337 6.86519 23.5627 6.39424 23.3487Z" stroke-width="0.7" stroke-miterlimit="10" stroke-linecap="round" stroke-linejoin="round"/>  </symbol>
<symbol id="fb-icon" viewBox="0 0 11 20"> <path d="M3.00781 20H6.67969V11.0547H9.53125L10 7.5H6.67969V5.03906C6.67969 4.49219 6.75781 4.0625 6.99219 3.78906C7.22656 3.47656 7.73438 3.32031 8.4375 3.32031H10.3125V0.15625C9.60938 0.078125 8.67188 0 7.57812 0C6.17188 0 5.07812 0.429688 4.25781 1.25C3.39844 2.07031 3.00781 3.20312 3.00781 4.6875V7.5H0V11.0547H3.00781V20Z"/> </symbol>
<symbol id="flake-icon" viewBox="0 0 38 42"> <path d="M1.14279 15.9551L5.73654 14.3965L8.7717 16.1602L5.53147 17.2676C5.08029 17.4317 4.8342 17.8829 4.99826 18.334C5.16232 18.7852 5.6135 19.0313 6.06467 18.8672L10.6584 17.3086L12.4631 18.293C12.8322 18.5391 13.3244 18.4161 13.5705 18.0059C13.8166 17.6368 13.6936 17.1446 13.2834 16.8985L11.5197 15.8731L10.5764 11.1153C10.4533 10.6641 10.0432 10.377 9.59201 10.459C9.14084 10.5821 8.85373 10.9922 8.93576 11.4434L9.63303 14.6426L6.59787 12.879L5.65451 8.12114C5.53147 7.66997 5.12131 7.38286 4.67014 7.46489C4.21897 7.58794 3.93186 7.9981 4.01389 8.44927L4.67014 11.8126L1.63498 10.0899C1.26584 9.8438 0.773653 9.96685 0.527559 10.377C0.281465 10.7461 0.404512 11.2383 0.814668 11.4844L3.84982 13.2481L0.60959 14.3555C0.158418 14.5196 -0.0876755 14.9708 0.076387 15.4219C0.24045 15.8731 0.691621 16.1192 1.14279 15.9551Z"/> <path d="M26.6953 21.041C26.8184 20.6308 26.6133 20.1387 26.1621 20.0156L22.4297 18.7851L22.9629 14.7656C23.0039 14.5195 22.9219 14.3144 22.7168 14.1504C22.4297 13.7812 21.8965 13.7812 21.5684 14.0683L18.6152 16.6933L15.416 14.2324C15.252 14.0683 15.0059 14.0273 14.7598 14.0683C14.3086 14.1914 14.0215 14.6016 14.1035 15.0527L14.8828 18.9082L11.1504 20.4668C10.9453 20.5488 10.7813 20.7129 10.6992 20.959C10.5762 21.3691 10.7813 21.8613 11.2324 21.9844L14.9649 23.2148L14.4317 27.2344C14.3906 27.4805 14.4727 27.6855 14.6367 27.8906C14.9238 28.2598 15.457 28.2598 15.7852 27.9726L18.7793 25.3066L21.9785 27.7676C22.1426 27.9316 22.3887 27.9726 22.6348 27.9316C23.0859 27.8086 23.3731 27.3984 23.291 26.9473L22.5117 23.0918L26.2442 21.5332C26.4492 21.4512 26.6133 21.2871 26.6953 21.041ZM21.2402 21.8613C20.8711 22.0254 20.666 22.4355 20.7481 22.8047L21.1992 25.1426L19.1895 23.625C18.8613 23.3379 18.4102 23.3789 18.1231 23.666L16.3184 25.2656L16.6465 22.7637C16.7285 22.3535 16.4414 21.9844 16.0723 21.8613L13.8164 21.123L16.1543 20.1797C16.5234 20.0156 16.7285 19.6055 16.6465 19.2363L16.1543 16.8574L18.1641 18.375C18.4922 18.6621 18.9434 18.6211 19.2305 18.334L21.0352 16.7344L20.707 19.2363C20.666 19.6465 20.9121 20.0156 21.3223 20.1797L23.5781 20.918L21.2402 21.8613Z"/> <path d="M15.2931 7.75195C14.9649 7.46484 14.4317 7.50586 14.1446 7.83398C13.8575 8.16211 13.8985 8.69531 14.2267 8.98242L17.8771 12.1816V14.1914C17.8771 14.6426 18.2462 15.0117 18.6974 15.0117C19.1485 15.0117 19.5177 14.6426 19.5177 14.1914V12.1816L23.1681 8.98242C23.4962 8.69531 23.5372 8.16211 23.2501 7.83398C22.963 7.50586 22.4298 7.46484 22.1017 7.75195L19.5177 10.0078V6.48047L23.1681 3.28125C23.4962 2.99414 23.5372 2.46094 23.2501 2.13281C22.963 1.80469 22.4298 1.76367 22.1017 2.05078L19.5177 4.30664V0.820312C19.5177 0.369141 19.1485 0 18.6974 0C18.2462 0 17.8771 0.369141 17.8771 0.820312V4.30664L15.2931 2.05078C14.9649 1.76367 14.4317 1.80469 14.1446 2.13281C13.8575 2.46094 13.8985 2.99414 14.2267 3.28125L17.8771 6.48047V10.0078L15.2931 7.75195Z"/> <path d="M12.4219 23.666L10.6582 24.6914L6.06446 23.0918C5.61329 22.9688 5.16212 23.1738 4.99806 23.625C4.87501 24.0762 5.08009 24.5274 5.53126 24.6914L8.73048 25.7168L5.69532 27.4805L1.10157 25.9219C0.650402 25.7988 0.19923 26.0039 0.0351676 26.4551C-0.0878793 26.8652 0.117199 27.3164 0.568371 27.4805L3.8086 28.5879L0.773449 30.3516C0.404308 30.5567 0.240246 31.0488 0.48634 31.459C0.691418 31.8281 1.18361 31.9922 1.59376 31.7461L4.62892 30.0234L3.97267 33.3867C3.89064 33.8379 4.17775 34.2891 4.62892 34.3711C5.08009 34.4531 5.53126 34.166 5.61329 33.7149L6.51564 28.916L9.55079 27.1524L8.89454 30.5156C8.81251 30.9668 9.09962 31.418 9.55079 31.5C10.002 31.582 10.4531 31.2949 10.5352 30.8438L11.4785 26.0859L13.2422 25.0606C13.6113 24.8555 13.7754 24.3633 13.5293 23.9531C13.3242 23.584 12.832 23.4199 12.4219 23.666Z"/> <path d="M36.826 14.5196L33.5858 13.4122L36.6209 11.6485C36.9901 11.4434 37.1541 10.9512 36.908 10.5411C36.703 10.1719 36.2108 10.0079 35.8006 10.254L32.7655 11.9766L33.4217 8.61333C33.5037 8.16216 33.2166 7.71099 32.7655 7.62896C32.3143 7.54693 31.8631 7.83404 31.7811 8.28521L30.8787 13.084L27.8436 14.8477L28.4998 11.4844C28.5819 11.0333 28.2948 10.5821 27.8436 10.5001C27.3924 10.418 26.9412 10.7051 26.8592 11.1563L25.9158 15.9141L24.1522 16.9395C23.783 17.1446 23.619 17.6368 23.8651 18.0469C24.0701 18.4161 24.5623 18.5801 24.9725 18.334L26.7362 17.3086L31.3709 18.9083C31.7811 19.0313 32.2323 18.8262 32.3963 18.3751C32.5194 17.9239 32.3143 17.4727 31.8631 17.3086L28.6639 16.3243L31.699 14.5606L36.2928 16.1192C36.744 16.2422 37.1951 16.0372 37.3592 15.586C37.4823 15.1348 37.2772 14.6836 36.826 14.5196Z"/> <path d="M36.2112 26.086L31.6175 27.6446L28.5823 25.881L31.8226 24.7735C32.2737 24.6095 32.5198 24.1583 32.3558 23.7071C32.2327 23.256 31.7815 23.0099 31.3304 23.1739L26.7366 24.7325L24.9729 23.7071C24.6038 23.461 24.1116 23.5841 23.8655 23.9942C23.6194 24.3634 23.7425 24.8556 24.1526 25.1017L25.8753 26.127L26.8187 30.8849C26.9417 31.336 27.3519 31.6231 27.803 31.5411C28.2542 31.4181 28.5413 31.0079 28.4593 30.5567L27.721 27.3575L30.7561 29.1212L31.6995 33.879C31.8226 34.3302 32.2327 34.6173 32.6839 34.5352C33.1351 34.4122 33.4222 34.002 33.3401 33.5509L32.6839 30.1876L35.719 31.9103C36.0882 32.1563 36.5804 32.0333 36.8265 31.6231C37.0726 31.254 36.9495 30.7618 36.5394 30.5157L33.5042 28.752L36.7444 27.6446C37.1956 27.5216 37.4417 27.0704 37.2776 26.6192C37.1136 26.1681 36.6624 25.922 36.2112 26.086Z"/> <path d="M22.1017 34.248C22.4298 34.5352 22.963 34.4941 23.2501 34.166C23.5372 33.8379 23.4962 33.3047 23.1681 33.0176L19.5177 29.8184V27.8086C19.5177 27.3574 19.1485 26.9883 18.6974 26.9883C18.2462 26.9883 17.8771 27.3574 17.8771 27.8086V29.8184L14.2267 33.0176C13.8985 33.3047 13.8575 33.8379 14.1446 34.166C14.4317 34.4941 14.9649 34.5352 15.2931 34.248L17.8771 31.9922V35.5195L14.2267 38.7187C13.8985 39.0059 13.8575 39.5391 14.1446 39.8672C14.4317 40.1953 14.9649 40.2363 15.2931 39.9492L17.8771 37.6934V41.1797C17.8771 41.6309 18.2462 42 18.6974 42C19.1485 42 19.5177 41.6309 19.5177 41.1797V37.6934L22.1017 39.9492C22.4298 40.2363 22.963 40.1953 23.2501 39.8672C23.5372 39.5391 23.4962 39.0059 23.1681 38.7187L19.5177 35.5195V31.9922L22.1017 34.248Z"/>  </symbol>
<symbol id="icon-down" viewBox="0 0 16 9"> <path d="M15.8914 0.818182C15.9638 0.924901 16 1.03162 16 1.13834C16 1.28063 15.9638 1.35178 15.8914 1.42292L8.32579 8.89328C8.21719 8.96443 8.1086 9 8 9C7.8552 9 7.78281 8.96443 7.71041 8.89328L0.108597 1.42292C0.0361991 1.35178 0 1.28063 0 1.13834C0 1.03162 0.0361991 0.924901 0.108597 0.818182L0.832579 0.106719C0.904977 0.0355731 0.977376 0 1.12217 0C1.23077 0 1.33937 0.0355731 1.44796 0.106719L8 6.54545L14.552 0.106719C14.6244 0.0355731 14.733 0 14.8778 0C14.9864 0 15.095 0.0355731 15.1674 0.106719L15.8914 0.818182Z"/> </symbol>
<symbol id="menu-icon" viewBox="0 0 19 16"> <path d="M17.8828 2.71094C18.0059 2.71094 18.1289 2.66992 18.2109 2.58789C18.293 2.50586 18.375 2.38281 18.375 2.21875V0.90625C18.375 0.783203 18.293 0.660156 18.2109 0.578125C18.1289 0.496094 18.0059 0.414062 17.8828 0.414062H0.492188C0.328125 0.414062 0.205078 0.496094 0.123047 0.578125C0.0410156 0.660156 0 0.783203 0 0.90625V2.21875C0 2.38281 0.0410156 2.50586 0.123047 2.58789C0.205078 2.66992 0.328125 2.71094 0.492188 2.71094H17.8828ZM17.8828 9.27344C18.0059 9.27344 18.1289 9.23242 18.2109 9.15039C18.293 9.06836 18.375 8.94531 18.375 8.78125V7.46875C18.375 7.3457 18.293 7.22266 18.2109 7.14062C18.1289 7.05859 18.0059 6.97656 17.8828 6.97656H0.492188C0.328125 6.97656 0.205078 7.05859 0.123047 7.14062C0.0410156 7.22266 0 7.3457 0 7.46875V8.78125C0 8.94531 0.0410156 9.06836 0.123047 9.15039C0.205078 9.23242 0.328125 9.27344 0.492188 9.27344H17.8828ZM17.8828 15.8359C18.0059 15.8359 18.1289 15.7949 18.2109 15.7129C18.293 15.6309 18.375 15.5078 18.375 15.3438V14.0312C18.375 13.9082 18.293 13.7852 18.2109 13.7031C18.1289 13.6211 18.0059 13.5391 17.8828 13.5391H0.492188C0.328125 13.5391 0.205078 13.6211 0.123047 13.7031C0.0410156 13.7852 0 13.9082 0 14.0312V15.3438C0 15.5078 0.0410156 15.6309 0.123047 15.7129C0.205078 15.7949 0.328125 15.8359 0.492188 15.8359H17.8828Z"/> </symbol>
<symbol id="reit-icon" viewBox="0 0 10 10"> <path d="M9.00099 6.25773C9.18555 6.74047 9.17325 7.26236 8.96408 7.7451C8.76793 8.19779 8.13818 8.83731 7.73368 9.03676C6.98314 9.46731 6.02343 9.71521 5.02681 9.71521C4.54695 9.71521 4.0671 9.66302 3.58724 9.54559H3.56264L3.26734 9.46731C0.995157 8.77664 0.885429 7.63999 0.880371 6.97532C0.880371 6.59696 0.991107 6.20554 1.21258 5.85327C1.36023 5.61843 1.66782 5.55319 1.8893 5.70975C2.11077 5.86632 2.17229 6.1925 2.02464 6.42734C1.84008 6.71438 1.80317 7.00141 1.9139 7.28845C2.12307 7.84947 2.8367 8.33222 3.7718 8.56706H3.79641C5.44514 8.97152 7.36456 8.48878 7.97976 7.51025C8.16432 7.23626 8.20123 6.94923 8.0905 6.66219C7.88133 6.10117 7.1677 5.61843 6.2326 5.38358L4.15323 4.87474C3.07048 4.60075 2.28302 4.01364 2.00003 3.25691C1.80317 2.73502 1.86469 2.18705 2.17229 1.69126C2.88592 0.556162 4.80534 0.00818554 6.52789 0.425692C7.54912 0.673586 8.63187 1.36508 8.63187 2.57846C8.63187 2.86549 8.4104 3.10034 8.13971 3.10034C7.86902 3.10034 7.64755 2.86549 7.64755 2.57846C7.64755 1.96525 6.92162 1.58688 6.30642 1.43032C4.85455 1.07804 3.41499 1.57383 2.98435 2.25228C2.86131 2.46103 2.8367 2.65674 2.91053 2.86549C3.04587 3.19167 3.48881 3.62222 4.3747 3.84402L6.45407 4.35286C7.73368 4.66599 8.66878 5.35748 9.00099 6.25773Z"/> </symbol>
<symbol id="rss-icon" viewBox="0 0 16 16"> <path d="M2.8125 11.8125C2.49609 11.8125 2.21484 11.9531 2.00391 12.1641C1.79297 12.375 1.6875 12.6562 1.6875 12.9375C1.6875 13.2539 1.79297 13.5352 2.00391 13.7461C2.21484 13.957 2.49609 14.0625 2.8125 14.0625C3.09375 14.0625 3.375 13.957 3.58594 13.7461C3.79688 13.5352 3.9375 13.2539 3.9375 12.9375C3.9375 12.6562 3.79688 12.375 3.58594 12.1641C3.375 11.9531 3.09375 11.8125 2.8125 11.8125ZM2.8125 10.125C3.58594 10.125 4.21875 10.4062 4.78125 10.9688C5.34375 11.5312 5.625 12.1641 5.625 12.9375C5.625 13.7109 5.34375 14.3789 4.78125 14.9414C4.21875 15.5039 3.58594 15.75 2.8125 15.75C2.03906 15.75 1.37109 15.5039 0.808594 14.9414C0.246094 14.3789 0 13.7109 0 12.9375C0 12.1641 0.246094 11.5312 0.808594 10.9688C1.37109 10.4062 2.03906 10.125 2.8125 10.125ZM15.75 15.3281C15.75 15.4688 15.6797 15.5742 15.6094 15.6445C15.5391 15.7148 15.4336 15.75 15.3281 15.75H14.4844C14.3438 15.75 14.2383 15.7148 14.168 15.6445C14.0977 15.5742 14.0625 15.4688 14.0625 15.3281C13.9922 12.9023 13.3242 10.6523 12.0938 8.54297C10.8633 6.50391 9.24609 4.88672 7.20703 3.65625C5.09766 2.42578 2.84766 1.75781 0.421875 1.6875C0.28125 1.6875 0.175781 1.65234 0.105469 1.58203C0.0351562 1.51172 0 1.40625 0 1.26562V0.421875C0 0.316406 0.0351562 0.210938 0.105469 0.140625C0.175781 0.0703125 0.28125 0 0.421875 0C3.16406 0.0703125 5.69531 0.808594 8.05078 2.21484C10.3359 3.58594 12.1641 5.41406 13.5352 7.66406C14.9414 10.0547 15.6797 12.5859 15.75 15.3281ZM10.9688 15.3281C10.9688 15.4688 10.8984 15.5742 10.8281 15.6445C10.7578 15.7148 10.6523 15.75 10.5469 15.75H9.70312C9.5625 15.75 9.45703 15.7148 9.38672 15.6445C9.31641 15.5742 9.28125 15.4688 9.28125 15.3633C9.21094 13.7812 8.75391 12.3398 7.94531 11.0039C7.13672 9.66797 6.08203 8.61328 4.74609 7.80469C3.41016 6.99609 1.96875 6.53906 0.386719 6.46875C0.28125 6.46875 0.175781 6.43359 0.105469 6.36328C0.0351562 6.29297 0 6.1875 0 6.04688V5.20312C0 5.09766 0.0351562 4.99219 0.105469 4.92188C0.175781 4.85156 0.28125 4.78125 0.421875 4.78125C2.28516 4.85156 4.00781 5.37891 5.58984 6.32812C7.17188 7.3125 8.4375 8.57812 9.42188 10.125C10.3711 11.707 10.8984 13.4297 10.9688 15.3281Z"/> </symbol>
<symbol id="search-icon" viewBox="0 0 20 21"> <path d="M19.8828 18.8203C19.9609 18.8984 20 19.0156 20 19.1328C20 19.2891 19.9609 19.4062 19.8828 19.4844L18.9844 20.3438C18.8672 20.4609 18.75 20.5 18.6328 20.5C18.4766 20.5 18.3984 20.4609 18.3203 20.3438L13.5547 15.6172C13.4766 15.5391 13.4375 15.4219 13.4375 15.3047V14.7578C12.6953 15.3828 11.875 15.8906 10.9766 16.2422C10.0391 16.5938 9.10156 16.75 8.125 16.75C6.64062 16.75 5.27344 16.3984 4.02344 15.6562C2.77344 14.9531 1.79688 13.9766 1.09375 12.7266C0.351562 11.4766 0 10.1094 0 8.625C0 7.14062 0.351562 5.8125 1.09375 4.5625C1.79688 3.3125 2.77344 2.33594 4.02344 1.59375C5.27344 0.890625 6.64062 0.5 8.125 0.5C9.60938 0.5 10.9375 0.890625 12.1875 1.59375C13.4375 2.33594 14.4141 3.3125 15.1562 4.5625C15.8594 5.8125 16.25 7.14062 16.25 8.625C16.25 9.64062 16.0547 10.5781 15.7031 11.4766C15.3516 12.4141 14.8828 13.2344 14.2578 13.9375H14.8047C14.9219 13.9375 15.0391 13.9766 15.1172 14.0547L19.8828 18.8203ZM8.125 14.875C9.21875 14.875 10.2734 14.6016 11.25 14.0547C12.1875 13.5078 12.9688 12.7266 13.5156 11.75C14.0625 10.8125 14.375 9.75781 14.375 8.625C14.375 7.53125 14.0625 6.47656 13.5156 5.5C12.9688 4.5625 12.1875 3.78125 11.25 3.23438C10.2734 2.6875 9.21875 2.375 8.125 2.375C6.99219 2.375 5.9375 2.6875 5 3.23438C4.02344 3.78125 3.24219 4.5625 2.69531 5.5C2.14844 6.47656 1.875 7.53125 1.875 8.625C1.875 9.75781 2.14844 10.8125 2.69531 11.75C3.24219 12.7266 4.02344 13.5078 5 14.0547C5.9375 14.6016 6.99219 14.875 8.125 14.875Z"/> </symbol>
<symbol id="shield-icon" viewBox="0 0 32 38"> <g filter="url(#filter0_d)"> <path d="M27.6946 9.07418L16.1109 3.06611C15.939 2.97683 15.7331 2.97808 15.5625 3.06924L4.29929 9.07731C4.11457 9.17598 4 9.36456 4 9.56973V17.4178C4.00676 23.8691 7.93355 29.7055 14.0062 32.2901L15.5696 32.9533C15.7157 33.0153 15.8821 33.0156 16.0285 32.9539L17.7901 32.2134C23.9754 29.6849 27.9994 23.7921 28 17.2621V9.56973C28 9.36236 27.8825 9.1716 27.6946 9.07418ZM21.6548 15.7075L14.56 21.3256C14.3174 21.5179 13.9611 21.4866 13.7578 21.2548L10.7115 17.7824C10.5045 17.5466 10.5332 17.1923 10.7755 16.9909C11.0178 16.7898 11.3818 16.8176 11.5887 17.0532L14.2691 20.1086L20.9265 14.8367C21.1737 14.6409 21.537 14.6772 21.7378 14.9178C21.9389 15.1584 21.9016 15.512 21.6544 15.7075H21.6548Z"/> </g> <rect x="9" y="12" width="15" height="12"/> <path d="M27.6946 9.07418L16.1109 3.06611C15.939 2.97683 15.7331 2.97808 15.5625 3.06924L4.29929 9.07731C4.11457 9.17598 4 9.36456 4 9.56973V17.4178C4.00676 23.8691 7.93355 29.7055 14.0062 32.2901L15.5696 32.9533C15.7157 33.0153 15.8821 33.0156 16.0285 32.9539L17.7901 32.2134C23.9754 29.6849 27.9994 23.7921 28 17.2621V9.56973C28 9.36236 27.8825 9.1716 27.6946 9.07418ZM21.6548 15.7075L14.56 21.3256C14.3174 21.5179 13.9611 21.4866 13.7578 21.2548L10.7115 17.7824C10.5045 17.5466 10.5332 17.1923 10.7755 16.9909C11.0178 16.7898 11.3818 16.8176 11.5887 17.0532L14.2691 20.1086L20.9265 14.8367C21.1737 14.6409 21.537 14.6772 21.7378 14.9178C21.9389 15.1584 21.9016 15.512 21.6544 15.7075H21.6548Z"/>  </symbol>
<symbol id="svg-symbols" viewBox="0 0 100 100">  <symbol id="bot-icon" viewBox="0 0 24 20"> <path d="M7.47367 19.3316C5.10753 19.3316 3.70117 17.9289 3.70117 15.5866L3.70117 10.161C3.70117 7.81211 5.11419 6.41602 7.47367 6.41602L16.5317 6.41602C18.8978 6.41602 20.3042 7.81873 20.3042 10.161V15.5535C20.3042 17.9024 18.8911 19.2985 16.5317 19.2985L7.47367 19.3316ZM15.8118 9.36701C14.7075 9.36701 13.8123 10.2557 13.8123 11.352C13.8123 12.4483 14.7075 13.337 15.8118 13.337C16.9162 13.337 17.8114 12.4483 17.8114 11.352C17.8114 10.2557 16.9162 9.36701 15.8118 9.36701ZM8.18018 9.36701C7.07584 9.36701 6.18062 10.2557 6.18062 11.352C6.18062 12.4483 7.07584 13.337 8.18018 13.337C9.28452 13.337 10.1797 12.4483 10.1797 11.352C10.1797 10.2583 9.2886 9.37065 8.18684 9.36701H8.18018Z"/> <path d="M8.18674 13.3307C9.28738 13.3307 10.1796 12.445 10.1796 11.3524C10.1796 10.2598 9.28738 9.37402 8.18674 9.37402C7.0861 9.37402 6.19385 10.2598 6.19385 11.3524C6.19385 12.445 7.0861 13.3307 8.18674 13.3307Z"/> <path d="M8.18819 12.6686C8.92073 12.6686 9.51456 12.0791 9.51456 11.3519C9.51456 10.6247 8.92073 10.0352 8.18819 10.0352C7.45565 10.0352 6.86182 10.6247 6.86182 11.3519C6.86182 12.0791 7.45565 12.6686 8.18819 12.6686Z"/> <path d="M2.84207 15.2956C1.22976 14.832 0.3013 13.1588 0.768197 11.5582C1.05813 10.5644 1.84088 9.78738 2.84207 9.49948L3.69522 9.24805L3.69522 15.5536L2.84207 15.2956Z"/> <path d="M15.8122 13.3307C16.9129 13.3307 17.8051 12.445 17.8051 11.3524C17.8051 10.2598 16.9129 9.37402 15.8122 9.37402C14.7116 9.37402 13.8193 10.2598 13.8193 11.3524C13.8193 12.445 14.7116 13.3307 15.8122 13.3307Z"/> <path d="M15.8127 12.6686C16.5452 12.6686 17.1391 12.0791 17.1391 11.3519C17.1391 10.6247 16.5452 10.0352 15.8127 10.0352C15.0802 10.0352 14.4863 10.6247 14.4863 11.3519C14.4863 12.0791 15.0802 12.6686 15.8127 12.6686Z"/> <path d="M20.3042 9.27441L21.1573 9.49938C22.7697 9.96295 23.6981 11.6362 23.2312 13.2368C22.9413 14.2306 22.1585 15.0076 21.1573 15.2955L20.3042 15.5535V9.27441Z"/> <path d="M12.0007 3.78254C12.8584 3.78254 13.5537 3.09232 13.5537 2.24088C13.5537 1.38944 12.8584 0.699219 12.0007 0.699219C11.143 0.699219 10.4478 1.38944 10.4478 2.24088C10.4478 3.09232 11.143 3.78254 12.0007 3.78254Z"/> <path d="M8.18756 13.9915C9.65999 13.9915 10.8536 12.8066 10.8536 11.3449C10.8536 9.88319 9.65999 8.69824 8.18756 8.69824C6.71514 8.69824 5.52148 9.88319 5.52148 11.3449C5.52148 12.8066 6.71514 13.9915 8.18756 13.9915ZM8.18756 10.0216C8.92382 10.0216 9.5206 10.614 9.5206 11.3449C9.5206 12.0758 8.92382 12.6682 8.18756 12.6682C7.45131 12.6682 6.85452 12.0758 6.85452 11.3449C6.85819 10.6166 7.45397 10.0282 8.18756 10.0282V10.0216Z"/> <path d="M15.8116 13.9915C17.284 13.9915 18.4777 12.8066 18.4777 11.3449C18.4777 9.88319 17.284 8.69824 15.8116 8.69824C14.3392 8.69824 13.1455 9.88319 13.1455 11.3449C13.1455 12.8066 14.3392 13.9915 15.8116 13.9915ZM15.8116 10.0216C16.5478 10.0216 17.1446 10.614 17.1446 11.3449C17.1446 12.0758 16.5478 12.6682 15.8116 12.6682C15.0753 12.6682 14.4785 12.0758 14.4785 11.3449C14.4822 10.6166 15.078 10.0282 15.8116 10.0282V10.0216Z"/> <path d="M3.04811 16.0301C3.24806 18.9347 5.42092 20 7.46713 20H16.5318C19.5778 20 20.7975 18.015 20.9508 16.0301C22.9681 15.6661 24.3062 13.7475 23.9395 11.7449C23.6519 10.1741 22.378 8.9657 20.7842 8.75182C20.3443 7.13738 19.0779 5.76113 16.5318 5.76113H12.666V4.30548C13.8352 3.94008 14.4847 2.70287 14.1165 1.54224C13.7483 0.381607 12.5021 -0.263178 11.3329 0.102305C10.1638 0.467788 9.51426 1.70492 9.88243 2.86555C10.1001 3.55186 10.6416 4.08945 11.3329 4.30548V5.72805H7.4738C5.67419 5.72805 3.78128 6.5485 3.20807 8.71874C1.17677 8.99556 -0.243914 10.8547 0.0349415 12.8711C0.25356 14.4522 1.47254 15.7139 3.05477 15.997L3.04811 16.0301ZM22.6638 12.3976C22.6608 13.4474 21.9603 14.3693 20.9442 14.6604V10.1347C21.9603 10.4258 22.6608 11.3477 22.6638 12.3976ZM11.113 2.24111C11.113 1.75513 11.5099 1.36111 11.9995 1.36111C12.489 1.36111 12.8859 1.75513 12.8859 2.24111C12.8859 2.7271 12.489 3.12112 11.9995 3.12112C11.5099 3.12112 11.113 2.7271 11.113 2.24111ZM4.36115 10.181C4.36115 7.49467 6.30739 7.09768 7.46713 7.09768H16.5318C19.2379 7.09768 19.6378 9.02972 19.6378 10.181V15.5537C19.6378 16.7049 19.2312 18.637 16.5318 18.637H7.4738C6.31405 18.637 4.36782 18.2334 4.36782 15.5537L4.36115 10.181ZM3.02811 10.181V14.7067C1.76914 14.3455 1.04363 13.0395 1.40747 11.7898C1.63367 11.0129 2.24554 10.4056 3.02811 10.181Z"/> <path d="M15.8115 15.792L8.18654 15.792C7.81845 15.792 7.52002 16.0882 7.52002 16.4536C7.52002 16.819 7.81845 17.1153 8.18654 17.1153H15.8115C16.1796 17.1153 16.478 16.819 16.478 16.4536C16.478 16.0882 16.1796 15.792 15.8115 15.792Z"/> </symbol> <symbol id="drib-icon" viewBox="0 0 32 44"> <path d="M23.948 11.2752C21.9358 8.44954 19.8807 5.49541 18.2966 2.41284C17.8685 1.55657 16.9694 1 16.0275 1C15.0856 1 14.1865 1.51376 13.7584 2.41284C12.2171 5.4526 10.2477 8.3211 8.36392 11.104C4.55352 16.6269 1 21.8073 1 27.5872C1 36.5352 7.29358 43 15.9847 43C24.7615 43 31.3976 36.3639 31.3976 27.5872C31.3976 21.8502 27.7584 16.7125 23.948 11.2752ZM15.9847 41.2875C8.27829 41.2875 2.71254 35.5076 2.71254 27.5872C2.71254 22.3639 6.13762 17.3547 9.73395 12.0887C11.6606 9.263 13.6728 6.30887 15.2569 3.18349C15.471 2.75535 15.8563 2.71254 16.0275 2.71254C16.1988 2.71254 16.5841 2.75535 16.7982 3.18349C18.4251 6.35168 20.5229 9.34862 22.578 12.2599C26.2171 17.4832 29.685 22.4067 29.685 27.5872C29.685 35.3792 23.7768 41.2875 15.9847 41.2875Z" stroke-width="0.7" stroke-miterlimit="10" stroke-linecap="round" stroke-linejoin="round"/> <path d="M11.9596 13.5871C11.5743 13.3303 11.0177 13.4159 10.7609 13.8012C9.3052 16.0275 7.59266 18.5963 6.35107 21.2079C6.137 21.6361 6.35107 22.1498 6.7792 22.3639C6.90764 22.4067 7.03609 22.4495 7.16453 22.4495C7.46422 22.4495 7.80673 22.2783 7.93517 21.9786C9.13394 19.4526 10.7609 16.9694 12.2165 14.8287C12.4734 14.4006 12.345 13.8868 11.9596 13.5871Z" stroke-width="0.7" stroke-miterlimit="10" stroke-linecap="round" stroke-linejoin="round"/> <path d="M6.39424 23.3487C5.96611 23.1774 5.45235 23.3915 5.28109 23.8196C5.10984 24.2906 4.93858 24.7615 4.85296 25.2325C4.76733 25.7034 5.06703 26.1315 5.53797 26.26C5.58079 26.26 5.66641 26.26 5.70923 26.26C6.09455 26.26 6.47987 25.9603 6.56549 25.575C6.65112 25.1896 6.73675 24.8043 6.908 24.419C7.07925 24.0337 6.86519 23.5627 6.39424 23.3487Z" stroke-width="0.7" stroke-miterlimit="10" stroke-linecap="round" stroke-linejoin="round"/> </symbol> <symbol id="fb-icon" viewBox="0 0 11 20"> <path d="M3.00781 20H6.67969V11.0547H9.53125L10 7.5H6.67969V5.03906C6.67969 4.49219 6.75781 4.0625 6.99219 3.78906C7.22656 3.47656 7.73438 3.32031 8.4375 3.32031H10.3125V0.15625C9.60938 0.078125 8.67188 0 7.57812 0C6.17188 0 5.07812 0.429688 4.25781 1.25C3.39844 2.07031 3.00781 3.20312 3.00781 4.6875V7.5H0V11.0547H3.00781V20Z"/> </symbol> <symbol id="flake-icon" viewBox="0 0 38 42"> <path d="M1.14279 15.9551L5.73654 14.3965L8.7717 16.1602L5.53147 17.2676C5.08029 17.4317 4.8342 17.8829 4.99826 18.334C5.16232 18.7852 5.6135 19.0313 6.06467 18.8672L10.6584 17.3086L12.4631 18.293C12.8322 18.5391 13.3244 18.4161 13.5705 18.0059C13.8166 17.6368 13.6936 17.1446 13.2834 16.8985L11.5197 15.8731L10.5764 11.1153C10.4533 10.6641 10.0432 10.377 9.59201 10.459C9.14084 10.5821 8.85373 10.9922 8.93576 11.4434L9.63303 14.6426L6.59787 12.879L5.65451 8.12114C5.53147 7.66997 5.12131 7.38286 4.67014 7.46489C4.21897 7.58794 3.93186 7.9981 4.01389 8.44927L4.67014 11.8126L1.63498 10.0899C1.26584 9.8438 0.773653 9.96685 0.527559 10.377C0.281465 10.7461 0.404512 11.2383 0.814668 11.4844L3.84982 13.2481L0.60959 14.3555C0.158418 14.5196 -0.0876755 14.9708 0.076387 15.4219C0.24045 15.8731 0.691621 16.1192 1.14279 15.9551Z"/> <path d="M26.6953 21.041C26.8184 20.6308 26.6133 20.1387 26.1621 20.0156L22.4297 18.7851L22.9629 14.7656C23.0039 14.5195 22.9219 14.3144 22.7168 14.1504C22.4297 13.7812 21.8965 13.7812 21.5684 14.0683L18.6152 16.6933L15.416 14.2324C15.252 14.0683 15.0059 14.0273 14.7598 14.0683C14.3086 14.1914 14.0215 14.6016 14.1035 15.0527L14.8828 18.9082L11.1504 20.4668C10.9453 20.5488 10.7813 20.7129 10.6992 20.959C10.5762 21.3691 10.7813 21.8613 11.2324 21.9844L14.9649 23.2148L14.4317 27.2344C14.3906 27.4805 14.4727 27.6855 14.6367 27.8906C14.9238 28.2598 15.457 28.2598 15.7852 27.9726L18.7793 25.3066L21.9785 27.7676C22.1426 27.9316 22.3887 27.9726 22.6348 27.9316C23.0859 27.8086 23.3731 27.3984 23.291 26.9473L22.5117 23.0918L26.2442 21.5332C26.4492 21.4512 26.6133 21.2871 26.6953 21.041ZM21.2402 21.8613C20.8711 22.0254 20.666 22.4355 20.7481 22.8047L21.1992 25.1426L19.1895 23.625C18.8613 23.3379 18.4102 23.3789 18.1231 23.666L16.3184 25.2656L16.6465 22.7637C16.7285 22.3535 16.4414 21.9844 16.0723 21.8613L13.8164 21.123L16.1543 20.1797C16.5234 20.0156 16.7285 19.6055 16.6465 19.2363L16.1543 16.8574L18.1641 18.375C18.4922 18.6621 18.9434 18.6211 19.2305 18.334L21.0352 16.7344L20.707 19.2363C20.666 19.6465 20.9121 20.0156 21.3223 20.1797L23.5781 20.918L21.2402 21.8613Z"/> <path d="M15.2931 7.75195C14.9649 7.46484 14.4317 7.50586 14.1446 7.83398C13.8575 8.16211 13.8985 8.69531 14.2267 8.98242L17.8771 12.1816V14.1914C17.8771 14.6426 18.2462 15.0117 18.6974 15.0117C19.1485 15.0117 19.5177 14.6426 19.5177 14.1914V12.1816L23.1681 8.98242C23.4962 8.69531 23.5372 8.16211 23.2501 7.83398C22.963 7.50586 22.4298 7.46484 22.1017 7.75195L19.5177 10.0078V6.48047L23.1681 3.28125C23.4962 2.99414 23.5372 2.46094 23.2501 2.13281C22.963 1.80469 22.4298 1.76367 22.1017 2.05078L19.5177 4.30664V0.820312C19.5177 0.369141 19.1485 0 18.6974 0C18.2462 0 17.8771 0.369141 17.8771 0.820312V4.30664L15.2931 2.05078C14.9649 1.76367 14.4317 1.80469 14.1446 2.13281C13.8575 2.46094 13.8985 2.99414 14.2267 3.28125L17.8771 6.48047V10.0078L15.2931 7.75195Z"/> <path d="M12.4219 23.666L10.6582 24.6914L6.06446 23.0918C5.61329 22.9688 5.16212 23.1738 4.99806 23.625C4.87501 24.0762 5.08009 24.5274 5.53126 24.6914L8.73048 25.7168L5.69532 27.4805L1.10157 25.9219C0.650402 25.7988 0.19923 26.0039 0.0351676 26.4551C-0.0878793 26.8652 0.117199 27.3164 0.568371 27.4805L3.8086 28.5879L0.773449 30.3516C0.404308 30.5567 0.240246 31.0488 0.48634 31.459C0.691418 31.8281 1.18361 31.9922 1.59376 31.7461L4.62892 30.0234L3.97267 33.3867C3.89064 33.8379 4.17775 34.2891 4.62892 34.3711C5.08009 34.4531 5.53126 34.166 5.61329 33.7149L6.51564 28.916L9.55079 27.1524L8.89454 30.5156C8.81251 30.9668 9.09962 31.418 9.55079 31.5C10.002 31.582 10.4531 31.2949 10.5352 30.8438L11.4785 26.0859L13.2422 25.0606C13.6113 24.8555 13.7754 24.3633 13.5293 23.9531C13.3242 23.584 12.832 23.4199 12.4219 23.666Z"/> <path d="M36.826 14.5196L33.5858 13.4122L36.6209 11.6485C36.9901 11.4434 37.1541 10.9512 36.908 10.5411C36.703 10.1719 36.2108 10.0079 35.8006 10.254L32.7655 11.9766L33.4217 8.61333C33.5037 8.16216 33.2166 7.71099 32.7655 7.62896C32.3143 7.54693 31.8631 7.83404 31.7811 8.28521L30.8787 13.084L27.8436 14.8477L28.4998 11.4844C28.5819 11.0333 28.2948 10.5821 27.8436 10.5001C27.3924 10.418 26.9412 10.7051 26.8592 11.1563L25.9158 15.9141L24.1522 16.9395C23.783 17.1446 23.619 17.6368 23.8651 18.0469C24.0701 18.4161 24.5623 18.5801 24.9725 18.334L26.7362 17.3086L31.3709 18.9083C31.7811 19.0313 32.2323 18.8262 32.3963 18.3751C32.5194 17.9239 32.3143 17.4727 31.8631 17.3086L28.6639 16.3243L31.699 14.5606L36.2928 16.1192C36.744 16.2422 37.1951 16.0372 37.3592 15.586C37.4823 15.1348 37.2772 14.6836 36.826 14.5196Z"/> <path d="M36.2112 26.086L31.6175 27.6446L28.5823 25.881L31.8226 24.7735C32.2737 24.6095 32.5198 24.1583 32.3558 23.7071C32.2327 23.256 31.7815 23.0099 31.3304 23.1739L26.7366 24.7325L24.9729 23.7071C24.6038 23.461 24.1116 23.5841 23.8655 23.9942C23.6194 24.3634 23.7425 24.8556 24.1526 25.1017L25.8753 26.127L26.8187 30.8849C26.9417 31.336 27.3519 31.6231 27.803 31.5411C28.2542 31.4181 28.5413 31.0079 28.4593 30.5567L27.721 27.3575L30.7561 29.1212L31.6995 33.879C31.8226 34.3302 32.2327 34.6173 32.6839 34.5352C33.1351 34.4122 33.4222 34.002 33.3401 33.5509L32.6839 30.1876L35.719 31.9103C36.0882 32.1563 36.5804 32.0333 36.8265 31.6231C37.0726 31.254 36.9495 30.7618 36.5394 30.5157L33.5042 28.752L36.7444 27.6446C37.1956 27.5216 37.4417 27.0704 37.2776 26.6192C37.1136 26.1681 36.6624 25.922 36.2112 26.086Z"/> <path d="M22.1017 34.248C22.4298 34.5352 22.963 34.4941 23.2501 34.166C23.5372 33.8379 23.4962 33.3047 23.1681 33.0176L19.5177 29.8184V27.8086C19.5177 27.3574 19.1485 26.9883 18.6974 26.9883C18.2462 26.9883 17.8771 27.3574 17.8771 27.8086V29.8184L14.2267 33.0176C13.8985 33.3047 13.8575 33.8379 14.1446 34.166C14.4317 34.4941 14.9649 34.5352 15.2931 34.248L17.8771 31.9922V35.5195L14.2267 38.7187C13.8985 39.0059 13.8575 39.5391 14.1446 39.8672C14.4317 40.1953 14.9649 40.2363 15.2931 39.9492L17.8771 37.6934V41.1797C17.8771 41.6309 18.2462 42 18.6974 42C19.1485 42 19.5177 41.6309 19.5177 41.1797V37.6934L22.1017 39.9492C22.4298 40.2363 22.963 40.1953 23.2501 39.8672C23.5372 39.5391 23.4962 39.0059 23.1681 38.7187L19.5177 35.5195V31.9922L22.1017 34.248Z"/> </symbol> <symbol id="icon-down" viewBox="0 0 16 9"> <path d="M15.8914 0.818182C15.9638 0.924901 16 1.03162 16 1.13834C16 1.28063 15.9638 1.35178 15.8914 1.42292L8.32579 8.89328C8.21719 8.96443 8.1086 9 8 9C7.8552 9 7.78281 8.96443 7.71041 8.89328L0.108597 1.42292C0.0361991 1.35178 0 1.28063 0 1.13834C0 1.03162 0.0361991 0.924901 0.108597 0.818182L0.832579 0.106719C0.904977 0.0355731 0.977376 0 1.12217 0C1.23077 0 1.33937 0.0355731 1.44796 0.106719L8 6.54545L14.552 0.106719C14.6244 0.0355731 14.733 0 14.8778 0C14.9864 0 15.095 0.0355731 15.1674 0.106719L15.8914 0.818182Z"/> </symbol> <symbol id="menu-icon" viewBox="0 0 19 16"> <path d="M17.8828 2.71094C18.0059 2.71094 18.1289 2.66992 18.2109 2.58789C18.293 2.50586 18.375 2.38281 18.375 2.21875V0.90625C18.375 0.783203 18.293 0.660156 18.2109 0.578125C18.1289 0.496094 18.0059 0.414062 17.8828 0.414062H0.492188C0.328125 0.414062 0.205078 0.496094 0.123047 0.578125C0.0410156 0.660156 0 0.783203 0 0.90625V2.21875C0 2.38281 0.0410156 2.50586 0.123047 2.58789C0.205078 2.66992 0.328125 2.71094 0.492188 2.71094H17.8828ZM17.8828 9.27344C18.0059 9.27344 18.1289 9.23242 18.2109 9.15039C18.293 9.06836 18.375 8.94531 18.375 8.78125V7.46875C18.375 7.3457 18.293 7.22266 18.2109 7.14062C18.1289 7.05859 18.0059 6.97656 17.8828 6.97656H0.492188C0.328125 6.97656 0.205078 7.05859 0.123047 7.14062C0.0410156 7.22266 0 7.3457 0 7.46875V8.78125C0 8.94531 0.0410156 9.06836 0.123047 9.15039C0.205078 9.23242 0.328125 9.27344 0.492188 9.27344H17.8828ZM17.8828 15.8359C18.0059 15.8359 18.1289 15.7949 18.2109 15.7129C18.293 15.6309 18.375 15.5078 18.375 15.3438V14.0312C18.375 13.9082 18.293 13.7852 18.2109 13.7031C18.1289 13.6211 18.0059 13.5391 17.8828 13.5391H0.492188C0.328125 13.5391 0.205078 13.6211 0.123047 13.7031C0.0410156 13.7852 0 13.9082 0 14.0312V15.3438C0 15.5078 0.0410156 15.6309 0.123047 15.7129C0.205078 15.7949 0.328125 15.8359 0.492188 15.8359H17.8828Z"/> </symbol> <symbol id="reit-icon" viewBox="0 0 10 10"> <path d="M9.00099 6.25773C9.18555 6.74047 9.17325 7.26236 8.96408 7.7451C8.76793 8.19779 8.13818 8.83731 7.73368 9.03676C6.98314 9.46731 6.02343 9.71521 5.02681 9.71521C4.54695 9.71521 4.0671 9.66302 3.58724 9.54559H3.56264L3.26734 9.46731C0.995157 8.77664 0.885429 7.63999 0.880371 6.97532C0.880371 6.59696 0.991107 6.20554 1.21258 5.85327C1.36023 5.61843 1.66782 5.55319 1.8893 5.70975C2.11077 5.86632 2.17229 6.1925 2.02464 6.42734C1.84008 6.71438 1.80317 7.00141 1.9139 7.28845C2.12307 7.84947 2.8367 8.33222 3.7718 8.56706H3.79641C5.44514 8.97152 7.36456 8.48878 7.97976 7.51025C8.16432 7.23626 8.20123 6.94923 8.0905 6.66219C7.88133 6.10117 7.1677 5.61843 6.2326 5.38358L4.15323 4.87474C3.07048 4.60075 2.28302 4.01364 2.00003 3.25691C1.80317 2.73502 1.86469 2.18705 2.17229 1.69126C2.88592 0.556162 4.80534 0.00818554 6.52789 0.425692C7.54912 0.673586 8.63187 1.36508 8.63187 2.57846C8.63187 2.86549 8.4104 3.10034 8.13971 3.10034C7.86902 3.10034 7.64755 2.86549 7.64755 2.57846C7.64755 1.96525 6.92162 1.58688 6.30642 1.43032C4.85455 1.07804 3.41499 1.57383 2.98435 2.25228C2.86131 2.46103 2.8367 2.65674 2.91053 2.86549C3.04587 3.19167 3.48881 3.62222 4.3747 3.84402L6.45407 4.35286C7.73368 4.66599 8.66878 5.35748 9.00099 6.25773Z"/> </symbol> <symbol id="rss-icon" viewBox="0 0 16 16"> <path d="M2.8125 11.8125C2.49609 11.8125 2.21484 11.9531 2.00391 12.1641C1.79297 12.375 1.6875 12.6562 1.6875 12.9375C1.6875 13.2539 1.79297 13.5352 2.00391 13.7461C2.21484 13.957 2.49609 14.0625 2.8125 14.0625C3.09375 14.0625 3.375 13.957 3.58594 13.7461C3.79688 13.5352 3.9375 13.2539 3.9375 12.9375C3.9375 12.6562 3.79688 12.375 3.58594 12.1641C3.375 11.9531 3.09375 11.8125 2.8125 11.8125ZM2.8125 10.125C3.58594 10.125 4.21875 10.4062 4.78125 10.9688C5.34375 11.5312 5.625 12.1641 5.625 12.9375C5.625 13.7109 5.34375 14.3789 4.78125 14.9414C4.21875 15.5039 3.58594 15.75 2.8125 15.75C2.03906 15.75 1.37109 15.5039 0.808594 14.9414C0.246094 14.3789 0 13.7109 0 12.9375C0 12.1641 0.246094 11.5312 0.808594 10.9688C1.37109 10.4062 2.03906 10.125 2.8125 10.125ZM15.75 15.3281C15.75 15.4688 15.6797 15.5742 15.6094 15.6445C15.5391 15.7148 15.4336 15.75 15.3281 15.75H14.4844C14.3438 15.75 14.2383 15.7148 14.168 15.6445C14.0977 15.5742 14.0625 15.4688 14.0625 15.3281C13.9922 12.9023 13.3242 10.6523 12.0938 8.54297C10.8633 6.50391 9.24609 4.88672 7.20703 3.65625C5.09766 2.42578 2.84766 1.75781 0.421875 1.6875C0.28125 1.6875 0.175781 1.65234 0.105469 1.58203C0.0351562 1.51172 0 1.40625 0 1.26562V0.421875C0 0.316406 0.0351562 0.210938 0.105469 0.140625C0.175781 0.0703125 0.28125 0 0.421875 0C3.16406 0.0703125 5.69531 0.808594 8.05078 2.21484C10.3359 3.58594 12.1641 5.41406 13.5352 7.66406C14.9414 10.0547 15.6797 12.5859 15.75 15.3281ZM10.9688 15.3281C10.9688 15.4688 10.8984 15.5742 10.8281 15.6445C10.7578 15.7148 10.6523 15.75 10.5469 15.75H9.70312C9.5625 15.75 9.45703 15.7148 9.38672 15.6445C9.31641 15.5742 9.28125 15.4688 9.28125 15.3633C9.21094 13.7812 8.75391 12.3398 7.94531 11.0039C7.13672 9.66797 6.08203 8.61328 4.74609 7.80469C3.41016 6.99609 1.96875 6.53906 0.386719 6.46875C0.28125 6.46875 0.175781 6.43359 0.105469 6.36328C0.0351562 6.29297 0 6.1875 0 6.04688V5.20312C0 5.09766 0.0351562 4.99219 0.105469 4.92188C0.175781 4.85156 0.28125 4.78125 0.421875 4.78125C2.28516 4.85156 4.00781 5.37891 5.58984 6.32812C7.17188 7.3125 8.4375 8.57812 9.42188 10.125C10.3711 11.707 10.8984 13.4297 10.9688 15.3281Z"/> </symbol> <symbol id="search-icon" viewBox="0 0 20 21"> <path d="M19.8828 18.8203C19.9609 18.8984 20 19.0156 20 19.1328C20 19.2891 19.9609 19.4062 19.8828 19.4844L18.9844 20.3438C18.8672 20.4609 18.75 20.5 18.6328 20.5C18.4766 20.5 18.3984 20.4609 18.3203 20.3438L13.5547 15.6172C13.4766 15.5391 13.4375 15.4219 13.4375 15.3047V14.7578C12.6953 15.3828 11.875 15.8906 10.9766 16.2422C10.0391 16.5938 9.10156 16.75 8.125 16.75C6.64062 16.75 5.27344 16.3984 4.02344 15.6562C2.77344 14.9531 1.79688 13.9766 1.09375 12.7266C0.351562 11.4766 0 10.1094 0 8.625C0 7.14062 0.351562 5.8125 1.09375 4.5625C1.79688 3.3125 2.77344 2.33594 4.02344 1.59375C5.27344 0.890625 6.64062 0.5 8.125 0.5C9.60938 0.5 10.9375 0.890625 12.1875 1.59375C13.4375 2.33594 14.4141 3.3125 15.1562 4.5625C15.8594 5.8125 16.25 7.14062 16.25 8.625C16.25 9.64062 16.0547 10.5781 15.7031 11.4766C15.3516 12.4141 14.8828 13.2344 14.2578 13.9375H14.8047C14.9219 13.9375 15.0391 13.9766 15.1172 14.0547L19.8828 18.8203ZM8.125 14.875C9.21875 14.875 10.2734 14.6016 11.25 14.0547C12.1875 13.5078 12.9688 12.7266 13.5156 11.75C14.0625 10.8125 14.375 9.75781 14.375 8.625C14.375 7.53125 14.0625 6.47656 13.5156 5.5C12.9688 4.5625 12.1875 3.78125 11.25 3.23438C10.2734 2.6875 9.21875 2.375 8.125 2.375C6.99219 2.375 5.9375 2.6875 5 3.23438C4.02344 3.78125 3.24219 4.5625 2.69531 5.5C2.14844 6.47656 1.875 7.53125 1.875 8.625C1.875 9.75781 2.14844 10.8125 2.69531 11.75C3.24219 12.7266 4.02344 13.5078 5 14.0547C5.9375 14.6016 6.99219 14.875 8.125 14.875Z"/> </symbol> <symbol id="shield-icon" viewBox="0 0 32 38"> <g filter="url(#filter0_d)"> <path d="M27.6946 9.07418L16.1109 3.06611C15.939 2.97683 15.7331 2.97808 15.5625 3.06924L4.29929 9.07731C4.11457 9.17598 4 9.36456 4 9.56973V17.4178C4.00676 23.8691 7.93355 29.7055 14.0062 32.2901L15.5696 32.9533C15.7157 33.0153 15.8821 33.0156 16.0285 32.9539L17.7901 32.2134C23.9754 29.6849 27.9994 23.7921 28 17.2621V9.56973C28 9.36236 27.8825 9.1716 27.6946 9.07418ZM21.6548 15.7075L14.56 21.3256C14.3174 21.5179 13.9611 21.4866 13.7578 21.2548L10.7115 17.7824C10.5045 17.5466 10.5332 17.1923 10.7755 16.9909C11.0178 16.7898 11.3818 16.8176 11.5887 17.0532L14.2691 20.1086L20.9265 14.8367C21.1737 14.6409 21.537 14.6772 21.7378 14.9178C21.9389 15.1584 21.9016 15.512 21.6544 15.7075H21.6548Z"/> </g> <rect x="9" y="12" width="15" height="12"/> <path d="M27.6946 9.07418L16.1109 3.06611C15.939 2.97683 15.7331 2.97808 15.5625 3.06924L4.29929 9.07731C4.11457 9.17598 4 9.36456 4 9.56973V17.4178C4.00676 23.8691 7.93355 29.7055 14.0062 32.2901L15.5696 32.9533C15.7157 33.0153 15.8821 33.0156 16.0285 32.9539L17.7901 32.2134C23.9754 29.6849 27.9994 23.7921 28 17.2621V9.56973C28 9.36236 27.8825 9.1716 27.6946 9.07418ZM21.6548 15.7075L14.56 21.3256C14.3174 21.5179 13.9611 21.4866 13.7578 21.2548L10.7115 17.7824C10.5045 17.5466 10.5332 17.1923 10.7755 16.9909C11.0178 16.7898 11.3818 16.8176 11.5887 17.0532L14.2691 20.1086L20.9265 14.8367C21.1737 14.6409 21.537 14.6772 21.7378 14.9178C21.9389 15.1584 21.9016 15.512 21.6544 15.7075H21.6548Z"/> </symbol> <symbol id="svg-symbols" viewBox="0 0 100 100"> <symbol id="bot-icon" viewBox="0 0 24 20"> <path d="M7.47367 19.3316C5.10753 19.3316 3.70117 17.9289 3.70117 15.5866L3.70117 10.161C3.70117 7.81211 5.11419 6.41602 7.47367 6.41602L16.5317 6.41602C18.8978 6.41602 20.3042 7.81873 20.3042 10.161V15.5535C20.3042 17.9024 18.8911 19.2985 16.5317 19.2985L7.47367 19.3316ZM15.8118 9.36701C14.7075 9.36701 13.8123 10.2557 13.8123 11.352C13.8123 12.4483 14.7075 13.337 15.8118 13.337C16.9162 13.337 17.8114 12.4483 17.8114 11.352C17.8114 10.2557 16.9162 9.36701 15.8118 9.36701ZM8.18018 9.36701C7.07584 9.36701 6.18062 10.2557 6.18062 11.352C6.18062 12.4483 7.07584 13.337 8.18018 13.337C9.28452 13.337 10.1797 12.4483 10.1797 11.352C10.1797 10.2583 9.2886 9.37065 8.18684 9.36701H8.18018Z"/> <path d="M8.18674 13.3307C9.28738 13.3307 10.1796 12.445 10.1796 11.3524C10.1796 10.2598 9.28738 9.37402 8.18674 9.37402C7.0861 9.37402 6.19385 10.2598 6.19385 11.3524C6.19385 12.445 7.0861 13.3307 8.18674 13.3307Z"/> <path d="M8.18819 12.6686C8.92073 12.6686 9.51456 12.0791 9.51456 11.3519C9.51456 10.6247 8.92073 10.0352 8.18819 10.0352C7.45565 10.0352 6.86182 10.6247 6.86182 11.3519C6.86182 12.0791 7.45565 12.6686 8.18819 12.6686Z"/> <path d="M2.84207 15.2956C1.22976 14.832 0.3013 13.1588 0.768197 11.5582C1.05813 10.5644 1.84088 9.78738 2.84207 9.49948L3.69522 9.24805L3.69522 15.5536L2.84207 15.2956Z"/> <path d="M15.8122 13.3307C16.9129 13.3307 17.8051 12.445 17.8051 11.3524C17.8051 10.2598 16.9129 9.37402 15.8122 9.37402C14.7116 9.37402 13.8193 10.2598 13.8193 11.3524C13.8193 12.445 14.7116 13.3307 15.8122 13.3307Z"/> <path d="M15.8127 12.6686C16.5452 12.6686 17.1391 12.0791 17.1391 11.3519C17.1391 10.6247 16.5452 10.0352 15.8127 10.0352C15.0802 10.0352 14.4863 10.6247 14.4863 11.3519C14.4863 12.0791 15.0802 12.6686 15.8127 12.6686Z"/> <path d="M20.3042 9.27441L21.1573 9.49938C22.7697 9.96295 23.6981 11.6362 23.2312 13.2368C22.9413 14.2306 22.1585 15.0076 21.1573 15.2955L20.3042 15.5535V9.27441Z"/> <path d="M12.0007 3.78254C12.8584 3.78254 13.5537 3.09232 13.5537 2.24088C13.5537 1.38944 12.8584 0.699219 12.0007 0.699219C11.143 0.699219 10.4478 1.38944 10.4478 2.24088C10.4478 3.09232 11.143 3.78254 12.0007 3.78254Z"/> <path d="M8.18756 13.9915C9.65999 13.9915 10.8536 12.8066 10.8536 11.3449C10.8536 9.88319 9.65999 8.69824 8.18756 8.69824C6.71514 8.69824 5.52148 9.88319 5.52148 11.3449C5.52148 12.8066 6.71514 13.9915 8.18756 13.9915ZM8.18756 10.0216C8.92382 10.0216 9.5206 10.614 9.5206 11.3449C9.5206 12.0758 8.92382 12.6682 8.18756 12.6682C7.45131 12.6682 6.85452 12.0758 6.85452 11.3449C6.85819 10.6166 7.45397 10.0282 8.18756 10.0282V10.0216Z"/> <path d="M15.8116 13.9915C17.284 13.9915 18.4777 12.8066 18.4777 11.3449C18.4777 9.88319 17.284 8.69824 15.8116 8.69824C14.3392 8.69824 13.1455 9.88319 13.1455 11.3449C13.1455 12.8066 14.3392 13.9915 15.8116 13.9915ZM15.8116 10.0216C16.5478 10.0216 17.1446 10.614 17.1446 11.3449C17.1446 12.0758 16.5478 12.6682 15.8116 12.6682C15.0753 12.6682 14.4785 12.0758 14.4785 11.3449C14.4822 10.6166 15.078 10.0282 15.8116 10.0282V10.0216Z"/> <path d="M3.04811 16.0301C3.24806 18.9347 5.42092 20 7.46713 20H16.5318C19.5778 20 20.7975 18.015 20.9508 16.0301C22.9681 15.6661 24.3062 13.7475 23.9395 11.7449C23.6519 10.1741 22.378 8.9657 20.7842 8.75182C20.3443 7.13738 19.0779 5.76113 16.5318 5.76113H12.666V4.30548C13.8352 3.94008 14.4847 2.70287 14.1165 1.54224C13.7483 0.381607 12.5021 -0.263178 11.3329 0.102305C10.1638 0.467788 9.51426 1.70492 9.88243 2.86555C10.1001 3.55186 10.6416 4.08945 11.3329 4.30548V5.72805H7.4738C5.67419 5.72805 3.78128 6.5485 3.20807 8.71874C1.17677 8.99556 -0.243914 10.8547 0.0349415 12.8711C0.25356 14.4522 1.47254 15.7139 3.05477 15.997L3.04811 16.0301ZM22.6638 12.3976C22.6608 13.4474 21.9603 14.3693 20.9442 14.6604V10.1347C21.9603 10.4258 22.6608 11.3477 22.6638 12.3976ZM11.113 2.24111C11.113 1.75513 11.5099 1.36111 11.9995 1.36111C12.489 1.36111 12.8859 1.75513 12.8859 2.24111C12.8859 2.7271 12.489 3.12112 11.9995 3.12112C11.5099 3.12112 11.113 2.7271 11.113 2.24111ZM4.36115 10.181C4.36115 7.49467 6.30739 7.09768 7.46713 7.09768H16.5318C19.2379 7.09768 19.6378 9.02972 19.6378 10.181V15.5537C19.6378 16.7049 19.2312 18.637 16.5318 18.637H7.4738C6.31405 18.637 4.36782 18.2334 4.36782 15.5537L4.36115 10.181ZM3.02811 10.181V14.7067C1.76914 14.3455 1.04363 13.0395 1.40747 11.7898C1.63367 11.0129 2.24554 10.4056 3.02811 10.181Z"/> <path d="M15.8115 15.792L8.18654 15.792C7.81845 15.792 7.52002 16.0882 7.52002 16.4536C7.52002 16.819 7.81845 17.1153 8.18654 17.1153H15.8115C16.1796 17.1153 16.478 16.819 16.478 16.4536C16.478 16.0882 16.1796 15.792 15.8115 15.792Z"/> </symbol> <symbol id="drib-icon" viewBox="0 0 32 44"> <path d="M23.948 11.2752C21.9358 8.44954 19.8807 5.49541 18.2966 2.41284C17.8685 1.55657 16.9694 1 16.0275 1C15.0856 1 14.1865 1.51376 13.7584 2.41284C12.2171 5.4526 10.2477 8.3211 8.36392 11.104C4.55352 16.6269 1 21.8073 1 27.5872C1 36.5352 7.29358 43 15.9847 43C24.7615 43 31.3976 36.3639 31.3976 27.5872C31.3976 21.8502 27.7584 16.7125 23.948 11.2752ZM15.9847 41.2875C8.27829 41.2875 2.71254 35.5076 2.71254 27.5872C2.71254 22.3639 6.13762 17.3547 9.73395 12.0887C11.6606 9.263 13.6728 6.30887 15.2569 3.18349C15.471 2.75535 15.8563 2.71254 16.0275 2.71254C16.1988 2.71254 16.5841 2.75535 16.7982 3.18349C18.4251 6.35168 20.5229 9.34862 22.578 12.2599C26.2171 17.4832 29.685 22.4067 29.685 27.5872C29.685 35.3792 23.7768 41.2875 15.9847 41.2875Z" stroke-width="0.7" stroke-miterlimit="10" stroke-linecap="round" stroke-linejoin="round"/> <path d="M11.9596 13.5871C11.5743 13.3303 11.0177 13.4159 10.7609 13.8012C9.3052 16.0275 7.59266 18.5963 6.35107 21.2079C6.137 21.6361 6.35107 22.1498 6.7792 22.3639C6.90764 22.4067 7.03609 22.4495 7.16453 22.4495C7.46422 22.4495 7.80673 22.2783 7.93517 21.9786C9.13394 19.4526 10.7609 16.9694 12.2165 14.8287C12.4734 14.4006 12.345 13.8868 11.9596 13.5871Z" stroke-width="0.7" stroke-miterlimit="10" stroke-linecap="round" stroke-linejoin="round"/> <path d="M6.39424 23.3487C5.96611 23.1774 5.45235 23.3915 5.28109 23.8196C5.10984 24.2906 4.93858 24.7615 4.85296 25.2325C4.76733 25.7034 5.06703 26.1315 5.53797 26.26C5.58079 26.26 5.66641 26.26 5.70923 26.26C6.09455 26.26 6.47987 25.9603 6.56549 25.575C6.65112 25.1896 6.73675 24.8043 6.908 24.419C7.07925 24.0337 6.86519 23.5627 6.39424 23.3487Z" stroke-width="0.7" stroke-miterlimit="10" stroke-linecap="round" stroke-linejoin="round"/> </symbol> <symbol id="fb-icon" viewBox="0 0 11 20"> <path d="M3.00781 20H6.67969V11.0547H9.53125L10 7.5H6.67969V5.03906C6.67969 4.49219 6.75781 4.0625 6.99219 3.78906C7.22656 3.47656 7.73438 3.32031 8.4375 3.32031H10.3125V0.15625C9.60938 0.078125 8.67188 0 7.57812 0C6.17188 0 5.07812 0.429688 4.25781 1.25C3.39844 2.07031 3.00781 3.20312 3.00781 4.6875V7.5H0V11.0547H3.00781V20Z"/> </symbol> <symbol id="flake-icon" viewBox="0 0 38 42"> <path d="M1.14279 15.9551L5.73654 14.3965L8.7717 16.1602L5.53147 17.2676C5.08029 17.4317 4.8342 17.8829 4.99826 18.334C5.16232 18.7852 5.6135 19.0313 6.06467 18.8672L10.6584 17.3086L12.4631 18.293C12.8322 18.5391 13.3244 18.4161 13.5705 18.0059C13.8166 17.6368 13.6936 17.1446 13.2834 16.8985L11.5197 15.8731L10.5764 11.1153C10.4533 10.6641 10.0432 10.377 9.59201 10.459C9.14084 10.5821 8.85373 10.9922 8.93576 11.4434L9.63303 14.6426L6.59787 12.879L5.65451 8.12114C5.53147 7.66997 5.12131 7.38286 4.67014 7.46489C4.21897 7.58794 3.93186 7.9981 4.01389 8.44927L4.67014 11.8126L1.63498 10.0899C1.26584 9.8438 0.773653 9.96685 0.527559 10.377C0.281465 10.7461 0.404512 11.2383 0.814668 11.4844L3.84982 13.2481L0.60959 14.3555C0.158418 14.5196 -0.0876755 14.9708 0.076387 15.4219C0.24045 15.8731 0.691621 16.1192 1.14279 15.9551Z"/> <path d="M26.6953 21.041C26.8184 20.6308 26.6133 20.1387 26.1621 20.0156L22.4297 18.7851L22.9629 14.7656C23.0039 14.5195 22.9219 14.3144 22.7168 14.1504C22.4297 13.7812 21.8965 13.7812 21.5684 14.0683L18.6152 16.6933L15.416 14.2324C15.252 14.0683 15.0059 14.0273 14.7598 14.0683C14.3086 14.1914 14.0215 14.6016 14.1035 15.0527L14.8828 18.9082L11.1504 20.4668C10.9453 20.5488 10.7813 20.7129 10.6992 20.959C10.5762 21.3691 10.7813 21.8613 11.2324 21.9844L14.9649 23.2148L14.4317 27.2344C14.3906 27.4805 14.4727 27.6855 14.6367 27.8906C14.9238 28.2598 15.457 28.2598 15.7852 27.9726L18.7793 25.3066L21.9785 27.7676C22.1426 27.9316 22.3887 27.9726 22.6348 27.9316C23.0859 27.8086 23.3731 27.3984 23.291 26.9473L22.5117 23.0918L26.2442 21.5332C26.4492 21.4512 26.6133 21.2871 26.6953 21.041ZM21.2402 21.8613C20.8711 22.0254 20.666 22.4355 20.7481 22.8047L21.1992 25.1426L19.1895 23.625C18.8613 23.3379 18.4102 23.3789 18.1231 23.666L16.3184 25.2656L16.6465 22.7637C16.7285 22.3535 16.4414 21.9844 16.0723 21.8613L13.8164 21.123L16.1543 20.1797C16.5234 20.0156 16.7285 19.6055 16.6465 19.2363L16.1543 16.8574L18.1641 18.375C18.4922 18.6621 18.9434 18.6211 19.2305 18.334L21.0352 16.7344L20.707 19.2363C20.666 19.6465 20.9121 20.0156 21.3223 20.1797L23.5781 20.918L21.2402 21.8613Z"/> <path d="M15.2931 7.75195C14.9649 7.46484 14.4317 7.50586 14.1446 7.83398C13.8575 8.16211 13.8985 8.69531 14.2267 8.98242L17.8771 12.1816V14.1914C17.8771 14.6426 18.2462 15.0117 18.6974 15.0117C19.1485 15.0117 19.5177 14.6426 19.5177 14.1914V12.1816L23.1681 8.98242C23.4962 8.69531 23.5372 8.16211 23.2501 7.83398C22.963 7.50586 22.4298 7.46484 22.1017 7.75195L19.5177 10.0078V6.48047L23.1681 3.28125C23.4962 2.99414 23.5372 2.46094 23.2501 2.13281C22.963 1.80469 22.4298 1.76367 22.1017 2.05078L19.5177 4.30664V0.820312C19.5177 0.369141 19.1485 0 18.6974 0C18.2462 0 17.8771 0.369141 17.8771 0.820312V4.30664L15.2931 2.05078C14.9649 1.76367 14.4317 1.80469 14.1446 2.13281C13.8575 2.46094 13.8985 2.99414 14.2267 3.28125L17.8771 6.48047V10.0078L15.2931 7.75195Z"/> <path d="M12.4219 23.666L10.6582 24.6914L6.06446 23.0918C5.61329 22.9688 5.16212 23.1738 4.99806 23.625C4.87501 24.0762 5.08009 24.5274 5.53126 24.6914L8.73048 25.7168L5.69532 27.4805L1.10157 25.9219C0.650402 25.7988 0.19923 26.0039 0.0351676 26.4551C-0.0878793 26.8652 0.117199 27.3164 0.568371 27.4805L3.8086 28.5879L0.773449 30.3516C0.404308 30.5567 0.240246 31.0488 0.48634 31.459C0.691418 31.8281 1.18361 31.9922 1.59376 31.7461L4.62892 30.0234L3.97267 33.3867C3.89064 33.8379 4.17775 34.2891 4.62892 34.3711C5.08009 34.4531 5.53126 34.166 5.61329 33.7149L6.51564 28.916L9.55079 27.1524L8.89454 30.5156C8.81251 30.9668 9.09962 31.418 9.55079 31.5C10.002 31.582 10.4531 31.2949 10.5352 30.8438L11.4785 26.0859L13.2422 25.0606C13.6113 24.8555 13.7754 24.3633 13.5293 23.9531C13.3242 23.584 12.832 23.4199 12.4219 23.666Z"/> <path d="M36.826 14.5196L33.5858 13.4122L36.6209 11.6485C36.9901 11.4434 37.1541 10.9512 36.908 10.5411C36.703 10.1719 36.2108 10.0079 35.8006 10.254L32.7655 11.9766L33.4217 8.61333C33.5037 8.16216 33.2166 7.71099 32.7655 7.62896C32.3143 7.54693 31.8631 7.83404 31.7811 8.28521L30.8787 13.084L27.8436 14.8477L28.4998 11.4844C28.5819 11.0333 28.2948 10.5821 27.8436 10.5001C27.3924 10.418 26.9412 10.7051 26.8592 11.1563L25.9158 15.9141L24.1522 16.9395C23.783 17.1446 23.619 17.6368 23.8651 18.0469C24.0701 18.4161 24.5623 18.5801 24.9725 18.334L26.7362 17.3086L31.3709 18.9083C31.7811 19.0313 32.2323 18.8262 32.3963 18.3751C32.5194 17.9239 32.3143 17.4727 31.8631 17.3086L28.6639 16.3243L31.699 14.5606L36.2928 16.1192C36.744 16.2422 37.1951 16.0372 37.3592 15.586C37.4823 15.1348 37.2772 14.6836 36.826 14.5196Z"/> <path d="M36.2112 26.086L31.6175 27.6446L28.5823 25.881L31.8226 24.7735C32.2737 24.6095 32.5198 24.1583 32.3558 23.7071C32.2327 23.256 31.7815 23.0099 31.3304 23.1739L26.7366 24.7325L24.9729 23.7071C24.6038 23.461 24.1116 23.5841 23.8655 23.9942C23.6194 24.3634 23.7425 24.8556 24.1526 25.1017L25.8753 26.127L26.8187 30.8849C26.9417 31.336 27.3519 31.6231 27.803 31.5411C28.2542 31.4181 28.5413 31.0079 28.4593 30.5567L27.721 27.3575L30.7561 29.1212L31.6995 33.879C31.8226 34.3302 32.2327 34.6173 32.6839 34.5352C33.1351 34.4122 33.4222 34.002 33.3401 33.5509L32.6839 30.1876L35.719 31.9103C36.0882 32.1563 36.5804 32.0333 36.8265 31.6231C37.0726 31.254 36.9495 30.7618 36.5394 30.5157L33.5042 28.752L36.7444 27.6446C37.1956 27.5216 37.4417 27.0704 37.2776 26.6192C37.1136 26.1681 36.6624 25.922 36.2112 26.086Z"/> <path d="M22.1017 34.248C22.4298 34.5352 22.963 34.4941 23.2501 34.166C23.5372 33.8379 23.4962 33.3047 23.1681 33.0176L19.5177 29.8184V27.8086C19.5177 27.3574 19.1485 26.9883 18.6974 26.9883C18.2462 26.9883 17.8771 27.3574 17.8771 27.8086V29.8184L14.2267 33.0176C13.8985 33.3047 13.8575 33.8379 14.1446 34.166C14.4317 34.4941 14.9649 34.5352 15.2931 34.248L17.8771 31.9922V35.5195L14.2267 38.7187C13.8985 39.0059 13.8575 39.5391 14.1446 39.8672C14.4317 40.1953 14.9649 40.2363 15.2931 39.9492L17.8771 37.6934V41.1797C17.8771 41.6309 18.2462 42 18.6974 42C19.1485 42 19.5177 41.6309 19.5177 41.1797V37.6934L22.1017 39.9492C22.4298 40.2363 22.963 40.1953 23.2501 39.8672C23.5372 39.5391 23.4962 39.0059 23.1681 38.7187L19.5177 35.5195V31.9922L22.1017 34.248Z"/> </symbol> <symbol id="icon-down" viewBox="0 0 16 9"> <path d="M15.8914 0.818182C15.9638 0.924901 16 1.03162 16 1.13834C16 1.28063 15.9638 1.35178 15.8914 1.42292L8.32579 8.89328C8.21719 8.96443 8.1086 9 8 9C7.8552 9 7.78281 8.96443 7.71041 8.89328L0.108597 1.42292C0.0361991 1.35178 0 1.28063 0 1.13834C0 1.03162 0.0361991 0.924901 0.108597 0.818182L0.832579 0.106719C0.904977 0.0355731 0.977376 0 1.12217 0C1.23077 0 1.33937 0.0355731 1.44796 0.106719L8 6.54545L14.552 0.106719C14.6244 0.0355731 14.733 0 14.8778 0C14.9864 0 15.095 0.0355731 15.1674 0.106719L15.8914 0.818182Z"/> </symbol> <symbol id="reit-icon" viewBox="0 0 10 10"> <path d="M9.00099 6.25773C9.18555 6.74047 9.17325 7.26236 8.96408 7.7451C8.76793 8.19779 8.13818 8.83731 7.73368 9.03676C6.98314 9.46731 6.02343 9.71521 5.02681 9.71521C4.54695 9.71521 4.0671 9.66302 3.58724 9.54559H3.56264L3.26734 9.46731C0.995157 8.77664 0.885429 7.63999 0.880371 6.97532C0.880371 6.59696 0.991107 6.20554 1.21258 5.85327C1.36023 5.61843 1.66782 5.55319 1.8893 5.70975C2.11077 5.86632 2.17229 6.1925 2.02464 6.42734C1.84008 6.71438 1.80317 7.00141 1.9139 7.28845C2.12307 7.84947 2.8367 8.33222 3.7718 8.56706H3.79641C5.44514 8.97152 7.36456 8.48878 7.97976 7.51025C8.16432 7.23626 8.20123 6.94923 8.0905 6.66219C7.88133 6.10117 7.1677 5.61843 6.2326 5.38358L4.15323 4.87474C3.07048 4.60075 2.28302 4.01364 2.00003 3.25691C1.80317 2.73502 1.86469 2.18705 2.17229 1.69126C2.88592 0.556162 4.80534 0.00818554 6.52789 0.425692C7.54912 0.673586 8.63187 1.36508 8.63187 2.57846C8.63187 2.86549 8.4104 3.10034 8.13971 3.10034C7.86902 3.10034 7.64755 2.86549 7.64755 2.57846C7.64755 1.96525 6.92162 1.58688 6.30642 1.43032C4.85455 1.07804 3.41499 1.57383 2.98435 2.25228C2.86131 2.46103 2.8367 2.65674 2.91053 2.86549C3.04587 3.19167 3.48881 3.62222 4.3747 3.84402L6.45407 4.35286C7.73368 4.66599 8.66878 5.35748 9.00099 6.25773Z"/> </symbol> <symbol id="rss-icon" viewBox="0 0 16 16"> <path d="M2.8125 11.8125C2.49609 11.8125 2.21484 11.9531 2.00391 12.1641C1.79297 12.375 1.6875 12.6562 1.6875 12.9375C1.6875 13.2539 1.79297 13.5352 2.00391 13.7461C2.21484 13.957 2.49609 14.0625 2.8125 14.0625C3.09375 14.0625 3.375 13.957 3.58594 13.7461C3.79688 13.5352 3.9375 13.2539 3.9375 12.9375C3.9375 12.6562 3.79688 12.375 3.58594 12.1641C3.375 11.9531 3.09375 11.8125 2.8125 11.8125ZM2.8125 10.125C3.58594 10.125 4.21875 10.4062 4.78125 10.9688C5.34375 11.5312 5.625 12.1641 5.625 12.9375C5.625 13.7109 5.34375 14.3789 4.78125 14.9414C4.21875 15.5039 3.58594 15.75 2.8125 15.75C2.03906 15.75 1.37109 15.5039 0.808594 14.9414C0.246094 14.3789 0 13.7109 0 12.9375C0 12.1641 0.246094 11.5312 0.808594 10.9688C1.37109 10.4062 2.03906 10.125 2.8125 10.125ZM15.75 15.3281C15.75 15.4688 15.6797 15.5742 15.6094 15.6445C15.5391 15.7148 15.4336 15.75 15.3281 15.75H14.4844C14.3438 15.75 14.2383 15.7148 14.168 15.6445C14.0977 15.5742 14.0625 15.4688 14.0625 15.3281C13.9922 12.9023 13.3242 10.6523 12.0938 8.54297C10.8633 6.50391 9.24609 4.88672 7.20703 3.65625C5.09766 2.42578 2.84766 1.75781 0.421875 1.6875C0.28125 1.6875 0.175781 1.65234 0.105469 1.58203C0.0351562 1.51172 0 1.40625 0 1.26562V0.421875C0 0.316406 0.0351562 0.210938 0.105469 0.140625C0.175781 0.0703125 0.28125 0 0.421875 0C3.16406 0.0703125 5.69531 0.808594 8.05078 2.21484C10.3359 3.58594 12.1641 5.41406 13.5352 7.66406C14.9414 10.0547 15.6797 12.5859 15.75 15.3281ZM10.9688 15.3281C10.9688 15.4688 10.8984 15.5742 10.8281 15.6445C10.7578 15.7148 10.6523 15.75 10.5469 15.75H9.70312C9.5625 15.75 9.45703 15.7148 9.38672 15.6445C9.31641 15.5742 9.28125 15.4688 9.28125 15.3633C9.21094 13.7812 8.75391 12.3398 7.94531 11.0039C7.13672 9.66797 6.08203 8.61328 4.74609 7.80469C3.41016 6.99609 1.96875 6.53906 0.386719 6.46875C0.28125 6.46875 0.175781 6.43359 0.105469 6.36328C0.0351562 6.29297 0 6.1875 0 6.04688V5.20312C0 5.09766 0.0351562 4.99219 0.105469 4.92188C0.175781 4.85156 0.28125 4.78125 0.421875 4.78125C2.28516 4.85156 4.00781 5.37891 5.58984 6.32812C7.17188 7.3125 8.4375 8.57812 9.42188 10.125C10.3711 11.707 10.8984 13.4297 10.9688 15.3281Z"/> </symbol> <symbol id="search-icon" viewBox="0 0 20 21"> <path d="M19.8828 18.8203C19.9609 18.8984 20 19.0156 20 19.1328C20 19.2891 19.9609 19.4062 19.8828 19.4844L18.9844 20.3438C18.8672 20.4609 18.75 20.5 18.6328 20.5C18.4766 20.5 18.3984 20.4609 18.3203 20.3438L13.5547 15.6172C13.4766 15.5391 13.4375 15.4219 13.4375 15.3047V14.7578C12.6953 15.3828 11.875 15.8906 10.9766 16.2422C10.0391 16.5938 9.10156 16.75 8.125 16.75C6.64062 16.75 5.27344 16.3984 4.02344 15.6562C2.77344 14.9531 1.79688 13.9766 1.09375 12.7266C0.351562 11.4766 0 10.1094 0 8.625C0 7.14062 0.351562 5.8125 1.09375 4.5625C1.79688 3.3125 2.77344 2.33594 4.02344 1.59375C5.27344 0.890625 6.64062 0.5 8.125 0.5C9.60938 0.5 10.9375 0.890625 12.1875 1.59375C13.4375 2.33594 14.4141 3.3125 15.1562 4.5625C15.8594 5.8125 16.25 7.14062 16.25 8.625C16.25 9.64062 16.0547 10.5781 15.7031 11.4766C15.3516 12.4141 14.8828 13.2344 14.2578 13.9375H14.8047C14.9219 13.9375 15.0391 13.9766 15.1172 14.0547L19.8828 18.8203ZM8.125 14.875C9.21875 14.875 10.2734 14.6016 11.25 14.0547C12.1875 13.5078 12.9688 12.7266 13.5156 11.75C14.0625 10.8125 14.375 9.75781 14.375 8.625C14.375 7.53125 14.0625 6.47656 13.5156 5.5C12.9688 4.5625 12.1875 3.78125 11.25 3.23438C10.2734 2.6875 9.21875 2.375 8.125 2.375C6.99219 2.375 5.9375 2.6875 5 3.23438C4.02344 3.78125 3.24219 4.5625 2.69531 5.5C2.14844 6.47656 1.875 7.53125 1.875 8.625C1.875 9.75781 2.14844 10.8125 2.69531 11.75C3.24219 12.7266 4.02344 13.5078 5 14.0547C5.9375 14.6016 6.99219 14.875 8.125 14.875Z"/> </symbol> <symbol id="shield-icon" viewBox="0 0 32 38"> <g filter="url(#filter0_d)"> <path d="M27.6946 9.07418L16.1109 3.06611C15.939 2.97683 15.7331 2.97808 15.5625 3.06924L4.29929 9.07731C4.11457 9.17598 4 9.36456 4 9.56973V17.4178C4.00676 23.8691 7.93355 29.7055 14.0062 32.2901L15.5696 32.9533C15.7157 33.0153 15.8821 33.0156 16.0285 32.9539L17.7901 32.2134C23.9754 29.6849 27.9994 23.7921 28 17.2621V9.56973C28 9.36236 27.8825 9.1716 27.6946 9.07418ZM21.6548 15.7075L14.56 21.3256C14.3174 21.5179 13.9611 21.4866 13.7578 21.2548L10.7115 17.7824C10.5045 17.5466 10.5332 17.1923 10.7755 16.9909C11.0178 16.7898 11.3818 16.8176 11.5887 17.0532L14.2691 20.1086L20.9265 14.8367C21.1737 14.6409 21.537 14.6772 21.7378 14.9178C21.9389 15.1584 21.9016 15.512 21.6544 15.7075H21.6548Z"/> </g> <rect x="9" y="12" width="15" height="12"/> <path d="M27.6946 9.07418L16.1109 3.06611C15.939 2.97683 15.7331 2.97808 15.5625 3.06924L4.29929 9.07731C4.11457 9.17598 4 9.36456 4 9.56973V17.4178C4.00676 23.8691 7.93355 29.7055 14.0062 32.2901L15.5696 32.9533C15.7157 33.0153 15.8821 33.0156 16.0285 32.9539L17.7901 32.2134C23.9754 29.6849 27.9994 23.7921 28 17.2621V9.56973C28 9.36236 27.8825 9.1716 27.6946 9.07418ZM21.6548 15.7075L14.56 21.3256C14.3174 21.5179 13.9611 21.4866 13.7578 21.2548L10.7115 17.7824C10.5045 17.5466 10.5332 17.1923 10.7755 16.9909C11.0178 16.7898 11.3818 16.8176 11.5887 17.0532L14.2691 20.1086L20.9265 14.8367C21.1737 14.6409 21.537 14.6772 21.7378 14.9178C21.9389 15.1584 21.9016 15.512 21.6544 15.7075H21.6548Z"/> </symbol> <symbol id="tg-icon" viewBox="0 0 18 15"> <path d="M17.4658 1.35305C17.5439 0.806178 17.5049 0.454616 17.2705 0.220241C17.0361 -0.0141344 16.7236 -0.0531969 16.333 0.0639906L0.825173 6.04055C0.278298 6.27493 0.00486044 6.5093 0.00486044 6.74368C-0.0342021 7.01712 0.16111 7.21243 0.62986 7.32962L4.61424 8.57962L13.833 2.7593C13.9502 2.68118 14.0674 2.64212 14.1845 2.64212C14.3017 2.64212 14.3799 2.64212 14.4189 2.72024C14.458 2.79837 14.4189 2.83743 14.3408 2.91555L6.87986 9.67337L6.56736 13.7749C6.76267 13.7749 6.91892 13.7359 7.07517 13.6577C7.1533 13.6187 7.23142 13.5406 7.38767 13.3843L9.3408 11.5093L13.3642 14.4781C13.7158 14.7124 14.0283 14.7515 14.2627 14.6343C14.497 14.5171 14.6924 14.2437 14.8095 13.7749L17.4658 1.35305Z"/> </symbol> <symbol id="up-arrow" viewBox="0 0 14 14"> <path d="M0.0950226 7.1875C0.0316742 7.125 0 7.03125 0 6.90625C0 6.8125 0.0316742 6.71875 0.0950226 6.65625L6.74661 0.125C6.80995 0.0625 6.8733 0 7 0C7.09502 0 7.19005 0.0625 7.25339 0.125L13.905 6.65625C13.9683 6.71875 14 6.8125 14 6.90625C14 7.03125 13.9683 7.125 13.905 7.1875L13.2715 7.8125C13.2081 7.875 13.1131 7.90625 13.0181 7.90625C12.8914 7.90625 12.7964 7.875 12.733 7.8125L7.82353 2.96875V13.625C7.82353 13.75 7.76018 13.8438 7.69683 13.9062C7.63348 13.9688 7.53846 14 7.44344 14H6.55656C6.42986 14 6.33484 13.9688 6.27149 13.9062C6.20814 13.8438 6.17647 13.75 6.17647 13.625V2.96875L1.26697 7.8125C1.17195 7.875 1.07692 7.90625 0.9819 7.90625C0.855204 7.90625 0.791855 7.875 0.728507 7.8125L0.0950226 7.1875Z"/> </symbol> <symbol id="youtube-icon" viewBox="0 0 20 14"> <path d="M18.8086 2.10938C18.9492 2.74219 19.0898 3.72656 19.1602 4.99219L19.1953 6.75L19.1602 8.50781C19.0898 9.84375 18.9492 10.793 18.8086 11.4258C18.668 11.8477 18.457 12.1992 18.1758 12.4805C17.8594 12.7969 17.5078 13.0078 17.0859 13.1133C16.4531 13.2891 15.0469 13.3945 12.7969 13.4648L9.59766 13.5L6.39844 13.4648C4.14844 13.3945 2.70703 13.2891 2.10938 13.1133C1.6875 13.0078 1.30078 12.7969 1.01953 12.4805C0.703125 12.1992 0.492188 11.8477 0.386719 11.4258C0.210938 10.793 0.105469 9.84375 0.0351562 8.50781L0 6.75C0 6.25781 0 5.66016 0.0351562 4.99219C0.105469 3.72656 0.210938 2.74219 0.386719 2.10938C0.492188 1.6875 0.703125 1.33594 1.01953 1.01953C1.30078 0.738281 1.6875 0.527344 2.10938 0.386719C2.70703 0.246094 4.14844 0.105469 6.39844 0.0351562L9.59766 0L12.7969 0.0351562C15.0469 0.105469 16.4531 0.246094 17.0859 0.386719C17.5078 0.527344 17.8594 0.738281 18.1758 1.01953C18.457 1.33594 18.668 1.6875 18.8086 2.10938ZM7.62891 9.63281L12.6562 6.75L7.62891 3.90234V9.63281Z"/> </symbol> </symbol> <symbol id="tg-icon" viewBox="0 0 18 15"> <path d="M17.4658 1.35305C17.5439 0.806178 17.5049 0.454616 17.2705 0.220241C17.0361 -0.0141344 16.7236 -0.0531969 16.333 0.0639906L0.825173 6.04055C0.278298 6.27493 0.00486044 6.5093 0.00486044 6.74368C-0.0342021 7.01712 0.16111 7.21243 0.62986 7.32962L4.61424 8.57962L13.833 2.7593C13.9502 2.68118 14.0674 2.64212 14.1845 2.64212C14.3017 2.64212 14.3799 2.64212 14.4189 2.72024C14.458 2.79837 14.4189 2.83743 14.3408 2.91555L6.87986 9.67337L6.56736 13.7749C6.76267 13.7749 6.91892 13.7359 7.07517 13.6577C7.1533 13.6187 7.23142 13.5406 7.38767 13.3843L9.3408 11.5093L13.3642 14.4781C13.7158 14.7124 14.0283 14.7515 14.2627 14.6343C14.497 14.5171 14.6924 14.2437 14.8095 13.7749L17.4658 1.35305Z"/> </symbol> <symbol id="up-arrow" viewBox="0 0 14 14"> <path d="M0.0950226 7.1875C0.0316742 7.125 0 7.03125 0 6.90625C0 6.8125 0.0316742 6.71875 0.0950226 6.65625L6.74661 0.125C6.80995 0.0625 6.8733 0 7 0C7.09502 0 7.19005 0.0625 7.25339 0.125L13.905 6.65625C13.9683 6.71875 14 6.8125 14 6.90625C14 7.03125 13.9683 7.125 13.905 7.1875L13.2715 7.8125C13.2081 7.875 13.1131 7.90625 13.0181 7.90625C12.8914 7.90625 12.7964 7.875 12.733 7.8125L7.82353 2.96875V13.625C7.82353 13.75 7.76018 13.8438 7.69683 13.9062C7.63348 13.9688 7.53846 14 7.44344 14H6.55656C6.42986 14 6.33484 13.9688 6.27149 13.9062C6.20814 13.8438 6.17647 13.75 6.17647 13.625V2.96875L1.26697 7.8125C1.17195 7.875 1.07692 7.90625 0.9819 7.90625C0.855204 7.90625 0.791855 7.875 0.728507 7.8125L0.0950226 7.1875Z"/> </symbol> <symbol id="youtube-icon" viewBox="0 0 20 14"> <path d="M18.8086 2.10938C18.9492 2.74219 19.0898 3.72656 19.1602 4.99219L19.1953 6.75L19.1602 8.50781C19.0898 9.84375 18.9492 10.793 18.8086 11.4258C18.668 11.8477 18.457 12.1992 18.1758 12.4805C17.8594 12.7969 17.5078 13.0078 17.0859 13.1133C16.4531 13.2891 15.0469 13.3945 12.7969 13.4648L9.59766 13.5L6.39844 13.4648C4.14844 13.3945 2.70703 13.2891 2.10938 13.1133C1.6875 13.0078 1.30078 12.7969 1.01953 12.4805C0.703125 12.1992 0.492188 11.8477 0.386719 11.4258C0.210938 10.793 0.105469 9.84375 0.0351562 8.50781L0 6.75C0 6.25781 0 5.66016 0.0351562 4.99219C0.105469 3.72656 0.210938 2.74219 0.386719 2.10938C0.492188 1.6875 0.703125 1.33594 1.01953 1.01953C1.30078 0.738281 1.6875 0.527344 2.10938 0.386719C2.70703 0.246094 4.14844 0.105469 6.39844 0.0351562L9.59766 0L12.7969 0.0351562C15.0469 0.105469 16.4531 0.246094 17.0859 0.386719C17.5078 0.527344 17.8594 0.738281 18.1758 1.01953C18.457 1.33594 18.668 1.6875 18.8086 2.10938ZM7.62891 9.63281L12.6562 6.75L7.62891 3.90234V9.63281Z"/> </symbol> </symbol>
<symbol id="tg-icon" viewBox="0 0 18 15"> <path d="M17.4658 1.35305C17.5439 0.806178 17.5049 0.454616 17.2705 0.220241C17.0361 -0.0141344 16.7236 -0.0531969 16.333 0.0639906L0.825173 6.04055C0.278298 6.27493 0.00486044 6.5093 0.00486044 6.74368C-0.0342021 7.01712 0.16111 7.21243 0.62986 7.32962L4.61424 8.57962L13.833 2.7593C13.9502 2.68118 14.0674 2.64212 14.1845 2.64212C14.3017 2.64212 14.3799 2.64212 14.4189 2.72024C14.458 2.79837 14.4189 2.83743 14.3408 2.91555L6.87986 9.67337L6.56736 13.7749C6.76267 13.7749 6.91892 13.7359 7.07517 13.6577C7.1533 13.6187 7.23142 13.5406 7.38767 13.3843L9.3408 11.5093L13.3642 14.4781C13.7158 14.7124 14.0283 14.7515 14.2627 14.6343C14.497 14.5171 14.6924 14.2437 14.8095 13.7749L17.4658 1.35305Z"/> </symbol>
<symbol id="up-arrow" viewBox="0 0 14 14"> <path d="M0.0950226 7.1875C0.0316742 7.125 0 7.03125 0 6.90625C0 6.8125 0.0316742 6.71875 0.0950226 6.65625L6.74661 0.125C6.80995 0.0625 6.8733 0 7 0C7.09502 0 7.19005 0.0625 7.25339 0.125L13.905 6.65625C13.9683 6.71875 14 6.8125 14 6.90625C14 7.03125 13.9683 7.125 13.905 7.1875L13.2715 7.8125C13.2081 7.875 13.1131 7.90625 13.0181 7.90625C12.8914 7.90625 12.7964 7.875 12.733 7.8125L7.82353 2.96875V13.625C7.82353 13.75 7.76018 13.8438 7.69683 13.9062C7.63348 13.9688 7.53846 14 7.44344 14H6.55656C6.42986 14 6.33484 13.9688 6.27149 13.9062C6.20814 13.8438 6.17647 13.75 6.17647 13.625V2.96875L1.26697 7.8125C1.17195 7.875 1.07692 7.90625 0.9819 7.90625C0.855204 7.90625 0.791855 7.875 0.728507 7.8125L0.0950226 7.1875Z"/> </symbol>
<symbol id="youtube-icon" viewBox="0 0 20 14"> <path d="M18.8086 2.10938C18.9492 2.74219 19.0898 3.72656 19.1602 4.99219L19.1953 6.75L19.1602 8.50781C19.0898 9.84375 18.9492 10.793 18.8086 11.4258C18.668 11.8477 18.457 12.1992 18.1758 12.4805C17.8594 12.7969 17.5078 13.0078 17.0859 13.1133C16.4531 13.2891 15.0469 13.3945 12.7969 13.4648L9.59766 13.5L6.39844 13.4648C4.14844 13.3945 2.70703 13.2891 2.10938 13.1133C1.6875 13.0078 1.30078 12.7969 1.01953 12.4805C0.703125 12.1992 0.492188 11.8477 0.386719 11.4258C0.210938 10.793 0.105469 9.84375 0.0351562 8.50781L0 6.75C0 6.25781 0 5.66016 0.0351562 4.99219C0.105469 3.72656 0.210938 2.74219 0.386719 2.10938C0.492188 1.6875 0.703125 1.33594 1.01953 1.01953C1.30078 0.738281 1.6875 0.527344 2.10938 0.386719C2.70703 0.246094 4.14844 0.105469 6.39844 0.0351562L9.59766 0L12.7969 0.0351562C15.0469 0.105469 16.4531 0.246094 17.0859 0.386719C17.5078 0.527344 17.8594 0.738281 18.1758 1.01953C18.457 1.33594 18.668 1.6875 18.8086 2.10938ZM7.62891 9.63281L12.6562 6.75L7.62891 3.90234V9.63281Z"/> </symbol>
</svg>