<svg width="18" height="15" viewBox="0 0 18 15" fill="none" xmlns="http://www.w3.org/2000/svg">
<path d="M17.4658 1.35305C17.5439 0.806178 17.5049 0.454616 17.2705 0.220241C17.0361 -0.0141344 16.7236 -0.0531969 16.333 0.0639906L0.825173 6.04055C0.278298 6.27493 0.00486044 6.5093 0.00486044 6.74368C-0.0342021 7.01712 0.16111 7.21243 0.62986 7.32962L4.61424 8.57962L13.833 2.7593C13.9502 2.68118 14.0674 2.64212 14.1845 2.64212C14.3017 2.64212 14.3799 2.64212 14.4189 2.72024C14.458 2.79837 14.4189 2.83743 14.3408 2.91555L6.87986 9.67337L6.56736 13.7749C6.76267 13.7749 6.91892 13.7359 7.07517 13.6577C7.1533 13.6187 7.23142 13.5406 7.38767 13.3843L9.3408 11.5093L13.3642 14.4781C13.7158 14.7124 14.0283 14.7515 14.2627 14.6343C14.497 14.5171 14.6924 14.2437 14.8095 13.7749L17.4658 1.35305Z" fill="white"/>
</svg>
