<svg width="14" height="14" viewBox="0 0 14 14" fill="none" xmlns="http://www.w3.org/2000/svg">
<path d="M0.0950226 7.1875C0.0316742 7.125 0 7.03125 0 6.90625C0 6.8125 0.0316742 6.71875 0.0950226 6.65625L6.74661 0.125C6.80995 0.0625 6.8733 0 7 0C7.09502 0 7.19005 0.0625 7.25339 0.125L13.905 6.65625C13.9683 6.71875 14 6.8125 14 6.90625C14 7.03125 13.9683 7.125 13.905 7.1875L13.2715 7.8125C13.2081 7.875 13.1131 7.90625 13.0181 7.90625C12.8914 7.90625 12.7964 7.875 12.733 7.8125L7.82353 2.96875V13.625C7.82353 13.75 7.76018 13.8438 7.69683 13.9062C7.63348 13.9688 7.53846 14 7.44344 14H6.55656C6.42986 14 6.33484 13.9688 6.27149 13.9062C6.20814 13.8438 6.17647 13.75 6.17647 13.625V2.96875L1.26697 7.8125C1.17195 7.875 1.07692 7.90625 0.9819 7.90625C0.855204 7.90625 0.791855 7.875 0.728507 7.8125L0.0950226 7.1875Z" fill="white"/>
</svg>
