<svg xmlns="http://www.w3.org/2000/svg" width="106" height="106" fill="none" viewBox="0 0 106 106"><path fill="#00A984" d="M36.354 42.367a2.508 2.508 0 0 0-.924 4.83l5.4 2.167-2.164-5.428a2.48 2.48 0 0 0-2.312-1.57z"/><path fill="#00D6A8" d="M28.375 39.073V50.05h8.261l-2.023-.812a4.697 4.697 0 1 1 6.093-6.111l.841 2.11V35.78h-9.879a3.293 3.293 0 0 0-3.293 3.293z"/><path fill="#00A984" d="M41.663 27.285a2.907 2.907 0 0 0-3.884 1.381l-2.342 4.92h19.354l-13.128-6.3z"/><path fill="#00D6A8" d="M32.766 55.28a10.909 10.909 0 0 0 7.562-3.034H28.375v10.976a3.293 3.293 0 0 0 3.293 3.293h9.88V54.101a13.077 13.077 0 0 1-8.782 3.375v-2.195z"/><path fill="#00A984" d="M51.731 44.872a2.49 2.49 0 0 0-4.804-.931l-2.161 5.427 5.398-2.172c.95-.38 1.57-1.3 1.567-2.324z"/><path fill="#00D6A8" d="M52.829 55.28v2.196a13.083 13.083 0 0 1-9.087-3.654v12.693h32.846a3.293 3.293 0 0 0 3.294-3.293V52.246H45.267a10.906 10.906 0 0 0 7.562 3.035zm20.044 4.65h2.196v2.195h-2.196v-2.196zm-4.39 0h2.195v2.195h-2.195v-2.196zm-4.391 0h2.195v2.195h-2.195v-2.196zm-4.391 0h2.195v2.195h-2.195v-2.196z"/><path fill="#00A984" d="M68.62 76.108a2.906 2.906 0 0 0 3.884-1.38l2.866-6.017H53.207l15.413 7.397z"/><path fill="#00D6A8" d="M76.588 35.78H43.742v10.224l1.146-2.877a4.69 4.69 0 1 1 6.099 6.11l-2.029.813h30.924V39.073a3.293 3.293 0 0 0-3.294-3.293zm-14.692 7.684h-2.195v-4.39h2.195v4.39zm4.391 0h-2.195v-4.39h2.195v4.39zm4.39 0h-2.195v-4.39h2.196v4.39zm4.392 0h-2.196v-4.39h2.196v4.39z"/><circle cx="53" cy="53" r="52" stroke="url(#a)" stroke-width="2"/><defs><linearGradient id="a" x1="53" x2="53" y2="106" gradientUnits="userSpaceOnUse"><stop stop-color="#00D6A8"/><stop offset="1" stop-color="#00A984"/></linearGradient></defs></svg>