<svg xmlns="http://www.w3.org/2000/svg" width="106" height="106" fill="none" viewBox="0 0 106 106"><path fill="#319AC7" d="M61.972 70.943a2.716 2.716 0 0 1-2.185-1.069c-.174.021-.35.024-.525.01V80l2.173-1.63a.905.905 0 0 1 1.087 0L64.696 80V69.885a2.69 2.69 0 0 1-.544-.01 2.717 2.717 0 0 1-2.18 1.068zM26.64 72.755c0 1.5 1.217 2.717 2.718 2.717h28.097v-3.623H26.64v.906zm39.224-9.039a.905.905 0 0 1-.514-1.242.942.942 0 0 0-1.25-1.258.906.906 0 0 1-1.244-.514.938.938 0 0 0-1.77 0 .906.906 0 0 1-1.243.514.941.941 0 0 0-1.25 1.258.906.906 0 0 1-.513 1.242.943.943 0 0 0 0 1.775.905.905 0 0 1 .514 1.243.94.94 0 0 0 1.25 1.257.907.907 0 0 1 1.243.514.938.938 0 0 0 1.77 0 .907.907 0 0 1 1.243-.514.942.942 0 0 0 1.25-1.257.904.904 0 0 1 .514-1.243.943.943 0 0 0 0-1.775z"/><path fill="#00CCDF" d="M33.885 34.717v35.32h23.569v-1.005a2.722 2.722 0 0 1-.746-2.245 2.766 2.766 0 0 1 0-4.366 2.762 2.762 0 0 1 3.079-3.088 2.759 2.759 0 0 1 4.361 0 2.762 2.762 0 0 1 3.08 3.088 2.766 2.766 0 0 1 0 4.366 2.716 2.716 0 0 1-.725 2.218v6.3c.285.106.587.162.891.167 1.5 0 2.717-1.217 2.717-2.717V34.717c.002-.282.03-.563.085-.84.017-.087.043-.168.064-.252a4.57 4.57 0 0 1 .168-.544 4.514 4.514 0 0 1 .375-.742c.047-.076.09-.153.144-.226.026-.037.045-.078.072-.113H36.602a2.717 2.717 0 0 0-2.717 2.717zm31.698 19.019H50.187v-1.811h15.396v1.81zm0-4.528h-20.83v-1.812h20.83v1.812zM54.715 37.434h3.623v1.811h-3.623v-1.811zm-9.057 0h7.246v1.811h-7.246v-1.811zm-2.717 4.528h18.114v1.812H42.94v-1.812zm-4.528 5.434h4.528v1.812h-4.528v-1.812zm0 4.529h9.962v1.81h-9.962v-1.81zm0 4.528h18.113v1.811H38.413v-1.811zm0 4.528H53.81v1.811H38.413v-1.81z"/><path fill="#319AC7" d="M74.64 32a2.717 2.717 0 0 0-2.716 2.717v.906h5.434v-.906c0-1.5-1.217-2.717-2.717-2.717z"/><circle cx="53" cy="53" r="52" stroke="url(#a)" stroke-width="2"/><defs><linearGradient id="a" x1="53" x2="53" y2="106" gradientUnits="userSpaceOnUse"><stop stop-color="#00CCDF"/><stop offset="1" stop-color="#319AC7"/></linearGradient></defs></svg>