<svg xmlns="http://www.w3.org/2000/svg" width="106" height="106" fill="none" viewBox="0 0 106 106"><g clip-path="url(#a)"><path fill="#00A984" d="M52.5 50.583c6.582 0 11.917-5.335 11.917-11.916 0-6.582-5.335-11.917-11.916-11.917-6.582 0-11.917 5.335-11.917 11.917.008 6.578 5.338 11.909 11.917 11.916zM47.918 35a4.591 4.591 0 0 1 3.667-4.492v-1.925h1.833v1.925A4.591 4.591 0 0 1 57.084 35h-1.833a2.75 2.75 0 0 0-1.834-2.581v5.423a4.583 4.583 0 0 1 0 8.983v1.925h-1.833v-1.925a4.591 4.591 0 0 1-3.667-4.492h1.834a2.75 2.75 0 0 0 1.833 2.582v-5.423A4.591 4.591 0 0 1 47.917 35z"/><path fill="#00A984" d="M55.25 42.333a2.75 2.75 0 0 0-1.834-2.58v5.162a2.75 2.75 0 0 0 1.833-2.582zm-3.668-9.914a2.734 2.734 0 0 0 0 5.162V32.42z"/><path fill="#00D6A8" d="M59.33 50.583h18.837V46a.917.917 0 0 0-.917-.917h-12.6a13.834 13.834 0 0 1-5.32 5.5z"/><path fill="#00A984" d="M65.334 59.75v3.667c0 .506.41.916.917.916h11.916v-5.5H66.251a.917.917 0 0 0-.917.917zm1.833.917h1.834V62.5h-1.834v-1.833z"/><path fill="#00D6A8" d="M27.75 78.083h49.5c.507 0 .917-.41.917-.916v-11H66.251a2.75 2.75 0 0 1-2.75-2.75V59.75A2.75 2.75 0 0 1 66.25 57h11.916v-4.583H33.251v-1.834h12.42a13.837 13.837 0 0 1-5.317-5.5H27.75a.917.917 0 0 0-.917.917v31.167c0 .506.41.916.917.916z"/><path fill="#00A984" d="M25 26.75h1.833v1.833H25V26.75zm1.834-1.833h1.833v1.833h-1.833v-1.833zm0 3.666h1.833v1.834h-1.833v-1.834zm1.832-1.833h1.833v1.833h-1.833V26.75zm1.834 7.333h1.833v1.834H30.5v-1.834zm1.834-1.833h1.833v1.833h-1.833V32.25zm0 3.667h1.833v1.833h-1.833v-1.833zm1.832-1.834h1.833v1.834h-1.833v-1.834zm44-7.333h1.833v1.833h-1.833V26.75zm-1.832-1.833h1.833v1.833h-1.833v-1.833zm0 3.666h1.833v1.834h-1.833v-1.834zM74.5 26.75h1.833v1.833H74.5V26.75zm-1.834 7.333h1.833v1.834h-1.833v-1.834zm-1.832-1.833h1.833v1.833h-1.833V32.25zm0 3.667h1.833v1.833h-1.833v-1.833zM69 34.083h1.833v1.834H69v-1.834z"/></g><circle cx="53" cy="53" r="52" stroke="url(#b)" stroke-width="2"/><defs><linearGradient id="b" x1="53" x2="53" y2="106" gradientUnits="userSpaceOnUse"><stop stop-color="#00D6A8"/><stop offset="1" stop-color="#00A984"/></linearGradient><clipPath id="a"><path fill="#fff" d="M0 0h55v55H0z" transform="translate(25 24)"/></clipPath></defs></svg>