<svg xmlns="http://www.w3.org/2000/svg" width="124" height="111" fill="none" viewBox="0 0 124 111"><circle cx="71" cy="58" r="53" fill="#fff"/><circle cx="71" cy="58" r="53" stroke="url(#a)"/><g opacity=".4"><mask id="b" fill="#fff"><path d="M70.35 76.724l-8.746 1.25 1.249-8.745 18.742-18.743 2.5-2.49 1.245-1.255a5.29 5.29 0 0 1 2.297-1.352 5 5 0 0 1 .883-.167V33.65a1.772 1.772 0 0 0-1.767-1.767H59.37v8.834c0 .975-.791 1.766-1.767 1.766h-9.716V81.35a1.772 1.772 0 0 0 1.766 1.767h37.1a1.772 1.772 0 0 0 1.767-1.767V58.551l-18.17 18.17"/></mask><path fill="#00B6C3" d="M70.35 76.724l-8.746 1.25 1.249-8.745 18.742-18.743 2.5-2.49 1.245-1.255a5.29 5.29 0 0 1 2.297-1.352 5 5 0 0 1 .883-.167V33.65a1.772 1.772 0 0 0-1.767-1.767H59.37v8.834c0 .975-.791 1.766-1.767 1.766h-9.716V81.35a1.772 1.772 0 0 0 1.766 1.767h37.1a1.772 1.772 0 0 0 1.767-1.767V58.551l-18.17 18.17"/><path fill="#00B6C3" d="M61.604 77.974l-1.98-.283-.377 2.64 2.64-.377-.283-1.98zm1.249-8.745l-1.414-1.415-.472.472-.094.66 1.98.283zm18.742-18.743l-1.412-1.416-.002.002 1.414 1.414zm2.5-2.49l1.411 1.416.008-.008-1.42-1.409zm1.245-1.255l-1.416-1.413-.004.004 1.42 1.409zm2.297-1.352l.547 1.924h.001l-.548-1.924zm.883-.167l.195 1.99 1.805-.177v-1.813h-2zm0-11.572h2v-.006l-2 .006zm-1.767-1.767l.007-2h-.007v2zm-27.383 0v-2h-2v2h2zm-11.483 10.6v-2h-2v2h2zm0 38.867h-2v.006l2-.006zm1.766 1.767l-.006 2h.006v-2zm37.1 0v2h.007l-.007-2zm1.767-1.767l2 .006v-.006h-2zm0-22.799h2v-4.828l-3.414 3.414 1.414 1.414zM70.066 74.744l-8.745 1.25.566 3.96 8.745-1.25-.566-3.96zm-6.482 3.513l1.249-8.746-3.96-.565-1.249 8.745 3.96.566zm.683-7.614L83.01 51.9l-2.828-2.829L61.44 67.813l2.828 2.829zm18.74-18.74l2.5-2.49-2.824-2.834-2.5 2.49 2.823 2.834zm2.507-2.499l1.246-1.254-2.84-2.818-1.245 1.255 2.84 2.817zm1.242-1.25a3.29 3.29 0 0 1 1.428-.84l-1.095-3.848a7.292 7.292 0 0 0-3.165 1.862l2.832 2.826zm1.429-.841c.173-.05.35-.083.53-.1l-.39-3.982c-.418.041-.832.12-1.237.235l1.097 3.847zm2.335-2.091V33.65h-4v11.572h4zm0-11.578a3.772 3.772 0 0 0-3.76-3.76l-.013 4a.228.228 0 0 1-.227-.228l4-.012zm-3.767-3.76H59.37v4h27.383v-4zm-29.383 2v8.833h4v-8.834h-4zm0 8.833c0-.13.105-.234.233-.234v4a3.767 3.767 0 0 0 3.767-3.766h-4zm.233-.234h-9.716v4h9.716v-4zm-11.716 2V81.35h4V42.483h-4zm0 38.873a3.772 3.772 0 0 0 3.76 3.76l.013-4a.229.229 0 0 1 .227.228l-4 .012zm3.766 3.76h37.1v-4h-37.1v4zm37.107 0a3.772 3.772 0 0 0 3.76-3.76l-4-.012c0-.125.102-.227.227-.227l.013 4zm3.76-3.766V58.551h-4V81.35h4zm-3.414-24.213l-18.17 18.17 2.828 2.828 18.17-18.17-2.828-2.828z" mask="url(#b)"/></g><path fill="#00B6C3" stroke="#00B6C3" d="M89.903 43.861a6.632 6.632 0 0 1 3.902 1.898 6.684 6.684 0 0 1 0 9.459L89.903 43.86zm0 0V33.65a3.15 3.15 0 0 0-3.15-3.15H59.369a.576.576 0 0 0-.132.015c-.09.009-.179.027-.266.053a1.223 1.223 0 0 0-.126.04l-.008.003-.007.003c-.146.06-.28.144-.397.249l-.005.005-11.484 10.6-.007.007c-.125.12-.225.262-.296.417l-.001.004a1.353 1.353 0 0 0-.05.131 1.355 1.355 0 0 0-.074.328.555.555 0 0 0-.016.133V81.35a3.15 3.15 0 0 0 3.15 3.15h37.103a3.15 3.15 0 0 0 3.15-3.15V59.12l3.902-3.902-3.902-11.357zm-2.767 18.026V81.35a.383.383 0 0 1-.383.383h-37.1a.383.383 0 0 1-.384-.383V43.867h8.334a3.15 3.15 0 0 0 3.15-3.15v-7.45h26c.211 0 .383.171.383.383v10.445a6.698 6.698 0 0 0-2.777 1.67L61.87 68.253l-.01.01-.01.011a1.47 1.47 0 0 0-.103.13l-.006.008a.607.607 0 0 0-.03.04 1.383 1.383 0 0 0-.212.5.523.523 0 0 0-.017.078v-.001h.004m25.649-7.142l-25.653 7.144h.003v-.002m25.65-7.142L71.33 77.693l-.009.009-.009.008a1.389 1.389 0 0 1-.121.099l-.012.01a.795.795 0 0 1-.066.048l-.006.004a1.331 1.331 0 0 1-.18.096l-.004.002-.009.004a1.022 1.022 0 0 1-.064.029l-.008.003-.009.003c-.049.017-.1.033-.154.045l-.011.005a.536.536 0 0 1-.133.032l-8.731 1.247a1.383 1.383 0 0 1-1.567-1.566l26.898-15.884zm-25.65 7.142h.001zm8.711 4.297v.001l.528 1.058 16.404-16.4-5.536-5.541-16.406 16.403 2.387 1.197L78.112 59.51a1.383 1.383 0 0 1 2.33.614L70.196 73.326zm0 0l-.664-1.33m.664 1.33l-.664-1.33m0 0l10.535-10.53c.356-.347.5-.86.373-1.342L69.533 71.997zm-8.05-2.91zm6.77 6.54l-2.894.414a1.384 1.384 0 0 0-1.821-1.822l.413-2.89 2.867 1.433 1.305 2.605.13.26zm20.403-29.028l.006-.001a3.916 3.916 0 0 1 3.19 6.663l-.265.265-5.543-5.535.267-.271.001-.001c.47-.47 1.05-.812 1.688-.996a3.64 3.64 0 0 1 .656-.124zM51.424 41.1l6.562-6.057v5.674a.383.383 0 0 1-.383.383h-6.179zm37.661 14.928l-5.533-5.54.54-.538 5.536 5.536-.543.543z"/><circle cx="26" cy="26" r="23.5" fill="#00B6C3" stroke="#FAFAFA" stroke-width="5"/><path fill="#fff" d="M29.512 21.916c0 .892-.27 1.65-.81 2.275-.541.625-1.3 1.055-2.276 1.29v.058c1.152.143 2.025.495 2.617 1.055.592.553.889 1.302.889 2.246 0 1.373-.498 2.445-1.494 3.213-.997.762-2.42 1.142-4.268 1.142-1.55 0-2.923-.257-4.121-.771v-2.569c.553.28 1.162.508 1.826.684a7.688 7.688 0 0 0 1.973.264c.996 0 1.731-.17 2.207-.508.475-.339.713-.882.713-1.63 0-.671-.274-1.147-.82-1.427-.548-.28-1.42-.42-2.618-.42h-1.084v-2.314h1.104c1.106 0 1.914-.143 2.421-.43.515-.293.772-.79.772-1.494 0-1.08-.677-1.621-2.031-1.621-.469 0-.948.078-1.436.234-.482.157-1.019.427-1.611.81l-1.397-2.08c1.302-.937 2.855-1.405 4.659-1.405 1.477 0 2.643.3 3.496.898.859.599 1.289 1.432 1.289 2.5z"/><defs><linearGradient id="a" x1="71" x2="71" y1="5" y2="111" gradientUnits="userSpaceOnUse"><stop stop-color="#00CCDF"/><stop offset="1" stop-color="#319AC7"/></linearGradient></defs></svg>