<svg xmlns="http://www.w3.org/2000/svg" width="124" height="111" fill="none" viewBox="0 0 124 111"><circle cx="71" cy="58" r="53" fill="#fff"/><circle cx="71" cy="58" r="53" stroke="url(#a)"/><g clip-path="url(#b)"><path fill="#99E2E7" d="M94 50L71.5 33 48 51v28.5h46V50z"/><path fill="#00B6C3" d="M49.434 44.489L71.458 27.88l22.025 16.608a1.72 1.72 0 0 0 2.413-.338c.572-.76.421-1.84-.339-2.413l-23.061-17.39a1.722 1.722 0 0 0-2.075 0l-23.062 17.39a1.723 1.723 0 1 0 2.075 2.75z"/><path fill="#fff" d="M83.5 68.5l-3 3L95 88l4.5-3.5-16-16z"/><circle cx="73" cy="62" r="12" fill="#fff"/><path fill="#00B6C3" d="M100.822 83.666l-4.58-4.579V50.45c0-.54-.253-1.05-.685-1.375l-23.061-17.39a1.722 1.722 0 0 0-2.075 0l-23.062 17.39a1.723 1.723 0 0 0-.685 1.375v29.28c0 .951.771 1.723 1.723 1.723h38.551l8.044 8.044c.337.336.777.504 1.218.504.441 0 .882-.168 1.218-.504l3.394-3.393a1.724 1.724 0 0 0 0-2.437zM50.119 51.308l21.34-16.091 21.338 16.091v24.334l-7.296-7.296c2.826-5.325 2-12.095-2.479-16.574a13.996 13.996 0 0 0-9.962-4.126c-3.763 0-7.3 1.465-9.962 4.126-5.492 5.493-5.492 14.431 0 19.924a13.995 13.995 0 0 0 9.963 4.126c2.345 0 4.603-.57 6.615-1.643l3.827 3.827H50.12V51.308zm22.941 21.07a10.573 10.573 0 0 1-7.525-3.118c-4.15-4.15-4.15-10.902 0-15.052a10.574 10.574 0 0 1 7.525-3.117c2.843 0 5.516 1.107 7.526 3.117 4.15 4.15 4.15 10.902 0 15.052a10.572 10.572 0 0 1-7.526 3.117zm9.472-.215a14.343 14.343 0 0 0 .957-.957l13.679 13.678-.958.957-13.678-13.678z"/><path fill="#00B6C3" d="M79.653 65.89a1.723 1.723 0 0 0-2.437 0 5.885 5.885 0 0 1-8.312 0 1.723 1.723 0 0 0-2.437 2.437 9.295 9.295 0 0 0 6.593 2.726 9.295 9.295 0 0 0 6.593-2.726 1.723 1.723 0 0 0 0-2.436z"/></g><circle cx="26" cy="26" r="23.5" fill="#00B6C3" stroke="#FAFAFA" stroke-width="5"/><path fill="#fff" d="M19.99 27.936c0-2.826.596-4.929 1.787-6.309 1.198-1.38 2.989-2.07 5.371-2.07.814 0 1.452.049 1.915.146v2.412a7.82 7.82 0 0 0-1.72-.195c-1.034 0-1.88.156-2.538.469a3.156 3.156 0 0 0-1.465 1.386c-.326.612-.518 1.482-.576 2.608h.127c.644-1.107 1.676-1.66 3.095-1.66 1.276 0 2.276.4 2.998 1.2.723.802 1.084 1.908 1.084 3.321 0 1.524-.43 2.731-1.289 3.623-.86.886-2.05 1.328-3.574 1.328-1.055 0-1.976-.244-2.764-.732-.78-.488-1.386-1.201-1.816-2.139-.423-.937-.635-2.067-.635-3.389zm5.157 3.847c.644 0 1.139-.215 1.484-.644.345-.436.517-1.055.517-1.856 0-.696-.162-1.243-.488-1.64-.319-.404-.804-.606-1.455-.606-.612 0-1.136.199-1.572.596-.43.397-.645.86-.645 1.387 0 .774.202 1.429.606 1.962.41.534.927.801 1.552.801z"/><defs><linearGradient id="a" x1="71" x2="71" y1="5" y2="111" gradientUnits="userSpaceOnUse"><stop stop-color="#00CCDF"/><stop offset="1" stop-color="#319AC7"/></linearGradient><clipPath id="b"><path fill="#fff" d="M0 0h66v66H0z" transform="translate(41 24)"/></clipPath></defs></svg>