<svg xmlns="http://www.w3.org/2000/svg" width="124" height="111" fill="none" viewBox="0 0 124 111"><circle cx="71" cy="58" r="53" fill="#fff"/><circle cx="71" cy="58" r="53" stroke="url(#a)"/><path fill="#00D6A8" d="M58.403 62.081l3.063 3.064 2.44 2.44 3.065 3.063-11.016 11.016a5.193 5.193 0 0 1-7.344 0l-1.224-1.224a5.192 5.192 0 0 1 0-7.343l11.016-11.016z" opacity=".4"/><path fill="#9BC9FF" d="M63.906 67.585l-2.44-2.44h-.001l2.44 2.44h.001z"/><path fill="#00D6A8" d="M61.639 56.75a12.116 12.116 0 0 1-14.55-15.77l6.526 6.518 5.505-1.835 1.835-5.505-6.517-6.526a12.116 12.116 0 0 1 15.769 14.55l4.11 4.11 2.442 2.44 17.855 17.856a5.202 5.202 0 0 1 0 7.348l-1.22 1.22a5.202 5.202 0 0 1-7.349 0L61.64 56.75z" opacity=".4"/><path stroke="url(#b)" stroke-width="2" d="M46.776 72.485L57.792 61.47a.866.866 0 0 1 1.223 0l2.452 2.452 3.06-3.06-3.154-3.15a13.036 13.036 0 0 1-12.046-3.478 13.062 13.062 0 0 1-3.05-13.537.866.866 0 0 1 1.426-.324l6.145 6.14 4.587-1.53 1.53-4.587-6.14-6.145a.865.865 0 0 1 .324-1.427 12.982 12.982 0 0 1 17.02 15.09l3.15 3.155 11.032-11.04.346-3.731a.865.865 0 0 1 .504-.708l6.732-3.056a.865.865 0 0 1 .969.174l2.44 2.44a.866.866 0 0 1 .174.97L93.46 42.85a.865.865 0 0 1-.709.505l-3.731.346-11.037 11.032L95.23 71.976a6.067 6.067 0 0 1 0 8.569l-1.22 1.22a6.068 6.068 0 0 1-8.569 0l-17.249-17.24-3.06 3.06 2.452 2.453a.866.866 0 0 1 0 1.223L56.567 82.276a6.065 6.065 0 0 1-8.568 0l-1.224-1.224a6.058 6.058 0 0 1 0-8.568v.001zm28.767-20.193l1.217 1.218 11.262-11.252a.864.864 0 0 1 .532-.25l3.542-.328 2.596-5.73-1.592-1.593-5.73 2.596-.326 3.541a.864.864 0 0 1-.25.532l-11.25 11.266zM86.66 80.545a4.335 4.335 0 0 0 6.124 0l1.22-1.22a4.335 4.335 0 0 0 0-6.125L69.599 48.793a.865.865 0 0 1-.225-.836A11.27 11.27 0 0 0 56.09 34.061l5.478 5.485a.865.865 0 0 1 .21.887l-1.836 5.504a.865.865 0 0 1-.547.547l-5.505 1.834a.866.866 0 0 1-.885-.208l-5.486-5.478a11.247 11.247 0 0 0 13.897 13.282.857.857 0 0 1 .835.224l24.41 24.407zM66.967 63.302l-1.217-1.218-3.063 3.061 1.22 1.22 3.06-3.063zM48 79.832l1.224 1.22a4.332 4.332 0 0 0 6.12 0L65.747 70.65l-7.343-7.344L47.999 73.71a4.327 4.327 0 0 0 0 6.12v.003z"/><path fill="#00D6A8" d="M88 35l-2 6.5 5.5 1.5 2-3.5 1.5-4-1-2-6 1.5z"/><circle cx="26" cy="26" r="23.5" fill="#00D6A8" stroke="#FAFAFA" stroke-width="5"/><path fill="#fff" d="M25.283 24.879c1.38 0 2.477.387 3.291 1.162.82.775 1.23 1.836 1.23 3.184 0 1.595-.49 2.822-1.474 3.681-.983.86-2.39 1.29-4.219 1.29-1.588 0-2.87-.258-3.847-.772v-2.608a8.144 8.144 0 0 0 1.797.674c.683.17 1.33.254 1.943.254 1.842 0 2.764-.755 2.764-2.265 0-1.44-.954-2.159-2.862-2.159-.345 0-.726.036-1.142.108a7.89 7.89 0 0 0-1.016.215l-1.201-.645.537-7.275h7.744v2.558H23.73l-.263 2.803.342-.068c.397-.091.888-.137 1.474-.137z"/><defs><linearGradient id="a" x1="71" x2="71" y1="5" y2="111" gradientUnits="userSpaceOnUse"><stop stop-color="#00D6A8"/><stop offset="1" stop-color="#00A984"/></linearGradient><linearGradient id="b" x1="71" x2="71" y1="32.07" y2="84.049" gradientUnits="userSpaceOnUse"><stop stop-color="#00D6A8"/><stop offset="1" stop-color="#00A984"/></linearGradient></defs></svg>