<svg xmlns="http://www.w3.org/2000/svg" width="166" height="88" fill="none" viewBox="0 0 166 88"><path fill="#000" d="M29.268 52.557a28.63 28.63 0 0 1 50.57-18.389 9.422 9.422 0 0 0-.092-5.158 12.35 12.35 0 0 0-2.716-5.432 54.734 54.734 0 0 0 7.253-6.342c4.552-4.552 3.626-5.432 3.626-5.432-3 1.96-6.41 3.201-9.968 3.626a16.69 16.69 0 0 0-9.969 5.432l-.91-4.552c-.91-4.551 4.552-5.431 4.552-5.431s-2.716-1.806-9.104-.91c-6.387.895-9.968 9.103-9.968 9.103a8.132 8.132 0 0 1-2.26-4.992c0-2.352 2.26-3.171 2.26-8.603C52.542.046 51.586 0 51.586 0a8.574 8.574 0 0 1-3.626 6.342c-3.55 2.761-10.803 8.163-9.892 14.505.91 6.342-1.806 8.163-1.806 8.163s.91-2.716-.91-10.879-7.253-8.163-7.253-8.163l1.806 3.687c.91 1.806-.91 6.342-2.716 10.879a57.02 57.02 0 0 0-2.716 10.879s-.91 0-2.716-2.716a11.303 11.303 0 0 1-1.805-9.969A41.407 41.407 0 0 0 15.4 36.383c-.91 7.253 6.342 16.402 6.342 16.402s-6.342.91-9.103.91a32.154 32.154 0 0 1-6.342-.91 15.657 15.657 0 0 0 2.806 3.49c1.806 1.805 5.432 2.715 9.104 3.626a9.8 9.8 0 0 1 5.432 3.626 11.68 11.68 0 0 0-4.552 0c-1.366.455-2.716.91-9.104 3.626A8.345 8.345 0 0 1 0 65.348l.91 2.716a12.775 12.775 0 0 0 2.716 4.551h34.078a27.72 27.72 0 0 1-8.436-20.058z"/><path fill="#000" d="M59.262 72.327v-.91h1.092c1.639 0 2.716-.365 3.035-1.093a9.194 9.194 0 0 0 .637-3.9V40.238H52.024v26.188a6.782 6.782 0 0 0 .82 4.172 4.218 4.218 0 0 0 3.034.82h1.002v.91H38.96v-.91h1.092a3.93 3.93 0 0 0 3.035-.82 7.377 7.377 0 0 0 .728-4.081V43.863a7.435 7.435 0 0 0-.728-3.99c-.455-.637-1.517-.91-3.035-.91H38.96v-.91h38.25v.91h-.91a3.868 3.868 0 0 0-3.172 1.001A7.586 7.586 0 0 0 72.416 44v22.516a6.782 6.782 0 0 0 .82 4.172c.918.657 2.048.95 3.17.82h.82v.91H59.262v-.091zm44.415-11.637l9.346-22.759h13.958v.91h-1.046a4.902 4.902 0 0 0-2.443.547 2.585 2.585 0 0 0-1.002 1.183 10.35 10.35 0 0 0-.273 3.171v22.683a11.577 11.577 0 0 0 .273 3.262c.243.522.662.94 1.184 1.184a4.218 4.218 0 0 0 2.261.44h1.092v.91h-17.995v-.91h1.093a4.902 4.902 0 0 0 2.443-.547 2.582 2.582 0 0 0 1.001-1.183c.238-1.034.314-2.099.228-3.156V41.057l-13.109 31.27h-.638L86.729 41.24v24.2c-.04 1.012-.01 2.026.091 3.034a3.69 3.69 0 0 0 1.517 2.079 5.84 5.84 0 0 0 3.444.82v.91h-11.85v-.91h.486a5.326 5.326 0 0 0 2.079-.365 3.035 3.035 0 0 0 1.517-1.092 4.78 4.78 0 0 0 .82-1.806c0-.182.09-1.092.09-2.534V43.864a11.537 11.537 0 0 0-.273-3.262 2.443 2.443 0 0 0-1.198-1.154 4.218 4.218 0 0 0-2.261-.455h-1.092v-.91h13.973l9.605 22.607zm26.108-22.759h17.842v.91h-.546a4.373 4.373 0 0 0-3.353.91 5.612 5.612 0 0 0-.819 3.536V53.56a24.095 24.095 0 0 0 4.551-.273 3.946 3.946 0 0 0 1.988-1.366 12.023 12.023 0 0 0 1.714-4.445 30.837 30.837 0 0 1 1.897-5.796 8.45 8.45 0 0 1 2.534-3.035 7.19 7.19 0 0 1 4.081-1.092 5.525 5.525 0 0 1 3.9 1.365 4.466 4.466 0 0 1 1.517 3.445 3.038 3.038 0 0 1-1.002 2.442 3.266 3.266 0 0 1-2.442.91c-1.897 0-3.035-1.092-3.035-3.352-.091-1.093-.455-1.639-1.183-1.639a2.245 2.245 0 0 0-1.897 1.274 20.072 20.072 0 0 0-1.714 4.552c-.638 2.17-1.093 3.808-1.518 4.9a7.371 7.371 0 0 1-1.896 2.717 6.18 6.18 0 0 1 2.443 1.092 7.195 7.195 0 0 1 1.517 1.715c.455.728 1.517 2.442 3.034 5.34l3.429 6.297a6.077 6.077 0 0 0 1.897 2.079 5.037 5.037 0 0 0 2.716.637v.91h-11.516l-7.07-13.14a11.116 11.116 0 0 0-1.806-2.715 5.19 5.19 0 0 0-2.352-.546v11.607a3.877 3.877 0 0 0 1.002 3.17 7.326 7.326 0 0 0 3.808.729v.91h-17.813v-.94a6.222 6.222 0 0 0 3.9-.91c.637-.547.91-1.715.91-3.536V44a8.317 8.317 0 0 0-.728-4.081c-.455-.728-1.639-1.002-3.353-1.002h-.729v-.986h.092zM10.909 82.477a2.17 2.17 0 0 0 .606 1.396c.395.3.886.446 1.381.41a1.805 1.805 0 0 0 1.517-.713 3.55 3.55 0 0 0 .577-2.049h-3.232v-1.259h3.202a3.52 3.52 0 0 0-.592-2.048 1.806 1.806 0 0 0-1.518-.713 1.881 1.881 0 0 0-1.335.44c-.35.388-.554.888-.576 1.41H9.422a3.43 3.43 0 0 1 1.062-2.306 3.475 3.475 0 0 1 2.412-.819 3.626 3.626 0 0 1 1.957.531 3.414 3.414 0 0 1 1.275 1.517c.284.677.424 1.406.41 2.14v.758a5.387 5.387 0 0 1-.501 2.276 3.368 3.368 0 0 1-1.23 1.517 3.55 3.55 0 0 1-1.926.531 3.626 3.626 0 0 1-2.473-.804 3.26 3.26 0 0 1-1.062-2.26h1.517l.046.045zm12.684 2.943h-1.517v-2.715H19.45v2.716h-1.517v-6.752h1.517v2.807h2.625v-2.807h1.517v6.752zm4.567.122a3.127 3.127 0 0 1-2.336-.91 3.28 3.28 0 0 1-.91-2.413v-.182a4.036 4.036 0 0 1 .394-1.805 3.034 3.034 0 0 1 1.092-1.23c.455-.284.98-.437 1.517-.44a2.64 2.64 0 0 1 2.125.911 3.7 3.7 0 0 1 .758 2.488v.607h-4.34c.016.492.21.962.547 1.32a1.667 1.667 0 0 0 1.229.486 2.05 2.05 0 0 0 1.684-.926l.82.774a2.717 2.717 0 0 1-1.078.91 3.383 3.383 0 0 1-1.502.41zm-.182-5.766a1.274 1.274 0 0 0-1.001.44c-.27.336-.438.741-.486 1.169h2.883a1.806 1.806 0 0 0-.41-1.138 1.26 1.26 0 0 0-.986-.47zm9.953 2.352a4.006 4.006 0 0 1-.713 2.489 2.457 2.457 0 0 1-3.459.379l-.212-.182V88h-1.518v-9.331h1.35v.683a2.216 2.216 0 0 1 1.806-.804 2.29 2.29 0 0 1 1.927.91c.534.714.822 1.582.82 2.473v.197zm-1.517-.197a2.807 2.807 0 0 0-.44-1.517 1.306 1.306 0 0 0-1.077-.607 1.38 1.38 0 0 0-1.335.758V83.6a1.411 1.411 0 0 0 1.335.774 1.29 1.29 0 0 0 1.138-.577c.323-.565.456-1.22.38-1.866zm7.251-2.018h-2.913v5.508h-1.518v-6.752h4.416v1.244h.015zm3.69 5.629a3.127 3.127 0 0 1-2.336-.91 3.277 3.277 0 0 1-.91-2.413v-.182a4.036 4.036 0 0 1 .394-1.805 3.034 3.034 0 0 1 1.093-1.23c.454-.284.98-.437 1.517-.44a2.64 2.64 0 0 1 2.124.911c.566.692.862 1.565.834 2.458v.607h-4.415c.015.492.21.961.546 1.32a1.67 1.67 0 0 0 1.23.485 2.048 2.048 0 0 0 1.683-.895l.82.774a2.716 2.716 0 0 1-1.077.91 3.384 3.384 0 0 1-1.502.41zm-.182-5.766a1.274 1.274 0 0 0-1 .44 2.26 2.26 0 0 0-.486 1.169h2.867a1.805 1.805 0 0 0-.41-1.138 1.26 1.26 0 0 0-.97-.47zm9.267.107h-2.17v5.538h-1.518v-5.538h-2.154v-1.23h5.841v1.23zm5.206-1.214h1.517v6.721h-1.517v-4.55l-2.64 4.551h-1.518V78.67h1.518v4.552l2.64-4.552zm8.496 6.751h-1.518v-2.23a5.383 5.383 0 0 1-1.229.137 3.035 3.035 0 0 1-2.154-.652 2.444 2.444 0 0 1-.728-1.897v-2.109h1.517v2.079a1.382 1.382 0 0 0 .334 1.046c.283.225.64.333 1.001.304a5.437 5.437 0 0 0 1.229-.152V78.67h1.517v6.752h.03zm4.565.122a3.127 3.127 0 0 1-2.336-.91 3.277 3.277 0 0 1-.91-2.413v-.182a4.036 4.036 0 0 1 .394-1.805 3.034 3.034 0 0 1 1.092-1.23c.455-.284.98-.437 1.517-.44a2.64 2.64 0 0 1 2.124.911c.55.698.83 1.57.79 2.458v.607h-4.355c.015.492.21.961.546 1.32a1.669 1.669 0 0 0 1.23.485 2.048 2.048 0 0 0 1.683-.895l.82.774a2.717 2.717 0 0 1-1.078.91 3.383 3.383 0 0 1-1.517.41zm-.182-5.766a1.275 1.275 0 0 0-1.001.44 2.26 2.26 0 0 0-.486 1.169h2.822a1.806 1.806 0 0 0-.41-1.138 1.26 1.26 0 0 0-.925-.47zm6.83 4.568c.334.003.658-.115.91-.334a1.125 1.125 0 0 0 .395-.82h1.517a2.215 2.215 0 0 1-.395 1.169 2.55 2.55 0 0 1-1.001.865 3.03 3.03 0 0 1-1.35.318 2.868 2.868 0 0 1-2.246-.91 3.627 3.627 0 0 1-.82-2.519v-.182a3.566 3.566 0 0 1 .82-2.458 2.838 2.838 0 0 1 2.246-.91 2.716 2.716 0 0 1 1.957.698 2.502 2.502 0 0 1 .804 1.805h-1.441a1.381 1.381 0 0 0-.395-.91 1.274 1.274 0 0 0-.91-.364 1.335 1.335 0 0 0-1.138.53 2.715 2.715 0 0 0-.47 1.609v.243a2.715 2.715 0 0 0 .394 1.638 1.334 1.334 0 0 0 1.123.532zm6.282-1.594h-.774v2.656h-1.517v-6.737h1.517v2.716h.668l1.805-2.716h1.912l-2.413 3.262 2.64 3.505h-1.957l-1.881-2.686zm8.86-4.081h1.517v6.721h-1.517v-4.55l-2.64 4.551H92.34V78.67h1.517v4.552l2.64-4.552zm6.054 6.873a3.129 3.129 0 0 1-2.337-.91 3.283 3.283 0 0 1-.91-2.413v-.182a4.036 4.036 0 0 1 .394-1.805 3.037 3.037 0 0 1 1.093-1.23c.455-.284.98-.437 1.517-.44a2.64 2.64 0 0 1 2.124.911 3.7 3.7 0 0 1 .759 2.488v.607h-4.4c.015.492.209.962.546 1.32a1.67 1.67 0 0 0 1.229.486 2.03 2.03 0 0 0 1.745-.926l.819.774a2.711 2.711 0 0 1-1.077.91 3.382 3.382 0 0 1-1.502.41zm-.182-5.766a1.273 1.273 0 0 0-1.002.44 2.25 2.25 0 0 0-.485 1.214h2.868v-.121a1.81 1.81 0 0 0-.41-1.138 1.255 1.255 0 0 0-.956-.395h-.015zm9.996 4.568a1.37 1.37 0 0 0 .91-.334 1.128 1.128 0 0 0 .394-.82h1.427a2.225 2.225 0 0 1-.395 1.169 2.55 2.55 0 0 1-1.001.865c-.424.21-.892.32-1.366.318a2.863 2.863 0 0 1-2.245-.91 3.624 3.624 0 0 1-.85-2.519v-.182a3.567 3.567 0 0 1 .819-2.458 2.842 2.842 0 0 1 2.246-.91 2.715 2.715 0 0 1 1.957.698 2.494 2.494 0 0 1 .804 1.805h-1.426a1.383 1.383 0 0 0-.394-.91 1.286 1.286 0 0 0-.911-.364 1.335 1.335 0 0 0-1.138.53 2.725 2.725 0 0 0-.44 1.609v.243a2.72 2.72 0 0 0 .395 1.638 1.316 1.316 0 0 0 1.214.532zm8.089-5.675h1.517v6.721h-1.517v-4.55l-2.64 4.551h-1.517V78.67h1.517v4.552l2.64-4.552zm5.873 5.675c.334.004.658-.115.91-.334a1.127 1.127 0 0 0 .395-.82h1.426a2.209 2.209 0 0 1-.395 1.169 2.55 2.55 0 0 1-1.001.865 3.03 3.03 0 0 1-1.35.318 2.87 2.87 0 0 1-2.246-.91 3.626 3.626 0 0 1-.819-2.519v-.182a3.562 3.562 0 0 1 .819-2.458 2.856 2.856 0 0 1 2.246-.91 2.715 2.715 0 0 1 1.957.698 2.506 2.506 0 0 1 .789 1.806h-1.426a1.384 1.384 0 0 0-.395-.91 1.266 1.266 0 0 0-.91-.365 1.339 1.339 0 0 0-1.138.531 2.717 2.717 0 0 0-.41 1.517v.243a2.72 2.72 0 0 0 .395 1.639 1.33 1.33 0 0 0 1.153.622zm9.196-4.461h-2.185v5.538h-1.517v-5.538h-2.155v-1.23h5.842v1.23h.015zm3.565 5.659a3.132 3.132 0 0 1-2.337-.91 3.285 3.285 0 0 1-.91-2.413v-.182a4.027 4.027 0 0 1 .395-1.805 3.035 3.035 0 0 1 1.092-1.23c.455-.284.98-.437 1.517-.44a2.64 2.64 0 0 1 2.124.911 3.7 3.7 0 0 1 .759 2.488v.607h-4.339c.015.492.209.962.546 1.32a1.67 1.67 0 0 0 1.229.486 2.052 2.052 0 0 0 1.699-.926l.82.774a2.72 2.72 0 0 1-1.078.91 3.38 3.38 0 0 1-1.517.41zm-.182-5.766a1.273 1.273 0 0 0-1.001.44c-.278.349-.447.77-.486 1.214h2.868v-.121a1.81 1.81 0 0 0-.41-1.138 1.258 1.258 0 0 0-.971-.395zm8.04 3.779l1.988-4.901h1.881v6.721h-1.517V80.96l-1.806 4.46h-1.016l-1.851-4.55v4.55h-1.517v-6.75h1.896l1.942 4.885zm7.189-2.716h1.517c.496-.01.988.088 1.441.288.375.174.692.453.911.804.217.362.327.777.318 1.199a2.084 2.084 0 0 1-.728 1.669 2.928 2.928 0 0 1-1.942.637h-3.035v-6.767h1.518v2.17zm0 1.213v2.155h1.517c.329.024.655-.08.91-.288a.98.98 0 0 0 .319-.79 1.05 1.05 0 0 0-.319-.803 1.199 1.199 0 0 0-.849-.304h-1.518l-.06.03zm6.812 3.369h-1.517v-6.752h1.517v6.752z"/></svg>