<svg xmlns="http://www.w3.org/2000/svg" width="36" height="32"><path fill="#0bd" d="M30.955 13.269a39.427 39.427 0 0 0-.395 1.685c-.672 3.552-.619 7.371.64 10.901a15.113 15.113 0 0 0 1.856 3.648 1.6 1.6 0 0 1-2.63 1.82l-.004-.006a18.47 18.47 0 0 1-2.199-4.254l-.041-.13c-.802-2.299-1.265-4.949-1.265-7.707 0-1.724.181-3.405.525-5.027l-.028.158c-.416.021-.843.043-1.28.043h-.004a9.59 9.59 0 0 1-7.975-4.254l-.022-.034c-1.744 2.606-4.676 4.299-8.003 4.299-.45 0-.893-.031-1.327-.091l.05.006c.779 4.096.715 8.459-.747 12.608a18.757 18.757 0 0 1-2.28 4.456l.04-.061a1.601 1.601 0 0 1-2.946-.865c0-.357.117-.687.315-.953l-.003.004a16.13 16.13 0 0 0 1.856-3.659c.688-1.989 1.085-4.282 1.085-6.667 0-2.11-.311-4.147-.888-6.068l.038.149a1.438 1.438 0 0 1-.041-.171l-.001-.01C2.421 11.391.534 8.319.534 4.806v-.005c0-.939.107-1.643.341-2.368.128-.373.107-.331.576-1.408a1.603 1.603 0 1 1 2.94 1.28l.004-.01c-.405.928-.405.907-.48 1.152-.128.384-.181.747-.181 1.355 0 3.535 2.865 6.4 6.4 6.4s6.4-2.865 6.4-6.4a1.6 1.6 0 1 1 3.2 0c0 3.535 2.865 6.4 6.4 6.4s6.4-2.865 6.4-6.4c0-.608-.053-.971-.181-1.355-.075-.245-.075-.213-.48-1.152a1.606 1.606 0 0 1 2.94-1.29l.004.01c.469 1.088.448 1.045.576 1.419.235.725.341 1.429.341 2.368v.007a9.596 9.596 0 0 1-4.682 8.246l-.044.024-.053.192zM8.533 8.8a1.6 1.6 0 1 1 0-3.2 1.6 1.6 0 1 1 0 3.2zm19.2 0a1.6 1.6 0 1 1 0-3.2 1.6 1.6 0 1 1 0 3.2zm-11.2 16.8a1.6 1.6 0 1 1 3.2 0v1.6a1.6 1.6 0 1 1-3.2 0z"/></svg>